<svg width="256" height="256" viewBox="0 0 256 256" fill="none" xmlns="http://www.w3.org/2000/svg">
<g clip-path="url(#clip0_244_1763)">
<path fill-rule="evenodd" clip-rule="evenodd" d="M227.857 110.876H197.462C195.602 107.122 193.493 103.474 191.168 100.149C192.205 98.2176 192.742 96.0721 192.742 93.7835C192.742 86.5602 187.056 80.6599 180.083 80.6599C177.83 80.6599 175.756 81.2321 173.861 82.3764C160.487 72.3281 144.717 67 128.232 67C99.1246 67 72.3054 84.3789 59.1103 111.055H28V120.424H65.0105V120.138L65.1893 119.709C75.9528 93.4259 100.698 76.4404 128.232 76.4404C142.643 76.4404 156.411 81.0533 168.104 89.7427C167.675 91.0658 167.46 92.4604 167.46 93.855C167.46 101.043 173.11 106.871 180.011 106.871C181.263 106.871 182.658 106.657 183.945 106.228C186.984 110.626 189.452 115.167 191.347 119.745L191.526 120.174H191.597V120.495H228V111.162V110.876H227.857ZM180.083 100.721C176.328 100.721 173.289 97.5739 173.289 93.6762C173.289 89.7785 176.328 86.6317 180.083 86.6317C183.838 86.6317 186.877 89.7785 186.877 93.6762C186.877 97.5739 183.802 100.721 180.083 100.721Z" fill="white"/>
<path d="M33.4711 162.262H28.2502V130.687H46.6661C51.1002 130.687 53.7822 131.473 55.9277 133.369C57.8587 135.157 58.9672 137.767 58.9672 140.556C58.9672 142.559 58.3951 144.597 57.3581 146.135C54.6404 150.068 49.9202 150.068 47.0952 150.068H33.5068V162.262H33.4711ZM33.3995 145.384H46.4516C48.025 145.384 49.9917 145.384 51.3863 144.382C52.6379 143.56 53.3888 142.022 53.3888 140.306C53.3888 138.911 52.9955 137.803 52.1372 136.909C50.5639 135.264 48.025 135.264 45.9867 135.264H33.3995V145.384Z" fill="white"/>
<path d="M80.3868 163.084C75.309 163.084 71.161 161.904 68.05 159.616C65.2608 157.577 61.8994 153.716 61.8994 146.85C61.8994 135.157 71.018 129.936 80.1007 129.936C91.1145 129.972 98.5524 136.802 98.5524 146.886C98.5166 158.078 89.3981 163.084 80.3868 163.084ZM80.1723 134.656C79.9935 134.656 79.8147 134.656 79.6359 134.656C73.5568 134.835 67.0129 138.053 67.0129 146.599C67.0129 148.316 67.3348 151.57 69.4803 154.073C71.8047 156.898 75.4521 158.328 80.351 158.328C92.3661 158.328 93.3316 149.246 93.3316 146.456C93.3316 139.305 88.1823 134.656 80.1723 134.656Z" fill="white"/>
<path d="M137.923 162.262H131.2L121.259 150.032H107.814V162.262H102.665V130.687H123.119C125.765 130.723 129.019 130.794 131.665 133.297C132.702 134.227 134.455 136.372 134.455 140.199C134.455 147.064 129.52 148.674 126.981 149.21L137.923 162.262ZM107.778 145.455H121.796C123.87 145.455 126.695 145.455 128.268 143.31C128.876 142.523 129.162 141.522 129.162 140.342C129.162 139.233 128.876 138.16 128.376 137.374C127.195 135.443 125.336 135.371 123.548 135.335H123.441H107.814V145.455H107.778Z" fill="white"/>
<path d="M155.445 162.262H150.296V135.3H138.316V130.687H167.46V135.3H155.445V162.262Z" fill="white"/>
<path d="M199.607 162.262H193.743L181.299 137.517L169.176 162.262H163.419L179.082 130.687H184.088L199.607 162.262Z" fill="white"/>
<path d="M227.821 162.262H203.219V130.687H208.368V157.542H227.821V162.262Z" fill="white"/>
<path d="M227.821 173.848H212.373V188.259H227.821V173.848Z" fill="white"/>
<path d="M43.6981 173.848H28.2502V188.259H43.6981V173.848Z" fill="white"/>
<path d="M54.4616 174.098H50.3494V172.811H60.3619V174.098H56.2496V187.15H54.4616V174.098Z" fill="white"/>
<path d="M76.2747 172.811H80.816C83.2119 172.811 84.3919 173.061 85.2144 173.347C87.2169 174.098 88.397 175.672 88.397 177.424C88.397 179.498 86.5375 181.608 83.0689 181.786L88.1466 187.15H85.8938L79.8148 180.642C82.1034 180.642 82.8543 180.606 83.6768 180.427C85.6435 179.998 86.6448 178.675 86.6448 177.388C86.6448 176.279 85.8581 175.099 84.678 174.635C83.6052 174.205 82.6755 174.098 81.1736 174.098H78.0626V187.15H76.2747V172.811Z" fill="white"/>
<path d="M105.025 172.811H114.823V174.098H106.813V179.247H114.537V180.535H106.777V185.827H114.787V187.114H104.989V172.811H105.025Z" fill="white"/>
<path d="M132.309 172.811H134.097V185.863H141.499V187.15H132.309V172.811Z" fill="white"/>
<path d="M157.269 172.811H167.067V174.098H159.057V179.247H166.816V180.535H159.057V185.827H167.067V187.114H157.269V172.811Z" fill="white"/>
<path d="M182.872 172.811H184.696L189.094 185.291H189.13L193.385 172.811H195.066L199.357 185.291H199.393L203.791 172.811H205.615L200.465 187.15H198.177L194.243 175.385H194.208L190.274 187.15H187.986L182.872 172.811Z" fill="white"/>
</g>
<defs>
<clipPath id="clip0_244_1763">
<rect width="256" height="256" fill="white"/>
</clipPath>
</defs>
</svg>
