<svg width="256" height="256" viewBox="0 0 256 256" fill="none" xmlns="http://www.w3.org/2000/svg">
<g clip-path="url(#clip0_245_2732)">
<path fill-rule="evenodd" clip-rule="evenodd" d="M227.846 113.133V112.826H197.426C195.582 109.061 193.47 105.451 191.127 102.109C192.164 100.189 192.701 98.0378 192.701 95.7717C192.701 88.5506 187.055 82.6739 180.065 82.6739C177.837 82.6739 175.724 83.25 173.842 84.3639C160.476 74.3006 144.727 69 128.25 69C99.0966 69 72.2865 86.3612 59.112 113.018H28V122.39H64.9887V122.121L65.1423 121.698C75.8971 95.426 100.633 78.4104 128.173 78.4104C142.577 78.4104 156.366 82.9812 168.042 91.7002C167.62 93.0061 167.389 94.4273 167.389 95.8101C167.389 102.993 172.997 108.831 179.949 108.831C181.217 108.831 182.6 108.601 183.867 108.178C186.901 112.557 189.36 117.128 191.242 121.698L191.395 122.082H191.472V122.428H227.885V113.094H227.846V113.133Z" fill="#666666"/>
<path d="M227.923 172.399H212.444V186.841H227.923V172.399Z" fill="#666666"/>
<path d="M43.5177 172.399H28.0386V186.841H43.5177V172.399Z" fill="#666666"/>
<path d="M32.5704 160.876H28.0381V133.951H51.9674V138.061H32.5704V145.436H51.1992V149.507H32.5704V160.876Z" fill="#666666"/>
<path d="M81.8505 160.876H76.55L65.9489 139.789L54.9252 160.876H49.7783L63.6443 133.951H68.0998L81.8505 160.876Z" fill="#666666"/>
<path d="M96.331 161.491C86.3445 161.491 80.1221 156.037 80.1221 147.241C80.1221 142.593 81.7353 139.098 85.1153 136.563C86.1524 135.756 89.302 133.183 96.2158 133.183C98.0595 133.183 102.707 133.413 106.318 135.68C109.16 137.485 110.504 139.713 111.196 140.903L111.541 141.479L106.586 142.593L106.394 142.286C105.818 141.287 105.242 140.25 103.744 139.252C102.361 138.33 99.6727 137.37 96.331 137.37C93.6807 137.37 84.9617 138.061 84.9617 147.087C84.9617 149.853 85.8451 152.311 87.4968 154.155C88.8795 155.576 91.6066 157.304 96.5615 157.304H96.7919C100.057 157.304 102.784 156.536 104.512 155.192C106.049 154.078 106.778 152.657 106.971 152.234L107.124 151.888L112.041 152.887L111.733 153.502C110.773 155.192 109.736 157.112 106.971 158.841C103.322 161.145 98.7508 161.491 96.331 161.491Z" fill="#666666"/>
<path d="M125.369 160.876H120.759V138.023H110.197V133.951H135.97V138.023H125.369V160.876V160.876Z" fill="#666666"/>
<path d="M151.487 161.568C146.993 161.568 143.344 160.569 140.579 158.61C138.082 156.882 135.125 153.617 135.125 147.74C135.125 137.792 143.191 133.336 151.218 133.336C160.974 133.375 167.542 139.175 167.542 147.779C167.542 157.304 159.476 161.568 151.487 161.568ZM151.295 137.485C151.141 137.485 150.988 137.485 150.834 137.485C145.495 137.638 139.772 140.365 139.772 147.548C139.772 149.008 140.041 151.735 141.923 153.847C143.959 156.229 147.185 157.419 151.487 157.419C161.781 157.419 162.895 150.429 162.895 147.433C162.856 141.364 158.324 137.485 151.295 137.485Z" fill="#666666"/>
<path d="M200.575 160.876H194.506L185.749 150.506H173.957V160.876H169.348V133.951H187.4C189.743 133.99 192.624 134.028 195.005 136.179C195.927 136.986 197.425 138.829 197.425 142.094C197.425 147.856 193.162 149.315 190.934 149.776L200.575 160.876ZM173.918 146.511H186.21C188.015 146.511 190.511 146.511 191.856 144.706C192.355 144.053 192.624 143.208 192.624 142.248C192.624 141.326 192.394 140.404 191.933 139.751C190.934 138.099 189.359 138.099 187.708 138.061H187.592H173.88V146.511H173.918Z" fill="#666666"/>
<path d="M214.364 160.876H209.793V150.467L196.388 133.951H202.303L211.445 145.474C211.752 145.897 211.944 146.165 212.098 146.473C212.251 146.242 212.443 146.012 212.712 145.666L222.046 133.99H227.999L214.364 150.544V160.876V160.876Z" fill="#666666"/>
<path d="M72.1711 187.072C69.9433 187.072 69.1367 186.496 68.1764 185.843C65.8719 187.072 63.3368 187.072 62.7991 187.072C57.4217 187.072 53.1582 183.73 53.1582 179.697C53.1582 175.933 56.8071 172.207 62.8375 172.207C68.3685 172.207 72.4783 175.511 72.4783 179.774C72.4783 181.694 71.5181 183.538 69.5208 184.998C70.5963 185.728 71.3645 185.766 72.1711 185.766V187.072V187.072ZM59.0349 180.926C63.4904 180.926 66.0255 182.578 68.2149 184.076C69.9817 182.693 70.6731 181.157 70.6731 179.736C70.6731 176.125 67.0242 173.513 62.8375 173.513C58.8813 173.513 54.9251 175.971 54.9251 179.774C54.9251 180.504 55.0787 180.965 55.2323 181.387C55.9621 181.234 57.1528 180.926 59.0349 180.926ZM62.8375 185.766C63.3368 185.766 65.1805 185.766 66.7937 184.844C66.448 184.614 64.758 183.577 64.3355 183.385C61.9925 182.194 59.1501 182.194 58.766 182.194C57.2681 182.194 56.6151 182.386 55.9621 182.616C56.4614 183.385 58.574 185.766 62.8375 185.766Z" fill="#666666"/>
<path d="M85.384 172.476V181.426C85.384 182.463 85.5761 183.423 85.9986 184.037C87.1125 185.651 88.8793 185.804 89.7243 185.804C90.5694 185.804 92.3362 185.651 93.4117 184.037C93.8342 183.423 94.0262 182.463 94.0262 181.426V172.476H95.8315V181.426C95.8315 182.616 95.5626 183.653 95.1401 184.422C93.911 186.572 91.376 187.072 89.7243 187.072C88.0343 187.072 85.5377 186.572 84.3086 184.422C83.8861 183.653 83.6172 182.616 83.6172 181.426V172.476H85.384Z" fill="#666666"/>
<path d="M108.008 172.476H109.813V186.841H108.008V172.476Z" fill="#666666"/>
<path d="M122.104 172.476H123.909V185.535H131.322V186.841H122.104V172.476Z" fill="#666666"/>
<path d="M141.655 172.476H144.42L150.95 184.69L157.518 172.476H160.284V186.841H158.478V174.051H158.44L151.718 186.841H150.22L143.537 174.051H143.498V186.841H141.693V172.476H141.655Z" fill="#666666"/>
<path d="M172.306 172.476H182.139V173.782H174.111V178.929H181.87V180.235H174.111V185.535H182.139V186.841H172.306V172.476Z" fill="#666666"/>
<path d="M194.43 182.808C194.545 184.614 195.966 185.766 198.156 185.766C200.038 185.766 201.766 184.614 201.766 182.924C201.766 180.696 198.962 180.158 197.733 179.851C196.12 179.467 193.086 178.929 193.086 176.048C193.086 173.82 195.275 172.207 198.117 172.207C201.036 172.207 203.111 174.013 203.111 176.125H201.305C201.305 174.665 199.807 173.513 198.117 173.513C196.043 173.513 194.852 174.781 194.852 176.01C194.852 177.738 196.735 178.161 199.116 178.699C203.456 179.659 203.495 182.386 203.495 182.847V182.885C203.495 185.113 201.267 187.072 198.079 187.072C195.774 187.072 192.625 185.958 192.548 182.808H194.43Z" fill="#666666"/>
<path d="M173.497 95.6948C173.497 91.9306 176.416 88.8962 180.026 88.8962C183.637 88.8962 186.594 91.9306 186.594 95.6948C186.594 99.4205 183.675 102.493 180.026 102.493C176.454 102.493 173.497 99.4589 173.497 95.6948Z" fill="#9E1E7F"/>
<path d="M180.103 102.993C176.3 102.993 173.189 99.8048 173.189 95.8486C173.189 91.8924 176.3 88.7043 180.103 88.7043C183.905 88.7043 186.978 91.8924 186.978 95.8486C187.017 99.8048 183.905 102.993 180.103 102.993Z" fill="#9E1E7F"/>
</g>
<defs>
<clipPath id="clip0_245_2732">
<rect width="256" height="256" fill="white"/>
</clipPath>
</defs>
</svg>
