<svg width="256" height="256" viewBox="0 0 256 256" fill="none" xmlns="http://www.w3.org/2000/svg">
<g clip-path="url(#clip0_245_2367)">
<path d="M73.2438 132.064L57.9799 162.847H63.6034L75.4347 138.746L87.5582 162.847H93.2547L78.1369 132.064H73.2438Z" fill="#666666"/>
<path d="M101.8 132.064H96.7968V162.847H120.752V158.246H101.8V132.064Z" fill="#666666"/>
<path d="M101.069 172.414H99.2799V186.802H107.387V185.414H101.069V172.414Z" fill="#666666"/>
<path d="M43.4829 172.414H28V186.875H43.4829V172.414Z" fill="#666666"/>
<path d="M55.0586 134.693C52.9772 132.831 50.348 132.064 46.0391 132.064H28.073V162.847H33.1488V150.943H46.4042C49.143 150.943 53.744 150.943 56.4097 147.108C57.4322 145.611 57.9799 143.639 57.9799 141.668C57.9799 138.965 56.9209 136.409 55.0586 134.693ZM50.6766 145.429C49.289 146.378 47.3902 146.378 45.8565 146.378H33.1488V136.592H45.4183C47.4267 136.592 49.9098 136.592 51.4435 138.162C52.2468 139.002 52.6485 140.097 52.6485 141.448C52.612 143.128 51.8817 144.589 50.6766 145.429Z" fill="#666666"/>
<path d="M82.9206 186.802H92.2687V185.414H84.7099V180.265H92.2687V178.878H84.7099V173.838H92.2687V172.414H82.9206V186.802Z" fill="#666666"/>
<path d="M73.6089 173.838C72.8786 173.327 72.0387 172.999 71.0528 172.743C70.1034 172.524 68.8983 172.414 67.5107 172.414H62.3984V186.802H66.7073C68.5332 186.802 69.9208 186.692 70.7972 186.546C71.6736 186.364 72.4769 186.071 73.2438 185.633C74.3758 184.976 75.2887 184.136 75.9095 183.077C76.5302 182.018 76.8589 180.886 76.8589 179.608C76.8589 178.476 76.5667 177.381 76.019 176.395C75.4347 175.372 74.6314 174.532 73.6089 173.838ZM73.0977 183.88C71.8561 184.903 70.1034 185.414 67.8028 185.414H64.1512V173.802H67.4011C68.7888 173.802 69.8477 173.875 70.5781 174.058C71.3084 174.24 71.9657 174.532 72.55 174.934C73.3168 175.482 73.9376 176.139 74.3393 176.942C74.7774 177.746 74.96 178.622 74.96 179.535C74.9235 181.434 74.3393 182.858 73.0977 183.88Z" fill="#666666"/>
<path d="M227.927 172.414H212.444V186.875H227.927V172.414Z" fill="#666666"/>
<path d="M183.377 132.064L168.113 162.847H173.737L185.568 138.746L197.691 162.847H203.388L188.27 132.064H183.377Z" fill="#666666"/>
<path d="M220.989 145.502C220.332 145.283 219.346 145.027 218.068 144.698C215.913 144.151 214.416 143.639 213.686 143.201C212.955 142.763 212.444 142.288 212.115 141.777C211.787 141.266 211.641 140.681 211.641 139.951C211.641 138.564 212.152 137.432 213.247 136.555C214.343 135.642 215.804 135.204 217.52 135.204C219.163 135.204 220.441 135.606 221.391 136.446C222.34 137.285 222.924 138.454 223.07 139.988L223.107 140.28H227.197L227.16 139.951C226.978 137.395 226.028 135.35 224.312 133.926C222.632 132.502 220.332 131.771 217.483 131.771C214.489 131.771 212.042 132.575 210.143 134.109C208.245 135.679 207.259 137.724 207.259 140.17C207.259 142.106 207.879 143.676 209.158 144.917C210.399 146.122 212.444 147.108 215.183 147.839L216.096 148.094C221.098 149.409 223.655 151.381 223.655 153.864C223.655 155.617 223.07 156.968 221.865 157.99C220.66 159.013 219.017 159.524 216.936 159.524C215.037 159.524 213.466 159.013 212.298 157.99C211.129 156.968 210.509 155.58 210.472 153.827V153.535H206.309V153.864C206.346 156.676 207.368 158.976 209.304 160.656C211.239 162.372 213.795 163.249 216.862 163.249C220.185 163.249 222.888 162.336 224.896 160.51C226.904 158.721 227.927 156.274 227.927 153.316C227.927 151.344 227.379 149.738 226.247 148.532C225.261 147.254 223.472 146.268 220.989 145.502Z" fill="#666666"/>
<path d="M193.419 176.979C193.419 176.249 193.2 175.518 192.798 174.861C192.397 174.204 191.812 173.656 191.082 173.254C190.571 172.962 189.986 172.743 189.329 172.634C188.672 172.524 187.832 172.451 186.773 172.451H181.953V186.838H183.706V173.875H186.298C187.576 173.875 188.453 173.912 188.964 174.021C189.475 174.131 189.877 174.313 190.242 174.569C190.68 174.898 191.009 175.226 191.228 175.664C191.447 176.066 191.557 176.541 191.557 177.052C191.557 177.892 191.192 178.586 190.498 179.097C189.767 179.645 188.854 179.9 187.722 179.9H186.006L191.338 186.838H193.419L189.074 181.215C190.315 181.142 191.338 180.704 192.177 179.9C193.017 179.06 193.419 178.111 193.419 176.979Z" fill="#666666"/>
<path d="M227.927 112.893H197.509C195.647 109.131 193.529 105.48 191.192 102.157C192.25 100.221 192.762 98.1035 192.762 95.803C192.762 88.5728 187.102 82.6936 180.127 82.6936C177.9 82.6936 175.782 83.2779 173.883 84.4099C160.554 74.3314 144.779 69 128.31 69C99.1703 69 72.4039 86.3818 59.185 113.039H28.073V122.423H65.0641V122.131L65.2467 121.73C76.019 95.4378 100.741 78.4577 128.274 78.4577C142.698 78.4577 156.464 83.0588 168.15 91.7497C167.711 93.0643 167.492 94.4519 167.492 95.876C167.492 103.07 173.116 108.912 180.054 108.912C181.332 108.912 182.683 108.693 183.961 108.255C186.992 112.637 189.475 117.202 191.338 121.766L191.52 122.168H191.593V122.496H228V122.423V112.893H227.927V112.893ZM180.127 102.705C176.402 102.705 173.335 99.5642 173.335 95.6569C173.335 91.7862 176.366 88.6093 180.127 88.6093C183.888 88.6093 186.919 91.7497 186.919 95.6569C186.919 99.5642 183.888 102.705 180.127 102.705Z" fill="#666666"/>
<path d="M163.549 163.176V131.735H157.45L144.378 158.1L131.378 131.918L131.268 131.735H125.17V163.176H129.479V137.03L142.369 162.993L142.479 163.176H146.276L159.276 137.03V163.176H163.549Z" fill="#666666"/>
<path d="M142.333 172.414H140.58V186.802H142.333V172.414Z" fill="#666666"/>
<path d="M151.133 172.414H149.344V186.802H157.45V185.414H151.133V172.414Z" fill="#666666"/>
<path d="M132.072 172.999C131.633 172.779 131.086 172.633 130.428 172.56C129.771 172.451 128.895 172.414 127.799 172.414H123.965V186.802H125.718V180.74H128.091C129.114 180.74 129.954 180.667 130.611 180.557C131.268 180.448 131.852 180.265 132.327 180.01C133.021 179.645 133.532 179.17 133.934 178.549C134.299 177.928 134.518 177.271 134.518 176.541C134.518 175.774 134.299 175.08 133.861 174.496C133.459 173.875 132.838 173.364 132.072 172.999ZM131.56 178.659C130.867 179.097 129.808 179.316 128.347 179.316H125.754V173.838H128.201C129.735 173.838 130.867 174.058 131.56 174.496C132.254 174.934 132.619 175.628 132.619 176.614C132.583 177.527 132.254 178.22 131.56 178.659Z" fill="#666666"/>
<path d="M168.113 172.414L161.139 186.802H163.001L165.155 182.31H173.152L175.307 186.802H177.206L170.268 172.414H168.113ZM165.776 180.996L169.136 173.765L172.532 180.996H165.776Z" fill="#666666"/>
</g>
<defs>
<clipPath id="clip0_245_2367">
<rect width="256" height="256" fill="white"/>
</clipPath>
</defs>
</svg>
