<svg width="256" height="256" viewBox="0 0 256 256" fill="none" xmlns="http://www.w3.org/2000/svg">
<g clip-path="url(#clip0_245_2610)">
<path d="M227.824 172.372H212.369V186.808H227.824V172.372Z" fill="#666666"/>
<path d="M43.4549 172.372H28V186.808H43.4549V172.372Z" fill="#666666"/>
<path d="M33.2336 163.696H28V132.084H46.4405C50.8662 132.084 53.5708 132.857 55.7134 134.753C57.6452 136.545 58.7341 139.144 58.7341 141.919C58.7341 143.921 58.137 145.958 57.1184 147.504C54.4138 151.438 49.6719 151.438 46.862 151.438H33.2336V163.696ZM33.1985 146.801H46.2648C47.8454 146.801 49.8124 146.801 51.2174 145.818C52.4819 144.975 53.2195 143.464 53.2195 141.743C53.2195 140.338 52.798 139.214 51.9902 138.371C50.4447 136.756 47.8806 136.756 45.8082 136.756H33.1985V146.801Z" fill="#666666"/>
<path d="M80.1953 164.539C75.1022 164.539 70.9575 163.38 67.8314 161.062C65.0214 159.025 61.6846 155.161 61.6846 148.312C61.6846 136.615 70.8521 131.346 79.9143 131.346C90.9434 131.417 98.3899 138.231 98.3899 148.347C98.3899 159.516 89.2575 164.539 80.1953 164.539ZM80.0197 136.053C79.844 136.053 79.6684 136.053 79.4928 136.053C73.3811 136.229 66.8479 139.46 66.8479 147.996C66.8479 149.717 67.164 152.948 69.3066 155.477C71.6249 158.287 75.2778 159.727 80.1953 159.727C92.2431 159.727 93.1914 150.63 93.1914 147.855C93.1914 140.69 88.0281 136.053 80.0197 136.053Z" fill="#666666"/>
<path d="M137.8 163.696H131.056L121.116 151.473H107.663V163.696H102.5V132.084H122.942C125.576 132.119 128.843 132.189 131.513 134.683C132.566 135.632 134.287 137.774 134.287 141.603C134.287 148.487 129.335 150.068 126.806 150.595L137.8 163.696ZM107.628 146.871H121.642C123.715 146.871 126.56 146.871 128.105 144.729C128.703 143.921 129.019 142.938 129.019 141.778C129.019 140.654 128.738 139.601 128.211 138.793C127.052 136.861 125.19 136.826 123.364 136.756H123.258H107.628V146.871V146.871Z" fill="#666666"/>
<path d="M155.362 163.696H150.234V136.72H138.256V132.084H167.41V136.72H155.397V163.696H155.362Z" fill="#666666"/>
<path d="M199.584 163.696H193.683L181.214 138.933L169.061 163.696H163.3L178.966 132.084H183.989L199.584 163.696Z" fill="#666666"/>
<path d="M227.824 163.696H203.202V132.084H208.365V158.99H227.824V163.696Z" fill="#666666"/>
<path fill-rule="evenodd" clip-rule="evenodd" d="M197.477 112.871C195.615 109.112 193.508 105.495 191.154 102.158C192.208 100.226 192.735 98.0832 192.735 95.8001C192.735 88.5645 187.045 82.6986 180.09 82.6986C177.842 82.6986 175.77 83.2606 173.873 84.4197C160.49 74.339 144.755 69 128.281 69C99.1627 69 72.3977 86.3516 59.1908 113.011H28.1055V122.39H65.0918V122.109H65.1269L65.3025 121.687C76.0507 95.4138 100.778 78.4134 128.316 78.4134C142.717 78.4134 156.486 83.0148 168.148 91.7257C167.726 93.0253 167.515 94.4303 167.515 95.8353C167.515 103.001 173.135 108.831 180.055 108.831C181.319 108.831 182.689 108.586 183.989 108.164C187.01 112.555 189.503 117.121 191.365 121.687L191.541 122.109H191.611V122.425H228V112.8H197.477V112.871ZM180.09 102.685C176.367 102.685 173.311 99.5234 173.311 95.6596C173.311 91.7959 176.367 88.6347 180.09 88.6347C183.848 88.6347 186.869 91.7959 186.869 95.6596C186.869 99.5585 183.813 102.685 180.09 102.685Z" fill="#666666"/>
<path d="M54.519 181.645H56.2402C56.3455 182.628 56.6968 183.19 57.3641 183.647C57.9613 184.033 58.8043 184.314 59.577 184.314C61.3684 184.314 62.8436 183.12 62.8436 181.75C62.8436 181.048 62.4221 180.345 61.7547 179.889C61.1225 179.502 60.5605 179.292 59.2609 179.011C57.5749 178.659 56.8724 178.449 56.205 177.887C55.4674 177.29 55.081 176.482 55.081 175.568C55.081 173.566 57.048 172.091 59.6472 172.091C62.1762 172.091 64.1432 173.637 64.1432 175.604H62.4221C62.2816 174.199 61.0874 173.25 59.4716 173.25C57.9261 173.25 56.6616 174.269 56.6616 175.533C56.6616 176.763 57.3993 177.29 59.858 177.852C61.8952 178.308 62.106 178.378 62.8436 178.87C63.8622 179.537 64.4593 180.591 64.4593 181.68C64.4593 183.788 62.2465 185.474 59.5419 185.474C56.6968 185.509 54.6595 183.963 54.519 181.645Z" fill="#666666"/>
<path d="M86.9744 185.263L93.8939 172.337H95.6853L102.64 185.263H100.884L98.5655 180.907H91.0137L88.6604 185.263H86.9744ZM91.6108 179.748H97.8981L94.8072 173.812L91.6108 179.748Z" fill="#666666"/>
<path d="M126.314 185.263V172.337H127.93V184.104H134.639V185.263H126.314Z" fill="#666666"/>
<path d="M159.507 185.263V173.496H155.819V172.337H164.846V173.496H161.122V185.263H159.507Z" fill="#666666"/>
<path d="M185.921 185.263L192.805 172.337H194.596L201.551 185.263H199.795L197.477 180.907H189.925L187.572 185.263H185.921ZM190.557 179.748H196.844L193.753 173.812L190.557 179.748Z" fill="#666666"/>
</g>
<defs>
<clipPath id="clip0_245_2610">
<rect width="256" height="256" fill="white"/>
</clipPath>
</defs>
</svg>
