<svg width="276" height="133" viewBox="0 0 276 133" fill="none" xmlns="http://www.w3.org/2000/svg">
<path d="M44.0474 116.556C43.8255 116.268 43.5149 116.028 43.111 115.837C42.7072 115.642 42.3034 115.549 41.8951 115.549C41.6511 115.549 41.407 115.58 41.1674 115.642C40.9233 115.704 40.7014 115.798 40.5061 115.922C40.3109 116.046 40.1423 116.215 40.018 116.419C39.8893 116.623 39.8272 116.867 39.8272 117.155C39.8272 117.422 39.8804 117.648 39.9914 117.834C40.1023 118.021 40.2532 118.181 40.4485 118.314C40.6437 118.447 40.8745 118.562 41.154 118.66C41.4292 118.757 41.7354 118.859 42.0638 118.957C42.441 119.077 42.827 119.215 43.2309 119.37C43.6347 119.525 44.003 119.729 44.3403 119.982C44.6775 120.235 44.9527 120.555 45.1701 120.945C45.3875 121.331 45.494 121.811 45.494 122.387C45.494 123.018 45.3787 123.568 45.1479 124.034C44.9172 124.504 44.6065 124.89 44.2204 125.201C43.8344 125.511 43.3817 125.742 42.8625 125.898C42.3433 126.053 41.7975 126.128 41.2206 126.128C40.4573 126.128 39.7118 125.986 38.984 125.707C38.2563 125.427 37.6572 125.01 37.1957 124.455L38.6867 123.066C38.9752 123.466 39.3568 123.776 39.8361 124.012C40.3153 124.242 40.7902 124.358 41.2517 124.358C41.4957 124.358 41.7442 124.327 41.9972 124.265C42.2501 124.202 42.4809 124.1 42.685 123.958C42.8892 123.816 43.0533 123.634 43.182 123.421C43.3107 123.208 43.3729 122.938 43.3729 122.618C43.3729 122.308 43.3019 122.055 43.1554 121.846C43.0134 121.642 42.8182 121.464 42.5741 121.318C42.33 121.167 42.046 121.038 41.7132 120.927C41.3804 120.816 41.0342 120.701 40.6703 120.581C40.3153 120.47 39.9648 120.337 39.6097 120.182C39.2547 120.027 38.9397 119.822 38.6557 119.57C38.3761 119.317 38.1453 119.006 37.9678 118.633C37.7903 118.265 37.7016 117.803 37.7016 117.249C37.7016 116.654 37.8258 116.139 38.0743 115.709C38.3228 115.278 38.6468 114.923 39.0506 114.639C39.4544 114.36 39.9115 114.147 40.4263 114.009C40.941 113.872 41.4602 113.801 41.9928 113.801C42.5874 113.801 43.1954 113.907 43.8077 114.116C44.4201 114.324 44.9527 114.639 45.4053 115.061L44.0474 116.556Z" fill="white"/>
<path d="M55.3946 125.835H53.5041V124.562H53.4731C53.2956 124.961 52.9894 125.311 52.5545 125.613C52.1196 125.915 51.6004 126.07 51.0057 126.07C50.4865 126.07 50.0428 125.977 49.6744 125.795C49.3061 125.613 48.9999 125.374 48.7647 125.076C48.5295 124.779 48.352 124.437 48.2411 124.051C48.1302 123.665 48.0769 123.266 48.0769 122.857V117.887H50.065V122.294C50.065 122.525 50.0827 122.769 50.1138 123.022C50.1448 123.275 50.2203 123.505 50.3312 123.709C50.4422 123.914 50.593 124.082 50.7883 124.215C50.9836 124.349 51.2365 124.415 51.5604 124.415C51.8711 124.415 52.1418 124.353 52.3814 124.224C52.6166 124.096 52.8119 123.936 52.9627 123.736C53.1136 123.536 53.2246 123.31 53.3044 123.048C53.3799 122.791 53.4198 122.525 53.4198 122.263V117.887H55.4079V125.835H55.3946Z" fill="white"/>
<path d="M66.027 121.957C66.027 122.046 66.027 122.134 66.027 122.223C66.027 122.312 66.0226 122.401 66.0093 122.489H59.9652C59.9874 122.778 60.0629 123.04 60.1871 123.275C60.3158 123.514 60.4844 123.719 60.693 123.887C60.9016 124.056 61.1412 124.193 61.4075 124.291C61.6737 124.389 61.9488 124.442 62.2373 124.442C62.7343 124.442 63.1559 124.349 63.4976 124.167C63.8393 123.985 64.1233 123.732 64.3407 123.412L65.6676 124.473C64.8821 125.533 63.7461 126.062 62.255 126.062C61.6382 126.062 61.0658 125.964 60.5466 125.773C60.0274 125.582 59.5792 125.307 59.1975 124.952C58.8159 124.597 58.5186 124.167 58.3011 123.652C58.0837 123.137 57.9772 122.556 57.9772 121.904C57.9772 121.264 58.0837 120.679 58.3011 120.155C58.5141 119.631 58.8114 119.183 59.1886 118.815C59.5658 118.447 60.0096 118.158 60.5199 117.954C61.0347 117.75 61.5894 117.648 62.184 117.648C62.7343 117.648 63.2446 117.741 63.715 117.923C64.1854 118.105 64.5892 118.376 64.9309 118.735C65.2726 119.094 65.5433 119.543 65.7341 120.075C65.9338 120.612 66.027 121.238 66.027 121.957ZM64.039 121.065C64.039 120.812 64.0035 120.568 63.9325 120.337C63.8615 120.106 63.7461 119.902 63.5908 119.725C63.4355 119.547 63.2402 119.41 63.0006 119.303C62.7609 119.197 62.4858 119.148 62.1619 119.148C61.5672 119.148 61.0613 119.33 60.6442 119.685C60.2271 120.04 60.0007 120.506 59.9564 121.069H64.039V121.065Z" fill="white"/>
<path d="M68.6141 117.883H70.5045V119.161H70.5356C70.7131 118.762 71.0193 118.411 71.4542 118.109C71.8891 117.808 72.4083 117.652 73.0029 117.652C73.5221 117.652 73.9659 117.745 74.3342 117.927C74.7025 118.109 75.0087 118.349 75.2439 118.646C75.4791 118.944 75.6566 119.285 75.7676 119.671C75.8785 120.057 75.9317 120.457 75.9317 120.865V125.835H73.9437V121.429C73.9437 121.198 73.9259 120.954 73.8949 120.701C73.8638 120.448 73.7884 120.217 73.6819 120.013C73.5709 119.809 73.4201 119.64 73.2248 119.507C73.0295 119.374 72.7766 119.308 72.4526 119.308C72.1287 119.308 71.858 119.37 71.6228 119.498C71.3921 119.627 71.2012 119.787 71.0504 119.986C70.8995 120.186 70.7885 120.413 70.7087 120.674C70.6332 120.932 70.5933 121.198 70.5933 121.46V125.831H68.6052V117.883H68.6141ZM69.2265 116.423C69.2709 116.157 69.333 115.899 69.4173 115.646C69.5016 115.394 69.6126 115.167 69.759 114.976C69.901 114.781 70.083 114.626 70.296 114.506C70.5134 114.386 70.7752 114.324 71.0814 114.324C71.3033 114.324 71.5252 114.351 71.7515 114.408C71.9778 114.462 72.1908 114.537 72.3905 114.626C72.6124 114.715 72.8121 114.79 72.994 114.848C73.176 114.905 73.3357 114.941 73.4644 114.941C73.6863 114.941 73.8549 114.87 73.9703 114.732C74.0857 114.595 74.17 114.431 74.2277 114.244H75.3194C75.275 114.51 75.2129 114.768 75.1285 115.021C75.0442 115.274 74.9333 115.5 74.7868 115.691C74.6448 115.886 74.4629 116.041 74.2499 116.161C74.0324 116.281 73.7706 116.343 73.4644 116.343C73.2337 116.343 72.9985 116.312 72.7677 116.246C72.537 116.179 72.3151 116.104 72.1065 116.015C71.9068 115.926 71.7204 115.855 71.5429 115.797C71.3654 115.744 71.2101 115.713 71.077 115.713C70.8551 115.713 70.6865 115.784 70.5711 115.931C70.4557 116.073 70.3714 116.241 70.3137 116.428H69.2265V116.423Z" fill="white"/>
<path d="M83.8529 124.823H83.8041C83.6044 125.178 83.2849 125.466 82.8411 125.693C82.3973 125.919 81.8959 126.034 81.3323 126.034C81.0128 126.034 80.68 125.994 80.3294 125.91C79.9833 125.826 79.6593 125.688 79.3664 125.497C79.0736 125.307 78.8295 125.049 78.6387 124.734C78.4434 124.419 78.3502 124.029 78.3502 123.567C78.3502 122.972 78.5188 122.498 78.8561 122.143C79.1934 121.788 79.6283 121.517 80.1563 121.331C80.6844 121.144 81.2746 121.02 81.9225 120.958C82.5704 120.896 83.2006 120.865 83.8174 120.865V120.665C83.8174 120.168 83.6399 119.8 83.2804 119.564C82.921 119.325 82.495 119.209 81.998 119.209C81.5764 119.209 81.177 119.298 80.7865 119.476C80.4004 119.653 80.0809 119.866 79.8235 120.123L78.7984 118.912C79.2511 118.49 79.7747 118.18 80.3649 117.967C80.9551 117.758 81.5542 117.652 82.1621 117.652C82.8677 117.652 83.4535 117.749 83.9106 117.949C84.3676 118.149 84.7315 118.406 84.9933 118.726C85.2552 119.045 85.4415 119.405 85.5481 119.804C85.6546 120.203 85.7034 120.598 85.7034 120.998V125.835H83.8484V124.823H83.8529ZM83.8174 122.205H83.3692C83.0497 122.205 82.7124 122.218 82.3574 122.245C82.0024 122.271 81.6784 122.333 81.3811 122.427C81.0838 122.52 80.8353 122.653 80.6356 122.826C80.4359 122.999 80.3383 123.234 80.3383 123.532C80.3383 123.718 80.3782 123.878 80.4625 124.002C80.5468 124.131 80.6534 124.233 80.7865 124.308C80.9196 124.384 81.066 124.441 81.2347 124.472C81.3989 124.503 81.5675 124.521 81.7317 124.521C82.4151 124.521 82.9343 124.339 83.2893 123.975C83.6443 123.611 83.8174 123.114 83.8174 122.484V122.205Z" fill="white"/>
<path d="M93.0476 120.004C92.8701 119.773 92.6261 119.569 92.3199 119.4C92.0092 119.227 91.672 119.143 91.3081 119.143C90.9886 119.143 90.6957 119.209 90.4294 119.342C90.1632 119.476 90.0301 119.697 90.0301 120.004C90.0301 120.314 90.1765 120.532 90.4694 120.656C90.7623 120.785 91.1883 120.913 91.7519 121.047C92.0492 121.113 92.3509 121.202 92.6527 121.313C92.9544 121.424 93.234 121.57 93.4825 121.752C93.731 121.934 93.9307 122.16 94.086 122.431C94.2414 122.702 94.3168 123.03 94.3168 123.416C94.3168 123.904 94.2236 124.313 94.0417 124.65C93.8597 124.987 93.6157 125.262 93.3139 125.471C93.0077 125.679 92.6571 125.835 92.2533 125.928C91.8495 126.021 91.4323 126.07 91.0019 126.07C90.3851 126.07 89.7815 125.959 89.1958 125.733C88.61 125.506 88.1263 125.182 87.7402 124.765L89.0493 123.54C89.2712 123.829 89.5552 124.064 89.9102 124.25C90.2652 124.437 90.6558 124.53 91.0862 124.53C91.2282 124.53 91.3747 124.512 91.5255 124.481C91.6764 124.446 91.814 124.397 91.9382 124.322C92.0669 124.25 92.169 124.153 92.2444 124.033C92.3199 123.913 92.3598 123.762 92.3598 123.585C92.3598 123.252 92.2089 123.017 91.9027 122.875C91.5965 122.733 91.1439 122.586 90.5359 122.444C90.2386 122.378 89.9457 122.293 89.6662 122.187C89.3866 122.08 89.1336 121.943 88.9118 121.774C88.6899 121.601 88.5124 121.393 88.3837 121.135C88.2506 120.882 88.184 120.567 88.184 120.19C88.184 119.751 88.2772 119.369 88.4591 119.045C88.6411 118.721 88.8807 118.464 89.178 118.26C89.4753 118.056 89.8126 117.905 90.1898 117.803C90.567 117.705 90.9531 117.652 91.348 117.652C91.9205 117.652 92.4841 117.749 93.0299 117.949C93.5757 118.149 94.0106 118.451 94.3301 118.859L93.0476 120.004Z" fill="white"/>
<path d="M96.3403 124.672C96.3403 124.317 96.469 124.016 96.7308 123.763C96.9882 123.51 97.3033 123.381 97.6672 123.381C98.0222 123.381 98.3284 123.501 98.5946 123.745C98.8609 123.989 98.994 124.286 98.994 124.641C98.994 124.996 98.8653 125.298 98.6035 125.551C98.3461 125.804 98.0311 125.933 97.6672 125.933C97.4897 125.933 97.321 125.902 97.1613 125.835C97.0015 125.768 96.8595 125.68 96.7397 125.569C96.6199 125.458 96.5223 125.325 96.4513 125.169C96.3758 125.014 96.3403 124.85 96.3403 124.672Z" fill="white"/>
<path d="M106.081 114.106H110.239C111.002 114.106 111.77 114.204 112.542 114.404C113.314 114.603 114.011 114.932 114.628 115.389C115.245 115.846 115.751 116.449 116.137 117.195C116.523 117.94 116.718 118.864 116.718 119.968C116.718 120.994 116.523 121.881 116.137 122.618C115.751 123.359 115.249 123.967 114.628 124.442C114.011 124.916 113.314 125.267 112.542 125.493C111.77 125.72 111.002 125.835 110.239 125.835H106.081V114.106ZM109.911 124.011C110.452 124.011 110.993 123.949 111.535 123.82C112.076 123.692 112.564 123.479 112.999 123.172C113.434 122.871 113.794 122.458 114.069 121.939C114.344 121.42 114.481 120.763 114.481 119.968C114.481 119.13 114.344 118.446 114.069 117.914C113.794 117.386 113.439 116.969 112.999 116.671C112.564 116.374 112.076 116.17 111.535 116.059C110.993 115.948 110.452 115.895 109.911 115.895H108.171V124.011H109.911V124.011Z" fill="white"/>
<path d="M126.889 121.957C126.889 122.046 126.889 122.134 126.889 122.223C126.889 122.312 126.885 122.401 126.871 122.489H120.827C120.849 122.778 120.925 123.04 121.049 123.275C121.178 123.514 121.346 123.719 121.555 123.887C121.764 124.056 122.003 124.193 122.269 124.291C122.536 124.389 122.811 124.442 123.099 124.442C123.596 124.442 124.018 124.349 124.36 124.167C124.701 123.985 124.985 123.732 125.203 123.412L126.53 124.473C125.744 125.533 124.608 126.062 123.117 126.062C122.5 126.062 121.928 125.964 121.408 125.773C120.889 125.582 120.441 125.307 120.059 124.952C119.678 124.597 119.38 124.167 119.163 123.652C118.946 123.137 118.839 122.556 118.839 121.904C118.839 121.264 118.946 120.679 119.163 120.155C119.376 119.631 119.673 119.183 120.051 118.815C120.428 118.447 120.872 118.158 121.382 117.954C121.897 117.75 122.451 117.648 123.046 117.648C123.596 117.648 124.107 117.741 124.577 117.923C125.047 118.105 125.451 118.376 125.793 118.735C126.135 119.094 126.405 119.543 126.596 120.075C126.791 120.612 126.889 121.238 126.889 121.957ZM124.901 121.065C124.901 120.812 124.865 120.568 124.794 120.337C124.723 120.106 124.608 119.902 124.453 119.725C124.297 119.547 124.102 119.41 123.863 119.303C123.623 119.197 123.348 119.148 123.024 119.148C122.429 119.148 121.923 119.33 121.506 119.685C121.089 120.04 120.863 120.506 120.818 121.069H124.901V121.065Z" fill="white"/>
<path d="M134.903 120.084C134.748 119.862 134.517 119.68 134.206 119.53C133.896 119.379 133.581 119.308 133.261 119.308C132.897 119.308 132.578 119.383 132.298 119.53C132.023 119.68 131.792 119.876 131.61 120.12C131.428 120.364 131.291 120.635 131.207 120.941C131.122 121.247 131.073 121.553 131.073 121.859C131.073 122.17 131.122 122.476 131.215 122.778C131.309 123.08 131.451 123.355 131.637 123.599C131.823 123.843 132.059 124.038 132.343 124.189C132.622 124.34 132.955 124.411 133.328 124.411C133.638 124.411 133.945 124.349 134.255 124.229C134.566 124.109 134.814 123.932 135.001 123.701L136.243 124.961C135.91 125.316 135.489 125.587 134.974 125.782C134.459 125.977 133.905 126.071 133.31 126.071C132.724 126.071 132.17 125.977 131.646 125.791C131.122 125.605 130.665 125.33 130.27 124.961C129.88 124.597 129.569 124.154 129.343 123.634C129.116 123.115 129.001 122.525 129.001 121.864C129.001 121.225 129.112 120.643 129.343 120.124C129.569 119.605 129.875 119.161 130.261 118.797C130.647 118.433 131.1 118.149 131.61 117.954C132.125 117.754 132.675 117.657 133.257 117.657C133.843 117.657 134.406 117.768 134.956 117.99C135.507 118.212 135.937 118.513 136.257 118.899L134.903 120.084Z" fill="white"/>
<path d="M137.97 115.18C137.97 114.861 138.089 114.581 138.325 114.342C138.564 114.107 138.862 113.987 139.225 113.987C139.589 113.987 139.896 114.098 140.144 114.324C140.393 114.55 140.517 114.834 140.517 115.176C140.517 115.518 140.393 115.802 140.144 116.028C139.896 116.254 139.589 116.37 139.225 116.37C138.862 116.37 138.56 116.25 138.325 116.015C138.089 115.779 137.97 115.504 137.97 115.18ZM138.249 117.883H140.237V125.835H138.249V117.883Z" fill="white"/>
<path d="M151.402 125.835H149.512V124.641H149.481C149.206 125.103 148.82 125.458 148.332 125.702C147.843 125.946 147.311 126.066 146.752 126.066C146.144 126.066 145.602 125.955 145.119 125.728C144.64 125.502 144.231 125.196 143.894 124.819C143.557 124.437 143.299 123.989 143.117 123.479C142.935 122.964 142.842 122.418 142.842 121.832C142.842 121.246 142.935 120.701 143.122 120.19C143.308 119.684 143.574 119.241 143.916 118.863C144.258 118.486 144.666 118.193 145.141 117.976C145.616 117.759 146.135 117.652 146.699 117.652C147.062 117.652 147.386 117.692 147.675 117.776C147.963 117.861 148.212 117.963 148.429 118.082C148.647 118.202 148.829 118.335 148.984 118.482C149.139 118.624 149.264 118.761 149.366 118.895H149.414V113.312H151.402V125.835V125.835ZM144.861 121.823C144.861 122.134 144.91 122.44 145.003 122.751C145.097 123.061 145.239 123.337 145.425 123.581C145.611 123.825 145.851 124.024 146.135 124.175C146.419 124.326 146.761 124.406 147.147 124.406C147.511 124.406 147.835 124.331 148.123 124.184C148.412 124.038 148.656 123.838 148.86 123.594C149.064 123.35 149.219 123.079 149.326 122.773C149.432 122.471 149.481 122.161 149.481 121.854C149.481 121.544 149.428 121.238 149.326 120.927C149.219 120.616 149.064 120.341 148.86 120.097C148.656 119.853 148.412 119.653 148.123 119.503C147.835 119.347 147.511 119.272 147.147 119.272C146.761 119.272 146.423 119.347 146.135 119.494C145.847 119.64 145.611 119.84 145.425 120.084C145.239 120.328 145.097 120.599 145.003 120.905C144.906 121.211 144.861 121.517 144.861 121.823Z" fill="white"/>
<path d="M162.07 121.957C162.07 122.046 162.07 122.134 162.07 122.223C162.07 122.312 162.066 122.401 162.053 122.489H156.009C156.031 122.778 156.106 123.04 156.231 123.275C156.359 123.514 156.528 123.719 156.736 123.887C156.945 124.06 157.185 124.193 157.446 124.291C157.713 124.389 157.988 124.442 158.276 124.442C158.773 124.442 159.19 124.349 159.537 124.167C159.878 123.985 160.162 123.732 160.38 123.412L161.707 124.473C160.921 125.533 159.785 126.062 158.294 126.062C157.677 126.062 157.105 125.964 156.59 125.773C156.071 125.582 155.623 125.307 155.241 124.952C154.859 124.597 154.562 124.167 154.345 123.652C154.127 123.137 154.021 122.556 154.021 121.904C154.021 121.264 154.127 120.679 154.345 120.155C154.562 119.631 154.855 119.183 155.232 118.815C155.609 118.447 156.053 118.158 156.563 117.954C157.078 117.75 157.633 117.648 158.228 117.648C158.778 117.648 159.288 117.741 159.758 117.923C160.229 118.105 160.633 118.376 160.974 118.735C161.316 119.094 161.587 119.543 161.778 120.075C161.968 120.608 162.07 121.238 162.07 121.957ZM160.082 121.065C160.082 120.812 160.047 120.568 159.976 120.337C159.905 120.106 159.79 119.902 159.634 119.725C159.479 119.547 159.284 119.41 159.044 119.303C158.804 119.197 158.529 119.148 158.21 119.148C157.615 119.148 157.109 119.33 156.692 119.685C156.279 120.044 156.049 120.506 156.004 121.069H160.082V121.065Z" fill="white"/>
<path d="M169.011 120.004C168.834 119.773 168.589 119.569 168.283 119.4C167.977 119.232 167.635 119.143 167.272 119.143C166.952 119.143 166.659 119.209 166.393 119.342C166.127 119.476 165.993 119.697 165.993 120.004C165.993 120.314 166.14 120.532 166.433 120.656C166.726 120.78 167.152 120.913 167.715 121.047C168.013 121.113 168.314 121.202 168.616 121.313C168.918 121.424 169.197 121.57 169.446 121.752C169.694 121.934 169.894 122.16 170.049 122.431C170.205 122.702 170.28 123.03 170.28 123.416C170.28 123.904 170.187 124.313 170.005 124.65C169.823 124.987 169.579 125.262 169.277 125.471C168.976 125.679 168.621 125.835 168.217 125.928C167.813 126.021 167.396 126.07 166.965 126.07C166.348 126.07 165.745 125.959 165.159 125.733C164.573 125.506 164.09 125.182 163.699 124.765L165.008 123.54C165.23 123.829 165.514 124.064 165.869 124.25C166.224 124.437 166.615 124.53 167.045 124.53C167.187 124.53 167.334 124.512 167.485 124.481C167.635 124.446 167.773 124.397 167.897 124.322C168.026 124.25 168.128 124.153 168.203 124.033C168.279 123.913 168.319 123.762 168.319 123.585C168.319 123.252 168.168 123.017 167.862 122.875C167.56 122.733 167.103 122.586 166.495 122.444C166.198 122.378 165.905 122.293 165.625 122.187C165.346 122.08 165.093 121.943 164.871 121.774C164.649 121.606 164.471 121.393 164.343 121.135C164.21 120.882 164.143 120.567 164.143 120.19C164.143 119.751 164.236 119.369 164.418 119.045C164.6 118.726 164.84 118.464 165.137 118.26C165.434 118.056 165.772 117.905 166.149 117.803C166.526 117.705 166.912 117.652 167.307 117.652C167.879 117.652 168.443 117.749 168.989 117.949C169.535 118.149 169.97 118.451 170.289 118.859L169.011 120.004Z" fill="white"/>
<path d="M172.308 124.672C172.308 124.317 172.437 124.016 172.699 123.763C172.96 123.51 173.271 123.381 173.635 123.381C173.99 123.381 174.296 123.501 174.562 123.745C174.829 123.989 174.962 124.286 174.962 124.641C174.962 124.996 174.833 125.298 174.571 125.551C174.314 125.804 173.999 125.933 173.635 125.933C173.457 125.933 173.289 125.902 173.129 125.835C172.969 125.768 172.827 125.68 172.708 125.569C172.588 125.458 172.49 125.325 172.419 125.169C172.344 125.014 172.308 124.85 172.308 124.672Z" fill="white"/>
<path d="M182.049 114.106H184.135V123.98H189.122V125.835H182.049V114.106Z" fill="white"/>
<path d="M190.316 121.823C190.316 121.193 190.427 120.621 190.653 120.11C190.88 119.595 191.186 119.156 191.572 118.792C191.958 118.428 192.415 118.144 192.948 117.949C193.476 117.749 194.039 117.652 194.638 117.652C195.233 117.652 195.797 117.749 196.329 117.949C196.862 118.149 197.319 118.428 197.705 118.792C198.091 119.156 198.397 119.595 198.623 120.11C198.85 120.625 198.965 121.197 198.965 121.823C198.965 122.453 198.85 123.026 198.623 123.545C198.397 124.064 198.091 124.508 197.705 124.876C197.319 125.245 196.862 125.537 196.329 125.746C195.801 125.955 195.237 126.061 194.638 126.061C194.044 126.061 193.48 125.955 192.948 125.746C192.415 125.537 191.958 125.245 191.572 124.876C191.186 124.508 190.88 124.064 190.653 123.545C190.427 123.03 190.316 122.453 190.316 121.823ZM192.335 121.823C192.335 122.134 192.384 122.44 192.477 122.751C192.57 123.061 192.712 123.336 192.899 123.58C193.085 123.824 193.325 124.024 193.613 124.175C193.902 124.33 194.243 124.406 194.638 124.406C195.038 124.406 195.379 124.33 195.663 124.175C195.947 124.02 196.187 123.82 196.378 123.58C196.564 123.336 196.706 123.061 196.799 122.751C196.893 122.44 196.941 122.134 196.941 121.823C196.941 121.512 196.893 121.206 196.799 120.905C196.706 120.603 196.564 120.328 196.378 120.084C196.191 119.839 195.952 119.644 195.663 119.493C195.375 119.342 195.033 119.271 194.638 119.271C194.239 119.271 193.897 119.347 193.613 119.493C193.325 119.644 193.09 119.839 192.899 120.084C192.712 120.328 192.57 120.598 192.477 120.905C192.38 121.211 192.335 121.517 192.335 121.823Z" fill="white"/>
<path d="M209.629 117.883V125.121C209.629 125.84 209.54 126.488 209.362 127.069C209.185 127.65 208.914 128.138 208.541 128.542C208.173 128.946 207.707 129.257 207.144 129.479C206.58 129.7 205.91 129.811 205.138 129.811C204.818 129.811 204.476 129.785 204.117 129.727C203.758 129.674 203.403 129.589 203.056 129.479C202.71 129.368 202.373 129.23 202.054 129.066C201.734 128.902 201.446 128.711 201.193 128.502L202.338 126.962C202.724 127.326 203.159 127.606 203.647 127.801C204.13 127.992 204.623 128.09 205.12 128.09C205.595 128.09 205.994 128.019 206.323 127.881C206.646 127.743 206.908 127.553 207.099 127.309C207.294 127.064 207.432 126.776 207.512 126.443C207.596 126.11 207.636 125.747 207.636 125.347V124.766H207.601C207.312 125.156 206.948 125.454 206.5 125.662C206.052 125.871 205.555 125.973 205 125.973C204.405 125.973 203.864 125.862 203.376 125.64C202.888 125.418 202.48 125.121 202.142 124.744C201.805 124.366 201.543 123.932 201.357 123.426C201.17 122.924 201.077 122.392 201.077 121.828C201.077 121.256 201.17 120.714 201.352 120.204C201.534 119.698 201.792 119.254 202.129 118.877C202.466 118.5 202.875 118.203 203.354 117.981C203.833 117.759 204.374 117.648 204.969 117.648C205.533 117.648 206.056 117.763 206.544 117.994C207.028 118.225 207.419 118.584 207.703 119.072H207.734V117.879H209.629V117.883ZM205.386 119.272C205.022 119.272 204.698 119.339 204.419 119.472C204.139 119.605 203.9 119.782 203.704 120.009C203.509 120.235 203.363 120.501 203.256 120.807C203.15 121.114 203.101 121.446 203.101 121.797C203.101 122.117 203.154 122.423 203.256 122.72C203.363 123.017 203.509 123.284 203.704 123.519C203.9 123.754 204.135 123.945 204.419 124.087C204.698 124.229 205.018 124.3 205.373 124.3C205.737 124.3 206.065 124.233 206.358 124.096C206.651 123.958 206.899 123.772 207.104 123.541C207.308 123.31 207.467 123.044 207.574 122.742C207.685 122.44 207.738 122.121 207.738 121.793C207.738 121.451 207.685 121.127 207.574 120.816C207.463 120.51 207.308 120.239 207.104 120.009C206.899 119.778 206.655 119.596 206.367 119.463C206.078 119.339 205.755 119.272 205.386 119.272Z" fill="white"/>
<path d="M212.677 117.882H214.581V119.209H214.612C214.834 118.748 215.145 118.371 215.54 118.082C215.939 117.794 216.4 117.652 216.933 117.652C217.008 117.652 217.093 117.656 217.181 117.661C217.27 117.665 217.346 117.678 217.412 117.701V119.524C217.279 119.493 217.168 119.471 217.075 119.458C216.982 119.449 216.889 119.44 216.8 119.44C216.347 119.44 215.983 119.524 215.708 119.689C215.433 119.853 215.216 120.053 215.06 120.283C214.905 120.514 214.803 120.754 214.745 120.993C214.692 121.237 214.661 121.428 214.661 121.575V125.83H212.673V117.882H212.677Z" fill="white"/>
<path d="M224.091 124.823H224.042C223.842 125.178 223.523 125.466 223.079 125.693C222.635 125.919 222.134 126.034 221.57 126.034C221.251 126.034 220.918 125.994 220.567 125.91C220.221 125.826 219.897 125.688 219.604 125.497C219.311 125.307 219.067 125.049 218.876 124.734C218.686 124.419 218.588 124.029 218.588 123.567C218.588 122.972 218.757 122.498 219.094 122.143C219.431 121.788 219.866 121.517 220.394 121.331C220.922 121.144 221.512 121.02 222.16 120.958C222.808 120.896 223.438 120.865 224.055 120.865V120.665C224.055 120.168 223.873 119.8 223.518 119.564C223.163 119.329 222.733 119.209 222.236 119.209C221.814 119.209 221.415 119.298 221.029 119.476C220.643 119.653 220.323 119.866 220.066 120.123L219.041 118.912C219.493 118.49 220.017 118.18 220.607 117.967C221.197 117.758 221.796 117.652 222.404 117.652C223.11 117.652 223.696 117.749 224.153 117.949C224.61 118.149 224.974 118.406 225.24 118.726C225.506 119.045 225.688 119.405 225.795 119.804C225.901 120.203 225.95 120.598 225.95 120.998V125.835H224.095V124.823H224.091ZM224.055 122.205H223.607C223.287 122.205 222.95 122.218 222.595 122.245C222.24 122.271 221.916 122.333 221.619 122.427C221.322 122.52 221.073 122.653 220.873 122.826C220.674 122.999 220.576 123.234 220.576 123.532C220.576 123.718 220.616 123.878 220.7 124.002C220.785 124.131 220.891 124.233 221.024 124.308C221.157 124.384 221.304 124.441 221.472 124.472C221.637 124.503 221.805 124.521 221.969 124.521C222.653 124.521 223.172 124.339 223.527 123.975C223.882 123.611 224.06 123.114 224.06 122.484V122.205H224.055Z" fill="white"/>
<path d="M233.281 120.004C233.103 119.773 232.859 119.569 232.553 119.4C232.247 119.232 231.905 119.143 231.541 119.143C231.222 119.143 230.929 119.209 230.663 119.342C230.396 119.476 230.263 119.697 230.263 120.004C230.263 120.314 230.41 120.532 230.703 120.656C230.996 120.78 231.422 120.913 231.985 121.047C232.282 121.113 232.584 121.202 232.886 121.313C233.188 121.424 233.467 121.57 233.716 121.752C233.964 121.934 234.164 122.16 234.319 122.431C234.475 122.702 234.55 123.03 234.55 123.416C234.55 123.904 234.457 124.313 234.275 124.65C234.093 124.987 233.849 125.262 233.547 125.471C233.245 125.679 232.89 125.835 232.487 125.928C232.083 126.021 231.666 126.07 231.235 126.07C230.618 126.07 230.015 125.959 229.429 125.733C228.843 125.506 228.36 125.182 227.969 124.765L229.278 123.54C229.5 123.829 229.784 124.064 230.139 124.25C230.494 124.437 230.885 124.53 231.315 124.53C231.457 124.53 231.604 124.512 231.754 124.481C231.905 124.446 232.043 124.397 232.167 124.322C232.296 124.25 232.398 124.153 232.473 124.033C232.549 123.913 232.589 123.762 232.589 123.585C232.589 123.252 232.438 123.017 232.132 122.875C231.83 122.733 231.373 122.586 230.765 122.444C230.467 122.378 230.175 122.293 229.895 122.187C229.615 122.08 229.363 121.943 229.141 121.774C228.919 121.606 228.741 121.393 228.613 121.135C228.479 120.882 228.413 120.567 228.413 120.19C228.413 119.751 228.506 119.369 228.688 119.045C228.87 118.726 229.11 118.464 229.407 118.26C229.704 118.056 230.041 117.905 230.419 117.803C230.796 117.705 231.182 117.652 231.577 117.652C232.149 117.652 232.713 117.749 233.259 117.949C233.805 118.149 234.239 118.451 234.559 118.859L233.281 120.004Z" fill="white"/>
<path d="M236.578 124.672C236.578 124.317 236.707 124.016 236.969 123.763C237.231 123.51 237.541 123.381 237.905 123.381C238.26 123.381 238.567 123.501 238.833 123.745C239.099 123.989 239.232 124.286 239.232 124.641C239.232 124.996 239.104 125.298 238.842 125.551C238.584 125.804 238.269 125.933 237.905 125.933C237.728 125.933 237.559 125.902 237.399 125.835C237.24 125.768 237.098 125.68 236.978 125.569C236.858 125.458 236.76 125.325 236.689 125.169C236.614 125.014 236.578 124.85 236.578 124.672Z" fill="white"/>
<path d="M138.493 25.864C128.681 25.864 120.72 33.8251 120.72 43.6456C120.72 53.4661 128.686 61.4227 138.493 61.4227C148.318 61.4227 156.279 53.4616 156.279 43.6456C156.279 33.8296 148.318 25.864 138.493 25.864Z" fill="#AF272F"/>
<path d="M147.746 7.8918C147.746 7.8918 147.315 7.75867 146.556 7.5501C150.666 6.32975 155.827 4.99847 161.547 4C153.523 4 146.703 4.39939 140.912 5.29579C140.077 5.42448 139.274 5.56648 138.498 5.70849C137.721 5.56648 136.913 5.42892 136.084 5.29579C130.292 4.39939 123.476 4 115.453 4C121.173 4.99403 126.334 6.32532 130.443 7.54566C129.68 7.75867 129.245 7.8918 129.245 7.8918C102.69 16.2079 82.6856 34.3977 84.1234 49.3037C85.3171 61.6803 97.9289 67.9551 118.493 65.8117C107.057 63.7393 102.371 57.9571 101.523 49.1972C100.228 35.7823 115.44 19.9178 137.033 10.794C137.033 10.794 137.566 10.5766 138.502 10.226C139.438 10.5766 139.971 10.794 139.971 10.794C161.564 19.9178 176.763 35.7823 175.476 49.1972C174.638 57.9571 169.938 63.7438 158.507 65.8117C179.071 67.9551 191.692 61.6803 192.876 49.3037C194.314 34.3977 174.305 16.2079 147.746 7.8918Z" fill="#006341"/>
<path d="M31.9857 88.0577V87.9778C36.1926 87.4852 38.9838 84.8005 38.9838 81.206C38.9838 76.156 34.2001 75.0865 31.4443 75.0865H19.587L14 101.797L26.168 101.646C32.2875 101.57 37.1511 98.8899 37.1511 93.2275C37.1511 90.2765 35.0477 88.5192 31.9857 88.0577ZM24.0246 96.7421H22.112L23.4122 90.4673H25.134C28.3469 90.4673 30.0332 90.8134 30.0332 93.1476C30.0332 95.7525 27.6235 96.7421 24.0246 96.7421ZM27.1265 85.6525H24.4462L25.5955 80.1409H27.4327C30.1086 80.1409 31.8703 80.4871 31.8703 82.6305C31.8703 84.4632 30.1086 85.6525 27.1265 85.6525Z" fill="white"/>
<path d="M51.2273 81.4014C48.1298 81.4014 45.9465 81.8629 43.9185 82.5507L43.2307 87.5652C45.5294 86.3804 47.2157 85.9988 49.6963 85.9988C51.955 85.9988 53.3706 87.1481 53.3706 88.5637C53.3706 88.83 53.3706 89.0962 53.2952 89.3669C52.3367 89.2915 50.961 89.1761 49.5853 89.1761C43.5014 89.1761 38.5978 91.5857 38.5978 96.4804C38.5978 100.346 40.9719 102.258 45.2587 102.258C47.939 102.258 50.4995 101.304 51.955 99.0054V98.93L52.0305 99.0054L51.7243 101.797H57.3512C58.1145 95.7882 59.8762 91.315 59.8762 88.1776C59.8762 83.2785 55.9711 81.4014 51.2273 81.4014ZM47.442 97.6653C45.9864 97.6653 45.1078 96.5958 45.1078 95.6772C45.1078 93.9199 47.5174 92.7351 50.8101 92.846C51.2273 92.846 52.0704 92.846 52.6473 92.9614C52.1459 95.6373 50.3841 97.6653 47.442 97.6653Z" fill="white"/>
<path d="M78.2437 81.4014C74.6048 81.4014 72.5413 82.8924 70.5532 85.1157H70.4778L71.0148 81.8629H64.6246C64.4338 83.6601 64.1276 85.3464 63.7814 87.0682L60.684 101.801H67.5712L69.5237 92.6197C70.0207 89.6731 71.7425 87.1437 74.6492 87.1437C76.5662 87.0682 77.3251 88.2531 77.3251 89.4379C77.3251 90.4719 77.0588 91.4659 76.8636 92.4644L74.9509 101.801H82.0645L83.9016 92.5043C84.3232 90.4009 84.4386 89.6332 84.4386 88.2974C84.4386 84.3835 82.2597 81.4014 78.2437 81.4014Z" fill="white"/>
<path d="M99.3979 86.4514C100.924 86.4514 102.42 86.8685 103.835 87.5209L105.327 82.7415C103.299 81.8984 100.734 81.4014 99.0517 81.4014C91.3968 81.4014 86.1959 86.6067 86.1959 93.1522C86.1959 98.1623 89.7904 102.258 95.6081 102.258C98.2885 102.258 100.126 101.952 101.501 101.491L102.495 96.3251C101 96.9375 99.7751 97.2082 98.0577 97.2082C95.1466 97.2082 93.3094 95.2556 93.3094 92.8815C93.3139 88.7501 95.8389 86.4514 99.3979 86.4514Z" fill="white"/>
<path d="M117.228 81.4014C109.418 81.4014 104.368 86.1452 104.368 93.1522C104.368 98.1623 107.354 102.258 114.739 102.258C122.198 102.258 127.594 98.6238 127.594 90.321C127.594 85.3065 124 81.4014 117.228 81.4014ZM115.24 97.4345C112.906 97.47 111.49 95.6728 111.49 92.9969C111.49 89.8195 113.558 86.2251 116.886 86.2251C119.562 86.2251 120.481 88.1776 120.481 90.2411C120.476 94.7542 118.453 97.4345 115.24 97.4345Z" fill="white"/>
<path d="M149.902 75.0867L134.025 101.792H141.755L144.928 96.09H155.299L156.026 101.792H163.22L158.857 75.0867H149.902ZM147.719 91.0444L153.381 80.5938H153.457L154.606 91.0444H147.719Z" fill="white"/>
<path d="M167.196 86.9133H175.725L164.862 96.5918L163.863 101.797H181.197L182.231 96.7471H173.125L184.068 87.0686L185.137 81.8633H168.23L167.196 86.9133Z" fill="white"/>
<path d="M195.814 86.6824H200.824L201.663 81.8587H196.919L198.295 75.6238L191.026 77.5764L190.067 81.8587H186.127L185.283 86.6824H188.958L187.769 92.2694C187.307 94.3728 187.156 95.3668 187.156 96.3653C187.156 100.537 189.952 102.258 193.471 102.258C194.847 102.258 196.298 102.103 197.753 101.877L198.521 97.3238C197.793 97.5901 197.03 97.8963 196.298 97.8963C194.922 97.8963 194.043 97.0176 194.043 95.6775C194.043 94.719 194.31 93.7249 194.616 92.2339L195.814 86.6824Z" fill="white"/>
<path d="M212.917 81.4014C204.037 81.4014 200.979 88.5149 200.979 93.1478C200.979 98.1579 204.574 102.254 211.23 102.254C213.223 102.254 215.783 101.868 218.197 101.144L219.076 96.2807C217.164 97.1993 214.678 97.6608 212.841 97.6608C208.63 97.6608 207.56 95.979 207.485 93.8356H221.606C221.872 92.6508 222.103 90.889 222.103 90.0858C222.098 84.0418 218.158 81.4014 212.917 81.4014ZM207.902 89.9349C208.399 88.0179 210.006 85.9899 212.992 85.9899C215.517 85.9899 216.36 87.7915 216.36 89.9349H207.902V89.9349Z" fill="white"/>
<path d="M236.982 86.4514C238.509 86.4514 240.004 86.8685 241.42 87.5209L242.911 82.7415C240.883 81.8984 238.318 81.4014 236.636 81.4014C228.981 81.4014 223.78 86.6067 223.78 93.1522C223.78 98.1623 227.375 102.258 233.192 102.258C235.873 102.258 237.71 101.952 239.086 101.491L240.08 96.3251C238.584 96.9375 237.359 97.2082 235.642 97.2082C232.731 97.2082 230.894 95.2556 230.894 92.8815C230.894 88.7501 233.419 86.4514 236.982 86.4514Z" fill="white"/>
<path d="M254.351 81.4014C251.253 81.4014 249.07 81.8629 247.042 82.5507L246.354 87.5652C248.649 86.3804 250.339 85.9988 252.82 85.9988C255.079 85.9988 256.494 87.1481 256.494 88.5637C256.494 88.83 256.494 89.0962 256.419 89.3669C255.46 89.2915 254.085 89.1761 252.709 89.1761C246.625 89.1761 241.721 91.5857 241.721 96.4804C241.721 100.346 244.096 102.258 248.382 102.258C251.063 102.258 253.623 101.304 255.079 99.0054V98.93L255.154 99.0054L254.848 101.797H260.475C261.238 95.7882 263 91.315 263 88.1776C263 83.2785 259.095 81.4014 254.351 81.4014ZM250.561 97.6653C249.106 97.6653 248.227 96.5958 248.227 95.6772C248.227 93.9199 250.641 92.7351 253.929 92.846C254.346 92.846 255.19 92.846 255.767 92.9614C255.27 95.6373 253.508 97.6653 250.561 97.6653Z" fill="white"/>
</svg>
