<svg width="256" height="256" viewBox="0 0 256 256" fill="none" xmlns="http://www.w3.org/2000/svg">
<g clip-path="url(#clip0_244_1929)">
<path d="M33.2148 163.748H28V132.129H46.4356C50.8792 132.129 53.56 132.9 55.7268 134.81C57.6732 136.609 58.7749 139.217 58.7749 142.008C58.7749 144.028 58.1873 146.047 57.159 147.59C54.4414 151.519 49.704 151.519 46.8762 151.519H33.2148V163.748ZM33.1781 146.819H46.2519C47.8311 146.819 49.8142 146.819 51.2097 145.827C52.4583 144.982 53.1928 143.477 53.1928 141.751C53.1928 140.318 52.7888 139.217 51.9442 138.372C50.4018 136.756 47.8311 136.756 45.7745 136.756H33.1781V146.819Z" fill="white"/>
<path d="M80.2219 164.556C75.1172 164.556 70.9674 163.381 67.8458 161.068C65.0548 159.048 61.7129 155.155 61.7129 148.288C61.7129 136.572 70.8572 131.321 79.9281 131.321C90.9821 131.358 98.4004 138.188 98.4004 148.324C98.4004 159.562 89.256 164.556 80.2219 164.556ZM80.0383 136.095C79.8546 136.095 79.671 136.095 79.4874 136.095C73.3912 136.279 66.8543 139.51 66.8543 148.067C66.8543 149.793 67.1848 153.062 69.3148 155.559C71.6284 158.387 75.3008 159.819 80.2219 159.819C92.2674 159.819 93.2223 150.748 93.2223 147.957C93.2223 140.722 88.0441 136.095 80.0383 136.095Z" fill="white"/>
<path d="M137.842 163.748H131.085L121.132 151.519H107.691V163.748H102.55V132.129H123.005C125.65 132.166 128.918 132.239 131.599 134.736C132.627 135.691 134.39 137.821 134.39 141.64C134.39 148.508 129.432 150.124 126.898 150.638L137.842 163.748ZM107.655 146.892H121.683C123.777 146.892 126.604 146.892 128.147 144.762C128.734 143.954 129.065 142.963 129.065 141.787C129.065 140.649 128.771 139.621 128.257 138.813C127.082 136.866 125.209 136.83 123.409 136.793H123.299H107.655V146.892V146.892Z" fill="white"/>
<path d="M155.396 163.748H150.255V136.756H138.283V132.129H167.442V136.756H155.433V163.748H155.396Z" fill="white"/>
<path d="M199.649 163.748H193.773L181.324 138.996L169.168 163.748H163.402L179.083 132.129H184.115L199.649 163.748Z" fill="white"/>
<path d="M227.89 163.748H203.248V132.129H208.389V159.048H227.853V163.748H227.89Z" fill="white"/>
<path d="M46.2153 182.772H48.0883C48.2352 183.837 48.6024 184.461 49.3002 184.975C49.9245 185.416 50.8793 185.709 51.724 185.709C53.7071 185.709 55.3229 184.424 55.3229 182.882C55.3229 182.111 54.8822 181.339 54.111 180.825C53.4133 180.384 52.8257 180.164 51.3567 179.87C49.4838 179.503 48.7493 179.246 48.0148 178.622C47.2069 177.997 46.7662 177.079 46.7662 176.088C46.7662 173.884 48.9329 172.268 51.7607 172.268C54.5517 172.268 56.6817 173.958 56.6817 176.124H54.8455C54.6986 174.582 53.3766 173.554 51.5771 173.554C49.8878 173.554 48.529 174.656 48.529 176.051C48.529 177.373 49.3369 177.997 52.0178 178.585C54.2579 179.062 54.4783 179.173 55.3229 179.723C56.4247 180.458 57.1224 181.633 57.1224 182.808C57.1224 185.122 54.6986 186.995 51.724 186.995C48.5657 186.995 46.3255 185.306 46.2153 182.772Z" fill="white"/>
<path d="M63.9897 186.738L71.5549 172.526H73.538L81.1767 186.738H79.2303L76.6596 181.964H68.3967L65.826 186.738H63.9897ZM69.0944 180.678H75.9986L72.5832 174.178L69.0944 180.678Z" fill="white"/>
<path d="M89.3293 186.738V172.526H91.7164L101.669 184.314V172.526H103.468V186.738H101.669L91.0921 174.252V186.738H89.3293Z" fill="white"/>
<path d="M115.918 186.738V173.811H111.841V172.526H121.757V173.811H117.68V186.738H115.918Z" fill="white"/>
<path d="M130.13 186.738V172.526H131.93V186.738H130.13Z" fill="white"/>
<path d="M140.082 186.738L147.684 172.526H149.667L157.306 186.738H155.36L152.789 181.964H144.526L141.955 186.738H140.082ZM145.187 180.678H152.091L148.676 174.178L145.187 180.678Z" fill="white"/>
<path d="M170.38 180.201H182.425C182.021 184.057 177.945 186.995 173.06 186.995C167.846 186.995 163.512 183.653 163.512 179.613C163.512 175.574 167.772 172.268 173.024 172.268C175.521 172.268 177.724 172.966 179.561 174.325C180.773 175.206 180.956 175.463 181.36 176.308H179.377C178.202 174.656 175.668 173.554 173.06 173.554C168.8 173.554 165.312 176.308 165.312 179.65C165.312 183.029 168.837 185.709 173.134 185.709C176.439 185.709 179.561 183.873 180.332 181.486H170.416V180.201H170.38Z" fill="white"/>
<path d="M190.358 179.687C190.358 175.61 194.581 172.305 199.759 172.305C204.937 172.305 209.16 175.61 209.16 179.687C209.16 183.726 204.937 187.031 199.759 187.031C194.618 186.995 190.358 183.69 190.358 179.687ZM192.157 179.723C192.157 182.992 195.646 185.709 199.759 185.709C203.946 185.709 207.398 182.955 207.398 179.65C207.398 176.308 203.946 173.554 199.759 173.554C195.573 173.554 192.157 176.345 192.157 179.723Z" fill="white"/>
<path d="M43.4976 172.415H28V186.848H43.4976V172.415Z" fill="white"/>
<path d="M227.89 172.415H212.429V186.848H227.89V172.415Z" fill="white"/>
<path d="M227.927 112.885H197.519C195.683 109.103 193.553 105.504 191.202 102.162C192.267 100.216 192.781 98.0856 192.781 95.8087C192.781 88.574 187.126 82.6981 180.148 82.6981C177.908 82.6981 175.815 83.2857 173.905 84.4242C160.538 74.325 144.783 69 128.33 69C99.2082 69 72.3995 86.3705 59.1788 113.032H28.1101V122.397H65.0914V122.14L65.275 121.736C76.0352 95.4414 100.787 78.4381 128.294 78.4381C142.69 78.4381 156.498 83.0286 168.14 91.7323C167.699 93.0544 167.478 94.4499 167.478 95.8454C167.478 103.043 173.097 108.846 180.038 108.846C181.287 108.846 182.682 108.625 183.968 108.185C187.016 112.592 189.476 117.145 191.349 121.699L191.533 122.103H191.606V122.434H228V113.106V112.812H227.927V112.885ZM180.148 102.713C176.402 102.713 173.354 99.5545 173.354 95.6985C173.354 91.8057 176.402 88.6474 180.148 88.6474C183.894 88.6474 186.942 91.8057 186.942 95.6985C186.942 99.5545 183.894 102.713 180.148 102.713Z" fill="white"/>
</g>
<defs>
<clipPath id="clip0_244_1929">
<rect width="256" height="256" fill="white"/>
</clipPath>
</defs>
</svg>
