<?xml version="1.0" encoding="utf-8"?>
<!-- Generator: Adobe Illustrator 25.3.1, SVG Export Plug-In . SVG Version: 6.00 Build 0)  -->
<svg version="1.1" id="Layer_1" xmlns="http://www.w3.org/2000/svg" xmlns:xlink="http://www.w3.org/1999/xlink" x="0px" y="0px"
	 viewBox="0 0 185.2 78.8" style="enable-background:new 0 0 185.2 78.8;" xml:space="preserve">
<style type="text/css">
	.st0{fill:#402C50;}
</style>
<path class="st0" d="M7.6,11.9c-1.6,0-3.5-0.2-3.5-1.2c0-6.6,11.7-6.9,16.7-6.9c6.5,0,14.8,2,21.9,4.6c10.8,3.9,32.5,16.9,32.5,31.7
	c0,13.1-14.2,19.4-27.3,19.4c-3.3,0-7.3-0.6-10.5-1.1c-0.2,0.8-0.4,1.4-0.9,3c-0.9,0.1-1.6,0.3-2.5,0.3l-1.7-0.1
	c-1.1-1.3-1.4-3.4-1.9-5.6c-6.6-3.8-10.9-7.1-12.9-9.3c-1.7-1.7-3.5-4-3.5-6.3c0-1.2,0.7-2.2,2.4-3.3c3.4-2.5,7.7-3.9,14.8-5.1
	l0.1-3c0.1-0.7,0.8-8.5,2.5-9.9c2.7,2.2,3,4.4,3.2,7.7c0.1,1.4,0.1,3,0.4,4.6h1c5.1,0,20.5,1.3,20.5,8.6c0,1.7-2.5,5-5,5
	c-0.9,0-2.5-0.4-3.2-0.9c1.1-1.2,2.7-2.3,3.1-3.3c-1.4-1.7-9.2-3.8-15-3.8c-0.9,0-1.3,0-1.9,0.1l0.1,15.8c2.3,1.4,5.1,1.6,6.9,1.6
	c7.9,0,24.4-1.4,24.4-14.2C68.4,27.5,52.1,17.7,40,13c-8.3-3.2-16.4-4.9-25.9-4.9c-2,0-4,0.1-5.9,0.6C6.9,9.1,6.5,9.3,6.5,9.6
	c0,0.5,2.5,0.8,2.7,0.9c0.2,0.1,0.4,0.4,0.4,0.6c0,0.1-0.1,0.4-0.3,0.6C9,11.8,8.4,11.9,7.6,11.9z M31.1,37.2
	C23.9,37.8,16,38.5,16,41c0,2,3.3,4.3,5.3,5.9c2.3,1.9,5.8,3.6,9.1,4.3L31.1,37.2z"/>
<path class="st0" d="M92.8,11.5c1.2,0,4,1.2,4,3.9c0,5.6-9.5,11.9-14.3,11.9c-1.4,0-3.3-0.2-4.6-0.6c-0.8,0.9-1.1,1.7-2.2,1.9
	c-0.7-0.1-1.7-1.5-1.8-3.1c0-0.4,0.1-0.9,0.2-1.2c-1.1-1.4-1.9-2.7-1.9-4.3c0-4.8,7.2-11.1,14-11.1c3.2,0,5.7,1.2,6.1,2.8
	C92.5,11.6,92.6,11.5,92.8,11.5z M76.1,20.1c0.1,0,0.3-0.1,0.4-0.1c0.9-1.3,4-4.2,5.6-5.8v-0.1c0-0.1,0-0.2-0.1-0.4
	c-3.6,0.7-5.9,3.4-6.1,6.2C75.9,20,76,20.1,76.1,20.1z M83,35.8c0.1,5.9,0.7,12,0.7,17.8c0,1.2-0.4,2.5-2.2,2.5
	c-0.6,0-1.4-0.2-2-0.4c-0.9-0.3-1.4-3.1-1.4-3.8c0-3.7,0.1-3.8,0.2-7.6c0.1-1,0.3-5,1.2-12.2c0.1-0.4,0.1-0.5,0.4-0.5
	C82.5,31.5,82.9,33.1,83,35.8z M80.8,23.1h1.6c3.6,0,10.9-2.5,10.9-6.9c0-1,0-1.8-1.9-1.8c-4.2,0-8.3,4-11.3,8.1
	C80.2,22.7,80.6,23.1,80.8,23.1z"/>
<path class="st0" d="M91.2,38.1c0,0.1,0.1,0.1,0.1,0.1c2.7,1,4.6,1.4,7.4,1.5c4.9,0.4,12.2,0.4,12.2,7.2c0,7.8-8.7,8.2-10.9,8.2
	c-6.1,0-11.6-3.9-11.6-6.9c0-3.5,3.7-4.5,6.6-4.5c2.7,0,6.4,0.7,9.3,2.2c0.1,0.1,0.1,0.1,0.1,0.3c0,0.2-0.1,0.4-0.1,0.4
	c-0.6,0.6-2.3,1.4-4.1,1.4c-2.1,0-5-1.7-7.8-1.7c-1,0-2.2,0.2-2.2,1.8c0,1.8,3.3,1.8,5.9,1.8c1.4,0,11.3-1.2,11.3-3.8
	c0-2.5-7.6-3.6-10.7-3.7c-8.3-0.2-9.4-1.1-9.4-4.1c0-6.8,13.7-7.3,14.3-7.3c3.6,0,6.9,0.6,9.2,1.2c0.5,0.1,0.8,0.3,0.8,1.1
	c-0.1,0.9-0.8,1.4-1.6,1.7c-0.6,0.1-1.8,0.4-2.3,0.4c-2.5,0.4-10,0.6-12.2,1.1c-2.3,0.4-3.4,0.6-4.1,1.1
	C91.2,37.9,91.2,38,91.2,38.1z"/>
<path class="st0" d="M126.3,29.1c0-0.6,0.1-1.5,0.7-1.5c2,0,7.8,7.2,7.8,17.2c0,4.4-2,9.7-5.6,9.7c-4.2,0-8.6-13.4-9.6-13.4
	c-0.1,0-0.4,0.2-0.5,0.8c-0.2,0.9-0.4,8.5-0.7,10.7c-0.2,1-0.6,3.4-2.2,3.4c-2.3,0-2.8-4-2.8-5.7c0-3.8,1.9-17,5-17
	c2.2,0,6.5,9,10.3,13.8c0.3,0.3,0.4,0.6,0.5,0.6c0.4,0,0.4-0.7,0.4-1.9c0-6.6-1.4-8.6-3.2-15.4l-0.2-0.9V29.1L126.3,29.1z"/>
<path class="st0" d="M153.9,52.5c-2,1.5-6.4,4.9-11.1,4.9c-4,0-5.8-3-5.8-6.1c0-1.7,1-3.9,1.8-6.1c-0.2-0.7-0.6-1.2-0.6-1.9
	c0-0.6,0.2-0.9,0.4-1.4c0.6-0.2,1.2-0.5,1.9-0.6l1.7-4c-1.7-0.8-4.1-1.7-4.1-3.3c0-0.8,0.6-1,1.9-1.1c3-0.1,6.6-1.4,12.5-1.4
	c0.7,0,1.4,0.1,3,0.5c0.6,0.8,2.3,2.3,2.3,3.5c0,0.7-2.5,1.5-3.9,1.6c-3.1,0.2-3.8,0.1-5.8,0.2c-0.4,0-0.7,0-1.1,0.1
	c-0.3,0.3-0.9,1.2-0.9,3c0,0.3,0.1,0.7,0.6,0.7h5.3l1,0.1c0.4,0.5,0.4,1.4,0.4,2.1c0,0.6-0.1,1.7-0.8,1.7c-1.3,0.1-4.6,0.2-8.2,0.2
	c-0.1,0-0.3,0-0.4,0.3c-0.4,1.5-1,3.3-1.7,4.8c0.4,0,3.1-0.7,7.7-1.2c0.7-0.1,1.7-0.1,2.4-0.1c0.9,0,1.8,1.2,1.8,2.2
	C154.3,51.8,154.2,52.3,153.9,52.5z"/>
<path class="st0" d="M158.1,77.1c-2.9-0.3-4.8-2.7-4.8-5.8c0-1.4,1.2-9.2,5.2-18.9c-0.8-1.7-1.3-3.5-1.3-5.3
	c0-7.4,7.2-16.3,8.7-16.4c1,0.1,1.2,0.7,1.2,2c0,1.4-0.9,2.4-3.1,5.8c-1.2,1.8-2.8,4.8-2.8,7.4c0,0.3,0,0.7,0.2,0.9h0.1
	c0.1,0,0.1-0.1,0.3-0.3c3.5-4.6,10.6-13.3,14.3-13.3c3.8,0,4.7,6.1,4.7,9c0,8.5-10.7,14.6-15.5,14.6c-0.5,0-1,0.1-1.6,0.1
	c-2.8,8.2-3.3,11.8-5.3,19.5L158.1,77.1z M174.3,47.3c2-1.7,3.1-4.1,3.1-7.1c0-0.8,0-2-0.9-2c-1.2,0-4,3.3-5.1,4.6
	c-0.8,1.1-3.7,6.6-4.2,7.8C169.6,50.3,172,49.2,174.3,47.3z"/>
</svg>
