<svg width="283" height="52" viewBox="0 0 283 52" fill="none" xmlns="http://www.w3.org/2000/svg">
<path fill-rule="evenodd" clip-rule="evenodd" d="M9.40472 44.2022C10.2407 43.2617 10.5542 41.9032 10.5542 40.2313C10.5542 38.4548 10.1362 37.0964 9.40472 36.1559C8.67324 35.2154 7.52377 34.6929 6.16531 34.6929C4.80686 34.6929 3.65739 35.0064 2.82142 36.0514C1.98544 37.0964 1.67195 38.3503 1.67195 40.1268C1.67195 41.9032 2.08994 43.2617 2.82142 44.2022C3.55289 45.1426 4.70236 45.6651 6.06082 45.6651C7.52377 45.5606 8.56874 45.1426 9.40472 44.2022ZM9.40472 33.9615C10.3452 34.5884 10.9722 35.3199 11.4947 36.4694C12.0171 37.5144 12.2261 38.7683 12.2261 40.1268C12.2261 41.4852 12.0171 42.7392 11.4947 43.7842C10.9722 44.8291 10.3452 45.6651 9.40472 46.1876C8.46425 46.7101 7.41928 47.0236 6.26981 47.0236C5.22484 47.0236 4.28437 46.8146 3.4484 46.2921C2.61242 45.7696 2.08994 45.1426 1.67195 44.2022V51.0989C1.67195 51.3079 1.56745 51.5169 1.46296 51.7259C1.35846 51.9349 1.14947 51.9349 0.835975 51.9349C0.522484 51.9349 0.417987 51.8304 0.208994 51.7259C0.104497 51.6214 0 51.4124 0 51.0989V34.066C0 33.857 0.104497 33.648 0.208994 33.439C0.417987 33.23 0.522484 33.23 0.835975 33.23C1.14947 33.23 1.25396 33.3345 1.46296 33.439C1.56745 33.648 1.67195 33.7525 1.67195 34.066V35.9469C2.08994 35.0064 2.71692 34.3795 3.4484 33.857C4.17987 33.3345 5.22484 33.1255 6.26981 33.1255C7.52377 33.1255 8.56874 33.439 9.40472 33.9615Z" fill="black"/>
<path fill-rule="evenodd" clip-rule="evenodd" d="M25.0795 44.2021C25.811 43.2617 26.229 41.9032 26.229 40.1268C26.229 38.3503 25.811 36.9919 25.0795 36.0514C24.2436 35.1109 23.1986 34.5884 21.8401 34.5884C20.4817 34.5884 19.3322 35.1109 18.6007 36.0514C17.8692 36.9919 17.4513 38.3503 17.4513 40.1268C17.4513 41.9032 17.8692 43.2617 18.6007 44.2021C19.3322 45.1426 20.4817 45.6651 21.8401 45.6651C23.1986 45.6651 24.2436 45.1426 25.0795 44.2021ZM18.4962 46.1876C17.5558 45.6651 16.8243 44.8291 16.3018 43.7842C15.7793 42.7392 15.5703 41.4852 15.5703 40.1268C15.5703 38.7683 15.7793 37.5144 16.3018 36.4694C16.8243 35.4244 17.5558 34.5884 18.4962 34.066C19.4367 33.5435 20.4817 33.23 21.7356 33.23C22.9896 33.23 24.0346 33.5435 24.975 34.066C25.9155 34.5884 26.647 35.4244 27.1695 36.4694C27.6919 37.5144 27.9009 38.7683 27.9009 40.1268C27.9009 41.4852 27.6919 42.7392 27.1695 43.7842C26.647 44.8291 25.9155 45.6651 24.975 46.1876C24.0346 46.7101 22.9896 47.0236 21.7356 47.0236C20.5862 47.1281 19.4367 46.8146 18.4962 46.1876Z" fill="black"/>
<path fill-rule="evenodd" clip-rule="evenodd" d="M51.2021 33.23C51.4111 33.23 51.6201 33.3345 51.8291 33.439C52.0381 33.5435 52.0381 33.7525 52.0381 33.9615C52.0381 33.9615 52.0381 34.066 51.9336 34.275L47.3357 46.3966C47.2312 46.6056 47.1267 46.7101 46.9177 46.9191C46.7087 47.0236 46.6042 47.1281 46.3952 47.1281C46.1862 47.1281 45.9772 47.0236 45.8728 46.9191C45.6638 46.8146 45.5593 46.6056 45.4548 46.3966L41.3794 35.8424L37.304 46.3966C37.1995 46.6056 37.095 46.7101 36.886 46.9191C36.677 47.0236 36.5725 47.1281 36.3635 47.1281C36.1545 47.1281 35.9455 47.0236 35.8411 46.9191C35.6321 46.8146 35.5276 46.6056 35.4231 46.3966L30.7207 34.3795C30.7207 34.275 30.6162 34.1705 30.6162 34.066C30.6162 33.857 30.7207 33.648 30.9297 33.439C31.1387 33.23 31.3477 33.23 31.5567 33.23C31.8702 33.23 32.1837 33.439 32.2882 33.7525L36.3635 44.7246L40.5434 33.857C40.6479 33.648 40.7524 33.5435 40.8569 33.3345C40.9614 33.1255 41.1704 33.1255 41.3794 33.1255C41.5884 33.1255 41.6929 33.23 41.9019 33.3345C42.1109 33.439 42.2154 33.648 42.2154 33.857L46.3952 44.7246L50.4706 33.857C50.5751 33.3345 50.7841 33.23 51.2021 33.23Z" fill="black"/>
<path fill-rule="evenodd" clip-rule="evenodd" d="M57.8917 35.7377C57.1603 36.5736 56.6378 37.7231 56.5333 39.1861H65.102C65.102 37.7231 64.684 36.5736 63.9526 35.7377C63.2211 34.9017 62.2806 34.4837 61.0266 34.4837C59.6682 34.4837 58.6232 34.9017 57.8917 35.7377ZM66.2515 44.2019C66.356 44.3064 66.4605 44.5154 66.4605 44.7244C66.4605 45.1424 66.147 45.5604 65.52 45.8739C64.1616 46.7098 62.8031 47.0233 61.3401 47.0233C59.2502 47.0233 57.6827 46.3963 56.5333 45.1424C55.3838 43.8884 54.7568 42.2165 54.7568 40.022C54.7568 38.6636 55.0703 37.4096 55.5928 36.3647C56.1153 35.3197 56.8468 34.4837 57.7872 33.8567C58.7277 33.2297 59.8772 33.0208 61.0266 33.0208C62.8031 33.0208 64.1615 33.5432 65.102 34.6927C66.147 35.8422 66.565 37.3051 66.565 39.2906C66.565 39.6041 66.4605 39.9175 66.356 40.022C66.2515 40.231 65.938 40.231 65.6245 40.231H56.4288C56.5333 41.903 56.9513 43.2614 57.7872 44.0974C58.6232 44.9334 59.7727 45.4559 61.3401 45.4559C62.1761 45.4559 62.8031 45.3514 63.3256 45.1424C63.8481 44.9334 64.475 44.6199 64.9975 44.3064C65.4155 43.9929 65.729 43.8884 65.8335 43.8884C66.0425 43.9929 66.147 44.0974 66.2515 44.2019Z" fill="black"/>
<path fill-rule="evenodd" clip-rule="evenodd" d="M77.6419 33.3345C77.7464 33.439 77.8509 33.648 77.8509 33.857C77.8509 34.275 77.5374 34.5885 77.0149 34.5885L76.2835 34.693C74.925 34.7975 73.9845 35.32 73.3575 36.156C72.7306 36.9919 72.4171 37.9324 72.4171 38.9774V46.1877C72.4171 46.5012 72.3126 46.7101 72.2081 46.8146C72.1036 46.9191 71.8946 47.0236 71.5811 47.0236C71.2676 47.0236 71.1631 46.9191 70.9541 46.8146C70.7451 46.7101 70.7451 46.5012 70.7451 46.1877V34.066C70.7451 33.7525 70.8496 33.5435 70.9541 33.439C71.1631 33.3345 71.2676 33.2301 71.5811 33.2301C71.7901 33.2301 71.9991 33.3345 72.2081 33.439C72.3126 33.5435 72.4171 33.7525 72.4171 34.066V35.8425C73.1486 34.275 74.6115 33.3345 76.5969 33.2301H77.0149C77.3284 33.1256 77.5374 33.2301 77.6419 33.3345Z" fill="black"/>
<path fill-rule="evenodd" clip-rule="evenodd" d="M82.6574 35.7377C81.9259 36.5736 81.4034 37.7231 81.2989 39.1861H89.8676C89.8676 37.7231 89.4497 36.5736 88.7182 35.7377C87.9867 34.9017 87.0462 34.4837 85.7923 34.4837C84.4338 34.4837 83.4933 34.9017 82.6574 35.7377ZM91.1216 44.2019C91.2261 44.3064 91.3306 44.5154 91.3306 44.7244C91.3306 45.1424 91.0171 45.5604 90.3901 45.8739C89.0317 46.7098 87.6732 47.0233 86.2103 47.0233C84.1203 47.0233 82.5529 46.3963 81.4034 45.1424C80.2539 43.8884 79.627 42.2165 79.627 40.022C79.627 38.6636 79.9404 37.4096 80.4629 36.3647C80.9854 35.3197 81.7169 34.4837 82.6574 33.8567C83.5978 33.2297 84.7473 33.0208 85.8968 33.0208C87.6732 33.0208 89.0317 33.5432 89.9721 34.6927C91.0171 35.8422 91.4351 37.3051 91.4351 39.2906C91.4351 39.6041 91.3306 39.9175 91.2261 40.022C91.1216 40.231 90.8081 40.231 90.4946 40.231H81.2989C81.4034 41.903 81.8214 43.2614 82.6574 44.0974C83.4933 44.9334 84.6428 45.4559 86.2103 45.4559C87.0462 45.4559 87.6732 45.3514 88.1957 45.1424C88.7182 44.9334 89.3452 44.6199 89.8676 44.3064C90.2856 43.9929 90.5991 43.8884 90.7036 43.8884C90.8081 43.9929 90.9126 44.0974 91.1216 44.2019Z" fill="black"/>
<path fill-rule="evenodd" clip-rule="evenodd" d="M104.078 44.2022C104.809 43.2617 105.227 41.9032 105.227 40.1268C105.227 38.3503 104.809 36.9919 104.078 36.0514C103.346 35.1109 102.197 34.5885 100.838 34.5885C99.3752 34.5885 98.3302 35.1109 97.4943 36.0514C96.7628 36.9919 96.3448 38.3503 96.3448 40.1268C96.3448 41.9032 96.7628 43.2617 97.4943 44.2022C98.2257 45.1426 99.3752 45.6651 100.734 45.6651C102.197 45.5606 103.346 45.1426 104.078 44.2022ZM106.69 27.4827C106.899 27.6917 106.899 27.7962 106.899 28.1097V46.1876C106.899 46.3966 106.794 46.6056 106.69 46.8146C106.481 47.0236 106.377 47.0236 106.063 47.0236C105.75 47.0236 105.645 46.9191 105.436 46.8146C105.332 46.6056 105.227 46.5011 105.227 46.1876V44.3067C104.809 45.2471 104.182 45.8741 103.451 46.3966C102.615 46.9191 101.674 47.1281 100.629 47.1281C99.4797 47.1281 98.4347 46.8146 97.4943 46.2921C96.5538 45.7696 95.9268 44.9336 95.4043 43.7842C94.8819 42.7392 94.6729 41.4853 94.6729 40.1268C94.6729 38.7683 94.8819 37.5144 95.4043 36.4694C95.9268 35.4244 96.5538 34.5885 97.4943 34.066C98.4347 33.5435 99.4797 33.23 100.629 33.23C101.674 33.23 102.615 33.439 103.451 33.9615C104.287 34.484 104.809 35.1109 105.227 36.0514V28.2141C105.227 28.0052 105.332 27.7962 105.436 27.5872C105.541 27.3782 105.75 27.3782 106.063 27.3782C106.377 27.3782 106.481 27.2737 106.69 27.4827Z" fill="black"/>
<path fill-rule="evenodd" clip-rule="evenodd" d="M128.844 44.0977C129.68 43.1572 129.994 41.7987 129.994 40.0223C129.994 38.2459 129.576 36.9919 128.844 35.9469C128.008 35.0064 126.963 34.484 125.5 34.484C124.142 34.484 122.992 35.0064 122.261 35.9469C121.529 36.8874 121.111 38.2459 121.111 40.0223C121.111 41.7987 121.529 43.1572 122.261 44.0977C122.992 45.0381 124.142 45.5606 125.5 45.5606C126.963 45.5606 128.008 45.0381 128.844 44.0977ZM128.844 33.9615C129.785 34.484 130.412 35.3199 130.934 36.3649C131.457 37.4099 131.666 38.6638 131.666 40.0223C131.666 41.3808 131.457 42.6347 130.934 43.6797C130.412 44.7247 129.785 45.5606 128.844 46.1876C127.904 46.8146 126.859 47.0236 125.709 47.0236C124.664 47.0236 123.724 46.8146 122.888 46.2921C122.052 45.7696 121.529 45.1426 121.111 44.2022V46.0831C121.111 46.2921 121.007 46.5011 120.902 46.7101C120.798 46.9191 120.589 46.9191 120.275 46.9191C119.962 46.9191 119.857 46.8146 119.648 46.7101C119.439 46.5011 119.439 46.3966 119.439 46.0831V28.1097C119.439 27.9007 119.544 27.6917 119.648 27.4827C119.857 27.2737 119.962 27.2737 120.275 27.2737C120.589 27.2737 120.693 27.3782 120.902 27.4827C121.007 27.6917 121.111 27.7962 121.111 28.1097V35.9469C121.529 35.0064 122.156 34.3795 122.888 33.857C123.724 33.3345 124.664 33.1255 125.709 33.1255C126.963 33.1255 128.008 33.439 128.844 33.9615Z" fill="black"/>
<path fill-rule="evenodd" clip-rule="evenodd" d="M146.296 33.1255C146.505 33.1255 146.714 33.23 146.819 33.3345C146.923 33.439 147.028 33.648 147.028 33.857C147.028 33.9615 147.028 34.066 146.923 34.1705L139.086 51.4124C138.982 51.7259 138.668 51.9349 138.355 51.9349C138.146 51.9349 137.937 51.8304 137.832 51.7259C137.623 51.6214 137.623 51.4124 137.623 51.2034C137.623 51.0989 137.623 50.9945 137.728 50.89L139.713 46.6056L134.07 34.275C133.966 34.1705 133.966 34.066 133.966 33.9615C133.966 33.7525 134.07 33.5435 134.279 33.439C134.488 33.23 134.697 33.23 134.906 33.23C135.22 33.23 135.533 33.439 135.638 33.7525L140.654 44.9336L145.669 33.7525C145.774 33.3345 145.983 33.1255 146.296 33.1255Z" fill="black"/>
<path d="M171.061 29.0501C170.539 29.0501 170.121 28.9456 169.598 28.7366L158.94 23.4073C157.895 22.8848 157.163 21.7353 157.163 20.5859V8.46424C157.163 7.31478 157.895 6.16532 158.94 5.64283L169.598 0.313491C170.539 -0.104497 171.584 -0.104497 172.42 0.313491L183.078 5.64283C184.123 6.16532 184.855 7.31478 184.855 8.46424V20.5859C184.855 21.7353 184.123 22.8848 183.078 23.4073L172.42 28.7366C172.106 28.9456 171.584 29.0501 171.061 29.0501ZM164.164 18.9139L170.643 22.1533C170.957 22.2578 171.27 22.2578 171.584 22.1533L178.062 18.9139C178.376 18.7049 178.689 18.3914 178.689 17.9735V11.0767C178.689 10.6587 178.48 10.3452 178.167 10.1362L171.688 6.89679C171.375 6.79229 171.061 6.79229 170.748 6.89679L164.269 10.1362C163.955 10.3452 163.642 10.6587 163.642 11.0767V17.9735C163.642 18.3914 163.851 18.7049 164.164 18.9139Z" fill="black"/>
<path d="M171.06 51.9349C170.538 51.9349 170.12 51.8304 169.597 51.6214L158.939 46.2921C157.894 45.7696 157.162 44.6201 157.162 43.4706V31.349C157.162 30.1995 157.894 29.0501 158.939 28.5276L169.597 23.1983C170.538 22.7803 171.583 22.7803 172.419 23.1983L183.077 28.5276C184.122 29.0501 184.854 30.1995 184.854 31.349V43.4706C184.854 44.6201 184.122 45.7696 183.077 46.2921L172.419 51.6214C172.001 51.8304 171.478 51.9349 171.06 51.9349ZM170.538 29.8861L164.372 33.021C163.954 33.23 163.641 33.6479 163.641 34.1704V40.7537C163.641 41.2762 163.954 41.6942 164.372 41.9032L170.538 45.0381C170.956 45.2471 171.374 45.2471 171.687 45.0381L177.852 41.9032C178.27 41.6942 178.584 41.2762 178.584 40.7537V34.1704C178.584 33.6479 178.27 33.23 177.852 33.021L171.687 29.8861C171.269 29.6771 170.851 29.6771 170.538 29.8861Z" fill="black"/>
<path d="M200.841 24.8704H202.827L205.753 32.3941L208.783 24.8704H210.768L207.111 33.8571L211.186 43.3663L218.815 24.6614H221.114L212.127 45.7697H210.246L205.857 35.3201L201.364 45.7697H199.587L190.705 24.6614H192.9L200.528 43.3663L204.499 33.8571L200.841 24.8704Z" fill="black"/>
<path d="M230.413 24.6614H232.19L240.968 45.7697H238.773L236.056 39.1864H226.547L223.83 45.7697H221.636L230.413 24.6614ZM235.534 37.5145L231.249 27.0648L226.965 37.5145H235.534V37.5145Z" fill="black"/>
<path d="M247.446 45.7697V24.6614H249.536V43.8888H261.762V45.7697H247.446Z" fill="black"/>
<path d="M267.719 45.7697V24.6614H269.809V43.8888H282.035V45.7697H267.719Z" fill="black"/>
<path d="M199.276 8.46419H195.723V17.5554H193.633V8.46419H190.08V6.58325H199.171L199.276 8.46419ZM210.457 6.68775V17.6599H208.367V12.9576H203.351V17.6599H201.261V6.68775H203.351V11.0766H208.367V6.68775H210.457Z" fill="black"/>
</svg>
