<?xml version="1.0" encoding="utf-8"?>
<!-- Generator: Adobe Illustrator 25.2.1, SVG Export Plug-In . SVG Version: 6.00 Build 0)  -->
<svg version="1.1" id="Layer_1" xmlns="http://www.w3.org/2000/svg" xmlns:xlink="http://www.w3.org/1999/xlink" x="0px" y="0px"
	 viewBox="0 0 818 819" style="enable-background:new 0 0 818 819;" xml:space="preserve">
<style type="text/css">
	.st0{fill:#FFFFFF;}
	.st1{fill:url(#SVGID_1_);}
	.st2{fill:url(#SVGID_2_);}
	.st3{fill:url(#SVGID_3_);}
	.st4{fill:url(#SVGID_4_);}
	.st5{fill:url(#SVGID_5_);}
	.st6{fill:url(#SVGID_6_);}
	.st7{fill:url(#SVGID_7_);}
	.st8{fill:url(#SVGID_8_);}
	.st9{fill:url(#SVGID_9_);}
	.st10{fill:url(#SVGID_10_);}
	.st11{fill:url(#SVGID_11_);}
	.st12{fill:url(#SVGID_12_);}
	.st13{fill:url(#SVGID_13_);}
	.st14{fill:url(#SVGID_14_);}
	.st15{fill:url(#SVGID_15_);}
	.st16{fill:url(#SVGID_16_);}
	.st17{fill:url(#SVGID_17_);}
	.st18{fill:url(#SVGID_18_);}
	.st19{fill:url(#SVGID_19_);}
	.st20{fill:url(#SVGID_20_);}
	.st21{fill:url(#SVGID_21_);}
	.st22{fill:url(#SVGID_22_);}
	.st23{fill:url(#SVGID_23_);}
	.st24{fill:url(#SVGID_24_);}
	.st25{fill:url(#SVGID_25_);}
	.st26{fill:url(#SVGID_26_);}
	.st27{fill:url(#SVGID_27_);}
	.st28{fill:url(#SVGID_28_);}
	.st29{fill:url(#SVGID_29_);}
	.st30{fill:url(#SVGID_30_);}
	.st31{fill:url(#SVGID_31_);}
	.st32{fill:url(#SVGID_32_);}
	.st33{fill:url(#SVGID_33_);}
	.st34{fill:url(#SVGID_34_);}
	.st35{fill:url(#SVGID_35_);}
	.st36{fill:url(#SVGID_36_);}
	.st37{fill:url(#SVGID_37_);}
	.st38{fill:url(#SVGID_38_);}
	.st39{fill:url(#SVGID_39_);}
	.st40{fill:url(#SVGID_40_);}
	.st41{fill:url(#SVGID_41_);}
	.st42{fill:url(#SVGID_42_);}
	.st43{fill:url(#SVGID_43_);}
	.st44{fill:url(#SVGID_44_);}
	.st45{fill:url(#SVGID_45_);}
	.st46{fill:url(#SVGID_46_);}
	.st47{fill:url(#SVGID_47_);}
	.st48{fill:url(#SVGID_48_);}
	.st49{fill:url(#SVGID_49_);}
	.st50{fill:url(#SVGID_50_);}
</style>
<g>
	<polygon class="st0" points="662.5,554.1 406.3,704.1 143,554.1 143,254.2 406.3,104.2 662.5,254.2 	"/>
	
		<linearGradient id="SVGID_1_" gradientUnits="userSpaceOnUse" x1="437.0725" y1="-124.3313" x2="-72.6167" y2="528.9998" gradientTransform="matrix(1 0 0 -1 0 820)">
		<stop  offset="0" style="stop-color:#C4A36C"/>
		<stop  offset="0.492" style="stop-color:#F4DA9D"/>
		<stop  offset="1" style="stop-color:#B39865"/>
	</linearGradient>
	<path class="st1" d="M327.5,793.4c-0.2,0-0.4-0.1-0.6-0.1c-1.4,0-2.6,0.9-2.8,2.3l-2.2,10.9c-0.3,1.6,0.7,3.1,2.2,3.4
		c1.5,0.3,3.1-0.7,3.4-2.2l2.2-10.9c0.2-0.8,0-1.5-0.4-2.2C328.9,794,328.3,793.6,327.5,793.4z"/>
	
		<linearGradient id="SVGID_2_" gradientUnits="userSpaceOnUse" x1="394.1027" y1="-157.854" x2="-115.5883" y2="495.477" gradientTransform="matrix(1 0 0 -1 0 820)">
		<stop  offset="0" style="stop-color:#C4A36C"/>
		<stop  offset="0.492" style="stop-color:#F4DA9D"/>
		<stop  offset="1" style="stop-color:#B39865"/>
	</linearGradient>
	<path class="st2" d="M226.9,752.1c-0.4-0.2-0.9-0.3-1.3-0.3c-1.1,0-2.1,0.6-2.6,1.6c-1.2,2.3-1.8,3.3-2.3,4.2
		c-0.6,1-1.1,1.9-2.3,4.2c-0.7,1.4-0.2,3.2,1.2,3.9c1.4,0.7,3.2,0.1,3.9-1.2c1.2-2.3,1.8-3.3,2.4-4.2c0.6-0.9,1.1-1.8,2.3-4.1
		c0.4-0.7,0.4-1.5,0.2-2.2C228.1,753,227.6,752.4,226.9,752.1z"/>
	
		<linearGradient id="SVGID_3_" gradientUnits="userSpaceOnUse" x1="369.0461" y1="-177.4023" x2="-140.6448" y2="475.9287" gradientTransform="matrix(1 0 0 -1 0 820)">
		<stop  offset="0" style="stop-color:#C4A36C"/>
		<stop  offset="0.492" style="stop-color:#F4DA9D"/>
		<stop  offset="1" style="stop-color:#B39865"/>
	</linearGradient>
	<path class="st3" d="M70.5,602.7c-0.3-0.1-0.5-0.1-0.8-0.1c-0.5,0-1,0.1-1.4,0.4l-8.9,5.3c-1.4,0.8-1.9,2.6-1.1,4
		c0.8,1.3,2.6,1.8,4,1.1l8.8-5.3c0.7-0.4,1.2-1,1.4-1.8c0.2-0.8,0.1-1.5-0.3-2.2C71.9,603.3,71.3,602.9,70.5,602.7z"/>
	
		<linearGradient id="SVGID_4_" gradientUnits="userSpaceOnUse" x1="370.9729" y1="-175.899" x2="-138.7181" y2="477.431" gradientTransform="matrix(1 0 0 -1 0 820)">
		<stop  offset="0" style="stop-color:#C4A36C"/>
		<stop  offset="0.492" style="stop-color:#F4DA9D"/>
		<stop  offset="1" style="stop-color:#B39865"/>
	</linearGradient>
	<path class="st4" d="M139.7,688.8C139.7,688.8,139.7,688.8,139.7,688.8c-0.8,0-1.5,0.3-2.1,0.8l-7.1,6.4c-0.6,0.5-0.9,1.2-0.9,2
		c0,0.8,0.3,1.5,0.8,2.1c0.7,0.7,1.8,1.1,2.8,0.8c0.5-0.1,0.9-0.4,1.3-0.7l7.1-6.4c1.1-1.1,1.2-2.9,0.1-4.1
		C141.2,689.1,140.5,688.8,139.7,688.8z"/>
	
		<linearGradient id="SVGID_5_" gradientUnits="userSpaceOnUse" x1="389.8613" y1="-161.1647" x2="-119.8308" y2="492.1663" gradientTransform="matrix(1 0 0 -1 0 820)">
		<stop  offset="0" style="stop-color:#C4A36C"/>
		<stop  offset="0.492" style="stop-color:#F4DA9D"/>
		<stop  offset="1" style="stop-color:#B39865"/>
	</linearGradient>
	<path class="st5" d="M24.6,502.5c-0.2,0-0.5,0-0.7,0.1L14,505c-1.6,0.4-2.5,2-2.1,3.5c0.4,1.5,2,2.5,3.5,2.1l9.8-2.5
		c1.5-0.4,2.5-2,2.1-3.5C27.1,503.4,25.9,502.5,24.6,502.5z"/>
	
		<linearGradient id="SVGID_6_" gradientUnits="userSpaceOnUse" x1="436.7756" y1="-124.5629" x2="-72.9149" y2="528.767" gradientTransform="matrix(1 0 0 -1 0 820)">
		<stop  offset="0" style="stop-color:#C4A36C"/>
		<stop  offset="0.492" style="stop-color:#F4DA9D"/>
		<stop  offset="1" style="stop-color:#B39865"/>
	</linearGradient>
	<path class="st6" d="M14.1,398.8c1.5,0,2.8-1.2,2.9-2.8c0-0.8-0.2-1.5-0.7-2.1c-0.5-0.6-1.2-0.9-2-1c-3.7-0.2-7.5-0.4-11.2-0.6
		c-0.1,0-0.1,0-0.2,0c-0.7,0-1.4,0.3-1.9,0.7c-0.6,0.5-0.9,1.2-1,2c-0.1,1.6,1.1,3,2.7,3c3.7,0.2,7.5,0.4,11.2,0.6H14.1z"/>
	
		<linearGradient id="SVGID_7_" gradientUnits="userSpaceOnUse" x1="502.0844" y1="-73.6138" x2="-7.6067" y2="579.7172" gradientTransform="matrix(1 0 0 -1 0 820)">
		<stop  offset="0" style="stop-color:#C4A36C"/>
		<stop  offset="0.492" style="stop-color:#F4DA9D"/>
		<stop  offset="1" style="stop-color:#B39865"/>
	</linearGradient>
	<path class="st7" d="M21.6,286.6l10.5,3.6c1.5,0.5,3.2-0.3,3.7-1.8c0.3-0.7,0.2-1.5-0.1-2.2c-0.3-0.7-0.9-1.2-1.7-1.5l-10.5-3.6
		c-0.3-0.1-0.6-0.2-0.9-0.2c-0.4,0-0.9,0.1-1.3,0.3c-0.7,0.3-1.2,0.9-1.5,1.7c-0.3,0.7-0.2,1.5,0.1,2.2
		C20.3,285.8,20.9,286.4,21.6,286.6z"/>
	
		<linearGradient id="SVGID_8_" gradientUnits="userSpaceOnUse" x1="560.3338" y1="-28.1717" x2="50.6426" y2="625.1592" gradientTransform="matrix(1 0 0 -1 0 820)">
		<stop  offset="0" style="stop-color:#C4A36C"/>
		<stop  offset="0.492" style="stop-color:#F4DA9D"/>
		<stop  offset="1" style="stop-color:#B39865"/>
	</linearGradient>
	<path class="st8" d="M55.6,208.7c2.8,1.7,5.9,3.5,9,5.3c1.3,0.8,3.2,0.3,4-1.1c0.8-1.4,0.3-3.2-1.1-4c-3.1-1.7-6-3.5-8.8-5.2
		c-0.5-0.3-1-0.4-1.5-0.4c-0.2,0-0.5,0-0.7,0.1c-0.8,0.2-1.4,0.6-1.8,1.3C53.8,206.1,54.2,207.9,55.6,208.7z"/>
	
		<linearGradient id="SVGID_9_" gradientUnits="userSpaceOnUse" x1="623.9697" y1="21.4739" x2="114.2787" y2="674.8049" gradientTransform="matrix(1 0 0 -1 0 820)">
		<stop  offset="0" style="stop-color:#C4A36C"/>
		<stop  offset="0.492" style="stop-color:#F4DA9D"/>
		<stop  offset="1" style="stop-color:#B39865"/>
	</linearGradient>
	<path class="st9" d="M112.7,146.2c1.1,1,3.1,0.9,4.1-0.3c1.1-1.2,0.9-3-0.3-4.1c-2.5-2.2-5-4.4-7.5-6.6c-0.5-0.5-1.2-0.7-1.9-0.7
		c-0.1,0-0.1,0-0.2,0c-0.8,0-1.5,0.4-2,1c-1.1,1.2-0.9,3,0.3,4.1C107.7,141.8,110.2,144,112.7,146.2z"/>
	
		<linearGradient id="SVGID_10_" gradientUnits="userSpaceOnUse" x1="711.8059" y1="90.0002" x2="202.1159" y2="743.3304" gradientTransform="matrix(1 0 0 -1 0 820)">
		<stop  offset="0" style="stop-color:#C4A36C"/>
		<stop  offset="0.492" style="stop-color:#F4DA9D"/>
		<stop  offset="1" style="stop-color:#B39865"/>
	</linearGradient>
	<path class="st10" d="M197.5,76.6c0.8,1.3,2.7,1.8,4,1c1.4-0.8,1.8-2.6,1-4c-2.1-3.5-4.1-6.9-6.2-10.4c-0.5-0.9-1.5-1.4-2.5-1.4
		c-0.5,0-1,0.1-1.5,0.4c-1.4,0.8-1.8,2.6-1,4C193.3,69.7,195.4,73.2,197.5,76.6z"/>
	
		<linearGradient id="SVGID_11_" gradientUnits="userSpaceOnUse" x1="797.6527" y1="156.9718" x2="287.9617" y2="810.3027" gradientTransform="matrix(1 0 0 -1 0 820)">
		<stop  offset="0" style="stop-color:#C4A36C"/>
		<stop  offset="0.492" style="stop-color:#F4DA9D"/>
		<stop  offset="1" style="stop-color:#B39865"/>
	</linearGradient>
	<path class="st11" d="M296.7,28c0.4,1.5,2.1,2.5,3.6,2c0.8-0.2,1.4-0.7,1.8-1.4c0.4-0.7,0.5-1.5,0.3-2.2l-2.3-8.5
		c-0.4-1.3-1.5-2.1-2.8-2.1c-0.3,0-0.5,0-0.8,0.1c-1.5,0.4-2.5,2-2,3.6L296.7,28z"/>
	
		<linearGradient id="SVGID_12_" gradientUnits="userSpaceOnUse" x1="485.2513" y1="-86.7418" x2="-24.4393" y2="566.5903" gradientTransform="matrix(1 0 0 -1 0 820)">
		<stop  offset="0" style="stop-color:#C4A36C"/>
		<stop  offset="0.492" style="stop-color:#F4DA9D"/>
		<stop  offset="1" style="stop-color:#B39865"/>
	</linearGradient>
	<path class="st12" d="M409.2,799.6c-1.6,0-2.9,1.3-2.9,2.9V816c0,1.6,1.3,2.9,2.9,2.9c1.6,0,2.9-1.3,2.9-2.9v-13.6
		C412.1,800.9,410.8,799.6,409.2,799.6z"/>
	
		<linearGradient id="SVGID_13_" gradientUnits="userSpaceOnUse" x1="873.6483" y1="216.2595" x2="363.9572" y2="869.5892" gradientTransform="matrix(1 0 0 -1 0 820)">
		<stop  offset="0" style="stop-color:#C4A36C"/>
		<stop  offset="0.492" style="stop-color:#F4DA9D"/>
		<stop  offset="1" style="stop-color:#B39865"/>
	</linearGradient>
	<path class="st13" d="M409.1,16.8l0.1,0.7v-0.7c1.6,0,2.8-1.2,2.9-2.8c0.1-3.2,0.1-8.1,0-11.2c0-1.6-1.3-2.8-2.9-2.8
		c0,0-0.1,0-0.1,0c-0.8,0-1.5,0.4-2,0.9c-0.5,0.6-0.8,1.3-0.8,2.1c0.1,2.9,0.1,7.7,0,10.7C406.2,15.4,407.5,16.7,409.1,16.8z"/>
	
		<linearGradient id="SVGID_14_" gradientUnits="userSpaceOnUse" x1="540.2206" y1="-43.8622" x2="30.5309" y2="609.4678" gradientTransform="matrix(1 0 0 -1 0 820)">
		<stop  offset="0" style="stop-color:#C4A36C"/>
		<stop  offset="0.492" style="stop-color:#F4DA9D"/>
		<stop  offset="1" style="stop-color:#B39865"/>
	</linearGradient>
	<path class="st14" d="M493.4,795.7c-0.3-1.4-1.5-2.3-2.8-2.3c-0.2,0-0.4,0-0.6,0.1c-0.8,0.2-1.4,0.6-1.8,1.2
		c-0.4,0.6-0.6,1.4-0.4,2.2l2.2,10.9c0.3,1.5,1.8,2.6,3.4,2.2c0.8-0.2,1.4-0.6,1.8-1.3c0.4-0.6,0.6-1.4,0.4-2.2L493.4,795.7z"/>
	
		<linearGradient id="SVGID_15_" gradientUnits="userSpaceOnUse" x1="624.6207" y1="21.9812" x2="114.9277" y2="675.3123" gradientTransform="matrix(1 0 0 -1 0 820)">
		<stop  offset="0" style="stop-color:#C4A36C"/>
		<stop  offset="0.492" style="stop-color:#F4DA9D"/>
		<stop  offset="1" style="stop-color:#B39865"/>
	</linearGradient>
	<path class="st15" d="M596.8,757.7c-0.5-1.1-1-2.1-2.2-4.4c-0.4-0.7-1-1.2-1.7-1.4c-0.3-0.1-0.6-0.1-0.9-0.1
		c-0.5,0-0.9,0.1-1.3,0.3c-1.4,0.7-2,2.5-1.2,3.9c1.2,2.3,1.7,3.4,2.2,4.5c0.5,1.1,1,2.1,2.2,4.4c0.7,1.4,2.5,2,3.9,1.2
		c1.4-0.7,2-2.5,1.2-3.9C597.8,759.9,597.3,758.8,596.8,757.7z"/>
	
		<linearGradient id="SVGID_16_" gradientUnits="userSpaceOnUse" x1="708.9884" y1="87.8003" x2="199.2964" y2="741.1323" gradientTransform="matrix(1 0 0 -1 0 820)">
		<stop  offset="0" style="stop-color:#C4A36C"/>
		<stop  offset="0.492" style="stop-color:#F4DA9D"/>
		<stop  offset="1" style="stop-color:#B39865"/>
	</linearGradient>
	<path class="st16" d="M682.5,693.6c-0.8-0.9-1.6-1.7-3.4-3.6c-0.6-0.6-1.3-0.9-2-0.9h0c-0.8,0-1.5,0.3-2,0.8
		c-0.5,0.5-0.9,1.3-0.9,2c0,0.8,0.3,1.5,0.8,2.1c1.8,1.9,2.6,2.7,3.4,3.6c0.8,0.9,1.6,1.7,3.4,3.6c0.8,0.8,1.9,1.1,2.9,0.7
		c0.5-0.1,0.8-0.4,1.2-0.7c1.1-1.1,1.1-3,0-4.1C684.1,695.3,683.3,694.5,682.5,693.6z"/>
	
		<linearGradient id="SVGID_17_" gradientUnits="userSpaceOnUse" x1="796.1443" y1="155.7953" x2="286.4524" y2="809.1265" gradientTransform="matrix(1 0 0 -1 0 820)">
		<stop  offset="0" style="stop-color:#C4A36C"/>
		<stop  offset="0.492" style="stop-color:#F4DA9D"/>
		<stop  offset="1" style="stop-color:#B39865"/>
	</linearGradient>
	<path class="st17" d="M758.2,607.9l-9-4.9c-0.5-0.3-1-0.4-1.5-0.4c-1,0-2,0.5-2.5,1.4c-0.8,1.4-0.3,3.2,1.1,4l9,4.9
		c1.4,0.8,3.2,0.3,4-1.1C760.1,610.5,759.6,608.7,758.2,607.9z"/>
	
		<linearGradient id="SVGID_18_" gradientUnits="userSpaceOnUse" x1="873.6472" y1="216.2584" x2="363.9572" y2="869.5892" gradientTransform="matrix(1 0 0 -1 0 820)">
		<stop  offset="0" style="stop-color:#C4A36C"/>
		<stop  offset="0.492" style="stop-color:#F4DA9D"/>
		<stop  offset="1" style="stop-color:#B39865"/>
	</linearGradient>
	<path class="st18" d="M803.5,505l-9.8-2.5c-0.2-0.1-0.5-0.1-0.7-0.1c-1.3,0-2.5,0.9-2.8,2.2c-0.4,1.6,0.6,3.1,2.1,3.5l9.8,2.5
		c0.2,0.1,0.5,0.1,0.7,0.1c1.3,0,2.5-0.9,2.8-2.2C806,507,805,505.4,803.5,505z"/>
	
		<linearGradient id="SVGID_19_" gradientUnits="userSpaceOnUse" x1="681.8095" y1="66.5965" x2="172.1185" y2="719.9275" gradientTransform="matrix(1 0 0 -1 0 820)">
		<stop  offset="0" style="stop-color:#C4A36C"/>
		<stop  offset="0.492" style="stop-color:#F4DA9D"/>
		<stop  offset="1" style="stop-color:#B39865"/>
	</linearGradient>
	<path class="st19" d="M789.1,399.5c0.8,0,1.5-0.4,2-1c0.5-0.6,0.8-1.3,0.7-2.1c-0.1-0.8-0.4-1.5-1-2c-0.5-0.4-1.1-0.7-1.8-0.7
		c-0.1,0-0.2,0-0.3,0c-26.3,1.8-54.2,3.2-86.9,4.4v-15c8.5-1,17-2,25.5-3.1l1.1-0.1c13.3-1.6,27.1-3.3,40.7-4.9
		c1.6-0.2,2.7-1.6,2.5-3.2c-0.1-0.8-0.5-1.5-1.1-2c-0.5-0.4-1.1-0.6-1.8-0.6c-0.1,0-0.2,0-0.3,0c-14,1.6-28.4,3.4-41.1,4.9
		c-8.5,1-17,2.1-25.5,3.1v-14.6c6.7-1.2,13.7-2.5,20.7-3.8c1.6-0.3,2.6-1.8,2.4-3.4c-0.3-1.4-1.4-2.4-2.8-2.4c-0.2,0-0.3,0-0.5,0
		c-6.6,1.2-13.2,2.4-19.6,3.6v-14.4l1.3-0.4c20-5.3,40.8-10.9,61.4-15.4c1.6-0.3,2.6-1.9,2.2-3.5c-0.2-0.8-0.6-1.4-1.3-1.8
		c-0.5-0.3-1-0.5-1.6-0.5c-0.2,0-0.4,0-0.6,0.1c-20.7,4.5-41.4,10-61.5,15.4v-17c23.3-7.8,46.5-15.9,69.1-24.2
		c0.7-0.3,1.3-0.8,1.6-1.5c0.3-0.7,0.4-1.5,0.1-2.2c-0.3-0.7-0.8-1.3-1.5-1.6c-0.4-0.2-0.8-0.3-1.2-0.3c-0.3,0-0.7,0.1-1,0.2
		c-22,8-44.5,15.9-67.1,23.5v-17.9c15.7-6.3,31.4-12.5,47.1-18.8c1.5-0.6,2.2-2.3,1.6-3.8c-0.3-0.7-0.8-1.3-1.6-1.6
		c-0.4-0.2-0.7-0.2-1.1-0.2c-0.4,0-0.7,0.1-1.1,0.2c-15,6-29.9,12-44.9,18v-18.3c6.1-3,12.1-5.9,18.2-8.9c0.7-0.3,1.2-0.9,1.5-1.7
		c0.3-0.7,0.2-1.5-0.1-2.2c-0.5-1-1.5-1.6-2.6-1.6c-0.4,0-0.9,0.1-1.3,0.3c-5.2,2.5-10.4,5.1-15.7,7.6v-21.5
		c13.5-7.9,25.5-14.7,36.7-20.8c0.7-0.4,1.2-1,1.4-1.7c0.2-0.7,0.1-1.5-0.2-2.2c-0.5-1-1.5-1.5-2.6-1.5c-0.5,0-0.9,0.1-1.4,0.3
		c-10.5,5.7-21.6,11.9-34,19.1v-3.4l-12.2-7.1c4-2.6,8-5.1,11.9-7.6c1.4-0.8,1.8-2.6,0.9-4c-0.5-0.9-1.5-1.4-2.5-1.4
		c-0.5,0-1.1,0.1-1.5,0.4c-4.8,3-9.5,6.1-14.4,9.2l-17.8-10.4c13.5-10.7,27.4-21.7,41.5-32.2c1.3-1,1.5-2.8,0.6-4.1
		c-0.5-0.6-1.1-1-1.9-1.1c-0.1,0-0.3,0-0.4,0c-0.6,0-1.2,0.2-1.7,0.6c-14.7,11-29.3,22.5-43.4,33.7l-15.8-9.2
		c17.1-15.1,32.7-29,48.2-42.9c0.6-0.5,0.9-1.2,1-2c0-0.8-0.2-1.5-0.7-2.1c-0.6-0.6-1.4-1-2.2-1c-0.7,0-1.4,0.2-1.9,0.7
		c-16.5,14.7-33.3,29.6-49.6,44.1l-11.8-6.9c12.2-12.4,25.8-26.6,39-41.7c0.5-0.6,0.8-1.3,0.7-2.1c-0.1-0.8-0.4-1.5-1-2
		c-0.5-0.5-1.2-0.7-1.9-0.7c-0.1,0-0.1,0-0.2,0c-0.8,0-1.5,0.4-2,1c-13.5,15.5-27.4,29.9-39.8,42.5l-15.4-9
		c6.4-7.5,12.5-14.5,18.3-21.2c1.1-1.2,0.9-3-0.3-4.1c-0.5-0.5-1.2-0.7-1.9-0.7c-0.8,0-1.6,0.3-2.2,1c-6,6.9-12.4,14.2-19,22
		l-14.5-8.5c14.3-19.5,27.7-37.5,40.6-54.7c1-1.3,0.7-3.1-0.6-4.1c-0.5-0.4-1.1-0.6-1.7-0.6c-0.9,0-1.8,0.4-2.3,1.2
		c-13,17.3-26.5,35.5-41,55.2l-11.2-6.6c14.3-23.2,27.7-45.1,40.5-66.6c0.4-0.7,0.5-1.4,0.3-2.2c-0.2-0.8-0.7-1.4-1.3-1.8
		c-0.5-0.3-1-0.4-1.5-0.4c-0.2,0-0.5,0-0.7,0.1c-0.8,0.2-1.4,0.7-1.8,1.3c-13,21.5-26.3,43.4-40.6,66.6l-15.8-9.2
		c11.8-22,22.3-41.8,32-60c0.7-1.4,0.2-3.2-1.2-3.9c-0.4-0.2-0.9-0.3-1.4-0.3c-1.1,0-2.1,0.6-2.6,1.5c-9.4,17.9-20,37.6-31.8,59.8
		l-11.5-6.7c4.1-9.2,7.9-17.8,11.4-25.9c0.3-0.7,0.3-1.5,0-2.2c-0.3-0.7-0.8-1.3-1.6-1.6c-0.4-0.2-0.8-0.2-1.1-0.2
		c-0.4,0-0.7,0.1-1.1,0.2c-0.7,0.3-1.3,0.8-1.6,1.6c-3.4,7.8-7,16.2-11.1,25.2l-14.6-8.5c0.5-1.6,1.1-3.3,1.7-4.9
		c6.2-18.1,12.5-36.8,19.7-54.8c0.3-0.7,0.3-1.5,0-2.2c-0.3-0.7-0.9-1.3-1.6-1.5c-0.3-0.1-0.7-0.2-1.1-0.2c-0.4,0-0.8,0.1-1.1,0.2
		c-0.7,0.3-1.3,0.9-1.6,1.6c-7.2,18.1-13.6,36.9-19.8,55c-0.4,1.3-0.9,2.5-1.3,3.8l-12.4-7.2c6.5-22.8,13.1-46.3,19.7-69.9
		c0.2-0.7,0.1-1.5-0.3-2.2s-1-1.2-1.7-1.4c-0.3-0.1-0.5-0.1-0.8-0.1c-1.3,0-2.5,0.8-2.8,2.1c-6.4,22.8-12.8,45.8-19.3,68.5
		l-15.5-9.1c0.6-2.7,1.3-5.3,1.9-8l0.5-2c3.6-14.9,7.3-30.3,10.5-45.5c0.2-0.8,0-1.5-0.4-2.2c-0.4-0.6-1.1-1.1-1.8-1.3
		c-0.2,0-0.4-0.1-0.6-0.1c-0.5,0-1.1,0.2-1.6,0.5c-0.6,0.4-1.1,1.1-1.3,1.8c-3.2,15.2-6.9,30.5-10.5,45.4l0,0.3
		c-0.6,2.7-1.3,5.4-1.9,8.1L457,89.5c1.1-7.3,2.1-14.6,3.2-21.9c0.1-0.8-0.1-1.5-0.5-2.2c-0.5-0.6-1.1-1-1.9-1.1c-0.1,0-0.3,0-0.4,0
		c-1.4,0-2.7,1-2.9,2.5c-1,6.5-1.9,13-2.8,19.5l-14.2-8.3c1.1-16.4,2.3-32.9,3.4-49.4c0.1-1.6-1.1-3-2.7-3.1c-0.1,0-0.1,0-0.2,0
		c-1.5,0-2.8,1.2-2.9,2.7c-1.1,15.5-2.1,31-3.2,46.5l-19.7-11.6l0-29.9c0-1.6-1.3-2.9-2.9-2.9c-0.8,0-1.5,0.3-2.1,0.8
		c-0.6,0.6-0.8,1.3-0.8,2.1l0,28.6l-20.7,11.8c-1.1-15.2-2.1-30.3-3.1-45.5c-0.1-1.5-1.4-2.7-2.9-2.7c-0.1,0-0.1,0-0.2,0
		c-0.8,0-1.5,0.4-2,1c-0.5,0.6-0.8,1.3-0.7,2.1c1.1,16.1,2.2,32.2,3.3,48.2l-14.3,8.1c-0.9-6.1-1.8-12.2-2.7-18.3
		c-0.1-0.8-0.5-1.4-1.1-1.9c-0.5-0.4-1.1-0.6-1.7-0.6c-0.1,0-0.3,0-0.4,0c-0.8,0.1-1.4,0.5-1.9,1.1c-0.5,0.6-0.7,1.4-0.5,2.2
		c1,6.8,2,13.7,3,20.5l-15.1,8.6c-3.7-17.6-7.5-35.2-11.2-52.7c-0.2-0.8-0.6-1.4-1.3-1.8c-0.5-0.3-1-0.5-1.6-0.5
		c-0.2,0-0.4,0-0.6,0.1c-0.8,0.2-1.4,0.6-1.8,1.3c-0.4,0.6-0.6,1.4-0.4,2.2c3.9,18.2,7.7,36.4,11.6,54.6l-14.7,8.4
		C319,86.4,312.7,64,306.5,41.4c-0.4-1.3-1.5-2.1-2.8-2.1c-0.3,0-0.5,0-0.8,0.1c-1.5,0.4-2.5,2-2,3.6c6.4,23.1,12.9,46,19.2,68.2
		l-12.5,7.1c-0.9-2.3-1.8-4.6-2.6-6.9c-6.2-16.3-12.6-33-17.7-49.8c-0.4-1.3-1.5-2.1-2.8-2.1c-0.3,0-0.6,0-0.8,0.1
		c-1.5,0.5-2.4,2.1-1.9,3.6c5.1,17,11.6,33.8,17.8,50.1c1,2.7,2,5.3,3,7.9l-14.8,8.5c-3.6-8.1-7-15.8-10.2-23.3
		c-0.5-1.1-1.5-1.8-2.7-1.8c-0.4,0-0.8,0.1-1.1,0.2c-0.7,0.3-1.3,0.9-1.6,1.6c-0.3,0.7-0.3,1.5,0,2.2c3.2,7.5,6.7,15.4,10.5,23.9
		l-11.7,6.7C259.4,118,249.3,99,240,81.5c-0.5-1-1.5-1.5-2.6-1.5c-0.5,0-0.9,0.1-1.4,0.3c-1.4,0.8-2,2.5-1.2,3.9
		c9.4,17.7,19.5,36.7,30.8,57.9l-16.1,9.1c-13.9-22.5-26.7-43.6-39.2-64.4c-0.4-0.7-1-1.1-1.8-1.3c-0.2-0.1-0.5-0.1-0.7-0.1
		c-0.5,0-1,0.1-1.5,0.4c-1.4,0.8-1.8,2.6-1,4c12.5,20.7,25.3,41.8,39.1,64.3l-11.5,6.6c-13.9-18.9-26.7-36.2-39.3-53
		c-0.6-0.8-1.4-1.2-2.3-1.2c-0.6,0-1.2,0.2-1.7,0.6c-0.6,0.5-1,1.1-1.1,1.9c-0.1,0.8,0.1,1.5,0.5,2.2c12.5,16.7,25.2,33.8,38.9,52.4
		l-14.9,8.5c0,0,0-0.1-0.1-0.2c-6-7-11.5-13.4-16.9-19.5c-0.5-0.6-1.2-0.9-2-1c-0.1,0-0.1,0-0.2,0c-0.7,0-1.4,0.3-1.9,0.7
		c-1.2,1.1-1.3,2.9-0.3,4.1c5.4,6.1,10.7,12.3,16.2,18.8l-15.7,9c0,0-0.1-0.1-0.1-0.2c-15.4-15.6-26.8-28-37.3-39.9
		c-0.6-0.7-1.4-1-2.2-1c-0.7,0-1.4,0.2-1.9,0.7c-1.2,1.1-1.3,2.9-0.3,4.1c10.3,11.9,21.7,24,36.6,39.2l-12.1,6.9
		c-15.6-13.9-31.3-27.7-46.9-41.6c-0.6-0.5-1.2-0.7-1.9-0.7c-0.8,0-1.6,0.3-2.2,1c-1.1,1.2-1,3,0.2,4.1
		c15.1,13.5,30.2,26.9,45.4,40.4l-16.4,9.4c-0.1-0.1-0.2-0.3-0.3-0.3c-14.8-11.4-27.8-21.5-39.5-30.9c-0.5-0.4-1.2-0.6-1.8-0.6
		c-0.8,0-1.7,0.4-2.3,1.1c-1,1.2-0.8,3.1,0.5,4.1c11.5,9.2,24,19,38.1,29.8l-16.2,9.2c-8-5.7-14.4-10.1-20.7-13.9
		c-0.5-0.3-1-0.4-1.5-0.4c-0.2,0-0.4,0-0.7,0.1c-0.8,0.2-1.4,0.6-1.8,1.3c-0.4,0.7-0.5,1.4-0.4,2.2c0.2,0.8,0.6,1.4,1.3,1.8
		c5.6,3.5,11.4,7.4,18.2,12.2l-17.2,9.8c-8.1-4.5-16.9-9.3-27.1-14.7c-0.4-0.2-0.9-0.3-1.4-0.3c-1,0-2,0.6-2.6,1.5
		c-0.8,1.4-0.2,3.2,1.2,3.9c5.6,3,12.6,6.8,19.2,10.4c3.1,1.7,6.2,3.3,9,4.9v22.7c-6-3-12-6.1-18-9c-0.4-0.2-0.8-0.3-1.3-0.3
		c-1.1,0-2.1,0.6-2.6,1.6c-0.7,1.4-0.1,3.2,1.3,3.9c6.7,3.3,13.6,6.8,20.5,10.3v19.2c-12.1-4.9-24.2-9.7-36.3-14.6
		c-0.3-0.1-0.7-0.2-1.1-0.2c-0.4,0-0.8,0.1-1.1,0.2c-0.7,0.3-1.3,0.9-1.6,1.6c-0.6,1.5,0.1,3.2,1.6,3.8
		c12.8,5.2,25.7,10.3,38.5,15.5v17.4c-18.9-6.3-38.6-12.9-58.7-19.7c-0.3-0.1-0.6-0.2-0.9-0.2c-0.4,0-0.9,0.1-1.3,0.3
		c-0.7,0.3-1.2,0.9-1.5,1.7c-0.3,0.7-0.2,1.5,0.1,2.2c0.3,0.7,0.9,1.2,1.7,1.5c20.5,6.9,40.6,13.7,60,20.1c0.2,0.1,0.4,0,0.6,0.1
		V333c-18.6-4.4-36-8.4-52.9-12.2c-0.2,0-0.4-0.1-0.6-0.1c-0.6,0-1.1,0.2-1.6,0.5c-0.6,0.4-1.1,1.1-1.3,1.8
		c-0.3,1.6,0.6,3.1,2.2,3.5c17.3,3.8,35,7.9,54,12.4c0.1,0,0.1,0,0.2,0v17c-0.2,0-0.3-0.1-0.5-0.2c-6.7-1-15.5-2.4-24.2-3.9
		c-0.2,0-0.3,0-0.5,0c-0.6,0-1.2,0.2-1.7,0.5c-0.6,0.4-1.1,1.1-1.2,1.9c-0.3,1.6,0.8,3.1,2.4,3.4c8.5,1.5,17.1,2.8,24.4,3.9
		c0.5,0.1,0.9,0,1.3-0.2v14.4c-0.1,0-0.2-0.1-0.3-0.1c-20.6-2.2-39.5-4.4-57.8-6.5c-0.1,0-0.2,0-0.3,0c-1.4,0-2.7,1.1-2.9,2.6
		c-0.2,1.6,1,3,2.6,3.2c18.5,2.1,37.4,4.2,57.9,6.5c0.3,0,0.6,0,0.9-0.1v16.1c-28-1.1-53.7-2.3-78.4-3.8c-0.1,0-0.2,0-0.2,0
		c-0.7,0-1.3,0.2-1.8,0.7c-0.6,0.5-1,1.3-1,2.1c0,0.8,0.2,1.5,0.7,2.1c0.5,0.6,1.2,0.9,2,1c24.9,1.5,50.7,2.7,78.7,3.8v15.1
		c-16.6,0.8-33,1.6-48.9,2.4c-0.8,0-1.5,0.4-2,1c-0.5,0.6-0.8,1.3-0.7,2.1c0.1,1.5,1.4,2.8,2.9,2.8h0.2c15.7-0.8,32.1-1.6,48.6-2.4
		v13.6c-7.9,0.5-16.1,1.2-24.3,2c-0.8,0.1-1.5,0.5-2,1.1c-0.5,0.6-0.7,1.4-0.6,2.1c0.2,1.6,1.6,2.8,3.2,2.6c8.1-0.8,16.1-1.4,23.7-2
		v16.3c-20.2,3.5-38.8,6.7-56.6,9.5c-1.6,0.3-2.7,1.7-2.4,3.3c0.3,1.6,1.7,2.7,3.3,2.4c17.5-2.8,35.8-5.9,55.7-9.4v15.8
		c-23,5.8-46.1,11.6-69.2,17.3c-0.8,0.2-1.4,0.7-1.8,1.3c-0.4,0.7-0.5,1.4-0.3,2.2c0.3,1.3,1.5,2.2,2.8,2.2c0.3,0,0.5,0,0.7-0.1
		c22.6-5.6,45.2-11.3,67.8-17v16.7l-1.3,0.4c-15.2,4.9-30.9,9.9-46.3,15c-0.7,0.3-1.3,0.8-1.7,1.5c-0.3,0.7-0.4,1.5-0.2,2.2
		c0.5,1.5,2.2,2.3,3.7,1.8c15.6-5.2,31.6-10.3,45.7-14.9v15.8c-5.9,2.1-11.9,4.3-17.9,6.7c-0.7,0.3-1.3,0.8-1.6,1.5
		c-0.3,0.7-0.3,1.5,0,2.2c0.6,1.4,2.3,2.2,3.8,1.6c5.3-2.1,10.5-4,15.8-5.9v21.6c-10.3,5-20.5,10-30.8,15c-0.7,0.3-1.2,0.9-1.5,1.7
		c-0.3,0.7-0.2,1.5,0.1,2.2c0.7,1.4,2.5,2,3.9,1.3c9.4-4.6,18.8-9.2,28.2-13.7v15.3l3.9,2.2c-9.7,5.7-19.5,11.4-29.2,17.1
		c-0.7,0.4-1.1,1-1.3,1.8c-0.2,0.8-0.1,1.5,0.3,2.2c0.8,1.3,2.7,1.8,4,1c10.7-6.3,21.4-12.5,32.1-18.8l19.7,11.3
		c-11.6,7.8-22.9,15.3-33.9,22.6c-0.6,0.4-1.1,1.1-1.2,1.8c-0.2,0.8,0,1.5,0.4,2.2c0.8,1.3,2.7,1.7,4,0.8
		c11.7-7.7,23.7-15.7,36.4-24.3l13.8,7.9c-5,4.4-10.1,8.8-15.2,13.1c-1.2,1-1.4,2.9-0.4,4.1c1,1.2,2.9,1.4,4.1,0.4
		c5.7-4.7,11.5-9.8,16.6-14.3c0.1,0,0.1-0.1,0.2-0.2l14.7,8.4l-39.9,36.7c-0.6,0.5-0.9,1.2-0.9,2c0,0.8,0.2,1.5,0.8,2.1
		c1.1,1.1,3,1.2,4.1,0.2l41.2-38l15.3,8.7c-1.1,1.2-2.2,2.4-3.3,3.5c-14.3,15.4-29,31.2-44.1,46.5c-1.1,1.1-1.1,3,0,4.1
		c1.1,1.1,3,1.1,4.1,0c15-15.2,29.8-31.1,44.1-46.5l1.6-1.8c0.9-0.9,1.8-1.9,2.6-2.8l12.3,7c-1.7,1.8-3.3,3.6-5,5.5l-1.3,1.5
		c-11,12.1-22.4,24.6-33.2,37.4c-0.5,0.6-0.7,1.4-0.7,2.1c0.1,0.8,0.4,1.5,1,2c1.2,1,3.1,0.8,4.1-0.3c10.6-12.6,21.9-25,32.9-37
		l0.2-0.2c2.4-2.6,4.8-5.3,7.2-7.9l14.8,8.4c-4.8,6-10.1,12.5-15,19c-1,1.3-0.7,3.1,0.6,4.1c1.3,0.9,3.1,0.7,4.1-0.6
		c5-6.7,10.3-13.2,15.5-19.6l12.2,6.9c-9.5,15.6-19,31.2-28.5,46.7l-5,8.2c-0.8,1.4-0.4,3.2,1,4c1.3,0.8,3.2,0.4,4-1l5-8.2
		c9.5-15.6,19-31.2,28.5-46.9l10.3,5.9c-8.1,15.8-16.1,31.6-23.9,47l-0.7,1.4c-4.1,8.1-8.1,16.2-12.2,24.2c-0.3,0.7-0.4,1.5-0.2,2.2
		c0.3,0.7,0.8,1.3,1.4,1.7c1.4,0.7,3.2,0.1,3.9-1.3c3.9-7.6,7.7-15.3,11.6-23l1.4-2.8c7.7-15.3,15.7-31.1,23.7-46.6l14.7,8.4
		c-2,4.5-4,9-6,13.5l-0.5,1.2c-6.9,15.5-13.9,31.4-21,47.1c-0.7,1.5,0,3.2,1.4,3.8c1.5,0.7,3.2,0,3.8-1.4
		c7.3-16.2,14.6-32.6,21.6-48.4l1.4-3.2c1.4-3.3,2.9-6.5,4.3-9.7l12.6,7.2l-6.4,17.5c-0.5,1.5,0.2,3.2,1.7,3.7
		c1.5,0.6,3.2-0.3,3.7-1.7l6.1-16.6l10.6,6.1c-6.1,21.5-12,42.7-17.5,62.5c-0.2,0.7-0.1,1.5,0.3,2.2c0.4,0.7,1,1.2,1.7,1.4
		c1.5,0.4,3.2-0.5,3.6-2c5.4-19.4,11.2-40.1,17.1-61.1l15.9,9.1c-0.2,0.3-0.4,0.7-0.5,1.1c-1.2,6.3-2.3,12.6-3.5,18.9
		c-3.1,16.9-6.3,34.3-9.8,51.3c-0.2,0.8,0,1.5,0.4,2.2c0.4,0.6,1.1,1.1,1.8,1.2c1.5,0.3,3.1-0.7,3.4-2.2c3.6-17.2,6.7-34.6,9.8-51.4
		l0.4-2.3c1-5.3,2-10.6,2.9-15.9l16.2,9.2c-0.3,2.2-0.8,4.9-1.3,7.5c-0.4,2.4-0.8,4.7-1,5.9c-0.2,1.6,0.9,3.1,2.5,3.2
		c1.7,0.2,3.1-0.9,3.3-2.5c0.2-1.2,0.6-3.5,1-6.1c0.3-1.6,0.6-3.3,0.8-4.9l15.7,9c-1,12.9-1.9,25.8-3,38.7c-0.1,1.6,1.1,3,2.7,3.1
		h0.2c1.5,0,2.8-1.2,2.9-2.7c0.9-12,1.9-24,2.8-36l16.8,9.6c0,0.7,0,1.4,0,2c0.2,13,0.5,26.4,0.5,39.7c0,1.6,1.3,2.9,2.9,2.9
		c1.6,0,2.9-1.3,2.9-2.9c0-13-0.2-26.2-0.5-39l0-0.8c0-0.9,0-1.7,0-2.6l14.6-8.5l0,0.1c2,11.7,4.2,23.7,5.1,35.5
		c0.1,1.5,1.4,2.7,2.9,2.7h0.2c1.6-0.1,2.8-1.5,2.7-3.1c-1-12.2-3.1-24.3-5.2-36c-0.1-0.8-0.3-1.5-0.4-2.2l18.2-10.7
		c0.7,4,1.5,8,2,12.2c0.2,1.6,1.6,2.8,3.2,2.5c0.8-0.1,1.5-0.5,1.9-1.1c0.5-0.6,0.7-1.4,0.6-2.1c-0.7-5.1-1.5-10-2.4-14.6l14.4-8.4
		l3,14c3.8,17.4,8.1,37.1,12,56.2c0.3,1.3,1.5,2.3,2.8,2.3c0.2,0,0.4,0,0.6-0.1c0.8-0.2,1.4-0.6,1.8-1.2c0.4-0.6,0.6-1.4,0.4-2.2
		c-3.9-18.7-8-37.7-12-56l0-0.2c-1.1-5.3-2.3-10.5-3.4-15.8l16.4-9.6l0.4,1.4c6,20,12.2,40.6,17.9,61c0.4,1.5,2.1,2.5,3.6,2
		c1.5-0.4,2.5-2,2-3.6c-5.8-20.8-12.2-42.3-18-61.3l-0.8-2.6l10.9-6.4c2.4,6,4.8,12.1,7,18.2c0.5,1.5,2.2,2.3,3.7,1.7
		c0.7-0.3,1.3-0.8,1.6-1.5c0.3-0.7,0.4-1.5,0.1-2.2c-2.4-6.4-4.9-13-7.4-19.1l12.3-7.2c3.9,8.6,7.8,17.3,11.7,25.9
		c5.6,12.4,11.2,24.7,16.8,37.1c0.6,1.4,2.4,2.1,3.8,1.4c1.5-0.7,2.1-2.4,1.4-3.8c-4.6-10.1-9.2-20.2-13.7-30.3l-4.8-10.5
		c-3.4-7.6-6.9-15.2-10.3-22.7l13.2-7.7c1.8,3.3,3.6,6.5,5.3,9.8l0.1,0.2c11.4,20.7,23.1,42.2,33.9,63.6c0.7,1.4,2.5,2,3.9,1.3
		c1.4-0.7,2-2.5,1.3-3.9c-10.9-21.5-22.7-43-34-63.8l-0.8-1.5c-1.6-2.9-3.1-5.7-4.7-8.6l10.7-6.3c2.9,4.5,5.8,9.1,8.7,13.6
		c9,14.1,18.3,28.5,27.1,43c0.8,1.3,2.7,1.8,4,1c1.4-0.8,1.8-2.6,1-4c-8.9-14.6-18.2-29.1-27.2-43.1c-2.9-4.5-5.7-8.9-8.6-13.4
		l13.9-8.1c5.1,7.2,10.6,15,16.2,22.4c0.9,1.2,2.8,1.5,4.1,0.6c1.3-1,1.5-2.8,0.6-4.1c-5.4-7.2-10.6-14.6-15.8-21.8l15-8.8
		c7.8,9.2,15.5,18.4,23.3,27.5l17.5,20.7c1,1.2,2.9,1.3,4.1,0.3c1.2-1,1.4-2.9,0.3-4.1c-5.8-6.9-11.7-13.8-17.5-20.7l-1.2-1.4
		c-7.1-8.5-14.3-16.9-21.5-25.4l10.1-5.9c16.8,17.7,33.9,35.7,51.3,53.2c1.1,1.1,3,1.1,4.1,0c1.1-1.1,1.1-3,0-4.1
		c-17-17.1-33.8-34.8-50.2-52.1l15.1-8.8c7.2,6.6,14.4,13.1,21.4,19.4c7.6,6.8,15.3,13.8,22.9,20.8c1.1,1.1,3.1,1,4.1-0.2
		c0.5-0.6,0.8-1.3,0.8-2.1c0-0.8-0.4-1.5-0.9-2c-7.6-7-15.4-14-22.9-20.8l-0.5-0.5c-6.4-5.8-13-11.8-19.5-17.7l15.5-9.1
		c3.8,3.1,7.6,6.2,11.4,9.4c1.2,1,3.1,0.8,4.1-0.4c1-1.2,0.9-3.1-0.4-4.1c-3.2-2.7-6.5-5.4-9.7-8l12.2-7.1c6.6,4.3,13.1,8.7,19.7,13
		l1.2,0.8c6.4,4.2,12.9,8.5,19.3,12.7c1.3,0.8,3.2,0.5,4-0.8c0.9-1.3,0.5-3.1-0.8-4c-5.2-3.4-10.4-6.9-15.7-10.3l-5.5-3.6
		c-5.6-3.7-11.1-7.3-16.7-11l19.4-11.4c12.1,7.1,24.2,14.1,36.3,21.2c1.3,0.8,3.2,0.3,4-1c0.8-1.4,0.3-3.2-1-4
		c-11.3-6.6-22.6-13.2-33.8-19.8v-18.9c12.2,6,24.5,11.9,36.8,17.9c1.4,0.7,3.2,0.1,3.9-1.3c0.7-1.4,0.1-3.2-1.3-3.9
		c-13.1-6.4-26.2-12.8-39.3-19.1v-19.8c5,1.9,10,3.8,15,5.8c1.4,0.6,3.2-0.2,3.8-1.6c0.3-0.7,0.3-1.5,0-2.2
		c-0.3-0.7-0.9-1.3-1.6-1.5c-5.7-2.2-11.4-4.4-17.1-6.6v-16l46.8,15.6c1.5,0.5,3.2-0.4,3.7-1.8c0.3-0.7,0.2-1.5-0.2-2.2
		c-0.3-0.7-0.9-1.2-1.7-1.5l-48.6-16.2v-16.1c9.4,2.3,18.8,4.7,28.3,7c16,3.9,32,7.9,48,11.9c1.6,0.4,3.1-0.6,3.5-2.1
		c0.2-0.8,0.1-1.5-0.3-2.2c-0.4-0.7-1-1.1-1.8-1.3c-14.9-3.7-29.9-7.4-44.8-11.1l-3.2-0.8c-9.9-2.4-19.8-4.9-29.7-7.3v-14
		c19,3.1,39.7,6.1,64.3,9.5c1.6,0.2,3.1-0.9,3.3-2.5c0.2-1.6-0.9-3-2.5-3.3c-24.8-3.4-45.8-6.5-65-9.6v-15.5
		c6.1,0.5,12.2,1,18.3,1.6c1.7,0.2,3-1,3.2-2.6c0.2-1.6-1-3-2.6-3.2c-6.3-0.6-12.6-1.1-18.8-1.6v-14.4c18.7,0.7,38,1.4,57.1,2.4h0.2
		c1.5,0,2.8-1.2,2.9-2.8c0-0.8-0.2-1.5-0.7-2.1c-0.5-0.6-1.2-0.9-2-1c-19.3-1-38.6-1.7-57.4-2.4v-14.5
		C734.7,402.7,762.6,401.3,789.1,399.5z M683.9,565.5L408,726.8L125.1,565.4V242.9L408,81.5l275.9,161.3V565.5z"/>
	
		<linearGradient id="SVGID_20_" gradientUnits="userSpaceOnUse" x1="934.4243" y1="263.6718" x2="424.7343" y2="917.0033" gradientTransform="matrix(1 0 0 -1 0 820)">
		<stop  offset="0" style="stop-color:#C4A36C"/>
		<stop  offset="0.492" style="stop-color:#F4DA9D"/>
		<stop  offset="1" style="stop-color:#B39865"/>
	</linearGradient>
	<path class="st20" d="M816.6,393.1c-0.5-0.5-1.2-0.7-1.9-0.7c-0.1,0-0.1,0-0.2,0c-3.7,0.2-7.5,0.4-11.2,0.6c-0.8,0-1.5,0.4-2,1
		c-0.5,0.6-0.8,1.3-0.7,2.1c0.1,1.5,1.4,2.8,2.9,2.8h0.2l11.2-0.6c1.6-0.1,2.8-1.4,2.8-3C817.5,394.4,817.1,393.7,816.6,393.1z"/>
	
		<linearGradient id="SVGID_21_" gradientUnits="userSpaceOnUse" x1="975.7538" y1="295.9144" x2="466.0627" y2="949.2465" gradientTransform="matrix(1 0 0 -1 0 820)">
		<stop  offset="0" style="stop-color:#C4A36C"/>
		<stop  offset="0.492" style="stop-color:#F4DA9D"/>
		<stop  offset="1" style="stop-color:#B39865"/>
	</linearGradient>
	<path class="st21" d="M785.4,290.2l10.5-3.6c0.7-0.3,1.3-0.8,1.7-1.5c0.3-0.7,0.4-1.5,0.1-2.2c-0.4-1.2-1.5-2-2.8-2
		c-0.3,0-0.6,0-0.9,0.2l-10.5,3.6c-0.7,0.3-1.3,0.8-1.7,1.5c-0.3,0.7-0.4,1.5-0.1,2.2C782.3,289.9,783.9,290.7,785.4,290.2z"/>
	
		<linearGradient id="SVGID_22_" gradientUnits="userSpaceOnUse" x1="991.9955" y1="308.5851" x2="482.3046" y2="961.9161" gradientTransform="matrix(1 0 0 -1 0 820)">
		<stop  offset="0" style="stop-color:#C4A36C"/>
		<stop  offset="0.492" style="stop-color:#F4DA9D"/>
		<stop  offset="1" style="stop-color:#B39865"/>
	</linearGradient>
	<path class="st22" d="M752.9,214c3.2-1.8,6.2-3.6,9-5.3c1.4-0.8,1.8-2.6,1-4c-0.5-0.9-1.5-1.4-2.5-1.4c-0.5,0-1,0.1-1.5,0.4
		c-2.8,1.7-5.8,3.5-8.9,5.2c-1.4,0.8-1.9,2.6-1.1,4C749.7,214.3,751.6,214.8,752.9,214z"/>
	
		<linearGradient id="SVGID_23_" gradientUnits="userSpaceOnUse" x1="994.3951" y1="310.4579" x2="484.705" y2="963.7899" gradientTransform="matrix(1 0 0 -1 0 820)">
		<stop  offset="0" style="stop-color:#C4A36C"/>
		<stop  offset="0.492" style="stop-color:#F4DA9D"/>
		<stop  offset="1" style="stop-color:#B39865"/>
	</linearGradient>
	<path class="st23" d="M704.9,146.2c2.5-2.2,5-4.4,7.5-6.6c0.6-0.5,0.9-1.2,1-2c0-0.8-0.2-1.5-0.7-2.1s-1.2-0.9-2-1
		c-0.1,0-0.1,0-0.2,0c-0.7,0-1.4,0.3-1.9,0.7c-2.5,2.2-5,4.4-7.5,6.6c-0.6,0.5-0.9,1.2-1,2c0,0.8,0.2,1.5,0.7,2.1
		C701.8,147.1,703.7,147.3,704.9,146.2z"/>
	
		<linearGradient id="SVGID_24_" gradientUnits="userSpaceOnUse" x1="975.2576" y1="295.5289" x2="465.5667" y2="948.8599" gradientTransform="matrix(1 0 0 -1 0 820)">
		<stop  offset="0" style="stop-color:#C4A36C"/>
		<stop  offset="0.492" style="stop-color:#F4DA9D"/>
		<stop  offset="1" style="stop-color:#B39865"/>
	</linearGradient>
	<path class="st24" d="M616.1,77.6c1.4,0.8,3.2,0.3,4-1l6.2-10.4c0.8-1.4,0.4-3.2-1-4c-0.5-0.3-1-0.4-1.5-0.4c-1,0-2,0.5-2.5,1.4
		c-2.1,3.5-4.1,6.9-6.2,10.4C614.2,75,614.7,76.8,616.1,77.6z"/>
	
		<linearGradient id="SVGID_25_" gradientUnits="userSpaceOnUse" x1="934.9793" y1="264.1064" x2="425.2893" y2="917.4373" gradientTransform="matrix(1 0 0 -1 0 820)">
		<stop  offset="0" style="stop-color:#C4A36C"/>
		<stop  offset="0.492" style="stop-color:#F4DA9D"/>
		<stop  offset="1" style="stop-color:#B39865"/>
	</linearGradient>
	<path class="st25" d="M517.3,30c1.5,0.4,3.2-0.5,3.6-2l2.4-8.6c0.4-1.5-0.5-3.1-2-3.6c-0.3-0.1-0.5-0.1-0.8-0.1
		c-1.3,0-2.5,0.8-2.8,2.1l-2.4,8.5c-0.2,0.8-0.1,1.5,0.3,2.2C515.9,29.4,516.5,29.8,517.3,30z"/>
	
		<linearGradient id="SVGID_26_" gradientUnits="userSpaceOnUse" x1="677.6874" y1="63.3819" x2="167.9965" y2="716.7129" gradientTransform="matrix(1 0 0 -1 0 820)">
		<stop  offset="0" style="stop-color:#C4A36C"/>
		<stop  offset="0.492" style="stop-color:#F4DA9D"/>
		<stop  offset="1" style="stop-color:#B39865"/>
	</linearGradient>
	<path class="st26" d="M406.3,98l-268.7,153v306.1L405,709.5l1.3,0.8l261.5-153.1V251.1L407.7,98.8L406.3,98z M662.5,554.1
		l-256.2,150L143,554.1V254.2l263.3-150l256.2,150V554.1z"/>
	
		<linearGradient id="SVGID_27_" gradientUnits="userSpaceOnUse" x1="407.9" y1="318.186" x2="407.9" y2="169.611" gradientTransform="matrix(1 0 0 -1 0 820)">
		<stop  offset="0" style="stop-color:#F3D99C"/>
		<stop  offset="1" style="stop-color:#C1A671"/>
	</linearGradient>
	<path class="st27" d="M382.1,626.7v23.7h-17.9c1.9-1.4,4.1-10.9,4.5-13.9c0.2-0.6,1.9-0.8,1.9-0.8c1.4-2.2,4.3-12.7,4.3-21.3v-35.3
		l-2.7-2.3v-11.8l-1.5-0.4v-3.7h1.7v1.7h1.1v-1.7h3v1.7h1.1v-1.7h3v1.7h1.1v-1.7h1.7v3.7l-1.5,0.4v9v5.7v8.7l1.5-16.6
		c-0.3-0.1-0.5-0.3-0.5-0.6c0-0.4,0.4-0.7,1-0.7c0.5,0,1,0.3,1,0.7c0,0.3-0.2,0.5-0.5,0.6l1.2,12.1h-2.3v1.1
		c0,4.5-1.3,14.4-3.3,16.7l-1.5,1.8h3.7v18.1c0-0.1,0-0.2,0-0.2s-0.8,2.2-2.2,3.7l-1.6,1.8L382.1,626.7L382.1,626.7z M395.5,602.3
		h0.8h1.2h1.2c-2.4-2.7-3.5-13.4-3.5-17.4h-1.5c0,4.5,0.7,14.7,1.7,17L395.5,602.3z M395.6,626.7h-11.7h-0.7v23.7h1.5V629
		c0-0.7,0.5-1.3,1.2-1.3c0.7,0,1.2,0.6,1.2,1.3v21.4h1.5V629c0-0.7,0.5-1.3,1.2-1.3c0.7,0,1.2,0.6,1.2,1.3v21.4h1.5V629
		c0-0.7,0.5-1.3,1.2-1.3c0.7,0,1.2,0.6,1.2,1.3v21.4h1.5v-23.7H395.6z M383.2,603.4v17.2h13.1v-17.2H396h-12.3H383.2z M384.1,602.3
		l0.2-0.4c1-2.3,1.7-12.5,1.7-17h-1.5c0,4-1.2,14.7-3.5,17.4h1.2h1.2H384.1z M394.2,602.3c-1.2-2.7-1.8-13.4-1.8-17.4h-5.4
		c0,4-0.6,14.7-1.8,17.4H394.2z M396.8,591.6c0-0.3-0.1-0.6-0.1-0.8C396.7,591,396.7,591.3,396.8,591.6z M396.4,587.9
		c0-0.2,0-0.5,0-0.7C396.3,587.4,396.4,587.7,396.4,587.9z M396.3,585.7c0,0.2,0,0.4,0,0.7C396.3,586.1,396.3,585.9,396.3,585.7z
		 M396.3,586.4c0,0.2,0,0.4,0,0.7C396.3,586.8,396.3,586.6,396.3,586.4z M396.3,584.9c0,0.2,0,0.4,0,0.6
		C396.3,585.3,396.3,585.1,396.3,584.9z M396.4,588c0,0.2,0,0.5,0.1,0.7C396.4,588.5,396.4,588.2,396.4,588z M380.9,625.6h3.5
		l0.2-0.4c0.5-1.3,0.9-3.1,1-3.6h-2.3C383.2,621.6,382.4,624,380.9,625.6z M396.7,590.6c0-0.3,0-0.5-0.1-0.8
		C396.6,590,396.6,590.3,396.7,590.6z M396.5,588.9c0,0.3,0,0.5,0.1,0.8C396.5,589.4,396.5,589.2,396.5,588.9z M393.6,583.9h-7.3
		v-25.1c-0.7,0-1.2-0.5-1.2-1.2c0-0.7,0.5-1.2,1.2-1.2v-5.6c-0.2-0.8-0.4-2.7-2.2-4.8c-0.9-0.1-1.5-0.5-1.5-1.2
		c0-0.4,0.3-0.7,0.7-0.9l0-8.1c-0.5-0.2-0.7-0.5-0.7-0.9c0-0.7,0.8-1.2,1.8-1.2h0.1l0-4.6h0v-0.4c-0.3-0.1-0.5-0.2-0.5-0.3
		c0-0.2,0.2-0.3,0.5-0.3v-0.3c-0.1-0.1-0.2-0.2-0.2-0.3c0-0.2,0.2-0.4,0.5-0.4c0.3,0,0.5,0.2,0.5,0.4c0,0.1-0.1,0.2-0.2,0.3v0.3
		c0.3,0,0.5,0.2,0.5,0.3c0,0.2-0.2,0.3-0.5,0.4v0.4h1.6l3.5-17.5c0-0.5,0-1.1,0-1.7c-0.6-0.1-1-0.3-1-0.7c0-0.3,0.5-0.6,1.1-0.7
		c0-0.2,0-0.3,0-0.5c-0.6,0-1.1-0.2-1.1-0.3c0-0.2,0.5-0.3,1.1-0.3c0-0.5,0-1,0-1.5c-0.2,0-0.4-0.2-0.4-0.3c0-0.2,0.2-0.3,0.4-0.3
		c0.1-3.9,0.2-3.3,0.2-3.3s0.1-0.7,0.2,3.3c0.2,0,0.4,0.2,0.4,0.3c0,0.2-0.2,0.3-0.4,0.3c0,0.5,0,1,0,1.5c0.6,0,1.1,0.2,1.1,0.3
		c0,0.2-0.5,0.3-1.1,0.3c0,0.2,0,0.3,0,0.5c0.6,0.1,1.1,0.3,1.1,0.7c0,0.3-0.4,0.6-1,0.7c0,0.7,0,1.2,0,1.7l3.5,17.5h1.6v-0.4
		c-0.3-0.1-0.5-0.2-0.5-0.4c0-0.2,0.2-0.3,0.5-0.3v-0.3c-0.1-0.1-0.2-0.2-0.2-0.3c0-0.2,0.2-0.4,0.5-0.4c0.2,0,0.5,0.2,0.5,0.4
		c0,0.1-0.1,0.2-0.2,0.3v0.3c0.3,0.1,0.5,0.2,0.5,0.3c0,0.2-0.2,0.3-0.5,0.3v0.4h0l0,4.6h0.1c1,0,1.8,0.5,1.8,1.2
		c0,0.4-0.3,0.7-0.7,0.9l0,8.1c0.5,0.2,0.7,0.5,0.7,0.9c0,0.6-0.7,1.1-1.5,1.2c-1.7,2.2-2,4-2.2,4.8v5.6c0.7,0,1.2,0.5,1.2,1.2
		c0,0.7-0.5,1.2-1.2,1.2v25.1H393.6z M390.4,544.6c3,0,5.4-2.3,5.4-5.1c0-2.8-2.4-5.1-5.4-5c-3,0-5.4,2.3-5.4,5.1
		C385,542.3,387.4,544.6,390.4,544.6z M430.6,602.3c-1.2-2.7-1.8-13.4-1.8-17.4h-5.4c0,4-0.6,14.7-1.8,17.4H430.6z M431.8,602.3h0.8
		h1.2h1.2c-2.4-2.7-3.5-13.4-3.5-17.4h-1.5c0,4.5,0.7,14.7,1.7,17L431.8,602.3z M423,621.6c0,0-0.4,2.3-1.1,4h8.3
		c-0.7-1.7-1.1-4-1.1-4H423z M420.4,602.3l0.2-0.4c1-2.3,1.7-12.5,1.7-17h-1.5c0,4-1.2,14.7-3.5,17.4h1.2h1.2H420.4z M417.2,625.6
		h3.5l0.2-0.4c0.5-1.3,0.9-3.1,1-3.6h-2.3C419.6,621.6,418.7,624,417.2,625.6z M432.6,621.6h-2.3c0.1,0.5,0.5,2.3,1,3.6l0.2,0.4h3.5
		C433.5,624,432.6,621.6,432.6,621.6z M419.6,603.4v17.2h13.1v-17.2h-0.3H420H419.6z M431.9,626.7h-11.7h-0.7v23.7h1.5V629
		c0-0.7,0.5-1.3,1.2-1.3c0.7,0,1.2,0.6,1.2,1.3v21.4h1.5V629c0-0.7,0.5-1.3,1.2-1.3c0.7,0,1.2,0.6,1.2,1.3v21.4h1.5V629
		c0-0.7,0.5-1.3,1.2-1.3c0.7,0,1.2,0.6,1.2,1.3v21.4h1.5v-23.7H431.9z M386.7,621.6c0,0-0.4,2.3-1.1,4h8.3c-0.7-1.7-1.1-4-1.1-4
		H386.7z M418.4,626.7v23.7h-2.7c-0.8-17.8-3.1-29.4-7.8-29.4c-4.7,0-7,11.6-7.8,29.4h-2.7v-23.7h3.7l-1.6-1.8
		c-1.4-1.5-2.2-3.6-2.2-3.7c0,0,0,0.1,0,0.2v-18.1h3.7l-1.5-1.8c-1.3-1.4-2.2-5.8-2.8-10h0.9l1.7-27.3l-3.2-0.8v-4.2h2.9l4.5-25.9
		c-0.5-0.2-0.9-0.6-0.9-1.1c0-0.7,0.8-1.2,1.7-1.2c1,0,1.7,0.5,1.7,1.2c0,0.5-0.3,0.9-0.9,1.1l4.5,25.9h2.9v4.2l-3.2,0.8l0.9,14.5
		l1.9-5.9H425l2.8,8.4l0.4-13.2l-2.5-1.2v-6.2h2.3l3.4-23c-0.4-0.2-0.7-0.5-0.7-0.8c0-0.5,0.6-1,1.4-1s1.4,0.4,1.4,1
		c0,0.3-0.3,0.7-0.7,0.8l3.4,23h2.3v6.2l-2.5,1.2l0.8,26.3l2.2-14.8c-0.3-0.1-0.4-0.3-0.4-0.5c0-0.3,0.4-0.7,0.9-0.7
		s0.9,0.3,0.9,0.7c0,0.2-0.2,0.4-0.4,0.5l2.3,15.3h1.5v4.1l-3,3.9v11.5c0,8.6,3,19.2,4.3,21.3c0,0,1.7,0.2,1.9,0.8
		c0.5,3,2.7,12.5,4.5,13.9h-17.8v-23.7h3.7l-1.6-1.8c-1.4-1.5-2.2-3.6-2.2-3.7c0,0,0,0.1,0.1,0.2v-18.1h3.7l-1.6-1.8
		c-2-2.3-3.3-12.3-3.3-16.7v-1.1h-2.7h-7.6h-2.7v1.1c0,4.5-1.3,14.4-3.3,16.7l-1.6,1.8h3.7v18.1c0-0.1,0-0.2,0.1-0.2
		c0,0-0.8,2.2-2.2,3.7l-1.6,1.8H418.4L418.4,626.7z M431.2,572.4h2.4V569c0-0.3-0.6-0.8-1.2-0.8c-0.6,0-1.2,0.5-1.2,0.8V572.4z
		 M431,579.6h2.8v-3.9c0-0.3-0.7-0.9-1.4-0.9s-1.4,0.5-1.4,0.9V579.6z M403.1,579.2h2.6v-7.1c0-0.6-0.6-1.6-1.3-1.6
		c-0.7,0-1.3,1-1.3,1.6L403.1,579.2L403.1,579.2z M417.9,620c-2.9-4.2-5.1-7.1-5.1-14.3c0,0,0,0,0,0V605c0.3-0.1,0.4-0.3,0.4-0.6
		c0-0.4-0.3-0.7-0.8-0.7c-0.4,0-0.8,0.3-0.8,0.7c0,0.3,0.2,0.5,0.5,0.6v1.4c-1.3,1-2.4,1.7-4.2,1.7c-1.8,0-2.9-0.6-4.2-1.7V605
		c0.3-0.1,0.5-0.3,0.5-0.6c0-0.4-0.3-0.7-0.8-0.7c-0.4,0-0.8,0.3-0.8,0.7c0,0.3,0.2,0.5,0.5,0.6v0.8c0,0,0,0,0,0
		c0,7.3-2.2,10.2-5.1,14.3H417.9z M396.3,621.6H394c0.1,0.5,0.5,2.3,1,3.6l0.2,0.4h3.5C397.2,624,396.3,621.6,396.3,621.6z
		 M392.2,535.8C392.1,535.8,392.1,535.8,392.2,535.8c-0.2,0-0.4,0-0.5,0.2c-0.1,0.1-0.2,0.3-0.1,0.4c0,0.2,0.2,0.2,0.4,0.2
		c0.1,0,0.2-0.1,0.2-0.2c0,0,0,0,0-0.1c0,0,0,0-0.1,0c0,0,0,0,0,0c0,0,0,0,0-0.1c0,0,0.1-0.1,0.1-0.1c0.1,0,0.2,0.1,0.2,0.2
		c0,0.1,0,0.3-0.2,0.3c-0.2,0.1-0.4,0-0.6-0.1c-0.2-0.1-0.6-0.5-1-1.7c0-0.1-0.1-0.1-0.2,0c-0.4,1.2-0.8,1.6-1,1.7
		c-0.2,0.2-0.4,0.2-0.6,0.1c-0.2-0.1-0.2-0.3-0.2-0.3c0-0.1,0.1-0.2,0.2-0.2c0,0,0.1,0,0.1,0.1c0,0,0,0,0,0.1c0,0,0,0-0.1,0
		s-0.1,0-0.1,0c0,0,0,0,0,0.1c0,0.1,0.1,0.2,0.2,0.2c0.2,0,0.3-0.1,0.4-0.2c0-0.1,0-0.3-0.1-0.4c-0.1-0.1-0.2-0.2-0.4-0.2
		c0,0-0.1,0-0.1,0c-0.2,0-0.3,0.2-0.4,0.3c-0.1,0.2,0,0.6,0.4,0.8c0.1,0,0.3,0.1,0.5,0.1c0.2,0,0.7,0,1.2-0.3v2.4
		c-0.2,0.1-0.3,0.2-0.3,0.4c0,0.2,0.2,0.4,0.5,0.4c0.2,0,0.5-0.2,0.5-0.4c0-0.2-0.1-0.3-0.3-0.4v-2.4c0.5,0.3,1,0.3,1.2,0.3
		s0.4,0,0.5-0.1c0.4-0.2,0.5-0.5,0.4-0.8C392.5,536,392.3,535.9,392.2,535.8z"/>
	
		<linearGradient id="SVGID_28_" gradientUnits="userSpaceOnUse" x1="186.5695" y1="356.369" x2="186.5695" y2="333.844" gradientTransform="matrix(1 0 0 -1 0 820)">
		<stop  offset="0" style="stop-color:#F3D99C"/>
		<stop  offset="1" style="stop-color:#C1A671"/>
	</linearGradient>
	<path class="st28" d="M191.3,482.6c-0.9,0.5-2,0.8-3.2,0.8c-1.2,0-2.4-0.2-3.4-0.7c-1-0.5-1.8-1-2.5-1.8c-0.7-0.8-1.2-1.7-1.6-2.7
		c-0.3-1-0.5-2.1-0.5-3.2c0-1.2,0.2-2.4,0.6-3.4c0.4-1,0.9-2,1.6-2.8c0.7-0.8,1.5-1.4,2.5-1.9c1-0.5,2.1-0.7,3.3-0.7
		c1,0,1.9,0.2,2.9,0.6c0.9,0.4,1.7,1,2.3,1.8l2.4-1.9c-0.8-1.1-2-2-3.4-2.5c-1.3-0.5-2.7-0.8-4.2-0.8c-1.7,0-3.2,0.3-4.6,0.8
		c-1.4,0.6-2.5,1.4-3.5,2.4c-1,1-1.7,2.2-2.3,3.6c-0.5,1.4-0.8,2.9-0.8,4.6c0,1.4,0.3,2.7,0.8,4c0.5,1.3,1.2,2.5,2.2,3.5
		c1,1,2.1,1.9,3.5,2.5c1.3,0.7,2.9,1,4.6,1c1.2,0,2.3-0.2,3.2-0.5c0.9-0.3,1.7-0.7,2.4-1.1c0.7-0.4,1.2-0.8,1.6-1.2
		c0.4-0.4,0.7-0.7,0.8-1l-2.5-1.9C193,481.4,192.2,482.1,191.3,482.6z"/>
	
		<linearGradient id="SVGID_29_" gradientUnits="userSpaceOnUse" x1="239.7145" y1="356.407" x2="239.7145" y2="333.882" gradientTransform="matrix(1 0 0 -1 0 820)">
		<stop  offset="0" style="stop-color:#F3D99C"/>
		<stop  offset="1" style="stop-color:#C1A671"/>
	</linearGradient>
	<path class="st29" d="M247.7,466.8c-1-1-2.2-1.8-3.5-2.4c-1.4-0.6-2.9-0.8-4.5-0.8c-1.6,0-3.1,0.3-4.5,0.8
		c-1.4,0.6-2.5,1.4-3.5,2.4c-1,1-1.7,2.2-2.3,3.6c-0.5,1.4-0.8,2.9-0.8,4.4s0.3,3.1,0.8,4.4c0.5,1.4,1.3,2.5,2.3,3.6
		c1,1,2.2,1.8,3.5,2.4c1.4,0.6,2.9,0.8,4.5,0.8c1.6,0,3.1-0.3,4.5-0.8c1.4-0.6,2.5-1.4,3.5-2.4c1-1,1.7-2.2,2.3-3.6
		c0.5-1.4,0.8-2.9,0.8-4.4s-0.3-3.1-0.8-4.4C249.5,469,248.7,467.9,247.7,466.8z M247.2,478.2c-0.4,1-0.9,1.9-1.6,2.7
		c-0.7,0.8-1.5,1.4-2.5,1.8c-1,0.5-2.1,0.7-3.3,0.7c-1.2,0-2.4-0.2-3.3-0.7c-1-0.5-1.9-1.1-2.5-1.8c-0.7-0.8-1.2-1.7-1.6-2.7
		c-0.4-1-0.6-2.2-0.6-3.3s0.2-2.3,0.6-3.3c0.4-1,0.9-1.9,1.6-2.7s1.5-1.4,2.5-1.8c1-0.5,2.1-0.7,3.3-0.7c1.2,0,2.4,0.2,3.3,0.7
		c1,0.5,1.9,1.1,2.5,1.8c0.7,0.8,1.2,1.7,1.6,2.7c0.4,1,0.6,2.2,0.6,3.3C247.8,476.1,247.6,477.1,247.2,478.2z"/>
	
		<linearGradient id="SVGID_30_" gradientUnits="userSpaceOnUse" x1="291.653" y1="355.829" x2="291.653" y2="334.423" gradientTransform="matrix(1 0 0 -1 0 820)">
		<stop  offset="0" style="stop-color:#F3D99C"/>
		<stop  offset="1" style="stop-color:#C1A671"/>
	</linearGradient>
	<path class="st30" d="M288.2,464.2h-2.9v21.4H298v-2.7h-9.8V464.2z"/>
	
		<linearGradient id="SVGID_31_" gradientUnits="userSpaceOnUse" x1="337.61" y1="355.829" x2="337.61" y2="334.423" gradientTransform="matrix(1 0 0 -1 0 820)">
		<stop  offset="0" style="stop-color:#F3D99C"/>
		<stop  offset="1" style="stop-color:#C1A671"/>
	</linearGradient>
	<path class="st31" d="M334.1,464.2h-2.9v21.4H344v-2.7h-9.8V464.2z"/>
	
		<linearGradient id="SVGID_32_" gradientUnits="userSpaceOnUse" x1="384.379" y1="355.829" x2="384.379" y2="334.423" gradientTransform="matrix(1 0 0 -1 0 820)">
		<stop  offset="0" style="stop-color:#F3D99C"/>
		<stop  offset="1" style="stop-color:#C1A671"/>
	</linearGradient>
	<path class="st32" d="M380.1,476h10.1v-2.7h-10.1v-6.4H391v-2.7h-13.8v21.4h14.4v-2.7h-11.5V476z"/>
	
		<linearGradient id="SVGID_33_" gradientUnits="userSpaceOnUse" x1="434.2255" y1="356.369" x2="434.2255" y2="333.844" gradientTransform="matrix(1 0 0 -1 0 820)">
		<stop  offset="0" style="stop-color:#F3D99C"/>
		<stop  offset="1" style="stop-color:#C1A671"/>
	</linearGradient>
	<path class="st33" d="M438.9,482.6c-0.9,0.5-2,0.8-3.2,0.8c-1.2,0-2.4-0.2-3.4-0.7c-1-0.5-1.8-1-2.5-1.8c-0.7-0.8-1.2-1.7-1.6-2.7
		c-0.3-1-0.5-2.1-0.5-3.2c0-1.2,0.2-2.4,0.6-3.4c0.4-1,0.9-2,1.6-2.8c0.7-0.8,1.5-1.4,2.5-1.9c1-0.5,2.1-0.7,3.3-0.7
		c1,0,1.9,0.2,2.9,0.6c0.9,0.4,1.7,1,2.3,1.8l2.4-1.9c-0.8-1.1-2-2-3.4-2.5c-1.4-0.5-2.7-0.8-4.2-0.8c-1.7,0-3.2,0.3-4.6,0.8
		c-1.4,0.6-2.5,1.4-3.5,2.4c-1,1-1.7,2.2-2.3,3.6c-0.5,1.4-0.8,2.9-0.8,4.6c0,1.4,0.3,2.7,0.8,4c0.5,1.3,1.2,2.5,2.2,3.5
		c1,1,2.1,1.9,3.5,2.5c1.3,0.7,2.9,1,4.6,1c1.2,0,2.3-0.2,3.2-0.5c0.9-0.3,1.7-0.7,2.4-1.1c0.7-0.4,1.2-0.8,1.6-1.2
		c0.4-0.4,0.7-0.7,0.8-1l-2.5-1.9C440.6,481.4,439.9,482.1,438.9,482.6z"/>
	
		<linearGradient id="SVGID_34_" gradientUnits="userSpaceOnUse" x1="483.4225" y1="355.829" x2="483.4225" y2="334.423" gradientTransform="matrix(1 0 0 -1 0 820)">
		<stop  offset="0" style="stop-color:#F3D99C"/>
		<stop  offset="1" style="stop-color:#C1A671"/>
	</linearGradient>
	<path class="st34" d="M475.1,466.9h6.9v18.7h2.9v-18.7h6.9v-2.7h-16.7V466.9z"/>
	
		<linearGradient id="SVGID_35_" gradientUnits="userSpaceOnUse" x1="528.128" y1="355.829" x2="528.128" y2="334.423" gradientTransform="matrix(1 0 0 -1 0 820)">
		<stop  offset="0" style="stop-color:#F3D99C"/>
		<stop  offset="1" style="stop-color:#C1A671"/>
	</linearGradient>
	<path class="st35" d="M529.6,464.2h-2.9v21.4h2.9V464.2z"/>
	
		<linearGradient id="SVGID_36_" gradientUnits="userSpaceOnUse" x1="576.9355" y1="356.407" x2="576.9355" y2="333.882" gradientTransform="matrix(1 0 0 -1 0 820)">
		<stop  offset="0" style="stop-color:#F3D99C"/>
		<stop  offset="1" style="stop-color:#C1A671"/>
	</linearGradient>
	<path class="st36" d="M568.9,482.9c1,1,2.2,1.8,3.5,2.4c1.4,0.6,2.9,0.8,4.5,0.8s3.1-0.3,4.5-0.8c1.4-0.6,2.5-1.4,3.5-2.4
		c1-1,1.7-2.2,2.3-3.6c0.5-1.4,0.8-2.9,0.8-4.4s-0.3-3.1-0.8-4.4c-0.5-1.4-1.3-2.5-2.3-3.6c-1-1-2.2-1.8-3.5-2.4
		c-1.4-0.6-2.9-0.8-4.5-0.8s-3.1,0.3-4.5,0.8c-1.4,0.6-2.5,1.4-3.5,2.4c-1,1-1.7,2.2-2.3,3.6c-0.5,1.4-0.8,2.9-0.8,4.4
		s0.3,3.1,0.8,4.4C567.2,480.7,567.9,481.9,568.9,482.9z M569.5,471.5c0.4-1,0.9-1.9,1.6-2.7c0.7-0.8,1.5-1.4,2.5-1.8
		c1-0.5,2.1-0.7,3.3-0.7c1.2,0,2.4,0.2,3.3,0.7c1,0.5,1.9,1.1,2.5,1.8c0.7,0.8,1.2,1.7,1.6,2.7c0.4,1,0.6,2.2,0.6,3.3
		s-0.2,2.3-0.6,3.3c-0.4,1-0.9,1.9-1.6,2.7c-0.7,0.8-1.5,1.4-2.5,1.8c-1,0.5-2.1,0.7-3.3,0.7c-1.2,0-2.4-0.2-3.3-0.7
		c-1-0.5-1.9-1.1-2.5-1.8c-0.7-0.8-1.2-1.7-1.6-2.7c-0.4-1-0.6-2.2-0.6-3.3S569.1,472.6,569.5,471.5z"/>
	
		<linearGradient id="SVGID_37_" gradientUnits="userSpaceOnUse" x1="628.489" y1="355.829" x2="628.489" y2="334.423" gradientTransform="matrix(1 0 0 -1 0 820)">
		<stop  offset="0" style="stop-color:#F3D99C"/>
		<stop  offset="1" style="stop-color:#C1A671"/>
	</linearGradient>
	<path class="st37" d="M634.9,481.8L634.9,481.8L623,464.2h-3.8v21.4h2.9V468h0.1l11.9,17.6h3.7v-21.4h-2.9V481.8z"/>
	
		<linearGradient id="SVGID_38_" gradientUnits="userSpaceOnUse" x1="503.8829" y1="554.219" x2="503.8829" y2="486.2332" gradientTransform="matrix(1 0 0 -1 0 820)">
		<stop  offset="0" style="stop-color:#F3D99C"/>
		<stop  offset="1" style="stop-color:#C1A671"/>
	</linearGradient>
	<path class="st38" d="M489.8,288.8c-0.1,3.4,0.8,6,1.9,8c-5.1,10.2-7.9,19.3-8.1,25.5c0,0.9,0,1.7,0.1,2.5c0.4,4.6,3.7,8.1,5.7,8.8
		c2,0.9,2.4-1.5,2.4-1.5c1.9-11.8,4.9-21.6,8.2-29.2c0.1,0,0.2,0.1,0.3,0.1c0.6,0.2,1.2,0.3,1.8,0.3c0.2,0,0.4,0,0.6,0
		c0.4,0,0.8,0,1.2,0c0.2,0,0.5,0,0.7,0c0.3,0,0.7,0,1-0.1c0.2,0,0.5-0.1,0.7-0.1c0.3-0.1,0.7-0.2,1-0.2c0.2-0.1,0.5-0.1,0.7-0.2
		c0.3-0.1,0.6-0.2,0.9-0.3c0.2-0.1,0.5-0.2,0.7-0.3c0.3-0.1,0.6-0.3,0.8-0.4c0.2-0.1,0.4-0.2,0.7-0.3c0.3-0.2,0.5-0.3,0.8-0.5
		c0.2-0.1,0.4-0.2,0.6-0.4c0.3-0.2,0.5-0.3,0.8-0.5c0.2-0.2,0.4-0.3,0.6-0.4c0.3-0.2,0.5-0.4,0.8-0.6c0.2-0.2,0.3-0.3,0.5-0.4
		c0.2-0.2,0.5-0.4,0.7-0.7c0.2-0.2,0.3-0.3,0.5-0.4c0.3-0.3,0.5-0.5,0.7-0.8c0.3-0.3,0.5-0.5,0.8-0.8c0.2-0.2,0.3-0.4,0.5-0.6
		c0.2-0.2,0.3-0.4,0.5-0.6c0.1-0.2,0.3-0.3,0.4-0.5c0.2-0.2,0.3-0.4,0.5-0.6c0.1-0.2,0.2-0.3,0.3-0.4c0.2-0.2,0.3-0.4,0.4-0.6
		c0.1-0.1,0.1-0.2,0.2-0.3c0.3-0.5,0.6-0.9,0.8-1.3c1.8-3,2.8-7.2,2.8-11.1c0-3.9-1.1-7.4-3.4-9.1c-7.2-5.3-19.4,10.6-24.9,18.4
		c-0.1-0.5-0.1-1-0.1-1.6c0.1-3.7,2.3-7.6,2.3-7.6s4.6-7.5,5.3-9.1c0.4-1,0.7-2.6,0.7-3.7c0-0.7-0.1-1.2-0.4-1.4
		c-0.7-0.3-1.9,0.7-1.9,0.7c-10.2,8.6-11.8,18.5-11.8,18.5C490,286.4,489.8,287.6,489.8,288.8z M516.2,278.5
		c3.2-3.4,3.5-0.2,3.5-0.2c0,0.6,0,1.1,0,1.7c-0.2,3.8-2.4,6.9-4.2,8.9c-0.7,0.8-1.4,1.4-1.9,1.9c-1.2,1.1-5.2,3.2-9.3,3.5
		C508.7,287,513.5,281.4,516.2,278.5z"/>
	
		<linearGradient id="SVGID_39_" gradientUnits="userSpaceOnUse" x1="408.7842" y1="555.6236" x2="408.7842" y2="519.757" gradientTransform="matrix(1 0 0 -1 0 820)">
		<stop  offset="0" style="stop-color:#F3D99C"/>
		<stop  offset="1" style="stop-color:#C1A671"/>
	</linearGradient>
	<path class="st39" d="M391.2,271.9c-0.7,2-0.9,3.4-0.9,4.5c0,1.8,0.5,2.5,0.5,2.5c1.4,2.7,11.7,2.9,14.5,3.1
		c2.9,0.2,10.3,1.3,12.8,2.9c1,0.6,1.3,1.3,1.4,1.9c0.1,1-0.6,1.7-0.6,1.7c-4.4,4.6-18.8,5.1-22.4,2.8c-0.7-0.4-1.2-0.9-1.2-1.5
		c-0.1-0.6,0.2-1.2,1-2c1.5-1.5,5.7,0.7,5.8,0.8c0,0,0,0,0,0c-0.1,0-0.1,0,0,0c0.2,0.1,2.8,1.7,6.4,1.9c4.1,0.2,7-1.2,7.2-2.7
		c0.2-1.3-3.4-2.8-3.4-2.8c-12-3.8-16.9-1-16.9-1c-2.9,1.7-3.7,3.8-3.6,5.6c0.1,2.3,1.6,4,1.6,4c10.4,11.7,27.2,4.9,29.2,3.2
		c1.9-1.5,2.8-3.3,3-8.1c0.2-4.6-1.8-6.8-1.8-6.8c-3.3-4.4-12.9-4.6-15.8-4.9c-2.7-0.1-8.2-1.1-9.5-1.4c-0.5-0.1-0.7-0.3-0.7-0.5
		c-0.1-0.4,0.3-0.8,0.3-0.8c1.2-1.7,25.8-2.7,25.8-2.7c2.5-0.2,2.9-1.8,3.4-2.8c0.2-0.5,0.2-0.9,0.2-1.2c0-0.3-0.1-0.5-0.1-0.5
		c-2.5-3-16.8-2.9-16.8-2.9C405.2,264.7,393.1,266.5,391.2,271.9z"/>
	
		<linearGradient id="SVGID_40_" gradientUnits="userSpaceOnUse" x1="442.5666" y1="559.5966" x2="442.5666" y2="519.2072" gradientTransform="matrix(1 0 0 -1 0 820)">
		<stop  offset="0" style="stop-color:#F3D99C"/>
		<stop  offset="1" style="stop-color:#C1A671"/>
	</linearGradient>
	<path class="st40" d="M428.1,299c1.1,1.8,3.3,2.4,5.2,1c2-1.4,1.9-11,2.3-15.8c0.4-4.9,0.9-4,0.9-4c0.4-0.1,2.5,4.4,2.5,4.4
		s5.5,12.1,9.2,14c3.7,1.9,6.8-0.9,7.9-3.5c0.8-1.7,1.9-5.7,2-11c0.1-3.2-0.2-6.7-1.2-10.5c-2.7-10-8.6-13.2-8.6-13.2
		s-1.5-0.8-2,0.8c-0.1,0.4-0.2,0.8-0.2,1.2c0,1.1,0.3,2,0.3,2c3.5,13.4,4.2,21.3,4.2,21.3s0,0.3,0,0.7c0,0.7-0.1,1.6-0.3,1.7
		c-0.3,0.2-0.7-0.1-0.7-0.1c-0.4,0-4.6-7.3-4.6-7.3l-0.8-1.4c-4.2-7.9-7.3-10.4-7.3-10.4c-0.7-0.7-2.3-2.4-4.6-0.1s-4.1,10-5,17.1
		c-0.3,2.7-0.4,5-0.4,6.8C427.1,295.9,427.4,297.9,428.1,299z"/>
	
		<linearGradient id="SVGID_41_" gradientUnits="userSpaceOnUse" x1="388.616" y1="587.3712" x2="388.616" y2="558.7438" gradientTransform="matrix(1 0 0 -1 0 820)">
		<stop  offset="0" style="stop-color:#F3D99C"/>
		<stop  offset="1" style="stop-color:#C1A671"/>
	</linearGradient>
	<path class="st41" d="M399.7,236.2c-1.2-3.8-8.3-3.5-8.3-3.5c-14.7,0.8-19.9,10.8-20.6,13.5c-0.2,0.6-0.3,1.2-0.3,1.9
		c-0.1,2,0.6,4.5,2.6,6.5c-0.3,0.8-0.5,1.5-0.5,2c0,0.9,0.3,1.4,0.5,1.7c0.2,0.8,1.4,3.1,2.9,3c1-0.1,1.7-0.8,3.1-3
		c2.9,1.3,6.3,2,11.4,0.4c7.9-2.4,15.8-10,16-16.1c0.3-6.2-6.6-6.4-6.6-6.4H399.7L399.7,236.2z M376.3,249.3
		c-0.3-0.3-0.4-0.8-0.4-1.3c0-0.8,0.4-2,1.4-3.4c2.1-3.1,5.1-4.6,8.6-4.7C381.3,242.9,378,246.8,376.3,249.3z M401.2,243
		c0,0.2,0,0.3,0,0.4c0,1-0.4,2-0.4,2c-4.3,8.2-13.5,8.3-18.7,7.2c3.5-5,10.8-10.8,15.5-11.5C400.3,240.8,401.1,241.9,401.2,243z"/>
	
		<linearGradient id="SVGID_42_" gradientUnits="userSpaceOnUse" x1="475.5209" y1="553.5177" x2="475.5209" y2="515.6973" gradientTransform="matrix(1 0 0 -1 0 820)">
		<stop  offset="0" style="stop-color:#F3D99C"/>
		<stop  offset="1" style="stop-color:#C1A671"/>
	</linearGradient>
	<path class="st42" d="M459.6,295.7c0,1.4,0.3,2.7,1,3.8c2.9,4.9,6.4,4.7,6.4,4.7c6.8,0.7,18-6.1,18.7-8.4c0.1-0.2,0.1-0.5,0.1-0.7
		c0-1.7-1.4-3.3-2.7-3.7c-1.4-0.3-12.6,1.4-13.9,1.8c-0.7,0.2-0.9-0.1-0.9-0.4c0-0.3,0.2-0.6,0.2-0.6s1.1-3.5,1.8-5.5
		c3.8-0.1,8.1-0.3,12.2-0.5c1.5-0.1,1.5-1.2,1.5-1.2s0.2-1.7,0.2-3.2c-0.1-1.7-1.4-1.5-1.4-1.5c-2.3-0.3-6.1-0.4-9.8-0.3
		c0-0.1,0.1-0.2,0.1-0.3c0.1-0.3,0.2-0.5,0.3-0.8c0.1-0.3,0.2-0.5,0.3-0.8c0.1-0.2,0.2-0.3,0.2-0.5c0.1-0.3,0.2-0.5,0.3-0.8
		c0-0.1,0.1-0.2,0.1-0.3c0.1-0.3,0.2-0.6,0.3-0.8c0,0,11.3-0.2,15.6-1.1c1.1-0.2,1.4-0.9,1.3-1.5c0-0.6-0.3-1.2-0.3-1.2
		c-2.5-5.4-5.6-5.2-5.6-5.2c-8.9-0.5-21.8,1.4-23.3,2.1c-0.7,0.3-1,0.7-0.9,1.3c0.1,0.6,0.5,1.4,1.4,2.5c0.8,1.1,2,1.7,3,2
		c0.4,0.1,1,0.3,1.8,0.4c0,0,0,0.1,0,0.1c0,0.1-0.1,0.2-0.2,0.3c0,0.1-0.1,0.1-0.1,0.2c0,0.1-0.1,0.2-0.2,0.3
		c-0.1,0.2-0.2,0.3-0.2,0.4c0,0-0.1,0.1-0.1,0.2c-0.5,0.8-0.9,1.9-1.5,3c-0.2,0.3-0.3,0.6-0.4,0.9c0,0-0.1,0-0.1,0
		c-2.2,0.2-3,0.8-3,0.8c-0.3,0.3-0.5,0.9-0.5,1.5c0,1,0.3,2.3,0.5,3c0.1,0.3,0.2,0.5,0.4,0.7c0,0,0,0.1-0.1,0.2
		C461.6,287.4,459.5,291.7,459.6,295.7z"/>
	
		<linearGradient id="SVGID_43_" gradientUnits="userSpaceOnUse" x1="323.8149" y1="596.8671" x2="323.8149" y2="512.1514" gradientTransform="matrix(1 0 0 -1 0 820)">
		<stop  offset="0" style="stop-color:#F3D99C"/>
		<stop  offset="1" style="stop-color:#C1A671"/>
	</linearGradient>
	<path class="st43" d="M375.2,278.3c0-0.5,0.1-1,0.1-1.5c0-8.2-6.1-25.9-35.5-41.7c0,0-33.4-18.4-61.5-9.5c0,0-1.8-0.1-3.4,2.2
		c-1.2,1.7-2.4,2.9-2.5,4.2c0,0.4,0,0.8,0.2,1.3c0.8,1.8,5.1,2.7,8.9,1.5c0,0,0.7-0.4,0.7-0.9c0-0.3-0.3-0.7-1.1-0.9
		c-2.1-0.8-3.3-1-3.3-1s-0.4-0.1-0.5-0.3c0-0.1,0.1-0.3,0.6-0.5c1.1-0.5,13.9-4.3,36.3,2.2c21.6,6.2,50.5,24.3,50.9,42.6
		c0,0.6,0,1.2,0,1.8c-1.4,18.9-31.1,18.9-31.1,18.9s-6.1,0.1-14.2-1.7c0-0.2,0-0.5,0-0.7V294c0-0.2,0-0.4,0-0.6v-0.3
		c0-0.2,0-0.4,0-0.7c0-0.1,0-0.2,0-0.4c0-0.3,0-0.7,0-1c0,0,0-0.1,0-0.1c0-0.4,0-0.8,0-1.2c0-0.2,0-0.5,0-0.7c0-0.2,0-0.3,0-0.5
		c0-0.3,0-0.6,0-0.9c0-0.1,0-0.3,0-0.4c0-0.3,0-0.7,0-1c0,0,0-0.1,0-0.1c0.1-3.4,0.2-7.1,0.3-10.6c0-0.1,0-0.1,0-0.2
		c0-0.3,0-0.5,0-0.8c0-0.3,0-0.7,0-1c0-0.1,0-0.2,0-0.3c0-0.5,0-1,0-1.4c11.5,0.3,22.9,2.7,23.7,5.5c0,0,0,0.1,0,0.2
		c0,0.4-0.2,1.4-2.2,2.3c-1.8,0.8-3.4,1.4-3.2,2c0.1,0.2,0.3,0.5,0.8,0.7c0,0,2.9,1.5,4.7,1.4c1.8-0.1,6.5-2.1,7.1-7.2
		c0-0.3,0-0.7,0-1c-0.1-4.8-5.8-9.1-14.2-10.9c-6.9-1.4-10.5-1.9-16.7-1.9c0-0.3,0-0.7,0-1.1c0-5.4-0.5-11.7-1.7-13.3
		c-1.4-2.2-3.1-5.2-4.6-2c-1.2,2.8-2.3,8.9-2.9,16.9c-9.5,1.3-20.1,5-23.5,8.8c-1.1,1.3-1.5,2.6-1.6,3.8c-0.2,2.5,1.5,4.3,1.7,4.5
		c0.2,0.4,6.9,10.6,21.7,17.9c0.2,2.7,0.7,5.6,1.7,7.3c2.2,3.5,6.5,1.2,7.1,0.7c0.4-0.4,0.8-1.5,1-4.2c6.6,2,18.8,4.1,31.9,0.5
		C371.3,297.5,374.4,285.5,375.2,278.3z M310.9,272.3c-0.1,1.2-0.2,2.5-0.3,3.8c0,0.3,0,0.5-0.1,0.8c-0.1,1.5-0.2,3.1-0.3,4.6
		c0,0.3,0,0.7,0,1.1c-0.1,1.2-0.1,2.4-0.2,3.6c0,0.4,0,0.9,0,1.3c0,1.5-0.1,3-0.1,4.5c-6.8-2.9-14-6.9-19.8-13.4
		c0,0-0.7-0.7-0.7-1.6c0-0.7,0.4-1.5,1.8-2.1c2.9-1.2,9.1-2.7,19.7-3.2C311,272,311,272.2,310.9,272.3z"/>
	
		<linearGradient id="SVGID_44_" gradientUnits="userSpaceOnUse" x1="382.635" y1="555.6435" x2="382.635" y2="519.4896" gradientTransform="matrix(1 0 0 -1 0 820)">
		<stop  offset="0" style="stop-color:#F3D99C"/>
		<stop  offset="1" style="stop-color:#C1A671"/>
	</linearGradient>
	<path class="st44" d="M385.7,299.9c1-0.8,1.2-5.7,1.3-9.3c0-2.2,0-3.9,0-3.9s-0.2-13.3-0.3-15.8c-0.1-2.5-1-3.8-1.8-4.9
		c-0.7-1.1-1.8-2.5-3.7-1c-1.8,1.5-2.2,11.5-2.7,19.6c-0.2,3-0.2,5.6-0.2,7.7c0,3.5,0.3,5.9,1,6.7
		C380.3,300.4,383.9,301.1,385.7,299.9z"/>
	
		<linearGradient id="SVGID_45_" gradientUnits="userSpaceOnUse" x1="212.3831" y1="479.4789" x2="212.3831" y2="384.448" gradientTransform="matrix(1 0 0 -1 0 820)">
		<stop  offset="0" style="stop-color:#F3D99C"/>
		<stop  offset="1" style="stop-color:#C1A671"/>
	</linearGradient>
	<path class="st45" d="M214.8,421.6c-18-1.7-29.7-11.7-32.3-27.3c-2.5-15.1,4.7-31,16.5-36.2c20.5-9.1,37.3,0.8,42.2,10.4l12.4-6.4
		c-8.8-17-34.3-28.3-60.3-16.8c-17.6,7.8-28.1,29.8-24.6,51.3c3.6,22.2,20.5,36.8,45,39l0.5,0c0.4,0,0.8,0,1.2,0
		c19.5,0,36.4-10.1,41.3-25l-13.3-4.4C240.4,415.5,228.7,421.9,214.8,421.6z"/>
	
		<linearGradient id="SVGID_46_" gradientUnits="userSpaceOnUse" x1="303.8405" y1="472.08" x2="303.8405" y2="385.451" gradientTransform="matrix(1 0 0 -1 0 820)">
		<stop  offset="0" style="stop-color:#F3D99C"/>
		<stop  offset="1" style="stop-color:#C1A671"/>
	</linearGradient>
	<path class="st46" d="M269.7,434.5h14.8l3.7-9.4h31.4l3.7,9.4H338l-35.5-86.6L269.7,434.5z M314.5,411.9h-21.6l10.3-24.7
		L314.5,411.9z"/>
	
		<linearGradient id="SVGID_47_" gradientUnits="userSpaceOnUse" x1="383.8333" y1="471.0627" x2="383.8333" y2="384.7977" gradientTransform="matrix(1 0 0 -1 0 820)">
		<stop  offset="0" style="stop-color:#F3D99C"/>
		<stop  offset="1" style="stop-color:#C1A671"/>
	</linearGradient>
	<path class="st47" d="M384.3,363.3c5.1-1.2,11.7,0.8,15.5,4.6l10-9.8c-7.2-7.4-18.7-10.8-28.7-8.4c-8.5,2-14.8,7.8-17.6,16.5
		c-7,21.3,11,29,21.7,33.6c3.8,1.6,9.6,4.1,10.7,6.2c2.5,4.1,1.9,8.8-1.5,12c-4.6,4.3-15.3,5.6-30.2-4.8l-8,11.5
		c12.3,8.7,23.3,11.3,32,10.5c6.6-0.7,12-3.3,15.8-6.9c8.2-7.6,9.8-19.7,4.2-29.1c-3.2-6.3-10.5-9.3-17.4-12.3
		c-13.3-5.7-16.5-8.3-13.9-16.3C378.1,366.5,380.5,364.2,384.3,363.3z"/>
	
		<linearGradient id="SVGID_48_" gradientUnits="userSpaceOnUse" x1="464.583" y1="470.499" x2="464.583" y2="384.332" gradientTransform="matrix(1 0 0 -1 0 820)">
		<stop  offset="0" style="stop-color:#F3D99C"/>
		<stop  offset="1" style="stop-color:#C1A671"/>
	</linearGradient>
	<path class="st48" d="M438.9,363.9H458v71.7h14v-71.7h18.2v-14.4h-51.3V363.9z"/>
	
		<linearGradient id="SVGID_49_" gradientUnits="userSpaceOnUse" x1="543.0685" y1="469.726" x2="543.0685" y2="384.833" gradientTransform="matrix(1 0 0 -1 0 820)">
		<stop  offset="0" style="stop-color:#F3D99C"/>
		<stop  offset="1" style="stop-color:#C1A671"/>
	</linearGradient>
	<path class="st49" d="M537.6,350.3h-14v84.9h38.9v-14.2h-24.9V350.3z"/>
	
		<linearGradient id="SVGID_50_" gradientUnits="userSpaceOnUse" x1="615.1435" y1="470.884" x2="615.1435" y2="384.641" gradientTransform="matrix(1 0 0 -1 0 820)">
		<stop  offset="0" style="stop-color:#F3D99C"/>
		<stop  offset="1" style="stop-color:#C1A671"/>
	</linearGradient>
	<path class="st50" d="M605.6,421.4v-23.3h29.9v-14h-29.9v-21h32.6v-14h-46.6v86.2h47v-14H605.6z"/>
</g>
</svg>
