<svg width="497" height="145" viewBox="0 0 497 145" fill="none" xmlns="http://www.w3.org/2000/svg">
<path d="M255.569 15.6622C255.569 15.6622 212.038 -8.37464 175.363 3.10688C173.463 3.35468 171.811 4.42849 170.903 6.08051C168.755 9.05414 166.855 11.0366 167.764 13.3494C168.673 15.6622 174.455 16.736 179.411 15.3318C179.411 15.3318 181.724 13.9276 178.915 12.8538C177.511 12.2756 176.107 11.8626 174.537 11.6148C174.537 11.6148 172.968 11.1192 174.537 10.541C176.107 9.96275 192.792 5.0893 221.95 13.5146C251.108 21.9399 290.096 46.8027 288.279 71.4178C286.379 96.0328 247.887 96.0328 247.887 96.0328C241.609 95.9502 235.414 95.2068 229.302 93.8852C229.302 85.7903 229.302 72.1612 229.632 63.8185C238.966 64.4793 258.46 66.1313 260.938 70.757C260.938 70.757 262.177 71.996 258.129 73.9784C255.156 75.713 252.512 76.2912 255.156 77.6954C255.156 77.6954 259.038 80.0083 261.186 79.43C263.333 78.7692 269.693 76.6216 270.519 70.0962C271.263 63.5707 263.416 56.9626 252.099 54.5672C243.261 52.8326 238.47 51.924 230.375 52.0892C230.541 44.8203 229.715 35.6516 228.228 33.3388C226.245 30.3652 224.015 26.6481 222.363 30.6956C220.629 34.4126 219.224 42.1771 218.646 52.8326C206.091 54.5672 192.296 59.358 188.166 64.4793C185.358 67.5355 185.358 72.2438 188.166 75.3C188.497 75.7956 197.17 89.2596 216.498 98.5108C216.664 102.063 217.242 105.945 218.646 108.093C221.62 112.718 226.989 109.662 227.98 108.836C228.641 108.34 229.054 106.854 229.219 103.384C242.766 107.267 257.055 107.514 270.767 104.128C296.621 97.1892 300.669 81.3299 301.577 71.9134C302.734 62.5795 296.456 37.7166 255.569 15.6622ZM216.829 90.003C206.834 86.4511 197.996 80.4213 190.975 72.4916C190.975 72.4916 188.166 69.3527 192.379 67.7007C196.261 66.1313 204.274 63.9837 218.563 63.3229C218.316 67.7007 217.903 77.0346 216.829 90.003Z" fill="black"/>
<path d="M321.815 46.3906C332.222 43.1692 342.382 33.3397 342.713 25.3274C343.043 17.2325 334.04 17.1499 334.04 17.1499H333.874C332.47 12.0287 323.054 12.5243 323.054 12.5243C303.808 13.5981 297.2 26.649 296.291 30.2008C295.217 34.1657 296.374 38.3783 299.43 41.1868C298.604 42.7562 298.604 44.5734 299.265 46.1428C299.595 47.0514 301.247 50.025 303.147 49.8598C304.551 49.6946 305.46 48.9512 307.194 45.9776C310.663 47.6296 315.289 48.373 321.815 46.3906ZM330.983 23.5928C337.922 22.6842 335.196 29.2096 335.196 29.2096C329.579 39.8651 317.519 40.0303 310.911 38.6261C315.289 32.1007 324.953 24.3362 330.983 23.5928ZM303.064 34.2483C302.321 32.8441 302.403 31.0268 304.468 27.888C307.029 24.0884 311.242 21.7756 315.785 21.693C310.829 25.1622 306.533 29.3748 303.064 34.2483Z" fill="black"/>
<path d="M317.023 81.4956C317.023 81.4956 316.858 65.7189 316.527 62.4148C316.527 60.102 315.701 57.8718 314.214 56.0546C313.306 54.6503 311.902 52.6679 309.424 54.6503C306.946 56.6328 306.45 69.6837 305.872 80.174C305.211 90.7469 305.707 97.1898 306.946 99.0896C308.185 100.989 313.141 101.898 315.288 100.163C317.436 98.4288 316.858 83.1476 316.858 83.1476V81.413L317.023 81.4956Z" fill="black"/>
<path d="M369.56 57.6236C366.338 53.7413 347.753 53.9065 347.753 53.9065C340.897 54.2369 324.955 56.715 322.807 63.6534C320.66 70.5919 322.312 72.9873 322.312 72.9873C324.212 76.5392 337.51 76.7044 341.227 77.0348C344.945 77.3652 354.526 78.9346 357.995 80.7518C361.382 82.6516 358.904 85.2123 358.904 85.2123C355.683 89.8379 337.676 90.3335 337.676 90.3335C337.676 90.3335 331.315 90.1683 329.581 88.9293C327.846 87.6903 327.433 86.4513 329.25 84.3036C331.15 82.156 335.941 84.634 335.941 84.634C338.667 86.4513 341.806 87.5251 345.11 87.7729C350.396 88.1033 354.278 86.2035 354.444 84.3862C354.609 82.569 349.983 80.6692 349.983 80.6692C334.372 75.8784 327.846 79.4302 327.846 79.4302C319.173 84.7166 325.368 91.9855 325.368 91.9855C338.997 107.349 360.804 98.1806 363.447 96.1982C366.09 94.2157 366.999 91.8203 367.329 85.7905C367.66 79.7606 365.017 76.787 365.017 76.787C360.639 71.0875 348.001 70.7571 344.449 70.4267C340.897 70.0963 333.793 69.0225 331.894 68.6921C331.398 68.6921 330.985 68.1965 330.985 67.7009C330.985 67.3705 331.15 67.1227 331.398 66.9575C333.711 65.2228 350.727 64.3142 359.895 63.9838L365.017 63.4882C367.164 63.323 368.981 61.8362 369.477 59.7712C369.807 59.193 369.807 58.367 369.56 57.6236Z" fill="black"/>
<path d="M397.063 48.7029C396.155 48.2073 395.081 48.5377 394.585 49.4463C394.503 49.5289 394.503 49.6941 394.42 49.7767C394.09 51.1809 394.09 52.5851 394.42 53.9893C396.981 63.0754 398.798 72.3267 399.872 81.7432C399.872 81.7432 400.037 84.7168 399.541 84.9646C399.211 85.1298 398.88 85.0472 398.633 84.7994C398.137 84.6342 392.768 75.2177 392.768 75.2177L391.859 73.4831C385.829 63.2406 382.443 59.854 382.443 59.854C381.534 59.1106 379.304 56.7152 376.413 59.6888C373.439 62.6624 371.127 72.7397 370.053 81.991C368.979 91.3249 369.392 96.694 370.796 99.0068C372.035 101.154 374.761 101.98 376.909 100.741C377.156 100.576 377.404 100.411 377.569 100.246C380.047 98.346 380.047 85.9558 380.708 79.6782C381.369 73.4005 381.782 74.3917 381.782 74.3917C382.443 74.3917 385.003 80.2564 385.003 80.2564C385.003 80.2564 392.272 96.0332 396.898 98.5112C401.524 100.989 405.736 97.2722 407.306 93.8855C408.875 90.4989 411.766 78.8522 408.379 65.8838C404.993 52.8329 397.063 48.7029 397.063 48.7029Z" fill="black"/>
<path d="M445.88 94.7936C446.541 92.646 444.31 89.6724 442.328 89.0942C440.593 88.5986 425.891 90.994 424.073 91.2418C422.173 91.5722 423.165 90.0028 423.165 90.0028L425.643 82.5687C425.643 82.5687 439.437 82.4035 441.419 82.0731C442.328 82.0731 443.154 81.4123 443.402 80.5037C443.567 79.0995 443.65 77.6952 443.567 76.291C443.65 75.2998 442.906 74.3912 441.832 74.3086C441.75 74.3086 441.75 74.3086 441.667 74.3086C437.455 73.9782 433.325 73.8956 429.112 74.1434L431.012 68.2787H431.92C438.446 68.4439 444.971 67.9483 451.414 66.8745C454.223 66.2137 452.818 63.4879 452.818 63.4879C449.432 56.3842 445.55 56.7972 445.55 56.7972C435.39 56.4668 425.147 57.3754 415.152 59.4405C413.253 60.1839 413.418 61.5881 415.648 64.3965C417.3 66.1311 419.613 67.2049 422.008 67.3701L418.291 74.4738C416.887 74.3912 415.565 74.8042 414.409 75.5476C412.674 77.2822 414.739 82.6513 414.739 82.6513C414.739 82.6513 413.996 84.2207 413.005 86.6987C412.096 89.1768 409.618 93.3894 412.84 99.8323C416.061 106.358 421.182 106.027 421.182 106.027C430.599 106.275 444.971 98.0977 445.88 94.7936Z" fill="black"/>
<path d="M491.724 62.4975C489.246 60.5151 485.695 60.3499 483.051 62.1671C474.957 66.3798 464.797 78.9351 459.18 86.204C458.436 80.9175 462.153 74.3095 462.153 74.3095L463.062 72.74C467.522 65.306 468.183 64.5626 469.092 62.4975C470 60.4325 470.496 56.3025 469.587 55.8069C468.679 55.3113 467.109 56.7155 467.109 56.7155C453.811 67.8666 451.58 80.7523 451.58 80.7523C450.176 87.443 451.25 92.2338 453.15 95.6205C445.551 111.397 442.742 126.431 442.742 132.295C442.907 137.251 445.716 141.712 450.176 143.942C452.819 145.016 453.315 141.794 453.315 141.794C455.38 128.826 459.18 116.105 464.631 104.128C477.93 107.68 488.916 93.7207 492.385 88.5168C494.863 84.2216 496.185 79.3481 496.268 74.3921C496.515 73.7312 496.35 65.8842 491.724 62.4975ZM482.308 88.1864C478.756 90.8296 474.626 92.399 470.248 92.6468C474.461 85.2128 479.665 78.3569 485.612 72.1618C489.99 67.7014 490.238 71.8314 490.238 71.8314C490.981 80.0915 484.951 86.0388 482.308 88.1864Z" fill="black"/>
<path d="M19.4959 77.6123C15.0355 76.2081 10.8228 74.9691 10.8228 72.1606V71.9954C10.8228 69.8478 12.8052 68.2784 16.2745 68.2784C19.4133 68.5262 22.4695 69.3522 25.278 70.9216C26.93 71.9128 29.0776 71.3346 30.0688 69.6C30.3992 69.0218 30.5644 68.4436 30.5644 67.7828C30.4818 66.3786 29.6558 65.057 28.4168 64.3962C24.6998 62.4137 20.5697 61.3399 16.3571 61.2573C8.75781 61.2573 2.72794 65.7178 2.72794 73.0692V73.2344C2.72794 80.5033 9.08821 82.9813 14.7877 84.5508C19.2481 85.955 23.2956 87.0288 23.2956 90.0024V90.1676C23.2956 92.6456 21.1479 94.3803 17.2657 94.3803C13.3009 94.2977 9.50121 92.9761 6.27978 90.6632C5.70157 90.3328 5.04077 90.1676 4.37996 90.1676C2.48014 90.1676 0.828125 91.6544 0.828125 93.6369C0.828125 93.7195 0.828125 93.7195 0.828125 93.8021C0.828125 95.0411 1.48893 96.1975 2.56274 96.9409C6.85799 99.9145 11.8966 101.567 17.1005 101.567C25.1954 101.567 31.3904 97.5191 31.3904 89.5068V89.3416C31.3904 81.9901 25.0302 79.3469 19.4959 77.6123Z" fill="black"/>
<path d="M60.5478 61.0929C55.5918 61.0103 51.0487 63.571 48.4881 67.7836V51.1808C48.4881 48.7028 46.5057 46.803 44.1103 46.803C41.7148 46.803 39.7324 48.7854 39.7324 51.1808V96.2809C39.7324 98.7589 41.7148 100.659 44.1103 100.659C46.5057 100.659 48.4881 98.6763 48.4881 96.2809V78.6043C48.4881 72.5744 52.0399 69.0226 57.1612 69.0226C62.2825 69.0226 65.3387 72.4092 65.3387 78.4391V96.2809C65.3387 98.6763 67.3211 100.659 69.7165 100.659H69.7991C72.112 100.741 74.0944 98.8415 74.177 96.5287C74.177 96.4461 74.177 96.3635 74.177 96.2809V75.7133C74.177 66.9576 69.2209 61.0929 60.5478 61.0929Z" fill="black"/>
<path d="M102.509 61.093C91.3579 60.8452 82.1892 69.6009 81.9414 80.752C81.9414 80.9172 81.9414 81.0824 81.9414 81.2476V81.4128C82.437 92.7291 92.0187 101.567 103.335 101.072C114.073 100.576 122.581 91.9857 122.994 81.2476V81.0824C122.994 70.0965 114.156 61.093 103.087 61.093C102.839 61.093 102.674 61.093 102.509 61.093ZM114.073 81.3302C114.073 88.0209 109.613 93.39 102.426 93.39C95.901 93.3074 90.6145 88.0209 90.6145 81.4128C90.6145 81.3302 90.6145 81.2476 90.6145 81.165V80.9998C90.6145 74.3092 95.0749 68.7749 102.261 68.7749C109.447 68.7749 114.073 74.3918 114.073 81.3302Z" fill="black"/>
<path d="M153.144 61.0928C146.949 61.0928 142.901 64.3142 140.01 68.3616V65.8836C140.01 63.4056 138.028 61.4232 135.55 61.4232C133.154 61.4232 131.172 63.4056 131.172 65.801V65.8836V108.01C131.172 110.488 133.154 112.388 135.55 112.388C137.945 112.388 139.928 110.405 139.928 108.01V94.3809C142.901 98.7588 147.857 101.319 153.061 101.237C162.23 101.237 170.903 93.9679 170.903 81.2474V81.0822C170.985 68.1964 162.147 61.0928 153.144 61.0928ZM161.982 81.1648C161.982 88.7641 157.026 93.3897 150.996 93.3897C144.966 93.3897 139.845 88.4337 139.845 81.1648V80.9996C139.845 73.7307 145.131 68.7747 150.996 68.7747C156.861 68.7747 161.982 73.6481 161.982 81.1648Z" fill="black"/>
</svg>
