<svg width="389" height="106" viewBox="0 0 389 106" fill="none" xmlns="http://www.w3.org/2000/svg">
<path d="M74.8199 86.4527V84.4371H76.4672V82.0013H78.7063V84.4371H81.1466V86.4527H78.7063V90.9711C78.6801 91.1421 78.6942 91.3169 78.7475 91.4815C78.8007 91.6461 78.8916 91.796 79.0129 91.9195C79.1343 92.043 79.2827 92.1366 79.4466 92.1929C79.6104 92.2492 79.7852 92.2666 79.9569 92.2439H81.1771V94.2169H79.5543C77.4881 94.2169 76.455 93.2202 76.455 91.2269V86.4527H74.8199Z" fill="black"/>
<path d="M88.0164 84.3578C88.4894 84.3381 88.9614 84.4155 89.4032 84.5852C89.845 84.7549 90.2472 85.0132 90.5849 85.3443C90.924 85.7145 91.1851 86.1489 91.3528 86.6217C91.5205 87.0945 91.5913 87.5961 91.5611 88.0968V94.2168H89.3281V88.3891C89.3576 87.849 89.1761 87.3186 88.8217 86.9094C88.6338 86.7246 88.409 86.5814 88.162 86.4891C87.915 86.3967 87.6513 86.3574 87.388 86.3735C87.0959 86.3651 86.8053 86.4183 86.5351 86.5295C86.265 86.6407 86.0213 86.8075 85.8201 87.019C85.6287 87.2042 85.4762 87.4255 85.3714 87.6702C85.2667 87.9148 85.2118 88.1779 85.21 88.4439V94.2168H82.916V80.1317H85.1673V84.8328C85.1705 85.0638 85.116 85.2919 85.0086 85.4966C85.421 85.1599 85.8817 84.8869 86.3753 84.6867C86.8945 84.4679 87.4528 84.356 88.0164 84.3578V84.3578Z" fill="black"/>
<path d="M100.505 91.0077H102.439C102.157 91.9756 101.574 92.8288 100.774 93.4435C99.8381 94.0766 98.7099 94.3624 97.5852 94.2511C96.4604 94.1399 95.4104 93.6386 94.6176 92.8346C93.7767 91.8444 93.3151 90.5885 93.3151 89.2904C93.3151 87.9924 93.7767 86.7365 94.6176 85.7463C95.0534 85.2757 95.586 84.9047 96.1789 84.6588C96.7718 84.4128 97.4109 84.2977 98.0525 84.3214C98.6397 84.31 99.2227 84.4217 99.764 84.6493C100.305 84.877 100.793 85.2154 101.194 85.6428C101.625 86.0902 101.961 86.6194 102.182 87.199C102.403 87.7786 102.505 88.3966 102.482 89.0164L102.421 90.0151H95.484C95.5313 90.6517 95.8271 91.2442 96.3076 91.6654C96.6192 91.92 96.9816 92.1054 97.3707 92.2091C97.7598 92.3128 98.1665 92.3324 98.5638 92.2667C98.9611 92.201 99.3398 92.0515 99.6745 91.828C100.009 91.6046 100.292 91.3125 100.505 90.9711V91.0077ZM98.0647 86.3309C97.46 86.3088 96.8659 86.4936 96.3808 86.8546C95.9359 87.1979 95.6234 87.6841 95.4962 88.2309H100.481C100.37 87.6925 100.079 87.2075 99.657 86.8546C99.2114 86.5033 98.6569 86.3181 98.0891 86.3309H98.0647Z" fill="black"/>
<path d="M111.481 84.437V84.8329C111.481 85.0635 111.427 85.291 111.322 85.4966C111.735 85.1599 112.195 84.8869 112.689 84.6867C113.199 84.4663 113.749 84.3503 114.306 84.3457C114.778 84.3267 115.25 84.4044 115.692 84.574C116.134 84.7437 116.536 85.0017 116.874 85.3322C117.213 85.7024 117.474 86.1368 117.642 86.6096C117.81 87.0824 117.88 87.584 117.85 88.0847V94.2046H115.617V88.377C115.633 88.1107 115.596 87.8439 115.508 87.5921C115.42 87.3402 115.283 87.1082 115.105 86.9094C114.917 86.7268 114.693 86.5854 114.447 86.4942C114.201 86.4029 113.939 86.3639 113.677 86.3796C113.385 86.3712 113.094 86.4244 112.824 86.5356C112.554 86.6468 112.31 86.8136 112.109 87.0251C111.919 87.2075 111.767 87.4258 111.663 87.6673C111.558 87.9088 111.502 88.1686 111.499 88.4318V94.2046H109.242V84.437H111.481Z" fill="black"/>
<path d="M126.788 91.0077H128.71C128.423 91.9735 127.841 92.8253 127.044 93.4435C126.109 94.0766 124.98 94.3624 123.856 94.2511C122.731 94.1399 121.681 93.6386 120.888 92.8346C120.047 91.8444 119.586 90.5885 119.586 89.2904C119.586 87.9924 120.047 86.7365 120.888 85.7463C121.324 85.2757 121.857 84.9047 122.449 84.6588C123.042 84.4128 123.681 84.2977 124.323 84.3214C124.91 84.31 125.493 84.4217 126.034 84.6493C126.576 84.877 127.063 85.2154 127.465 85.6428C127.895 86.0902 128.231 86.6194 128.452 87.199C128.673 87.7786 128.775 88.3966 128.752 89.0164L128.691 90.0151H121.773C121.82 90.6517 122.116 91.2442 122.596 91.6654C122.907 91.9199 123.269 92.1052 123.658 92.2089C124.047 92.3125 124.453 92.3321 124.85 92.2664C125.247 92.2007 125.625 92.0511 125.959 91.8278C126.293 91.6044 126.576 91.3123 126.788 90.9711V91.0077ZM124.347 86.3309C123.743 86.3088 123.149 86.4936 122.664 86.8546C122.219 87.1979 121.906 87.6841 121.779 88.2309H126.757C126.65 87.6728 126.344 87.1725 125.895 86.823C125.446 86.4735 124.885 86.2987 124.317 86.3309H124.347Z" fill="black"/>
<path d="M139.655 91.0503C140.216 89.0895 140.735 86.8912 141.204 84.4371H143.419C143.053 85.9107 142.646 87.4615 142.199 89.0895C141.751 90.7174 141.375 91.984 141.07 92.8893L140.643 94.2169H138.758C138.224 92.2044 137.537 90.2358 136.702 88.3283C136.281 89.3087 135.903 90.2891 135.555 91.2756C135.207 92.2621 134.945 92.9929 134.841 93.4739L134.64 94.2169H132.761C131.699 91.0056 130.764 87.7457 129.954 84.4371H132.175C132.382 85.5332 132.616 86.6313 132.877 87.7315C133.139 88.8337 133.346 89.668 133.487 90.2282L133.7 91.0503C134.054 89.7958 134.709 87.969 135.665 85.5697H137.702C138.109 86.6293 138.481 87.6138 138.819 88.5231C139.148 89.4366 139.368 90.0882 139.484 90.4657L139.655 91.0503Z" fill="black"/>
<path d="M149.294 86.4526V84.437H150.637V83.146C150.607 82.733 150.668 82.3185 150.816 81.9315C150.964 81.5445 151.194 81.1942 151.491 80.9051C152.175 80.3447 153.048 80.0678 153.931 80.1317H155.578V82.0073H154.169C153.997 81.9971 153.825 82.0234 153.664 82.0842C153.504 82.1451 153.357 82.2393 153.236 82.3605C153.009 82.6287 152.894 82.9726 152.912 83.3226V84.437H155.578V86.4526H152.912V94.2168H150.637V86.4526H149.294Z" fill="black"/>
<path d="M160.606 86.4527H159.074C159.155 86.595 159.192 86.7585 159.178 86.9216V94.2291H156.939V84.4371H161.21C161.985 84.3996 162.743 84.6688 163.32 85.1861C163.595 85.4684 163.808 85.8049 163.944 86.1741C164.081 86.5432 164.139 86.9369 164.114 87.3296V88.3466H161.954V87.7376C161.978 87.5578 161.959 87.3749 161.899 87.2037C161.839 87.0326 161.739 86.8781 161.607 86.7528C161.476 86.6275 161.316 86.5351 161.142 86.4829C160.968 86.4308 160.784 86.4204 160.606 86.4527V86.4527Z" fill="black"/>
<path d="M169.995 94.296C169.36 94.3143 168.729 94.1965 168.144 93.9507C167.559 93.7049 167.033 93.3367 166.603 92.871C165.745 91.8887 165.273 90.6298 165.273 89.3269C165.273 88.024 165.745 86.7652 166.603 85.7828C167.033 85.3171 167.559 84.949 168.144 84.7031C168.729 84.4573 169.36 84.3396 169.995 84.3579C170.519 84.3707 171.035 84.4866 171.514 84.6989C172.002 84.8961 172.455 85.1695 172.856 85.5088C172.772 85.3172 172.732 85.109 172.74 84.8998V84.4492H174.973V94.229H172.74V93.7784C172.715 93.5683 172.755 93.3556 172.856 93.1694C172.468 93.5128 172.019 93.7812 171.532 93.9611C171.046 94.1709 170.524 94.2846 169.995 94.296V94.296ZM168.25 87.2687C167.747 87.8355 167.469 88.5666 167.469 89.3239C167.469 90.0812 167.747 90.8122 168.25 91.3791C168.789 91.9047 169.513 92.1989 170.266 92.1989C171.02 92.1989 171.744 91.9047 172.283 91.3791C172.779 90.8052 173.052 90.0726 173.052 89.3147C173.052 88.5569 172.779 87.8242 172.283 87.2504C171.742 86.7277 171.019 86.4354 170.266 86.4354C169.514 86.4354 168.791 86.7277 168.25 87.2504V87.2687Z" fill="black"/>
<path d="M181.483 93.8271C180.869 93.8488 180.257 93.7426 179.687 93.515C179.116 93.2875 178.6 92.9437 178.17 92.5056C177.741 92.0645 177.406 91.5417 177.183 90.9684C176.961 90.3951 176.857 89.783 176.877 89.1686C176.846 87.9034 177.31 86.676 178.17 85.7463C178.584 85.2933 179.091 84.9348 179.656 84.6951C180.222 84.4555 180.832 84.3405 181.446 84.3578C181.97 84.3707 182.486 84.4866 182.965 84.6989C183.453 84.8961 183.906 85.1694 184.308 85.5088C184.216 85.2956 184.177 85.0641 184.192 84.8328V84.4248H186.431V93.4617C186.447 94.0417 186.338 94.6184 186.111 95.1523C185.883 95.6863 185.543 96.1648 185.113 96.5552C184.173 97.3922 182.943 97.8293 181.684 97.7731C180.574 97.8062 179.484 97.4769 178.579 96.8353C178.155 96.525 177.799 96.1327 177.53 95.6817C177.262 95.2308 177.087 94.7305 177.017 94.2107H179.061C179.197 94.7178 179.522 95.1536 179.97 95.4286C180.464 95.7194 181.031 95.8651 181.605 95.8488C182.305 95.8933 182.996 95.6762 183.545 95.2398C183.786 95.0199 183.975 94.7488 184.098 94.4463C184.22 94.1438 184.273 93.8177 184.253 93.4921V93.2181C184.236 93.0418 184.269 92.8643 184.35 92.7066C183.962 93.0487 183.513 93.3152 183.026 93.4921C182.537 93.6977 182.014 93.8112 181.483 93.8271V93.8271ZM179.756 87.226C179.277 87.7609 179.011 88.4537 179.011 89.1716C179.011 89.8896 179.277 90.5823 179.756 91.1172C180.282 91.614 180.979 91.8909 181.703 91.8909C182.426 91.8909 183.123 91.614 183.649 91.1172C184.135 90.5854 184.404 89.8915 184.404 89.1716C184.404 88.4517 184.135 87.7578 183.649 87.226C183.123 86.7292 182.426 86.4523 181.703 86.4523C180.979 86.4523 180.282 86.7292 179.756 87.226V87.226Z" fill="black"/>
<path d="M192.44 86.4527H190.903C190.979 86.5968 191.013 86.7593 191 86.9216V94.2291H188.761V84.4371H193.032C193.805 84.4006 194.561 84.6697 195.137 85.1861C195.412 85.4684 195.624 85.8049 195.761 86.1741C195.897 86.5433 195.955 86.9369 195.93 87.3296V88.3466H193.776V87.7376C193.8 87.559 193.781 87.3774 193.722 87.2074C193.662 87.0373 193.563 86.8836 193.433 86.7586C193.303 86.6336 193.146 86.5409 192.973 86.4877C192.801 86.4346 192.618 86.4226 192.44 86.4527V86.4527Z" fill="black"/>
<path d="M201.829 94.296C201.195 94.3143 200.564 94.1965 199.979 93.9507C199.393 93.7049 198.868 93.3367 198.437 92.871C197.58 91.8887 197.108 90.6298 197.108 89.3269C197.108 88.024 197.58 86.7652 198.437 85.7828C198.868 85.3171 199.393 84.949 199.979 84.7031C200.564 84.4573 201.195 84.3396 201.829 84.3579C202.353 84.3707 202.87 84.4866 203.349 84.6989C203.837 84.8949 204.29 85.1683 204.691 85.5088C204.609 85.3163 204.57 85.1087 204.575 84.8998V84.4492H206.814V94.229H204.575V93.7784C204.553 93.5684 204.593 93.3567 204.691 93.1694C204.304 93.5115 203.857 93.7798 203.373 93.9611C202.885 94.1715 202.361 94.2853 201.829 94.296V94.296ZM200.085 87.2687C199.582 87.8355 199.304 88.5666 199.304 89.3239C199.304 90.0812 199.582 90.8122 200.085 91.3791C200.624 91.9047 201.347 92.1989 202.101 92.1989C202.855 92.1989 203.578 91.9047 204.117 91.3791C204.617 90.8069 204.892 90.0737 204.892 89.3147C204.892 88.5558 204.617 87.8225 204.117 87.2504C203.577 86.7277 202.854 86.4354 202.101 86.4354C201.348 86.4354 200.625 86.7277 200.085 87.2504V87.2687Z" fill="black"/>
<path d="M211.42 84.4371V84.8329C211.421 85.0636 211.366 85.291 211.262 85.4967C211.672 85.16 212.131 84.887 212.622 84.6868C213.133 84.467 213.683 84.3511 214.239 84.3458C214.712 84.3257 215.184 84.4029 215.626 84.5726C216.068 84.7423 216.47 85.0009 216.807 85.3323C217.148 85.7019 217.41 86.1361 217.579 86.6089C217.747 87.0818 217.819 87.5836 217.79 88.0847V94.2047H215.557V88.377C215.573 88.1108 215.535 87.844 215.447 87.5921C215.36 87.3403 215.222 87.1082 215.044 86.9095C214.855 86.7267 214.63 86.5853 214.383 86.4941C214.136 86.4028 213.873 86.3639 213.611 86.3797C213.319 86.3724 213.028 86.4261 212.758 86.5373C212.488 86.6484 212.245 86.8146 212.043 87.0252C211.66 87.3948 211.441 87.9008 211.433 88.4318V94.2047H209.175V84.4371H211.42Z" fill="black"/>
<path d="M226.898 90.3135H228.954C228.81 91.4387 228.251 92.47 227.386 93.206C226.528 93.9343 225.432 94.3241 224.305 94.3021C223.663 94.3246 223.023 94.2078 222.43 93.9597C221.837 93.7116 221.305 93.3381 220.87 92.865C220.017 91.8854 219.547 90.6311 219.547 89.3331C219.547 88.035 220.017 86.7807 220.87 85.8011C221.305 85.328 221.837 84.9545 222.43 84.7064C223.023 84.4583 223.663 84.3415 224.305 84.364C225.43 84.3354 226.526 84.7139 227.392 85.4297C228.267 86.1699 228.826 87.2153 228.954 88.3526H226.898C226.77 87.7997 226.453 87.3086 226.001 86.9642C225.533 86.6223 224.965 86.4446 224.385 86.4588C224.021 86.4409 223.658 86.5043 223.323 86.6444C222.987 86.7846 222.687 86.9979 222.445 87.2687C221.982 87.858 221.731 88.5847 221.731 89.3331C221.731 90.0814 221.982 90.8081 222.445 91.3974C222.684 91.6641 222.979 91.875 223.309 92.015C223.639 92.155 223.996 92.2206 224.354 92.2073C224.933 92.2253 225.501 92.0471 225.965 91.7019C226.425 91.3585 226.754 90.8688 226.898 90.3135V90.3135Z" fill="black"/>
<path d="M237.508 91.0077H239.43C239.144 91.9735 238.561 92.8253 237.764 93.4435C236.829 94.0766 235.701 94.3624 234.576 94.2511C233.451 94.1399 232.401 93.6386 231.608 92.8346C230.768 91.8444 230.306 90.5885 230.306 89.2904C230.306 87.9924 230.768 86.7365 231.608 85.7463C232.043 85.2762 232.575 84.9055 233.167 84.6595C233.759 84.4136 234.397 84.2982 235.037 84.3214C235.625 84.3095 236.21 84.421 236.752 84.6486C237.294 84.8762 237.782 85.2149 238.185 85.6428C238.615 86.091 238.95 86.6203 239.171 87.1997C239.392 87.7791 239.494 88.3968 239.473 89.0164L239.412 90.0151H232.493C232.514 90.331 232.597 90.6397 232.738 90.923C232.88 91.2064 233.076 91.4587 233.317 91.6654C233.628 91.9199 233.99 92.1052 234.378 92.2089C234.767 92.3125 235.173 92.3321 235.57 92.2664C235.967 92.2007 236.345 92.0511 236.679 91.8278C237.014 91.6044 237.296 91.3123 237.508 90.9711V91.0077ZM235.098 86.3309C234.494 86.3088 233.899 86.4936 233.414 86.8546C232.969 87.1979 232.657 87.6841 232.53 88.2309H237.508C237.402 87.6782 237.1 87.1822 236.657 86.8334C236.215 86.4845 235.662 86.3062 235.098 86.3309V86.3309Z" fill="black"/>
<path d="M245.549 86.4527V84.4371H246.897V83.1461C246.869 82.7332 246.931 82.3191 247.079 81.9323C247.226 81.5455 247.456 81.1951 247.752 80.9052C248.436 80.3453 249.309 80.0685 250.192 80.1318H251.839V82.0074H250.43C250.258 81.9972 250.086 82.0235 249.925 82.0843C249.764 82.1452 249.618 82.2393 249.496 82.3606C249.27 82.6288 249.155 82.9727 249.173 83.3227V84.4371H251.839V86.4527H249.173V94.2169H246.916V86.4527H245.549Z" fill="black"/>
<path d="M253.743 85.7646C254.444 85.0835 255.331 84.624 256.293 84.4435C257.255 84.263 258.249 84.3694 259.151 84.7495C260.052 85.1297 260.821 85.7666 261.362 86.5808C261.903 87.3949 262.192 88.3501 262.192 89.327C262.192 90.3039 261.903 91.2591 261.362 92.0732C260.821 92.8873 260.052 93.5243 259.151 93.9044C258.249 94.2845 257.255 94.391 256.293 94.2104C255.331 94.0299 254.444 93.5704 253.743 92.8894C252.83 91.927 252.321 90.6521 252.321 89.327C252.321 88.0018 252.83 86.727 253.743 85.7646V85.7646ZM255.28 91.3913C255.832 91.9116 256.562 92.2016 257.321 92.2016C258.08 92.2016 258.81 91.9116 259.362 91.3913C259.854 90.8158 260.125 90.0838 260.125 89.327C260.125 88.5701 259.854 87.8381 259.362 87.2626C258.81 86.7423 258.08 86.4524 257.321 86.4524C256.562 86.4524 255.832 86.7423 255.28 87.2626C254.788 87.8381 254.517 88.5701 254.517 89.327C254.517 90.0838 254.788 90.8158 255.28 91.3913V91.3913Z" fill="black"/>
<path d="M267.836 86.4527H266.305C266.384 86.5958 266.418 86.7591 266.402 86.9216V94.2291H264.169V84.4371H268.44C269.215 84.3996 269.974 84.6688 270.551 85.1861C270.826 85.4684 271.038 85.8049 271.175 86.1741C271.311 86.5432 271.369 86.9369 271.344 87.3296V88.3466H269.184V87.7376C269.208 87.5578 269.19 87.3749 269.129 87.2037C269.069 87.0326 268.969 86.8781 268.838 86.7528C268.706 86.6275 268.547 86.5351 268.373 86.4829C268.199 86.4308 268.015 86.4204 267.836 86.4527V86.4527Z" fill="black"/>
<path d="M280.129 84.8329C280.13 85.0636 280.075 85.291 279.971 85.4967C280.338 85.1223 280.778 84.8269 281.264 84.629C281.749 84.431 282.271 84.3346 282.795 84.3458C283.331 84.3179 283.865 84.4316 284.343 84.6754C284.82 84.9191 285.225 85.2843 285.516 85.7342C285.884 85.2673 286.36 84.8969 286.903 84.655C287.446 84.4131 288.04 84.307 288.634 84.3458C289.102 84.32 289.57 84.3881 290.012 84.546C290.453 84.704 290.858 84.9485 291.203 85.2653C291.534 85.6244 291.788 86.0473 291.95 86.5081C292.111 86.9688 292.177 87.4577 292.142 87.9447V94.2047H289.927V88.3161C289.927 86.9886 289.317 86.3188 288.097 86.3188C287.829 86.3096 287.562 86.3594 287.315 86.4647C287.069 86.5699 286.848 86.728 286.669 86.9277C286.332 87.3066 286.138 87.7912 286.12 88.2979V94.223H283.924V88.3344C283.924 87.0069 283.314 86.337 282.094 86.337C281.825 86.3244 281.557 86.3727 281.31 86.4781C281.063 86.5836 280.843 86.7435 280.666 86.946C280.329 87.3248 280.134 87.8095 280.117 88.3161V94.2413H277.878V84.4371H280.117L280.129 84.8329Z" fill="black"/>
<path d="M301.08 91.0077H303.002C302.718 91.9745 302.135 92.8271 301.336 93.4435C300.401 94.0766 299.273 94.3624 298.148 94.2511C297.023 94.1399 295.973 93.6386 295.18 92.8346C294.339 91.8444 293.878 90.5885 293.878 89.2904C293.878 87.9924 294.339 86.7365 295.18 85.7463C295.616 85.2757 296.149 84.9047 296.742 84.6588C297.334 84.4128 297.974 84.2977 298.615 84.3214C299.202 84.31 299.785 84.4217 300.327 84.6493C300.868 84.877 301.355 85.2154 301.757 85.6428C302.188 86.0902 302.523 86.6194 302.744 87.199C302.966 87.7786 303.068 88.3966 303.044 89.0164L302.983 90.0151H296.065C296.112 90.6517 296.408 91.2442 296.889 91.6654C297.2 91.9199 297.562 92.1052 297.95 92.2089C298.339 92.3125 298.745 92.3321 299.142 92.2664C299.539 92.2007 299.917 92.0511 300.251 91.8278C300.585 91.6044 300.868 91.3123 301.08 90.9711V91.0077ZM298.64 86.3309C298.035 86.3088 297.441 86.4936 296.956 86.8546C296.511 87.1979 296.198 87.6841 296.071 88.2309H301.049C300.945 87.6716 300.639 87.1697 300.19 86.8198C299.74 86.4699 299.178 86.296 298.609 86.3309H298.64Z" fill="black"/>
<path d="M307.163 84.4371V84.8329C307.163 85.0636 307.109 85.291 307.004 85.4967C307.414 85.16 307.873 84.887 308.365 84.6868C308.876 84.467 309.425 84.3511 309.981 84.3458C310.455 84.3257 310.927 84.4029 311.368 84.5726C311.81 84.7423 312.212 85.0009 312.55 85.3323C312.89 85.7019 313.152 86.1361 313.321 86.6089C313.49 87.0818 313.562 87.5836 313.532 88.0847V94.2047H311.299V88.377C311.315 88.1108 311.278 87.844 311.19 87.5921C311.102 87.3403 310.965 87.1082 310.787 86.9095C310.598 86.7267 310.373 86.5853 310.126 86.4941C309.879 86.4028 309.616 86.3639 309.353 86.3797C309.061 86.3724 308.771 86.4261 308.501 86.5373C308.231 86.6484 307.987 86.8146 307.785 87.0252C307.403 87.3948 307.184 87.9008 307.175 88.4318V94.2047H304.918V84.4371H307.163Z" fill="black"/>
<path d="M355.446 53.8189L325.887 9V67.8553H334.995V40.1053C335.012 39.0929 334.821 38.0878 334.434 37.1519C340.535 45.3667 348.893 59.6405 354.726 70.7234C360.558 59.6405 370.387 45.3667 376.457 37.1519L376.378 37.5477C376.076 38.3672 375.915 39.232 375.902 40.1053V67.8553H385.005V9L355.446 53.8189ZM268.995 39.9409C268.995 28.6205 277.14 20.2474 288.805 20.2474C300.47 20.2474 308.7 28.6205 308.7 39.9409C308.7 51.1091 300.708 59.5614 288.805 59.5614C277.073 59.5614 268.995 51.3405 268.995 39.9409ZM288.805 68.5617C305.277 68.5617 318.285 56.9246 318.285 39.9409C318.285 23.2739 305.424 11.2349 288.805 11.2349C272.43 11.2349 259.404 22.9572 259.404 39.9409C259.404 56.7663 272.216 68.5617 288.805 68.5617ZM233.768 67.8492H243.194V20.9598H257.653V12.0326H219.321V20.9659H233.78L233.768 67.8492ZM166.194 9V67.8553H175.376V32.7674C175.424 31.8043 175.234 30.8441 174.821 29.9723L213.727 70.7234V12.0326H204.539V45.6041C204.501 46.4983 204.636 47.3912 204.935 48.2348L166.194 9ZM127.526 46.7185L135.274 28.6205L142.943 46.7185H127.526ZM135.384 9.08525L110.138 67.8553H120.046L124.567 55.6032H145.982L150.691 67.8857H160.599L135.384 9.08525Z" fill="black"/>
<path d="M95.612 67.8248H104.959V12.0021H95.612V35.2884H66.1199V12.0021H56.7733V67.8248H66.1199V44.5384H95.612V67.8248ZM16.9096 21.0146H31.4543C36.6462 21.0146 40.3983 23.9619 40.3983 28.4316C40.3983 32.9013 36.6462 35.6843 31.4543 35.6843H16.9035L16.9096 21.0146ZM16.9096 44.5384H31.4543C41.5209 44.5384 49.5863 38.4002 49.5863 28.2733C49.5863 18.3047 41.6002 12.0021 31.4543 12.0021H4L7.48365 21.0877V67.8248H16.9035L16.9096 44.5384Z" fill="black"/>
</svg>
