<svg width="151" height="19" viewBox="0 0 151 19" fill="none" xmlns="http://www.w3.org/2000/svg">
<path d="M8.88274 11.6611C10.4845 11.6611 11.8351 10.6201 11.8351 8.78678C11.8351 6.95345 10.4845 5.89295 8.88274 5.89295C7.28101 5.89295 5.95722 6.95589 5.95722 8.78678C5.95722 10.6177 7.28589 11.6611 8.88274 11.6611V11.6611ZM5.98891 11.5831C6.18494 11.9035 6.29183 12.2705 6.29853 12.646V16.359H3V3.86946H6.29853V4.75443C6.28544 5.12286 6.17889 5.48192 5.98891 5.79787C6.36129 5.11425 6.91264 4.54482 7.58388 4.15058C8.25513 3.75634 9.02098 3.55213 9.7994 3.55984C12.7517 3.55984 14.8337 5.52726 14.8337 8.67951C14.8337 11.8025 12.6396 13.7699 9.7994 13.7699C9.02291 13.7883 8.25625 13.5934 7.58273 13.2066C6.90921 12.8197 6.35459 12.2557 5.97916 11.5758" fill="#231F20"/>
<path d="M22.1548 5.89293C20.5531 5.89293 19.2025 6.95587 19.2025 8.78676C19.2025 10.6177 20.5531 11.6611 22.1548 11.6611C23.7566 11.6611 25.0804 10.6201 25.0804 8.78676C25.0804 6.95343 23.7493 5.89293 22.1548 5.89293ZM24.7391 13.5139V12.6046C24.7435 12.2241 24.8505 11.8518 25.0487 11.527C24.6719 12.2145 24.1159 12.7872 23.4399 13.1843C22.7639 13.5813 21.9929 13.7879 21.2089 13.7821C18.3346 13.7821 16.1941 11.8927 16.1941 8.78676C16.1941 5.61744 18.2785 3.55983 21.2284 3.55983C22.0085 3.55034 22.7764 3.7537 23.4495 4.14804C24.1226 4.54237 24.6755 5.11276 25.0487 5.79785C24.8632 5.49415 24.7568 5.14883 24.7391 4.79342V3.86944H28.0376V13.5139H24.7391Z" fill="#231F20"/>
<path d="M41.2488 9.57668C40.7855 12.3364 38.3354 13.7821 35.4806 13.7821C32.3357 13.7821 29.6564 12.0756 29.6564 8.66245C29.6564 5.24934 32.3381 3.54279 35.4806 3.54279C38.3062 3.55985 40.7612 5.14451 41.2488 7.82624H38.2477C37.9015 6.60727 36.88 5.84176 35.5099 5.84176C33.8691 5.84176 32.616 6.90226 32.616 8.67708C32.616 10.4519 33.8691 11.4734 35.5099 11.4734C36.88 11.4734 37.921 10.7981 38.2672 9.58155L41.2488 9.57668Z" fill="#231F20"/>
<path d="M48.3651 5.81737C46.7463 5.81737 45.4396 6.89738 45.4396 8.67219C45.4396 10.447 46.7512 11.5075 48.3651 11.5075C49.979 11.5075 51.2784 10.447 51.2784 8.67219C51.2784 6.89738 49.9863 5.81737 48.3651 5.81737V5.81737ZM48.3651 3.57935C51.471 3.57935 54.2673 5.2859 54.2673 8.67219C54.2673 12.0585 51.471 13.765 48.3651 13.765C45.2592 13.765 42.4677 12.0658 42.4677 8.67219C42.4677 5.27859 45.2641 3.57935 48.37 3.57935" fill="#231F20"/>
<path d="M63.6436 4.85192C63.6214 5.31747 63.4956 5.7722 63.2755 6.18303C64.1824 4.3497 65.5525 3.55981 67.0177 3.55981C67.6178 3.54254 68.2151 3.64789 68.773 3.86943V7.01193C68.1464 6.50572 67.3598 6.23949 66.5545 6.26104C64.8967 6.26104 63.6436 7.07044 63.6436 8.80625V13.5139H60.3451V3.86943H63.6436V4.85192Z" fill="#231F20"/>
<path d="M75.5164 5.89295C73.9147 5.89295 72.5641 6.95589 72.5641 8.78678C72.5641 10.6177 73.9147 11.6611 75.5164 11.6611C77.1181 11.6611 78.4419 10.6201 78.4419 8.78678C78.4419 6.95345 77.1108 5.89295 75.5164 5.89295ZM78.1006 13.5139V12.6046C78.105 12.2241 78.212 11.8518 78.4102 11.527C78.0336 12.2147 77.4777 12.7876 76.8016 13.1846C76.1256 13.5817 75.3545 13.7882 74.5705 13.7821C71.6961 13.7821 69.5556 11.8927 69.5556 8.78678C69.5556 5.61746 71.6401 3.55984 74.59 3.55984C75.3701 3.55009 76.1381 3.75334 76.8113 4.1477C77.4844 4.54207 78.0373 5.1126 78.4102 5.79787C78.2248 5.49417 78.1183 5.14885 78.1006 4.79344V3.86946H81.3991V13.5139H78.1006Z" fill="#231F20"/>
<path d="M89.3322 11.6611C90.9339 11.6611 92.2845 10.6201 92.2845 8.78677C92.2845 6.95344 90.9339 5.89294 89.3322 5.89294C87.7305 5.89294 86.4067 6.95344 86.4067 8.78677C86.4067 10.6201 87.7378 11.6611 89.3322 11.6611V11.6611ZM95.2954 8.69169C95.2954 11.861 93.2109 13.8114 90.2586 13.8114C89.4791 13.8209 88.7118 13.6178 88.0391 13.2239C87.3664 12.83 86.8139 12.2602 86.4408 11.5758C86.6296 11.8912 86.7353 12.2494 86.748 12.6168V13.5042H83.4738V1H86.748V4.79343C86.7376 5.16733 86.6319 5.53239 86.4408 5.85393C86.8126 5.16853 87.3633 4.59682 88.0343 4.19969C88.7054 3.80257 89.4715 3.59491 90.2513 3.59884C93.0866 3.59884 95.288 5.56625 95.288 8.69169" fill="#231F20"/>
<path d="M102.441 5.89293C100.839 5.89293 99.4886 6.95587 99.4886 8.78676C99.4886 10.6177 100.839 11.6611 102.441 11.6611C104.043 11.6611 105.366 10.6201 105.366 8.78676C105.366 6.95343 104.035 5.89293 102.441 5.89293ZM105.025 13.5139V12.6046C105.03 12.2241 105.137 11.8518 105.335 11.527C104.958 12.2145 104.402 12.7872 103.726 13.1843C103.05 13.5813 102.279 13.7879 101.495 13.7821C98.6207 13.7821 96.4802 11.8927 96.4802 8.78676C96.4802 5.61744 98.5622 3.55983 101.515 3.55983C102.295 3.55034 103.062 3.7537 103.736 4.14804C104.409 4.54237 104.962 5.11276 105.335 5.79785C105.149 5.49415 105.043 5.14883 105.025 4.79342V3.86944H108.324V13.5139H105.025Z" fill="#231F20"/>
<path d="M113.655 4.77395C113.636 5.2158 113.511 5.64651 113.29 6.02949C114.158 4.35219 115.74 3.59155 117.398 3.59155C119.499 3.59155 121.411 4.67156 121.411 7.04367V13.5066H118.1V8.31383C118.1 6.90715 117.368 6.11969 115.937 6.11969C114.453 6.11969 113.643 6.95103 113.643 8.28214V13.5286H110.345V3.86948H113.655V4.77395Z" fill="#231F20"/>
<path d="M126.518 4.77395C126.499 5.21608 126.372 5.64692 126.15 6.02949C127.018 4.35219 128.588 3.59155 130.26 3.59155C132.362 3.59155 134.271 4.67156 134.271 7.04367V13.5066H130.965V8.31383C130.965 6.90715 130.233 6.11969 128.805 6.11969C127.32 6.11969 126.511 6.95103 126.511 8.28214V13.5286H123.219V3.86948H126.518V4.77395Z" fill="#231F20"/>
<path d="M144.071 7.3971C143.827 6.42192 142.913 5.7198 141.504 5.7198C140.095 5.7198 139.112 6.3756 138.805 7.3971H144.071ZM138.708 9.36451C138.842 10.7346 139.98 11.5587 141.523 11.5587C142.76 11.5587 143.703 11.1125 144.147 10.208H146.982C146.404 12.4851 144.205 13.7942 141.484 13.7942C138.342 13.7942 135.719 12.0877 135.719 8.70383C135.719 5.34679 138.437 3.58417 141.57 3.58417C144.405 3.58417 147.009 5.24196 147.009 8.70383C147.015 8.92315 147.002 9.14258 146.97 9.35964L138.708 9.36451Z" fill="#231F20"/>
</svg>
