<svg width="256" height="256" viewBox="0 0 256 256" fill="none" xmlns="http://www.w3.org/2000/svg">
<g clip-path="url(#clip0_244_1553)">
<path d="M43.3568 171.68H28V186.023H43.3568V171.68Z" fill="white"/>
<path d="M227.855 171.68H212.498V186.023H227.855V171.68Z" fill="white"/>
<path d="M34.5194 163.096H29.3039V131.658H47.5944C52.0131 131.658 54.6932 132.419 56.8302 134.339C58.7498 136.113 59.8363 138.685 59.8363 141.474C59.8363 143.466 59.2568 145.494 58.2065 147.015C55.4901 150.963 50.8178 150.963 48.029 150.963H34.5194V163.096ZM34.447 146.291H47.4495C49.0069 146.291 50.9989 146.291 52.3752 145.313C53.6067 144.48 54.3673 142.959 54.3673 141.256C54.3673 139.88 53.9689 138.757 53.1358 137.924C51.5784 136.294 49.0431 136.294 46.9787 136.294H34.447V146.291Z" fill="white"/>
<path d="M81.1692 163.929C76.0985 163.929 71.9696 162.77 68.891 160.452C66.1021 158.424 62.77 154.585 62.77 147.776C62.77 136.15 71.8609 130.934 80.8794 130.934C91.8537 131.007 99.2423 137.779 99.2423 147.812C99.2423 158.931 90.1514 163.929 81.1692 163.929ZM80.9881 135.606C80.807 135.606 80.6259 135.606 80.4448 135.606C74.36 135.787 67.9131 139.011 67.9131 147.486C67.9131 149.188 68.2391 152.412 70.3397 154.947C72.6577 157.736 76.2796 159.148 81.1692 159.148C93.1213 159.148 94.063 150.13 94.063 147.341C94.063 140.242 88.9562 135.606 80.9881 135.606Z" fill="white"/>
<path d="M138.395 163.096H131.694L121.807 150.927H108.442V163.096H103.335V131.658H123.69C126.334 131.695 129.557 131.767 132.201 134.23C133.216 135.172 134.954 137.309 134.954 141.112C134.954 147.957 130.028 149.551 127.529 150.058L138.395 163.096ZM108.442 146.363H122.386C124.451 146.363 127.276 146.363 128.797 144.226C129.376 143.43 129.702 142.452 129.702 141.293C129.702 140.206 129.413 139.12 128.906 138.323C127.747 136.367 125.899 136.331 124.088 136.294H123.98H108.442V146.363Z" fill="white"/>
<path d="M155.852 163.096H150.745V136.294H138.829V131.658H167.768V136.258H155.816V163.096H155.852Z" fill="white"/>
<path d="M199.786 163.096H193.954L181.568 138.504L169.507 163.096H163.784L179.358 131.658H184.356L199.786 163.096Z" fill="white"/>
<path d="M227.855 163.096H203.407V131.658H208.514V158.388H227.855V163.096Z" fill="white"/>
<path fill-rule="evenodd" clip-rule="evenodd" d="M197.685 112.571C195.838 108.841 193.737 105.219 191.419 101.923C192.469 100.003 192.976 97.9026 192.976 95.6208C192.976 88.4495 187.363 82.6183 180.445 82.6183C178.235 82.6183 176.135 83.1978 174.251 84.3205C160.959 74.2879 145.313 69 128.942 69C100.039 69 73.4183 86.2764 60.2709 112.752H29.4125V122.06H66.1384V121.807L66.3195 121.372C77.0402 95.2586 101.597 78.4169 128.905 78.4169C143.212 78.4169 156.903 82.9804 168.493 91.6367C168.058 92.9406 167.841 94.3169 167.841 95.7294C167.841 102.865 173.418 108.66 180.336 108.66C181.604 108.66 182.944 108.442 184.248 108.008C187.254 112.354 189.717 116.881 191.6 121.409L191.781 121.843H191.854V122.169H228V112.607H197.685V112.571ZM180.409 102.502C176.678 102.502 173.672 99.3513 173.672 95.5121C173.672 91.6729 176.678 88.5219 180.409 88.5219C184.103 88.5219 187.145 91.6367 187.145 95.5121C187.181 99.3513 184.139 102.502 180.409 102.502Z" fill="white"/>
<path d="M49.188 171.68H58.9308V172.948H50.9627V178.091H58.6773V179.395H50.9627V184.646H58.9308V185.95H49.188V171.68Z" fill="white"/>
<path d="M71.1728 181.93C71.2814 183.741 72.6939 184.864 74.9033 184.864C76.7867 184.864 78.4889 183.705 78.4889 182.039C78.4889 179.829 75.7001 179.286 74.5049 178.996C72.875 178.598 69.8689 178.055 69.8689 175.23C69.8689 173.02 72.042 171.427 74.9033 171.427C77.8008 171.427 79.829 173.201 79.829 175.302H78.0181C78.0181 173.853 76.5693 172.731 74.8671 172.731C72.8388 172.731 71.6436 173.998 71.6436 175.23C71.6436 176.968 73.527 177.367 75.8812 177.91C80.2274 178.851 80.2274 181.568 80.2274 182.003C80.2274 184.212 78.0181 186.168 74.8671 186.168C72.5491 186.168 69.4343 185.081 69.3618 181.93H71.1728Z" fill="white"/>
<path d="M107.862 182.184C105.979 184.972 102.502 186.168 99.6407 186.168C94.6425 186.168 90.2963 183.017 90.2963 178.815C90.2963 174.614 94.5339 171.427 99.6045 171.427C104.168 171.427 107.066 173.998 107.79 175.302H105.798C103.842 172.984 100.691 172.694 99.6045 172.694C95.4393 172.694 92.1072 175.628 92.1072 178.815C92.1072 182.147 95.7653 184.864 99.6407 184.864C100.546 184.864 103.444 184.791 105.87 182.184H107.862Z" fill="white"/>
<path d="M127.746 171.427C132.745 171.427 137.2 174.614 137.2 178.815C137.2 183.017 132.745 186.204 127.746 186.204C122.676 186.204 118.33 182.908 118.33 178.924C118.33 174.397 123.002 171.427 127.746 171.427ZM127.746 184.9C131.875 184.9 135.425 182.22 135.425 178.815C135.425 175.483 131.984 172.694 127.746 172.694C123.726 172.694 120.104 175.302 120.104 178.888C120.104 182.111 123.618 184.9 127.746 184.9Z" fill="white"/>
<path d="M148.427 171.68H152.918C158.532 171.68 158.75 174.904 158.75 175.483C158.75 177.149 157.41 177.946 156.794 178.344C158.569 178.924 159.764 180.228 159.764 181.858C159.764 183.234 158.967 184.465 157.699 185.154C156.323 185.842 155.164 185.95 153.353 185.95H148.427V171.68ZM150.238 177.801H152.484C153.896 177.801 154.657 177.729 155.526 177.403C156.395 177.041 156.975 176.244 156.975 175.411C156.975 174.759 156.685 174.288 156.251 173.853C155.526 173.238 154.44 172.948 152.629 172.948H150.238V177.801V177.801ZM150.238 184.646H152.737C154.222 184.646 155.164 184.574 156.106 184.284C157.229 183.922 157.989 182.944 157.989 181.858C157.989 180.735 157.084 179.793 155.888 179.431C155.055 179.141 154.295 179.105 152.411 179.105H150.238V184.646V184.646Z" fill="white"/>
<path d="M176.606 171.68H178.598L186.276 185.95H184.32L181.749 181.133H173.455L170.847 185.95H169L176.606 171.68ZM174.106 179.829H181.024L177.62 173.274L174.106 179.829Z" fill="white"/>
<path d="M196.635 171.68H201.162C203.552 171.68 204.748 171.897 205.544 172.223C207.536 172.984 208.732 174.541 208.732 176.28C208.732 178.344 206.884 180.445 203.407 180.626L208.442 185.95H206.196L200.148 179.467C202.43 179.467 203.19 179.467 203.987 179.25C205.943 178.815 206.957 177.511 206.957 176.244C206.957 175.121 206.16 173.962 205.001 173.491C203.951 173.056 203.009 172.948 201.524 172.948H198.409V185.95H196.635V171.68Z" fill="white"/>
</g>
<defs>
<clipPath id="clip0_244_1553">
<rect width="256" height="256" fill="white"/>
</clipPath>
</defs>
</svg>
