<?xml version="1.0" encoding="utf-8"?>
<!-- Generator: Adobe Illustrator 21.0.0, SVG Export Plug-In . SVG Version: 6.00 Build 0)  -->
<svg version="1.1" id="Layer_1" xmlns="http://www.w3.org/2000/svg" xmlns:xlink="http://www.w3.org/1999/xlink" x="0px" y="0px"
	 width="1092.8px" height="1448.3px" viewBox="0 0 1092.8 1448.3" style="enable-background:new 0 0 1092.8 1448.3;"
	 xml:space="preserve">
<style type="text/css">
	.st0{fill:#FFFFFF;}
	.st1{enable-background:new    ;}
	.st2{fill:none;stroke:#DDDDDD;stroke-linecap:round;stroke-linejoin:round;stroke-miterlimit:10;}
</style>
<g>
	<path class="st0" d="M-9115.7,673.1c96.5,0,180.2,34.8,249,103.4c68.7,68.6,103.5,152.3,103.5,248.9c0,96.9-34.8,180.8-103.5,249.4
		s-152.5,103.4-249,103.4s-180.2-34.8-248.9-103.4s-103.5-152.5-103.5-249.4c0-96.6,34.8-180.4,103.5-248.9
		C-9295.9,707.9-9212.2,673.1-9115.7,673.1 M-9115.7,612.1c-56.1,0-109.4,10.3-158.3,30.6c-48.9,20.3-93.9,50.8-133.7,90.6
		s-70.4,84.8-90.7,133.7c-20.4,48.9-30.7,102.2-30.7,158.4c0,56.3,10.3,109.7,30.7,158.7c20.3,49,50.9,94.1,90.8,133.9
		c39.8,39.8,84.8,70.3,133.7,90.6c48.9,20.3,102.2,30.6,158.3,30.6s109.3-10.3,158.3-30.6c48.9-20.3,93.9-50.8,133.8-90.6
		c39.9-39.9,70.4-84.9,90.8-133.9c20.3-49,30.6-102.4,30.6-158.7c0-56.2-10.3-109.4-30.7-158.4c-20.3-48.9-50.9-93.9-90.7-133.7
		c-39.9-39.8-84.9-70.3-133.8-90.6C-9006.4,622.4-9059.6,612.1-9115.7,612.1L-9115.7,612.1z"/>
</g>
<g>
	
		<text transform="matrix(1 0 0 1 -9232.4121 491.9988)" class="st0" style="font-family:'GothamRounded-Medium'; font-size:56.6015px;">Loading..</text>
	<g>
		<g>
			<path class="st0" d="M-9115.7,396.9c-50.1,0-93.5-18.1-129.1-53.9c-35.6-35.7-53.6-79.5-53.6-130.1c0-7.5,6.1-13.6,13.6-13.6
				s13.6,6.1,13.6,13.6c0,43.1,15.4,80.4,45.7,110.9s67.3,45.9,109.8,45.9c42.6,0,79.5-15.4,109.9-45.9
				c30.3-30.5,45.7-67.8,45.7-110.9c0-42.9-15.4-80.1-45.7-110.6s-67.3-45.9-109.9-45.9c-7.5,0-13.6-6.1-13.6-13.6
				s6.1-13.6,13.6-13.6c50,0,93.5,18.1,129.1,53.9s53.6,79.4,53.6,129.8c0,50.5-18,94.3-53.6,130.1S-9065.6,396.9-9115.7,396.9z"/>
		</g>
		<g>
			<g>
				<path class="st0" d="M-9115.7,322.3c-56.7,0-102.8-46.2-102.8-102.9c0-25.5,9.4-50,26.4-68.9c2.8-3.1,6.7-4.8,10.8-4.8
					c3.6,0,7,1.3,9.7,3.7c2.9,2.6,4.6,6.2,4.8,10c0.2,3.9-1.1,7.6-3.7,10.5c-12.2,13.6-19,31.1-19,49.4c0,40.7,33.1,73.8,73.8,73.8
					s73.8-33.1,73.8-73.8c0-18.2-6.7-35.7-18.8-49.2c-2.6-2.9-3.9-6.6-3.7-10.5s1.9-7.4,4.8-10c2.7-2.4,6.1-3.7,9.7-3.7
					c4.1,0,8.1,1.8,10.8,4.8c16.9,18.9,26.2,43.3,26.2,68.6C-9012.9,276.2-9059,322.3-9115.7,322.3z"/>
			</g>
			<g>
				<path class="st0" d="M-9151,120.5c0-7.6,6.2-13.8,13.8-13.8s13.8,6.2,13.8,13.8v97.8c0,7.6-6.2,13.8-13.8,13.8
					s-13.8-6.2-13.8-13.8V120.5z"/>
			</g>
			<g>
				<path class="st0" d="M-9108,120.5c0-7.6,6.2-13.8,13.8-13.8s13.8,6.2,13.8,13.8v97.8c0,7.6-6.2,13.8-13.8,13.8
					s-13.8-6.2-13.8-13.8V120.5z"/>
			</g>
		</g>
	</g>
</g>
<g>
	<line class="st2" x1="54.1" y1="3.7" x2="30.6" y2="26.5"/>
	<line class="st2" x1="30.6" y1="26.5" x2="3" y2="53.2"/>
	<line class="st2" x1="117.7" y1="59.3" x2="77.1" y2="109.9"/>
	<line class="st2" x1="144.1" y1="26.5" x2="117.7" y2="59.3"/>
	<line class="st2" x1="77.1" y1="109.9" x2="19.1" y2="182.2"/>
	<line class="st2" x1="162.4" y1="3.7" x2="144.1" y2="26.5"/>
	<line class="st2" x1="3" y1="202.2" x2="19.1" y2="182.2"/>
	<line class="st2" x1="3" y1="470.6" x2="36.5" y2="412.2"/>
	<line class="st2" x1="257.6" y1="26.5" x2="238.8" y2="59.3"/>
	<line class="st2" x1="168.3" y1="182.2" x2="209.8" y2="109.9"/>
	<line class="st2" x1="238.8" y1="59.3" x2="209.8" y2="109.9"/>
	<line class="st2" x1="111.6" y1="281.2" x2="168.3" y2="182.2"/>
	<line class="st2" x1="36.5" y1="412.2" x2="111.6" y2="281.2"/>
	<line class="st2" x1="270.6" y1="3.7" x2="257.6" y2="26.5"/>
	<line class="st2" x1="762.5" y1="1444.9" x2="738.7" y2="1239.1"/>
	<line class="st2" x1="598.1" y1="26.5" x2="601.9" y2="59.3"/>
	<line class="st2" x1="627.6" y1="281.2" x2="616.2" y2="182.2"/>
	<line class="st2" x1="738.7" y1="1239.1" x2="697.1" y2="880.1"/>
	<line class="st2" x1="616.2" y1="182.2" x2="607.8" y2="109.9"/>
	<line class="st2" x1="601.9" y1="59.3" x2="607.8" y2="109.9"/>
	<line class="st2" x1="627.6" y1="281.2" x2="642.8" y2="412.2"/>
	<line class="st2" x1="665" y1="603.4" x2="642.8" y2="412.2"/>
	<line class="st2" x1="595.5" y1="3.7" x2="598.1" y2="26.5"/>
	<line class="st2" x1="697.1" y1="880.1" x2="665" y2="603.4"/>
	<line class="st2" x1="1047" y1="412.2" x2="1089.8" y2="486.6"/>
	<line class="st2" x1="1047" y1="412.2" x2="971.7" y2="281.2"/>
	<line class="st2" x1="844" y1="59.3" x2="873.1" y2="109.9"/>
	<line class="st2" x1="812" y1="3.7" x2="825.1" y2="26.5"/>
	<line class="st2" x1="971.7" y1="281.2" x2="914.7" y2="182.2"/>
	<line class="st2" x1="873.1" y1="109.9" x2="914.7" y2="182.2"/>
	<line class="st2" x1="825.1" y1="26.5" x2="844" y2="59.3"/>
	<line class="st2" x1="938.6" y1="26.5" x2="965.1" y2="59.3"/>
	<line class="st2" x1="1064" y1="182.2" x2="1089.8" y2="214.3"/>
	<line class="st2" x1="920.3" y1="3.7" x2="938.6" y2="26.5"/>
	<line class="st2" x1="1005.8" y1="109.9" x2="1064" y2="182.2"/>
	<line class="st2" x1="965.1" y1="59.3" x2="1005.8" y2="109.9"/>
	<line class="st2" x1="378.9" y1="3.7" x2="371.1" y2="26.5"/>
	<line class="st2" x1="3" y1="1098" x2="77.9" y2="880.1"/>
	<line class="st2" x1="238.6" y1="412.2" x2="283.6" y2="281.2"/>
	<line class="st2" x1="172.9" y1="603.4" x2="77.9" y2="880.1"/>
	<line class="st2" x1="359.8" y1="59.3" x2="342.5" y2="109.9"/>
	<line class="st2" x1="283.6" y1="281.2" x2="317.6" y2="182.2"/>
	<line class="st2" x1="371.1" y1="26.5" x2="359.8" y2="59.3"/>
	<line class="st2" x1="317.6" y1="182.2" x2="342.5" y2="109.9"/>
	<line class="st2" x1="172.9" y1="603.4" x2="238.6" y2="412.2"/>
	<line class="st2" x1="466.9" y1="182.2" x2="475.1" y2="109.9"/>
	<line class="st2" x1="440.7" y1="412.2" x2="419" y2="603.4"/>
	<line class="st2" x1="487.2" y1="3.7" x2="484.6" y2="26.5"/>
	<line class="st2" x1="387.5" y1="880.1" x2="419" y2="603.4"/>
	<line class="st2" x1="480.9" y1="59.3" x2="475.1" y2="109.9"/>
	<line class="st2" x1="323.2" y1="1444.9" x2="346.6" y2="1239.1"/>
	<line class="st2" x1="440.7" y1="412.2" x2="455.6" y2="281.2"/>
	<line class="st2" x1="455.6" y1="281.2" x2="466.9" y2="182.2"/>
	<line class="st2" x1="484.6" y1="26.5" x2="480.9" y2="59.3"/>
	<line class="st2" x1="346.6" y1="1239.1" x2="387.5" y2="880.1"/>
	<line class="st2" x1="911" y1="603.4" x2="844.9" y2="412.2"/>
	<line class="st2" x1="1006.7" y1="880.1" x2="911" y2="603.4"/>
	<line class="st2" x1="723" y1="59.3" x2="740.4" y2="109.9"/>
	<line class="st2" x1="1006.7" y1="880.1" x2="1089.8" y2="1120.8"/>
	<line class="st2" x1="765.4" y1="182.2" x2="740.4" y2="109.9"/>
	<line class="st2" x1="711.6" y1="26.5" x2="723" y2="59.3"/>
	<line class="st2" x1="844.9" y1="412.2" x2="799.7" y2="281.2"/>
	<line class="st2" x1="765.4" y1="182.2" x2="799.7" y2="281.2"/>
	<line class="st2" x1="703.8" y1="3.7" x2="711.6" y2="26.5"/>
	<line class="st2" x1="1052.1" y1="26.5" x2="1086.1" y2="59.3"/>
	<line class="st2" x1="1028.6" y1="3.7" x2="1052.1" y2="26.5"/>
	<line class="st2" x1="1089.8" y1="62.9" x2="1086.1" y2="59.3"/>
	<line class="st2" x1="346.6" y1="1239.1" x2="3" y2="1239.1"/>
	<line class="st2" x1="346.6" y1="1239.1" x2="738.7" y2="1239.1"/>
	<line class="st2" x1="738.7" y1="1239.1" x2="1089.8" y2="1239.1"/>
	<line class="st2" x1="3" y1="880.1" x2="77.9" y2="880.1"/>
	<line class="st2" x1="1006.7" y1="880.1" x2="1089.8" y2="880.1"/>
	<line class="st2" x1="697.1" y1="880.1" x2="1006.7" y2="880.1"/>
	<line class="st2" x1="387.5" y1="880.1" x2="697.1" y2="880.1"/>
	<line class="st2" x1="77.9" y1="880.1" x2="387.5" y2="880.1"/>
	<line class="st2" x1="172.9" y1="603.4" x2="419" y2="603.4"/>
	<line class="st2" x1="911" y1="603.4" x2="1089.8" y2="603.4"/>
	<line class="st2" x1="419" y1="603.4" x2="665" y2="603.4"/>
	<line class="st2" x1="3" y1="603.4" x2="172.9" y2="603.4"/>
	<line class="st2" x1="665" y1="603.4" x2="911" y2="603.4"/>
	<line class="st2" x1="1047" y1="412.2" x2="1089.8" y2="412.2"/>
	<line class="st2" x1="36.5" y1="412.2" x2="3" y2="412.2"/>
	<line class="st2" x1="440.7" y1="412.2" x2="642.8" y2="412.2"/>
	<line class="st2" x1="36.5" y1="412.2" x2="238.6" y2="412.2"/>
	<line class="st2" x1="844.9" y1="412.2" x2="1047" y2="412.2"/>
	<line class="st2" x1="642.8" y1="412.2" x2="844.9" y2="412.2"/>
	<line class="st2" x1="238.6" y1="412.2" x2="440.7" y2="412.2"/>
	<line class="st2" x1="283.6" y1="281.2" x2="455.6" y2="281.2"/>
	<line class="st2" x1="455.6" y1="281.2" x2="627.6" y2="281.2"/>
	<line class="st2" x1="111.6" y1="281.2" x2="283.6" y2="281.2"/>
	<line class="st2" x1="3" y1="281.2" x2="111.6" y2="281.2"/>
	<line class="st2" x1="971.7" y1="281.2" x2="1089.8" y2="281.2"/>
	<line class="st2" x1="627.6" y1="281.2" x2="799.7" y2="281.2"/>
	<line class="st2" x1="799.7" y1="281.2" x2="971.7" y2="281.2"/>
	<line class="st2" x1="914.7" y1="182.2" x2="1064" y2="182.2"/>
	<line class="st2" x1="765.4" y1="182.2" x2="914.7" y2="182.2"/>
	<line class="st2" x1="1089.8" y1="182.2" x2="1064" y2="182.2"/>
	<line class="st2" x1="3" y1="182.2" x2="19.1" y2="182.2"/>
	<line class="st2" x1="466.9" y1="182.2" x2="616.2" y2="182.2"/>
	<line class="st2" x1="168.3" y1="182.2" x2="317.6" y2="182.2"/>
	<line class="st2" x1="317.6" y1="182.2" x2="466.9" y2="182.2"/>
	<line class="st2" x1="616.2" y1="182.2" x2="765.4" y2="182.2"/>
	<line class="st2" x1="19.1" y1="182.2" x2="168.3" y2="182.2"/>
	<line class="st2" x1="607.8" y1="109.9" x2="475.1" y2="109.9"/>
	<line class="st2" x1="342.5" y1="109.9" x2="209.8" y2="109.9"/>
	<line class="st2" x1="209.8" y1="109.9" x2="77.1" y2="109.9"/>
	<line class="st2" x1="475.1" y1="109.9" x2="342.5" y2="109.9"/>
	<line class="st2" x1="3" y1="109.9" x2="77.1" y2="109.9"/>
	<line class="st2" x1="740.4" y1="109.9" x2="607.8" y2="109.9"/>
	<line class="st2" x1="873.1" y1="109.9" x2="740.4" y2="109.9"/>
	<line class="st2" x1="1005.8" y1="109.9" x2="873.1" y2="109.9"/>
	<line class="st2" x1="1089.8" y1="109.9" x2="1005.8" y2="109.9"/>
	<line class="st2" x1="844" y1="59.3" x2="723" y2="59.3"/>
	<line class="st2" x1="1089.8" y1="59.3" x2="1086.1" y2="59.3"/>
	<line class="st2" x1="965.1" y1="59.3" x2="844" y2="59.3"/>
	<line class="st2" x1="1086.1" y1="59.3" x2="965.1" y2="59.3"/>
	<line class="st2" x1="238.8" y1="59.3" x2="117.7" y2="59.3"/>
	<line class="st2" x1="723" y1="59.3" x2="601.9" y2="59.3"/>
	<line class="st2" x1="359.8" y1="59.3" x2="238.8" y2="59.3"/>
	<line class="st2" x1="117.7" y1="59.3" x2="3" y2="59.3"/>
	<line class="st2" x1="601.9" y1="59.3" x2="480.9" y2="59.3"/>
	<line class="st2" x1="480.9" y1="59.3" x2="359.8" y2="59.3"/>
	<line class="st2" x1="144.1" y1="26.5" x2="30.6" y2="26.5"/>
	<line class="st2" x1="484.6" y1="26.5" x2="371.1" y2="26.5"/>
	<line class="st2" x1="30.6" y1="26.5" x2="3" y2="26.5"/>
	<line class="st2" x1="371.1" y1="26.5" x2="257.6" y2="26.5"/>
	<line class="st2" x1="257.6" y1="26.5" x2="144.1" y2="26.5"/>
	<line class="st2" x1="1052.1" y1="26.5" x2="938.6" y2="26.5"/>
	<line class="st2" x1="938.6" y1="26.5" x2="825.1" y2="26.5"/>
	<line class="st2" x1="1089.8" y1="26.5" x2="1052.1" y2="26.5"/>
	<line class="st2" x1="711.6" y1="26.5" x2="598.1" y2="26.5"/>
	<line class="st2" x1="598.1" y1="26.5" x2="484.6" y2="26.5"/>
	<line class="st2" x1="825.1" y1="26.5" x2="711.6" y2="26.5"/>
</g>
</svg>
