<svg width="256" height="256" viewBox="0 0 256 256" fill="none" xmlns="http://www.w3.org/2000/svg">
<g clip-path="url(#clip0_245_2636)">
<path d="M227.857 172.389H212.4V186.841H227.857V172.389Z" fill="#666666"/>
<path d="M43.4563 172.389H28V186.841H43.4563V172.389Z" fill="#666666"/>
<path d="M33.2358 163.746H28V132.116H46.4329C50.8797 132.116 53.5693 132.905 55.721 134.806C57.6575 136.599 58.7692 139.217 58.7692 141.978C58.7692 143.987 58.1596 146.031 57.1555 147.573C54.43 151.518 49.7321 151.518 46.8991 151.518H33.2717V163.746H33.2358ZM33.1999 146.82H46.2535C47.8315 146.82 49.8038 146.82 51.2024 145.816C52.4576 144.991 53.2107 143.485 53.2107 141.763C53.2107 140.365 52.8162 139.253 51.9914 138.392C50.4135 136.778 47.8673 136.778 45.8232 136.778H33.1999V146.82Z" fill="#666666"/>
<path d="M80.2145 164.571C75.1222 164.571 70.9622 163.388 67.8423 161.093C65.0451 159.048 61.71 155.175 61.71 148.326C61.71 136.635 70.8547 131.399 79.9276 131.399C90.973 131.435 98.3964 138.285 98.3964 148.398C98.3964 159.551 89.2517 164.571 80.2145 164.571ZM80.0352 136.061C79.8559 136.061 79.6766 136.061 79.4973 136.061C73.4008 136.24 66.874 139.468 66.874 148.039C66.874 149.76 67.1968 153.024 69.3485 155.534C71.6795 158.367 75.3374 159.802 80.2504 159.802C92.2999 159.802 93.2323 150.729 93.2323 147.931C93.1964 140.723 88.0324 136.061 80.0352 136.061Z" fill="#666666"/>
<path d="M137.844 163.746H131.102L121.132 151.482H107.684V163.71H102.52V132.081H122.997C125.651 132.116 128.914 132.188 131.568 134.698C132.608 135.631 134.329 137.783 134.329 141.62C134.329 148.505 129.381 150.119 126.87 150.621L137.844 163.746ZM107.648 146.891H121.67C123.75 146.891 126.583 146.891 128.125 144.74C128.735 143.951 129.022 142.947 129.022 141.763C129.022 140.651 128.735 139.576 128.233 138.787C127.05 136.85 125.185 136.814 123.392 136.743H123.284H107.648V146.891Z" fill="#666666"/>
<path d="M155.38 163.746H150.252V136.743H138.274V132.116H167.43V136.743H155.416V163.746H155.38Z" fill="#666666"/>
<path d="M199.633 163.746H193.752L181.308 138.966L169.151 163.746H163.377L179.049 132.116H184.07L199.633 163.746Z" fill="#666666"/>
<path d="M227.857 163.746H203.22V132.116H208.384V159.013H227.857V163.746Z" fill="#666666"/>
<path fill-rule="evenodd" clip-rule="evenodd" d="M227.893 112.859H197.482C195.617 109.093 193.501 105.471 191.17 102.136C192.21 100.2 192.748 98.0479 192.748 95.7886C192.748 88.5446 187.082 82.6991 180.125 82.6991C177.866 82.6991 175.786 83.2729 173.885 84.4205C160.544 74.3075 144.765 69 128.305 69C99.1853 69 72.3967 86.357 59.1997 113.038H28.1077V122.398H65.0809V122.111L65.2603 121.717C76.0187 95.43 100.763 78.4316 128.269 78.4316C142.685 78.4316 156.456 83.0219 168.111 91.7362C167.681 93.0631 167.466 94.4617 167.466 95.8603C167.466 103.033 173.096 108.878 180.017 108.878C181.272 108.878 182.635 108.663 183.962 108.233C186.974 112.608 189.485 117.162 191.35 121.752L191.529 122.183H191.601V122.505H228V112.895H227.893V112.859ZM180.125 102.71C176.395 102.71 173.347 99.5541 173.347 95.681C173.347 91.808 176.395 88.6521 180.125 88.6521C183.854 88.6521 186.903 91.808 186.903 95.681C186.903 99.5541 183.854 102.71 180.125 102.71Z" fill="#666666"/>
<path d="M53.2466 173.644H49.1226V172.353H59.1279V173.644H55.0397V186.698H53.2466V173.644Z" fill="#666666"/>
<path d="M69.2409 172.353V181.318C69.2409 182.358 69.4202 183.327 69.8505 183.9C70.9622 185.514 72.7194 185.658 73.5801 185.658C74.4408 185.658 76.198 185.514 77.2739 183.9C77.7042 183.291 77.8835 182.358 77.8835 181.318V172.353H79.6766V181.318C79.6766 182.538 79.4255 183.542 78.9952 184.295C77.7759 186.447 75.2297 186.985 73.5801 186.985C71.8946 186.985 69.3843 186.447 68.165 184.295C67.7347 183.542 67.4836 182.502 67.4836 181.318V172.353H69.2409Z" fill="#666666"/>
<path d="M106.501 182.968C104.6 185.765 101.122 186.985 98.217 186.985C93.1964 186.985 88.8213 183.829 88.8213 179.561C88.8213 175.33 93.053 172.138 98.1812 172.138C102.807 172.138 105.712 174.72 106.393 176.047H104.385C102.413 173.716 99.257 173.429 98.1453 173.429C93.9495 173.429 90.6144 176.37 90.6144 179.597C90.6144 182.968 94.3081 185.694 98.1812 185.694C99.0777 185.694 102.018 185.586 104.457 182.968H106.501V182.968Z" fill="#666666"/>
<path d="M117.439 172.353V181.318C117.439 182.358 117.618 183.327 118.048 183.9C119.124 185.514 120.917 185.658 121.742 185.658C122.603 185.658 124.36 185.514 125.436 183.9C125.83 183.291 126.046 182.358 126.046 181.318V172.353H127.839V181.318C127.839 182.538 127.588 183.542 127.157 184.295C125.938 186.447 123.392 186.985 121.742 186.985C120.057 186.985 117.546 186.447 116.291 184.295C115.861 183.542 115.61 182.502 115.61 181.318V172.353H117.439Z" fill="#666666"/>
<path d="M137.844 172.353H140.605L147.132 184.582L153.695 172.353H156.456V186.698H154.663V173.895H154.627L147.921 186.698H146.379L139.709 173.895H139.673V186.698H137.88V172.353H137.844Z" fill="#666666"/>
<path d="M172.558 172.353H174.566L182.277 186.698H180.304L177.722 181.856H169.366L166.749 186.698H164.884L172.558 172.353ZM170.048 180.601H177.005L173.562 174.003L170.048 180.601Z" fill="#666666"/>
<path d="M190.668 172.353H193.107L203.112 184.259H203.148V172.353H204.941V186.698H203.148L192.533 174.074H192.461V186.698H190.668V172.353Z" fill="#666666"/>
</g>
<defs>
<clipPath id="clip0_245_2636">
<rect width="256" height="256" fill="white"/>
</clipPath>
</defs>
</svg>
