<svg width="610" height="305" viewBox="0 0 610 305" fill="none" xmlns="http://www.w3.org/2000/svg">
<path fill-rule="evenodd" clip-rule="evenodd" d="M400.502 267.038C417.343 264.632 429.372 248.753 426.966 231.912C425.041 216.515 412.05 205.448 397.133 204.966C395.69 204.966 393.765 204.967 391.84 205.448C375 207.854 362.97 223.251 365.376 240.573C367.782 257.414 383.661 269.443 400.502 267.038ZM42.0293 266.556V211.222H53.0962C58.8703 211.222 67.5313 213.628 67.5313 224.213C67.5313 233.356 59.8326 238.648 50.2092 238.648C49.728 238.648 48.7657 238.648 48.2845 238.648V241.054C59.3514 243.46 77.6359 238.167 77.6359 224.695C77.6359 209.778 63.682 206.41 53.0962 206.41H30C30.9623 206.41 32.4059 210.259 32.4059 215.071V266.556H42.0293V266.556ZM94.9581 266.556V238.648H123.828V266.556H132.971V205.929H121.422C122.866 206.41 123.828 208.816 123.828 215.552V233.356H94.9581V205.929H82.9288C83.8911 206.41 85.8158 207.854 85.8158 214.109V266.556H94.9581ZM157.991 266.556V205.929H146.443C147.406 206.41 148.849 208.816 148.849 214.109V266.556H157.991ZM210.439 266.556L212.845 256.933C211.401 258.376 205.146 260.782 192.155 260.782H183.494V205.929H171.945C172.908 206.41 174.351 209.297 174.351 214.59V266.556H210.439V266.556ZM229.205 266.556V205.929H217.657C218.619 206.41 220.063 208.816 220.063 214.109V266.556H229.205ZM473.158 266.556C470.753 265.594 468.828 262.707 467.384 260.782L455.355 244.423C452.949 241.535 451.025 240.092 449.1 239.611C461.129 236.724 466.422 229.025 466.422 223.251C466.422 211.222 455.836 205.929 442.363 205.929H424.56C427.447 207.854 429.372 210.741 429.372 210.741H442.363C450.062 210.741 456.317 215.071 456.317 223.732C456.317 232.393 446.213 238.167 437.071 238.167V240.573C440.92 241.054 443.807 243.941 446.213 246.828L461.129 266.556H473.158ZM513.096 266.556C510.69 265.594 508.765 262.707 507.322 260.782L495.292 244.423C492.886 241.535 490.962 240.092 489.037 239.611C501.066 236.724 506.359 229.025 506.359 223.251C506.359 211.222 495.773 205.929 482.301 205.929H464.497C467.384 207.854 469.79 210.741 469.79 210.741H482.782C490.481 210.741 496.736 215.071 496.736 223.732C496.736 232.393 486.631 238.167 477.489 238.167V240.573C481.338 241.054 484.225 243.941 486.631 246.828L501.547 266.556H513.096ZM529.455 266.556V205.929H517.907C518.87 206.41 520.313 208.816 520.313 214.109V266.556H529.455ZM580.941 248.272C580.941 229.025 549.183 230.95 549.183 218.92C549.183 212.665 553.995 209.778 562.175 209.778C571.798 209.778 576.129 216.033 577.572 219.402V209.297C573.242 207.372 568.911 205.448 562.656 205.448C549.183 205.448 541.003 213.628 541.966 223.251C543.409 241.054 573.242 238.167 573.242 253.084C573.242 258.858 567.468 263.669 559.769 263.669C553.033 263.669 545.815 260.301 542.928 253.084V264.151C547.259 266.556 552.552 268 558.807 268C572.28 267.519 580.941 259.82 580.941 248.272ZM387.029 259.82C381.255 255.971 377.405 248.753 376.443 240.092C374.518 227.1 378.849 212.665 392.803 210.259C394.246 209.778 395.69 209.778 397.133 209.778C400.502 209.778 403.389 210.741 406.276 212.665C412.05 216.515 415.899 223.732 417.343 232.393C419.267 245.385 414.937 259.82 400.983 262.226C395.69 263.669 390.878 262.707 387.029 259.82Z" fill="white"/>
<path fill-rule="evenodd" clip-rule="evenodd" d="M253.745 266.556V211.222H264.812C270.586 211.222 279.247 213.627 279.247 224.213C279.247 233.355 271.549 238.648 261.925 238.167C261.444 238.167 260.482 238.167 260 238.167V240.573C271.067 242.979 288.871 237.686 288.871 224.213C288.871 209.297 274.917 206.41 264.331 206.41H241.716C242.678 206.891 244.122 210.259 244.122 215.071V266.075H253.745V266.556ZM303.306 266.556L306.193 221.807L323.515 266.556H325.921L345.168 221.807L349.017 266.556H359.603L352.866 206.41H346.13L326.883 250.196L309.561 206.41H298.975C300.419 206.891 301.381 211.703 300.9 218.439L297.051 266.556H303.306V266.556ZM291.758 196.786C292.239 196.786 292.72 196.786 292.72 196.305C294.645 194.862 296.569 193.418 298.013 191.494C299.938 189.569 301.862 187.644 303.306 185.238C305.231 182.351 307.155 178.983 309.08 175.615C310.523 172.728 311.967 169.841 312.929 166.954C314.373 164.067 315.335 160.699 316.297 157.33C316.779 155.887 317.741 154.443 318.703 153C320.147 161.18 318.222 169.36 314.854 177.058C315.816 177.058 316.297 177.058 316.779 176.577C319.666 174.653 321.59 171.766 323.515 168.878L324.959 165.991H325.921L329.77 177.058C330.251 176.577 330.251 176.577 330.251 176.096C331.214 173.69 332.176 171.766 333.138 169.36C334.582 164.548 335.544 159.736 336.025 154.925C336.507 150.113 336.988 145.301 336.988 140.489C337.469 133.753 336.988 127.017 336.025 120.761C335.544 118.356 335.063 116.431 334.582 114.025C334.101 112.1 333.138 110.657 331.214 110.176C330.251 110.176 329.289 109.694 328.808 109.213V109.694C328.808 112.1 330.251 113.544 331.214 115.469C331.695 115.95 331.695 116.431 332.176 116.912H331.695C331.214 116.912 330.733 116.912 330.251 116.431C327.364 114.987 325.44 112.581 324.477 109.694C323.515 107.289 323.034 104.883 323.515 101.996C323.515 101.515 323.515 101.515 323.515 101.033C322.553 100.552 321.59 100.071 321.109 99.1087C320.147 100.552 319.666 102.477 319.184 104.402C318.703 105.845 318.703 107.289 320.147 108.251C322.071 111.138 323.515 113.544 325.44 116.431C326.402 117.874 326.883 119.799 327.364 121.724C328.327 124.611 328.327 127.979 328.327 130.866C328.327 136.159 328.327 140.971 327.364 146.263C326.883 147.707 326.883 149.15 326.402 151.075H325.921C325.921 150.594 325.44 150.594 325.44 150.113C324.959 148.188 324.477 146.263 323.515 143.858C322.553 140.489 321.59 137.602 320.147 134.234C319.184 131.828 318.222 128.941 316.779 126.535C315.816 124.611 315.816 123.167 315.816 121.243V119.318C314.854 118.837 314.373 118.837 313.41 118.356C311.486 117.393 309.561 116.431 308.118 114.987C307.636 114.506 307.155 114.025 307.636 113.063C308.118 111.138 309.08 109.213 310.042 107.289C311.005 105.364 311.967 103.439 312.929 101.033L308.118 99.1087C307.636 99.1087 307.155 99.1087 307.155 99.1087C306.193 99.1087 305.712 99.1087 304.749 99.1087H303.787C303.306 99.1087 302.825 99.1087 302.825 99.1087C301.862 99.1087 300.419 98.1464 299.938 97.6652C298.975 96.7029 298.013 95.7405 297.051 94.7782L295.126 99.1087V99.5899C295.126 101.515 295.607 102.958 296.569 104.402C298.494 107.289 300.9 109.694 302.825 112.581C304.749 115.469 307.155 117.874 309.08 120.761C311.005 123.648 312.448 126.054 313.892 128.941C314.854 130.385 315.335 132.31 316.297 134.234C317.26 136.64 317.741 139.527 318.222 141.933C318.222 142.414 318.222 143.376 317.741 143.858C317.741 144.339 316.779 144.339 316.779 143.858C316.779 143.376 316.297 143.376 316.297 142.895C315.816 141.933 315.335 140.971 314.854 140.008C312.929 136.159 310.042 132.791 307.636 129.904C304.749 126.535 301.381 123.648 297.532 121.243C295.607 120.28 293.201 118.837 291.277 117.874C289.833 117.393 288.39 116.431 286.946 115.95C287.908 113.544 288.871 111.619 289.833 109.213C290.795 106.807 291.277 104.402 291.277 101.996C291.277 101.515 291.277 101.033 291.277 100.552C291.277 100.071 290.795 100.071 290.314 100.071L289.833 100.552C289.352 101.996 288.871 103.439 287.908 104.402C286.946 106.807 285.502 108.732 283.578 110.657C281.653 112.581 279.247 114.506 276.841 115.469C274.917 116.431 272.511 117.393 270.586 117.874C269.624 118.356 269.143 118.837 269.143 119.799C268.662 124.611 268.662 129.904 268.18 134.715C267.699 139.046 266.737 143.376 265.774 147.707L262.887 163.104C262.406 165.51 262.887 167.916 264.331 169.841C265.774 171.284 266.737 173.209 268.18 174.653C269.624 176.096 271.067 177.54 272.511 178.983L276.36 182.832L273.473 185.719L268.662 190.531C268.662 190.531 268.662 191.012 268.18 191.494C268.662 191.494 269.143 191.494 269.143 191.494C270.105 191.012 271.067 190.05 272.03 189.569L278.766 184.757L280.21 185.719L286.946 190.531C286.946 190.531 287.427 191.012 287.908 191.012H288.39H288.871C289.352 190.531 290.314 190.531 291.277 190.531H291.758C292.239 190.531 292.72 191.012 292.72 191.975C292.72 192.456 292.239 193.418 292.239 193.899C292.239 193.899 292.239 194.381 292.239 194.862C292.72 194.862 293.201 195.343 293.201 195.343H291.758V196.786ZM302.825 170.803C300.419 170.803 298.013 169.841 296.088 168.878L295.126 168.397L295.607 167.916C296.088 167.916 296.088 167.916 296.569 167.916C296.569 167.916 297.051 167.916 297.532 167.916C300.419 168.397 302.825 167.916 305.23 166.954C307.155 165.991 308.118 165.029 308.599 163.104V162.623C309.08 163.104 309.08 163.586 309.08 163.586C309.561 165.991 308.599 169.36 305.712 170.803C304.749 170.322 303.787 170.803 302.825 170.803ZM294.164 178.502C292.72 178.021 291.277 177.058 289.833 176.577C286.946 174.653 284.54 172.247 282.134 169.841C279.728 167.916 277.323 166.473 274.917 165.029C274.436 165.029 274.436 164.548 273.954 164.548L272.992 163.104C273.473 163.104 273.954 162.623 274.436 162.623H274.917C275.398 162.623 275.879 162.623 275.879 162.623H276.36C276.841 162.623 277.323 162.142 277.804 161.661L280.21 155.887L282.615 149.632C283.097 148.669 283.578 147.226 284.059 146.263C284.059 145.782 284.54 145.782 285.021 145.301L285.502 146.745V147.226C285.502 149.15 285.984 151.075 287.427 152.519C290.314 155.887 291.277 160.217 291.277 164.548H291.758L290.795 171.766C290.795 172.247 290.795 172.728 291.277 173.209C292.72 174.653 293.682 176.577 295.126 178.021C295.126 178.502 295.607 178.983 295.126 178.983C295.126 178.502 294.645 178.502 294.164 178.502C294.164 178.502 294.645 178.502 294.164 178.502ZM354.31 129.904C355.753 128.941 356.716 127.979 357.197 126.535C358.159 124.611 358.159 122.205 357.197 120.28C356.235 118.356 353.829 117.393 351.904 116.912C350.461 116.912 349.017 117.393 347.574 117.874C345.649 118.837 344.205 120.28 342.281 121.724C340.837 123.167 340.356 124.13 341.8 126.054L342.762 125.573C344.687 124.13 346.13 122.686 348.055 121.724C349.017 120.761 350.461 120.761 351.904 120.761C354.791 120.761 355.753 123.648 354.791 125.573C354.31 126.535 353.829 127.017 352.866 127.979C352.385 128.46 352.385 129.904 352.866 130.385C352.866 130.385 353.348 129.904 354.31 129.904ZM300.419 93.8158C300.9 93.3347 301.381 92.8535 301.381 92.3723C301.381 91.8911 301.862 90.9288 302.825 91.41C303.787 91.41 304.749 91.41 304.749 92.3723C304.749 92.8535 305.23 93.3347 305.23 93.3347C305.712 93.8158 306.193 93.8158 306.674 93.8158L307.155 92.3723C307.155 92.3723 307.155 91.8911 306.674 91.8911C306.193 91.41 306.193 90.9288 306.674 90.4476C307.155 89.9665 306.674 89.0041 305.712 89.4853L300.9 89.9665V89.4853C300.419 89.9665 299.938 89.9665 299.456 90.4476C299.456 90.4476 299.456 90.9288 299.456 91.41V92.3723C299.456 92.8535 298.975 92.8535 298.975 93.3347C298.975 93.8158 298.975 94.297 299.456 94.297C299.456 94.297 299.938 93.8158 300.419 93.8158ZM307.636 81.7866C309.08 81.3054 310.042 80.343 310.523 78.8995C310.523 77.9372 310.523 77.9372 310.042 77.9372H309.561L308.118 78.4184C306.674 78.8995 306.674 79.3807 306.674 80.343V81.3054C306.674 81.7866 306.674 82.2677 307.636 81.7866C307.155 81.7866 307.155 81.7866 307.636 81.7866ZM295.607 87.5606C296.088 87.0794 297.051 86.1171 297.532 85.6359C298.013 85.1548 298.494 84.6736 298.975 84.6736H299.456C300.9 85.1548 301.381 84.1924 301.862 82.7489V78.4184C301.862 77.9372 301.862 77.456 301.862 76.4937C301.862 76.0125 301.381 75.5313 301.381 76.0125C301.381 76.0125 301.381 76.0125 300.9 76.0125C300.419 76.4937 300.419 76.9748 299.938 77.456C299.938 77.9372 299.456 78.4184 298.975 78.4184H298.494C297.532 77.9372 297.051 77.9372 296.088 77.9372C295.126 77.9372 294.645 77.9372 293.682 78.4184C293.201 78.4184 293.201 78.4184 292.72 78.8995C292.239 79.3807 292.239 80.343 292.239 81.7866L293.682 87.0794C294.164 87.5606 295.126 88.0418 295.607 87.5606ZM311.005 67.8326C312.929 66.8703 314.854 65.4267 317.26 65.4267C317.741 65.4267 318.222 64.9456 318.703 64.9456C317.741 63.9832 317.26 63.9832 316.297 63.9832C315.335 63.9832 314.854 63.9832 313.892 63.9832V57.2468C313.892 52.9163 314.373 48.1046 315.335 43.7741C315.335 42.3305 315.335 40.887 313.892 40.4059L312.929 39.9247H312.448V40.4059C312.448 40.887 312.448 40.887 312.448 41.3682C312.448 42.8117 312.448 44.7364 312.448 46.1799C311.486 47.6234 311.486 50.0293 311.486 51.954C311.486 52.4351 311.005 52.4351 311.005 52.9163C311.005 52.4351 310.523 52.4351 310.523 51.954L308.599 39.4435C308.599 38.4812 308.118 38 307.155 38C305.712 38 304.749 38 303.306 38C298.975 38 294.645 38.9623 291.277 41.8494C288.871 43.774 287.427 45.2176 288.39 48.1046C288.871 49.5481 288.871 50.5104 289.352 51.954C290.314 55.8033 291.277 59.6527 291.758 63.5021L292.239 67.3514L290.314 66.8703C289.352 66.8703 287.908 66.3891 286.946 66.3891C284.54 65.9079 282.615 67.8326 282.615 69.7573L284.059 69.2761C285.021 68.7949 285.984 68.3138 286.946 68.3138C287.427 68.3138 287.427 68.3138 287.908 68.3138C288.871 68.7949 290.314 69.2761 291.277 69.7573C293.201 70.2385 295.126 71.2008 297.051 71.682C301.862 71.682 306.674 70.7196 311.005 67.8326Z" fill="#AEBCB6"/>
</svg>
