<svg width="256" height="256" viewBox="0 0 256 256" fill="none" xmlns="http://www.w3.org/2000/svg">
<g clip-path="url(#clip0_245_2664)">
<path fill-rule="evenodd" clip-rule="evenodd" d="M227.847 113.155V112.887H197.452C195.574 109.13 193.466 105.489 191.128 102.154C192.163 100.238 192.699 98.0916 192.699 95.7919C192.699 88.586 187.026 82.6834 180.051 82.6834C177.828 82.6834 175.719 83.2583 173.803 84.3699C160.465 74.3277 144.711 69 128.23 69C99.1 69 72.3082 86.363 59.0847 113.04H28V122.43H64.9874V122.162L65.1407 121.741C75.9494 95.4469 100.672 78.4289 128.192 78.4289C142.603 78.4289 156.363 83.0284 168.054 91.729C167.632 93.0705 167.402 94.4504 167.402 95.8685C167.402 103.036 173.036 108.9 179.974 108.9C181.239 108.9 182.58 108.67 183.922 108.249C186.911 112.657 189.403 117.179 191.319 121.779L191.473 122.162H191.549V122.507H227.962V113.193H227.847V113.155Z" fill="#666666"/>
<path d="M180.051 102.806C176.256 102.806 173.151 99.6246 173.151 95.6768C173.151 91.7289 176.256 88.5476 180.051 88.5476C183.845 88.5476 186.95 91.7672 186.95 95.6768C186.95 99.6246 183.845 102.806 180.051 102.806Z" fill="#9D2180"/>
<path d="M227.923 172.411H212.438V186.861H227.923V172.411Z" fill="#666666"/>
<path d="M43.5234 172.411H28.0386V186.861H43.5234V172.411Z" fill="#666666"/>
<path d="M32.5611 160.874H28V133.968H51.9172V138.069H32.5611V145.466H51.189V149.491H32.5611V160.874Z" fill="#666666"/>
<path d="M81.8523 160.874H76.5629L65.9841 139.794L54.9837 160.874H49.771L63.646 133.968H68.1305L81.8523 160.874Z" fill="#666666"/>
<path d="M96.3403 161.526C86.3748 161.526 80.1655 156.083 80.1655 147.268C80.1655 142.591 81.7753 139.104 85.1483 136.574C86.1832 135.731 89.3645 133.201 96.2253 133.201C98.0651 133.201 102.703 133.431 106.344 135.692C109.18 137.494 110.522 139.717 111.212 140.943L111.557 141.518L106.574 142.63L106.382 142.323C105.808 141.327 105.233 140.292 103.738 139.295C102.358 138.375 99.6749 137.417 96.3403 137.417C93.6956 137.417 84.9566 138.145 84.9566 147.153C84.9566 149.912 85.8382 152.365 87.4863 154.205C88.8662 155.623 91.5875 157.348 96.532 157.348H96.7236C99.9815 157.348 102.741 156.582 104.466 155.202C105.999 154.09 106.727 152.672 106.919 152.25L107.072 151.905L111.978 152.902L111.672 153.477C110.714 155.163 109.679 157.08 106.919 158.805C103.316 161.143 98.755 161.526 96.3403 161.526Z" fill="#666666"/>
<path d="M125.394 160.874H120.794V138.03H110.254V133.968H135.973V138.03H125.394V160.874Z" fill="#666666"/>
<path d="M151.457 161.564C146.973 161.564 143.332 160.568 140.572 158.613C138.081 156.888 135.129 153.592 135.129 147.766C135.129 137.8 143.217 133.354 151.228 133.354C160.963 133.393 167.517 139.219 167.517 147.804C167.517 157.31 159.468 161.564 151.457 161.564ZM151.304 137.455C151.151 137.455 150.998 137.455 150.806 137.455C145.478 137.609 139.767 140.33 139.767 147.536C139.767 148.992 140.035 151.714 141.914 153.822C143.945 156.198 147.165 157.425 151.457 157.425C161.73 157.425 162.841 150.449 162.841 147.421C162.879 141.365 158.318 137.455 151.304 137.455Z" fill="#666666"/>
<path d="M200.557 160.874H194.501L185.762 150.526H173.995V160.874H169.357V133.968H187.41C189.748 134.006 192.623 134.044 194.999 136.191C195.919 136.996 197.452 138.835 197.452 142.093C197.452 147.881 193.197 149.299 190.936 149.759L200.557 160.874ZM173.918 146.501H186.222C188.023 146.501 190.514 146.501 191.856 144.7C192.393 144.048 192.623 143.205 192.623 142.247C192.623 141.288 192.393 140.445 191.933 139.755C190.936 138.107 189.365 138.107 187.716 138.069H187.601H173.88V146.501H173.918Z" fill="#666666"/>
<path d="M214.355 160.874H209.755V150.449L196.34 133.929H202.281L211.404 145.428C211.749 145.849 211.94 146.156 212.093 146.424C212.247 146.194 212.4 145.964 212.707 145.62L222.021 133.929H228L214.355 150.487V160.874V160.874Z" fill="#666666"/>
<path d="M51.0739 182.798C51.1889 184.6 52.6071 185.788 54.8301 185.788C56.7083 185.788 58.4331 184.638 58.4331 182.952C58.4331 180.729 55.6351 180.192 54.4469 179.885C52.837 179.502 49.7707 178.966 49.7707 176.091C49.7707 173.868 51.9938 172.22 54.8301 172.22C57.7815 172.22 59.8129 174.021 59.8129 176.129H58.0114C58.0114 174.673 56.5166 173.523 54.8301 173.523C52.7604 173.523 51.5722 174.788 51.5722 176.014C51.5722 177.777 53.4886 178.199 55.865 178.697C60.2345 179.656 60.2345 182.377 60.2345 182.837V182.875C60.2345 185.098 58.0114 187.091 54.8301 187.091C52.4921 187.091 49.3874 185.98 49.2725 182.798H51.0739V182.798Z" fill="#666666"/>
<path d="M70.4685 172.45H72.4999L80.204 186.785H78.2493L75.6429 181.955H67.2872L64.6808 186.785H62.8027L70.4685 172.45ZM67.9771 180.69H74.953L71.5034 174.098L67.9771 180.69Z" fill="#666666"/>
<path d="M83.9985 172.45H86.4132L96.4171 184.37H96.4937V172.45H98.2952V186.785H96.4937L85.8383 174.136H85.8V186.785H83.9985V172.45Z" fill="#666666"/>
<path d="M112.055 172.45H114.815L121.331 184.677L127.885 172.45H130.645V186.785H128.843V174.021H128.805L122.097 186.785H120.564L113.933 174.021H113.857V186.785H112.055V172.45Z" fill="#666666"/>
<path d="M142.182 172.45H144.175L151.879 186.785H149.924L147.318 181.955H138.962L136.356 186.785H134.478L142.182 172.45ZM139.69 180.69H146.628L143.178 174.098L139.69 180.69Z" fill="#666666"/>
<path d="M155.559 172.45H160.12C162.496 172.45 163.723 172.68 164.528 172.986C166.559 173.753 167.747 175.324 167.747 177.088C167.747 179.157 165.869 181.265 162.419 181.457L167.479 186.823H165.217L159.123 180.307C161.385 180.307 162.151 180.307 162.956 180.077C164.911 179.656 165.907 178.314 165.907 177.049C165.907 175.938 165.102 174.749 163.953 174.289C162.879 173.83 161.96 173.753 160.465 173.753H157.36V186.823H155.559V172.45V172.45Z" fill="#666666"/>
<path d="M174.685 173.753H170.583V172.45H180.587V173.753H176.486V186.823H174.723V173.753H174.685Z" fill="#666666"/>
<path d="M184.305 172.45H186.107V186.785H184.305V172.45Z" fill="#666666"/>
<path d="M191.472 172.45H193.887L203.891 184.37H203.929V172.45H205.731V186.785H203.929L193.274 174.136H193.236V186.785H191.434V172.45H191.472Z" fill="#666666"/>
</g>
<defs>
<clipPath id="clip0_245_2664">
<rect width="256" height="256" fill="white"/>
</clipPath>
</defs>
</svg>
