<svg id="Capa_1" data-name="Capa 1" xmlns="http://www.w3.org/2000/svg" viewBox="0 0 500 500"><defs><style>.cls-1{fill:#221f1f;}</style></defs><title>Loading_JazminChebar</title><path class="cls-1" d="M406.17,489.15H364.6a14.47,14.47,0,0,1,0-28.94h41.56a54.11,54.11,0,0,0,54.05-54V362.24a14.47,14.47,0,0,1,28.94,0v43.93A83.08,83.08,0,0,1,406.17,489.15Z"/><path class="cls-1" d="M474.69,152.25a14.47,14.47,0,0,1-14.47-14.47v-44a54.11,54.11,0,0,0-54.05-54h-43.6a14.47,14.47,0,1,1,0-28.94h43.6a83.08,83.08,0,0,1,83,83v44A14.47,14.47,0,0,1,474.69,152.25Z"/><path class="cls-1" d="M137.77,489.15H93.83a83.08,83.08,0,0,1-83-83V362.24a14.47,14.47,0,0,1,28.94,0v43.93a54.11,54.11,0,0,0,54.05,54h43.94a14.47,14.47,0,0,1,0,28.94Z"/><path class="cls-1" d="M25.31,152.25a14.47,14.47,0,0,1-14.47-14.47v-44a83.08,83.08,0,0,1,83-83h43.94a14.47,14.47,0,1,1,0,28.94H93.83a54.11,54.11,0,0,0-54.05,54v44A14.47,14.47,0,0,1,25.31,152.25Z"/><path class="cls-1" d="M250,409.7c-46.72,0-81.95-68.66-81.95-159.7S203.28,90.3,250,90.3,331.94,159,331.94,250A14.47,14.47,0,0,1,303,250c0-74.84-28-130.76-53-130.76S197,175.16,197,250s28,130.76,53,130.76c10,0,18.7-8.86,24.2-16.29a14.47,14.47,0,0,1,23.26,17.21C280.33,404.83,262.2,409.7,250,409.7Z"/><path class="cls-1" d="M132.79,304.2a14.4,14.4,0,0,1-7.74-2.25C96.33,283.7,90.31,263.63,90.31,250s6-33.69,34.73-51.94a14.47,14.47,0,1,1,15.53,24.42c-8,5.07-21.32,15.37-21.32,27.52s13.35,22.45,21.31,27.51a14.47,14.47,0,0,1-7.77,26.68Z"/><path class="cls-1" d="M250,331.95A14.47,14.47,0,0,1,250,303c74.84,0,130.76-28,130.76-53,0-12.16-13.36-22.46-21.32-27.52A14.47,14.47,0,1,1,375,198.06c28.7,18.25,34.73,38.32,34.73,51.94C409.69,296.72,341,331.95,250,331.95Z"/></svg>