<svg id="Capa_1" data-name="Capa 1" xmlns="http://www.w3.org/2000/svg" viewBox="0 0 500 500"><defs><style>.cls-1{fill:#221f1f;}</style></defs><title>Loading_JazminChebar</title><path class="cls-1" d="M40.23,258.85c0,6.88-.44,12.58-2.78,18.58-4.24,10.24-11.71,13.17-13.32,13.17-1,0-1.9-.44-1.9-1.61a1.82,1.82,0,0,1,1.17-1.76c8.93-5.71,9.07-15.37,9.51-27.07V231c0-1.32.29-1.76,1.61-1.76h4.24c1.17,0,1.46.44,1.46,1.61Zm-3.66-36.73a4.11,4.11,0,0,1-4.39-4.24,4.19,4.19,0,0,1,4.39-4.24,4,4,0,0,1,4.24,4.1A4.09,4.09,0,0,1,36.57,222.12Z"/><path class="cls-1" d="M75.93,262.8c-.15,3.66-.44,5.71-3.51,7.32s-7.9,2.2-11.41,2.2c-2.2,0-14.19,0-14.19-11,0-9.37,9.07-12,22.1-15.8v-4.1c0-3.22,0-8.63-6-8.63-4.68,0-6.15,3.66-6.73,5.27s-1.17,3.51-3.66,3.51a3.25,3.25,0,0,1-3.22-3.37c0-4.83,6.15-9.66,14.78-9.66,11.85,0,12,8.63,12.15,12.88V262.8Zm-7-13.46c-8.78,2.78-14.63,4.68-14.63,11,0,.59,0,7.76,8.19,7.76,6.29,0,6.44-3.66,6.44-5.85Z"/><path class="cls-1" d="M91.15,266.9H109c.44,0,1.17,0,1.17,1v2.34c0,1-.59,1-1.32,1H83.1c-.44,0-1.32,0-1.32-.88,0-.29,0-.44.59-1.46l18.73-35.12H84.71c-.59,0-1,0-1.17-.29-.44-.15-.44-1.9-.44-2.93s.44-1.17,1.61-1.17h24c.44,0,1.46,0,1.46,1,0,.29,0,.29-.59,1.46Z"/><path class="cls-1" d="M116.91,237.2c0-2.78.15-4.1,2-5.56,2.63-1.9,8.19-3.22,12.88-3.22,8.19,0,11,3.37,12.15,4.83,1.76-1.9,4.68-4.83,12.88-4.83,13.17,0,13.17,8.78,13.17,13v28.39c0,1.17-.29,1.46-1.46,1.61h-4.24c-1,0-1.46-.15-1.46-1.61V243.49c-.15-4.24-.15-10.39-7.9-10.39a8,8,0,0,0-5.56,1.9c-2.2,2-2.2,4.1-2.2,6.59V270c0,1.17-.15,1.61-1.32,1.61h-4.24c-1.17,0-1.61-.15-1.61-1.46V242.61c0-2.93-.15-10-7.76-10s-7.9,6-7.9,8.78v28.39c0,1.32-.29,1.61-1.61,1.61h-4.1c-1,0-1.46-.29-1.46-1.61V237.2Z"/><path class="cls-1" d="M183.05,222.12a4.11,4.11,0,0,1-4.39-4.24,4.19,4.19,0,0,1,4.39-4.24,4.24,4.24,0,1,1,0,8.49Zm3.51,47.71c0,1.32-.44,1.46-1.61,1.46h-4.39c-1.17,0-1.17-.29-1.17-1.46V230.9c0-1,0-1.61,1.32-1.61H185c1.32,0,1.61.29,1.61,1.61Z"/><path class="cls-1" d="M228.85,269.68c0,.73-.15,1.46-1,1.61h-4.39c-1.32,0-1.76-.15-1.76-1.61V242.46c0-3.8,0-10-9.51-10-8.63,0-8.78,5.12-8.78,7.17v29.85c0,1.46-.59,1.61-1.76,1.61h-4c-1.17,0-1.61-.15-1.61-1.61V237c0-3.07.44-4.54,3.22-5.85,5.41-2.78,13-2.78,13.9-2.78,15.37,0,15.51,8.63,15.51,13.32v28Z"/><path class="cls-1" d="M273.63,233c-5.56,0-10.54,5.56-10.54,15.07,0,11.85,6.15,17.71,12.15,17.71,5.71,0,8.34-4.39,9.66-6.44,1-1.76,1.32-2.34,2.34-2.34a1.74,1.74,0,0,1,1.76,1.9c0,3.51-4.1,13.32-15.37,13.32-10.83,0-17.12-9.37-17.12-21.51,0-12.88,6.44-22.39,18-22.39,9.37,0,13.9,7.17,13.9,10.24a3.19,3.19,0,0,1-3.37,3.37,3.81,3.81,0,0,1-3.37-2.49c-1.76-3.07-3.37-6.44-8-6.44Z"/><path class="cls-1" d="M321.19,243.49a12.13,12.13,0,0,0-1-5.85,8.06,8.06,0,0,0-7.17-4.1c-3.66,0-7,2-9.8,4.54v31.32c0,1.46-.29,1.9-1.61,1.9h-4.24c-1.17,0-1.46-.44-1.46-1.76V210.85c0-1,.29-1.32,1.46-1.46h4.24c1.17,0,1.61.29,1.61,1.46v22.68a16.94,16.94,0,0,1,12.44-5.12c12.58,0,12.73,10.83,12.88,14v26.93c0,1.46,0,1.9-1.61,1.9h-4.1c-1.32-.15-1.76-.15-1.76-1.61V243.49Z"/><path class="cls-1" d="M342,249c.59,11.41,6.44,16.68,12.58,16.68,4.83,0,8.49-2.78,11.12-7.17,1.17-1.9,1.32-2.34,2.34-2.34a1.68,1.68,0,0,1,1.61,1.9c0,2-3.51,14.19-16.24,14.19A16.2,16.2,0,0,1,338.31,263a28,28,0,0,1-2.63-12.44c0-5.85,1.17-10.1,2.78-13a16.28,16.28,0,0,1,14.93-8.93c12.88,0,15.51,11.12,15.51,14.34,0,2.34-1.32,2.49-2.34,2.63Zm19.32-7c-.44-5.12-4.1-9.07-8.63-9.07-6.59,0-9.8,5-10.68,12Z"/><path class="cls-1" d="M383.68,233.68a18.39,18.39,0,0,1,12.58-5.27c8.49,0,15.07,6.73,15.07,19.9,0,17-10,24-20.78,24-4.24,0-8.49-1-11.71-3.66-2.34-2-2.49-3.51-2.49-8.19V211c0-1.32.15-1.61,1.46-1.61h4c1.61,0,1.76.15,1.76,1.61v22.68Zm0,25.61c0,2,.15,8,7.76,8,6.73,0,12.88-5.27,12.88-17,0-8.49-3.07-16.68-11.27-16.68-2.78,0-6.15,1.17-9.37,4.39Z"/><path class="cls-1" d="M445.43,262.8c-.15,3.66-.44,5.71-3.51,7.32s-7.9,2.2-11.41,2.2c-2.2,0-14.19,0-14.19-11,0-9.37,9.07-12,22-15.8v-4.1c0-3.22,0-8.63-6.15-8.63-4.68,0-6.15,3.66-6.73,5.27s-1.17,3.51-3.66,3.51a3.25,3.25,0,0,1-3.22-3.37c0-4.83,6-9.66,14.78-9.66,11.85,0,12,8.63,12,12.88V262.8Zm-7-13.46c-8.78,2.78-14.63,4.68-14.63,11,0,.59,0,7.76,8.19,7.76,6.29,0,6.44-3.66,6.44-5.85Z"/><path class="cls-1" d="M461.68,270c-.15,1.32-.44,1.32-1.46,1.32h-4.1c-1.17,0-1.61-.15-1.61-1.32V236c0-2.78.29-3.8,2-4.83,2.49-1.46,7.61-2.78,12.88-2.78,4,0,8.34.88,8.34,4.68a3.35,3.35,0,0,1-3.37,3.51c-1.46,0-2-.59-3.37-2.2a5.48,5.48,0,0,0-4.39-2c-4.83,0-4.83,3.51-5,5.71Z"/></svg>