<svg width="501" height="133" viewBox="0 0 501 133" fill="none" xmlns="http://www.w3.org/2000/svg">
<path fill-rule="evenodd" clip-rule="evenodd" d="M76.5789 97.3158H36V16H55.1053V79.9474H80.2105L76.5789 97.3158ZM445.263 97.1579C438.947 115 435 122.263 409.263 122.263V112C420.158 110.421 425.053 106.632 429.316 97.1579H424.263C423.474 92.8947 421.895 86.2631 420.316 81.6842L406.737 37.6316L425.526 36.0526L433.737 67.4737C434.842 71.5789 435.789 75.6842 436.263 79.7895H436.421C437.21 73.6316 438.474 66.5263 440.053 61.1579L447.316 36.8421H465.947L445.263 97.1579ZM385.421 97.3158L371.368 63.2105L381 37.1579H402.632L387.789 61.6316L406.263 97.3158H385.421ZM352.737 97.3158V32.8947C352.737 25 352.579 18.8421 351.632 15.0526L369.947 11.5789C370.737 16.3158 371.053 21.2105 371.053 32.7368V97.1579H352.737V97.3158ZM321.158 98.7368C313.263 98.7368 305.684 95.8947 297.474 91.1579L303.947 76.4737C307.579 79 316.421 84.2105 321.789 84.2105C325.105 84.2105 327.474 81.8421 327.474 79.6316C327.474 76.3158 325.737 75.3684 320.21 74.1052L313.105 72.5263C304.263 70.4737 300.316 64.6316 300.316 56.1052C300.316 43.7895 309.158 35.5789 322.737 35.5789C333.474 35.5789 339 39.2105 344.368 41.7368L338.684 54.3684C333.316 51.2105 328.895 49.9474 325.263 49.9474C322.421 49.9474 320.526 51.3684 320.526 53.2631C320.526 55.3158 321.789 57.0526 326.21 58L333 59.5789C342.632 61.9474 346.579 67.7895 346.579 77.2631C346.579 90.3684 336.474 98.7368 321.158 98.7368ZM273.632 97.3158V58.7895C273.632 52.3158 271.737 52.3158 269.053 52.3158C267.632 52.3158 265.579 53.421 263.053 55.7895V97.3158H244.579V59.1053C244.579 51.8421 244.263 45.3684 242.842 38.8947L259.737 35.7368C260.21 37.1579 260.684 39.5263 260.842 41.2631C264.474 38.421 269.368 35.5789 276.632 35.5789C289.421 35.5789 291.947 43.7895 291.947 52.1579V97.3158H273.632ZM216.474 72.3684V82.7895C215.842 83.7368 213.789 84.8421 212.053 84.8421C208.895 84.8421 207 82.4737 207 79C207 75.5263 208.737 72.0526 216.474 72.3684ZM228.316 99.6842L238.895 88.3158C235.105 85.6316 234.632 81.5263 234.632 76.4737L234.789 55.6316C234.789 51.2105 234.632 49 234 46.3158C231.947 39.2105 224.684 35.421 214.263 35.421C205.263 35.421 196.421 39.3684 189.632 43.9474L196.263 56.5789C201 52.7895 205.737 50.2631 211.895 50.2631C215.842 50.2631 216.316 52.3158 216.316 55.7895V59.5789C215.842 59.421 213.947 59.421 213.316 59.421C198 59.421 189 67.6316 189 79C189 89.7368 194.21 98.5789 207.789 98.5789C214.263 98.5789 218.842 96.0526 221.526 93.5263C222.474 95.7368 225.789 98.7368 228.316 99.6842ZM166.421 97.3158V60.0526C166.421 52 165.632 51.5263 162.474 51.5263C161.368 51.5263 158.368 52.6316 156.474 53.8947V97.3158H139.421V60.0526C139.421 52.1579 139.263 51.3684 135.632 51.3684C133.895 51.3684 131.211 52.4737 129.789 53.7368V97.4737H111.789V59.1053C111.789 51.8421 111.474 45.3684 110.053 38.8947L126.947 35.7368C127.421 37.7895 127.895 39.3684 128.053 41.5789C131.842 37.7895 136.579 35.5789 141.316 35.5789C147.158 35.5789 150.789 38.2631 153.632 42.0526C158.053 37.7895 162.947 35.5789 169.263 35.5789C176.842 35.5789 184.105 38.421 184.105 53.421V97.3158H166.421ZM85.1053 97.3158V38.1053L103.579 36.2105V97.3158H85.1053ZM94.1053 32.7368C88.421 32.7368 83.6842 27.5263 83.6842 21.3684C83.6842 15.0526 88.5789 10 94.421 10C100.263 10 104.842 15.0526 104.842 21.3684C104.842 27.5263 100.105 32.7368 94.1053 32.7368Z" fill="#27316E"/>
<path fill-rule="evenodd" clip-rule="evenodd" d="M455.526 124C406.579 111.842 331.737 103.947 247.895 103.947C164.053 103.947 89.2105 111.684 40.1052 124H455.526Z" fill="#E26158"/>
</svg>
