<svg width="149" height="88" viewBox="0 0 149 88" fill="none" xmlns="http://www.w3.org/2000/svg">
<path d="M29.0931 87.84C24.5331 87.84 20.3731 87.28 16.6131 86.16C12.9331 84.96 9.69313 83.28 6.89313 81.12C4.17313 78.88 2.01313 76.24 0.413125 73.2L9.05313 62.28C9.85313 64.04 11.1331 65.76 12.8931 67.44C14.6531 69.12 16.8531 70.48 19.4931 71.52C22.1331 72.56 25.1331 73.08 28.4931 73.08C31.7731 73.08 34.6131 72.6 37.0131 71.64C39.4131 70.68 41.2531 69.36 42.5331 67.68C43.8931 65.92 44.5731 63.8 44.5731 61.32C44.5731 58.68 43.7331 56.44 42.0531 54.6C40.4531 52.76 38.0531 51.36 34.8531 50.4C31.6531 49.44 27.7331 48.96 23.0931 48.96H19.1331V36.96H23.3331C29.0931 36.96 33.6931 35.96 37.1331 33.96C40.6531 31.96 42.4131 29.12 42.4131 25.44C42.4131 23.2 41.8131 21.28 40.6131 19.68C39.4131 18 37.8131 16.76 35.8131 15.96C33.8131 15.08 31.6131 14.64 29.2131 14.64C25.2131 14.64 21.6531 15.6 18.5331 17.52C15.4931 19.36 13.1731 21.76 11.5731 24.72L1.13313 13.08C2.89313 10.52 5.29313 8.36 8.33313 6.6C11.3731 4.76 14.7731 3.32 18.5331 2.28C22.3731 1.24 26.3331 0.719995 30.4131 0.719995C36.0931 0.719995 41.1331 1.72 45.5331 3.72C49.9331 5.64 53.3731 8.28 55.8531 11.64C58.3331 15 59.5731 18.84 59.5731 23.16C59.5731 26.36 58.8931 29.28 57.5331 31.92C56.2531 34.56 54.4131 36.76 52.0131 38.52C49.6131 40.28 46.7731 41.56 43.4931 42.36C47.0131 42.92 50.0931 44.24 52.7331 46.32C55.4531 48.32 57.5331 50.88 58.9731 54C60.4931 57.04 61.2531 60.36 61.2531 63.96C61.2531 69 59.8131 73.28 56.9331 76.8C54.1331 80.32 50.2931 83.04 45.4131 84.96C40.6131 86.88 35.1731 87.84 29.0931 87.84ZM75.5284 87V1.8H106.488C115.768 1.8 123.528 3.71999 129.768 7.55999C136.008 11.32 140.688 16.44 143.808 22.92C146.928 29.32 148.488 36.44 148.488 44.28C148.488 52.92 146.768 60.44 143.328 66.84C139.888 73.24 135.008 78.2 128.688 81.72C122.448 85.24 115.048 87 106.488 87H75.5284ZM131.808 44.28C131.808 38.76 130.808 33.92 128.808 29.76C126.808 25.52 123.928 22.24 120.168 19.92C116.408 17.52 111.848 16.32 106.488 16.32H92.0884V72.48H106.488C111.928 72.48 116.528 71.28 120.288 68.88C124.048 66.4 126.888 63.04 128.808 58.8C130.808 54.48 131.808 49.64 131.808 44.28Z" fill="#27316E"/>
</svg>
