<svg width="256" height="256" viewBox="0 0 256 256" fill="none" xmlns="http://www.w3.org/2000/svg">
<g clip-path="url(#clip0_245_2451)">
<path d="M43.4208 172.167H28V186.575H43.4208V172.167Z" fill="#666666"/>
<path d="M227.891 172.131H212.471V186.539H227.891V172.131Z" fill="#666666"/>
<path d="M43.8914 172.131H28.4706V186.539H43.8914V172.131Z" fill="#666666"/>
<path d="M33.6833 163.516H28.4706V131.95H46.8597C51.276 131.95 53.9547 132.71 56.1267 134.629C58.0452 136.403 59.1674 139.009 59.1674 141.796C59.1674 143.824 58.5882 145.851 57.5385 147.371C54.8235 151.317 50.1176 151.317 47.2941 151.317H33.6833V163.516ZM33.6471 146.611H46.6787C48.2715 146.611 50.2262 146.611 51.638 145.633C52.905 144.801 53.629 143.281 53.629 141.579C53.629 140.167 53.2308 139.081 52.3982 138.213C50.8416 136.584 48.2715 136.584 46.2443 136.584H33.6471V146.611Z" fill="#666666"/>
<path d="M80.561 164.348C75.4932 164.348 71.3303 163.19 68.2171 160.873C65.4298 158.846 62.0995 154.973 62.0995 148.131C62.0995 136.439 71.2217 131.226 80.2714 131.226C91.276 131.263 98.6968 138.068 98.6968 148.167C98.6968 159.317 89.5746 164.348 80.561 164.348ZM80.38 135.932C80.199 135.932 80.018 135.932 79.837 135.932C73.7556 136.113 67.2398 139.335 67.2398 147.878C67.2398 149.579 67.5656 152.837 69.7013 155.371C72.018 158.195 75.6741 159.606 80.5972 159.606C92.6153 159.606 93.5565 150.557 93.5565 147.769C93.5203 140.566 88.3438 135.932 80.38 135.932Z" fill="#666666"/>
<path d="M138.045 163.516H131.312L121.394 151.281H107.964V163.48H102.823V131.914H123.24C125.882 131.95 129.14 132.023 131.783 134.52C132.796 135.462 134.57 137.597 134.57 141.434C134.57 148.276 129.611 149.905 127.113 150.412L138.045 163.516ZM107.928 146.719H121.937C124 146.719 126.86 146.719 128.38 144.584C128.995 143.787 129.285 142.774 129.285 141.615C129.285 140.493 128.995 139.443 128.489 138.647C127.33 136.692 125.448 136.656 123.674 136.62H123.566H107.964V146.719H107.928Z" fill="#666666"/>
<path d="M155.566 163.516H150.425V136.584H138.48V131.95H167.584V136.584H155.602V163.516H155.566Z" fill="#666666"/>
<path d="M199.692 163.516H193.828L181.412 138.792L169.285 163.516H163.529L179.167 131.95H184.163L199.692 163.516Z" fill="#666666"/>
<path d="M227.855 163.516H203.276V131.95H208.416V158.81H227.855V163.516Z" fill="#666666"/>
<path fill-rule="evenodd" clip-rule="evenodd" d="M227.928 112.765H197.593C195.747 109 193.647 105.38 191.294 102.086C192.344 100.167 192.851 98.0317 192.851 95.7511C192.851 88.5475 187.204 82.6833 180.253 82.6833C178.009 82.6833 175.946 83.2624 174.027 84.3846C160.706 74.3213 144.996 69 128.561 69C99.4932 69 72.7783 86.3394 59.6019 112.946H28.5792V122.285H65.4661V121.995L65.6471 121.597C76.3982 95.3529 101.05 78.4118 128.525 78.4118C142.896 78.4118 156.652 83.009 168.272 91.6606C167.837 93 167.62 94.3756 167.62 95.7873C167.62 102.955 173.231 108.783 180.145 108.783C181.412 108.783 182.787 108.566 184.054 108.131C187.095 112.511 189.557 117.036 191.439 121.633L191.62 122.032H191.692V122.357H228V113.054V112.765H227.928ZM180.253 102.629C176.525 102.629 173.484 99.4796 173.484 95.6063C173.484 91.733 176.525 88.5837 180.253 88.5837C183.982 88.5837 187.023 91.733 187.023 95.6063C187.023 99.4796 183.982 102.629 180.253 102.629Z" fill="#666666"/>
<path d="M49.6108 172.131H54.1719C56.5611 172.131 57.7556 172.349 58.5882 172.674C60.5792 173.435 61.7737 174.991 61.7737 176.765C61.7737 178.828 59.9276 180.964 56.4525 181.109L61.5203 186.466H59.276L53.1945 179.987C55.4751 179.987 56.2353 179.95 57.0317 179.769C58.9864 179.335 60 177.996 60 176.729C60 175.606 59.2036 174.448 58.0452 173.978C56.9955 173.543 56.0543 173.435 54.5701 173.435H51.457V186.466H49.6832V172.131H49.6108Z" fill="#666666"/>
<path d="M82.0453 171.878C87.0769 171.878 91.5294 175.063 91.5294 179.299C91.5294 183.534 87.0407 186.72 82.0453 186.72C76.9774 186.72 72.5973 183.425 72.5973 179.371C72.5973 174.846 77.267 171.878 82.0453 171.878ZM82.0453 185.416C86.172 185.416 89.7557 182.738 89.7557 179.335C89.7557 175.968 86.2805 173.181 82.0453 173.181C77.991 173.181 74.371 175.824 74.371 179.371C74.371 182.629 77.8824 185.416 82.0453 185.416Z" fill="#666666"/>
<path d="M103.837 182.448C103.946 184.258 105.357 185.416 107.566 185.416C109.448 185.416 111.185 184.258 111.185 182.557C111.185 180.348 108.398 179.805 107.204 179.516C105.575 179.118 102.57 178.575 102.57 175.751C102.57 173.543 104.778 171.914 107.602 171.914C110.534 171.914 112.561 173.724 112.561 175.787H110.787C110.787 174.339 109.303 173.181 107.602 173.181C105.538 173.181 104.344 174.448 104.344 175.679C104.344 177.416 106.262 177.815 108.615 178.358C113.032 179.299 112.995 182.086 112.995 182.484C112.995 184.692 110.787 186.683 107.602 186.683C105.285 186.683 102.172 185.597 102.099 182.412H103.837V182.448Z" fill="#666666"/>
<path d="M130.48 172.131H132.471L140.181 186.466H138.226L135.62 181.652H127.294L124.688 186.466H122.842L130.48 172.131ZM127.982 180.312H134.932L131.493 173.724L127.982 180.312Z" fill="#666666"/>
<path d="M151.077 172.131H155.638C158.027 172.131 159.222 172.349 160.054 172.674C162.045 173.435 163.24 174.991 163.24 176.765C163.24 178.828 161.394 180.964 157.919 181.109L162.986 186.466H160.742L154.661 179.987C156.941 179.987 157.701 179.95 158.498 179.769C160.452 179.335 161.466 177.996 161.466 176.729C161.466 175.606 160.67 174.448 159.511 173.978C158.462 173.543 157.52 173.435 156.036 173.435H152.923V186.466H151.077V172.131Z" fill="#666666"/>
<path d="M174.86 172.131H176.633V186.466H174.86V172.131Z" fill="#666666"/>
<path d="M197.955 171.878C202.986 171.878 207.439 175.063 207.439 179.299C207.439 183.534 202.95 186.72 197.955 186.72C192.887 186.72 188.507 183.425 188.507 179.371C188.471 174.846 193.176 171.878 197.955 171.878ZM197.955 185.416C202.081 185.416 205.665 182.738 205.665 179.335C205.665 175.968 202.19 173.181 197.955 173.181C193.9 173.181 190.281 175.824 190.281 179.371C190.281 182.629 193.792 185.416 197.955 185.416Z" fill="#666666"/>
</g>
<defs>
<clipPath id="clip0_245_2451">
<rect width="256" height="256" fill="white"/>
</clipPath>
</defs>
</svg>
