<?xml version="1.0" encoding="utf-8"?>
<!-- Generator: Adobe Illustrator 24.1.0, SVG Export Plug-In . SVG Version: 6.00 Build 0)  -->
<svg version="1.1" id="Capa_1" xmlns="http://www.w3.org/2000/svg" xmlns:xlink="http://www.w3.org/1999/xlink" x="0px" y="0px"
	 viewBox="0 0 451 565" style="enable-background:new 0 0 451 565;" xml:space="preserve">
<style type="text/css">
	.st0{opacity:0.1;clip-path:url(#SVGID_2_);}
	.st1{fill:none;stroke:#FFFFFF;stroke-width:0.25;stroke-miterlimit:10;}
</style>
<g>
	<g>
		<g>
			<g>
				<g>
					<defs>
						<rect id="SVGID_1_" width="451" height="565"/>
					</defs>
					<clipPath id="SVGID_2_">
						<use xlink:href="#SVGID_1_"  style="overflow:visible;"/>
					</clipPath>
					<g class="st0">
						<line class="st1" x1="9.4" y1="0" x2="-2.1" y2="10.6"/>
						<line class="st1" x1="45.9" y1="13" x2="29" y2="33.2"/>
						<line class="st1" x1="56.9" y1="0" x2="45.9" y2="13"/>
						<line class="st1" x1="29" y1="33.2" x2="4.6" y2="62"/>
						<line class="st1" x1="-2.1" y1="70" x2="4.6" y2="62"/>
						<line class="st1" x1="-2.1" y1="176.9" x2="11.9" y2="153.6"/>
						<line class="st1" x1="104.5" y1="0" x2="96.6" y2="13"/>
						<line class="st1" x1="67.2" y1="62" x2="84.5" y2="33.2"/>
						<line class="st1" x1="96.6" y1="13" x2="84.5" y2="33.2"/>
						<line class="st1" x1="43.3" y1="101.4" x2="67.2" y2="62"/>
						<line class="st1" x1="11.9" y1="153.6" x2="43.3" y2="101.4"/>
						<line class="st1" x1="316" y1="565" x2="306" y2="483"/>
						<line class="st1" x1="247.1" y1="0" x2="248.8" y2="13"/>
						<line class="st1" x1="259.5" y1="101.4" x2="254.7" y2="62"/>
						<line class="st1" x1="306" y1="483" x2="288.5" y2="340"/>
						<line class="st1" x1="254.7" y1="62" x2="251.2" y2="33.2"/>
						<line class="st1" x1="248.8" y1="13" x2="251.2" y2="33.2"/>
						<line class="st1" x1="259.5" y1="101.4" x2="265.8" y2="153.6"/>
						<line class="st1" x1="275.2" y1="229.8" x2="265.8" y2="153.6"/>
						<line class="st1" x1="288.5" y1="340" x2="275.2" y2="229.8"/>
						<line class="st1" x1="435.2" y1="153.6" x2="453" y2="183.2"/>
						<line class="st1" x1="435.2" y1="153.6" x2="403.7" y2="101.4"/>
						<line class="st1" x1="350.2" y1="13" x2="362.3" y2="33.2"/>
						<line class="st1" x1="403.7" y1="101.4" x2="379.8" y2="62"/>
						<line class="st1" x1="362.3" y1="33.2" x2="379.8" y2="62"/>
						<line class="st1" x1="342.2" y1="0" x2="350.2" y2="13"/>
						<line class="st1" x1="389.8" y1="0" x2="400.8" y2="13"/>
						<line class="st1" x1="442.2" y1="62" x2="453" y2="74.8"/>
						<line class="st1" x1="417.8" y1="33.2" x2="442.2" y2="62"/>
						<line class="st1" x1="400.8" y1="13" x2="417.8" y2="33.2"/>
						<line class="st1" x1="-2.1" y1="426.8" x2="29.3" y2="340"/>
						<line class="st1" x1="96.5" y1="153.6" x2="115.5" y2="101.4"/>
						<line class="st1" x1="69.1" y1="229.8" x2="29.3" y2="340"/>
						<line class="st1" x1="147.3" y1="13" x2="140.1" y2="33.2"/>
						<line class="st1" x1="115.5" y1="101.4" x2="129.8" y2="62"/>
						<line class="st1" x1="152.1" y1="0" x2="147.3" y2="13"/>
						<line class="st1" x1="129.8" y1="62" x2="140.1" y2="33.2"/>
						<line class="st1" x1="69.1" y1="229.8" x2="96.5" y2="153.6"/>
						<line class="st1" x1="192.2" y1="62" x2="195.6" y2="33.2"/>
						<line class="st1" x1="181.2" y1="153.6" x2="172.1" y2="229.8"/>
						<line class="st1" x1="159.1" y1="340" x2="172.1" y2="229.8"/>
						<line class="st1" x1="198.1" y1="13" x2="195.6" y2="33.2"/>
						<line class="st1" x1="132.1" y1="565" x2="141.8" y2="483"/>
						<line class="st1" x1="181.2" y1="153.6" x2="187.4" y2="101.4"/>
						<line class="st1" x1="187.4" y1="101.4" x2="192.2" y2="62"/>
						<line class="st1" x1="199.6" y1="0" x2="198.1" y2="13"/>
						<line class="st1" x1="141.8" y1="483" x2="159.1" y2="340"/>
						<line class="st1" x1="378.2" y1="229.8" x2="350.5" y2="153.6"/>
						<line class="st1" x1="418.2" y1="340" x2="378.2" y2="229.8"/>
						<line class="st1" x1="299.5" y1="13" x2="306.8" y2="33.2"/>
						<line class="st1" x1="418.2" y1="340" x2="453" y2="435.9"/>
						<line class="st1" x1="317.2" y1="62" x2="306.8" y2="33.2"/>
						<line class="st1" x1="294.8" y1="0" x2="299.5" y2="13"/>
						<line class="st1" x1="350.5" y1="153.6" x2="331.5" y2="101.4"/>
						<line class="st1" x1="317.2" y1="62" x2="331.5" y2="101.4"/>
						<line class="st1" x1="437.3" y1="0" x2="451.5" y2="13"/>
						<line class="st1" x1="453" y1="14.4" x2="451.5" y2="13"/>
						<line class="st1" x1="141.8" y1="483" x2="-2.1" y2="483"/>
						<line class="st1" x1="141.8" y1="483" x2="306" y2="483"/>
						<line class="st1" x1="306" y1="483" x2="453" y2="483"/>
						<line class="st1" x1="-2.1" y1="340" x2="29.3" y2="340"/>
						<line class="st1" x1="418.2" y1="340" x2="453" y2="340"/>
						<line class="st1" x1="288.5" y1="340" x2="418.2" y2="340"/>
						<line class="st1" x1="159.1" y1="340" x2="288.5" y2="340"/>
						<line class="st1" x1="29.3" y1="340" x2="159.1" y2="340"/>
						<line class="st1" x1="69.1" y1="229.8" x2="172.1" y2="229.8"/>
						<line class="st1" x1="378.2" y1="229.8" x2="453" y2="229.8"/>
						<line class="st1" x1="172.1" y1="229.8" x2="275.2" y2="229.8"/>
						<line class="st1" x1="-2.1" y1="229.8" x2="69.1" y2="229.8"/>
						<line class="st1" x1="275.2" y1="229.8" x2="378.2" y2="229.8"/>
						<line class="st1" x1="435.2" y1="153.6" x2="453" y2="153.6"/>
						<line class="st1" x1="11.9" y1="153.6" x2="-2.1" y2="153.6"/>
						<line class="st1" x1="181.2" y1="153.6" x2="265.8" y2="153.6"/>
						<line class="st1" x1="11.9" y1="153.6" x2="96.5" y2="153.6"/>
						<line class="st1" x1="350.5" y1="153.6" x2="435.2" y2="153.6"/>
						<line class="st1" x1="265.8" y1="153.6" x2="350.5" y2="153.6"/>
						<line class="st1" x1="96.5" y1="153.6" x2="181.2" y2="153.6"/>
						<line class="st1" x1="115.5" y1="101.4" x2="187.4" y2="101.4"/>
						<line class="st1" x1="187.4" y1="101.4" x2="259.5" y2="101.4"/>
						<line class="st1" x1="43.3" y1="101.4" x2="115.5" y2="101.4"/>
						<line class="st1" x1="-2.1" y1="101.4" x2="43.3" y2="101.4"/>
						<line class="st1" x1="403.7" y1="101.4" x2="453" y2="101.4"/>
						<line class="st1" x1="259.5" y1="101.4" x2="331.5" y2="101.4"/>
						<line class="st1" x1="331.5" y1="101.4" x2="403.7" y2="101.4"/>
						<line class="st1" x1="379.8" y1="62" x2="442.2" y2="62"/>
						<line class="st1" x1="317.2" y1="62" x2="379.8" y2="62"/>
						<line class="st1" x1="453" y1="62" x2="442.2" y2="62"/>
						<line class="st1" x1="-2.1" y1="62" x2="4.6" y2="62"/>
						<line class="st1" x1="192.2" y1="62" x2="254.7" y2="62"/>
						<line class="st1" x1="67.2" y1="62" x2="129.8" y2="62"/>
						<line class="st1" x1="129.8" y1="62" x2="192.2" y2="62"/>
						<line class="st1" x1="254.7" y1="62" x2="317.2" y2="62"/>
						<line class="st1" x1="4.6" y1="62" x2="67.2" y2="62"/>
						<line class="st1" x1="251.2" y1="33.2" x2="195.6" y2="33.2"/>
						<line class="st1" x1="140.1" y1="33.2" x2="84.5" y2="33.2"/>
						<line class="st1" x1="84.5" y1="33.2" x2="29" y2="33.2"/>
						<line class="st1" x1="195.6" y1="33.2" x2="140.1" y2="33.2"/>
						<line class="st1" x1="-2.1" y1="33.2" x2="29" y2="33.2"/>
						<line class="st1" x1="306.8" y1="33.2" x2="251.2" y2="33.2"/>
						<line class="st1" x1="362.3" y1="33.2" x2="306.8" y2="33.2"/>
						<line class="st1" x1="417.8" y1="33.2" x2="362.3" y2="33.2"/>
						<line class="st1" x1="453" y1="33.2" x2="417.8" y2="33.2"/>
						<line class="st1" x1="350.2" y1="13" x2="299.5" y2="13"/>
						<line class="st1" x1="453" y1="13" x2="451.5" y2="13"/>
						<line class="st1" x1="400.8" y1="13" x2="350.2" y2="13"/>
						<line class="st1" x1="451.5" y1="13" x2="400.8" y2="13"/>
						<line class="st1" x1="96.6" y1="13" x2="45.9" y2="13"/>
						<line class="st1" x1="299.5" y1="13" x2="248.8" y2="13"/>
						<line class="st1" x1="147.3" y1="13" x2="96.6" y2="13"/>
						<line class="st1" x1="45.9" y1="13" x2="-2.1" y2="13"/>
						<line class="st1" x1="248.8" y1="13" x2="198.1" y2="13"/>
						<line class="st1" x1="198.1" y1="13" x2="147.3" y2="13"/>
						<line class="st1" x1="56.9" y1="0" x2="9.4" y2="0"/>
						<line class="st1" x1="199.6" y1="0" x2="152.1" y2="0"/>
						<line class="st1" x1="9.4" y1="0" x2="-2.1" y2="0"/>
						<line class="st1" x1="152.1" y1="0" x2="104.5" y2="0"/>
						<line class="st1" x1="104.5" y1="0" x2="56.9" y2="0"/>
						<line class="st1" x1="437.3" y1="0" x2="389.8" y2="0"/>
						<line class="st1" x1="389.8" y1="0" x2="342.2" y2="0"/>
						<line class="st1" x1="453" y1="0" x2="437.3" y2="0"/>
						<line class="st1" x1="294.8" y1="0" x2="247.1" y2="0"/>
						<line class="st1" x1="247.1" y1="0" x2="199.6" y2="0"/>
						<line class="st1" x1="342.2" y1="0" x2="294.8" y2="0"/>
					</g>
				</g>
			</g>
		</g>
	</g>
</g>
</svg>
