<svg width="286" height="224" viewBox="0 0 286 224" fill="none" xmlns="http://www.w3.org/2000/svg">
<path d="M231.46 97.6787C231.23 97.0668 230.999 96.374 230.781 95.7158C230.516 94.9422 230.251 94.134 229.94 93.2911C228.479 89.4808 227.12 85.9707 225.785 82.5877C225.624 82.1951 225.474 81.8025 225.325 81.433V81.3522C224.672 79.5676 223.903 77.828 223.022 76.1448C220.278 71.3921 217.111 66.8977 213.56 62.7164L211.96 60.7305C209.297 57.4669 206.465 54.3452 203.477 51.3779C199.31 47.0827 195.016 42.926 191.758 39.8316C190.181 38.3075 188.547 36.9566 186.97 35.6518L186.176 34.9937L182.722 32.1417C180.685 30.4906 178.59 28.7933 176.633 27.0844C175.188 25.7837 173.563 24.6988 171.81 23.863L170.946 23.4358C166.2 21.036 161.25 19.0653 156.155 17.5472C155.694 17.4086 154.29 16.993 145.024 16.4503H144.69C143.919 16.3926 143.136 16.3348 142.261 16.3117L126.986 16H126.249C123.2 16.0875 120.16 16.3612 117.144 16.8198C113.829 17.1829 110.536 17.7225 107.279 18.4363C100.194 20.2471 93.2649 22.6256 86.5592 25.5488L82.4728 26.9921C81.179 27.5196 79.9182 28.1249 78.6972 28.8049L78.3518 29.0011C77.0353 29.6577 75.8152 30.4931 74.7259 31.4836C71.67 34.5767 68.8279 37.875 66.2192 41.3557L64.5962 43.4225C64.3429 43.7458 63.0652 45.2238 61.7299 46.7825C59.4277 49.5075 56.4924 52.9021 55.4219 54.2414C53.9254 56.1466 47.744 64.6331 46.8001 66.2381C44.8317 69.702 43.1051 73.085 41.6892 75.9947L41.4705 76.4335C39.1475 80.8023 37.2989 85.4088 35.9567 90.1736C35.6344 91.4322 35.4157 92.6561 35.2085 93.753C34.8517 95.6928 34.2646 109.675 34.6445 112.296C35.3121 116.823 36.1985 122.804 37.1884 128.935C37.8445 133.01 38.5697 137.098 39.2719 141.07L39.7784 143.876L39.8475 144.28V144.395C40.0176 145.743 40.374 147.06 40.9065 148.309L41.8043 150.284C44.0144 155.156 46.2936 160.191 48.7109 165.109C51.3049 170.01 54.333 174.666 57.7586 179.023C58.9097 180.512 68.6711 190.303 71.3071 192.047C74.7604 194.356 78.0871 196.354 81.3562 198.12C86.847 201.076 92.4644 203.974 97.886 206.768C100.542 207.943 103.272 208.942 106.059 209.759C111.476 211.171 117.061 211.831 122.658 211.722C126.111 211.722 129.979 211.168 134.284 210.787C141.005 210.134 147.676 209.042 154.255 207.519C164.95 205.111 175.395 201.698 185.45 197.324C186.178 196.935 186.874 196.491 187.534 195.996C200.99 186.689 205.951 181.066 213.399 172.626C214.861 170.975 216.38 169.243 218.096 167.338C220.847 164.289 228.122 147.259 228.628 142.709C228.801 141.104 229.066 139.476 229.33 137.756C229.48 136.821 229.63 135.851 229.768 134.881C229.906 133.911 230.09 132.78 230.251 131.752V131.463C230.7 128.554 231.161 125.54 231.46 122.469C231.759 119.397 231.943 116.291 232.105 113.497C232.243 111.188 232.392 108.821 232.588 106.512C232.884 103.52 232.498 100.499 231.46 97.6787V97.6787Z" fill="white"/>
<path d="M226.073 99.1336C225.52 97.6441 225.071 96.1315 224.519 94.6536C223.145 91.0434 221.752 87.4487 220.34 83.8693C219.628 81.8591 218.797 79.8928 217.854 77.9807C214.953 72.6232 211.016 67.9931 207.252 63.2476C204.681 60.1094 201.953 57.1035 199.079 54.2414C195.246 50.3041 191.31 46.4477 187.35 42.6258C185.669 41.0093 183.839 39.5314 182.043 38.0073C178.774 35.2939 176.61 32.3727 173.042 30.0634C163.672 24.0362 155.545 21.727 154.681 21.6577L141.34 20.2375C109.685 16.5888 91.5665 27.7195 83.2901 31.0564C82.2076 31.4924 81.1541 31.9977 80.1361 32.569C79.1628 33.0347 78.2536 33.6246 77.431 34.324C73.9442 37.9351 70.6988 41.7729 67.7157 45.8126C66.3919 47.4753 65.1027 49.1842 63.7789 50.8584C60.4177 55.1305 57.0335 59.3911 53.6723 63.6517C52.4198 65.0839 51.266 66.5999 50.2189 68.1894C48.4347 71.2838 46.7656 74.4937 45.2462 77.7036C43.0011 81.899 41.1994 86.3183 39.8705 90.8895C39.0763 94.0763 38.213 107.77 38.7194 110.911C39.5367 116.499 40.377 122.088 41.2749 127.665C42.0922 132.687 42.99 137.71 43.8764 142.675C44.0606 143.691 49.6319 156.981 52.4176 162.523C55.491 168.723 66.3919 182.359 73.1374 187.417C76.2154 189.684 79.4548 191.721 82.8297 193.513C89.4715 197.104 99.0832 203.455 115.268 205.452C142.296 208.812 178.291 196.492 185.117 192.982C185.237 192.9 185.352 192.812 185.462 192.717L186.74 191.712C186.74 191.712 194.625 185.35 199.01 180.766C203.931 175.734 208.518 170.384 212.743 164.751C215.276 160.341 217.578 155.791 219.822 151.231C221.382 148.316 222.422 145.151 222.896 141.878C223.195 139.142 223.702 136.428 224.047 133.692C224.634 129.604 225.371 125.528 225.762 121.418C226.269 116.072 226.441 110.68 226.913 105.322C227.104 103.222 226.817 101.106 226.073 99.1336Z" fill="#FF8300"/>
<path d="M260.882 133.137C259.869 129.489 246.275 81.4792 244.882 76.5605C244.85 76.4385 244.779 76.3309 244.678 76.2554C244.578 76.1798 244.455 76.1408 244.329 76.1448H240.611C237.158 76.3757 234.764 76.4104 231.264 76.6297C231.162 76.6395 231.06 76.6086 230.981 76.5439C230.901 76.4791 230.85 76.3856 230.838 76.2834C230.056 69.8521 229.261 63.363 228.456 56.747C228.444 56.6387 228.39 56.5393 228.306 56.4702C228.222 56.4011 228.115 56.3678 228.007 56.3775C226.533 56.493 224.979 56.6315 223.402 56.7354C217.934 57.0818 212.455 57.4513 206.988 57.7515C196.766 58.3404 186.555 58.9061 176.345 59.4488C175.482 59.5065 175.067 59.2525 174.964 58.2942C174.745 56.3197 174.665 55.373 174.48 54.2414C174.463 54.1359 174.405 54.0414 174.319 53.9786C174.233 53.9158 174.125 53.8899 174.02 53.9066C169.139 54.6225 144.552 58.6752 144.356 58.1903C140.995 50.0501 130.117 36.9104 130.094 36.8873C119.078 23.3435 100.28 22.4198 100.28 22.4198C98.4345 22.3409 96.5857 22.3717 94.7435 22.5121L84.7865 25.11L74.3114 28.9781L54.5585 37.2337C54.5585 37.2337 49.4246 39.3582 50.5987 41.4019L51.888 44.2885L56.3773 50.9507C59.8306 54.8303 69.3847 63.3746 69.3847 63.3746C69.4397 63.4312 69.4773 63.5023 69.4934 63.5796C69.5095 63.6569 69.5033 63.7372 69.4755 63.8111C69.4477 63.885 69.3995 63.9495 69.3366 63.9969C69.2736 64.0443 69.1985 64.0728 69.12 64.0789L57.4823 65.1412C57.4823 65.1412 47.9282 66.2265 43.6691 66.8038C38.5812 67.4966 33.4819 68.1201 28.394 68.7783C26.322 69.0438 21.2111 69.9329 19.7607 70.1869C19.6578 70.204 19.5654 70.2605 19.5032 70.3445C19.4409 70.4284 19.4136 70.5334 19.4269 70.6372L32.5495 161.957C32.5634 162.023 32.5926 162.084 32.6346 162.136C32.6766 162.188 32.7302 162.23 32.7912 162.257L138.013 205.348C159.366 202.958 180.086 195.638 185.094 193.063L260.732 133.565C260.795 133.515 260.842 133.448 260.868 133.373C260.895 133.297 260.9 133.216 260.882 133.137V133.137Z" fill="#000B8C"/>
<path d="M261.861 128.346C261.872 127.435 262.152 126.548 262.664 125.796C263.177 125.044 263.9 124.461 264.742 124.12C265.585 123.779 266.509 123.696 267.398 123.881C268.287 124.066 269.102 124.51 269.741 125.158C270.379 125.806 270.812 126.629 270.985 127.524C271.158 128.418 271.063 129.343 270.713 130.184C270.363 131.025 269.773 131.743 269.017 132.248C268.261 132.753 267.373 133.022 266.465 133.022C265.85 133.042 265.238 132.934 264.666 132.705C264.095 132.476 263.577 132.131 263.145 131.692C262.713 131.253 262.375 130.73 262.154 130.154C261.933 129.578 261.833 128.962 261.861 128.346V128.346ZM270.183 128.346C270.174 127.617 269.95 126.906 269.539 126.305C269.128 125.703 268.549 125.237 267.875 124.964C267.2 124.692 266.461 124.626 265.749 124.775C265.037 124.923 264.385 125.28 263.875 125.8C263.365 126.319 263.02 126.979 262.882 127.695C262.745 128.411 262.823 129.152 263.104 129.824C263.386 130.497 263.86 131.07 264.466 131.473C265.073 131.875 265.784 132.089 266.511 132.087C267.002 132.102 267.491 132.015 267.947 131.831C268.403 131.648 268.816 131.371 269.161 131.02C269.506 130.669 269.775 130.25 269.95 129.79C270.126 129.33 270.205 128.838 270.183 128.346V128.346ZM268.859 130.32C268.928 130.413 268.433 130.874 267.915 130.874C267.722 130.869 267.533 130.809 267.372 130.701C267.211 130.592 267.084 130.44 267.006 130.262L266.373 129.269H266.005V130.089C266.017 130.187 266.008 130.287 265.976 130.381C265.945 130.475 265.894 130.56 265.825 130.631C265.756 130.702 265.673 130.757 265.58 130.791C265.488 130.825 265.389 130.838 265.291 130.828H265.061C264.623 130.828 264.382 130.47 264.382 129.893V126.764C264.364 126.648 264.372 126.53 264.407 126.418C264.441 126.306 264.501 126.203 264.58 126.117C264.66 126.032 264.758 125.965 264.868 125.923C264.977 125.881 265.094 125.865 265.21 125.875H266.695C268.111 125.875 268.825 126.406 268.825 127.514C268.842 127.817 268.76 128.117 268.592 128.369C268.423 128.621 268.178 128.812 267.892 128.912L268.859 130.32ZM266.557 128.149C266.983 128.149 267.19 127.965 267.19 127.618C267.19 127.272 266.983 127.099 266.523 127.099H265.947V128.149H266.557Z" fill="#000B8C"/>
<path d="M117.869 151.138C116.718 151.208 109.293 152.224 107.152 152.593C105.875 152.824 105.103 151.438 104.85 150.723C104.516 149.66 98.7263 134.431 98.7263 134.431C98.7263 134.431 98.5652 133.969 98.4616 133.715C98.4267 133.627 98.3636 133.553 98.2824 133.505C98.2011 133.457 98.1063 133.437 98.0127 133.449L88.2283 135.1C88.1422 135.113 88.0626 135.153 88.0022 135.216C87.9417 135.279 87.9038 135.36 87.8945 135.447C87.2499 140.423 85.0628 151.785 84.8095 153.563C84.7059 154.29 84.3491 154.579 83.5894 154.66C80.4238 155.029 77.2813 155.56 74.1043 155.815C73.227 155.722 72.3814 155.434 71.6294 154.972C71.5488 154.939 71.4814 154.881 71.4376 154.805C71.3938 154.73 71.3763 154.642 71.3877 154.556C71.9632 148.667 72.5388 142.94 73.0913 137.236C73.7935 129.939 74.4611 122.63 75.1863 115.298C75.9115 107.967 76.7403 100.404 77.4885 92.9447C77.8454 89.4808 78.1677 86.0169 78.5475 82.553C78.7547 80.6248 78.7893 80.6248 80.7346 80.4516C85.339 80.059 89.9434 79.678 94.4788 79.297C95.3191 79.2161 95.8256 79.297 96.1479 80.2438C98.0933 85.7167 100.154 91.1435 102.076 96.6165C103.998 102.089 105.714 107.331 107.544 112.689C109.777 119.247 112.018 125.79 114.266 132.318C116.123 137.706 117.98 143.094 119.838 148.483C120.459 150.226 120.056 151 117.869 151.138Z" fill="white"/>
<path d="M237.469 84.3542C238.528 84.1811 239.046 84.3542 239.402 85.5089C241.049 90.7971 242.856 96.0507 244.513 101.316C246.39 107.239 248.266 113.151 250.05 119.086C251.362 123.427 252.548 127.815 253.837 132.364C253.853 132.419 253.857 132.476 253.849 132.532C253.842 132.588 253.823 132.642 253.794 132.691C253.765 132.74 253.726 132.782 253.68 132.815C253.634 132.848 253.582 132.871 253.527 132.883C252.502 133.08 251.535 133.288 250.557 133.449C248.98 133.68 246.252 134.096 244.675 134.304C244.263 134.429 243.82 134.396 243.431 134.213C243.042 134.03 242.735 133.708 242.568 133.311C241.509 131.001 239.909 127.468 238.781 125.228C238.516 124.709 238.194 124.201 237.929 123.75C237.885 123.682 237.823 123.628 237.75 123.593C237.676 123.559 237.595 123.545 237.515 123.554C234.856 123.947 232.576 124.074 230.159 124.432C230.075 124.443 229.996 124.482 229.936 124.543C229.876 124.603 229.837 124.682 229.825 124.766C229.261 128.022 229.146 132.629 228.674 135.874C228.548 136.728 228.237 137.029 227.396 137.19C223.84 137.675 221.215 138.206 217.681 138.749C216.783 138.888 216.829 138.31 216.818 137.756C216.737 134.685 216.634 131.59 216.588 128.519C216.403 115.433 216.223 102.347 216.047 89.2614C216.047 88.1992 216.346 87.7835 217.428 87.6103C224.112 86.5865 230.792 85.5012 237.469 84.3542Z" fill="white"/>
<path d="M68.5329 120.252L57.632 121.406C56.0319 121.58 53.8564 121.984 52.3484 122.157C52.2242 122.171 52.1105 122.234 52.0311 122.331C51.9516 122.428 51.9127 122.551 51.9225 122.677L51.9916 123.623L54.4089 154.637C54.4089 154.637 54.5125 155.941 54.57 156.588C54.5746 156.691 54.5423 156.791 54.4789 156.872C54.4155 156.953 54.3252 157.008 54.2247 157.027C52.1758 157.385 50.7714 157.546 48.7685 157.812C46.0749 158.17 43.3583 158.447 40.6532 158.678C39.7076 158.732 38.7591 158.658 37.833 158.459C37.5798 158.401 37.315 157.835 37.269 157.477C36.6589 153.297 36.1179 149.118 35.5308 144.938C34.4488 136.971 33.3744 129 32.3077 121.025C31.1566 112.631 30.1207 104.225 28.9695 95.8197C28.2674 90.7163 27.4731 85.6243 26.6673 80.5209C26.5177 79.4817 26.4141 78.431 26.2875 77.3803C26.1148 75.8793 27.3465 75.6368 28.2098 75.4751C33.0329 74.5976 58.5183 71.33 66.4149 70.1754C67.566 70.0022 67.8768 70.6719 67.9804 71.5263C68.2797 73.7316 68.4984 75.2557 68.7862 77.4611C69.143 80.2899 69.7761 83.8808 70.225 86.6981C70.3632 87.5757 70.225 88.1299 69.4308 88.3031C67.1286 88.7765 62.4206 89.5386 62.4206 89.5386L48.6073 91.9286C48.5036 91.9457 48.4101 92.0018 48.346 92.0854C48.2819 92.169 48.2519 92.274 48.262 92.379C48.6649 95.4156 49.5858 104.999 49.839 106.662C50.0002 107.712 50.5988 108.001 51.5772 107.816C55.2492 107.343 57.7241 106.974 61.4076 106.523C63.2954 106.281 65.1947 106.038 67.0825 105.819H67.2207C67.4135 105.799 67.6068 105.853 67.7609 105.971C67.9149 106.089 68.0182 106.262 68.0495 106.454C68.3487 108.567 69.9718 118.15 69.9948 118.427C70.179 119.825 69.9258 120.113 68.5329 120.252Z" fill="white"/>
<path d="M126.997 150.619C124.845 150.953 124.879 150.953 124.592 148.702C123.256 138.206 122.117 127.699 120.781 117.204C119.389 106.281 118.03 95.3463 116.626 84.4235C116.465 83.2689 116.81 82.7608 117.984 82.6223C122.312 82.0912 126.641 81.4677 130.957 80.9135C133.8 80.544 135.838 81.814 137.726 83.8808C141.052 87.5295 144.632 90.9818 148.086 94.5265C149.72 96.1892 151.539 98.1059 153.139 99.8032C153.584 100.339 154.061 100.848 154.566 101.327C154.628 101.378 154.704 101.41 154.784 101.417C154.864 101.425 154.944 101.409 155.015 101.37C155.085 101.332 155.143 101.273 155.18 101.202C155.217 101.13 155.232 101.049 155.222 100.969C154.186 92.7946 152.92 84.2041 151.827 76.0293C151.09 70.2562 151.182 71.6417 150.411 65.9032C150.319 65.2451 150.514 64.968 151.125 64.8525C157.743 63.5709 166.549 62.6818 166.549 62.6818C167.977 62.5548 168.218 62.6818 168.368 63.8364C168.84 67.3581 170.014 75.8215 170.601 80.7749C171.28 86.3979 175.447 121.834 177.208 137.167C177.301 137.929 177.427 139.476 177.669 142.571C177.761 143.91 177.151 144.083 176.587 144.245C175.712 144.488 170.106 145.4 167.746 145.746C167.425 145.807 167.094 145.772 166.792 145.645C166.491 145.517 166.235 145.304 166.054 145.03C156.615 134.373 140.12 115.091 140.074 115.01C139.966 114.881 139.827 114.783 139.669 114.726C139.511 114.669 139.341 114.656 139.176 114.686L138.704 114.802C138.605 114.826 138.517 114.884 138.456 114.967C138.395 115.049 138.365 115.15 138.37 115.252C138.439 116.176 139.061 122.295 139.521 126.314C139.993 130.932 141.605 143.714 141.605 143.714C141.605 143.714 141.904 146.497 141.95 147.859C141.95 148.598 141.352 148.829 140.626 148.921C136.459 149.418 132.062 149.96 127.884 150.48L126.997 150.619Z" fill="white"/>
<path d="M173.951 65.4645C181.606 65.0142 192.714 64.2521 200.369 63.8134C206.631 63.4554 217.578 62.6587 220.179 62.4394C221.066 62.3701 221.02 62.982 221.1 63.467C221.653 67.0925 222.159 71.1799 222.723 74.7939C222.976 76.4566 223.057 78.0962 223.333 79.7473C223.609 81.3984 221.883 81.41 221.779 81.41C219.73 81.4677 211.27 81.9295 209.336 82.2297C209.192 82.2522 209.06 82.3268 208.967 82.4395C208.874 82.5522 208.825 82.6953 208.829 82.8417C209.037 87.4602 209.221 91.9748 209.428 96.4779C209.716 102.724 210.026 108.96 210.303 115.195C210.579 121.43 210.844 127.364 211.097 133.449C211.178 135.204 211.201 136.913 211.258 138.714C211.258 139.592 210.97 139.869 210.015 139.927C207.77 139.996 206.665 140.238 204.421 140.4C202.556 140.539 193.14 141.555 193.048 141.555C190.941 141.728 191.01 140.215 190.884 138.818C190.193 130.886 189.468 122.954 188.789 115.021C188.202 108.255 187.833 101.951 187.315 95.1732C187.039 91.5245 186.659 87.4141 186.463 83.8347C186.459 83.7558 186.439 83.6786 186.405 83.6074C186.371 83.5362 186.323 83.4725 186.264 83.42C186.205 83.3674 186.137 83.327 186.062 83.3011C185.988 83.2752 185.909 83.2642 185.83 83.2689C183.735 83.4421 176.391 83.9501 176.357 83.9501C176.069 83.9554 175.79 83.8524 175.574 83.6615C175.219 83.3398 175 82.8933 174.964 82.4145L173.122 69.9329L172.811 67.1387C172.779 66.9031 172.799 66.6634 172.868 66.4361C172.938 66.2088 173.056 65.9994 173.214 65.8224C173.305 65.7146 173.418 65.6271 173.545 65.5655C173.672 65.5038 173.81 65.4695 173.951 65.4645V65.4645Z" fill="white"/>
<path d="M40.6417 158.69H39.2949C39.7429 158.73 40.1937 158.73 40.6417 158.69Z" fill="#BDAFDC"/>
<path d="M26.4487 75.0248C26.3135 75.1995 26.2168 75.401 26.1652 75.616C26.1136 75.831 26.1082 76.0546 26.1494 76.2718C26.276 77.3225 26.3796 78.3963 26.5292 79.4471C27.289 84.6198 28.0947 89.781 28.8314 94.9653C29.9825 103.475 31.1336 112.008 32.2157 120.517C33.2977 128.6 34.3874 136.682 35.4848 144.765C36.0604 149.002 36.6359 153.24 37.2345 157.466C37.2345 157.835 37.5683 158.412 37.8216 158.459C38.308 158.561 38.8 158.634 39.295 158.678H40.6763L26.8631 74.7015L26.4487 75.0248Z" fill="#BDAFDC"/>
<path d="M40.6417 158.69H39.2949C39.7429 158.73 40.1937 158.73 40.6417 158.69Z" fill="#BDAFDC"/>
<path d="M26.4487 75.0248C26.3135 75.1995 26.2168 75.401 26.1652 75.616C26.1136 75.831 26.1082 76.0546 26.1494 76.2718C26.276 77.3225 26.3796 78.3963 26.5292 79.4471C27.289 84.6198 28.0947 89.781 28.8314 94.9653C29.9825 103.475 31.1336 112.008 32.2157 120.517C33.2977 128.6 34.3874 136.682 35.4848 144.765C36.0604 149.002 36.6359 153.24 37.2345 157.466C37.2345 157.835 37.5683 158.412 37.8216 158.459C38.308 158.561 38.8 158.634 39.295 158.678H40.6763L26.8631 74.7015L26.4487 75.0248Z" fill="#BDAFDC"/>
<path d="M188.72 84.4697L192.737 142.836L189.111 143.448L183.332 85.659L188.72 84.4697Z" fill="#BDAFDC"/>
<path d="M178.567 87.033L175.701 67.7275C175.691 67.6514 175.697 67.5741 175.718 67.5003C175.739 67.4265 175.775 67.3579 175.824 67.2985C175.872 67.2391 175.932 67.1901 176 67.1547C176.068 67.1193 176.142 67.0982 176.219 67.0925L225.877 63.2591L225.094 58.8022L171.476 63.0282L173.962 87.6103L178.567 87.033Z" fill="#BDAFDC"/>
<path d="M217.462 139.569L219.166 91.4783C219.179 91.1107 219.328 90.761 219.583 90.4967C219.838 90.2323 220.182 90.072 220.547 90.0466L242.211 86.3518L240.174 82.4145L214.078 85.8784L213.111 140.92L217.462 139.569Z" fill="#BDAFDC"/>
<path d="M238.159 124.847L240.266 124.432L246.39 135.343L239.909 135.574L238.159 124.847Z" fill="#BDAFDC"/>
<path d="M79.0425 80.5555L73.874 156.045L70.8696 155.814L78.3173 79.6087L79.0425 80.5555Z" fill="#BDAFDC"/>
<path d="M102.007 133.957L108.407 154.821L104.701 153.678L97.5292 135.239L102.007 133.957Z" fill="#BDAFDC"/>
<path d="M125.858 151.231L118.065 85.3241C118.053 85.2482 118.057 85.1708 118.076 85.0964C118.095 85.022 118.128 84.9521 118.174 84.8908C118.221 84.8295 118.278 84.7781 118.345 84.7395C118.411 84.7009 118.484 84.6759 118.56 84.666L137.887 81.9757L131.682 75.556L112.528 78.7774L123.049 157.119L125.858 151.231Z" fill="#BDAFDC"/>
<path d="M154.209 101.027C154.989 101.699 155.834 102.29 156.73 102.794L152.909 66.1803L170.739 64.841L169.358 56.6777L147.429 62.7164L151.942 96.2008C152.537 97.8805 153.297 99.4971 154.209 101.027V101.027Z" fill="#BDAFDC"/>
<path d="M96.1824 120.91L92.5103 110.253L96.1824 120.91L87.4685 122.238L88.7002 123.889L96.7579 122.041L96.1824 120.91Z" fill="#BDAFDC"/>
<path d="M92.5449 110.264L92.3492 109.675C92.2793 109.485 92.149 109.324 91.9784 109.215C91.8079 109.107 91.6065 109.057 91.4053 109.075L90.047 109.213C89.7957 109.244 89.5614 109.357 89.3804 109.534C89.1994 109.711 89.0817 109.944 89.0455 110.195L87.5031 122.249L96.2169 120.921L92.5449 110.264Z" fill="#000B8C"/>
<path d="M237.584 111.661C236.767 115.783 231.828 117.527 227.788 112.169C227.293 111.511 227.592 110.541 228.375 110.668C231.247 111.031 234.164 110.633 236.836 109.514C237.688 109.329 238.067 109.283 237.584 111.615" fill="#BDAFDC"/>
<path d="M236.766 109.825C235.938 113.947 231.011 115.691 226.971 110.333C226.476 109.675 226.763 108.694 227.546 108.832C230.418 109.19 233.334 108.792 236.007 107.678C236.859 107.493 237.238 107.435 236.766 109.779" fill="#000B8C"/>
<path d="M59.773 46.6208C58.6219 45.4662 57.632 44.1961 56.596 42.9606C56.1125 42.3949 56.147 42.0716 56.7341 41.5982C57.3212 41.1248 64.7918 38.192 67.6926 37.1182C81.3332 32.0263 86.4556 27.6733 96.4702 27.7657C110.283 27.8812 114.646 32.1186 115.866 32.8345C116.557 33.2386 118.168 34.3702 118.168 34.3702C131.13 42.5104 136.839 59.4026 138.255 63.1321C141.467 71.5609 149.237 85.8091 149.409 86.2247C149.789 87.2754 149.605 87.6796 148.569 88.0375C147.959 88.2569 139.636 74.8516 139.625 74.8401C138.339 72.6461 136.459 70.8625 134.204 69.6957C131.949 68.5289 129.41 68.0267 126.882 68.2471C126.053 68.351 125.248 68.5127 125.225 68.5127L119.976 69.3094C100.407 72.3691 94.4903 70.3947 90.1276 69.0207C83.739 67.0001 77.5345 62.8896 72.4121 58.7214C67.9046 55.0092 63.6798 50.9644 59.773 46.6208V46.6208Z" fill="#76BC21"/>
<path d="M213.468 162.35C213.468 162.442 213.503 162.546 213.572 162.661L213.468 162.35Z" fill="#FCBD80"/>
<path d="M158.805 152.573L74.5974 162.914L77.6847 188.208L161.892 177.867L158.805 152.573Z" fill="#76BC21"/>
<path d="M81.6555 178.815L80.585 170.028C80.4919 169.562 80.5826 169.077 80.8383 168.677C80.9679 168.511 81.1315 168.374 81.3182 168.277C81.5048 168.179 81.7101 168.123 81.9203 168.111H82.2656C82.4533 168.096 82.642 168.096 82.8297 168.111C82.9765 168.121 83.1206 168.156 83.2556 168.215C83.3949 168.281 83.5263 168.362 83.647 168.458C83.7877 168.565 83.9222 168.681 84.0498 168.804L89.0456 173.908L88.4586 169.127C88.3205 167.973 88.7924 167.326 89.8629 167.199H90.1852C91.2212 167.061 91.8198 167.58 91.9579 168.735L93.0285 177.51C93.121 177.978 93.0347 178.465 92.7867 178.872C92.6608 179.034 92.5024 179.166 92.3219 179.262C92.1414 179.357 91.9429 179.413 91.7392 179.427H91.4399C91.2484 179.443 91.0559 179.443 90.8644 179.427C90.719 179.415 90.5757 179.384 90.4385 179.334C90.3089 179.285 90.1883 179.215 90.0816 179.127C89.9424 179.021 89.8116 178.906 89.6902 178.78L84.5794 173.63L85.1664 178.434C85.2342 178.656 85.2496 178.891 85.2114 179.12C85.1732 179.349 85.0824 179.567 84.9463 179.755C84.8101 179.943 84.6323 180.097 84.4268 180.204C84.2213 180.311 83.9937 180.369 83.7621 180.374H83.4513C82.3923 180.477 81.8052 179.969 81.6555 178.815Z" fill="white"/>
<path d="M99.1062 171.321C98.8505 171.347 98.6012 171.418 98.3694 171.529C98.1886 171.62 98.0218 171.737 97.8745 171.875C97.7529 172.005 97.652 172.153 97.5752 172.314C97.5011 172.459 97.4395 172.609 97.391 172.765L97.0227 172.834C96.7475 172.869 96.469 172.869 96.1939 172.834C95.8834 172.801 95.5864 172.69 95.3305 172.51C95.1944 172.411 95.0816 172.283 95 172.136C94.9185 171.988 94.8702 171.824 94.8586 171.656C94.8151 171.297 94.8717 170.934 95.0221 170.606C95.1725 170.277 95.4108 169.997 95.7104 169.797C96.696 169.17 97.8258 168.809 98.991 168.746C100.26 168.475 101.584 168.659 102.732 169.266C103.177 169.595 103.542 170.02 103.801 170.51C104.06 170.999 104.206 171.541 104.229 172.095L104.873 177.348C104.873 177.441 104.758 177.556 104.482 177.683C104.183 177.805 103.869 177.886 103.549 177.926C103.094 178.021 102.621 177.945 102.218 177.713C101.815 177.481 101.51 177.109 101.362 176.667C101.109 177.196 100.71 177.641 100.211 177.949C99.6734 178.294 99.0622 178.508 98.427 178.572C98.0045 178.649 97.5718 178.649 97.1493 178.572C96.7728 178.503 96.4155 178.353 96.1018 178.134C95.806 177.928 95.5585 177.66 95.3766 177.348C95.1883 177.018 95.0707 176.653 95.0312 176.275C94.9489 175.797 95.0049 175.306 95.1927 174.86C95.3804 174.414 95.6919 174.031 96.0902 173.757C97.3609 172.998 98.7928 172.551 100.269 172.453H100.649C100.635 172.271 100.583 172.094 100.494 171.935C100.406 171.775 100.285 171.637 100.138 171.53C99.9913 171.422 99.8231 171.348 99.6449 171.312C99.4667 171.276 99.2829 171.279 99.1062 171.321ZM99.5896 176.217C99.8002 176.202 100.005 176.143 100.192 176.043C100.378 175.944 100.542 175.806 100.672 175.64C100.91 175.305 101.013 174.892 100.959 174.485V174.173L100.511 174.231C99.9538 174.294 99.4124 174.455 98.9105 174.704C98.7548 174.775 98.6259 174.894 98.543 175.044C98.4601 175.193 98.4275 175.366 98.45 175.536C98.4599 175.659 98.4996 175.778 98.5658 175.883C98.632 175.988 98.7227 176.074 98.8299 176.136C99.0638 176.257 99.332 176.293 99.5896 176.24V176.217Z" fill="white"/>
<path d="M109.811 169.197C109.896 168.692 110.124 168.223 110.468 167.846C110.818 167.472 111.294 167.242 111.803 167.199C112.061 167.15 112.326 167.156 112.582 167.215C112.837 167.275 113.078 167.387 113.288 167.546C113.491 167.705 113.659 167.906 113.78 168.135C113.901 168.363 113.972 168.615 113.99 168.873C114.036 169.145 114.026 169.424 113.961 169.692C113.896 169.96 113.776 170.212 113.61 170.432C113.512 170.574 113.392 170.699 113.253 170.802C113.138 170.882 113.069 170.917 113.058 170.906C112.876 170.779 112.673 170.685 112.459 170.628C112.212 170.582 111.958 170.582 111.711 170.628C110.663 170.767 110.226 171.587 110.41 173.099L110.675 175.305C110.737 175.545 110.744 175.797 110.696 176.04C110.648 176.284 110.547 176.514 110.399 176.713C110.111 177.011 109.728 177.195 109.317 177.233H108.937C108.538 177.288 108.132 177.207 107.786 177.002C107.593 176.843 107.438 176.644 107.33 176.419C107.223 176.193 107.166 175.947 107.164 175.697L106.266 168.412C106.266 168.342 106.393 168.25 106.657 168.1C106.927 167.974 107.214 167.892 107.509 167.857C107.72 167.834 107.932 167.834 108.142 167.857C108.36 167.885 108.57 167.952 108.764 168.054C108.978 168.163 109.169 168.312 109.328 168.492C109.527 168.699 109.69 168.937 109.811 169.197V169.197Z" fill="white"/>
<path d="M119.849 168.793C119.595 168.82 119.347 168.887 119.112 168.989C118.928 169.079 118.761 169.2 118.617 169.347C118.493 169.475 118.392 169.623 118.318 169.786C118.242 169.929 118.18 170.08 118.134 170.236C118.015 170.275 117.891 170.298 117.766 170.305C117.49 170.34 117.212 170.34 116.937 170.305C116.628 170.265 116.333 170.155 116.073 169.982C115.937 169.883 115.825 169.755 115.743 169.607C115.661 169.46 115.613 169.296 115.602 169.127C115.556 168.766 115.612 168.398 115.765 168.068C115.918 167.737 116.16 167.456 116.465 167.257C117.449 166.638 118.574 166.28 119.734 166.218C121.003 165.946 122.327 166.13 123.475 166.737C123.919 167.064 124.284 167.487 124.543 167.975C124.802 168.463 124.949 169.002 124.972 169.555L125.616 174.82C125.616 174.912 125.501 175.028 125.225 175.143C124.928 175.274 124.614 175.359 124.292 175.397C123.836 175.491 123.361 175.414 122.958 175.18C122.554 174.946 122.251 174.571 122.105 174.127C121.858 174.66 121.457 175.107 120.954 175.409C120.415 175.753 119.805 175.97 119.17 176.044C118.747 176.114 118.315 176.114 117.892 176.044C117.518 175.967 117.162 175.818 116.845 175.605C116.549 175.399 116.301 175.131 116.12 174.82C115.933 174.489 115.815 174.124 115.774 173.746C115.693 173.269 115.75 172.778 115.938 172.332C116.125 171.886 116.436 171.504 116.833 171.229C118.104 170.458 119.541 170.006 121.023 169.913H121.392C121.379 169.731 121.326 169.554 121.238 169.395C121.15 169.236 121.028 169.099 120.881 168.992C120.734 168.885 120.565 168.812 120.387 168.778C120.209 168.743 120.025 168.748 119.849 168.793ZM120.333 173.688C120.543 173.671 120.747 173.61 120.933 173.511C121.119 173.412 121.283 173.276 121.415 173.111C121.653 172.777 121.756 172.364 121.702 171.956V171.644H121.265C120.705 171.712 120.161 171.872 119.653 172.118C119.498 172.192 119.37 172.313 119.287 172.465C119.204 172.616 119.172 172.79 119.193 172.961C119.203 173.084 119.243 173.204 119.309 173.308C119.375 173.413 119.466 173.5 119.573 173.561C119.807 173.68 120.072 173.724 120.333 173.688V173.688Z" fill="white"/>
<path d="M130.531 166.61C130.784 166.089 131.14 165.625 131.579 165.248C132.085 164.839 132.703 164.594 133.352 164.544C133.872 164.466 134.402 164.505 134.905 164.659C135.339 164.782 135.735 165.012 136.057 165.329C136.362 165.645 136.604 166.018 136.77 166.426C136.946 166.862 137.062 167.32 137.116 167.788L137.622 171.933C137.68 172.172 137.685 172.421 137.637 172.662C137.589 172.903 137.49 173.131 137.346 173.33C137.064 173.643 136.672 173.833 136.252 173.861H135.895C135.476 173.937 135.043 173.859 134.675 173.642C134.482 173.484 134.325 173.286 134.218 173.06C134.11 172.834 134.054 172.587 134.054 172.337L133.628 168.816C133.597 168.455 133.443 168.116 133.19 167.857C133.064 167.751 132.916 167.674 132.757 167.63C132.599 167.586 132.432 167.577 132.269 167.603C131.973 167.627 131.69 167.735 131.452 167.915C131.248 168.076 131.082 168.281 130.969 168.515L131.475 172.649C131.545 172.868 131.563 173.1 131.528 173.327C131.492 173.554 131.405 173.77 131.272 173.957C131.139 174.145 130.964 174.298 130.762 174.406C130.559 174.513 130.334 174.572 130.105 174.577H129.737C129.32 174.65 128.89 174.568 128.528 174.346C128.335 174.189 128.179 173.99 128.071 173.764C127.963 173.539 127.907 173.292 127.907 173.042L127.009 165.756C127.009 165.698 127.136 165.594 127.4 165.456C127.692 165.309 128.008 165.215 128.333 165.179C128.543 165.155 128.755 165.155 128.966 165.179C129.182 165.206 129.391 165.269 129.587 165.363C129.794 165.478 129.981 165.626 130.14 165.802C130.314 166.048 130.447 166.321 130.531 166.61Z" fill="white"/>
<path d="M140.684 176.99C140.036 177.111 139.366 177.035 138.762 176.771C138.525 176.645 138.324 176.46 138.179 176.233C138.034 176.007 137.949 175.747 137.933 175.478C137.898 175.299 137.898 175.114 137.933 174.935C137.971 174.775 138.029 174.619 138.105 174.473C138.16 174.363 138.226 174.259 138.301 174.162C138.37 174.092 138.405 174.058 138.428 174.069C138.539 174.195 138.689 174.28 138.854 174.312C139.021 174.347 139.193 174.347 139.36 174.312C139.855 174.254 140.074 173.942 140.005 173.388L139.061 165.652C139.001 165.409 138.996 165.155 139.046 164.91C139.096 164.664 139.199 164.432 139.349 164.232C139.637 163.931 140.027 163.749 140.442 163.724H140.811C141.036 163.663 141.273 163.658 141.5 163.709C141.728 163.76 141.94 163.866 142.119 164.016C142.297 164.167 142.437 164.359 142.526 164.575C142.615 164.792 142.65 165.026 142.629 165.259L143.596 173.18C143.76 174.096 143.562 175.041 143.044 175.813C142.443 176.503 141.595 176.926 140.684 176.99V176.99ZM140.58 162.777C140.074 162.866 139.553 162.763 139.118 162.488C138.926 162.359 138.765 162.188 138.648 161.989C138.53 161.789 138.459 161.565 138.439 161.334C138.401 161.105 138.413 160.871 138.474 160.647C138.536 160.424 138.646 160.217 138.796 160.04C139.142 159.671 139.615 159.448 140.12 159.417C140.625 159.33 141.144 159.428 141.582 159.694C141.773 159.824 141.932 159.995 142.047 160.195C142.163 160.395 142.232 160.618 142.249 160.849C142.291 161.078 142.282 161.314 142.223 161.54C142.163 161.765 142.054 161.975 141.904 162.153C141.558 162.523 141.085 162.746 140.58 162.777V162.777Z" fill="white"/>
<path d="M149.317 165.155C149.065 165.18 148.819 165.25 148.592 165.363C148.406 165.451 148.239 165.572 148.097 165.721C147.976 165.85 147.872 165.994 147.786 166.148C147.717 166.31 147.66 166.46 147.614 166.599L147.245 166.68C146.97 166.714 146.692 166.714 146.416 166.68C146.109 166.636 145.814 166.526 145.553 166.356C145.416 166.256 145.302 166.126 145.22 165.976C145.139 165.827 145.091 165.661 145.081 165.49C145.038 165.132 145.094 164.768 145.245 164.44C145.395 164.112 145.633 163.832 145.933 163.631C146.921 163.009 148.049 162.647 149.214 162.581C150.483 162.316 151.805 162.5 152.955 163.1C153.397 163.431 153.761 163.857 154.02 164.346C154.279 164.835 154.426 165.376 154.451 165.929L155.096 171.183C155.096 171.287 154.969 171.391 154.704 171.518C154.409 171.649 154.094 171.731 153.772 171.76C153.316 171.855 152.84 171.78 152.435 171.548C152.03 171.316 151.724 170.944 151.573 170.501C151.324 171.033 150.923 171.479 150.422 171.783C149.889 172.128 149.281 172.342 148.65 172.407C148.227 172.477 147.795 172.477 147.372 172.407C146.998 172.33 146.642 172.181 146.324 171.968C146.026 171.761 145.778 171.488 145.599 171.171C145.411 170.84 145.289 170.475 145.242 170.097C145.164 169.622 145.222 169.134 145.409 168.69C145.597 168.247 145.906 167.866 146.301 167.592C147.572 166.821 149.009 166.369 150.491 166.275H150.86C150.845 166.095 150.791 165.919 150.702 165.761C150.613 165.603 150.492 165.466 150.345 165.36C150.199 165.254 150.031 165.18 149.853 165.145C149.676 165.11 149.493 165.113 149.317 165.155V165.155ZM149.801 170.063C150.011 170.046 150.216 169.987 150.402 169.887C150.588 169.788 150.752 169.651 150.883 169.485C151.125 169.153 151.228 168.738 151.171 168.331V168.007L150.722 168.065C150.166 168.134 149.626 168.294 149.122 168.539C148.964 168.61 148.833 168.73 148.75 168.882C148.667 169.035 148.636 169.21 148.661 169.381C148.67 169.502 148.708 169.619 148.772 169.722C148.836 169.825 148.925 169.91 149.03 169.97C149.271 170.08 149.54 170.112 149.801 170.063V170.063Z" fill="white"/>
<path d="M81.6555 178.815L80.585 170.028C80.4919 169.562 80.5826 169.077 80.8383 168.677C80.9679 168.511 81.1315 168.374 81.3182 168.277C81.5048 168.179 81.7101 168.123 81.9203 168.111H82.2656C82.4533 168.096 82.642 168.096 82.8297 168.111C82.9765 168.121 83.1206 168.156 83.2556 168.215C83.3949 168.281 83.5263 168.362 83.647 168.458C83.7877 168.565 83.9222 168.681 84.0498 168.804L89.0456 173.908L88.4586 169.127C88.3205 167.973 88.7924 167.326 89.8629 167.199H90.1852C91.2212 167.061 91.8198 167.58 91.9579 168.735L93.0285 177.51C93.121 177.978 93.0347 178.465 92.7867 178.872C92.6608 179.034 92.5024 179.166 92.3219 179.262C92.1414 179.357 91.9429 179.413 91.7392 179.427H91.4399C91.2484 179.443 91.0559 179.443 90.8644 179.427C90.719 179.415 90.5757 179.384 90.4385 179.334C90.3089 179.285 90.1883 179.215 90.0816 179.127C89.9424 179.021 89.8116 178.906 89.6902 178.78L84.5794 173.63L85.1664 178.434C85.2342 178.656 85.2496 178.891 85.2114 179.12C85.1732 179.349 85.0824 179.567 84.9463 179.755C84.8101 179.943 84.6323 180.097 84.4268 180.204C84.2213 180.311 83.9937 180.369 83.7621 180.374H83.4513C82.3923 180.477 81.8052 179.969 81.6555 178.815Z" fill="white"/>
<path d="M99.1062 171.321C98.8505 171.347 98.6012 171.418 98.3694 171.529C98.1886 171.62 98.0218 171.737 97.8745 171.875C97.7529 172.005 97.652 172.153 97.5752 172.314C97.5011 172.459 97.4395 172.609 97.391 172.765L97.0227 172.834C96.7475 172.869 96.469 172.869 96.1939 172.834C95.8834 172.801 95.5864 172.69 95.3305 172.51C95.1944 172.411 95.0816 172.283 95 172.136C94.9185 171.988 94.8702 171.824 94.8586 171.656C94.8151 171.297 94.8717 170.934 95.0221 170.606C95.1725 170.277 95.4108 169.997 95.7104 169.797C96.696 169.17 97.8258 168.809 98.991 168.746C100.26 168.475 101.584 168.659 102.732 169.266C103.177 169.595 103.542 170.02 103.801 170.51C104.06 170.999 104.206 171.541 104.229 172.095L104.873 177.348C104.873 177.441 104.758 177.556 104.482 177.683C104.183 177.805 103.869 177.886 103.549 177.926C103.094 178.021 102.621 177.945 102.218 177.713C101.815 177.481 101.51 177.109 101.362 176.667C101.109 177.196 100.71 177.641 100.211 177.949C99.6734 178.294 99.0622 178.508 98.427 178.572C98.0045 178.649 97.5718 178.649 97.1493 178.572C96.7728 178.503 96.4155 178.353 96.1018 178.134C95.806 177.928 95.5585 177.66 95.3766 177.348C95.1883 177.018 95.0707 176.653 95.0312 176.275C94.9489 175.797 95.0049 175.306 95.1927 174.86C95.3804 174.414 95.6919 174.031 96.0902 173.757C97.3609 172.998 98.7928 172.551 100.269 172.453H100.649C100.635 172.271 100.583 172.094 100.494 171.935C100.406 171.775 100.285 171.637 100.138 171.53C99.9913 171.422 99.8231 171.348 99.6449 171.312C99.4667 171.276 99.2829 171.279 99.1062 171.321ZM99.5896 176.217C99.8002 176.202 100.005 176.143 100.192 176.043C100.378 175.944 100.542 175.806 100.672 175.64C100.91 175.305 101.013 174.892 100.959 174.485V174.173L100.511 174.231C99.9538 174.294 99.4124 174.455 98.9105 174.704C98.7548 174.775 98.6259 174.894 98.543 175.044C98.4601 175.193 98.4275 175.366 98.45 175.536C98.4599 175.659 98.4996 175.778 98.5658 175.883C98.632 175.988 98.7227 176.074 98.8299 176.136C99.0638 176.257 99.332 176.293 99.5896 176.24V176.217Z" fill="white"/>
<path d="M109.811 169.197C109.896 168.692 110.124 168.223 110.468 167.846C110.818 167.472 111.294 167.242 111.803 167.199C112.061 167.15 112.326 167.156 112.582 167.215C112.837 167.275 113.078 167.387 113.288 167.546C113.491 167.705 113.659 167.906 113.78 168.135C113.901 168.363 113.972 168.615 113.99 168.873C114.036 169.145 114.026 169.424 113.961 169.692C113.896 169.96 113.776 170.212 113.61 170.432C113.512 170.574 113.392 170.699 113.253 170.802C113.138 170.882 113.069 170.917 113.058 170.906C112.876 170.779 112.673 170.685 112.459 170.628C112.212 170.582 111.958 170.582 111.711 170.628C110.663 170.767 110.226 171.587 110.41 173.099L110.675 175.305C110.737 175.545 110.744 175.797 110.696 176.04C110.648 176.284 110.547 176.514 110.399 176.713C110.111 177.011 109.728 177.195 109.317 177.233H108.937C108.538 177.288 108.132 177.207 107.786 177.002C107.593 176.843 107.438 176.644 107.33 176.419C107.223 176.193 107.166 175.947 107.164 175.697L106.266 168.412C106.266 168.342 106.393 168.25 106.657 168.1C106.927 167.974 107.214 167.892 107.509 167.857C107.72 167.834 107.932 167.834 108.142 167.857C108.36 167.885 108.57 167.952 108.764 168.054C108.978 168.163 109.169 168.312 109.328 168.492C109.527 168.699 109.69 168.937 109.811 169.197V169.197Z" fill="white"/>
<path d="M119.849 168.793C119.595 168.82 119.347 168.887 119.112 168.989C118.928 169.079 118.761 169.2 118.617 169.347C118.493 169.475 118.392 169.623 118.318 169.786C118.242 169.929 118.18 170.08 118.134 170.236C118.015 170.275 117.891 170.298 117.766 170.305C117.49 170.34 117.212 170.34 116.937 170.305C116.628 170.265 116.333 170.155 116.073 169.982C115.937 169.883 115.825 169.755 115.743 169.607C115.661 169.46 115.613 169.296 115.602 169.127C115.556 168.766 115.612 168.398 115.765 168.068C115.918 167.737 116.16 167.456 116.465 167.257C117.449 166.638 118.574 166.28 119.734 166.218C121.003 165.946 122.327 166.13 123.475 166.737C123.919 167.064 124.284 167.487 124.543 167.975C124.802 168.463 124.949 169.002 124.972 169.555L125.616 174.82C125.616 174.912 125.501 175.028 125.225 175.143C124.928 175.274 124.614 175.359 124.292 175.397C123.836 175.491 123.361 175.414 122.958 175.18C122.554 174.946 122.251 174.571 122.105 174.127C121.858 174.66 121.457 175.107 120.954 175.409C120.415 175.753 119.805 175.97 119.17 176.044C118.747 176.114 118.315 176.114 117.892 176.044C117.518 175.967 117.162 175.818 116.845 175.605C116.549 175.399 116.301 175.131 116.12 174.82C115.933 174.489 115.815 174.124 115.774 173.746C115.693 173.269 115.75 172.778 115.938 172.332C116.125 171.886 116.436 171.504 116.833 171.229C118.104 170.458 119.541 170.006 121.023 169.913H121.392C121.379 169.731 121.326 169.554 121.238 169.395C121.15 169.236 121.028 169.099 120.881 168.992C120.734 168.885 120.565 168.812 120.387 168.778C120.209 168.743 120.025 168.748 119.849 168.793ZM120.333 173.688C120.543 173.671 120.747 173.61 120.933 173.511C121.119 173.412 121.283 173.276 121.415 173.111C121.653 172.777 121.756 172.364 121.702 171.956V171.644H121.265C120.705 171.712 120.161 171.872 119.653 172.118C119.498 172.192 119.37 172.313 119.287 172.465C119.204 172.616 119.172 172.79 119.193 172.961C119.203 173.084 119.243 173.204 119.309 173.308C119.375 173.413 119.466 173.5 119.573 173.561C119.807 173.68 120.072 173.724 120.333 173.688V173.688Z" fill="white"/>
<path d="M130.531 166.61C130.784 166.089 131.14 165.625 131.579 165.248C132.085 164.839 132.703 164.594 133.352 164.544C133.872 164.466 134.402 164.505 134.905 164.659C135.339 164.782 135.735 165.012 136.057 165.329C136.362 165.645 136.604 166.018 136.77 166.426C136.946 166.862 137.062 167.32 137.116 167.788L137.622 171.933C137.68 172.172 137.685 172.421 137.637 172.662C137.589 172.903 137.49 173.131 137.346 173.33C137.064 173.643 136.672 173.833 136.252 173.861H135.895C135.476 173.937 135.043 173.859 134.675 173.642C134.482 173.484 134.325 173.286 134.218 173.06C134.11 172.834 134.054 172.587 134.054 172.337L133.628 168.816C133.597 168.455 133.443 168.116 133.19 167.857C133.064 167.751 132.916 167.674 132.757 167.63C132.599 167.586 132.432 167.577 132.269 167.603C131.973 167.627 131.69 167.735 131.452 167.915C131.248 168.076 131.082 168.281 130.969 168.515L131.475 172.649C131.545 172.868 131.563 173.1 131.528 173.327C131.492 173.554 131.405 173.77 131.272 173.957C131.139 174.145 130.964 174.298 130.762 174.406C130.559 174.513 130.334 174.572 130.105 174.577H129.737C129.32 174.65 128.89 174.568 128.528 174.346C128.335 174.189 128.179 173.99 128.071 173.764C127.963 173.539 127.907 173.292 127.907 173.042L127.009 165.756C127.009 165.698 127.136 165.594 127.4 165.456C127.692 165.309 128.008 165.215 128.333 165.179C128.543 165.155 128.755 165.155 128.966 165.179C129.182 165.206 129.391 165.269 129.587 165.363C129.794 165.478 129.981 165.626 130.14 165.802C130.314 166.048 130.447 166.321 130.531 166.61Z" fill="white"/>
<path d="M140.684 176.99C140.036 177.111 139.366 177.035 138.762 176.771C138.525 176.645 138.324 176.46 138.179 176.233C138.034 176.007 137.949 175.747 137.933 175.478C137.898 175.299 137.898 175.114 137.933 174.935C137.971 174.775 138.029 174.619 138.105 174.473C138.16 174.363 138.226 174.259 138.301 174.162C138.37 174.092 138.405 174.058 138.428 174.069C138.539 174.195 138.689 174.28 138.854 174.312C139.021 174.347 139.193 174.347 139.36 174.312C139.855 174.254 140.074 173.942 140.005 173.388L139.061 165.652C139.001 165.409 138.996 165.155 139.046 164.91C139.096 164.664 139.199 164.432 139.349 164.232C139.637 163.931 140.027 163.749 140.442 163.724H140.811C141.036 163.663 141.273 163.658 141.5 163.709C141.728 163.76 141.94 163.866 142.119 164.016C142.297 164.167 142.437 164.359 142.526 164.575C142.615 164.792 142.65 165.026 142.629 165.259L143.596 173.18C143.76 174.096 143.562 175.041 143.044 175.813C142.443 176.503 141.595 176.926 140.684 176.99V176.99ZM140.58 162.777C140.074 162.866 139.553 162.763 139.118 162.488C138.926 162.359 138.765 162.188 138.648 161.989C138.53 161.789 138.459 161.565 138.439 161.334C138.401 161.105 138.413 160.871 138.474 160.647C138.536 160.424 138.646 160.217 138.796 160.04C139.142 159.671 139.615 159.448 140.12 159.417C140.625 159.33 141.144 159.428 141.582 159.694C141.773 159.824 141.932 159.995 142.047 160.195C142.163 160.395 142.232 160.618 142.249 160.849C142.291 161.078 142.282 161.314 142.223 161.54C142.163 161.765 142.054 161.975 141.904 162.153C141.558 162.523 141.085 162.746 140.58 162.777V162.777Z" fill="white"/>
<path d="M149.317 165.155C149.065 165.18 148.819 165.25 148.592 165.363C148.406 165.451 148.239 165.572 148.097 165.721C147.976 165.85 147.872 165.994 147.786 166.148C147.717 166.31 147.66 166.46 147.614 166.599L147.245 166.68C146.97 166.714 146.692 166.714 146.416 166.68C146.109 166.636 145.814 166.526 145.553 166.356C145.416 166.256 145.302 166.126 145.22 165.976C145.139 165.827 145.091 165.661 145.081 165.49C145.038 165.132 145.094 164.768 145.245 164.44C145.395 164.112 145.633 163.832 145.933 163.631C146.921 163.009 148.049 162.647 149.214 162.581C150.483 162.316 151.805 162.5 152.955 163.1C153.397 163.431 153.761 163.857 154.02 164.346C154.279 164.835 154.426 165.376 154.451 165.929L155.096 171.183C155.096 171.287 154.969 171.391 154.704 171.518C154.409 171.649 154.094 171.731 153.772 171.76C153.316 171.855 152.84 171.78 152.435 171.548C152.03 171.316 151.724 170.944 151.573 170.501C151.324 171.033 150.923 171.479 150.422 171.783C149.889 172.128 149.281 172.342 148.65 172.407C148.227 172.477 147.795 172.477 147.372 172.407C146.998 172.33 146.642 172.181 146.324 171.968C146.026 171.761 145.778 171.488 145.599 171.171C145.411 170.84 145.289 170.475 145.242 170.097C145.164 169.622 145.222 169.134 145.409 168.69C145.597 168.247 145.906 167.866 146.301 167.592C147.572 166.821 149.009 166.369 150.491 166.275H150.86C150.845 166.095 150.791 165.919 150.702 165.761C150.613 165.603 150.492 165.466 150.345 165.36C150.199 165.254 150.031 165.18 149.853 165.145C149.676 165.11 149.493 165.113 149.317 165.155V165.155ZM149.801 170.063C150.011 170.046 150.216 169.987 150.402 169.887C150.588 169.788 150.752 169.651 150.883 169.485C151.125 169.153 151.228 168.738 151.171 168.331V168.007L150.722 168.065C150.166 168.134 149.626 168.294 149.122 168.539C148.964 168.61 148.833 168.73 148.75 168.882C148.667 169.035 148.636 169.21 148.661 169.381C148.67 169.502 148.708 169.619 148.772 169.722C148.836 169.825 148.925 169.91 149.03 169.97C149.271 170.08 149.54 170.112 149.801 170.063V170.063Z" fill="white"/>
<g style="mix-blend-mode:multiply">
<path d="M61.4651 41.4712L59.6694 42.6258C69.0371 53.6574 80.3246 62.8904 92.9823 69.8752C93.5809 70.1985 86.398 69.0554 86.398 69.0554L73.5287 62.6587L59.0133 48.9301L53.8103 41.5289L93.247 25.6527C93.247 25.6527 93.5924 27.3847 92.683 27.7195C80.182 32.2572 61.4651 41.4712 61.4651 41.4712Z" fill="#A896D1"/>
</g>
<g style="mix-blend-mode:multiply">
<path d="M122.474 68.9052L127.423 67.4042C128.313 67.103 129.238 66.9206 130.174 66.8616C131.483 66.9072 132.773 67.1848 133.985 67.6813C142.813 73.8124 146.037 86.1555 146.037 86.1555L135.067 72.5885L122.474 68.9052Z" fill="#A896D1"/>
</g>
<g style="mix-blend-mode:multiply">
<path d="M72.5273 47.279C72.4717 47.2813 72.4181 47.3011 72.3744 47.3356C72.3306 47.3702 72.2988 47.4177 72.2835 47.4714C72.2682 47.5251 72.2702 47.5823 72.2891 47.6348C72.3081 47.6874 72.3431 47.7325 72.3892 47.7639C78.3289 51.2278 84.2455 54.6918 89.909 58.5713C92.8903 60.615 95.8717 62.8088 99.325 63.8595C104.436 65.4298 109.8 64.3214 114.934 63.5016C120.068 62.6818 126.284 61.481 124.638 61.123C122.497 60.6496 120.885 59.9684 118.767 59.4488C112.062 57.9041 105.552 55.6074 99.3595 52.6019C93.604 49.6922 87.8485 45.778 81.4829 46.0897C78.467 46.2398 75.5087 47.3252 72.5273 47.279Z" fill="#A896D1"/>
</g>
</svg>
