<?xml version="1.0" encoding="utf-8"?>
<!-- Generator: Adobe Illustrator 21.1.0, SVG Export Plug-In . SVG Version: 6.00 Build 0)  -->
<svg version="1.1" id="Capa_1" xmlns="http://www.w3.org/2000/svg" xmlns:xlink="http://www.w3.org/1999/xlink" x="0px" y="0px"
	 viewBox="0 0 458 589" style="enable-background:new 0 0 458 589;" xml:space="preserve">
<style type="text/css">
	.st0{fill:none;stroke:#29EDFE;stroke-miterlimit:10;}
</style>
<g>
	<line class="st0" x1="15.4" y1="6" x2="4" y2="16.8"/>
	<line class="st0" x1="51.5" y1="19.3" x2="34.7" y2="39.9"/>
	<line class="st0" x1="62.4" y1="6" x2="51.5" y2="19.3"/>
	<line class="st0" x1="34.7" y1="39.9" x2="10.6" y2="69.3"/>
	<line class="st0" x1="4" y1="77.4" x2="10.6" y2="69.3"/>
	<line class="st0" x1="4" y1="186.6" x2="17.9" y2="162.9"/>
	<line class="st0" x1="109.4" y1="6" x2="101.6" y2="19.3"/>
	<line class="st0" x1="72.5" y1="69.3" x2="89.6" y2="39.9"/>
	<line class="st0" x1="101.6" y1="19.3" x2="89.6" y2="39.9"/>
	<line class="st0" x1="48.9" y1="109.6" x2="72.5" y2="69.3"/>
	<line class="st0" x1="17.9" y1="162.9" x2="48.9" y2="109.6"/>
	<line class="st0" x1="318.5" y1="583" x2="308.6" y2="499.3"/>
	<line class="st0" x1="250.4" y1="6" x2="252" y2="19.3"/>
	<line class="st0" x1="262.6" y1="109.6" x2="257.9" y2="69.3"/>
	<line class="st0" x1="308.6" y1="499.3" x2="291.4" y2="353.3"/>
	<line class="st0" x1="257.9" y1="69.3" x2="254.4" y2="39.9"/>
	<line class="st0" x1="252" y1="19.3" x2="254.4" y2="39.9"/>
	<line class="st0" x1="262.6" y1="109.6" x2="268.9" y2="162.9"/>
	<line class="st0" x1="278.1" y1="240.7" x2="268.9" y2="162.9"/>
	<line class="st0" x1="291.4" y1="353.3" x2="278.1" y2="240.7"/>
	<line class="st0" x1="436.3" y1="162.9" x2="454" y2="193.2"/>
	<line class="st0" x1="436.3" y1="162.9" x2="405.1" y2="109.6"/>
	<line class="st0" x1="352.2" y1="19.3" x2="364.3" y2="39.9"/>
	<line class="st0" x1="405.1" y1="109.6" x2="381.5" y2="69.3"/>
	<line class="st0" x1="364.3" y1="39.9" x2="381.5" y2="69.3"/>
	<line class="st0" x1="344.4" y1="6" x2="352.2" y2="19.3"/>
	<line class="st0" x1="391.4" y1="6" x2="402.3" y2="19.3"/>
	<line class="st0" x1="443.3" y1="69.3" x2="454" y2="82.4"/>
	<line class="st0" x1="419.2" y1="39.9" x2="443.3" y2="69.3"/>
	<line class="st0" x1="402.3" y1="19.3" x2="419.2" y2="39.9"/>
	<line class="st0" x1="4" y1="441.9" x2="35" y2="353.3"/>
	<line class="st0" x1="101.5" y1="162.9" x2="120.2" y2="109.6"/>
	<line class="st0" x1="74.3" y1="240.7" x2="35" y2="353.3"/>
	<line class="st0" x1="151.7" y1="19.3" x2="144.5" y2="39.9"/>
	<line class="st0" x1="120.2" y1="109.6" x2="134.3" y2="69.3"/>
	<line class="st0" x1="156.4" y1="6" x2="151.7" y2="19.3"/>
	<line class="st0" x1="134.3" y1="69.3" x2="144.5" y2="39.9"/>
	<line class="st0" x1="74.3" y1="240.7" x2="101.5" y2="162.9"/>
	<line class="st0" x1="196.1" y1="69.3" x2="199.5" y2="39.9"/>
	<line class="st0" x1="185.2" y1="162.9" x2="176.2" y2="240.7"/>
	<line class="st0" x1="163.2" y1="353.3" x2="176.2" y2="240.7"/>
	<line class="st0" x1="201.9" y1="19.3" x2="199.5" y2="39.9"/>
	<line class="st0" x1="136.6" y1="583" x2="146.3" y2="499.3"/>
	<line class="st0" x1="185.2" y1="162.9" x2="191.4" y2="109.6"/>
	<line class="st0" x1="191.4" y1="109.6" x2="196.1" y2="69.3"/>
	<line class="st0" x1="203.4" y1="6" x2="201.9" y2="19.3"/>
	<line class="st0" x1="146.3" y1="499.3" x2="163.2" y2="353.3"/>
	<line class="st0" x1="380" y1="240.7" x2="352.6" y2="162.9"/>
	<line class="st0" x1="419.6" y1="353.3" x2="380" y2="240.7"/>
	<line class="st0" x1="302.1" y1="19.3" x2="309.3" y2="39.9"/>
	<line class="st0" x1="419.6" y1="353.3" x2="454" y2="451.2"/>
	<line class="st0" x1="319.7" y1="69.3" x2="309.3" y2="39.9"/>
	<line class="st0" x1="297.4" y1="6" x2="302.1" y2="19.3"/>
	<line class="st0" x1="352.6" y1="162.9" x2="333.9" y2="109.6"/>
	<line class="st0" x1="319.7" y1="69.3" x2="333.9" y2="109.6"/>
	<line class="st0" x1="438.4" y1="6" x2="452.5" y2="19.3"/>
	<line class="st0" x1="454" y1="20.8" x2="452.5" y2="19.3"/>
	<line class="st0" x1="146.3" y1="499.3" x2="4" y2="499.3"/>
	<line class="st0" x1="146.3" y1="499.3" x2="308.6" y2="499.3"/>
	<line class="st0" x1="308.6" y1="499.3" x2="454" y2="499.3"/>
	<line class="st0" x1="4" y1="353.3" x2="35" y2="353.3"/>
	<line class="st0" x1="419.6" y1="353.3" x2="454" y2="353.3"/>
	<line class="st0" x1="291.4" y1="353.3" x2="419.6" y2="353.3"/>
	<line class="st0" x1="163.2" y1="353.3" x2="291.4" y2="353.3"/>
	<line class="st0" x1="35" y1="353.3" x2="163.2" y2="353.3"/>
	<line class="st0" x1="74.3" y1="240.7" x2="176.2" y2="240.7"/>
	<line class="st0" x1="380" y1="240.7" x2="454" y2="240.7"/>
	<line class="st0" x1="176.2" y1="240.7" x2="278.1" y2="240.7"/>
	<line class="st0" x1="4" y1="240.7" x2="74.3" y2="240.7"/>
	<line class="st0" x1="278.1" y1="240.7" x2="380" y2="240.7"/>
	<line class="st0" x1="436.3" y1="162.9" x2="454" y2="162.9"/>
	<line class="st0" x1="17.9" y1="162.9" x2="4" y2="162.9"/>
	<line class="st0" x1="185.2" y1="162.9" x2="268.9" y2="162.9"/>
	<line class="st0" x1="17.9" y1="162.9" x2="101.5" y2="162.9"/>
	<line class="st0" x1="352.6" y1="162.9" x2="436.3" y2="162.9"/>
	<line class="st0" x1="268.9" y1="162.9" x2="352.6" y2="162.9"/>
	<line class="st0" x1="101.5" y1="162.9" x2="185.2" y2="162.9"/>
	<line class="st0" x1="120.2" y1="109.6" x2="191.4" y2="109.6"/>
	<line class="st0" x1="191.4" y1="109.6" x2="262.6" y2="109.6"/>
	<line class="st0" x1="48.9" y1="109.6" x2="120.2" y2="109.6"/>
	<line class="st0" x1="4" y1="109.6" x2="48.9" y2="109.6"/>
	<line class="st0" x1="405.1" y1="109.6" x2="454" y2="109.6"/>
	<line class="st0" x1="262.6" y1="109.6" x2="333.9" y2="109.6"/>
	<line class="st0" x1="333.9" y1="109.6" x2="405.1" y2="109.6"/>
	<line class="st0" x1="381.5" y1="69.3" x2="443.3" y2="69.3"/>
	<line class="st0" x1="319.7" y1="69.3" x2="381.5" y2="69.3"/>
	<line class="st0" x1="454" y1="69.3" x2="443.3" y2="69.3"/>
	<line class="st0" x1="4" y1="69.3" x2="10.6" y2="69.3"/>
	<line class="st0" x1="196.1" y1="69.3" x2="257.9" y2="69.3"/>
	<line class="st0" x1="72.5" y1="69.3" x2="134.3" y2="69.3"/>
	<line class="st0" x1="134.3" y1="69.3" x2="196.1" y2="69.3"/>
	<line class="st0" x1="257.9" y1="69.3" x2="319.7" y2="69.3"/>
	<line class="st0" x1="10.6" y1="69.3" x2="72.5" y2="69.3"/>
	<line class="st0" x1="254.4" y1="39.9" x2="199.5" y2="39.9"/>
	<line class="st0" x1="144.5" y1="39.9" x2="89.6" y2="39.9"/>
	<line class="st0" x1="89.6" y1="39.9" x2="34.7" y2="39.9"/>
	<line class="st0" x1="199.5" y1="39.9" x2="144.5" y2="39.9"/>
	<line class="st0" x1="4" y1="39.9" x2="34.7" y2="39.9"/>
	<line class="st0" x1="309.3" y1="39.9" x2="254.4" y2="39.9"/>
	<line class="st0" x1="364.3" y1="39.9" x2="309.3" y2="39.9"/>
	<line class="st0" x1="419.2" y1="39.9" x2="364.3" y2="39.9"/>
	<line class="st0" x1="454" y1="39.9" x2="419.2" y2="39.9"/>
	<line class="st0" x1="352.2" y1="19.3" x2="302.1" y2="19.3"/>
	<line class="st0" x1="454" y1="19.3" x2="452.5" y2="19.3"/>
	<line class="st0" x1="402.3" y1="19.3" x2="352.2" y2="19.3"/>
	<line class="st0" x1="452.5" y1="19.3" x2="402.3" y2="19.3"/>
	<line class="st0" x1="101.6" y1="19.3" x2="51.5" y2="19.3"/>
	<line class="st0" x1="302.1" y1="19.3" x2="252" y2="19.3"/>
	<line class="st0" x1="151.7" y1="19.3" x2="101.6" y2="19.3"/>
	<line class="st0" x1="51.5" y1="19.3" x2="4" y2="19.3"/>
	<line class="st0" x1="252" y1="19.3" x2="201.9" y2="19.3"/>
	<line class="st0" x1="201.9" y1="19.3" x2="151.7" y2="19.3"/>
	<line class="st0" x1="62.4" y1="6" x2="15.4" y2="6"/>
	<line class="st0" x1="203.4" y1="6" x2="156.4" y2="6"/>
	<line class="st0" x1="15.4" y1="6" x2="4" y2="6"/>
	<line class="st0" x1="156.4" y1="6" x2="109.4" y2="6"/>
	<line class="st0" x1="109.4" y1="6" x2="62.4" y2="6"/>
	<line class="st0" x1="438.4" y1="6" x2="391.4" y2="6"/>
	<line class="st0" x1="391.4" y1="6" x2="344.4" y2="6"/>
	<line class="st0" x1="454" y1="6" x2="438.4" y2="6"/>
	<line class="st0" x1="297.4" y1="6" x2="250.4" y2="6"/>
	<line class="st0" x1="250.4" y1="6" x2="203.4" y2="6"/>
	<line class="st0" x1="344.4" y1="6" x2="297.4" y2="6"/>
</g>
</svg>
