<?xml version="1.0" encoding="utf-8"?>
<!-- Generator: Adobe Illustrator 21.1.0, SVG Export Plug-In . SVG Version: 6.00 Build 0)  -->
<svg version="1.1" id="Capa_1" xmlns="http://www.w3.org/2000/svg" xmlns:xlink="http://www.w3.org/1999/xlink" x="0px" y="0px"
	 viewBox="0 0 105.3 49.7" style="enable-background:new 0 0 105.3 49.7;" xml:space="preserve">
<style type="text/css">
	.st0{fill:#2C2D30;}
</style>
<g>
	<polygon class="st0" points="49.4,29.6 41,0.7 41,0.7 34.8,0.7 34.8,0.7 29.4,19.1 24,0.7 24,0.7 17.9,0.7 17.8,0.7 12.4,19.2 
		7,0.7 0.8,0.7 9.3,29.6 9.4,29.6 15.4,29.6 15.5,29.6 20.9,11.2 26.3,29.6 26.3,29.6 32.5,29.6 32.5,29.6 37.9,11.2 43.3,29.6 	"/>
	<polygon class="st0" points="56.5,19.7 58.2,19.7 60.4,27.8 62.5,19.7 64.2,19.7 66.5,27.9 68.6,19.7 70.2,19.7 67.4,29.5 
		65.5,29.5 63.3,22 61.3,29.5 59.4,29.5 	"/>
	<path class="st0" d="M71.6,28.9c-0.5-0.5-0.8-1.3-0.8-2.1c0-0.9,0.3-1.6,0.8-2.1c0.7-0.6,1.8-0.9,3.3-0.9h2v-0.6c0-0.4,0-0.7-0.1-1
		c-0.1-0.3-0.2-0.5-0.4-0.7c-0.4-0.4-1.1-0.6-2-0.6c-0.8,0-1.7,0.1-2.6,0.2l-0.1-1.3c0.9-0.2,1.9-0.3,3-0.3c1.4,0,2.4,0.3,3.1,0.9
		c0.3,0.3,0.5,0.7,0.7,1.1c0.1,0.4,0.2,1,0.2,1.6v6.5h-1.3l-0.1-0.7c-1,0.6-2,0.9-3.1,0.9C73,29.8,72.2,29.5,71.6,28.9 M75.7,28.3
		c0.5-0.1,0.9-0.3,1.2-0.5v-2.9h-1.8c-1,0-1.7,0.2-2.2,0.5c-0.4,0.3-0.5,0.7-0.5,1.3c0,0.6,0.2,1,0.5,1.3c0.3,0.3,0.8,0.4,1.5,0.4
		C74.9,28.5,75.3,28.4,75.7,28.3"/>
	<path class="st0" d="M83.7,34.3c-0.4,0-0.7-0.1-0.9-0.1l-0.1-1.3c0.6,0.1,1.3,0.1,1.9,0.1c1,0,1.6-0.2,2-0.5
		c0.2-0.2,0.4-0.5,0.5-0.8c0.1-0.3,0.1-0.8,0.1-1.3v-1.3c-1,0.6-2.1,0.9-3.1,0.9c-1.1,0-1.9-0.3-2.5-0.9c-0.5-0.5-0.8-1.4-0.8-2.6
		v-6.7h1.7v6.5c0,0.4,0,0.8,0.1,1c0.1,0.3,0.2,0.5,0.4,0.7c0.3,0.3,0.9,0.5,1.6,0.5c0.4,0,0.9-0.1,1.4-0.2c0.5-0.1,0.9-0.3,1.3-0.5
		v-8h1.7v10.6c0,1.3-0.3,2.3-0.9,3c-0.7,0.7-1.7,1.1-3.2,1.1C84.5,34.3,84.1,34.3,83.7,34.3"/>
	<path class="st0" d="M91.1,19.7h1.4l0.1,0.8c0.9-0.7,1.8-1.1,2.8-1.1c0.2,0,0.4,0,0.6,0.1V21c-0.3,0-0.6,0-0.9,0
		c-0.9,0-1.7,0.2-2.4,0.7v7.9h-1.7V19.7z"/>
	<path class="st0" d="M97.4,28.9c-0.5-0.5-0.8-1.3-0.8-2.1c0-0.9,0.3-1.6,0.8-2.1c0.7-0.6,1.8-0.9,3.3-0.9h2v-0.6c0-0.4,0-0.7-0.1-1
		c-0.1-0.3-0.2-0.5-0.4-0.7c-0.4-0.4-1.1-0.6-2-0.6c-0.8,0-1.7,0.1-2.6,0.2l-0.1-1.3c0.9-0.2,1.9-0.3,3-0.3c1.4,0,2.4,0.3,3.1,0.9
		c0.3,0.3,0.5,0.7,0.7,1.1c0.1,0.4,0.2,1,0.2,1.6v6.5h-1.3l-0.1-0.7c-1,0.6-2,0.9-3.1,0.9C98.9,29.8,98,29.5,97.4,28.9 M101.6,28.3
		c0.5-0.1,0.9-0.3,1.2-0.5v-2.9H101c-1,0-1.8,0.2-2.2,0.5c-0.4,0.3-0.5,0.7-0.5,1.3c0,0.6,0.2,1,0.5,1.3c0.3,0.3,0.8,0.4,1.5,0.4
		C100.7,28.5,101.2,28.4,101.6,28.3"/>
	<path class="st0" d="M47.5,43.5c-0.5,0.8-1.3,1.5-1.9,1.5c-0.3,0-0.4-0.1-0.4-0.5c0-0.2,0-0.5,0.1-0.6c0.6-0.3,1.2-0.7,1.8-1.2
		c0.3-0.3,0.5-0.7,0.5-1c0-0.3-0.2-0.5-0.6-0.5c-0.6,0-1.3,0.4-1.7,0.9c-0.6,0.7-1.1,1.6-1.1,2.4c0,0.6,0.3,1,1,1
		c0.8,0,1.6-0.6,2-1.1c0,0.2-0.1,0.4-0.1,0.5c0,0.5,0.3,0.9,0.8,1l0.1,0c0-0.1-0.1-0.3,0-0.5c0-0.5,0.2-1.1,0.5-1.8
		c0.6-1.4,1.4-3,1.7-4l-0.9,0.2c-0.1,0-0.2,0.1-0.3,0.2c-0.4,0.9-0.8,1.8-1.4,3C47.6,43.3,47.6,43.4,47.5,43.5 M46.7,41.7
		c0.1,0,0.2,0.1,0.2,0.2c0,0.6-0.7,1.3-1.5,1.8C45.5,42.8,46.2,41.6,46.7,41.7 M61.3,44.9c0,0.4,0.2,0.6,0.7,0.6
		c0.5,0,1-0.3,1.4-0.7c0.1,0.4,0.4,0.7,1,0.7c0.6,0,1.3-0.4,1.7-0.9v0.1c0,0.4,0.2,0.8,0.7,0.8c0.5,0,1.1-0.4,1.6-1.1l0,0
		c0,0.2-0.1,0.4-0.1,0.6c0,0.5,0.3,0.8,0.7,0.9l0.1,0c-0.2-0.4,0.1-1.3,0.2-1.6c0.3-1,0.8-2.2,1.1-2.8c-0.1-0.1-0.4-0.2-0.8-0.2
		c-1.1,0-2.2,0.4-3,1.9c-0.1,0.3-0.3,0.5-0.4,0.8c-0.1,0.2-0.2,0.3-0.3,0.3c-0.3,0.3-0.7,0.6-1.1,0.7c-0.2,0-0.4-0.2-0.4-0.5
		c0-1.2,1-2.9,1.7-2.9c0.2,0,0.3,0.1,0.3,0.2c0,0.2-0.1,0.5-0.3,0.6l0.1,0.1c0.5-0.2,0.9-0.5,0.9-0.8c0-0.4-0.4-0.5-0.8-0.5
		c-0.5,0-1.2,0.3-1.7,0.9c-0.7,0.7-1,1.6-1.1,2.3c-0.3,0.4-0.6,0.6-0.9,0.6c-0.1,0-0.2-0.1-0.2-0.2c0-0.1,0.1-0.4,0.2-0.7
		c0.3-0.7,0.7-1.7,1.3-2.8c0,0-0.8,0.1-0.9,0.2c-0.1,0-0.2,0.1-0.3,0.2c-0.3,0.7-0.8,1.6-1,2.2C61.4,44.3,61.3,44.7,61.3,44.9
		 M68.8,41.8c0.3-0.1,0.5-0.1,0.6-0.1c-0.1,0.1-0.4,0.8-0.6,1.3c-0.4,0.9-1,1.8-1.5,1.9c-0.2,0.1-0.3,0-0.3-0.2
		C67.1,43.9,67.9,42.2,68.8,41.8 M48.9,44.5c0,0.6,0.3,1,1.1,1c0.8,0,1.6-0.5,2.2-1.2c-0.2,0.4-0.3,0.8-0.4,1
		c-0.2,0.6-0.4,1.1-0.8,1.4l0,0.1c1.1,0.1,1.5-0.7,1.9-1.9c0.4-1.3,0.8-2.3,1.1-3.1c0.5,0,1.1,0,1.5-0.1c-1,0.4-1.8,2-1.7,3.1
		c0,0.5,0.3,0.8,0.9,0.8c1.1,0,2.1-1.3,2.4-2.2c0.2-0.5,0.3-0.9,0.4-1.4c0.3,0,0.5-0.1,0.7-0.1c0.2,0,0.2,0.2,0.1,0.4
		c-0.5,1.3-1.3,3.2-1.3,3.2H58c0.4-0.8,0.6-1.3,0.9-1.9c0.4-0.6,1.2-1.7,1.5-1.7c0.1,0,0.1,0.1,0.1,0.2c-0.1,0.4-1.1,2.1-1.1,2.9
		c0,0.5,0.3,0.9,0.8,1l0.1-0.1c-0.1-0.1-0.1-0.3-0.1-0.4c0-0.5,0.4-1.5,0.6-1.9c0.3-0.6,0.8-1.4,0.7-1.9c0-0.2-0.2-0.4-0.6-0.4
		c-0.7,0-1.4,0.7-2,1.6l0,0c0.2-0.5,0.4-1.1,0.4-1.3c0-0.2-0.1-0.3-0.4-0.3c-0.2,0-0.4,0.1-0.7,0.1c-0.4,0.1-0.7,0.2-1.1,0.3
		c-0.3,0-0.3,0.1-0.3,0.2c0.1,1.4-0.9,3.1-1.6,3.1c-0.3,0-0.3-0.2-0.3-0.5c0-1,0.8-2.7,1.6-2.9c0.1,0,0.1,0,0.2,0l0.1-0.3
		c-0.2,0-0.6,0-0.8,0h-1.7c0.5-1.1,1.1-1.8,2-1.9c0.6,0,1,0.2,1,0.5c0,0.3-0.1,0.5-0.3,0.8l0.1,0.1c0.5-0.2,0.9-0.7,0.9-0.9
		c0-0.4-0.5-0.7-1.4-0.7c-1.1,0-2.4,0.3-3.3,2.2c-0.3,0-0.5,0.1-0.7,0.4l0,0.1c0.2-0.1,0.3-0.1,0.5-0.1c-0.1,0.3-0.4,1-0.6,1.7
		c-0.8,1-1.6,1.5-2.1,1.5c-0.3,0-0.4-0.2-0.4-0.5c0-0.2,0-0.5,0.1-0.6c0.6-0.3,1.2-0.7,1.8-1.2c0.3-0.3,0.5-0.7,0.5-1
		c0-0.3-0.2-0.5-0.6-0.5c-0.6,0-1.3,0.4-1.7,0.9C49.4,42.8,48.9,43.7,48.9,44.5 M51.5,41.7c0.1,0,0.2,0.1,0.2,0.2
		c0,0.6-0.7,1.3-1.5,1.8C50.3,42.8,50.9,41.6,51.5,41.7 M63.7,40.7c0.2,0,0.5-0.2,0.5-0.5c0.1-0.3-0.1-0.5-0.3-0.5
		c-0.2,0-0.5,0.2-0.5,0.5C63.3,40.5,63.5,40.7,63.7,40.7 M54.9,48.6c-8.9,0-18,0.1-18,0.2c0,0.1,9.1,0.2,18,0.2c8.9,0,18-0.1,18-0.2
		C72.9,48.7,63.8,48.6,54.9,48.6 M40.5,42.2L40.5,42.2c0-0.2-0.1-0.4,0-0.6c0-1.2,1.3-1.8,3.2-1.8h1.1c-0.6,0.4-1.1,0.8-1.5,1.7
		c-0.2,0.4-1,2.5-1.3,3.4c-0.4,1.1-0.7,1.6-1,1.8l0.1,0.1c0.9,0.1,1.5-0.4,1.8-1.3c0.3-0.8,0.8-2.1,1-2.7c0.7-1.9,1-2.7,1.6-3.1
		c0.8,0,1.5,0,1.5,0c0.8,0,1.2-0.2,1.5-0.6l-0.1-0.1c-0.2,0.1-0.7,0.1-1.1,0.1h-3.8c-2.1,0-3.5,0.7-3.7,1.8
		C39.6,41.5,39.9,42.1,40.5,42.2"/>
	<path class="st0" d="M34.7,41.4h1l0.8,4.1h-1l-0.2-1h-1.3l-0.5,1h-0.9L34.7,41.4z M35.3,43.8l-0.2-1.4h0l-0.7,1.4H35.3z"/>
	<polygon class="st0" points="74,41.4 75,41.4 74.3,45.5 73.3,45.5 	"/>
	<polygon class="st0" points="76,41.4 76.7,41.4 78.1,44.1 78.6,41.4 79.4,41.4 78.7,45.5 78,45.5 76.5,42.9 76.1,45.5 75.3,45.5 	
		"/>
	<polygon class="st0" points="80.4,41.4 81.4,41.4 80.7,45.5 79.7,45.5 	"/>
	<polygon class="st0" points="83.2,42 81.9,42 82,41.4 85.6,41.4 85.4,42 84.1,42 83.5,45.5 82.6,45.5 	"/>
	<polygon class="st0" points="86.2,41.4 87.1,41.4 86.4,45.5 85.5,45.5 	"/>
	<path class="st0" d="M89.1,41.4h1l0.8,4.1h-1l-0.2-1h-1.3l-0.5,1H87L89.1,41.4z M89.7,43.8l-0.2-1.4h0l-0.7,1.4H89.7z"/>
	<polygon class="st0" points="92.7,42 91.5,42 91.6,41.4 95.1,41.4 94.9,42 93.7,42 93.1,45.5 92.1,45.5 	"/>
	<polygon class="st0" points="95.7,41.4 96.7,41.4 96,45.5 95,45.5 	"/>
	<polygon class="st0" points="97.3,41.4 98.3,41.4 98.8,44.4 100.2,41.4 101.1,41.4 99.1,45.5 98,45.5 	"/>
	<polygon class="st0" points="101.7,41.4 104.5,41.4 104.3,42 102.5,42 102.4,43 103.8,43 103.7,43.7 102.2,43.7 102.1,44.8 
		103.9,44.8 103.8,45.5 101,45.5 	"/>
</g>
</svg>
