<?xml version="1.0" encoding="utf-8"?>
<!-- Generator: Adobe Illustrator 24.1.0, SVG Export Plug-In . SVG Version: 6.00 Build 0)  -->
<svg version="1.1" id="Capa_1" xmlns="http://www.w3.org/2000/svg" xmlns:xlink="http://www.w3.org/1999/xlink" x="0px" y="0px"
	 viewBox="0 0 250 126" style="enable-background:new 0 0 250 126;" xml:space="preserve">
<style type="text/css">
	.st0{fill:#20221D;}
</style>
<g>
	<g>
		<path class="st0" d="M27,78.2c1.5-2.8,2.7-6.2,2.7-9.5c0.1-2.5,0.1-6.4,0-11.8c0-2.7,0-5.4,0-8c0-1.5,0-3,0-4.4
			c-0.1-2.7-0.1-5.5,0-7.9c0-1.5,0-2.9,0.1-4.4c0-1.7-0.1-4.8-0.1-8.9c0-3.4-0.1-6.6-0.2-9.6c-0.2-2.8-0.8-5.9-2-9.2
			c-0.4-1.2-0.6-1.9-0.6-2.2c0-0.3,0.3-0.3,0.8,0.1c0.9,0.6,1.7,1.2,2.6,1.8c1.3,1,2.6,1.9,3.9,2.8c1.7,1.1,3.5,2.2,5.2,3.3
			c0.5,0.3,1,0.6,1.5,0.9c1.3,0.8,2.7,1.8,4.3,3c3.1,2.4,6,5.8,7.9,9.9c1.6,3.6,2.5,7.4,2.5,11.7c0,1.5-0.1,2.8-0.3,4.1
			c-0.5,2.4-1,3.5-2.2,5.4c-0.4,0.8-0.9,1.3-1.4,1.8c-0.2,0.2-0.2,0.4-0.2,0.4c0,0.2,0.1,0.4,0.3,0.5c0.2,0.2,0.4,0.4,0.6,0.6
			c0.7,0.8,1.2,1.4,1.5,1.9c0.3,0.6,0.7,1.1,1,1.7c1.2,2.2,1.9,4.5,2.3,7c0.2,1.1,0.3,2.3,0.3,3.6c0.1,4.2-0.7,7.6-2.5,10.4
			c-1.9,3.2-5,5.2-8.3,5.9c-1.5,0.2-2.7,0.3-3.5,0.3c-3.1,0-6.2,0-9.4-0.1c-0.8,0-1.6,0-2.4,0c-1,0-1.9,0-2.9,0c-0.2,0-0.3,0-0.5,0
			c-0.4,0-0.6,0-0.8-0.1C26.9,78.9,26.8,78.5,27,78.2z M34.4,23c-0.1-5.4-0.3-8.2-0.5-8.3c-0.2-0.1-0.3,2.5-0.4,8
			c-0.1,5.5-0.1,12.1-0.1,19.9c0,7.8,0.1,14.4,0.3,20c0.1,5.6,0.3,8.3,0.5,8.3c0.2,0,0.3-2.7,0.4-8c0.1-5.3,0.1-11.9,0.1-19.9
			C34.6,35,34.5,28.4,34.4,23z M44,40.4c0.8-0.3,1.4-0.8,1.9-1.6c0.8-1.2,1.2-3.1,1.2-5.8c0-1-0.1-2.4-0.3-4.1
			c-0.2-1.6-0.7-3.1-1.3-4.5c-1.4-2.6-3.8-3.6-4.2-3.8c-0.4-0.3-1.5-0.8-2-1.1c-0.1,0-0.2-0.1-0.2-0.1c-0.5-0.3-0.8-0.1-0.8,0.5
			c0,0.5,0,0.9,0,1.4c0,1.1,0,2.3,0,3.4c0,1.9,0,3.3,0,4.2c0,2.1,0,3.8,0.1,5c0,1.4,0,2.7,0,4.1c0,0.9,0.3,1.5,0.9,1.7
			c1.1,0.4,2,0.7,2.5,0.8C42.5,40.6,43.2,40.6,44,40.4z M48.4,64.4c0.2-1.1,0.2-2.5,0.2-4.2c0-3-0.4-5.2-1-6.5
			c-1.4-3-2.6-3.7-5.7-4.6c-0.4-0.1-0.8-0.2-1.3-0.3c-0.1,0-0.2-0.1-0.4-0.1c-1-0.3-1.6-0.4-1.7-0.1c-0.1,0.2-0.2,0.4-0.2,0.9
			c0,1.3,0,2.7,0,4c0,1.1,0,2.3,0,3.4c0,3,0,6,0.1,8.9c0,1.5,0.1,2.4,0.3,2.8c0.2,0.7,0.5,0.9,1,1c0.7,0.1,1.3,0.2,2,0.3
			c2.4,0.2,4.2,0.1,5.4-1.8C47.7,67.1,48.1,66,48.4,64.4z M52,34c0-3-0.7-6-1.6-8c-0.3-0.9-0.7-1.6-1.1-2.2
			c-0.2-0.3-0.4-0.5-0.5-0.6c-0.4-0.2,0.3,1.1,0.9,3.1c0.7,2.4,1.1,4.9,1.1,7.4c0,2.1-0.3,4.1-0.8,6c-0.3,1-0.7,2.5-0.7,2.6
			c0.2,0.3,0.9-0.4,1.5-1.8C51.5,39,52,36.6,52,34z M52.2,69.5c0.9-1.8,1.6-4.7,1.5-7.7c0-2.8-0.5-5.2-1.3-7.3
			c-0.4-0.9-0.8-1.7-1.2-2.2c-0.2-0.3-0.4-0.4-0.5-0.5c-0.4-0.1,0.3,0.9,0.9,3c0.6,2,0.8,4.2,0.9,6.5c0,2.9-0.3,5.3-1,7.4
			c-0.4,1-1.1,2.6-1,2.7c0,0,0,0.1,0.1,0.1c0.1,0,0.3-0.1,0.6-0.4C51.5,70.8,51.9,70.2,52.2,69.5z"/>
		<path class="st0" d="M93.4,79.5c-0.8,0-1.3-0.1-1.3-0.4c0-0.2,0.2-0.6,0.7-1c1.2-1.6,1.9-3.2,2.1-5C95,71.2,95,69.2,95,67
			c0-0.8,0-1.5,0-2.3c0.1-0.6,0-1.5,0-2.8c0-1.5,0-2.6-0.1-3.4c0-1-0.1-3.5-0.1-5.2c0-0.9,0-1.8,0-2.6c0-1.6-0.1-3.2-0.1-4.9
			c0-3.7-0.1-6.3-0.2-8.1c-0.1-2.1-1.3-4.6-2.8-6.7c-0.2-0.3-0.2-0.5,0.2-0.6c0.2,0,0.4,0,0.8,0.1c1.9,0.4,3.3,0.6,4.3,0.8
			c0.4,0.1,0.9,0.1,1.4,0.2c1.5,0.2,3,0.4,4.4,0.6c0.8,0.1,1.6,0.2,2.5,0.4c1,0.1,1.3,0.2,1.3,0.5c0,0.1-0.2,0.4-0.6,0.9
			c-1.3,1.3-1.9,2.8-2.1,4.6c-0.2,2.2-0.3,5.1-0.3,5.9c0,0.8,0,1.6,0,2.3c0,1,0,1.9,0,2.9c0,0.3,0.3,0.6,0.6,0.7
			c1.2,0.1,2.4,0.2,3.7,0.3c1.2,0.1,2.4,0.1,3.5,0.2c0.8,0,1.6,0.1,2.3,0.1c0.3,0,0.5-0.2,0.5-0.5c0-1-0.1-2-0.1-3
			c0-3.5-0.1-6-0.2-7.7c0-2-1.2-4.2-2.7-6c-0.2-0.3-0.2-0.4,0.2-0.5c0.2,0,0.4,0,0.8,0c1.7,0.1,3.5,0.3,5.2,0.4
			c1.6,0.1,3.3,0.1,4.9,0.1c0.8,0,1.6,0.1,2.5,0.1c1,0,1.3,0.1,1.3,0.4c0,0.1-0.2,0.4-0.6,1c-1.3,1.4-2,2.9-2.2,4.7
			c-0.2,2.2-0.3,5-0.3,5.7c0,1,0,1.8-0.1,2.3c0,1,0,1.9-0.1,2.9c0,1.3,0,2.3,0.1,2.9c0.1,1,0.1,2.6,0.1,4.8
			c-0.1,0.7-0.1,1.5-0.1,2.5c0,1.5,0,3,0.1,4.5c0,1.8,0.1,4.3,0.1,7.7c0.1,2,1.2,4.2,2.7,5.8c0.2,0.2,0.2,0.4-0.2,0.5
			c-0.2,0.1-0.4,0.1-0.8,0.1c-1.4,0-2.8,0-4.2,0c-0.5,0-0.9,0-1.4,0c-1.4,0-2.9,0-4.4,0c-0.8,0-1.6,0-2.4,0c-0.8,0-1.3-0.1-1.3-0.4
			c0-0.2,0.2-0.5,0.6-1c1.3-1.4,2-3,2.2-4.7c0.2-1.8,0.2-3.7,0.2-5.8c0-0.8,0-1.5,0-2.3c0-2.5,0-4.9,0-7.4c0-0.3-0.2-0.6-0.6-0.6
			c-1.1,0-2.2,0-3.3-0.1c-1.2,0-2-0.1-2.6-0.2c-1.2-0.1-2.3-0.1-3.5-0.2c-0.3,0-0.6,0.2-0.6,0.5c0,0.1,0,0.3,0,0.4
			c0,0.7-0.1,1.5,0,2.6c0,1.6,0.1,3.1,0.1,4.7c0,1.8,0.1,4.5,0.2,7.9c0.1,2.1,1.2,4.3,2.8,6c0.2,0.2,0.2,0.4-0.2,0.5
			c-0.2,0.1-0.4,0.1-0.8,0.1c-1.7,0-3.4,0-5.1,0c-1.6,0-3.2,0-4.8,0C95,79.5,94.2,79.5,93.4,79.5z M99.7,42.6
			c-0.2-3.6-0.4-5.4-0.5-5.5c-0.2,0-0.4,1.7-0.4,5.4c-0.1,3.6-0.1,8,0,13.1c0.1,5.1,0.2,9.4,0.3,13.1c0.2,3.6,0.4,5.4,0.5,5.4
			c0.2,0,0.3-1.8,0.4-5.4c0.1-3.6,0.1-7.9,0.1-13C100,50.5,99.9,46.2,99.7,42.6z M119.2,44c-0.1-3.5-0.3-5.2-0.5-5.2
			c-0.2,0-0.4,1.7-0.5,5.2c-0.1,3.5-0.2,7.6-0.1,12.5c0,4.9,0.1,9.1,0.2,12.6c0.1,3.5,0.3,5.2,0.5,5.2c0.2,0,0.4-1.7,0.5-5.2
			c0.1-3.5,0.2-7.6,0.1-12.5C119.4,51.6,119.3,47.5,119.2,44z"/>
		<path class="st0" d="M133.8,79.5c-0.2,0-0.5,0-0.7,0c-1.6,0.1-2.5,0-3.2,0c-0.8,0-1.3-0.1-1.3-0.4c0-0.2,0.2-0.5,0.7-1
			c1.3-1.5,1.9-3.1,2.1-4.7c0.2-1.8,0.3-3.7,0.3-5.7c0-0.8,0-1.5,0-2.3c0-2.1,0-4.3,0-6.4c0-1.8,0-3.2,0.1-4.2c0-0.8,0-1.7,0-2.5
			c0-1.5,0-3.1,0-4.6c0-3.5,0-6,0-7.6c-0.1-2-1.2-4.1-2.8-5.7c-0.2-0.2-0.2-0.4,0.2-0.6c0.2-0.1,0.4-0.1,0.8-0.1
			c1.9,0,3.3-0.1,4.3-0.1c0.4,0,0.9,0,1.3-0.1c1.1-0.1,2.2-0.2,3.3-0.3c2.9-0.2,5.8-0.5,8.7-0.8c2.6-0.3,5.2-0.7,7.8-1.2
			c0.4,0,0.8-0.1,1.2-0.1c0,0,0.1,0,0.1,0c0.2,0,0.4,0,0.4,0.1c0.1,0.1,0.1,0.3,0.1,0.6c0,1,0,2,0,3c0,1.5,0,3-0.1,4.5
			c0,0.2,0,0.3,0,0.5c0,0.4,0,0.6-0.1,0.8c-0.1,0.5-0.3,0.5-0.5,0.3c-1.6-1.3-3.6-2.2-5.6-2c-1.8,0.2-3.6,0.4-5.5,0.6
			c-0.7,0.1-1.4,0.1-2.2,0.2c-0.6,0.1-1.3,0.1-1.9,0.2c-0.4,0-0.6,0.2-0.6,0.5c-0.1,0.3-0.1,0.7-0.1,1.2c-0.1,0.6-0.1,1.5-0.1,2.8
			c0,2.5,0.1,5,0.1,7.7c0,0.3,0.2,0.5,0.5,0.5c0.5,0,1.1-0.1,1.7-0.1c1.2-0.1,2.3-0.1,3.5-0.2c1.2-0.1,2.4-0.2,3.7-0.3
			c0.2,0,0.4,0,0.5,0c0.2,0,0.2,0.4,0.2,0.5c0,0.5,0,0.9-0.1,1.1c0,0.8,0,1.5,0,2.3c0,0.7,0,1.2,0,1.6c0,0.1,0,0.3,0,0.4
			c0,0.1,0,0.2,0,0.3c0,0.2-0.1,0.3-0.4,0.3c-0.3,0-0.7,0-1,0.1c-0.7,0-1.4,0.1-2.1,0.1c-0.7,0.1-1.8,0.2-3.2,0.2
			c-0.6,0-1.5,0-2.8,0.1c-0.3,0-0.6,0.3-0.6,0.6c0,1.5-0.1,3-0.1,4.5c0,1.8,0,3.5,0,5.3c0,0.9,0,1.7,0,2.6c0,0.3,0.2,0.6,0.5,0.6
			c1.8,0,3.6,0,5.3,0c1.7,0,3.9-0.3,4.9-0.4c1.8-0.2,3.3-1,4.7-2.4c0.5-0.5,0.9-0.7,1-0.7c0.2,0,0.3,0.3,0.3,0.9c0,1.4,0,2.8,0,4.2
			c0,0.9,0,1.7,0,2.6c0,0.2,0,0.3,0,0.5c0,0.7,0,1.3-0.1,1.6c0,0.3-0.1,0.5-0.3,0.6c-0.1,0.1-0.4,0.1-0.7,0.1c-1.5,0-3,0-4.5,0
			c-1.5,0-2.9,0-4.4,0c-1.4-0.1-3.1-0.1-5.1-0.1c-0.7,0-1.5,0-2.2,0.1c0,0-0.1,0-0.1,0c-0.3,0-0.6,0-0.9,0c-0.4,0-0.8,0-1.2,0
			C136.4,79.5,135.1,79.5,133.8,79.5z M136.6,43.8c-0.1-3.5-0.3-5.2-0.5-5.2c-0.2,0-0.4,1.7-0.5,5.2c-0.1,3.5-0.2,7.7-0.2,12.6
			c0,4.9,0,9.1,0.1,12.6c0.1,3.5,0.3,5.2,0.5,5.2c0.2,0,0.4-1.7,0.5-5.2c0.1-3.5,0.2-7.7,0.2-12.6C136.8,51.5,136.8,47.3,136.6,43.8
			z"/>
		<path class="st0" d="M178.4,79.4c-0.1,0-0.3,0-0.4,0c-0.4,0-0.7,0-0.8-0.1c-0.4-0.1-0.4-0.4-0.2-0.6c1.3-1.5,1.9-2.3,2.3-3.6
			c0.1-0.3,0.2-0.7,0.2-1c0-1.1-0.6-2.7-0.6-2.9c-0.2-0.6-0.3-1.2-0.5-1.8c-0.3-1.2-0.6-2-0.7-2.7c-0.2-0.8-0.7-2.1-1.4-3.9
			c-0.3-0.9-0.7-1.8-1-2.7c-0.1-0.4-0.2-0.8-0.3-1.2c-0.2-0.3-0.4-0.4-0.8-0.4c-0.5,0.1-1.1,0.1-1.6,0.2c-0.5,0.1-0.9,0.2-1.4,0.2
			c-0.3,0-0.6,0.3-0.6,0.6c0,1.1,0,2.1,0,3.2c0,1.8,0,3.6-0.1,5.4c0,0.6,0,1.2,0,1.9c0,1.4,0,2.4,0,2.9c0,0.5,0.2,1,0.3,1.6
			c0.4,1.5,1.2,2.9,2.2,4.3c0.2,0.3,0.2,0.5-0.2,0.6c-0.2,0.1-0.4,0.1-0.8,0.1c-2.2,0-4.4,0-6.5,0c-0.8,0-1.6,0-2.4,0
			c-0.7,0.1-1.6,0.1-2.9,0.1c-0.2,0-0.3,0-0.5,0c-0.4,0-0.6,0-0.8-0.1c-0.4-0.1-0.4-0.3-0.2-0.6c1.5-1.8,2.7-4.1,2.8-6.3
			c0.1-1.7,0.1-4.2,0.2-7.7c0-1.7,0.1-3.5,0.1-5.2c0-1,0-2,0-3c0-1.6,0-3.2,0.1-4.8c0-0.9,0-1.8,0-2.8c0-2.8,0.1-5,0-6.4
			c0-2.2,0-4.3-0.2-6.2c-0.2-1.7-0.8-3.3-2.1-4.7c-0.4-0.4-0.7-0.7-0.7-0.9c0-0.3,0.3-0.5,0.9-0.6c0.9-0.2,1.8-0.4,2.8-0.6
			c4.2-0.9,8.4-2,12.6-3.2c0.8-0.2,2-0.5,3.5-0.8c3.2-0.5,6.3-0.1,8.2,2.1c1.6,1.8,2.5,4.6,2.5,8.4c0.1,4.8-0.3,7.9-1.3,11.6
			c-0.6,2.1-1.7,4-3.5,5.7c-0.3,0.2-0.6,0.5-0.9,0.7c-0.3,0.3-0.4,0.8-0.3,1.2c0.6,1.9,1.2,3.8,1.8,5.8c0.3,0.8,0.6,1.7,0.9,2.5
			c0.4,1.1,0.8,2.2,1.2,3.4c0.2,0.7,0.4,1.4,0.6,2.1c0.8,2.5,1.4,4.2,1.7,5.1c0.4,0.8,0.9,1.8,1.7,2.8c0,0,0.4,0.5,1,1.3
			c0.2,0.3,0.3,0.8,0,0.9c-0.2,0.1-0.6,0.1-1.1,0.1c-3.1,0-6.2,0-9.3,0C180.8,79.4,179.6,79.4,178.4,79.4z M166.8,40.3
			c-0.1-3.8-0.2-5.7-0.4-5.6c-0.2,0-0.4,2-0.6,5.8c-0.2,3.9-0.3,8.4-0.4,13.8c-0.1,5.4-0.1,9.9,0,13.7c0.1,3.8,0.2,5.6,0.4,5.6
			c0.2,0,0.4-1.9,0.6-5.7c0.2-3.9,0.3-8.4,0.4-13.9C166.9,48.7,166.9,44.1,166.8,40.3z M171.7,51.6c0.8-0.1,1.6-0.2,2.4-0.4
			c1.6-0.3,2.7-0.7,3.4-1.1c0.7-0.4,1.3-1.2,2-2.2c0.6-1,0.9-2.3,1-4c0.1-1.3,0.2-2.3,0.2-3c0-1.7-0.1-3.1-0.3-4.1
			c-0.2-1-0.6-1.9-1.3-2.5c-1.2-1.1-3.1-0.8-5.4-0.2c-0.9,0.2-1.6,0.4-2,0.6c-0.3,0.1-0.5,0.2-0.7,0.4c-0.1,0.1-0.1,0.4-0.1,0.7
			c0,0.4,0,0.8,0,1.2c0,0.8,0,1.7,0,2.5c0,1.3,0,2.3-0.1,2.9c0,1.3,0,2.6-0.1,3.9c0,1.6,0,3.2-0.1,4.7c0.1,0.4,0.3,0.6,0.6,0.5
			C171.3,51.7,171.5,51.7,171.7,51.6z M179.8,57.9c-0.7-1.6-1.1-2-1.1-1.4c0,1,0.7,3.7,2.2,8.3c1.4,4.3,2.9,8.1,3.3,8.1
			c0.3,0-0.5-4-2.1-8.8C181.3,61.5,180.5,59.4,179.8,57.9z M184.2,47.9c0.4-1.1,0.8-2.2,1.1-3.5c0.1-0.5,0.2-1.2,0.3-2.2
			c0.1-0.5,0.1-1.5,0.2-2.6c0-1.6,0-2.8-0.2-3.8c-0.2-1.2-0.4-2.3-0.8-3.1c-0.2-0.5-0.6-1.1-1.1-1.7c-0.2-0.3-0.4-0.4-0.5-0.3
			c-0.2,0.1,0.5,1.5,0.7,2.7c0.2,0.8,0.4,1.8,0.5,3c0.1,0.7,0.1,1.8,0.1,3.4c0,1.2,0,2.1-0.1,2.7c0,0.7-0.1,1.3-0.2,1.9
			c-0.1,1.1-0.4,2.2-0.7,3.3c-0.3,1.3-1,2.7-1,2.9c0,0,0,0,0.1,0.1c0.1,0,0.3-0.2,0.6-0.6C183.5,49.5,183.9,48.8,184.2,47.9z"/>
		<path class="st0" d="M194,62.4c-0.8-4.4-1.2-8.9-1.1-13.5c0-2.8,0.2-5.4,0.5-7.9c0.3-2.7,1-5.9,2.1-9.6c1.1-3.4,2.1-6.2,3.1-8.2
			c2.7-5.5,6.5-10.1,10.5-12.6c1-0.6,2.1-1.1,3.4-1.5c5.2-1.4,8.2,3.5,10,10.8c0.9,3.7,1.5,8.7,1.8,14.8c0.1,2.9,0.1,5,0.1,6.5
			c0,3.6-0.1,6.8-0.3,9.3c-0.4,4.5-1,8.9-2,12.8c-1.4,6-3.4,10.3-6,13.1c-2.4,2.6-5,3.7-7.9,3.7c-3,0-6-1.5-8.4-4.3
			C196.8,71.9,195,67.7,194,62.4z M198.7,57.7c-0.2-2.4-0.4-5.5-0.4-9.3c0.1-6.3,0.9-12.6,2-17.6c0.8-3.7,2.1-7.5,2-7.6
			c-0.1-0.1-0.5,0.8-1,1.9c-0.7,1.7-1.3,3.6-1.8,5.6c-1.4,5.1-2.3,11.5-2.4,18c0,3.7,0.1,6.8,0.5,9.5c0.4,3,0.9,5.4,1.5,7.4
			c0.6,1.8,1.2,3.4,2,4.5c0.5,0.9,1,1.4,1.1,1.3c0.1-0.1-1.4-2.8-2.2-6.3C199.3,62.9,198.9,60.4,198.7,57.7z M215,50.3
			c0.2-2.2,0.3-4.8,0.3-7.8c0-4.8-0.2-9.2-0.8-13.1c-0.6-4.7-1.4-8.2-3.1-9.5c-0.6-0.6-1.4-0.6-2.3-0.2c-1.2,0.6-2.4,2.1-3.1,4.2
			c-1,2.8-1.8,5.6-2.2,8.8c-0.8,5.2-1.3,10-1.3,14.3c-0.1,8.5,0.5,15.2,2.9,20.5c0.9,2,2,3.2,3.4,3c1.9-0.1,3.3-2.7,4.3-6.1
			C214.1,60.4,214.6,56.1,215,50.3z M218.4,63c1.4-5.6,2.2-13.6,2.2-22c0-7.9-0.7-14.9-1.9-19.3c-0.5-2.2-1.2-3.6-1.8-4.5
			c-0.5-0.9-0.9-1.2-1-1.1c-0.1,0.1,0.2,0.7,0.6,1.7c0.5,1.3,1,3,1.3,4.9c1,4.6,1.5,10.9,1.5,18.7c0,8-0.8,15.9-1.8,21.2
			c-0.9,4.4-2.3,7.7-2.2,7.8c0.1,0.1,0.5-0.5,1.1-1.6C217.1,67.3,217.8,65.4,218.4,63z"/>
		<path class="st0" d="M87.5,35.7c0.2-1.6,0.9-3,2-4.2c0.4-0.5,0.7-0.8,0.7-1c0-0.2-0.3-0.4-0.9-0.5c-1-0.2-2-0.4-3-0.7
			c-0.4-0.1-0.9-0.2-1.3-0.3c-2.7-0.6-3.6-1.2-5.9-1.6c-0.6-0.1-0.9,0.3-0.9,0.5c0,0.2,0.2,0.5,0.7,1c1.1,1.1,2.7,4.5,3.1,6.5
			c0.1,2,0.1,5,0.2,8.9c0,1.9,0.1,4,0.2,7.9c0,0.8,0,1.5,0,2.3c0,1.5,0.1,3,0.1,4.5c0,3.5-0.1,6.1-0.4,7.7c-0.3,1.3-0.6,2.4-1,3.1
			c-0.9,1.8-2.8,2.6-4.7,2.6c-0.8,0-1.6-0.3-2.4-0.7c-2.3-1.5-3.3-3.4-3.8-7c-0.2-1.6-0.3-4.1-0.3-7.3c0-3-0.1-6.1-0.1-9.1
			c0-1.1,0-2.2,0-3.2c0-1.2,0-2.3,0-3.5c0-1,0-2,0-3c0-2.5,0-4.8,0.1-6.8c0.1-1.9,0.9-3.6,2.1-4.9c0.4-0.5,0.6-0.8,0.6-1
			c0-0.4-0.3-0.5-1.3-0.9c-0.8-0.3-1.6-0.6-2.4-0.9c-1.6-0.6-3.3-1.1-4.9-1.8c-1.7-0.7-3.4-1.4-5.1-2.2c-0.4-0.2-0.7-0.3-0.8-0.3
			c-0.4,0-0.4,0.2-0.2,0.6c1.5,2.8,2.7,5.9,2.8,8.5c0.1,4.3,0.2,7.6,0.2,9.9c0,1.9,0.1,3.8,0.1,5.7c0,1.1,0,2.1,0,3.2
			c0,1.6,0,3.2,0.1,4.8c0,0.7,0,1.5,0,2.2c0.2,7.4,0.6,12.1,2.4,16.8c1.1,2.7,2.8,5.1,5.2,7c1.6,1.1,3.7,1.6,6.4,1.6
			c2.5,0,4.3-0.3,6.2-1.6c2-1.3,3.6-3.2,4.8-5.7c1.6-3.2,1.9-6.5,1.8-11.6c0-0.9,0-1.7,0-2.6c0-0.8,0-1.6,0-2.3
			c-0.1-1.9-0.1-4.6-0.2-8c0-1.4,0-2.7-0.1-4.1l0,0C87.4,40.5,87.4,37.7,87.5,35.7z M68.4,72.5c-0.1,0.1-0.7-0.3-1.2-1.1
			c-0.8-1.1-1.4-2.6-1.9-4.4c-0.3-1-0.4-2.1-0.6-3.4c0-0.6-0.1-1.3-0.1-1.9c0-0.7,0-1.3,0-2c-0.1-1.8-0.1-4.6-0.2-8.7
			c-0.1-6.1-0.1-11.4,0-15.7c0.1-4.3,0.2-6.4,0.4-6.4c0.2,0.1,0.4,2.3,0.6,6.6c0.2,4.3,0.3,9.5,0.4,15.6c0.1,4,0.1,6.8,0.1,8.6
			c0,0.6,0,1.3,0,1.9c0,0.4,0,1,0,1.8c0,1.1,0.2,2.1,0.3,3.1c0.3,1.7,0.8,3.1,1.4,4.3C68.1,71.7,68.5,72.4,68.4,72.5z"/>
	</g>
	<g>
		<g>
			<path class="st0" d="M64.7,123.6l-1.8,0c-0.4,0-0.6-0.1-0.6-0.3c0-0.1,0.1-0.4,0.4-0.8c0.9-1.1,1.4-2.3,1.5-3.7
				c0.1-1.1,0.2-2.6,0.2-4.4v-1.8l0-5c0-1.4,0-2.5,0-3.3l0-2l0-3.5c0-1.4,0-3.4-0.1-6c0-1.5-0.8-3.2-1.9-4.5
				c-0.2-0.1-0.1-0.3,0.1-0.4c0.1,0,0.3,0,0.6,0h2.5h3.2h0.4c0.4,0,0.7,0.2,0.9,0.5l0.8,1.6l2.1,4c0.6,1.1,0.9,1.8,1.1,2.1
				c0.2,0.4,0.5,1,0.9,1.8c0.3,0.6,0.6,1.1,1,1.8c0.2,0.4,0.5,0.9,0.8,1.5l1.3,2.6l1.3,2.3l0.3,0.6c0.2,0.3,0.3,0.5,0.4,0.5
				c0.1,0,0.2-0.3,0.2-1v-1.9v-2l0-3.5c0-2.7,0-4.7,0-6c0-1.6-0.9-3.2-1.9-4.5c-0.1-0.2-0.1-0.3,0.2-0.4c0.1,0,0.3,0,0.6,0h4.6h2.1
				c0.4,0,0.6,0.1,0.6,0.3c0,0.1-0.1,0.4-0.4,0.8c-0.9,1.1-1.4,2.3-1.5,3.7c-0.1,1.4-0.2,2.9-0.2,4.5c0,0.4,0,1,0,1.8l0,5
				c0,1.4,0,2.5,0,3.3v2v3.6c0,1.4,0,3.4,0.1,6c0,0.6,0,2.1,0,4.4c0,0.3-0.2,0.6-0.5,0.6h-1.8h-1.5c-0.3,0-0.6-0.2-0.8-0.6l-0.3-0.6
				l-2.1-4l-2.6-5.3l-1.9-3.5l-0.8-1.7c-0.3-0.7-0.7-1.4-1.1-2.1l-1.7-3.2c-0.3-0.5-0.5-0.8-0.6-0.8c-0.1,0-0.1,0.3-0.1,0.9v1.5
				c0,0.6,0,1.5,0,2.8v2l0,3.5c0,2.7,0,4.7,0,6c0,1.6,0.9,3.2,1.9,4.5c0.2,0.2,0.1,0.3-0.1,0.4c-0.1,0-0.3,0-0.6,0
				c-1.5,0-2.7,0-3.4,0H64.7z M69.5,95.1c-1.4-2.5-2.1-3.5-2.1-3.2c0,0.3,0.6,1.7,1.9,4.3c1.2,2.5,2.8,5.6,4.7,9.1
				c2.1,3.9,3.8,7.1,5.2,9.6c1.4,2.5,2.1,3.6,2.1,3.2c0-0.3-0.6-1.7-1.9-4.3c-1.2-2.6-2.8-5.6-4.6-9.1C72.7,100.8,71,97.6,69.5,95.1
				z"/>
			<path class="st0" d="M94.2,123.7h-0.5c-1.2,0-1.8,0-2.3,0c-0.6,0-0.9-0.1-0.9-0.3c0-0.1,0.2-0.4,0.5-0.8c0.9-1.1,1.4-2.4,1.5-3.7
				c0.1-1.4,0.2-2.9,0.2-4.5v-1.8v-5c0-1.4,0-2.5,0-3.3v-2l0-3.6c0-2.7,0-4.7,0-6c0-1.6-0.9-3.2-1.9-4.5c-0.2-0.2-0.1-0.3,0.1-0.4
				c0.1,0,0.3,0,0.6,0c1.3,0,2.3,0,3,0h0.9l2.3,0l6.1,0l5.5,0l0.8,0h0.1c0.2,0,0.3,0,0.3,0.1c0,0,0,0.2,0,0.5v2.2V94v0.4
				c0,0.3,0,0.5,0,0.6c0,0.3-0.2,0.3-0.3,0.2c-1.2-1.1-2.6-2-4-2.1h-3.8h-1.5h-1.3c-0.3,0-0.4,0.1-0.4,0.4c0,0.2,0,0.5,0,1
				c0,0.5,0,1.2,0,2.1c0,2,0.1,3.9,0.1,5.9c0,0.2,0.2,0.4,0.4,0.4h1.2h2.4h2.6c0.2,0,0.3,0,0.4,0c0.1,0,0.2,0.3,0.2,0.4
				c0,0.4,0,0.7,0,0.9v1.7c0,0.5,0,0.9,0,1.2v0.3v0.2c0,0.1-0.1,0.2-0.3,0.2H105h-1.5c-0.5,0-1.2,0-2.3,0c-0.4,0-1.1,0-2,0
				c-0.2,0-0.4,0.2-0.4,0.4l0,3.4v4.1v2c0,0.2,0.2,0.5,0.4,0.5l3.8,0c1.2,0,2.8-0.2,3.5-0.2c1.2-0.1,2.3-0.7,3.3-1.7
				c0.3-0.3,0.6-0.5,0.7-0.5c0.1,0,0.2,0.2,0.2,0.7v3.1l0,1.9v0.3c0,0.5,0,1,0,1.2c0,0.2-0.1,0.4-0.2,0.4c-0.1,0-0.3,0.1-0.5,0.1
				h-3.2h-3.1c-1,0-2.2,0-3.7,0l-1.5,0h-0.1h-0.6h-0.8H94.2z M96.1,95.9c-0.1-2.7-0.2-4.1-0.3-4.1c-0.1,0-0.3,1.3-0.3,4.1
				c-0.1,2.7-0.1,6-0.1,9.8c0,3.8,0,7.1,0.1,9.8c0.1,2.7,0.2,4.1,0.3,4.1c0.1,0,0.3-1.3,0.3-4.1c0.1-2.7,0.1-6,0.1-9.8
				C96.2,101.9,96.2,98.6,96.1,95.9z"/>
			<path class="st0" d="M116.5,118.5c-1.8-3.5-2.7-7.7-2.7-12.6c0-1.9,0.2-3.9,0.5-5.9c0.4-2.9,1.1-5.1,2.1-6.7
				c1.3-2.2,2.6-3.7,4.5-4.7c1.6-0.9,3.2-1.3,4.8-1.3c1.8,0,3.3,0.5,4.7,1.5c0.8,0.6,1.3,0.9,1.8,0.9c0.6,0,1.3-0.5,2.1-1.5
				c0.3-0.4,0.5-0.6,0.7-0.6c0.2,0,0.3,0.3,0.3,0.9l0,4.3V97v1.4l0,0.2c0,0.5-0.1,0.9-0.3,0.9c-0.2,0.1-0.5,0.1-0.8,0.1h-1.3
				c-0.3,0-0.5,0-0.6-0.1c-0.2,0-0.3-0.5-0.6-1.4c-0.3-0.8-0.4-1.3-0.6-1.6c-0.4-1.1-0.9-2-1.6-2.7c-0.8-1-2-1.5-3.1-1.5
				c-0.9,0-1.7,0.3-2.4,1c-1.6,1.3-2.8,3.8-3.1,6.3c-0.3,1.9-0.5,3.8-0.5,5.7c0,0.7,0,1.2,0,1.6c0.1,2.4,0.4,4.7,1,6.7
				c0.8,2.9,2.9,5.4,5.4,5.4c1.4,0,2.7-0.8,3.6-2.1c0.5-0.7,0.8-1.5,0.9-2.6c0.1-0.6,0.2-1.5,0.2-2.8v-1.1c0-0.4-0.1-0.7-0.3-0.7
				H130l-1.3,0l-1.2,0c-0.2,0-0.3,0-0.4,0c-0.1,0-0.2-0.1-0.2-0.4v-0.7v-0.3c0-0.3,0-0.8,0-1.5l0-1.1v-0.3v-0.1c0-0.2,0-0.3,0.3-0.3
				h0.7l2.9,0h1.8c0.6,0,1.3,0,2.4,0h0.6h0c0.4,0,0.4,0,0.4,0.7v2.2v1.1v1.4c0,1.1-0.1,2.3-0.2,3.6c-0.3,2.4-0.6,3.8-1.5,5.3
				c-0.8,1.6-1.9,2.9-3.3,3.7c-0.5,0.3-1.1,0.7-1.8,0.9c-0.8,0.3-1.8,0.4-2.8,0.4c-0.6,0-1.3,0-1.9-0.1
				C120.7,123.5,118.1,121.7,116.5,118.5z M119.2,115.6c-1-2.5-1.6-6.1-1.6-9.9c0-2.1,0.1-3.9,0.4-5.6c0.2-1.6,0.6-3.1,1.1-4.4
				c0.3-0.9,0.8-1.8,1.3-2.7c0.2-0.3,0.6-0.9,0.6-1c0,0-0.5,0.3-0.9,0.7c-0.6,0.6-1.2,1.5-1.7,2.6c-0.6,1.3-1,2.8-1.3,4.5
				c-0.3,1.5-0.5,3.4-0.5,5.8c0,4,0.8,7.7,2,10.2c0.6,1.1,1.1,2,1.7,2.6c0.4,0.4,0.8,0.8,0.9,0.7c0,0-0.3-0.5-0.6-0.9
				C120,117.5,119.6,116.6,119.2,115.6z"/>
			<path class="st0" d="M154.1,123.7h-0.3c-0.3,0-0.5,0-0.6,0c-0.3-0.1-0.3-0.2-0.2-0.4c0.9-1,1.3-1.5,1.6-2.3
				c0.1-0.2,0.1-0.4,0.1-0.7c0-0.7-0.4-1.8-0.5-2L154,117c-0.2-0.8-0.4-1.4-0.6-1.8c-0.2-0.5-0.5-1.4-1-2.7l-0.7-1.9l-0.3-0.8
				c-0.1-0.2-0.3-0.3-0.6-0.3h-1.1l-1,0c-0.2,0-0.4,0.1-0.4,0.4v2.2v3.8v1.3c0,1,0,1.7,0,2c0,0.3,0.1,0.7,0.3,1.1
				c0.3,1.1,0.9,2.1,1.6,3c0.2,0.2,0.1,0.3-0.1,0.4c-0.1,0-0.3,0-0.6,0l-4.6,0h-1.7c-0.5,0-1.2,0-2.1,0h-0.3c-0.3,0-0.4,0-0.6,0
				c-0.3-0.1-0.3-0.2-0.1-0.4c1.1-1.3,1.9-3,1.9-4.5c0-1.2,0-3.1,0-5.6l0-3.8v-2.1c0-1.2,0-2.3,0-3.4v-2c0-2.1,0-3.6,0-4.6
				c0-1.6,0-3.1-0.2-4.5c-0.1-1.3-0.6-2.5-1.5-3.7c-0.3-0.3-0.5-0.6-0.5-0.8c0-0.2,0.2-0.3,0.6-0.3h1.9h8.9c0.6,0,1.4,0,2.5,0.2
				c2.3,0.3,4.5,1.4,5.9,3.2c1.2,1.5,1.8,3.4,1.8,5.8c0.1,3-0.1,4.9-0.8,7c-0.4,1.2-1.2,2.3-2.4,3.2l-0.6,0.4
				c-0.2,0.1-0.3,0.5-0.2,0.7l1.4,3.9l0.6,1.7l0.9,2.2l0.5,1.3c0.6,1.6,1,2.7,1.3,3.2c0.3,0.5,0.6,1.1,1.2,1.7c0,0,0.3,0.3,0.7,0.8
				c0.2,0.2,0.2,0.5,0,0.5c-0.2,0-0.4,0-0.8,0h-6.6H154.1z M145.5,95.9c-0.1-2.7-0.2-4.1-0.3-4.1c-0.1,0-0.3,1.3-0.3,4.1
				c-0.1,2.7-0.1,6-0.1,9.8c0,3.8,0,7.1,0.1,9.8c0.1,2.7,0.2,4,0.3,4c0.1,0,0.3-1.3,0.3-4c0.1-2.7,0.1-6,0.1-9.8
				C145.6,101.9,145.6,98.6,145.5,95.9z M149.1,104.5h1.7c1.2,0,1.9-0.2,2.4-0.3c0.5-0.2,0.9-0.6,1.4-1.2c0.4-0.6,0.6-1.4,0.7-2.5
				c0-0.8,0.1-1.5,0.1-2c0-1.1-0.1-2.1-0.3-2.8c-0.1-0.7-0.5-1.3-0.9-1.9c-0.9-1-2.2-1.1-3.9-1.1c-0.6,0-1.1,0-1.4,0
				c-0.2,0-0.4,0-0.5,0.2c0,0-0.1,0.2-0.1,0.5v0.9V96c0,0.9,0,1.6,0,2v2.7v3.3c0,0.3,0.2,0.4,0.4,0.4H149.1z M154.9,109.5
				c-0.5-1.1-0.8-1.4-0.8-1c0,0.7,0.6,2.5,1.7,5.6c1,2.9,2.1,5.4,2.4,5.4c0.2,0-0.4-2.6-1.6-5.8C156,112,155.4,110.6,154.9,109.5z
				 M157.9,103.5c0.3-0.6,0.6-1.3,0.7-2.1c0-0.3,0.1-0.8,0.2-1.3c0-0.3,0.1-0.9,0.1-1.6c0-1,0-1.8-0.2-2.5c-0.1-0.8-0.3-1.5-0.6-2.1
				c-0.2-0.4-0.4-0.8-0.8-1.3c-0.2-0.2-0.3-0.3-0.4-0.3c-0.1,0,0.3,1.1,0.5,1.9c0.2,0.6,0.3,1.2,0.4,2.1c0,0.4,0.1,1.2,0.1,2.2
				c0,0.8,0,1.3,0,1.7c0,0.4,0,0.8-0.1,1.2c-0.1,0.7-0.3,1.4-0.5,2c-0.2,0.8-0.7,1.6-0.7,1.8l0,0c0.1,0,0.2-0.1,0.4-0.3
				C157.4,104.4,157.7,104,157.9,103.5z"/>
			<path class="st0" d="M167.6,113.5c-0.6-2.7-0.9-5.5-0.9-8.3c0-1.7,0.1-3.2,0.3-4.7c0.2-1.6,0.6-3.4,1.4-5.3
				c0.7-1.8,1.5-3.2,2.2-4.1c1.9-2.5,4.6-4,7.6-4c0.7,0,1.5,0.1,2.5,0.3c3.8,1,6.1,4.4,7.4,8.3c0.7,2,1.1,4.4,1.3,7.3
				c0,1.3,0.1,2.3,0.1,3c0,1.7-0.1,3.1-0.2,4.3c-0.3,2.1-0.7,4-1.5,5.8c-1,2.7-2.4,4.7-4.3,6.1c-1.7,1.2-3.6,1.9-5.6,1.9
				c-2.1,0-4.3-0.8-6-2.5C169.7,119.4,168.4,116.8,167.6,113.5z M170.9,111.2c-0.2-1.4-0.3-3.2-0.3-5.4c0-3.6,0.6-7.2,1.3-9.8
				c0.6-2,1.5-3.8,1.4-3.8c0,0-0.4,0.3-0.7,0.8c-0.5,0.8-0.9,1.7-1.3,2.8c-1,2.6-1.6,6.2-1.6,10c0,2.1,0.1,4,0.4,5.6
				c0.3,1.8,0.7,3.2,1.2,4.4c0.4,1.1,0.9,2,1.5,2.7c0.4,0.5,0.7,0.8,0.8,0.8c0,0-1-1.6-1.6-3.7C171.4,114.2,171.1,112.8,170.9,111.2
				z M182.5,109.1c0.1-1.1,0.2-2.4,0.2-3.9c0-2.4-0.2-4.7-0.6-6.8c-0.5-2.5-1.1-4.5-2.3-5.7c-0.5-0.5-1-0.7-1.7-0.7
				c-0.9,0-1.7,0.5-2.2,1.4c-0.7,1.2-1.2,2.7-1.5,4.3c-0.6,2.7-0.9,5.3-0.9,7.8c0,4.8,0.5,8.6,2.2,11.7c0.7,1.1,1.4,1.8,2.4,1.8
				c1.3,0,2.4-1.3,3.1-3C182,114.1,182.3,112,182.5,109.1z M185,115.8c1-2.6,1.5-6.4,1.5-10.4c0-3.8-0.6-7.3-1.4-9.7
				c-0.4-1.2-0.9-2.1-1.3-2.7c-0.3-0.6-0.7-0.9-0.7-0.8c0,0,0.1,0.4,0.4,1c0.4,0.8,0.7,1.8,1,2.8c0.7,2.5,1.1,5.7,1.1,9.5
				c0,3.9-0.5,7.6-1.2,10.1c-0.6,2.1-1.6,3.7-1.5,3.7c0,0,0.4-0.2,0.8-0.8C184.1,117.8,184.6,116.9,185,115.8z"/>
		</g>
	</g>
</g>
</svg>
