<?xml version="1.0" encoding="utf-8"?>
<!-- Generator: Adobe Illustrator 25.2.1, SVG Export Plug-In . SVG Version: 6.00 Build 0)  -->
<svg version="1.1" id="Capa_1" xmlns="http://www.w3.org/2000/svg" xmlns:xlink="http://www.w3.org/1999/xlink" x="0px" y="0px"
	 viewBox="0 0 156 156" style="enable-background:new 0 0 156 156;" xml:space="preserve">
<style type="text/css">
	.st0{fill:#E1AC00;}
</style>
<g>
	<g>
		<path class="st0" d="M128.54,155.4h-13.45c-2.59,0-4.68-2.1-4.68-4.68s2.1-4.68,4.68-4.68h13.45c9.65,0,17.49-7.85,17.49-17.49
			v-14.22c0-2.59,2.1-4.68,4.68-4.68s4.68,2.1,4.68,4.68v14.22C155.4,143.35,143.35,155.4,128.54,155.4z"/>
		<path class="st0" d="M150.72,46.36c-2.59,0-4.68-2.1-4.68-4.68V27.46c0-9.64-7.85-17.49-17.49-17.49h-14.11
			c-2.59,0-4.68-2.1-4.68-4.68s2.1-4.68,4.68-4.68h14.11c14.81,0,26.86,12.05,26.86,26.86v14.22
			C155.4,44.27,153.3,46.36,150.72,46.36z"/>
		<path class="st0" d="M41.68,155.4H27.46c-14.81,0-26.86-12.05-26.86-26.86v-14.22c0-2.59,2.1-4.68,4.68-4.68s4.68,2.1,4.68,4.68
			v14.22c0,9.64,7.85,17.49,17.49,17.49h14.22c2.59,0,4.68,2.1,4.68,4.68S44.26,155.4,41.68,155.4z"/>
		<path class="st0" d="M5.28,46.36c-2.59,0-4.68-2.1-4.68-4.68V27.46C0.6,12.65,12.65,0.6,27.46,0.6h14.22
			c2.59,0,4.68,2.1,4.68,4.68s-2.1,4.68-4.68,4.68H27.46c-9.65,0-17.49,7.85-17.49,17.49v14.22C9.97,44.27,7.87,46.36,5.28,46.36z"
			/>
	</g>
	<path class="st0" d="M124.19,53.71c-0.01-0.12-0.03-0.23-0.05-0.35c-0.17-1.18-0.77-2.24-1.71-2.98c-0.01-0.01-0.02-0.01-0.03-0.02
		c-0.17-0.13-0.33-0.29-0.52-0.4L80.34,25.97c-1.45-0.84-3.23-0.84-4.68,0L34.11,49.96c-0.19,0.11-0.35,0.27-0.52,0.4
		c-0.01,0.01-0.01,0.01-0.02,0.02c-0.94,0.74-1.54,1.8-1.71,2.99c-0.02,0.12-0.04,0.23-0.05,0.35c-0.01,0.1-0.04,0.2-0.04,0.31
		v47.97c0,1.67,0.89,3.22,2.34,4.06l41.54,23.99c0.72,0.42,1.53,0.63,2.34,0.63c0.81,0,1.62-0.21,2.34-0.63l41.55-23.99
		c1.45-0.84,2.34-2.38,2.34-4.06V54.01C124.23,53.91,124.19,53.81,124.19,53.71z M78,35.44l32.12,18.54L78,71.95L45.89,53.97
		L78,35.44z M41.14,62.05l32.18,18.01v37.8L41.14,99.28V62.05z M82.68,117.86v-37.8l32.18-18.01v37.23L82.68,117.86z"/>
</g>
</svg>
