<?xml version="1.0" encoding="utf-8"?>
<!-- Generator: Adobe Illustrator 25.2.1, SVG Export Plug-In . SVG Version: 6.00 Build 0)  -->
<svg version="1.1" id="Capa_1" xmlns="http://www.w3.org/2000/svg" xmlns:xlink="http://www.w3.org/1999/xlink" x="0px" y="0px"
	 viewBox="0 0 451 565" style="enable-background:new 0 0 451 565;" xml:space="preserve">
<style type="text/css">
	.st0{opacity:0.1;}
	.st1{fill:none;stroke:#FFFFFF;stroke-miterlimit:10;}
</style>
<g class="st0">
	<line class="st1" x1="11.9" y1="1.3" x2="0.5" y2="11.9"/>
	<line class="st1" x1="48" y1="14.3" x2="31.2" y2="34.4"/>
	<line class="st1" x1="58.9" y1="1.3" x2="48" y2="14.3"/>
	<line class="st1" x1="31.2" y1="34.4" x2="7.1" y2="63"/>
	<line class="st1" x1="0.5" y1="71" x2="7.1" y2="63"/>
	<line class="st1" x1="0.5" y1="177.4" x2="14.4" y2="154.2"/>
	<line class="st1" x1="105.9" y1="1.3" x2="98.1" y2="14.3"/>
	<line class="st1" x1="69" y1="63" x2="86.1" y2="34.4"/>
	<line class="st1" x1="98.1" y1="14.3" x2="86.1" y2="34.4"/>
	<line class="st1" x1="45.4" y1="102.3" x2="69" y2="63"/>
	<line class="st1" x1="14.4" y1="154.2" x2="45.4" y2="102.3"/>
	<line class="st1" x1="315" y1="563.7" x2="305.1" y2="482.1"/>
	<line class="st1" x1="246.9" y1="1.3" x2="248.5" y2="14.3"/>
	<line class="st1" x1="259.1" y1="102.3" x2="254.4" y2="63"/>
	<line class="st1" x1="305.1" y1="482.1" x2="287.9" y2="339.8"/>
	<line class="st1" x1="254.4" y1="63" x2="250.9" y2="34.4"/>
	<line class="st1" x1="248.5" y1="14.3" x2="250.9" y2="34.4"/>
	<line class="st1" x1="259.1" y1="102.3" x2="265.4" y2="154.2"/>
	<line class="st1" x1="274.6" y1="230" x2="265.4" y2="154.2"/>
	<line class="st1" x1="287.9" y1="339.8" x2="274.6" y2="230"/>
	<line class="st1" x1="432.8" y1="154.2" x2="450.5" y2="183.7"/>
	<line class="st1" x1="432.8" y1="154.2" x2="401.6" y2="102.3"/>
	<line class="st1" x1="348.7" y1="14.3" x2="360.8" y2="34.4"/>
	<line class="st1" x1="401.6" y1="102.3" x2="378" y2="63"/>
	<line class="st1" x1="360.8" y1="34.4" x2="378" y2="63"/>
	<line class="st1" x1="340.9" y1="1.3" x2="348.7" y2="14.3"/>
	<line class="st1" x1="387.9" y1="1.3" x2="398.8" y2="14.3"/>
	<line class="st1" x1="439.8" y1="63" x2="450.5" y2="75.8"/>
	<line class="st1" x1="415.7" y1="34.4" x2="439.8" y2="63"/>
	<line class="st1" x1="398.8" y1="14.3" x2="415.7" y2="34.4"/>
	<line class="st1" x1="0.5" y1="426.1" x2="31.5" y2="339.8"/>
	<line class="st1" x1="98" y1="154.2" x2="116.7" y2="102.3"/>
	<line class="st1" x1="70.8" y1="230" x2="31.5" y2="339.8"/>
	<line class="st1" x1="148.2" y1="14.3" x2="141" y2="34.4"/>
	<line class="st1" x1="116.7" y1="102.3" x2="130.8" y2="63"/>
	<line class="st1" x1="152.9" y1="1.3" x2="148.2" y2="14.3"/>
	<line class="st1" x1="130.8" y1="63" x2="141" y2="34.4"/>
	<line class="st1" x1="70.8" y1="230" x2="98" y2="154.2"/>
	<line class="st1" x1="192.6" y1="63" x2="196" y2="34.4"/>
	<line class="st1" x1="181.7" y1="154.2" x2="172.7" y2="230"/>
	<line class="st1" x1="159.7" y1="339.8" x2="172.7" y2="230"/>
	<line class="st1" x1="198.4" y1="14.3" x2="196" y2="34.4"/>
	<line class="st1" x1="133.1" y1="563.7" x2="142.8" y2="482.1"/>
	<line class="st1" x1="181.7" y1="154.2" x2="187.9" y2="102.3"/>
	<line class="st1" x1="187.9" y1="102.3" x2="192.6" y2="63"/>
	<line class="st1" x1="199.9" y1="1.3" x2="198.4" y2="14.3"/>
	<line class="st1" x1="142.8" y1="482.1" x2="159.7" y2="339.8"/>
	<line class="st1" x1="376.5" y1="230" x2="349.1" y2="154.2"/>
	<line class="st1" x1="416.1" y1="339.8" x2="376.5" y2="230"/>
	<line class="st1" x1="298.6" y1="14.3" x2="305.8" y2="34.4"/>
	<line class="st1" x1="416.1" y1="339.8" x2="450.5" y2="435.2"/>
	<line class="st1" x1="316.2" y1="63" x2="305.8" y2="34.4"/>
	<line class="st1" x1="293.9" y1="1.3" x2="298.6" y2="14.3"/>
	<line class="st1" x1="349.1" y1="154.2" x2="330.4" y2="102.3"/>
	<line class="st1" x1="316.2" y1="63" x2="330.4" y2="102.3"/>
	<line class="st1" x1="434.9" y1="1.3" x2="449" y2="14.3"/>
	<line class="st1" x1="450.5" y1="15.7" x2="449" y2="14.3"/>
	<line class="st1" x1="142.8" y1="482.1" x2="0.5" y2="482.1"/>
	<line class="st1" x1="142.8" y1="482.1" x2="305.1" y2="482.1"/>
	<line class="st1" x1="305.1" y1="482.1" x2="450.5" y2="482.1"/>
	<line class="st1" x1="0.5" y1="339.8" x2="31.5" y2="339.8"/>
	<line class="st1" x1="416.1" y1="339.8" x2="450.5" y2="339.8"/>
	<line class="st1" x1="287.9" y1="339.8" x2="416.1" y2="339.8"/>
	<line class="st1" x1="159.7" y1="339.8" x2="287.9" y2="339.8"/>
	<line class="st1" x1="31.5" y1="339.8" x2="159.7" y2="339.8"/>
	<line class="st1" x1="70.8" y1="230" x2="172.7" y2="230"/>
	<line class="st1" x1="376.5" y1="230" x2="450.5" y2="230"/>
	<line class="st1" x1="172.7" y1="230" x2="274.6" y2="230"/>
	<line class="st1" x1="0.5" y1="230" x2="70.8" y2="230"/>
	<line class="st1" x1="274.6" y1="230" x2="376.5" y2="230"/>
	<line class="st1" x1="432.8" y1="154.2" x2="450.5" y2="154.2"/>
	<line class="st1" x1="14.4" y1="154.2" x2="0.5" y2="154.2"/>
	<line class="st1" x1="181.7" y1="154.2" x2="265.4" y2="154.2"/>
	<line class="st1" x1="14.4" y1="154.2" x2="98" y2="154.2"/>
	<line class="st1" x1="349.1" y1="154.2" x2="432.8" y2="154.2"/>
	<line class="st1" x1="265.4" y1="154.2" x2="349.1" y2="154.2"/>
	<line class="st1" x1="98" y1="154.2" x2="181.7" y2="154.2"/>
	<line class="st1" x1="116.7" y1="102.3" x2="187.9" y2="102.3"/>
	<line class="st1" x1="187.9" y1="102.3" x2="259.1" y2="102.3"/>
	<line class="st1" x1="45.4" y1="102.3" x2="116.7" y2="102.3"/>
	<line class="st1" x1="0.5" y1="102.3" x2="45.4" y2="102.3"/>
	<line class="st1" x1="401.6" y1="102.3" x2="450.5" y2="102.3"/>
	<line class="st1" x1="259.1" y1="102.3" x2="330.4" y2="102.3"/>
	<line class="st1" x1="330.4" y1="102.3" x2="401.6" y2="102.3"/>
	<line class="st1" x1="378" y1="63" x2="439.8" y2="63"/>
	<line class="st1" x1="316.2" y1="63" x2="378" y2="63"/>
	<line class="st1" x1="450.5" y1="63" x2="439.8" y2="63"/>
	<line class="st1" x1="0.5" y1="63" x2="7.1" y2="63"/>
	<line class="st1" x1="192.6" y1="63" x2="254.4" y2="63"/>
	<line class="st1" x1="69" y1="63" x2="130.8" y2="63"/>
	<line class="st1" x1="130.8" y1="63" x2="192.6" y2="63"/>
	<line class="st1" x1="254.4" y1="63" x2="316.2" y2="63"/>
	<line class="st1" x1="7.1" y1="63" x2="69" y2="63"/>
	<line class="st1" x1="250.9" y1="34.4" x2="196" y2="34.4"/>
	<line class="st1" x1="141" y1="34.4" x2="86.1" y2="34.4"/>
	<line class="st1" x1="86.1" y1="34.4" x2="31.2" y2="34.4"/>
	<line class="st1" x1="196" y1="34.4" x2="141" y2="34.4"/>
	<line class="st1" x1="0.5" y1="34.4" x2="31.2" y2="34.4"/>
	<line class="st1" x1="305.8" y1="34.4" x2="250.9" y2="34.4"/>
	<line class="st1" x1="360.8" y1="34.4" x2="305.8" y2="34.4"/>
	<line class="st1" x1="415.7" y1="34.4" x2="360.8" y2="34.4"/>
	<line class="st1" x1="450.5" y1="34.4" x2="415.7" y2="34.4"/>
	<line class="st1" x1="348.7" y1="14.3" x2="298.6" y2="14.3"/>
	<line class="st1" x1="450.5" y1="14.3" x2="449" y2="14.3"/>
	<line class="st1" x1="398.8" y1="14.3" x2="348.7" y2="14.3"/>
	<line class="st1" x1="449" y1="14.3" x2="398.8" y2="14.3"/>
	<line class="st1" x1="98.1" y1="14.3" x2="48" y2="14.3"/>
	<line class="st1" x1="298.6" y1="14.3" x2="248.5" y2="14.3"/>
	<line class="st1" x1="148.2" y1="14.3" x2="98.1" y2="14.3"/>
	<line class="st1" x1="48" y1="14.3" x2="0.5" y2="14.3"/>
	<line class="st1" x1="248.5" y1="14.3" x2="198.4" y2="14.3"/>
	<line class="st1" x1="198.4" y1="14.3" x2="148.2" y2="14.3"/>
	<line class="st1" x1="58.9" y1="1.3" x2="11.9" y2="1.3"/>
	<line class="st1" x1="199.9" y1="1.3" x2="152.9" y2="1.3"/>
	<line class="st1" x1="11.9" y1="1.3" x2="0.5" y2="1.3"/>
	<line class="st1" x1="152.9" y1="1.3" x2="105.9" y2="1.3"/>
	<line class="st1" x1="105.9" y1="1.3" x2="58.9" y2="1.3"/>
	<line class="st1" x1="434.9" y1="1.3" x2="387.9" y2="1.3"/>
	<line class="st1" x1="387.9" y1="1.3" x2="340.9" y2="1.3"/>
	<line class="st1" x1="450.5" y1="1.3" x2="434.9" y2="1.3"/>
	<line class="st1" x1="293.9" y1="1.3" x2="246.9" y2="1.3"/>
	<line class="st1" x1="246.9" y1="1.3" x2="199.9" y2="1.3"/>
	<line class="st1" x1="340.9" y1="1.3" x2="293.9" y2="1.3"/>
</g>
</svg>
