<?xml version="1.0" encoding="utf-8"?>
<!-- Generator: Adobe Illustrator 25.2.1, SVG Export Plug-In . SVG Version: 6.00 Build 0)  -->
<svg version="1.1" id="Capa_1" xmlns="http://www.w3.org/2000/svg" xmlns:xlink="http://www.w3.org/1999/xlink" x="0px" y="0px"
	 viewBox="0 0 451 565" style="enable-background:new 0 0 451 565;" xml:space="preserve">
<style type="text/css">
	.st0{clip-path:url(#SVGID_2_);}
	.st1{fill:none;stroke:#41B6E6;stroke-width:0.25;stroke-miterlimit:10;}
</style>
<g>
	<defs>
		<rect id="SVGID_1_" width="451" height="565"/>
	</defs>
	<clipPath id="SVGID_2_">
		<use xlink:href="#SVGID_1_"  style="overflow:visible;"/>
	</clipPath>
	<g class="st0">
		<line class="st1" x1="11.5" y1="0" x2="0" y2="10.63"/>
		<line class="st1" x1="48.04" y1="13.03" x2="31.08" y2="33.18"/>
		<line class="st1" x1="59.04" y1="0" x2="48.04" y2="13.03"/>
		<line class="st1" x1="31.08" y1="33.18" x2="6.66" y2="61.95"/>
		<line class="st1" x1="0" y1="69.97" x2="6.66" y2="61.95"/>
		<line class="st1" x1="0" y1="176.94" x2="14.03" y2="153.58"/>
		<line class="st1" x1="106.57" y1="0" x2="98.7" y2="13.03"/>
		<line class="st1" x1="69.33" y1="61.95" x2="86.59" y2="33.18"/>
		<line class="st1" x1="98.7" y1="13.03" x2="86.59" y2="33.18"/>
		<line class="st1" x1="45.41" y1="101.45" x2="69.33" y2="61.95"/>
		<line class="st1" x1="14.03" y1="153.58" x2="45.41" y2="101.45"/>
		<line class="st1" x1="318.09" y1="565" x2="308.1" y2="483"/>
		<line class="st1" x1="249.17" y1="0" x2="250.88" y2="13.03"/>
		<line class="st1" x1="261.58" y1="101.45" x2="256.84" y2="61.95"/>
		<line class="st1" x1="308.1" y1="483" x2="290.64" y2="340.04"/>
		<line class="st1" x1="256.84" y1="61.95" x2="253.3" y2="33.18"/>
		<line class="st1" x1="250.88" y1="13.03" x2="253.3" y2="33.18"/>
		<line class="st1" x1="261.58" y1="101.45" x2="267.94" y2="153.58"/>
		<line class="st1" x1="277.22" y1="229.77" x2="267.94" y2="153.58"/>
		<line class="st1" x1="290.64" y1="340.04" x2="277.22" y2="229.77"/>
		<line class="st1" x1="437.28" y1="153.58" x2="455.14" y2="183.25"/>
		<line class="st1" x1="437.28" y1="153.58" x2="405.69" y2="101.45"/>
		<line class="st1" x1="352.2" y1="13.03" x2="364.42" y2="33.18"/>
		<line class="st1" x1="405.69" y1="101.45" x2="381.77" y2="61.95"/>
		<line class="st1" x1="364.42" y1="33.18" x2="381.77" y2="61.95"/>
		<line class="st1" x1="344.33" y1="0" x2="352.2" y2="13.03"/>
		<line class="st1" x1="391.86" y1="0" x2="402.86" y2="13.03"/>
		<line class="st1" x1="444.34" y1="61.95" x2="455.14" y2="74.79"/>
		<line class="st1" x1="419.92" y1="33.18" x2="444.34" y2="61.95"/>
		<line class="st1" x1="402.86" y1="13.03" x2="419.92" y2="33.18"/>
		<line class="st1" x1="0" y1="426.76" x2="31.39" y2="340.04"/>
		<line class="st1" x1="98.6" y1="153.58" x2="117.57" y2="101.45"/>
		<line class="st1" x1="71.15" y1="229.77" x2="31.39" y2="340.04"/>
		<line class="st1" x1="149.36" y1="13.03" x2="142.09" y2="33.18"/>
		<line class="st1" x1="117.57" y1="101.45" x2="131.8" y2="61.95"/>
		<line class="st1" x1="154.1" y1="0" x2="149.36" y2="13.03"/>
		<line class="st1" x1="131.8" y1="61.95" x2="142.09" y2="33.18"/>
		<line class="st1" x1="71.15" y1="229.77" x2="98.6" y2="153.58"/>
		<line class="st1" x1="194.27" y1="61.95" x2="197.7" y2="33.18"/>
		<line class="st1" x1="183.27" y1="153.58" x2="174.18" y2="229.77"/>
		<line class="st1" x1="161.07" y1="340.04" x2="174.18" y2="229.77"/>
		<line class="st1" x1="200.12" y1="13.03" x2="197.7" y2="33.18"/>
		<line class="st1" x1="134.12" y1="565" x2="143.91" y2="483"/>
		<line class="st1" x1="183.27" y1="153.58" x2="189.52" y2="101.45"/>
		<line class="st1" x1="189.52" y1="101.45" x2="194.27" y2="61.95"/>
		<line class="st1" x1="201.63" y1="0" x2="200.12" y2="13.03"/>
		<line class="st1" x1="143.91" y1="483" x2="161.07" y2="340.04"/>
		<line class="st1" x1="380.26" y1="229.77" x2="352.61" y2="153.58"/>
		<line class="st1" x1="420.32" y1="340.04" x2="380.26" y2="229.77"/>
		<line class="st1" x1="301.54" y1="13.03" x2="308.81" y2="33.18"/>
		<line class="st1" x1="420.32" y1="340.04" x2="455.14" y2="435.88"/>
		<line class="st1" x1="319.3" y1="61.95" x2="308.81" y2="33.18"/>
		<line class="st1" x1="296.8" y1="0" x2="301.54" y2="13.03"/>
		<line class="st1" x1="352.61" y1="153.58" x2="333.64" y2="101.45"/>
		<line class="st1" x1="319.3" y1="61.95" x2="333.64" y2="101.45"/>
		<line class="st1" x1="439.4" y1="0" x2="453.63" y2="13.03"/>
		<line class="st1" x1="455.14" y1="14.44" x2="453.63" y2="13.03"/>
		<line class="st1" x1="143.91" y1="483" x2="0" y2="483"/>
		<line class="st1" x1="143.91" y1="483" x2="308.1" y2="483"/>
		<line class="st1" x1="308.1" y1="483" x2="455.14" y2="483"/>
		<line class="st1" x1="0" y1="340.04" x2="31.39" y2="340.04"/>
		<line class="st1" x1="420.32" y1="340.04" x2="455.14" y2="340.04"/>
		<line class="st1" x1="290.64" y1="340.04" x2="420.32" y2="340.04"/>
		<line class="st1" x1="161.07" y1="340.04" x2="290.64" y2="340.04"/>
		<line class="st1" x1="31.39" y1="340.04" x2="161.07" y2="340.04"/>
		<line class="st1" x1="71.15" y1="229.77" x2="174.18" y2="229.77"/>
		<line class="st1" x1="380.26" y1="229.77" x2="455.14" y2="229.77"/>
		<line class="st1" x1="174.18" y1="229.77" x2="277.22" y2="229.77"/>
		<line class="st1" x1="0" y1="229.77" x2="71.15" y2="229.77"/>
		<line class="st1" x1="277.22" y1="229.77" x2="380.26" y2="229.77"/>
		<line class="st1" x1="437.28" y1="153.58" x2="455.14" y2="153.58"/>
		<line class="st1" x1="14.03" y1="153.58" x2="0" y2="153.58"/>
		<line class="st1" x1="183.27" y1="153.58" x2="267.94" y2="153.58"/>
		<line class="st1" x1="14.03" y1="153.58" x2="98.6" y2="153.58"/>
		<line class="st1" x1="352.61" y1="153.58" x2="437.28" y2="153.58"/>
		<line class="st1" x1="267.94" y1="153.58" x2="352.61" y2="153.58"/>
		<line class="st1" x1="98.6" y1="153.58" x2="183.27" y2="153.58"/>
		<line class="st1" x1="117.57" y1="101.45" x2="189.52" y2="101.45"/>
		<line class="st1" x1="189.52" y1="101.45" x2="261.58" y2="101.45"/>
		<line class="st1" x1="45.41" y1="101.45" x2="117.57" y2="101.45"/>
		<line class="st1" x1="0" y1="101.45" x2="45.41" y2="101.45"/>
		<line class="st1" x1="405.69" y1="101.45" x2="455.14" y2="101.45"/>
		<line class="st1" x1="261.58" y1="101.45" x2="333.64" y2="101.45"/>
		<line class="st1" x1="333.64" y1="101.45" x2="405.69" y2="101.45"/>
		<line class="st1" x1="381.77" y1="61.95" x2="444.34" y2="61.95"/>
		<line class="st1" x1="319.3" y1="61.95" x2="381.77" y2="61.95"/>
		<line class="st1" x1="455.14" y1="61.95" x2="444.34" y2="61.95"/>
		<line class="st1" x1="0" y1="61.95" x2="6.66" y2="61.95"/>
		<line class="st1" x1="194.27" y1="61.95" x2="256.84" y2="61.95"/>
		<line class="st1" x1="69.33" y1="61.95" x2="131.8" y2="61.95"/>
		<line class="st1" x1="131.8" y1="61.95" x2="194.27" y2="61.95"/>
		<line class="st1" x1="256.84" y1="61.95" x2="319.3" y2="61.95"/>
		<line class="st1" x1="6.66" y1="61.95" x2="69.33" y2="61.95"/>
		<line class="st1" x1="253.3" y1="33.18" x2="197.7" y2="33.18"/>
		<line class="st1" x1="142.09" y1="33.18" x2="86.59" y2="33.18"/>
		<line class="st1" x1="86.59" y1="33.18" x2="31.08" y2="33.18"/>
		<line class="st1" x1="197.7" y1="33.18" x2="142.09" y2="33.18"/>
		<line class="st1" x1="0" y1="33.18" x2="31.08" y2="33.18"/>
		<line class="st1" x1="308.81" y1="33.18" x2="253.3" y2="33.18"/>
		<line class="st1" x1="364.42" y1="33.18" x2="308.81" y2="33.18"/>
		<line class="st1" x1="419.92" y1="33.18" x2="364.42" y2="33.18"/>
		<line class="st1" x1="455.14" y1="33.18" x2="419.92" y2="33.18"/>
		<line class="st1" x1="352.2" y1="13.03" x2="301.54" y2="13.03"/>
		<line class="st1" x1="455.14" y1="13.03" x2="453.63" y2="13.03"/>
		<line class="st1" x1="402.86" y1="13.03" x2="352.2" y2="13.03"/>
		<line class="st1" x1="453.63" y1="13.03" x2="402.86" y2="13.03"/>
		<line class="st1" x1="98.7" y1="13.03" x2="48.04" y2="13.03"/>
		<line class="st1" x1="301.54" y1="13.03" x2="250.88" y2="13.03"/>
		<line class="st1" x1="149.36" y1="13.03" x2="98.7" y2="13.03"/>
		<line class="st1" x1="48.04" y1="13.03" x2="0" y2="13.03"/>
		<line class="st1" x1="250.88" y1="13.03" x2="200.12" y2="13.03"/>
		<line class="st1" x1="200.12" y1="13.03" x2="149.36" y2="13.03"/>
		<line class="st1" x1="59.04" y1="0" x2="11.5" y2="0"/>
		<line class="st1" x1="201.63" y1="0" x2="154.1" y2="0"/>
		<line class="st1" x1="11.5" y1="0" x2="0" y2="0"/>
		<line class="st1" x1="154.1" y1="0" x2="106.57" y2="0"/>
		<line class="st1" x1="106.57" y1="0" x2="59.04" y2="0"/>
		<line class="st1" x1="439.4" y1="0" x2="391.86" y2="0"/>
		<line class="st1" x1="391.86" y1="0" x2="344.33" y2="0"/>
		<line class="st1" x1="455.14" y1="0" x2="439.4" y2="0"/>
		<line class="st1" x1="296.8" y1="0" x2="249.17" y2="0"/>
		<line class="st1" x1="249.17" y1="0" x2="201.63" y2="0"/>
		<line class="st1" x1="344.33" y1="0" x2="296.8" y2="0"/>
	</g>
</g>
</svg>
