<svg width="256" height="256" viewBox="0 0 256 256" fill="none" xmlns="http://www.w3.org/2000/svg">
<path d="M46.1762 107.859C46.1762 73.1911 67.1981 39.6582 103.223 39.6582C138.899 39.6582 159.921 73.1911 159.921 107.859C159.921 140.344 142.476 176.06 103.223 176.06C63.6217 176.06 46.1762 140.344 46.1762 107.859ZM10.5 107.859C10.5 159.992 48.2696 203.218 103.223 203.218C157.828 203.218 195.597 159.992 195.597 107.859C195.597 52.495 158.526 12.5 103.223 12.5C47.5718 12.5 10.5 52.495 10.5 107.859Z" fill="#000066"/>
<path d="M245.492 243.999V231.337H212.607C225.779 218.413 242.963 202.695 242.963 185.579C242.963 169.773 233.019 162.001 217.666 162.001C209.467 162.001 201.093 164.097 193.766 167.764L195.074 181.125C200.395 177.632 206.85 174.663 213.654 174.663C220.196 174.663 226.825 178.156 226.825 185.491C226.825 200.249 199.436 223.129 192.021 230.464V243.999H245.492Z" fill="#000066"/>
</svg>
