<svg width="512" height="512" viewBox="0 0 512 512" fill="none" xmlns="http://www.w3.org/2000/svg">
<path d="M92.3523 215.718C92.3523 146.382 134.396 79.3163 206.446 79.3163C277.799 79.3163 319.842 146.382 319.842 215.718C319.842 280.688 284.951 352.12 206.446 352.12C127.243 352.12 92.3523 280.688 92.3523 215.718ZM21 215.718C21 319.985 96.5393 406.437 206.446 406.437C315.656 406.437 391.195 319.985 391.195 215.718C391.195 104.99 317.051 25 206.446 25C95.1436 25 21 104.99 21 215.718Z" fill="white"/>
<path d="M490.986 487.999V462.674H425.216C451.559 436.826 485.927 405.389 485.927 371.158C485.927 339.546 466.039 324.002 435.335 324.002C418.936 324.002 402.188 328.194 387.534 335.529L390.151 362.25C400.793 355.264 413.702 349.326 427.31 349.326C440.394 349.326 453.653 356.312 453.653 370.983C453.653 400.499 398.874 446.257 384.045 460.928V487.999H490.986Z" fill="white"/>
</svg>
