<svg width="256" height="256" viewBox="0 0 256 256" fill="none" xmlns="http://www.w3.org/2000/svg">
<g clip-path="url(#clip0_245_2471)">
<path d="M43.4562 171.862H28V186.281H43.4562V171.862Z" fill="#666666"/>
<path d="M227.857 172.113H212.401V186.531H227.857V172.113Z" fill="#666666"/>
<path d="M33.6887 163.49H28.4651V131.934H46.8551C51.2916 131.934 53.9749 132.721 56.0858 134.617C58.0179 136.406 59.127 138.982 59.127 141.773C59.127 143.776 58.5545 145.816 57.517 147.318C54.8336 151.254 50.1109 151.254 47.2844 151.254H33.6887V163.49ZM33.6529 146.603H46.712C48.2862 146.603 50.254 146.603 51.6493 145.601C52.9016 144.778 53.6171 143.239 53.6171 141.522C53.6171 140.127 53.2236 139.018 52.4007 138.159C50.8264 136.549 48.2862 136.549 46.2468 136.549H33.6529V146.603Z" fill="#666666"/>
<path d="M80.5582 164.313C75.4777 164.313 71.3274 163.132 68.2147 160.842C65.424 158.803 62.0967 154.939 62.0967 148.105C62.0967 136.406 71.2201 131.182 80.272 131.182C91.2917 131.254 98.6978 138.052 98.6978 148.105C98.662 159.304 89.5743 164.313 80.5582 164.313ZM80.3435 135.905C80.1647 135.905 79.9858 135.905 79.8069 135.905C73.7246 136.084 67.213 139.304 67.213 147.855C67.213 149.572 67.535 152.828 69.6817 155.333C72.0072 158.159 75.6566 159.59 80.5582 159.59C92.5797 159.59 93.5099 150.538 93.5099 147.748C93.5099 140.52 88.3579 135.905 80.3435 135.905Z" fill="#666666"/>
<path d="M138.018 163.49H131.292L121.381 151.29H107.964V163.49H102.812V131.934H123.242C125.889 131.969 129.145 132.041 131.793 134.545C132.83 135.476 134.583 137.622 134.583 141.451C134.583 148.32 129.646 149.894 127.106 150.431L138.018 163.49ZM107.929 146.71H121.918C123.993 146.71 126.819 146.71 128.358 144.563C128.966 143.776 129.252 142.774 129.252 141.594C129.252 140.485 128.966 139.411 128.465 138.624C127.285 136.692 125.424 136.656 123.635 136.621H123.528H107.929V146.71Z" fill="#666666"/>
<path d="M155.549 163.49H150.397V136.549H138.447V131.934H167.535V136.549H155.549V163.49Z" fill="#666666"/>
<path d="M199.664 163.49H193.796L181.381 138.767L169.288 163.49H163.528L179.163 131.934H184.172L199.664 163.49Z" fill="#666666"/>
<path d="M227.821 163.49H203.241V131.934H208.358V158.767H227.785V163.49H227.821Z" fill="#666666"/>
<path fill-rule="evenodd" clip-rule="evenodd" d="M197.553 112.757C195.692 109 193.581 105.386 191.256 102.059C192.293 100.127 192.83 98.0161 192.83 95.7263C192.83 88.4991 187.141 82.6673 180.236 82.6673C177.982 82.6673 175.907 83.2397 174.011 84.3846C160.665 74.2952 144.959 69 128.537 69C99.4847 69 72.7584 86.3524 59.5921 112.9H28.5724V122.238H65.4597V121.987L65.6386 121.558C76.372 95.3327 101.059 78.4097 128.465 78.4097C142.848 78.4097 156.587 82.9893 168.25 91.6834C167.821 93.0072 167.606 94.4025 167.606 95.7979C167.606 102.953 173.224 108.785 180.129 108.785C181.417 108.785 182.776 108.535 184.064 108.106C187.105 112.506 189.574 117.014 191.47 121.594L191.649 121.987H191.721V122.309H228V112.721H197.553V112.757ZM180.2 102.631C176.479 102.631 173.438 99.483 173.438 95.619C173.438 91.7549 176.479 88.6064 180.2 88.6064C183.957 88.6064 186.998 91.7549 186.998 95.619C186.998 99.483 183.957 102.631 180.2 102.631Z" fill="#666666"/>
<path d="M51.7925 172.113H53.5814V185.136H60.9875V186.424H51.7925V172.113Z" fill="#666666"/>
<path d="M89.6458 171.862C94.6906 171.862 99.1271 175.047 99.1271 179.268C99.1271 183.49 94.6548 186.674 89.6458 186.674C84.5653 186.674 80.2004 183.383 80.2004 179.34C80.1646 174.832 84.8516 171.862 89.6458 171.862ZM89.6458 185.386C93.7961 185.386 97.3381 182.703 97.3381 179.304C97.3381 175.941 93.8677 173.186 89.6458 173.186C85.6029 173.186 81.9893 175.834 81.9893 179.376C81.9535 182.596 85.4598 185.386 89.6458 185.386Z" fill="#666666"/>
<path d="M120.129 172.113H122.884L129.395 184.313L135.907 172.113H138.662V186.424H136.873V173.651H136.837L130.147 186.424H128.608L121.953 173.651H121.918V186.424H120.129V172.113V172.113Z" fill="#666666"/>
<path d="M166.605 172.113H168.608L176.301 186.424H174.333L171.757 181.594H163.42L160.809 186.424H158.948L166.605 172.113ZM164.1 180.306H171.041L167.606 173.723L164.1 180.306Z" fill="#666666"/>
<path d="M197.016 182.417C197.123 184.206 198.555 185.386 200.737 185.386C202.633 185.386 204.351 184.206 204.351 182.524C204.351 180.306 201.56 179.769 200.343 179.483C198.733 179.089 195.692 178.553 195.692 175.726C195.692 173.472 197.875 171.862 200.701 171.862C203.635 171.862 205.674 173.651 205.674 175.762H203.886C203.886 174.295 202.419 173.186 200.701 173.186C198.662 173.186 197.445 174.438 197.445 175.691C197.445 177.444 199.377 177.837 201.703 178.374C206.068 179.304 206.068 182.023 206.068 182.488V182.524C206.068 184.707 203.85 186.71 200.665 186.71C198.34 186.71 195.227 185.601 195.156 182.453H197.016V182.417Z" fill="#666666"/>
</g>
<defs>
<clipPath id="clip0_245_2471">
<rect width="256" height="256" fill="white"/>
</clipPath>
</defs>
</svg>
