<?xml version="1.0" encoding="utf-8"?>
<!-- Generator: Adobe Illustrator 24.1.0, SVG Export Plug-In . SVG Version: 6.00 Build 0)  -->
<svg version="1.1" id="Capa_1" xmlns="http://www.w3.org/2000/svg" xmlns:xlink="http://www.w3.org/1999/xlink" x="0px" y="0px"
	 viewBox="0 0 451 565" style="enable-background:new 0 0 451 565;" xml:space="preserve">
<style type="text/css">
	.st0{opacity:0.4;clip-path:url(#SVGID_2_);}
	.st1{fill:none;stroke:#084D7E;stroke-width:0.25;stroke-miterlimit:10;}
</style>
<g>
	<g>
		<g>
			<defs>
				<rect id="SVGID_1_" width="451" height="565"/>
			</defs>
			<clipPath id="SVGID_2_">
				<use xlink:href="#SVGID_1_"  style="overflow:visible;"/>
			</clipPath>
			<g class="st0">
				<line class="st1" x1="11.5" y1="0" x2="0" y2="10.6"/>
				<line class="st1" x1="48" y1="13" x2="31.1" y2="33.2"/>
				<line class="st1" x1="59" y1="0" x2="48" y2="13"/>
				<line class="st1" x1="31.1" y1="33.2" x2="6.7" y2="62"/>
				<line class="st1" x1="0" y1="70" x2="6.7" y2="62"/>
				<line class="st1" x1="0" y1="176.9" x2="14" y2="153.6"/>
				<line class="st1" x1="106.6" y1="0" x2="98.7" y2="13"/>
				<line class="st1" x1="69.3" y1="62" x2="86.6" y2="33.2"/>
				<line class="st1" x1="98.7" y1="13" x2="86.6" y2="33.2"/>
				<line class="st1" x1="45.4" y1="101.4" x2="69.3" y2="62"/>
				<line class="st1" x1="14" y1="153.6" x2="45.4" y2="101.4"/>
				<line class="st1" x1="318.1" y1="565" x2="308.1" y2="483"/>
				<line class="st1" x1="249.2" y1="0" x2="250.9" y2="13"/>
				<line class="st1" x1="261.6" y1="101.4" x2="256.8" y2="62"/>
				<line class="st1" x1="308.1" y1="483" x2="290.6" y2="340"/>
				<line class="st1" x1="256.8" y1="62" x2="253.3" y2="33.2"/>
				<line class="st1" x1="250.9" y1="13" x2="253.3" y2="33.2"/>
				<line class="st1" x1="261.6" y1="101.4" x2="267.9" y2="153.6"/>
				<line class="st1" x1="277.2" y1="229.8" x2="267.9" y2="153.6"/>
				<line class="st1" x1="290.6" y1="340" x2="277.2" y2="229.8"/>
				<line class="st1" x1="437.3" y1="153.6" x2="455.1" y2="183.2"/>
				<line class="st1" x1="437.3" y1="153.6" x2="405.7" y2="101.4"/>
				<line class="st1" x1="352.2" y1="13" x2="364.4" y2="33.2"/>
				<line class="st1" x1="405.7" y1="101.4" x2="381.8" y2="62"/>
				<line class="st1" x1="364.4" y1="33.2" x2="381.8" y2="62"/>
				<line class="st1" x1="344.3" y1="0" x2="352.2" y2="13"/>
				<line class="st1" x1="391.9" y1="0" x2="402.9" y2="13"/>
				<line class="st1" x1="444.3" y1="62" x2="455.1" y2="74.8"/>
				<line class="st1" x1="419.9" y1="33.2" x2="444.3" y2="62"/>
				<line class="st1" x1="402.9" y1="13" x2="419.9" y2="33.2"/>
				<line class="st1" x1="0" y1="426.8" x2="31.4" y2="340"/>
				<line class="st1" x1="98.6" y1="153.6" x2="117.6" y2="101.4"/>
				<line class="st1" x1="71.2" y1="229.8" x2="31.4" y2="340"/>
				<line class="st1" x1="149.4" y1="13" x2="142.1" y2="33.2"/>
				<line class="st1" x1="117.6" y1="101.4" x2="131.8" y2="62"/>
				<line class="st1" x1="154.1" y1="0" x2="149.4" y2="13"/>
				<line class="st1" x1="131.8" y1="62" x2="142.1" y2="33.2"/>
				<line class="st1" x1="71.2" y1="229.8" x2="98.6" y2="153.6"/>
				<line class="st1" x1="194.3" y1="62" x2="197.7" y2="33.2"/>
				<line class="st1" x1="183.3" y1="153.6" x2="174.2" y2="229.8"/>
				<line class="st1" x1="161.1" y1="340" x2="174.2" y2="229.8"/>
				<line class="st1" x1="200.1" y1="13" x2="197.7" y2="33.2"/>
				<line class="st1" x1="134.1" y1="565" x2="143.9" y2="483"/>
				<line class="st1" x1="183.3" y1="153.6" x2="189.5" y2="101.4"/>
				<line class="st1" x1="189.5" y1="101.4" x2="194.3" y2="62"/>
				<line class="st1" x1="201.6" y1="0" x2="200.1" y2="13"/>
				<line class="st1" x1="143.9" y1="483" x2="161.1" y2="340"/>
				<line class="st1" x1="380.3" y1="229.8" x2="352.6" y2="153.6"/>
				<line class="st1" x1="420.3" y1="340" x2="380.3" y2="229.8"/>
				<line class="st1" x1="301.5" y1="13" x2="308.8" y2="33.2"/>
				<line class="st1" x1="420.3" y1="340" x2="455.1" y2="435.9"/>
				<line class="st1" x1="319.3" y1="62" x2="308.8" y2="33.2"/>
				<line class="st1" x1="296.8" y1="0" x2="301.5" y2="13"/>
				<line class="st1" x1="352.6" y1="153.6" x2="333.6" y2="101.4"/>
				<line class="st1" x1="319.3" y1="62" x2="333.6" y2="101.4"/>
				<line class="st1" x1="439.4" y1="0" x2="453.6" y2="13"/>
				<line class="st1" x1="143.9" y1="483" x2="0" y2="483"/>
				<line class="st1" x1="143.9" y1="483" x2="308.1" y2="483"/>
				<line class="st1" x1="308.1" y1="483" x2="455.1" y2="483"/>
				<line class="st1" x1="0" y1="340" x2="31.4" y2="340"/>
				<line class="st1" x1="420.3" y1="340" x2="455.1" y2="340"/>
				<line class="st1" x1="290.6" y1="340" x2="420.3" y2="340"/>
				<line class="st1" x1="161.1" y1="340" x2="290.6" y2="340"/>
				<line class="st1" x1="31.4" y1="340" x2="161.1" y2="340"/>
				<line class="st1" x1="71.2" y1="229.8" x2="174.2" y2="229.8"/>
				<line class="st1" x1="380.3" y1="229.8" x2="455.1" y2="229.8"/>
				<line class="st1" x1="174.2" y1="229.8" x2="277.2" y2="229.8"/>
				<line class="st1" x1="0" y1="229.8" x2="71.2" y2="229.8"/>
				<line class="st1" x1="277.2" y1="229.8" x2="380.3" y2="229.8"/>
				<line class="st1" x1="437.3" y1="153.6" x2="455.1" y2="153.6"/>
				<line class="st1" x1="14" y1="153.6" x2="0" y2="153.6"/>
				<line class="st1" x1="183.3" y1="153.6" x2="267.9" y2="153.6"/>
				<line class="st1" x1="14" y1="153.6" x2="98.6" y2="153.6"/>
				<line class="st1" x1="352.6" y1="153.6" x2="437.3" y2="153.6"/>
				<line class="st1" x1="267.9" y1="153.6" x2="352.6" y2="153.6"/>
				<line class="st1" x1="98.6" y1="153.6" x2="183.3" y2="153.6"/>
				<line class="st1" x1="117.6" y1="101.4" x2="189.5" y2="101.4"/>
				<line class="st1" x1="189.5" y1="101.4" x2="261.6" y2="101.4"/>
				<line class="st1" x1="45.4" y1="101.4" x2="117.6" y2="101.4"/>
				<line class="st1" x1="0" y1="101.4" x2="45.4" y2="101.4"/>
				<line class="st1" x1="405.7" y1="101.4" x2="455.1" y2="101.4"/>
				<line class="st1" x1="261.6" y1="101.4" x2="333.6" y2="101.4"/>
				<line class="st1" x1="333.6" y1="101.4" x2="405.7" y2="101.4"/>
				<line class="st1" x1="381.8" y1="62" x2="444.3" y2="62"/>
				<line class="st1" x1="319.3" y1="62" x2="381.8" y2="62"/>
				<line class="st1" x1="455.1" y1="62" x2="444.3" y2="62"/>
				<line class="st1" x1="0" y1="62" x2="6.7" y2="62"/>
				<line class="st1" x1="194.3" y1="62" x2="256.8" y2="62"/>
				<line class="st1" x1="69.3" y1="62" x2="131.8" y2="62"/>
				<line class="st1" x1="131.8" y1="62" x2="194.3" y2="62"/>
				<line class="st1" x1="256.8" y1="62" x2="319.3" y2="62"/>
				<line class="st1" x1="6.7" y1="62" x2="69.3" y2="62"/>
				<line class="st1" x1="253.3" y1="33.2" x2="197.7" y2="33.2"/>
				<line class="st1" x1="142.1" y1="33.2" x2="86.6" y2="33.2"/>
				<line class="st1" x1="86.6" y1="33.2" x2="31.1" y2="33.2"/>
				<line class="st1" x1="197.7" y1="33.2" x2="142.1" y2="33.2"/>
				<line class="st1" x1="0" y1="33.2" x2="31.1" y2="33.2"/>
				<line class="st1" x1="308.8" y1="33.2" x2="253.3" y2="33.2"/>
				<line class="st1" x1="364.4" y1="33.2" x2="308.8" y2="33.2"/>
				<line class="st1" x1="419.9" y1="33.2" x2="364.4" y2="33.2"/>
				<line class="st1" x1="455.1" y1="33.2" x2="419.9" y2="33.2"/>
				<line class="st1" x1="352.2" y1="13" x2="301.5" y2="13"/>
				<line class="st1" x1="402.9" y1="13" x2="352.2" y2="13"/>
				<line class="st1" x1="453.6" y1="13" x2="402.9" y2="13"/>
				<line class="st1" x1="98.7" y1="13" x2="48" y2="13"/>
				<line class="st1" x1="301.5" y1="13" x2="250.9" y2="13"/>
				<line class="st1" x1="149.4" y1="13" x2="98.7" y2="13"/>
				<line class="st1" x1="48" y1="13" x2="0" y2="13"/>
				<line class="st1" x1="250.9" y1="13" x2="200.1" y2="13"/>
				<line class="st1" x1="200.1" y1="13" x2="149.4" y2="13"/>
				<line class="st1" x1="59" y1="0" x2="11.5" y2="0"/>
				<line class="st1" x1="201.6" y1="0" x2="154.1" y2="0"/>
				<line class="st1" x1="11.5" y1="0" x2="0" y2="0"/>
				<line class="st1" x1="154.1" y1="0" x2="106.6" y2="0"/>
				<line class="st1" x1="106.6" y1="0" x2="59" y2="0"/>
				<line class="st1" x1="439.4" y1="0" x2="391.9" y2="0"/>
				<line class="st1" x1="391.9" y1="0" x2="344.3" y2="0"/>
				<line class="st1" x1="455.1" y1="0" x2="439.4" y2="0"/>
				<line class="st1" x1="296.8" y1="0" x2="249.2" y2="0"/>
				<line class="st1" x1="249.2" y1="0" x2="201.6" y2="0"/>
				<line class="st1" x1="344.3" y1="0" x2="296.8" y2="0"/>
			</g>
		</g>
	</g>
</g>
</svg>
