<svg width="512" height="256" viewBox="0 0 512 256" fill="none" xmlns="http://www.w3.org/2000/svg">
<path d="M188.89 85.6392H337.569C338.477 78.9774 342.716 65.9566 355.132 55.0555C355.737 54.4499 355.737 52.633 354.526 51.7246C353.617 50.8162 352.103 51.119 351.195 52.0274C347.561 54.7527 344.533 56.2667 342.111 56.5695C339.688 56.5695 338.174 57.478 336.66 59.2948L334.238 61.4145C333.329 62.0201 332.724 62.6257 329.696 62.9285C328.787 62.9285 327.273 64.4426 327.879 65.351C329.09 66.865 330.301 68.3791 330.604 70.1959C331.512 73.224 330.907 77.4633 327.576 80.7942C326.365 82.3083 324.851 82.6111 322.731 82.6111C321.52 82.3083 320.611 82.0055 320.611 80.7942C320.611 79.583 321.217 78.3718 322.428 77.7661C324.548 75.9493 324.548 72.6184 322.125 70.8016C320.611 69.8931 318.794 69.5903 316.978 70.1959C313.647 71.71 313.647 75.0409 315.464 77.4633C315.766 78.069 315.464 79.2802 314.858 80.4914C313.95 82.0055 312.133 82.9139 310.619 82.3083C307.893 80.7942 305.471 75.9493 306.682 72.9212C308.196 70.8015 309.71 68.6819 311.527 66.865C309.71 63.8369 306.985 61.1117 303.957 59.5976C300.626 61.1117 297.901 63.5341 296.084 66.865C297.901 68.6819 299.415 70.8015 300.02 72.9212C300.626 75.6465 300.323 78.6746 298.203 81.3999C296.689 83.2167 294.267 83.5195 291.844 82.3083C290.028 81.3999 290.33 79.2802 291.239 77.4633C292.753 75.0409 292.45 72.9212 290.33 71.1044C288.514 69.8931 286.697 70.1959 285.183 71.1044C283.063 72.9212 283.366 75.0409 284.88 77.4633C285.485 78.069 284.88 79.2802 284.577 80.1886C283.366 83.5195 280.641 83.8223 277.612 82.0055C272.465 77.1605 272.768 72.0128 278.824 66.865C280.338 65.6538 279.429 63.5341 277.007 62.9285C272.768 62.3229 268.831 60.2032 266.409 56.5695C263.986 51.4218 260.655 51.4218 258.233 56.5695C256.416 60.2032 251.874 62.3229 247.937 62.9285C245.515 63.5341 244.909 65.6538 246.12 66.5622C252.177 71.71 252.177 78.3718 247.332 82.0055C244.909 83.5195 242.184 83.2167 240.367 80.1886C239.761 79.2802 239.761 78.3718 240.064 77.4633C241.881 75.0409 241.881 72.6184 239.761 71.1044C237.945 70.1959 236.43 69.8931 234.614 71.1044C232.797 72.9212 232.494 75.0409 234.008 77.4633C234.916 78.6746 234.614 80.7942 233.402 82.0055C231.888 83.5195 229.466 82.9139 227.043 81.3999C224.924 78.9774 224.621 75.0409 225.227 72.9212C225.832 70.4987 227.346 68.6819 228.86 66.5622C227.043 63.8369 224.621 61.1117 221.29 59.2948C218.262 61.1117 215.537 63.5341 213.417 66.5622C215.234 68.3791 217.051 70.4987 218.262 72.9212C219.473 75.6465 217.656 80.4914 214.325 82.0055C212.509 82.6111 210.692 82.0055 210.086 80.1886C209.481 79.2802 209.48 78.069 209.48 77.4633C211.6 74.7381 210.692 71.71 207.966 70.1959C206.15 69.5903 204.333 69.2875 202.819 70.4987C200.699 72.3156 200.093 75.6465 202.516 77.4633C203.727 78.069 204.333 79.2802 204.333 80.1886C204.03 82.0055 203.122 82.0055 201.91 82.3083C200.093 82.6111 198.882 81.7027 197.368 80.4914C193.734 77.1605 193.432 73.5268 194.037 69.5903C194.643 67.7735 195.854 66.5622 197.065 65.0482C197.671 64.1398 196.46 62.9285 195.248 62.6257C192.22 62.0201 191.312 61.7173 191.009 61.1117L188.587 58.6892C187.073 57.1752 185.256 56.2667 183.136 56.2667C180.714 55.9639 177.383 54.4499 174.052 51.7246C173.143 51.119 171.629 50.8162 171.024 51.4218C170.115 52.3302 169.51 53.8443 170.115 54.4499C183.439 65.9566 187.678 78.9774 188.89 85.6392Z" fill="white"/>
<path d="M182.23 49.6045C186.167 50.8157 190.103 52.0269 193.131 53.8438C194.948 54.7522 197.674 54.4494 199.793 52.6326C208.575 45.3651 218.87 39.6118 230.982 35.9781C233.405 35.3725 234.616 36.8865 233.405 37.7949C228.56 41.4286 224.926 46.2736 223.109 52.3297C222.504 54.1466 224.623 55.3578 227.046 54.7522C229.166 54.1466 230.68 54.1466 232.194 55.055C234.011 55.9634 236.13 55.055 236.433 52.3297C237.644 44.1539 241.884 39.309 249.151 35.6753C253.088 33.8584 255.51 37.4921 253.996 39.309C251.271 42.0342 249.454 45.0623 248.848 48.3932C248.545 51.1185 250.665 52.3297 253.088 51.7241C254.904 51.1185 255.813 49.9073 257.024 47.4848C258.235 44.7595 260.658 43.5483 263.383 43.5483C265.805 43.5483 268.531 45.0623 269.439 47.4848C270.348 50.2101 271.559 51.1185 273.073 51.7241C275.798 52.3297 278.221 51.1185 277.918 48.3932C277.312 45.0623 275.193 42.337 272.77 39.6118C270.953 37.4921 273.981 33.8584 277.312 35.3724C284.277 39.309 288.819 44.4567 290.03 52.6326C290.636 55.3578 292.755 56.5691 294.269 55.3578C295.784 54.7522 297.298 54.4494 299.417 55.055C302.143 55.9634 303.657 54.4494 303.354 52.6326C301.234 46.2736 297.903 41.7314 293.058 38.0977C291.544 36.8865 293.361 35.6753 295.178 36.2809C307.29 40.2174 317.586 45.9708 326.67 52.9354C328.487 54.7522 331.212 55.055 333.029 54.1466C336.36 52.3297 339.994 51.1185 343.93 49.9073C346.655 49.6045 347.867 47.182 346.655 44.7595C344.839 42.0342 341.81 39.9146 338.48 39.9146C336.966 40.2174 335.754 40.2174 334.846 38.7033C332.423 34.7668 328.487 33.5556 322.734 34.464C320.008 31.4359 316.375 30.5275 312.741 30.8303C309.107 27.1966 305.473 26.8938 301.234 27.4994C296.692 24.7741 292.755 23.5629 289.122 25.6826C283.368 23.5629 278.221 24.1685 274.284 26.8938C272.77 23.8657 270.953 21.7461 267.622 20.5348V16.5983H272.77V11.4506H267.622V6H263.383H258.538V11.4506H253.39V16.5983H258.538V20.5348C255.51 21.7461 253.087 23.8657 251.876 26.8938C247.637 24.1685 243.095 23.5629 237.341 25.6826C233.708 23.8657 229.468 24.7741 225.229 27.4994C220.99 26.8938 217.053 27.1966 213.722 30.8303C209.786 30.5275 206.152 31.4359 203.427 34.464C197.976 33.5556 193.737 35.0696 191.617 38.7033C190.709 40.2174 189.195 40.2174 187.681 39.9146C184.956 39.9146 181.322 42.0342 179.505 44.7595C178.597 46.8792 179.808 48.696 182.23 49.6045ZM263.08 22.9573C265.805 22.9573 268.228 25.6826 268.228 29.3163C268.228 32.95 266.108 35.9781 263.08 35.9781C260.355 35.9781 257.932 32.95 257.932 29.3163C257.932 25.6826 260.355 22.9573 263.08 22.9573Z" fill="white"/>
<path d="M337.556 95.9349H320.901H292.437H263.368H234.298H205.834H189.18V109.864H205.834H234.298H263.368H292.437H320.901H337.556V95.9349ZM205.531 107.139C203.109 107.139 201.595 105.322 201.595 103.202C201.595 101.083 203.412 99.2658 205.531 99.2658C207.651 99.2658 209.468 101.083 209.468 103.202C209.468 105.322 207.651 107.139 205.531 107.139ZM233.995 107.139C231.876 107.139 230.059 105.322 230.059 103.202C230.059 101.083 231.876 99.2658 233.995 99.2658C236.418 99.2658 237.932 101.083 237.932 103.202C237.932 105.322 236.418 107.139 233.995 107.139ZM263.065 107.139C260.945 107.139 259.129 105.322 259.129 103.202C259.129 101.083 260.945 99.2658 263.065 99.2658C265.185 99.2658 267.002 101.083 267.002 103.202C267.304 105.322 265.487 107.139 263.065 107.139ZM292.437 107.139C290.318 107.139 288.501 105.322 288.501 103.202C288.501 101.083 290.318 99.2658 292.437 99.2658C294.557 99.2658 296.374 101.083 296.374 103.202C296.374 105.322 294.557 107.139 292.437 107.139ZM320.901 107.139C318.479 107.139 316.965 105.322 316.965 103.202C316.965 101.083 318.782 99.2658 320.901 99.2658C323.021 99.2658 324.838 101.083 324.838 103.202C324.838 105.322 323.021 107.139 320.901 107.139Z" fill="white"/>
<path d="M337.568 88.9703H188.889V92.9068H337.568V88.9703Z" fill="white"/>
<path d="M145.582 200.1C144.977 201.312 144.068 202.523 144.068 202.523C161.328 204.34 171.018 211.304 175.257 214.938C176.771 216.452 177.377 217.361 177.377 217.361C188.278 205.248 205.841 203.129 205.841 203.129C203.116 201.615 201.905 197.678 201.905 196.77V152.862C201.905 150.44 205.235 147.715 205.235 147.715C194.637 146.503 178.286 139.539 174.955 138.025L174.652 137.722C164.053 146.806 147.096 147.715 147.096 147.715C146.793 149.531 149.821 153.165 149.821 153.165V195.558C149.821 195.558 148.913 196.164 145.582 200.1ZM167.687 150.137C167.687 149.531 171.624 151.045 175.257 152.559C179.194 154.376 182.828 155.588 182.828 155.588V199.798C179.8 199.192 177.074 198.284 175.257 197.981C168.898 196.164 167.687 194.347 167.687 194.347V150.137Z" fill="white"/>
<path d="M266.404 200.1C265.799 201.312 264.89 202.523 264.89 202.523C282.15 204.34 291.84 211.304 296.079 214.938C297.593 216.452 298.199 217.361 298.199 217.361C308.797 205.248 326.663 203.129 326.663 203.129C323.938 201.615 322.727 197.678 322.727 196.77V152.862C322.727 150.44 326.057 147.715 326.057 147.715C315.459 146.503 299.108 139.539 295.777 138.025L295.474 137.722C284.876 146.806 267.918 147.715 267.918 147.715C267.615 149.531 270.644 153.165 270.644 153.165V195.558C270.644 195.558 269.735 196.164 266.404 200.1ZM288.509 150.137C288.509 149.531 292.446 151.045 296.079 152.559C300.016 154.376 303.65 155.588 303.65 155.588V199.798C300.622 199.192 297.896 198.284 296.079 197.981C289.72 196.164 288.509 194.347 288.509 194.347V150.137Z" fill="white"/>
<path d="M461.715 201.312C456.87 200.706 455.356 196.467 455.356 194.953V151.954V147.109C444.152 143.475 432.948 139.539 429.315 138.327L428.103 137.722C415.385 145.292 401.456 147.715 401.456 147.715C401.153 149.531 404.181 153.165 404.181 153.165V197.678C404.181 197.678 403.576 198.284 402.365 200.1C401.759 200.706 400.851 201.917 400.548 202.22C412.963 203.734 426.589 214.938 429.012 216.755C429.315 216.755 429.617 217.058 429.617 217.058L440.518 204.945L452.934 217.058L467.468 202.22C467.771 202.523 466.56 202.22 461.715 201.312ZM436.279 200.1C434.16 198.284 431.737 197.072 429.315 195.861C425.378 193.741 422.35 192.53 422.35 192.53V150.137C422.956 150.743 425.984 151.954 429.315 152.862C432.948 154.376 436.279 155.588 436.279 155.588V200.1Z" fill="white"/>
<path d="M240.956 152.257C257.005 161.038 263.061 154.074 264.272 148.32C258.216 146.806 250.343 137.722 250.343 137.722L248.223 139.539C235.203 148.017 237.019 146.503 237.019 146.503C235.203 144.081 224.907 138.025 224.907 138.025L208.858 147.715C214.612 148.32 217.034 153.468 217.034 156.193V202.523H211.281C223.696 209.79 227.027 217.361 227.027 217.361C227.027 217.361 230.358 209.79 242.773 202.523H237.019V154.074C237.019 151.348 240.956 152.257 240.956 152.257Z" fill="white"/>
<path d="M391.757 153.771C391.757 153.771 394.785 148.32 393.574 147.715C387.215 144.989 375.102 137.722 375.102 137.722L372.983 139.539C359.962 148.017 356.934 146.806 356.934 146.806C355.117 144.081 344.821 138.327 344.821 138.327L329.378 148.017C335.132 148.623 337.554 153.771 337.554 156.496V202.826H331.801C344.216 210.093 347.547 217.663 347.547 217.663C347.547 217.663 350.878 210.093 363.596 202.826H357.539V155.588L366.018 150.743L372.377 155.588V202.22H366.624C379.039 209.488 381.764 217.058 381.764 217.058C381.764 217.058 385.095 209.488 397.51 202.22H391.757V153.771V153.771Z" fill="white"/>
<path d="M148.912 212.515C144.976 214.332 142.553 215.544 138.314 216.755V127.123C155.271 129.849 164.961 120.462 164.961 120.462C150.729 120.462 137.103 103.201 137.103 103.201C128.321 111.377 119.843 116.828 112.575 120.764C97.132 129.243 86.8365 129.243 86.8365 129.243C92.287 131.968 91.6814 138.63 91.6814 138.63V203.128L84.414 209.487C70.182 200.1 61.0977 185.263 59.8865 168.305C58.3725 142.264 78.3578 114.103 105.913 106.23C68.0623 105.927 31.1197 132.271 29 169.819V177.087V177.692C31.4225 212.213 57.1612 234.62 95.0123 234.62C101.068 234.62 107.125 234.015 112.575 232.804C119.54 230.987 126.504 228.867 132.561 225.536V235.226C131.652 234.923 130.441 234.62 129.533 234.62C124.688 234.62 121.054 238.254 121.054 242.494C121.054 246.733 124.99 250.064 129.533 250.064C134.377 250.064 138.011 246.733 138.011 242.494V222.508C142.25 219.783 144.976 217.058 148.609 213.424C149.518 212.818 149.821 212.213 150.426 211.607L148.912 212.515ZM132.863 218.269C129.835 218.874 126.504 219.177 123.174 219.177C119.54 219.48 115.906 219.48 112.575 219.177C105.308 218.572 98.3432 216.452 92.5898 213.727L112.575 196.164L117.723 191.622V121.976L120.448 120.159C124.99 122.884 128.927 124.398 132.863 125.609V218.269Z" fill="white"/>
<path d="M472.002 219.783H473.516C473.516 219.783 475.03 221.6 475.938 223.114H477.755C477.755 223.114 476.544 220.691 475.333 219.48C475.333 219.48 477.15 218.875 477.15 217.361C477.15 216.149 476.241 214.938 474.122 214.938H470.488V223.114H472.002V219.783ZM472.002 216.149H474.122C474.727 216.149 475.636 216.452 475.636 217.361C475.636 218.269 474.727 218.572 474.122 218.572C473.516 218.572 472.002 218.572 472.002 218.572V216.149Z" fill="white"/>
<path d="M466.254 219.178C466.254 223.417 469.888 227.051 474.127 227.051C478.366 227.051 482 223.417 482 219.178C482 214.939 478.366 211.305 474.127 211.305C469.585 211.305 466.254 214.939 466.254 219.178ZM473.824 212.819C477.155 212.819 480.183 215.544 480.183 219.178C480.183 222.812 477.458 225.537 473.824 225.537C470.191 225.537 467.465 222.812 467.465 219.178C467.465 215.544 470.493 212.819 473.824 212.819Z" fill="white"/>
</svg>
