<svg width="256" height="256" viewBox="0 0 256 256" fill="none" xmlns="http://www.w3.org/2000/svg">
<path d="M227.889 172.084H212.398V186.494H227.889V172.084Z" fill="#666666"/>
<path d="M43.4727 172.084H28V186.494H43.4727V172.084Z" fill="#666666"/>
<path fill-rule="evenodd" clip-rule="evenodd" d="M227.893 113.034V112.739H197.501C195.644 108.973 193.527 105.37 191.193 102.049C192.231 100.119 192.756 97.9872 192.756 95.7232C192.756 88.5324 187.087 82.6588 180.129 82.6588C177.88 82.6588 175.795 83.2319 173.881 84.364C160.529 74.3147 144.767 69 128.302 69C99.1881 69 72.3982 86.3254 59.1889 112.906H28.0829V122.243H65.076V121.98H65.0903L65.2652 121.564C76.0326 95.3565 100.755 78.4263 128.274 78.4263C142.682 78.4263 156.441 83.0006 168.123 91.6757C167.698 92.9893 167.473 94.374 167.473 95.7837C167.473 102.942 173.11 108.745 180.032 108.745C181.296 108.745 182.66 108.528 183.952 108.104C186.98 112.479 189.472 117.021 191.343 121.578L191.521 121.987H191.592V122.325H228V113.034H227.893V113.034ZM180.104 102.615C176.373 102.615 173.342 99.4752 173.342 95.5986C173.342 91.7398 176.373 88.5858 180.104 88.5858C183.849 88.5858 186.898 91.7362 186.898 95.5986C186.898 99.4752 183.849 102.615 180.104 102.615Z" fill="#666666"/>
<path fill-rule="evenodd" clip-rule="evenodd" d="M55.2587 179.438C55.2587 175.796 58.968 173.126 63.0986 173.126C67.4255 173.126 70.9635 175.963 70.9635 179.381C70.9635 182.859 67.3255 185.589 63.0986 185.589C58.8502 185.586 55.2587 182.773 55.2587 179.438ZM53.4272 179.438C53.4272 183.535 57.9005 186.91 63.1021 186.91C68.2109 186.91 72.7985 183.656 72.7985 179.356C72.7985 175.059 68.2502 171.806 63.1021 171.806C58.229 171.806 53.4272 174.846 53.4272 179.438Z" fill="#666666"/>
<path fill-rule="evenodd" clip-rule="evenodd" d="M95.7619 186.65H105.78V185.34H97.6005V179.951H105.515V178.626H97.6005V173.383H105.78V172.059H95.7619V186.65Z" fill="#666666"/>
<path fill-rule="evenodd" clip-rule="evenodd" d="M128.007 182.581C128.082 185.785 131.273 186.91 133.651 186.91C136.896 186.91 139.16 184.874 139.16 182.627V182.613C139.16 182.133 139.131 179.352 134.686 178.402C132.287 177.854 130.335 177.441 130.335 175.661C130.335 174.404 131.556 173.123 133.651 173.123C135.379 173.123 136.896 174.287 136.896 175.764H138.71C138.71 173.635 136.643 171.806 133.651 171.806C130.752 171.806 128.507 173.443 128.507 175.721C128.507 178.623 131.591 179.167 133.251 179.57C134.504 179.865 137.328 180.438 137.328 182.674C137.328 184.404 135.575 185.586 133.651 185.586C131.395 185.586 129.938 184.404 129.835 182.581H128.007V182.581Z" fill="#666666"/>
<path fill-rule="evenodd" clip-rule="evenodd" d="M164.299 186.65H166.137V173.383H170.314V172.059H160.097V173.383H164.299V186.65Z" fill="#666666"/>
<path fill-rule="evenodd" clip-rule="evenodd" d="M192.39 186.65H202.426V185.34H194.232V179.951H202.144V178.626H194.232V173.383H202.426V172.059H192.39V186.65Z" fill="#666666"/>
<path d="M33.2283 163.625H28.0017V132.093H46.4197C50.8645 132.093 53.5492 132.873 55.6984 134.759C57.6333 136.536 58.7472 139.159 58.7472 141.936C58.7472 143.94 58.1474 145.965 57.1085 147.496C54.3953 151.423 49.6614 151.423 46.8481 151.423H33.2283V163.625ZM33.1962 146.763H46.2734C47.8406 146.763 49.8077 146.763 51.2215 145.777C52.471 144.947 53.2172 143.431 53.2172 141.719C53.2172 140.313 52.8066 139.213 51.9819 138.333C50.4146 136.721 47.8585 136.721 45.8057 136.721H33.1962V146.763Z" fill="#666666"/>
<path d="M227.844 163.625H221.964L209.504 138.938L197.362 163.625H191.593L207.266 132.093H212.3L227.844 163.625Z" fill="#666666"/>
<path d="M93.3897 163.625H68.774V132.093H73.9292V158.916H93.3932V163.625H93.3897Z" fill="#666666"/>
<path d="M172.54 136.98H151.523V131.829H181.137V136.446L158.26 158.431H181.558V163.625H149.706V159.062L172.54 136.98Z" fill="#666666"/>
<path d="M139.67 163.625H133.786L121.327 138.938L109.192 163.625H103.423L119.103 132.093H124.126L139.67 163.625Z" fill="#666666"/>
</svg>
