<?xml version="1.0" encoding="utf-8"?>
<!-- Generator: Adobe Illustrator 21.1.0, SVG Export Plug-In . SVG Version: 6.00 Build 0)  -->
<svg version="1.1" id="Capa_1" xmlns="http://www.w3.org/2000/svg" xmlns:xlink="http://www.w3.org/1999/xlink" x="0px" y="0px"
	 viewBox="0 0 400 126" style="enable-background:new 0 0 400 126;" xml:space="preserve">
<style type="text/css">
	.st0{fill:#1D1D1B;}
	.st1{fill:#B90067;}
	.st2{fill:#BBBBBB;}
</style>
<g>
	<path class="st0" d="M144.4,100.2c-11.7-0.1-17.3-1.5-20.6-3.9c-3.3-2.4-5-6.4-5.1-12c-0.1-3.2,0.4-7.5,1.4-12.8l3.2-16.5
		c1.1-5.7,2.6-10.4,4.5-14.1c1.9-3.6,4.2-6.5,7-8.5c2.8-2,6.1-3.5,10-4.3c3.9-0.8,8.6-1.2,14.2-1.2c4.9,0,8.7,0.1,11.4,0.3
		c2.8,0.2,5.2,0.7,7.4,1.5c2.1,0.8,3.8,2.2,5,4.1c1.2,1.9,1.8,4.5,1.9,7.8c0,2-0.1,4.4-0.5,7l-0.8,3.9h-13.8l0.8-3.9
		c0.3-1.5,0.4-2.7,0.4-3.6c0-2.3-1-3.8-2.9-4.4c-1.9-0.6-5.6-0.9-11-0.9c-3.8,0-6.7,0.2-8.8,0.6c-2.1,0.4-3.8,1.2-5.1,2.3
		c-1.3,1.1-2.4,2.7-3.2,4.8c-0.8,2.1-1.6,5-2.4,8.7L134,70.9c-0.8,4.3-1.2,7.4-1.2,9.4c0.1,3.1,1.1,5.1,3.1,6.2
		c2,1.1,5.7,1.6,11,1.6c3.3,0,5-0.1,6.9-0.3c1.8-0.2,3.5-0.4,4.9-1c1.4-0.6,2.5-1.5,3.4-2.9c0.9-1.4,1.6-3.4,2.1-6l0.7-3.9h13.8
		l-0.9,4.7c-0.9,5-2.3,8.9-4.1,11.8c-1.8,2.9-3.9,5.2-6.5,6.5c-2.6,1.3-5.3,2.2-8.3,2.6c-3,0.4-7.1,0.8-12.8,0.7"/>
	<path class="st0" d="M250.6,99.9h-12.2l9.2-47c0.4-2.2,2.4-3.8,4.6-3.8h8.3L250.6,99.9z"/>
	<path class="st0" d="M309.5,83.3c-0.8,3.9-2,7-3.6,9.2c-1.5,2.3-3.5,4-5.7,5c-2.3,1.1-4.7,1.7-7.5,2c-2.7,0.3-6.2,0.4-10.5,0.4
		c-7.2,0-12.3-1-15.2-3c-2.9-2-4.4-5.4-4.4-10.3c0-3,0.6-7.2,1.7-12.6c1-5,2.2-9,3.4-12.2c1.2-3.2,2.9-5.8,4.9-7.8
		c2.1-2.1,4.7-3.6,8-4.6c3.3-1,7.5-1.5,12.6-1.5c7.5,0,12.7,0.9,15.6,2.8c2.9,1.8,4.4,5.2,4.4,10c0,3.4-0.7,8.6-2.2,15.5H276
		c-0.9,4.3-1.4,7.1-1.4,8.6c0,2.1,0.7,3.6,2,4.5c1.4,0.9,3.8,1.3,7.5,1.3c4.2,0,7.2-0.4,9.1-1.2c1.9-0.8,3.2-2.9,4-6.2H309.5z
		 M300.4,67.9c0.6-2.9,0.9-4.4,0.9-5.7c0-2.1-0.7-3.4-2-4c-1.4-0.6-4-0.9-7.9-0.9c-2.7,0-4.8,0.2-6.4,0.5c-1.5,0.3-2.8,0.9-3.6,1.7
		c-0.9,0.8-1.6,1.9-2.1,3.2c-0.5,1.4-1,2.6-1.5,5.2H300.4z"/>
	<path class="st0" d="M354.5,63.4c0.2-0.9,0.8-2.6,0.8-3.2c0-1.1-0.5-1.7-1.7-2.2c-1.2-0.4-3.5-0.6-6.8-0.7c-4-0.1-7,0.2-8.8,0.9
		c-1.9,0.7-3.2,1.5-3.9,4.5c-0.2,0.9-0.4,1.7-0.4,2.2c0,1.4,0.6,2.3,2,2.7c1.4,0.4,4.4,0.8,9.1,1l2.6,0.1c3.1,0.2,5.6,0.4,7.4,0.6
		c1.8,0.2,3.5,0.7,5,1.4c1.5,0.7,2.7,1.8,3.6,3.2c0.9,1.4,1.3,3.3,1.2,5.6c-0.1,1.7-0.4,3.6-0.9,5.7c-0.8,3.3-2.1,6-3.9,8
		c-1.7,2-3.8,3.5-6.2,4.5c-2.4,1-5,1.6-7.8,1.9c-2.8,0.3-6.1,0.4-9.9,0.3c-3.8-0.1-6.9-0.2-9.1-0.4c-2.2-0.2-4.2-0.6-5.9-1.3
		c-1.7-0.7-3.1-1.8-4-3.2c-0.9-1.5-1.3-3.5-1.3-5.9c0.1-1.8,0.6-3.6,1.2-6l12.3,0c-0.3,1.6-0.7,2.8-0.7,3.7c0,1.4,0.5,2.1,1.8,2.7
		c1.3,0.6,3.9,0.9,7.7,1c4.5,0.1,7.7-0.2,9.5-1c1.8-0.7,3.1-1.5,3.9-4.6c0.3-1.2,0.5-2.1,0.5-2.7c0.1-1.4-0.7-2.5-2.3-3.2
		c-1.6-0.7-4.6-1.1-9.2-1.2c-7.6-0.3-12.8-1-15.6-2.3c-2.8-1.3-4.1-3.6-4-7.2c0.1-1.7,0.5-4,1.2-6.8c0.8-3.4,2.1-6,3.7-8
		c1.6-2,3.6-3.4,5.9-4.2c2.3-0.8,4.7-1.4,7.3-1.5c2.6-0.2,5.9-0.2,10-0.2c3,0.1,5.5,0.2,7.5,0.4c2,0.2,3.9,0.6,5.8,1.3
		c1.8,0.7,3.3,1.8,4.3,3.2c1.1,1.5,1.5,3.4,1.5,5.8c0,1.3-0.7,3.4-1.1,4.9L354.5,63.4z"/>
	<path class="st0" d="M379.9,99.9h-12.2l9.2-46.8c0.5-2.3,2.5-4,4.8-4h8.1L379.9,99.9z"/>
	<path class="st0" d="M217.3,99.9h12l6.3-33c0.5-2.8,0.8-5.7,0.8-7.7c-0.1-3.7-2-6-4.3-7.7c-2.3-1.7-7.3-2.7-12.5-2.7
		c-4.2,0-9.8-0.4-15,2.8l4.9-24.8H202c-2.8,0-5.2,2-5.7,4.7l-13.4,68.5h12.2l7.2-36.8c1.9-7,15-5.2,17.1-5.1
		c4.5,0.2,5.1,4.1,4.9,5.7"/>
	<path class="st1" d="M109.4,63.1l-21-36.4l-9.1,15.8l7.3,12.7H67.3c2.5,2.2,4.1,5.1,4.1,8.4c0,3.2-1.5,6.1-3.9,8.2h19.2l-7.3,12.6
		l9.1,15.8l21-36.5C109.6,63.5,109.6,63.3,109.4,63.1"/>
	<path class="st2" d="M74.3,93.1L74.3,93.1l-34.3,0L22.8,63.4l17.2-29.7h34.3l0,0l9.1-15.8H35.8c-3.1,0-5.9,1.6-7.4,4.3L7.1,59.1
		c-1.5,2.7-1.5,5.9,0,8.6l21.4,37c1.5,2.6,4.3,4.2,7.3,4.2h47.6L74.3,93.1z"/>
	<path class="st1" d="M64.8,63.5c0,4.2-3.4,7.7-7.7,7.7c-4.2,0-7.7-3.4-7.7-7.7s3.4-7.7,7.7-7.7C61.4,55.8,64.8,59.2,64.8,63.5"/>
	<path d="M264.5,33.3c0.1,3.6-2.9,6.7-6.6,7.1c-3.7,0.4-6.8-2.2-6.9-5.8c-0.1-3.6,2.9-6.7,6.6-7.1C261.3,27.1,264.4,29.7,264.5,33.3
		"/>
	<path d="M394,33.2c0.1,3.6-2.9,6.7-6.6,7.1c-3.7,0.4-6.8-2.2-6.9-5.8c-0.1-3.6,2.9-6.7,6.6-7.1C390.8,27,393.9,29.6,394,33.2"/>
</g>
</svg>
