<?xml version="1.0" encoding="utf-8"?>
<!-- Generator: Adobe Illustrator 21.1.0, SVG Export Plug-In . SVG Version: 6.00 Build 0)  -->
<svg version="1.1" id="Capa_1" xmlns="http://www.w3.org/2000/svg" xmlns:xlink="http://www.w3.org/1999/xlink" x="0px" y="0px"
	 viewBox="0 0 348 122" style="enable-background:new 0 0 348 122;" xml:space="preserve">
<style type="text/css">
	.st0{fill:#1D1D1B;}
</style>
<path class="st0" d="M121.6,113.8c-0.8,0-1.2,0-1.2,0.1c0,0,0.6,0.1,1.8,0.1c2.1,0.1,5.3,0.4,7.2,0.4c0.2,0,0.4,0,0.5,0
	c0.5,0,0.8,0,0.8-0.1s-0.6-0.2-1.7-0.3c-1.7-0.2-4.3-0.2-6.2-0.2C122.4,113.8,122,113.8,121.6,113.8 M97.9,113.8
	c-1,0.1-2.5,0.2-3.3,0.3c-0.3,0-0.5,0.1-0.5,0.1l0,0c0.1,0,0.4,0,0.9,0c1-0.1,2.5-0.2,3.3-0.3c0.4,0,0.5-0.1,0.5-0.1s0,0-0.1,0
	C98.5,113.8,98.3,113.8,97.9,113.8 M113.4,113.5c-0.5,0-0.8,0.1-0.8,0.1s0.4,0,1.2,0.1c1,0,2.3,0,3.5,0c0.5,0,1,0,1.4,0
	c0.5,0,0.8,0,0.8-0.1c0.1,0-0.3-0.1-1.2-0.1c-0.4,0-0.9,0-1.4,0C115.7,113.4,114.3,113.5,113.4,113.5 M107.9,113.4
	c-1,0-2.5,0.1-3.3,0.2c-0.3,0-0.5,0-0.5,0.1c0,0,0.1,0,0.3,0c0.1,0,0.3,0,0.6,0c1,0,2.5-0.1,3.3-0.1c0.3,0,0.5,0,0.5-0.1
	c0.1,0,0,0-0.2,0c-0.1,0-0.2,0-0.3,0C108.1,113.4,108,113.4,107.9,113.4 M129.8,113.4c-1.1,0.1-1.5,0.2-1.3,0.4
	c0.2,0.1,0.8,0.2,1.7,0.3c1.7,0.1,4.2,0.3,6.1,0.3c0.5,0,1,0,1.4,0c0.7,0,1.2-0.1,1.3-0.2c0.3-0.2-0.3-0.4-1.7-0.6
	c-0.8-0.1-1.9-0.2-3-0.2l0,0l0,0l0,0l0,0l0,0l0,0c-0.4,0-0.7,0-1.1,0C131.9,113.2,130.7,113.3,129.8,113.4 M91,113.2L91,113.2
	L91,113.2c-0.5,0-0.9,0-1.3,0.1h-0.1c-0.6,0-0.8,0.1-0.7,0.2c0.1,0,0.2,0.1,0.4,0.1c0.2,0,0.6,0,0.9,0c0.7,0,1.5,0,2.1-0.1
	c0.6,0,0.8-0.1,0.8-0.2c0,0-0.2-0.1-0.5-0.1h-0.1c-0.3,0-0.8,0-1.3,0C91.2,113.2,91.1,113.2,91,113.2 M116.3,112.7
	c0,0.1,0.2,0.1,0.6,0.2c1,0.2,2.7,0.4,3.9,0.5h0.1c0.3,0,0.6,0,0.8,0c0.4,0,0.3-0.1-0.4-0.3c-1-0.2-2.8-0.5-4-0.6
	c-0.2,0-0.4,0-0.5,0C116.5,112.6,116.3,112.6,116.3,112.7 M121.7,112.8c-0.6,0.1-0.9,0.2-0.8,0.2c0.1,0.1,0.5,0.1,1.2,0.2
	c0.4,0,1,0,1.5,0.1c0.2,0,0.4,0,0.5,0c0.2,0,0.4,0,0.7,0c0.8,0,1.6,0,2.2-0.1c0.4,0,0.6-0.1,0.8-0.1c0.3-0.1,0-0.3-1.1-0.3
	c-0.4,0-0.9,0-1.4,0C124,112.6,122.6,112.7,121.7,112.8 M98.4,112.5c-0.8,0-1.3,0.1-1.4,0.2s0.2,0.2,0.7,0.2
	c1.2,0.2,3.5,0.2,5.1,0.2c0.9,0,1.3-0.1,1.4-0.2c0-0.1-0.2-0.1-0.8-0.2c-1-0.1-2.7-0.2-4.2-0.2C98.9,112.5,98.6,112.5,98.4,112.5
	 M106.4,112.5c0.1,0.1,0.3,0.1,0.8,0.2c1.2,0.2,3.5,0.3,5.1,0.4c0.7,0,1.1,0,1.3,0c0.2,0-0.1-0.1-0.8-0.3c-1.3-0.3-3.5-0.5-5.1-0.5
	C106.7,112.3,106.3,112.4,106.4,112.5 M82.4,112.2c-0.5,0.1-0.8,0.2-0.8,0.3c0,0.1,0.1,0.1,0.4,0.2c0.7,0.1,2,0.1,2.8,0
	c0.4,0,0.7-0.1,0.8-0.2c0.1-0.1,0-0.2-0.4-0.2c-0.4-0.1-1-0.1-1.6-0.1C83.2,112.1,82.8,112.1,82.4,112.2 M138.3,112.2
	c-0.7,0.1-1.2,0.3-1.3,0.4c-0.3,0.2,0.2,0.5,1.6,0.7c0.1,0,0.3,0,0.5,0.1c1.3,0.2,2.8,0.2,4.3,0.2c1.1,0,2.1-0.1,2.9-0.2
	c0.2,0,0.4-0.1,0.5-0.1c0.9-0.2,1.2-0.4,0.9-0.7c-0.2-0.2-0.7-0.3-1.6-0.5c-1-0.2-2.2-0.2-3.5-0.2
	C141,111.9,139.5,112.1,138.3,112.2 M116.6,111.9c-0.5,0-1.1,0-1.7,0.1c-0.5,0-1.1,0.1-1.4,0.2c-0.4,0.1-0.5,0.1-0.6,0.1
	c0,0,0.3,0.1,0.8,0.1c1,0,2.5-0.1,3.3-0.2c0.4-0.1,0.6-0.1,0.6-0.2c0,0-0.1-0.1-0.3-0.1c-0.1,0-0.3,0-0.5,0H116.6z M130.2,111.4
	c-0.6,0.1-0.9,0.2-0.9,0.3c0,0.1,0.1,0.2,0.5,0.2c0.2,0,0.4,0.1,0.7,0.1c1.4,0.1,3.7,0.1,5-0.1s1.2-0.6-0.2-0.8
	c-0.4,0-0.9-0.1-1.5-0.1C132.6,111.1,131.2,111.2,130.2,111.4 M90.4,110.9c-1.2,0.1-1.9,0.3-1.8,0.5c0,0.1,0.4,0.3,1,0.4
	c0.4,0.1,0.8,0.1,1.3,0.2c1.6,0.2,3.7,0.2,5.3,0.1c2-0.1,2.4-0.4,0.8-0.8c-1.2-0.3-3.2-0.5-5-0.5C91.4,110.8,90.8,110.8,90.4,110.9
	 M121.8,110.9c-0.3,0.1-0.5,0.1-0.4,0.2c0,0.1,0.2,0.1,0.6,0.1c0.1,0,0.3,0,0.4,0c0.7,0,1.5-0.1,2.1-0.2c0.4-0.1,0.5-0.2,0.3-0.3
	c-0.1,0-0.3-0.1-0.5-0.1c-0.1,0-0.3,0-0.4,0C123.2,110.6,122.4,110.7,121.8,110.9 M109.1,110.7c-0.3,0.1-0.2,0.3,0.4,0.4
	c1,0.3,2.8,0.5,4,0.6c0.1,0,0.2,0,0.3,0c0.5,0,0.7,0,0.7-0.1s-0.2-0.2-0.6-0.3c-1-0.3-2.8-0.6-3.9-0.6h-0.1
	C109.5,110.6,109.2,110.6,109.1,110.7 M100.1,110.4c-1.7,0-2,0.4-0.7,0.8c1.4,0.3,3.9,0.5,5.7,0.5c1,0,1.5-0.1,1.5-0.2
	s-0.3-0.2-0.9-0.4c-1.3-0.4-3.5-0.7-5.3-0.7C100.3,110.4,100.2,110.4,100.1,110.4 M76.4,110.4c-0.3,0-0.7,0-1,0.1
	c-0.1,0-0.2,0-0.3,0.1l0,0l0,0c-0.4,0.1-0.6,0.2-0.5,0.3c0,0.1,0.2,0.1,0.3,0.2c0.4,0.1,0.9,0.1,1.5,0.1c0.4,0,0.8,0,1.2-0.1
	c0.5-0.1,0.7-0.2,0.8-0.3c0.1-0.1-0.1-0.2-0.4-0.3c-0.2-0.1-0.6-0.1-0.9-0.1l0,0l0,0C76.9,110.4,76.7,110.4,76.4,110.4L76.4,110.4
	 M113.5,110.3L113.5,110.3c-0.4,0.1-0.5,0.2-0.3,0.2c0.1,0,0.2,0,0.4,0c0.3,0,0.6,0,1-0.1c0.4,0,0.7-0.1,1-0.2
	c0.2-0.1,0.3-0.1,0.3-0.1c0.1-0.1-0.1-0.1-0.5-0.1C114.8,110.1,114,110.2,113.5,110.3 M147.3,110.4L147.3,110.4
	c-1.2,0.3-1.7,0.6-1.6,0.9c0,0.1,0.2,0.2,0.4,0.3c0.3,0.1,0.7,0.2,1.3,0.4c2.2,0.4,5.7,0.4,7.9,0c0.6-0.1,1.1-0.3,1.4-0.4
	c0.1-0.1,0.2-0.2,0.3-0.2l0,0l0,0c0.1-0.2,0-0.5-0.5-0.7c-0.3-0.1-0.6-0.2-1.1-0.3c-0.9-0.2-2.1-0.3-3.3-0.3
	C150.3,109.9,148.6,110.1,147.3,110.4 M139.8,109.1c-0.2,0-0.5,0.1-0.7,0.1c-0.7,0.2-1,0.4-1,0.5c0,0.2,0.4,0.4,1.1,0.5
	c1.5,0.2,3.9,0.1,5.3-0.3c0.8-0.2,1.1-0.4,1.1-0.6c0-0.1-0.2-0.2-0.4-0.3c-0.2-0.1-0.4-0.1-0.7-0.2c-0.4-0.1-0.9-0.1-1.4-0.1
	C142,108.8,140.8,108.9,139.8,109.1 M83.3,108.8c-0.8,0.1-1.4,0.2-1.6,0.4c-0.2,0.1-0.2,0.3-0.1,0.4s0.4,0.3,0.8,0.4s1,0.2,1.6,0.3
	c0.9,0.1,1.9,0.2,2.9,0.2c0.4,0,0.7,0,1.1,0c0.2,0,0.4,0,0.7,0c0.8-0.1,1.3-0.2,1.6-0.3l0,0l0,0l0,0l0,0c0.4-0.2,0.2-0.5-0.7-0.8
	c-0.2-0.1-0.5-0.1-0.8-0.2c-1.1-0.3-2.7-0.4-4-0.4C84.3,108.7,83.8,108.7,83.3,108.8 M68.5,108.2c-0.5,0.1-0.8,0.2-0.8,0.4
	c0,0.1,0.1,0.2,0.3,0.3c0.4,0.1,1,0.2,1.6,0.2c0.3,0,0.7,0,1-0.1c0.6-0.1,0.9-0.3,0.7-0.5c-0.1-0.1-0.1-0.1-0.3-0.2
	c-0.4-0.1-1-0.2-1.6-0.2C69.1,108.1,68.8,108.2,68.5,108.2 M93,108.1c-1.7,0.1-2,0.6-0.7,1s3.7,0.7,5.4,0.6c0.8,0,1.3-0.1,1.5-0.3
	c0.1-0.1,0-0.2-0.3-0.4c-0.1-0.1-0.3-0.1-0.5-0.2c-1.2-0.4-3.2-0.7-4.8-0.7C93.4,108.1,93.2,108.1,93,108.1 M130.7,108.4
	c-0.4,0.1-0.6,0.2-0.5,0.3c0,0.1,0.2,0.1,0.6,0.2c0.2,0,0.4,0,0.6,0c0.7,0,1.6-0.1,2.2-0.3c0.3-0.1,0.5-0.2,0.5-0.3
	c0.1-0.1-0.1-0.2-0.6-0.3c-0.2,0-0.3,0-0.5,0C132.2,108.1,131.3,108.2,130.7,108.4 M101.6,108.3c0,0.1,0.2,0.3,0.6,0.4
	c0.5,0.2,1.3,0.4,2.1,0.5c0.7,0.1,1.4,0.2,2,0.2c0.5,0,0.9-0.1,1-0.1s0.1-0.1,0.1-0.2c-0.1-0.1-0.3-0.2-0.6-0.4
	c-1-0.4-2.9-0.7-4.1-0.7C101.9,108,101.5,108.1,101.6,108.3 M123.1,107.5c-0.3,0-0.7,0-1.1,0.1s-0.8,0.2-1.1,0.3
	c-0.1,0-0.2,0.1-0.3,0.1c-0.3,0.2-0.2,0.3,0.4,0.3c0,0,0.1,0,0.2,0c0.7,0,1.6-0.1,2.2-0.3c0.1,0,0.2-0.1,0.2-0.1
	c0.3-0.1,0.3-0.2,0.1-0.3c-0.1,0-0.2-0.1-0.4-0.1H123.1z M157.4,107.7c-0.2,0.1-0.5,0.1-0.7,0.2c-0.5,0.2-0.9,0.3-1.2,0.5
	c-0.6,0.3-0.7,0.7-0.2,1c0.3,0.2,0.7,0.3,1.4,0.5c2.2,0.5,5.8,0.5,8.1-0.1c0.6-0.2,1.1-0.4,1.4-0.6c0.6-0.4,0.5-0.8-0.1-1.2
	c-0.3-0.2-0.6-0.3-1.1-0.4c-0.1,0-0.1,0-0.2,0c-0.8-0.2-1.9-0.3-3-0.3C160.3,107.2,158.7,107.4,157.4,107.7 M76.5,106.2
	c-1.7,0.2-2.2,0.8-1.1,1.3c0.1,0,0.1,0.1,0.2,0.1c1,0.4,2.7,0.6,4.2,0.6c0.6,0,1.1,0,1.6-0.1s0.9-0.1,1.1-0.2
	c0.5-0.2,0.7-0.4,0.5-0.7c-0.1-0.1-0.4-0.3-0.8-0.4c-0.5-0.2-1.1-0.4-1.8-0.5c-0.8-0.1-1.7-0.2-2.5-0.2
	C77.5,106.1,77,106.2,76.5,106.2 M149.4,106.1c-0.3,0.1-0.6,0.1-0.9,0.2c-0.6,0.2-1,0.4-1.1,0.6s0.1,0.4,0.7,0.6
	c0.1,0,0.3,0.1,0.4,0.1c0.5,0.1,1.1,0.1,1.8,0.1s1.5-0.1,2.2-0.2c0.5-0.1,1-0.2,1.5-0.3c0.5-0.2,0.9-0.4,1-0.5s0.1-0.2,0.1-0.3
	c-0.1-0.2-0.4-0.4-1.1-0.5c-0.5-0.1-1-0.1-1.6-0.1C151.5,105.8,150.4,105.9,149.4,106.1 M61.6,105.4c-0.5,0.1-0.8,0.3-0.8,0.5
	c0,0.1,0.1,0.2,0.3,0.3c0.2,0.1,0.3,0.1,0.5,0.2c0.6,0.1,1.4,0.1,2.1,0c0.3,0,0.4-0.1,0.6-0.2c0.1,0,0.2-0.1,0.2-0.2l0,0l0,0
	c0.1-0.1,0-0.3-0.3-0.4c-0.4-0.2-1.1-0.3-1.7-0.3C62.2,105.3,61.9,105.4,61.6,105.4 M86.1,105.3c-0.8,0.1-1.3,0.2-1.4,0.5
	c0,0.1,0,0.2,0.1,0.3c0.1,0.1,0.3,0.3,0.6,0.4c1.2,0.5,3.5,0.7,5.1,0.6c1.1-0.1,1.6-0.4,1.3-0.7c0,0,0-0.1-0.1-0.1
	c-0.1-0.1-0.3-0.2-0.6-0.3c-1-0.4-2.8-0.8-4.3-0.8C86.6,105.3,86.3,105.3,86.1,105.3 M95.8,105c-0.3,0-0.6,0.1-0.7,0.1
	c-0.4,0.2-0.3,0.4,0.3,0.7c0.5,0.2,1.2,0.4,1.9,0.5c0.6,0.1,1.2,0.1,1.8,0.1c1.1,0,1.3-0.4,0.4-0.8c-0.8-0.4-2.3-0.7-3.5-0.7h-0.2
	V105z M140,104.8c-0.3,0.1-0.6,0.2-0.8,0.3c-0.7,0.2-1,0.5-0.9,0.7c0,0.2,0.4,0.3,1,0.4c0.3,0,0.6,0,0.9,0c1.2,0,2.8-0.2,3.8-0.5
	c0.3-0.1,0.6-0.3,0.7-0.4c0.3-0.3,0.3-0.5-0.1-0.7c-0.2-0.1-0.4-0.1-0.6-0.2c-0.3,0-0.6-0.1-0.9-0.1
	C142,104.4,140.9,104.6,140,104.8 M130.8,104.3L130.8,104.3c-0.3,0.2-0.3,0.3,0,0.3c0.4,0,0.9-0.1,1.3-0.2c0.2-0.1,0.2-0.1,0.2-0.2
	s-0.1-0.1-0.3-0.1h-0.1C131.6,104.1,131.1,104.1,130.8,104.3 M166.6,104.7L166.6,104.7c-2.4,0.9-2.5,1.9-0.3,2.5
	c2.2,0.5,5.9,0.5,8.3-0.3c0.6-0.2,1-0.4,1.3-0.6l0,0l0,0c0.1-0.1,0.3-0.2,0.4-0.3c0.4-0.4,0.4-0.7,0.2-1.1c-0.2-0.3-0.7-0.5-1.3-0.7
	c-0.8-0.2-1.9-0.4-3-0.4C170.1,103.8,168.1,104.1,166.6,104.7 M69.7,103.1c-1.8,0.3-2.2,1-0.8,1.7c0.2,0.1,0.4,0.2,0.7,0.3
	c0.9,0.3,2.1,0.4,3.3,0.4c0.6,0,1.1,0,1.7-0.1c1.8-0.2,2.2-0.9,0.8-1.5c-0.2-0.1-0.4-0.2-0.6-0.2c-1-0.3-2.3-0.5-3.5-0.5
	C70.6,103,70.1,103.1,69.7,103.1 M79.4,102.1c-0.5,0.1-0.8,0.2-1,0.3c-0.4,0.3-0.3,0.6,0.4,1c0.2,0.1,0.5,0.2,0.9,0.3
	c1.1,0.3,2.4,0.4,3.5,0.3c0.5-0.1,0.9-0.2,1.1-0.3c0.1-0.1,0.2-0.2,0.2-0.3c0-0.2-0.2-0.4-0.7-0.6c-0.7-0.4-1.8-0.6-2.9-0.7
	c-0.3,0-0.5,0-0.8,0C79.9,102.1,79.6,102.1,79.4,102.1 M54.9,102.1c-0.1,0-0.1,0-0.2,0c-0.6,0.1-0.9,0.4-0.8,0.6
	c0,0.1,0.2,0.2,0.4,0.3c0.4,0.2,1.1,0.3,1.7,0.3c0.3,0,0.7,0,1-0.1c0.5-0.1,0.8-0.3,0.8-0.5c0-0.1-0.1-0.2-0.3-0.3
	c0,0-0.1,0-0.1-0.1c-0.1-0.1-0.2-0.1-0.3-0.1c-0.4-0.1-0.9-0.2-1.4-0.2C55.4,102,55.1,102,54.9,102.1 M161.9,102
	c-1.3,0.1-2.7,0.3-3.7,0.8c-0.5,0.2-0.9,0.4-1.1,0.6c-0.3,0.3-0.3,0.7,0.2,0.9c0.2,0.1,0.5,0.2,0.8,0.3c1.7,0.4,4.4,0.2,6.1-0.5
	c0.1,0,0.2-0.1,0.3-0.1c0.8-0.4,1.2-0.8,1-1.1l0,0l0,0c-0.1-0.1-0.2-0.3-0.4-0.4l0,0l0,0c-0.2-0.1-0.4-0.2-0.7-0.3
	c-0.3-0.1-0.6-0.1-1-0.1c-0.2,0-0.5,0-0.7,0C162.4,102,162.2,102,161.9,102 M89.2,101.7c-0.2,0-0.4,0.1-0.5,0.1
	c-0.2,0.1-0.2,0.2-0.1,0.3c0.1,0.1,0.2,0.2,0.3,0.3c0.6,0.3,1.6,0.5,2.4,0.5c0.1,0,0.2,0,0.2,0c0.4,0,0.6-0.1,0.7-0.2s0-0.3-0.4-0.5
	c-0.1-0.1-0.3-0.1-0.4-0.2c-0.6-0.2-1.3-0.3-1.9-0.3C89.4,101.7,89.3,101.7,89.2,101.7 M151,100.6c-0.6,0.1-1.2,0.3-1.6,0.5
	c-1.2,0.5-1.2,1,0,1.2c0.3,0.1,0.6,0.1,1,0.1c0.8,0,1.6-0.1,2.4-0.3c0.3-0.1,0.6-0.2,0.9-0.3c1.2-0.5,1.3-1.1,0.1-1.3
	c-0.2,0-0.5-0.1-0.8-0.1C152.3,100.4,151.6,100.5,151,100.6 M178.3,100.3c-0.5,0.1-0.9,0.3-1.3,0.4c-2.2,0.9-2.6,1.9-1.4,2.6
	c0.2,0.1,0.5,0.2,0.8,0.3c1.6,0.5,3.9,0.5,6,0.2c0.9-0.1,1.7-0.3,2.4-0.6c0.5-0.2,0.9-0.4,1.2-0.6c1.4-0.9,1.2-2-0.5-2.6
	c-0.8-0.3-1.8-0.4-3-0.4C181.2,99.7,179.7,99.9,178.3,100.3 M140.4,99.9c-0.2,0.1-0.3,0.1-0.4,0.2c-0.1,0.2,0,0.3,0.4,0.3
	c0.1,0,0.1,0,0.2,0c0.6,0,1.3-0.1,1.8-0.4c0.1,0,0.2-0.1,0.2-0.1c0.3-0.2,0.2-0.4-0.2-0.5c-0.1,0-0.1,0-0.2,0
	C141.7,99.5,140.9,99.7,140.4,99.9 M62.9,99.6c-0.5,0.1-0.9,0.2-1.1,0.4c-0.4,0.3-0.6,0.6-0.3,0.9c0.1,0.2,0.3,0.3,0.6,0.5
	c0.6,0.4,1.6,0.6,2.7,0.7c0.4,0,0.8,0.1,1.1,0.1c0.5,0,1,0,1.5-0.1c0,0,0,0,0.1,0c1.7-0.3,2.1-1,0.8-1.7c-1-0.5-2.5-0.8-4-0.8
	C63.8,99.4,63.3,99.5,62.9,99.6 M72.8,98.5c-0.4,0.1-0.7,0.2-0.8,0.3c-0.2,0.2-0.2,0.4-0.1,0.6c0.1,0.1,0.2,0.2,0.4,0.3
	c0.7,0.4,1.9,0.6,3,0.6c0.2,0,0.4,0,0.6,0c1.1-0.2,1.4-0.6,0.5-1.2c-0.7-0.4-2-0.7-3-0.7C73.2,98.4,73,98.4,72.8,98.5 M47.8,98.3
	c-0.9,0.3-1.1,0.8-0.5,1.1c0.5,0.3,1.2,0.4,1.9,0.4c0.4,0,0.7,0,1-0.1c0.9-0.2,1.1-0.7,0.4-1.1c-0.5-0.3-1.2-0.4-1.9-0.4
	C48.5,98.2,48.1,98.2,47.8,98.3 M82.4,97.8c-0.2,0-0.3,0-0.4,0.1c-0.2,0.1-0.2,0.1-0.2,0.2s0.1,0.2,0.4,0.4c0.6,0.3,1.6,0.6,2.3,0.5
	c0.3,0,0.5-0.1,0.6-0.2s0-0.3-0.3-0.5c-0.2-0.1-0.5-0.2-0.8-0.3c-0.4-0.1-0.8-0.2-1.2-0.2C82.6,97.7,82.5,97.7,82.4,97.8
	 M169.1,98.1c-0.2,0.1-0.5,0.2-0.7,0.3c-0.7,0.3-1.2,0.6-1.4,1c-0.1,0.2-0.2,0.3-0.2,0.5s0.1,0.4,0.3,0.5c0.2,0.2,0.5,0.3,0.9,0.4
	c1.4,0.4,3.6,0.3,5.4-0.2c0.5-0.1,0.9-0.3,1.4-0.4c0.5-0.2,0.9-0.4,1.1-0.6c0.8-0.7,0.6-1.4-0.7-1.8c-0.6-0.2-1.2-0.2-2-0.2
	C171.9,97.4,170.4,97.6,169.1,98.1 M56.3,95.7c-0.4,0.1-0.7,0.2-0.9,0.3c-0.4,0.2-0.5,0.6-0.4,0.9c0.1,0.2,0.3,0.4,0.6,0.6
	s0.6,0.3,1,0.4c1.1,0.3,2.6,0.4,3.7,0.2c1.5-0.3,1.8-1,0.7-1.7c-0.1-0.1-0.3-0.1-0.4-0.2c-0.8-0.4-2-0.6-3.1-0.6
	C57.1,95.6,56.7,95.6,56.3,95.7 M159.3,96.3c-0.8,0.4-1.2,0.8-1.2,1.1c0,0.3,0.3,0.6,1,0.7c1.1,0.2,2.7,0.1,4.1-0.2
	c0.5-0.1,1-0.3,1.4-0.5c0.7-0.4,1.2-0.7,1.2-1.1c0-0.2,0-0.3-0.1-0.4l0,0l0,0c-0.2-0.2-0.4-0.3-0.9-0.4c-0.4-0.1-0.8-0.1-1.2-0.1
	C162.2,95.3,160.5,95.7,159.3,96.3 M190.2,95.3c-0.8,0.2-1.6,0.4-2.3,0.8c-2,0.9-2.6,2-1.9,2.8c0.2,0.3,0.6,0.5,1.2,0.7
	c0.1,0,0.2,0.1,0.2,0.1c0.8,0.3,1.9,0.4,3,0.4c1.3,0,2.6-0.2,3.8-0.5c0.5-0.1,1-0.3,1.5-0.5c2.1-0.9,2.8-2.1,2-3
	c-0.2-0.2-0.6-0.5-1-0.6c-0.1,0-0.2-0.1-0.3-0.1c-0.8-0.2-1.7-0.4-2.7-0.4C192.5,94.9,191.3,95,190.2,95.3 M66.5,94.6
	c-0.8,0.1-0.9,0.5-0.3,0.9s1.6,0.6,2.4,0.4c0.8-0.1,0.9-0.5,0.3-0.9c-0.5-0.3-1.2-0.5-1.9-0.5C66.8,94.6,66.6,94.6,66.5,94.6
	 M150.6,94.7c-0.8,0.4-0.8,0.8-0.1,0.9s1.9-0.1,2.7-0.5s0.8-0.8,0.1-0.9c-0.1,0-0.2,0-0.4,0C152.2,94.2,151.3,94.4,150.6,94.7
	 M41,94.1c-1,0.2-1.2,0.8-0.5,1.3c0.7,0.4,2.1,0.6,3,0.3c0.9-0.3,1.1-0.8,0.4-1.3c-0.4-0.3-1.2-0.5-1.9-0.5C41.7,94,41.3,94,41,94.1
	 M75.6,93.4c-0.6,0.1-0.7,0.4-0.2,0.7c0.4,0.3,1.1,0.4,1.7,0.4c0.1,0,0.2,0,0.2,0c0.3,0,0.5-0.1,0.5-0.2s0-0.2-0.1-0.3l0,0l0,0
	c0-0.1-0.1-0.1-0.2-0.2C77.1,93.5,76.3,93.3,75.6,93.4C75.8,93.4,75.7,93.4,75.6,93.4 M181.5,92.3c-0.9,0.2-1.7,0.5-2.4,0.8
	c-1.6,0.8-2.2,1.6-1.8,2.3c0.2,0.3,0.6,0.5,1.2,0.7c0.5,0.1,1.1,0.2,1.7,0.3c0.2,0,0.4,0,0.6,0c0.6,0,1.1,0,1.7-0.1
	c1.2-0.2,2.4-0.5,3.4-0.9c1.3-0.6,2-1.4,1.9-2c0-0.4-0.4-0.8-1.2-1.1c-0.1,0-0.3-0.1-0.4-0.1c-0.5-0.1-1.2-0.2-1.8-0.2
	C183.5,92,182.5,92.1,181.5,92.3 M49.8,91.6c-1.1,0.3-1.4,0.9-0.5,1.5c0.3,0.2,0.8,0.4,1.3,0.5c0.4,0.1,0.9,0.1,1.3,0.1
	c0.3,0,0.6,0,0.8-0.1c0.1,0,0.1,0,0.2,0c0.4-0.1,0.7-0.2,0.9-0.4c0.2-0.2,0.2-0.5,0-0.8c-0.1-0.1-0.2-0.2-0.4-0.3
	c-0.6-0.4-1.6-0.7-2.6-0.7C50.5,91.4,50.2,91.5,49.8,91.6 M59.5,90c-0.8,0.1-0.9,0.6-0.3,1c0.5,0.3,1.2,0.5,1.9,0.5
	c0.2,0,0.4,0,0.6,0c0.8-0.1,0.9-0.6,0.3-0.9c-0.5-0.3-1.3-0.5-1.9-0.5C59.8,89.9,59.7,89.9,59.5,90 M199.4,90.7
	c-0.3,0.1-0.6,0.3-0.8,0.5l0,0l0,0c-0.4,0.3-0.8,0.6-1,0.9c-0.9,1-0.6,1.9,0.8,2.5c0.3,0.1,0.6,0.2,1,0.3c1.8,0.4,4.3,0.2,6.4-0.4
	c0.4-0.1,0.8-0.3,1.2-0.5c1.6-0.7,2.4-1.6,2.5-2.5c0-0.3-0.1-0.6-0.4-0.9c-0.2-0.2-0.5-0.4-0.9-0.6c-0.8-0.4-1.8-0.5-3-0.5
	C203.3,89.4,201.1,89.9,199.4,90.7 M34.5,89.4c-0.2,0-0.3,0.1-0.5,0.1c-1,0.3-1.1,1-0.4,1.5c0.5,0.3,1.3,0.5,2,0.5
	c0.4,0,0.8,0,1.1-0.2c0.9-0.3,1.2-0.9,0.4-1.4c-0.2-0.1-0.5-0.3-0.8-0.3c-0.4-0.1-0.9-0.2-1.3-0.2C34.9,89.4,34.7,89.4,34.5,89.4
	 M172.1,89.7c-0.8,0.2-1.5,0.5-2.2,0.8c-0.1,0-0.1,0.1-0.2,0.1c-2,1.1-2.2,2.3-0.5,2.7c1.8,0.5,4.8,0,6.9-1c0.7-0.4,1.2-0.7,1.5-1.1
	c0.5-0.7,0.2-1.4-0.9-1.7c-0.2-0.1-0.5-0.1-0.7-0.1c-0.3,0-0.6,0-0.9,0C174.2,89.3,173.1,89.5,172.1,89.7 M68.9,88.8
	c-0.3,0-0.5,0.2-0.3,0.4c0,0,0.1,0.1,0.2,0.1c0.1,0.1,0.2,0.1,0.3,0.2c0.3,0.1,0.7,0.2,1.1,0.2c0.3-0.1,0.4-0.2,0.4-0.3v-0.1
	c0-0.1-0.1-0.1-0.2-0.2c-0.3-0.2-0.8-0.3-1.2-0.3C69.1,88.8,69,88.8,68.9,88.8 M43,86.9c-1,0.3-1.2,1-0.4,1.5
	c0.6,0.4,1.5,0.6,2.4,0.6c0.3,0,0.7,0,1-0.1c0.4-0.1,0.6-0.2,0.8-0.4c0.2-0.2,0.2-0.4,0.1-0.6c-0.1-0.2-0.2-0.3-0.4-0.4
	c-0.6-0.4-1.6-0.7-2.4-0.7C43.6,86.8,43.3,86.8,43,86.9 M191.3,86.7c-0.4,0.2-0.8,0.3-1.2,0.5c-1.4,0.7-2.2,1.6-2.3,2.3
	c-0.1,0.6,0.3,1.1,1.1,1.4c0.1,0,0.2,0.1,0.2,0.1c0.7,0.3,1.7,0.4,2.7,0.4c1.6,0,3.5-0.3,5.1-0.9c0.3-0.1,0.6-0.2,0.9-0.4
	c0.2-0.1,0.4-0.2,0.6-0.3c1.6-0.9,2.2-2.1,1.6-2.9c-0.2-0.3-0.6-0.6-1.1-0.8c-0.7-0.3-1.6-0.4-2.6-0.4
	C194.8,85.7,193,86.1,191.3,86.7 M52.6,85.1c-0.1,0-0.2,0.1-0.3,0.1c-0.2,0.1-0.3,0.3-0.3,0.5c0,0.1,0.1,0.2,0.3,0.4
	c0.4,0.3,1,0.4,1.6,0.4c0.2,0,0.3,0,0.5,0c0.2-0.1,0.4-0.2,0.5-0.3c0.1-0.1,0.1-0.3-0.1-0.5l-0.1-0.1c-0.4-0.3-1.1-0.5-1.6-0.5
	C52.9,85.1,52.8,85.1,52.6,85.1 M26.8,84.5L26.8,84.5c-0.9,0.3-1.1,0.9-0.7,1.4c0.1,0.1,0.2,0.2,0.3,0.3c0.2,0.1,0.4,0.2,0.6,0.3
	c0.8,0.3,2,0.4,2.8,0.1c1.1-0.3,1.3-1.1,0.5-1.7l-0.1-0.1c-0.6-0.3-1.4-0.5-2.2-0.5C27.6,84.4,27.2,84.4,26.8,84.5 M214,83.9
	c-0.8,0.2-1.7,0.5-2.4,0.9c0,0-0.1,0-0.1,0.1c-1.6,0.8-2.4,1.8-2.3,2.7c0.1,0.5,0.4,0.9,1.2,1.3c0.4,0.2,0.8,0.3,1.3,0.4
	c2,0.4,4.8,0,6.9-1c2-1,2.8-2.3,2.4-3.3c-0.2-0.3-0.5-0.7-1-0.9c-0.4-0.2-0.8-0.3-1.2-0.4c-0.5-0.1-1-0.1-1.6-0.1
	C216.2,83.5,215.1,83.7,214,83.9 M181.8,84c-0.2,0.1-0.4,0.2-0.6,0.3c-1.1,0.6-1.8,1.3-1.9,1.9c-0.1,0.6,0.3,1,1.2,1.3
	c1.1,0.3,2.8,0.3,4.5-0.1c1-0.2,2-0.6,2.8-1c0.9-0.5,1.5-1,1.8-1.5l0,0l0,0c0.4-0.8,0.1-1.4-1-1.8c-0.5-0.2-1.1-0.3-1.8-0.3
	C185.2,82.9,183.3,83.3,181.8,84 M35.6,81.5c-0.5,0.1-0.8,0.4-1,0.6c-0.2,0.4-0.2,0.8,0.3,1.2c0.1,0.1,0.1,0.1,0.2,0.2
	c0.2,0.1,0.3,0.2,0.5,0.3l0,0l0,0c1,0.5,2.5,0.6,3.5,0.3c0.4-0.1,0.8-0.3,0.9-0.5c0.3-0.4,0.2-0.9-0.4-1.4c-0.7-0.5-1.9-0.8-2.9-0.8
	C36.4,81.4,36,81.4,35.6,81.5 M174,80.8c-0.8,0.2-1.5,0.5-2.2,0.9c-0.3,0.2-0.5,0.3-0.7,0.5c-1.1,0.9-1.1,1.8,0.2,2.1
	c1,0.3,2.6,0.1,4.1-0.3c0.7-0.2,1.4-0.5,2-0.8c0.4-0.2,0.7-0.4,0.9-0.6c1-0.9,0.9-1.7-0.3-2.1c-0.3-0.1-0.8-0.1-1.2-0.1
	C175.9,80.4,175,80.6,174,80.8 M205.4,79.6c-1.1,0.3-2.2,0.7-3.1,1.2c-0.7,0.4-1.2,0.7-1.6,1.1c-0.7,0.7-1,1.4-0.8,2
	c0.2,0.4,0.6,0.8,1.2,1.1c0.4,0.1,0.8,0.3,1.2,0.3c0.5,0.1,1,0.1,1.5,0.1c0.7,0,1.4-0.1,2.1-0.2c1.3-0.2,2.7-0.6,3.8-1.3
	c2.8-1.4,3.4-3.4,1.3-4.4c-0.2-0.1-0.3-0.1-0.5-0.2c-0.6-0.2-1.3-0.3-2.1-0.3C207.6,79.2,206.5,79.3,205.4,79.6 M19.6,79.3
	c-0.6,0.2-0.9,0.6-0.9,0.9l0,0l0,0c0,0.3,0.2,0.6,0.6,0.9c0.9,0.6,2.4,0.8,3.5,0.5c0.5-0.2,0.7-0.4,0.9-0.6l0,0l0,0v-0.1l0,0l0,0
	c0.1-0.3-0.1-0.7-0.5-1l0,0c-0.6-0.4-1.5-0.7-2.3-0.7C20.4,79.1,20,79.1,19.6,79.3 M226.3,77.5c-0.7,0.2-1.4,0.5-2,0.8
	c-1.3,0.7-2.2,1.5-2.4,2.3c-0.2,0.7,0,1.4,0.8,1.9c0,0,0.1,0.1,0.2,0.1c0.7,0.4,1.8,0.6,2.9,0.6c1.5,0,3.1-0.3,4.5-0.9
	c0.2-0.1,0.4-0.2,0.7-0.3c0.2-0.1,0.5-0.3,0.7-0.4c1.2-0.8,1.8-1.6,1.9-2.4c0-0.6-0.3-1.2-1-1.6s-1.7-0.6-2.8-0.6
	C228.6,76.9,227.4,77.1,226.3,77.5 M28.4,76.1c-0.5,0.2-0.8,0.4-1,0.7c-0.1,0.2-0.1,0.5,0,0.7s0.3,0.5,0.6,0.7
	c0.4,0.3,0.8,0.5,1.3,0.6c0.9,0.3,2,0.3,2.8,0.1c0.8-0.2,1.1-0.7,1.1-1.2c-0.1-0.3-0.3-0.6-0.6-0.9c-0.7-0.6-1.9-0.9-3-0.9
	C29.1,75.9,28.7,76,28.4,76.1 M193,77.3c-1.3,0.8-2.1,1.6-2.2,2.3c-0.1,0.7,0.3,1.3,1.2,1.6c1.7,0.6,4.6,0.3,6.9-0.6
	c0.4-0.2,0.9-0.4,1.3-0.6c0.5-0.3,0.9-0.5,1.2-0.8c1.2-1,1.5-2.1,0.7-2.9l0,0l0,0l0,0l0,0c-0.2-0.2-0.4-0.3-0.7-0.4
	c-0.6-0.2-1.3-0.3-2.1-0.3C197.3,75.5,194.9,76.2,193,77.3 M12.4,73.7h-0.1c-0.5,0.2-0.8,0.5-0.9,0.8c0,0.2,0,0.4,0.1,0.7
	c0.1,0.2,0.2,0.3,0.4,0.5c0.9,0.7,2.5,0.9,3.6,0.5s1.2-1.3,0.3-2c-0.2-0.1-0.4-0.3-0.7-0.4c-0.5-0.2-1.1-0.3-1.7-0.3
	C13,73.5,12.7,73.6,12.4,73.7 M184.5,73.8c-0.3,0.1-0.5,0.3-0.7,0.4c-1.7,1-2.2,2.2-1.6,2.8c0.2,0.2,0.5,0.3,0.8,0.4
	c0.4,0.1,1,0.2,1.5,0.2c1.7,0,3.8-0.6,5.4-1.5c2.1-1.3,2.5-2.8,0.8-3.4c-0.4-0.1-0.9-0.2-1.5-0.2C187.8,72.6,186,73.1,184.5,73.8
	 M217.7,72.8c-0.5,0.2-1,0.3-1.5,0.5c-0.3,0.2-0.7,0.3-1,0.5c-2,1.2-2.9,2.5-2.3,3.5c0.2,0.3,0.5,0.6,1,0.8c0.7,0.3,1.5,0.5,2.5,0.5
	c1.5,0,3.3-0.3,4.9-1c0.3-0.1,0.6-0.3,0.8-0.4s0.3-0.2,0.5-0.3c1.2-0.8,1.9-1.6,2-2.4c0.1-0.7-0.2-1.3-1-1.7
	c-0.1-0.1-0.3-0.1-0.5-0.2c-0.6-0.2-1.3-0.3-2-0.3C220,72.2,218.8,72.4,217.7,72.8 M176.5,70.9c-0.6,0.2-1.2,0.5-1.8,0.8
	c-0.1,0.1-0.2,0.2-0.3,0.2c-0.5,0.4-0.8,0.8-0.8,1.1c0,0.3,0.2,0.5,0.5,0.6c0.1,0,0.1,0,0.2,0.1c0.2,0.1,0.5,0.1,0.7,0.1
	c0.4,0,0.7,0,1.1-0.1c0.9-0.2,1.8-0.5,2.5-1c0.2-0.1,0.3-0.2,0.4-0.3c0.3-0.3,0.5-0.5,0.6-0.8c0.2-0.4,0-0.7-0.4-0.9
	c-0.1,0-0.2-0.1-0.2-0.1c-0.2-0.1-0.5-0.1-0.8-0.1C177.8,70.6,177.1,70.7,176.5,70.9 M21.1,70.5c-0.1,0-0.2,0.1-0.2,0.1
	c-0.6,0.3-0.8,0.8-0.6,1.3c0.1,0.2,0.3,0.4,0.5,0.5c0.3,0.2,0.7,0.4,1.1,0.6c0.8,0.3,1.8,0.3,2.6,0.1c1.1-0.4,1.3-1.2,0.3-1.9
	c-0.1-0.1-0.2-0.1-0.3-0.2c-0.6-0.4-1.5-0.6-2.3-0.6C21.8,70.3,21.4,70.4,21.1,70.5 M238.2,70.8c-0.3,0.1-0.6,0.3-0.8,0.4
	c-2.7,1.5-3.4,3.5-1.6,4.5c1,0.6,2.6,0.8,4.2,0.5c1.3-0.2,2.6-0.6,3.8-1.2c2.7-1.4,3.5-3.5,1.7-4.6c-0.7-0.4-1.7-0.6-2.8-0.6
	C241.3,69.8,239.7,70.2,238.2,70.8 M205.8,69.7c-2.6,1.6-3.2,3.5-1.2,4.3c0.6,0.3,1.4,0.4,2.2,0.4c0.9,0,1.8-0.1,2.8-0.4
	c1.1-0.3,2.3-0.7,3.2-1.3c2.6-1.5,3.3-3.5,1.5-4.4c0,0-0.1,0-0.1-0.1c-0.6-0.3-1.3-0.4-2.2-0.4C210.1,67.9,207.7,68.6,205.8,69.7
	 M4.7,68c-0.2,0.1-0.4,0.2-0.5,0.3C4,68.6,3.9,68.9,4,69.2c0.1,0.2,0.2,0.4,0.5,0.6c0,0,0.1,0,0.1,0.1c0.8,0.6,2.3,0.8,3.3,0.5
	c0.5-0.2,0.8-0.5,0.8-0.8c0-0.1,0-0.2,0-0.3c0-0.3-0.2-0.5-0.5-0.8c-0.2-0.2-0.5-0.3-0.8-0.4C7,67.9,6.5,67.9,6,67.9
	C5.5,67.9,5.1,67.9,4.7,68 M229.8,65.6c-0.4,0.2-0.9,0.4-1.3,0.7c-1,0.6-1.8,1.3-2.2,1.9c-0.7,1.1-0.5,2.1,0.6,2.6
	c0.7,0.4,1.6,0.5,2.6,0.5c0.7,0,1.5-0.1,2.2-0.2c1.1-0.2,2.3-0.7,3.3-1.2c0.2-0.1,0.4-0.2,0.6-0.4c1.5-1,2.2-2.2,2-3.1
	c0-0.3-0.2-0.5-0.4-0.8c-0.2-0.2-0.3-0.3-0.6-0.5c-0.6-0.4-1.5-0.5-2.5-0.5C232.8,64.6,231.2,65,229.8,65.6 M13.6,64.7
	c-0.2,0.1-0.4,0.2-0.5,0.3c-0.3,0.3-0.3,0.6-0.2,1c0.1,0.2,0.2,0.4,0.5,0.5c0.2,0.2,0.5,0.3,0.8,0.4c0.8,0.3,1.8,0.4,2.4,0.1
	c0.2-0.1,0.3-0.1,0.5-0.2c0.5-0.4,0.4-1-0.3-1.5c-0.6-0.5-1.5-0.7-2.3-0.7C14.3,64.5,13.9,64.6,13.6,64.7 M196.2,66
	c-2.1,1.3-2.8,2.7-1.9,3.6c0.2,0.2,0.5,0.4,0.8,0.5c1.5,0.6,4.1,0.3,6.4-0.7c0.6-0.2,1.1-0.5,1.6-0.8c0.6-0.3,1-0.7,1.4-1.1l0,0l0,0
	c0.4-0.4,0.7-0.9,0.9-1.3l0,0l0,0c0.2-0.8-0.1-1.5-1.1-1.8c-0.5-0.2-1.1-0.3-1.8-0.3C200.6,64.1,198.1,64.8,196.2,66 M253.6,62.6
	c-0.9,0.2-1.8,0.6-2.6,1.1c-1.1,0.6-1.9,1.4-2.3,2.1c-0.6,1-0.5,2,0.5,2.7c0.7,0.4,1.7,0.7,2.8,0.7c1.6,0,3.4-0.4,5-1.3l0,0l0,0
	c0,0,0.1,0,0.1-0.1c0,0,0,0,0.1,0c1.2-0.7,2-1.5,2.4-2.3c0.5-1,0.3-1.9-0.6-2.5c-0.3-0.2-0.5-0.3-0.9-0.4c-0.6-0.2-1.2-0.3-1.9-0.3
	C255.4,62.3,254.5,62.4,253.6,62.6 M188.1,62.4c-0.3,0.2-0.6,0.3-0.9,0.5c-0.4,0.2-0.7,0.5-0.9,0.7c-0.9,0.9-0.9,1.8,0.2,2.2
	c0.3,0.1,0.7,0.1,1.1,0.1c0.7,0,1.5-0.1,2.2-0.4c0.8-0.2,1.6-0.6,2.3-1.1c1-0.6,1.5-1.3,1.6-1.9c0-0.5-0.2-0.8-0.8-1
	c-0.3-0.1-0.7-0.2-1.1-0.2C190.6,61.5,189.3,61.8,188.1,62.4 M221.9,60.4c-0.9,0.3-1.8,0.7-2.6,1.2c-2.7,1.6-3.3,3.6-1.4,4.5
	c0.3,0.1,0.6,0.3,1,0.3l0,0l0,0c0.4,0.1,0.9,0.1,1.4,0.1c1.6,0,3.5-0.5,5.1-1.3l0,0l0,0c0.2-0.1,0.4-0.2,0.6-0.3
	c0.2-0.1,0.3-0.2,0.5-0.3c1.9-1.3,2.6-2.9,1.6-3.9c-0.2-0.2-0.3-0.3-0.6-0.4c-0.5-0.3-1.1-0.4-1.9-0.4l0,0l0,0l0,0l0,0
	c-0.1,0-0.1,0-0.2,0l0,0l0,0l0,0c0,0,0,0-0.1,0C224.2,59.9,223,60.1,221.9,60.4 M178.7,59.7c-0.4,0.2-0.7,0.3-1,0.6
	c-0.2,0.2-0.4,0.4-0.6,0.5c-0.3,0.4-0.4,0.7-0.2,1c0.1,0.1,0.2,0.1,0.4,0.2c0.6,0.2,1.5,0,2.4-0.4c0.3-0.1,0.7-0.3,1-0.5
	c0.7-0.5,1-0.9,0.9-1.3v-0.1c-0.1-0.2-0.2-0.3-0.5-0.3c-0.2,0-0.3-0.1-0.5-0.1C179.9,59.3,179.3,59.4,178.7,59.7 M245.7,56.9
	c-1.1,0.3-2.3,0.7-3.3,1.3c-2.7,1.6-3.4,3.6-1.7,4.6c0.1,0.1,0.2,0.1,0.4,0.2c0.6,0.3,1.4,0.4,2.2,0.4c1.5,0,3.1-0.4,4.6-1.1
	c0.2-0.1,0.4-0.2,0.6-0.3c0.2-0.1,0.3-0.2,0.5-0.3c1.8-1.2,2.6-2.7,2-3.7c-0.1-0.3-0.4-0.5-0.7-0.7c-0.2-0.1-0.5-0.3-0.7-0.3
	c-0.5-0.2-1.1-0.2-1.8-0.2C247.1,56.7,246.4,56.8,245.7,56.9 M209.7,57.3c-2.6,1.7-3.2,3.7-1.3,4.5c1.7,0.7,4.7,0.3,7.2-1
	c0.3-0.2,0.6-0.3,0.9-0.5c0.1-0.1,0.2-0.2,0.4-0.2c1.3-0.9,2.1-2,2.2-2.8c0-0.6-0.3-1.2-1.1-1.6c-0.1-0.1-0.3-0.1-0.4-0.2
	c-0.5-0.1-1-0.2-1.6-0.2C214,55.3,211.6,56.1,209.7,57.3 M270.2,54.3L270.2,54.3L270.2,54.3c-1,0-2.1,0.2-3.1,0.5
	c-0.7,0.2-1.4,0.5-2,0.9c-1,0.6-1.7,1.2-2.2,1.8c-0.9,1.2-0.9,2.4,0.2,3.1l0,0l0,0l0,0l0,0l0,0c0.2,0.1,0.3,0.2,0.5,0.3l0,0l0,0
	c1.4,0.6,3.7,0.5,5.7-0.2c0.5-0.2,1.1-0.4,1.6-0.7s1-0.6,1.3-0.9c1.7-1.4,2.1-3.1,0.8-4.1C272.4,54.5,271.4,54.3,270.2,54.3
	L270.2,54.3 M201.1,53.1c-0.3,0.1-0.5,0.3-0.8,0.5c-0.2,0.1-0.3,0.2-0.5,0.3c-1.3,1-1.8,2.1-1.4,2.8c0.1,0.3,0.4,0.5,0.8,0.7
	c0.4,0.1,0.9,0.2,1.4,0.2c1.1,0,2.5-0.3,3.8-0.8c0.6-0.3,1.2-0.6,1.7-0.9c0.6-0.4,1.1-0.8,1.4-1.2c0.3-0.4,0.5-0.8,0.6-1.2
	c0.1-0.6-0.2-1.1-0.9-1.4c-0.4-0.2-0.9-0.2-1.4-0.2C204.3,51.8,202.6,52.3,201.1,53.1 M238.6,51.4c-1.2,0.1-2.5,0.4-3.8,0.9
	c-0.5,0.2-1,0.5-1.5,0.8c-2.6,1.6-3.3,3.7-1.6,4.6c0.4,0.2,0.9,0.4,1.5,0.4l0,0l0,0c0.3,0,0.7,0,1,0c1.4,0,3-0.5,4.5-1.2
	c0.3-0.1,0.5-0.3,0.8-0.4c0.4-0.2,0.7-0.5,1-0.7c1.1-0.9,1.7-2,1.5-2.8l0,0l0,0c-0.1-0.4-0.4-0.8-0.9-1.1c-0.2-0.1-0.4-0.2-0.7-0.3
	l0,0l0,0c-0.3-0.1-0.7-0.2-1.1-0.2c-0.1,0-0.3,0-0.4,0C238.9,51.4,238.7,51.4,238.6,51.4 M191.7,50.1c-0.2,0.1-0.4,0.2-0.5,0.3
	c-0.2,0.2-0.4,0.3-0.6,0.5c-0.4,0.4-0.6,0.9-0.4,1.2c0.1,0.2,0.2,0.3,0.5,0.4c0.2,0.1,0.4,0.1,0.7,0.1c0.9,0,2.2-0.4,3.1-1.1
	c0.7-0.5,1.1-1.1,1.1-1.5c0-0.3-0.2-0.5-0.5-0.6c-0.2-0.1-0.4-0.1-0.6-0.1C193.6,49.3,192.6,49.6,191.7,50.1 M259.9,48.5
	c-1.1,0.3-2.2,0.7-3.2,1.3c-1.3,0.8-2.2,1.7-2.5,2.6c-0.4,0.9-0.2,1.7,0.6,2.2c0.3,0.2,0.7,0.3,1.1,0.5c0.7,0.2,1.6,0.2,2.6,0.1
	c1.2-0.2,2.5-0.5,3.6-1.2c0.1-0.1,0.2-0.1,0.4-0.2c0.1-0.1,0.3-0.2,0.4-0.3c2.1-1.4,2.9-3.2,1.9-4.3c-0.1-0.1-0.2-0.2-0.3-0.3
	c-0.2-0.2-0.5-0.3-0.9-0.4l0,0l0,0c-0.5-0.1-1-0.2-1.6-0.2C261.3,48.3,260.6,48.3,259.9,48.5 M227.3,46.9c-1.1,0.3-2.2,0.8-3.2,1.4
	c-2.4,1.6-3.1,3.5-1.4,4.3c0.4,0.2,1,0.3,1.6,0.4c1.7,0.1,4-0.5,5.8-1.7c2.4-1.6,3.1-3.5,1.5-4.4c-0.5-0.2-1.1-0.4-1.9-0.4
	C228.9,46.5,228.1,46.6,227.3,46.9 M280.8,47c-0.4,0.2-0.7,0.3-1.1,0.5c-0.2,0.1-0.4,0.2-0.6,0.4c-1.4,1-2.2,2.2-2.3,3.2
	c0,0.5,0.2,1,0.7,1.4s1.2,0.7,2,0.7c0.9,0.1,2,0,3.1-0.3c0.8-0.2,1.6-0.5,2.3-0.9c0.7-0.4,1.3-0.9,1.8-1.3c1.2-1.3,1.5-2.7,0.4-3.6
	c-0.6-0.5-1.6-0.8-2.7-0.8C283.4,46.2,282.1,46.4,280.8,47 M251.5,43c-1.1,0.2-2.3,0.7-3.3,1.3c-1.4,0.9-2.2,1.9-2.3,2.8l0,0l0,0
	c-0.1,0.6,0.2,1.1,0.7,1.4c0.5,0.3,1.2,0.5,2.1,0.5c0.8,0,1.8-0.2,2.7-0.5c0.7-0.2,1.4-0.6,2.1-1c2.3-1.4,3.1-3.4,1.7-4.3
	c-0.2-0.1-0.4-0.2-0.6-0.3l0,0l0,0c-0.4-0.1-0.9-0.2-1.5-0.2C252.5,42.8,252,42.9,251.5,43 M217,42.9c-0.8,0.3-1.5,0.7-2.2,1.1
	c-2,1.4-2.5,2.9-1.1,3.6c1,0.4,2.7,0.3,4.4-0.4c0.6-0.2,1.2-0.5,1.7-0.9c0.3-0.2,0.5-0.4,0.7-0.6c0.7-0.6,1.1-1.3,1.2-1.9
	c0-0.5-0.2-0.9-0.8-1.2c-0.4-0.2-0.8-0.3-1.4-0.3C218.8,42.4,217.9,42.5,217,42.9 M273.7,40.1c-0.8,0.2-1.5,0.6-2.2,1
	s-1.3,0.9-1.7,1.4c-1.1,1.2-1.3,2.5-0.2,3.3c0.6,0.4,1.5,0.6,2.5,0.6c1.4,0,2.9-0.4,4.4-1.1c0.1-0.1,0.2-0.1,0.3-0.2
	c0.1-0.1,0.2-0.1,0.3-0.2c0.7-0.5,1.3-1,1.7-1.5c0.9-1.1,1-2.3,0-3.1c-0.1-0.1-0.3-0.2-0.5-0.3c-0.5-0.3-1.2-0.4-2-0.4
	C275.5,39.7,274.6,39.8,273.7,40.1 M207,38.8c-0.7,0.3-1.4,0.6-2.1,1.1c-0.3,0.2-0.6,0.5-0.8,0.7c-1,1-1,2,0,2.4
	c0.1,0,0.2,0.1,0.4,0.1s0.4,0.1,0.7,0.1c0.4,0,0.9-0.1,1.3-0.2c1-0.2,2-0.7,2.9-1.3c1.7-1.2,2.2-2.6,0.9-3.1
	c-0.3-0.1-0.6-0.2-1.1-0.2C208.6,38.4,207.8,38.5,207,38.8 M295.9,38.4c-0.4,0.2-0.9,0.4-1.3,0.6c-1.4,0.8-2.4,1.8-2.7,2.8
	c-0.1,0.4-0.2,0.8-0.1,1.1c0.1,0.4,0.3,0.8,0.6,1.1c0.4,0.4,1,0.6,1.8,0.8c0.6,0.1,1.2,0.1,1.9,0c1.2-0.1,2.5-0.5,3.6-1.2
	c2.3-1.3,3.4-3.2,2.7-4.5c-0.1-0.2-0.2-0.4-0.4-0.5c-0.6-0.6-1.6-0.9-2.8-0.9C298.2,37.7,297,37.9,295.9,38.4 M243,37.3L243,37.3
	L243,37.3c-0.8,0.1-1.6,0.3-2.4,0.7c-0.5,0.2-1.1,0.5-1.6,0.9c-1.4,0.9-2.2,1.9-2.2,2.8c-0.1,0.6,0.2,1.1,0.8,1.4
	c0.1,0.1,0.2,0.1,0.3,0.2c0.4,0.2,0.9,0.2,1.5,0.2c0.7,0,1.5-0.1,2.3-0.4c0.9-0.3,1.8-0.7,2.6-1.2c2.1-1.4,2.9-3.1,1.8-4l0,0l0,0
	c-0.1-0.1-0.2-0.1-0.2-0.2c-0.1,0-0.2-0.1-0.3-0.1c-0.4-0.2-1-0.3-1.6-0.3C243.6,37.3,243.3,37.3,243,37.3 M196.5,36
	c-0.3,0.1-0.7,0.3-1,0.5l0,0c-0.7,0.5-0.9,1.1-0.5,1.3c0,0,0.1,0.1,0.2,0.1c0.1,0,0.2,0,0.4,0c0.6,0,1.4-0.3,2-0.7
	c0.7-0.5,0.9-1,0.5-1.3c0,0-0.1-0.1-0.2-0.1c-0.1,0-0.2-0.1-0.4-0.1C197.2,35.8,196.9,35.8,196.5,36 M264.5,34.8
	c-0.3,0.1-0.6,0.3-0.9,0.5c0,0-0.1,0-0.1,0.1c-1.4,1-2.1,2.1-1.7,2.9c0.1,0.2,0.2,0.4,0.4,0.5c0.7,0.5,2,0.6,3.3,0.2
	c0.7-0.2,1.4-0.5,2-0.9c0.4-0.2,0.7-0.5,1-0.7c1.1-1,1.3-2.2,0.5-2.8c-0.1-0.1-0.2-0.1-0.3-0.2c-0.4-0.2-0.8-0.3-1.4-0.3
	C266.4,34.2,265.4,34.4,264.5,34.8 M230.6,33.4c-0.3,0.1-0.5,0.3-0.8,0.5c-1.6,1.1-2.2,2.3-1.7,3.1c0.1,0.2,0.3,0.3,0.5,0.4
	c0,0,0,0,0.1,0c0.4,0.2,0.8,0.2,1.3,0.2c0.4,0,0.9-0.1,1.4-0.2c1-0.2,2-0.7,3-1.3c1.9-1.3,2.5-2.9,1.2-3.5c-0.4-0.2-0.8-0.3-1.4-0.3
	C233.1,32.4,231.8,32.8,230.6,33.4 M288.1,31.5c-0.5,0.2-0.9,0.4-1.3,0.7c-0.2,0.1-0.5,0.3-0.7,0.4c-1.7,1.2-2.3,2.8-1.7,3.8
	c0.1,0.1,0.2,0.3,0.4,0.4c0.2,0.2,0.4,0.3,0.7,0.4c0.5,0.2,1.1,0.3,1.7,0.3c0.4,0,0.7,0,1.1-0.1c1.1-0.2,2.2-0.6,3.2-1.2
	c0.1,0,0.1-0.1,0.2-0.1c2.3-1.4,3.1-3.4,1.9-4.5c-0.6-0.5-1.4-0.7-2.4-0.7C290.2,30.9,289.1,31.1,288.1,31.5 M311.5,29.8
	c-0.5,0.2-1,0.4-1.5,0.7c-1.1,0.6-1.9,1.4-2.4,2.1c-0.5,0.8-0.6,1.6-0.3,2.2l0,0l0,0l0,0l0,0c0.1,0.2,0.2,0.4,0.4,0.6
	c0.4,0.4,1,0.6,1.6,0.8c1.4,0.3,3.3,0,5-0.8c0.1-0.1,0.3-0.2,0.4-0.2s0.1-0.1,0.2-0.1c2.4-1.4,3.4-3.6,2.2-4.9
	c-0.6-0.6-1.6-0.9-2.8-0.9C313.4,29.3,312.4,29.4,311.5,29.8 M220.8,28.9c-0.2,0.1-0.4,0.2-0.6,0.4c-0.2,0.1-0.3,0.3-0.5,0.4
	c-1.1,1-1.3,2-0.4,2.4c0.3,0.1,0.6,0.2,1,0.2c0.7,0,1.4-0.2,2.2-0.5c0.5-0.2,1-0.5,1.4-0.8c0.6-0.4,1-0.8,1.2-1.2
	c0.4-0.7,0.3-1.3-0.3-1.6c-0.3-0.1-0.6-0.2-1-0.2C223,28,221.8,28.3,220.8,28.9 M255.4,28.7c-0.3,0.2-0.6,0.3-0.9,0.5
	c-0.4,0.3-0.8,0.6-1.1,0.9c-0.2,0.2-0.4,0.5-0.6,0.7c-0.3,0.6-0.5,1.1-0.3,1.5c0.1,0.2,0.3,0.4,0.5,0.6c0.3,0.2,0.8,0.3,1.3,0.4
	c1.2,0.1,2.8-0.3,4.1-1.1c0.1-0.1,0.2-0.1,0.3-0.2l0.1-0.1c1.4-0.9,2-2,1.9-2.8c-0.1-0.3-0.2-0.6-0.6-0.8c-0.4-0.3-1-0.4-1.6-0.4
	C257.6,27.9,256.5,28.2,255.4,28.7 M279.4,25.9c-0.1,0.1-0.2,0.1-0.3,0.2c-0.4,0.2-0.7,0.5-0.9,0.7c-0.9,0.9-1.1,1.9-0.4,2.4
	c0.4,0.3,0.9,0.4,1.5,0.4c1,0,2.1-0.3,3.1-0.9c0.1-0.1,0.2-0.1,0.3-0.2c1.4-0.9,1.9-2.2,1.2-2.9l-0.1-0.1c-0.4-0.3-0.9-0.4-1.5-0.4
	C281.4,25.1,280.3,25.3,279.4,25.9 M210.9,24.7c-0.2,0.1-0.4,0.2-0.6,0.4c-0.3,0.2-0.6,0.5-0.7,0.7c-0.2,0.3-0.3,0.5-0.2,0.8
	c0,0.2,0.2,0.3,0.4,0.4s0.4,0.1,0.6,0.1c0.6,0,1.5-0.3,2.2-0.7c0.1-0.1,0.2-0.1,0.3-0.2c0.5-0.4,0.8-0.7,0.9-1.1
	c0-0.1,0.1-0.2,0.1-0.3c0-0.3-0.1-0.5-0.4-0.6c-0.2-0.1-0.4-0.1-0.6-0.1C212.4,24.1,211.6,24.3,210.9,24.7 M245.9,23.3
	c-0.2,0.1-0.3,0.2-0.5,0.3c-0.2,0.1-0.3,0.2-0.5,0.4c-0.7,0.6-1.1,1.1-1.2,1.6c0,0.2,0,0.4,0,0.5c0.1,0.2,0.2,0.4,0.5,0.6
	s0.8,0.3,1.3,0.3c1.1,0,2.4-0.4,3.6-1.2c1.7-1.1,2.2-2.5,1.2-3.1c-0.3-0.2-0.8-0.3-1.3-0.3C248.1,22.4,247,22.8,245.9,23.3
	 M302.6,22.9c-0.1,0.1-0.3,0.2-0.4,0.2c-0.9,0.6-1.7,1.2-2.1,1.9c-0.7,1-0.7,2,0,2.7c0,0,0,0,0.1,0.1c0.6,0.6,1.7,0.8,3,0.7
	c1.2-0.1,2.5-0.5,3.6-1.1s1.8-1.4,2.3-2.1c0.6-0.9,0.5-1.9-0.1-2.5c-0.1-0.1-0.1-0.1-0.2-0.2c-0.5-0.4-1.3-0.6-2.2-0.6
	C305.2,21.9,303.9,22.3,302.6,22.9 M327.1,21.2c-0.5,0.2-1.1,0.4-1.6,0.7c-1.5,0.8-2.5,1.9-2.7,3c-0.1,0.3-0.1,0.5-0.1,0.8
	c0,0.4,0.2,0.7,0.5,1c0.2,0.2,0.4,0.4,0.7,0.5c1.1,0.5,2.8,0.5,4.5-0.1c0.5-0.2,0.9-0.4,1.3-0.6c2.1-1.1,3.1-2.8,2.7-4.1
	c-0.1-0.2-0.2-0.4-0.4-0.6c-0.6-0.6-1.6-0.9-2.7-0.9C328.7,20.9,327.9,21,327.1,21.2 M271.8,19.2c-0.4,0.1-0.7,0.3-1,0.5
	c-1.2,0.8-1.6,1.8-1.1,2.3l0.1,0.1c0.5,0.4,1.6,0.3,2.6,0c0.3-0.1,0.6-0.3,1-0.5c0.3-0.2,0.5-0.4,0.7-0.6c0.4-0.4,0.6-0.9,0.6-1.3
	c0-0.2-0.1-0.4-0.3-0.5c-0.1-0.1-0.3-0.2-0.5-0.2s-0.4-0.1-0.6-0.1C272.8,18.9,272.3,19,271.8,19.2 M236.4,18.6
	c-0.1,0.1-0.2,0.2-0.3,0.3c-0.4,0.4-0.6,0.7-0.7,1c0,0.2,0,0.3,0.1,0.4s0.1,0.1,0.2,0.2c0.2,0.1,0.4,0.1,0.7,0.1
	c0.4,0,0.8-0.1,1.3-0.3c0.3-0.1,0.7-0.3,1-0.5c0.4-0.3,0.7-0.6,0.9-0.9c0.1-0.3,0.2-0.6,0-0.8c-0.1-0.1-0.1-0.1-0.2-0.2
	c-0.2-0.1-0.4-0.1-0.7-0.1C238,17.8,237.1,18.1,236.4,18.6 M295.4,17.1c-0.4,0.2-0.6,0.5-0.8,0.8c-0.1,0.2-0.2,0.4-0.2,0.6
	s0.1,0.3,0.2,0.5c0.1,0.1,0.3,0.2,0.5,0.2c0.5,0.1,1.2,0,1.8-0.3c0.1,0,0.2-0.1,0.3-0.2c0.1-0.1,0.3-0.2,0.4-0.3
	c0.5-0.4,0.8-1,0.6-1.3c0-0.1-0.1-0.1-0.1-0.2c-0.2-0.2-0.5-0.3-0.9-0.3C296.6,16.6,296,16.7,295.4,17.1 M339.9,15.1
	c-2,1.1-2.8,2.8-1.8,3.8c0.3,0.3,0.7,0.5,1.1,0.6c0.5,0.1,1,0.2,1.6,0.1c0.8-0.1,1.7-0.4,2.6-0.8c0.6-0.3,1.1-0.7,1.5-1.1
	c0.8-0.9,1.1-2,0.4-2.7c-0.1-0.1-0.2-0.2-0.3-0.2c-0.5-0.3-1.1-0.5-1.9-0.5C342,14.2,340.9,14.5,339.9,15.1 M319.6,13.6
	c-0.5,0.2-1,0.4-1.5,0.6c-0.3,0.2-0.5,0.3-0.8,0.5c-1.6,1.2-2.1,2.8-1.2,3.7c0.3,0.3,0.6,0.5,1.1,0.6c1,0.3,2.3,0.2,3.6-0.3
	c0.4-0.1,0.8-0.3,1.1-0.5c2.2-1.2,3.1-3.1,2-4.2c-0.2-0.2-0.5-0.4-0.8-0.5c-0.4-0.2-0.9-0.2-1.5-0.2C321,13.2,320.3,13.4,319.6,13.6
	 M262.3,13.4c-0.1,0.1-0.2,0.1-0.3,0.2c-0.9,0.6-1.2,1.4-0.7,1.7c0.2,0.1,0.4,0.2,0.7,0.2c0.5,0,1.1-0.2,1.6-0.5
	c0.1,0,0.1-0.1,0.2-0.1c0.5-0.3,0.8-0.7,0.9-1c0.1-0.2,0-0.3,0-0.5c0-0.1-0.1-0.2-0.2-0.2c-0.2-0.1-0.5-0.2-0.7-0.2
	C263.4,13,262.8,13.1,262.3,13.4 M286.9,9.9c-0.7,0.5-1.1,1-1,1.5l0,0l0,0c0,0.1,0.1,0.3,0.2,0.4c0.2,0.1,0.4,0.2,0.7,0.2
	c0.6,0,1.3-0.1,1.9-0.5c0.9-0.6,1.3-1.4,0.8-1.8c-0.2-0.2-0.5-0.2-0.8-0.2C288.2,9.3,287.5,9.5,286.9,9.9 M312.9,8.4
	c-0.9,0.5-1.3,1.4-0.8,1.8c0.2,0.2,0.5,0.2,0.9,0.2c0.5,0,1.1-0.2,1.7-0.5c0.9-0.5,1.3-1.4,0.8-1.8c-0.2-0.2-0.5-0.3-0.9-0.3
	C314,7.9,313.4,8.1,312.9,8.4 M252.6,7.5c-0.6,0.4-0.9,0.9-0.8,1.3c0,0.1,0.1,0.2,0.2,0.3c0.1,0.1,0.3,0.1,0.5,0.1
	c0.4,0,1-0.1,1.4-0.4c0.1-0.1,0.2-0.1,0.3-0.2c0,0,0.1,0,0.1-0.1c0.7-0.5,0.9-1.2,0.5-1.5c-0.1-0.1-0.4-0.1-0.6-0.1
	C253.8,6.9,253.2,7.1,252.6,7.5"/>
</svg>
