<svg width="256" height="256" viewBox="0 0 256 256" fill="none" xmlns="http://www.w3.org/2000/svg">
<g clip-path="url(#clip0_244_1604)">
<path d="M43.4792 172.364H28V186.794H43.4792V172.364Z" fill="white"/>
<path d="M227.892 172.364H212.412V186.794H227.892V172.364Z" fill="white"/>
<path d="M33.208 163.72H28V132.11H46.4087C50.8571 132.11 53.5335 132.87 55.6673 134.787C57.6203 136.559 58.7052 139.163 58.7052 141.984C58.7052 144.009 58.1266 146.034 57.0778 147.553C54.3653 151.496 49.6275 151.496 46.8065 151.496H33.208V163.72ZM33.208 146.794H46.264C47.8192 146.794 49.8083 146.794 51.2188 145.781C52.4485 144.949 53.208 143.43 53.208 141.731C53.208 140.32 52.8101 139.199 51.9783 138.331C50.4231 136.703 47.8553 136.703 45.7939 136.703H33.208V146.794Z" fill="white"/>
<path d="M80.2242 164.552C75.1248 164.552 70.9656 163.358 67.8553 161.08C65.0343 159.018 61.707 155.184 61.707 148.313C61.707 136.595 70.8571 131.351 79.9349 131.351C91.0018 131.423 98.4159 138.222 98.4159 148.349C98.3797 159.524 89.2296 164.552 80.2242 164.552ZM80.0072 136.052C79.8264 136.052 79.6456 136.052 79.4647 136.052C73.3526 136.233 66.8427 139.488 66.8427 148.024C66.8427 149.76 67.1682 153.014 69.302 155.51C71.6166 158.331 75.2694 159.778 80.2242 159.778C92.2676 159.778 93.2079 150.7 93.2079 147.915C93.2079 140.718 88 136.052 80.0072 136.052Z" fill="white"/>
<path d="M137.801 163.72H131.074L121.128 151.496H107.674V163.72H102.503V132.11H122.973C125.613 132.147 128.868 132.183 131.544 134.714C132.557 135.655 134.293 137.825 134.293 141.658C134.293 148.53 129.338 150.121 126.843 150.664L137.801 163.72ZM107.638 146.866H121.671C123.769 146.866 126.589 146.866 128.145 144.732C128.759 143.937 129.049 142.924 129.049 141.767C129.049 140.646 128.759 139.597 128.253 138.801C127.096 136.884 125.215 136.812 123.443 136.776H123.298H107.674V146.866H107.638Z" fill="white"/>
<path d="M155.378 163.72H150.242V136.74H138.271V132.11H167.421V136.74H155.414V163.72H155.378Z" fill="white"/>
<path d="M199.609 163.72H193.714L181.237 138.946L169.085 163.72H163.335L178.995 132.11H184.022L199.609 163.72Z" fill="white"/>
<path d="M227.819 163.72H203.19V132.11H208.362V159.018H227.819V163.72Z" fill="white"/>
<path fill-rule="evenodd" clip-rule="evenodd" d="M197.476 112.87C195.631 109.108 193.497 105.456 191.183 102.128C192.232 100.175 192.738 98.0778 192.738 95.7993C192.738 88.566 187.06 82.7071 180.08 82.7071C177.837 82.7071 175.74 83.2857 173.859 84.4069C160.514 74.3165 144.745 69 128.289 69C99.1755 69 72.3762 86.3599 59.1755 113.014H28.0724V122.382H65.0706V122.128L65.2514 121.731C76.029 95.4014 100.767 78.4394 128.253 78.4394C142.647 78.4394 156.427 83.0325 168.109 91.7125C167.675 93.0506 167.458 94.425 167.458 95.8354C167.458 103.033 173.099 108.855 180.007 108.855C181.273 108.855 182.647 108.602 183.913 108.204C186.951 112.617 189.447 117.137 191.291 121.731L191.472 122.165H191.544V122.49H228V112.87H197.476V112.87ZM180.116 102.707C176.354 102.707 173.353 99.5244 173.353 95.6546C173.353 91.7848 176.391 88.6022 180.116 88.6022C183.877 88.6022 186.915 91.7486 186.915 95.6546C186.879 99.5244 183.841 102.707 180.116 102.707Z" fill="white"/>
<path d="M49.085 172.364H54.0759C56.5714 172.364 57.7287 172.653 58.7052 173.195C60.0434 173.919 60.9114 175.148 60.9114 176.667C60.9114 178.186 60.0072 179.416 58.7052 180.103C57.6926 180.646 56.5352 180.935 54.0759 180.935H50.8933V186.722H49.1211V172.364H49.085ZM50.8933 179.597H53.4611C55.3779 179.597 56.0289 179.597 57.0777 179.235C58.4882 178.693 59.1392 177.68 59.1392 176.631C59.1392 175.546 58.4521 174.534 57.0777 173.991C56.0651 173.629 55.4141 173.629 53.4611 173.629H50.8933V179.597V179.597Z" fill="white"/>
<path d="M75.0887 172.364H77.0778L84.7812 186.722H82.8283L80.2243 181.875H71.906L69.2659 186.722H67.4214L75.0887 172.364ZM72.557 180.573H79.501L76.0651 173.955L72.557 180.573Z" fill="white"/>
<path d="M95.3055 172.364H97.0777V185.42H104.492V186.722H95.3055V172.364Z" fill="white"/>
<path d="M114.438 172.364H124.275V173.666H116.246V178.801H124.022V180.103H116.246V185.383H124.275V186.685H114.438V172.364Z" fill="white"/>
<path d="M135.703 172.364H140.26C142.647 172.364 143.841 172.581 144.673 172.906C146.662 173.666 147.891 175.221 147.891 176.993C147.891 179.09 146.011 181.188 142.539 181.369L147.602 186.722H145.36L139.248 180.212C141.526 180.212 142.322 180.212 143.117 179.995C145.07 179.561 146.083 178.222 146.083 176.957C146.083 175.836 145.287 174.678 144.13 174.208C143.045 173.774 142.141 173.666 140.658 173.666H137.512V186.722H135.74V172.364H135.703Z" fill="white"/>
<path d="M158.778 172.364H161.562L168.072 184.588L174.618 172.364H177.367V186.722H175.595V173.919H175.559L168.832 186.722H167.313L160.622 173.919H160.586V186.722H158.778V172.364V172.364Z" fill="white"/>
<path d="M198.018 172.074C203.045 172.074 207.53 175.293 207.53 179.488C207.53 183.72 203.045 186.902 198.018 186.902C192.919 186.902 188.542 183.575 188.542 179.561C188.506 175.076 193.208 172.074 198.018 172.074ZM198.018 185.636C202.177 185.636 205.721 182.924 205.721 179.524C205.721 176.161 202.25 173.376 198.018 173.376C193.967 173.376 190.315 176.016 190.315 179.597C190.315 182.888 193.823 185.636 198.018 185.636Z" fill="white"/>
</g>
<defs>
<clipPath id="clip0_244_1604">
<rect width="256" height="256" fill="white"/>
</clipPath>
</defs>
</svg>
