<svg width="501" height="133" viewBox="0 0 501 133" fill="none" xmlns="http://www.w3.org/2000/svg">
<path fill-rule="evenodd" clip-rule="evenodd" d="M67.8825 70.3181H44.809C42.2546 70.3181 41.4699 68.7487 41.4699 66.6117V12H33.3057V74.0746C33.3048 75.1543 33.7063 76.1954 34.4317 76.995C35.1572 77.7945 36.1546 78.295 37.2292 78.3988H67.8825V70.3181Z" fill="#DF1797"/>
<path fill-rule="evenodd" clip-rule="evenodd" d="M67.8823 81.4542V89.5349H26.9278C26.2964 89.5513 25.6683 89.4381 25.0823 89.2025C24.4963 88.9668 23.9648 88.6136 23.5205 88.1647C23.0763 87.7157 22.7287 87.1805 22.4992 86.5921C22.2697 86.0036 22.1632 85.3744 22.1862 84.7432C22.1862 81.571 22.1862 12 22.1862 12H30.2669V76.4454C30.2669 79.267 31.5024 81.4542 34.9584 81.4542H67.8823Z" fill="#DF1797"/>
<path fill-rule="evenodd" clip-rule="evenodd" d="M11.0001 12H19.1142V87.0138C19.0286 87.7467 19.106 88.4894 19.3408 89.1889C19.5756 89.8883 19.962 90.5273 20.4724 91.0601C20.9829 91.5929 21.6047 92.0063 22.2935 92.2708C22.9823 92.5353 23.721 92.6444 24.4569 92.5902H67.8657V100.654H20.6503C18.0761 100.637 15.6141 99.5981 13.8048 97.767C11.9955 95.9358 10.9868 93.4614 11.0001 90.8872V12Z" fill="#DF1797"/>
<path fill-rule="evenodd" clip-rule="evenodd" d="M44.3916 12H52.5725V56.0433C52.5208 56.4591 52.5631 56.8813 52.696 57.2787C52.829 57.6761 53.0493 58.0387 53.3407 58.3398C53.6322 58.6408 53.9874 58.8728 54.3803 59.0185C54.7732 59.1643 55.1938 59.2202 55.6111 59.1821H67.8824V67.2628H48.5655C48.0129 67.3295 47.4523 67.2721 46.9248 67.0946C46.3972 66.9172 45.9159 66.6242 45.5159 66.2371C45.116 65.8499 44.8075 65.3784 44.613 64.8568C44.4185 64.3353 44.3428 63.7769 44.3916 63.2224V12Z" fill="#DF1797"/>
<path fill-rule="evenodd" clip-rule="evenodd" d="M55.6443 42.3522H78.7011C81.2722 42.3522 82.0402 43.9383 82.0402 46.0754C82.0402 47.7449 82.0402 100.687 82.0402 100.687H90.1376V38.5957C90.1385 37.5161 89.737 36.4749 89.0115 35.6754C88.2861 34.8758 87.2887 34.3753 86.2141 34.2715H55.6443V42.3522Z" fill="#DF1797"/>
<path fill-rule="evenodd" clip-rule="evenodd" d="M55.6277 31.2004V23.1197H96.5823C97.2137 23.1033 97.8417 23.2165 98.4277 23.4521C99.0137 23.6878 99.5452 24.041 99.9895 24.4899C100.434 24.9389 100.781 25.4741 101.011 26.0625C101.24 26.651 101.347 27.2802 101.324 27.9114C101.324 31.0836 101.324 100.655 101.324 100.655H93.2598V36.2092C93.2598 33.3876 92.0243 31.2004 88.5683 31.2004H55.6277Z" fill="#DF1797"/>
<path fill-rule="evenodd" clip-rule="evenodd" d="M112.51 100.654H104.396V25.6571C104.484 24.9229 104.409 24.1784 104.175 23.4768C103.942 22.7752 103.555 22.1341 103.045 21.5994C102.534 21.0647 101.911 20.6497 101.221 20.3843C100.531 20.1188 99.7905 20.0094 99.0531 20.064H55.6443V12H102.826C104.104 12.0044 105.368 12.2606 106.546 12.754C107.725 13.2474 108.794 13.9683 109.693 14.8755C110.593 15.7827 111.305 16.8583 111.788 18.0408C112.271 19.2233 112.516 20.4895 112.51 21.767V100.654Z" fill="#DF1797"/>
<path fill-rule="evenodd" clip-rule="evenodd" d="M79.0684 100.654H70.9543V56.6107C71.0059 56.1948 70.9637 55.7727 70.8307 55.3753C70.6978 54.9779 70.4775 54.6153 70.186 54.3142C69.8945 54.0132 69.5393 53.7812 69.1464 53.6354C68.7535 53.4897 68.333 53.4338 67.9156 53.4719H55.6443V45.3912H74.9445C75.4917 45.3329 76.0451 45.396 76.565 45.5761C77.085 45.7562 77.5589 46.0489 77.9527 46.4332C78.3466 46.8175 78.6508 47.284 78.8437 47.7994C79.0365 48.3148 79.1132 48.8664 79.0684 49.4149V100.654Z" fill="#DF1797"/>
<path fill-rule="evenodd" clip-rule="evenodd" d="M298.75 62.387C298.73 61.7364 298.841 61.0885 299.076 60.4815C299.311 59.8746 299.666 59.3212 300.119 58.854C300.572 58.3868 301.115 58.0154 301.714 57.7619C302.314 57.5084 302.958 57.3779 303.609 57.3783H310.855V49.1807H302.257C300.713 49.1806 299.185 49.4862 297.761 50.0798C296.336 50.6733 295.043 51.5432 293.957 52.639C292.87 53.7349 292.012 55.0351 291.43 56.4646C290.849 57.8942 290.556 59.4247 290.57 60.9678V100.654H298.767L298.75 62.387Z" fill="#DF1797"/>
<path fill-rule="evenodd" clip-rule="evenodd" d="M171.312 100.653H179.51V49.0303H171.312V100.653Z" fill="#DF1797"/>
<path fill-rule="evenodd" clip-rule="evenodd" d="M337.067 54.6918C340.851 54.6951 344.548 55.82 347.692 57.9244C350.837 60.0288 353.286 63.0182 354.732 66.5146C356.178 70.011 356.554 73.8576 355.814 77.568C355.074 81.2784 353.25 84.686 350.574 87.3602C347.897 90.0344 344.488 91.855 340.777 92.5919C337.066 93.3288 333.22 92.9489 329.725 91.5003C326.229 90.0516 323.242 87.5993 321.14 84.4532C319.039 81.3071 317.917 77.6085 317.917 73.825C317.93 68.7518 319.953 63.8903 323.542 60.3045C327.131 56.7187 331.994 54.7006 337.067 54.6918V54.6918ZM383.615 54.6918C387.397 54.6984 391.093 55.8261 394.235 57.9325C397.378 60.0389 399.825 63.0294 401.268 66.5262C402.711 70.0229 403.085 73.8689 402.343 77.5782C401.601 81.2875 399.776 84.6936 397.099 87.3661C394.422 90.0386 391.012 91.8575 387.302 92.5931C383.591 93.3286 379.746 92.9478 376.252 91.4987C372.757 90.0495 369.771 87.5972 367.67 84.4514C365.569 81.3057 364.448 77.6078 364.448 73.825C364.461 68.7489 366.486 63.8849 370.078 60.2986C373.671 56.7123 378.539 54.6962 383.615 54.6918V54.6918ZM430.162 54.6918C433.945 54.6984 437.641 55.8261 440.783 57.9325C443.925 60.0389 446.372 63.0294 447.815 66.5262C449.258 70.0229 449.633 73.8689 448.89 77.5782C448.148 81.2875 446.324 84.6936 443.646 87.3661C440.969 90.0386 437.56 91.8575 433.849 92.5931C430.139 93.3286 426.293 92.9478 422.799 91.4987C419.305 90.0495 416.319 87.5972 414.218 84.4514C412.117 81.3057 410.996 77.6078 410.996 73.825C411.005 68.7475 413.028 63.881 416.621 60.2937C420.215 56.7065 425.085 54.6917 430.162 54.6918V54.6918ZM309.719 120.439H318.067V93.359C321.004 96.213 324.543 98.3721 328.424 99.6773C332.305 100.983 336.429 101.401 340.494 100.901C344.558 100.401 348.458 98.996 351.907 96.7893C355.357 94.5826 358.267 91.6304 360.424 88.15C362.88 92.1123 366.307 95.382 370.379 97.6495C374.452 99.917 379.037 101.107 383.698 101.107C388.36 101.107 392.944 99.917 397.017 97.6495C401.09 95.382 404.516 92.1123 406.972 88.15C410.09 93.2028 414.77 97.1006 420.304 99.252C425.838 101.403 431.922 101.691 437.634 100.07C443.346 98.45 448.373 95.0105 451.953 90.274C455.533 85.5374 457.47 79.7622 457.47 73.825C457.47 67.8878 455.533 62.1127 451.953 57.3761C448.373 52.6395 443.346 49.2001 437.634 47.5798C431.922 45.9595 425.838 46.2468 420.304 48.3981C414.77 50.5494 410.09 54.4473 406.972 59.5001C404.516 55.5378 401.09 52.268 397.017 50.0006C392.944 47.7331 388.36 46.543 383.698 46.543C379.037 46.543 374.452 47.7331 370.379 50.0006C366.307 52.268 362.88 55.5378 360.424 59.5001C357.293 54.4497 352.603 50.5557 347.063 48.4067C341.523 46.2577 335.434 45.9706 329.716 47.5886C323.998 49.2066 318.963 52.6419 315.37 57.3753C311.778 62.1086 309.823 67.8828 309.803 73.825L309.719 120.439Z" fill="#DF1797"/>
<path fill-rule="evenodd" clip-rule="evenodd" d="M259.182 54.4069C263.274 54.4122 267.262 55.705 270.579 58.1022C273.896 60.4993 276.374 63.8794 277.664 67.7635H240.666C241.96 63.8753 244.444 60.4929 247.767 58.0956C251.091 55.6983 255.084 54.4078 259.182 54.4069V54.4069ZM259.182 100.821C265.241 100.852 271.134 98.8339 275.901 95.0937C280.669 91.3536 284.032 86.1113 285.444 80.2185H277.53C276.068 84.4408 273.197 88.0314 269.4 90.3875C265.603 92.7436 261.112 93.7219 256.679 93.158C252.246 92.5941 248.142 90.5225 245.056 87.2908C241.97 84.0591 240.09 79.8641 239.731 75.4101H286.195V73.824C286.215 68.465 284.644 63.2207 281.68 58.7558C278.716 54.291 274.493 50.8066 269.547 48.7443C264.6 46.682 259.153 46.1347 253.895 47.1717C248.637 48.2087 243.806 50.7833 240.013 54.5692C236.22 58.3551 233.636 63.1819 232.589 68.4378C231.543 73.6937 232.08 79.142 234.133 84.0922C236.186 89.0424 239.663 93.2717 244.122 96.2439C248.581 99.2161 253.823 100.797 259.182 100.788" fill="#DF1797"/>
<path fill-rule="evenodd" clip-rule="evenodd" d="M214.053 100.653L234.572 49.0303H225.222L208.71 90.5692L192.198 49.0303H182.865L203.368 100.653H214.053Z" fill="#DF1797"/>
<path fill-rule="evenodd" clip-rule="evenodd" d="M461.55 100.653H469.748V31.3496H461.55V100.653Z" fill="#DF1797"/>
<path fill-rule="evenodd" clip-rule="evenodd" d="M143.13 31.3496V87.6642C143.071 88.3238 143.156 88.9884 143.377 89.6125C143.598 90.2367 143.951 90.8058 144.412 91.2811C144.873 91.7565 145.432 92.1268 146.049 92.367C146.666 92.6072 147.327 92.7115 147.989 92.6729H168.124V100.67H140.375C139.657 100.746 138.93 100.665 138.246 100.433C137.562 100.202 136.935 99.8246 136.41 99.3282C135.885 98.8318 135.474 98.2276 135.205 97.5572C134.935 96.8869 134.814 96.1661 134.849 95.4444V31.3496H143.13Z" fill="#DF1797"/>
<path fill-rule="evenodd" clip-rule="evenodd" d="M484.524 36.4096C485.241 36.4096 485.726 36.1257 485.726 35.5247C485.726 34.9236 485.292 34.6732 484.691 34.6732H483.171V36.3428L484.524 36.4096ZM482.236 33.8885H484.791C486.227 33.8885 486.711 34.7734 486.711 35.3911C486.711 35.8339 486.535 36.2586 486.222 36.5717C485.909 36.8848 485.484 37.0607 485.041 37.0607C485.525 37.2276 485.893 37.7285 486.377 38.4965L487.078 39.6318H485.943L485.425 38.7303C484.691 37.428 484.423 37.1776 483.756 37.1776H483.188V39.6318H482.253L482.236 33.8885ZM484.59 32.2189C483.399 32.2189 482.257 32.6921 481.415 33.5344C480.572 34.3766 480.099 35.5189 480.099 36.7101C480.099 37.9012 480.572 39.0435 481.415 39.8858C482.257 40.728 483.399 41.2012 484.59 41.2012C485.18 41.2012 485.764 41.0851 486.309 40.8594C486.854 40.6337 487.349 40.3028 487.766 39.8858C488.183 39.4688 488.514 38.9737 488.74 38.4288C488.965 37.8839 489.082 37.2999 489.082 36.7101C489.082 36.1203 488.965 35.5363 488.74 34.9914C488.514 34.4465 488.183 33.9514 487.766 33.5344C487.349 33.1173 486.854 32.7865 486.309 32.5608C485.764 32.3351 485.18 32.2189 484.59 32.2189V32.2189ZM484.59 42.1028C483.525 42.0995 482.485 41.7808 481.601 41.187C480.716 40.5932 480.028 39.7508 479.622 38.7661C479.216 37.7814 479.11 36.6985 479.319 35.6539C479.527 34.6094 480.041 33.6501 480.794 32.8969C481.547 32.1437 482.506 31.6304 483.551 31.4218C484.595 31.2132 485.678 31.3186 486.663 31.7247C487.648 32.1308 488.49 32.8194 489.084 33.7036C489.678 34.5879 489.996 35.6282 490 36.6934C490 37.4038 489.86 38.1072 489.588 38.7635C489.316 39.4198 488.918 40.0161 488.415 40.5184C487.913 41.0207 487.317 41.4192 486.66 41.691C486.004 41.9629 485.301 42.1028 484.59 42.1028V42.1028Z" fill="#DF1797"/>
<path fill-rule="evenodd" clip-rule="evenodd" d="M171.312 39.6307H179.51V31.3496H171.312V39.6307Z" fill="#DF1797"/>
</svg>
