<?xml version="1.0" encoding="utf-8"?>
<!-- Generator: Adobe Illustrator 25.3.1, SVG Export Plug-In . SVG Version: 6.00 Build 0)  -->
<svg version="1.1" id="Capa_1" xmlns="http://www.w3.org/2000/svg" xmlns:xlink="http://www.w3.org/1999/xlink" x="0px" y="0px"
	 viewBox="0 0 1920 1080" style="enable-background:new 0 0 1920 1080;" xml:space="preserve">
<style type="text/css">
	.st0{opacity:0.3;}
	.st1{clip-path:url(#SVGID_2_);}
	.st2{fill:none;stroke:#000000;stroke-width:0.25;stroke-miterlimit:10;}
</style>
<g class="st0">
	<defs>
		<rect id="SVGID_1_" class="st0" width="1920" height="1080"/>
	</defs>
	<clipPath id="SVGID_2_">
		<use xlink:href="#SVGID_1_"  style="overflow:visible;"/>
	</clipPath>
	<g class="st1">
		<line class="st2" x1="49.4" y1="3.3" x2="0.9" y2="23.3"/>
		<line class="st2" x1="204.4" y1="27.9" x2="132.8" y2="66.4"/>
		<line class="st2" x1="251.5" y1="3.3" x2="204.4" y2="27.9"/>
		<line class="st2" x1="132.8" y1="66.4" x2="29.2" y2="121.3"/>
		<line class="st2" x1="0.9" y1="136.6" x2="29.2" y2="121.3"/>
		<line class="st2" x1="0.9" y1="340.1" x2="59.9" y2="295.8"/>
		<line class="st2" x1="453.3" y1="3.3" x2="420" y2="27.9"/>
		<line class="st2" x1="294.9" y1="121.3" x2="368.6" y2="66.4"/>
		<line class="st2" x1="420" y1="27.9" x2="368.6" y2="66.4"/>
		<line class="st2" x1="193.4" y1="196.3" x2="294.9" y2="121.3"/>
		<line class="st2" x1="59.9" y1="295.8" x2="193.4" y2="196.3"/>
		<line class="st2" x1="1352" y1="1079.3" x2="1309.5" y2="923.1"/>
		<line class="st2" x1="1059.3" y1="3.3" x2="1066.5" y2="27.9"/>
		<line class="st2" x1="1112" y1="196.3" x2="1091.7" y2="121.3"/>
		<line class="st2" x1="1309.5" y1="923.1" x2="1234.9" y2="650.7"/>
		<line class="st2" x1="1091.7" y1="121.3" x2="1076.6" y2="66.4"/>
		<line class="st2" x1="1066.5" y1="27.9" x2="1076.6" y2="66.4"/>
		<line class="st2" x1="1112" y1="196.3" x2="1138.5" y2="295.8"/>
		<line class="st2" x1="1178.9" y1="441" x2="1138.5" y2="295.8"/>
		<line class="st2" x1="1234.9" y1="650.7" x2="1178.9" y2="441"/>
		<line class="st2" x1="1858.3" y1="295.8" x2="1933.6" y2="352.1"/>
		<line class="st2" x1="1858.3" y1="295.8" x2="1724.7" y2="196.3"/>
		<line class="st2" x1="1497.3" y1="27.9" x2="1548.3" y2="66.4"/>
		<line class="st2" x1="1724.7" y1="196.3" x2="1622.8" y2="121.3"/>
		<line class="st2" x1="1548.3" y1="66.4" x2="1622.8" y2="121.3"/>
		<line class="st2" x1="1463.2" y1="3.3" x2="1497.3" y2="27.9"/>
		<line class="st2" x1="1665.4" y1="3.3" x2="1712.5" y2="27.9"/>
		<line class="st2" x1="1888.2" y1="121.3" x2="1933.6" y2="145.7"/>
		<line class="st2" x1="1784.6" y1="66.4" x2="1888.2" y2="121.3"/>
		<line class="st2" x1="1712.5" y1="27.9" x2="1784.6" y2="66.4"/>
		<line class="st2" x1="0.9" y1="816.1" x2="134" y2="650.7"/>
		<line class="st2" x1="419.6" y1="295.8" x2="500.4" y2="196.3"/>
		<line class="st2" x1="302.9" y1="441" x2="134" y2="650.7"/>
		<line class="st2" x1="635.6" y1="27.9" x2="604.5" y2="66.4"/>
		<line class="st2" x1="500.4" y1="196.3" x2="561.1" y2="121.3"/>
		<line class="st2" x1="655.8" y1="3.3" x2="635.6" y2="27.9"/>
		<line class="st2" x1="561.1" y1="121.3" x2="604.5" y2="66.4"/>
		<line class="st2" x1="302.9" y1="441" x2="419.6" y2="295.8"/>
		<line class="st2" x1="826" y1="121.3" x2="840.3" y2="66.4"/>
		<line class="st2" x1="779.7" y1="295.8" x2="740.5" y2="441"/>
		<line class="st2" x1="685.3" y1="650.7" x2="740.5" y2="441"/>
		<line class="st2" x1="850.8" y1="27.9" x2="840.3" y2="66.4"/>
		<line class="st2" x1="570.8" y1="1079.3" x2="611.6" y2="923.1"/>
		<line class="st2" x1="779.7" y1="295.8" x2="805.8" y2="196.3"/>
		<line class="st2" x1="805.8" y1="196.3" x2="826" y2="121.3"/>
		<line class="st2" x1="857.6" y1="3.3" x2="850.8" y2="27.9"/>
		<line class="st2" x1="611.6" y1="923.1" x2="685.3" y2="650.7"/>
		<line class="st2" x1="1616.1" y1="441" x2="1498.6" y2="295.8"/>
		<line class="st2" x1="1786.2" y1="650.7" x2="1616.1" y2="441"/>
		<line class="st2" x1="1281.7" y1="27.9" x2="1312.9" y2="66.4"/>
		<line class="st2" x1="1786.2" y1="650.7" x2="1933.6" y2="833.4"/>
		<line class="st2" x1="1357.1" y1="121.3" x2="1312.9" y2="66.4"/>
		<line class="st2" x1="1261.9" y1="3.3" x2="1281.7" y2="27.9"/>
		<line class="st2" x1="1498.6" y1="295.8" x2="1417.7" y2="196.3"/>
		<line class="st2" x1="1357.1" y1="121.3" x2="1417.7" y2="196.3"/>
		<line class="st2" x1="1867.5" y1="3.3" x2="1927.3" y2="27.9"/>
		<line class="st2" x1="1933.6" y1="30.5" x2="1927.3" y2="27.9"/>
		<line class="st2" x1="611.6" y1="923.1" x2="0.9" y2="923.1"/>
		<line class="st2" x1="611.6" y1="923.1" x2="1309.5" y2="923.1"/>
		<line class="st2" x1="1309.5" y1="923.1" x2="1933.6" y2="923.1"/>
		<line class="st2" x1="0.9" y1="650.7" x2="134" y2="650.7"/>
		<line class="st2" x1="1786.2" y1="650.7" x2="1933.6" y2="650.7"/>
		<line class="st2" x1="1234.9" y1="650.7" x2="1786.2" y2="650.7"/>
		<line class="st2" x1="685.3" y1="650.7" x2="1234.9" y2="650.7"/>
		<line class="st2" x1="134" y1="650.7" x2="685.3" y2="650.7"/>
		<line class="st2" x1="302.9" y1="441" x2="740.5" y2="441"/>
		<line class="st2" x1="1616.1" y1="441" x2="1933.6" y2="441"/>
		<line class="st2" x1="740.5" y1="441" x2="1178.9" y2="441"/>
		<line class="st2" x1="0.9" y1="441" x2="302.9" y2="441"/>
		<line class="st2" x1="1178.9" y1="441" x2="1616.1" y2="441"/>
		<line class="st2" x1="1858.3" y1="295.8" x2="1933.6" y2="295.8"/>
		<line class="st2" x1="59.9" y1="295.8" x2="0.9" y2="295.8"/>
		<line class="st2" x1="779.7" y1="295.8" x2="1138.5" y2="295.8"/>
		<line class="st2" x1="59.9" y1="295.8" x2="419.6" y2="295.8"/>
		<line class="st2" x1="1498.6" y1="295.8" x2="1858.3" y2="295.8"/>
		<line class="st2" x1="1138.5" y1="295.8" x2="1498.6" y2="295.8"/>
		<line class="st2" x1="419.6" y1="295.8" x2="779.7" y2="295.8"/>
		<line class="st2" x1="500.4" y1="196.3" x2="805.8" y2="196.3"/>
		<line class="st2" x1="805.8" y1="196.3" x2="1112" y2="196.3"/>
		<line class="st2" x1="193.4" y1="196.3" x2="500.4" y2="196.3"/>
		<line class="st2" x1="0.9" y1="196.3" x2="193.4" y2="196.3"/>
		<line class="st2" x1="1724.7" y1="196.3" x2="1933.6" y2="196.3"/>
		<line class="st2" x1="1112" y1="196.3" x2="1417.7" y2="196.3"/>
		<line class="st2" x1="1417.7" y1="196.3" x2="1724.7" y2="196.3"/>
		<line class="st2" x1="1622.8" y1="121.3" x2="1888.2" y2="121.3"/>
		<line class="st2" x1="1357.1" y1="121.3" x2="1622.8" y2="121.3"/>
		<line class="st2" x1="1933.6" y1="121.3" x2="1888.2" y2="121.3"/>
		<line class="st2" x1="0.9" y1="121.3" x2="29.2" y2="121.3"/>
		<line class="st2" x1="826" y1="121.3" x2="1091.7" y2="121.3"/>
		<line class="st2" x1="294.9" y1="121.3" x2="561.1" y2="121.3"/>
		<line class="st2" x1="561.1" y1="121.3" x2="826" y2="121.3"/>
		<line class="st2" x1="1091.7" y1="121.3" x2="1357.1" y2="121.3"/>
		<line class="st2" x1="29.2" y1="121.3" x2="294.9" y2="121.3"/>
		<line class="st2" x1="1076.6" y1="66.4" x2="840.3" y2="66.4"/>
		<line class="st2" x1="604.5" y1="66.4" x2="368.6" y2="66.4"/>
		<line class="st2" x1="368.6" y1="66.4" x2="132.8" y2="66.4"/>
		<line class="st2" x1="840.3" y1="66.4" x2="604.5" y2="66.4"/>
		<line class="st2" x1="0.9" y1="66.4" x2="132.8" y2="66.4"/>
		<line class="st2" x1="1312.9" y1="66.4" x2="1076.6" y2="66.4"/>
		<line class="st2" x1="1548.3" y1="66.4" x2="1312.9" y2="66.4"/>
		<line class="st2" x1="1784.6" y1="66.4" x2="1548.3" y2="66.4"/>
		<line class="st2" x1="1933.6" y1="66.4" x2="1784.6" y2="66.4"/>
		<line class="st2" x1="1497.3" y1="27.9" x2="1281.7" y2="27.9"/>
		<line class="st2" x1="1933.6" y1="27.9" x2="1927.3" y2="27.9"/>
		<line class="st2" x1="1712.5" y1="27.9" x2="1497.3" y2="27.9"/>
		<line class="st2" x1="1927.3" y1="27.9" x2="1712.5" y2="27.9"/>
		<line class="st2" x1="420" y1="27.9" x2="204.4" y2="27.9"/>
		<line class="st2" x1="1281.7" y1="27.9" x2="1066.5" y2="27.9"/>
		<line class="st2" x1="635.6" y1="27.9" x2="420" y2="27.9"/>
		<line class="st2" x1="204.4" y1="27.9" x2="0.9" y2="27.9"/>
		<line class="st2" x1="1066.5" y1="27.9" x2="850.8" y2="27.9"/>
		<line class="st2" x1="850.8" y1="27.9" x2="635.6" y2="27.9"/>
		<line class="st2" x1="251.5" y1="3.3" x2="49.4" y2="3.3"/>
		<line class="st2" x1="857.6" y1="3.3" x2="655.8" y2="3.3"/>
		<line class="st2" x1="49.4" y1="3.3" x2="0.9" y2="3.3"/>
		<line class="st2" x1="655.8" y1="3.3" x2="453.3" y2="3.3"/>
		<line class="st2" x1="453.3" y1="3.3" x2="251.5" y2="3.3"/>
		<line class="st2" x1="1867.5" y1="3.3" x2="1665.4" y2="3.3"/>
		<line class="st2" x1="1665.4" y1="3.3" x2="1463.2" y2="3.3"/>
		<line class="st2" x1="1933.6" y1="3.3" x2="1867.5" y2="3.3"/>
		<line class="st2" x1="1261.9" y1="3.3" x2="1059.3" y2="3.3"/>
		<line class="st2" x1="1059.3" y1="3.3" x2="857.6" y2="3.3"/>
		<line class="st2" x1="1463.2" y1="3.3" x2="1261.9" y2="3.3"/>
	</g>
</g>
</svg>
