<?xml version="1.0" encoding="utf-8"?>
<!-- Generator: Adobe Illustrator 24.1.0, SVG Export Plug-In . SVG Version: 6.00 Build 0)  -->
<svg version="1.1" id="Capa_1" xmlns="http://www.w3.org/2000/svg" xmlns:xlink="http://www.w3.org/1999/xlink" x="0px" y="0px"
	 viewBox="0 0 156 156" style="enable-background:new 0 0 156 156;" xml:space="preserve">
<style type="text/css">
	.st0{fill:#EFDF00;}
</style>
<g>
	<g>
		<g>
			<path class="st0" d="M128.5,155.4H115c-2.6,0-4.7-2.1-4.7-4.7s2.1-4.7,4.7-4.7h13.5c9.6,0,17.5-7.8,17.5-17.5v-14.2
				c0-2.6,2.1-4.7,4.7-4.7s4.7,2.1,4.7,4.7v14.2C155.4,143.4,143.4,155.4,128.5,155.4z"/>
			<path class="st0" d="M150.7,46.4c-2.6,0-4.7-2.1-4.7-4.7V27.5c0-9.6-7.8-17.5-17.5-17.5h-14.1c-2.6,0-4.7-2.1-4.7-4.7
				s2.1-4.7,4.7-4.7h14.1c14.8,0,26.9,12,26.9,26.9v14.2C155.4,44.3,153.3,46.4,150.7,46.4z"/>
			<path class="st0" d="M41.7,155.4H27.5c-14.8,0-26.9-12-26.9-26.9v-14.2c0-2.6,2.1-4.7,4.7-4.7s4.7,2.1,4.7,4.7v14.2
				c0,9.6,7.8,17.5,17.5,17.5h14.2c2.6,0,4.7,2.1,4.7,4.7S44.3,155.4,41.7,155.4z"/>
			<path class="st0" d="M5.3,46.4c-2.6,0-4.7-2.1-4.7-4.7V27.5c0-14.8,12-26.9,26.9-26.9h14.2c2.6,0,4.7,2.1,4.7,4.7
				S44.3,10,41.7,10H27.5C17.8,10,10,17.8,10,27.5v14.2C10,44.3,7.9,46.4,5.3,46.4z"/>
		</g>
		<g>
			<path class="st0" d="M78,129.7c-15.1,0-26.5-22.2-26.5-51.7S62.9,26.3,78,26.3s26.5,22.2,26.5,51.7c0,2.6-2.1,4.7-4.7,4.7
				s-4.7-2.1-4.7-4.7c0-24.2-9.1-42.3-17.2-42.3S60.7,53.8,60.7,78s9.1,42.3,17.2,42.3c3.2,0,6.1-2.9,7.8-5.3c1.5-2.1,4.5-2.5,6.5-1
				c2.1,1.5,2.5,4.5,1,6.5C87.8,128.1,81.9,129.7,78,129.7z"/>
			<g>
				<path class="st0" d="M40.1,95.5c-0.9,0-1.7-0.2-2.5-0.7C28.3,88.9,26.3,82.4,26.3,78s2-10.9,11.2-16.8c2.2-1.4,5.1-0.7,6.5,1.4
					c1.4,2.2,0.7,5.1-1.4,6.5c-2.6,1.6-6.9,5-6.9,8.9s4.3,7.3,6.9,8.9c2.2,1.4,2.8,4.3,1.4,6.5C43.1,94.8,41.6,95.5,40.1,95.5z"/>
				<path class="st0" d="M78,104.5c-2.6,0-4.7-2.1-4.7-4.7s2.1-4.7,4.7-4.7c24.2,0,42.3-9.1,42.3-17.2c0-3.9-4.3-7.3-6.9-8.9
					c-2.2-1.4-2.8-4.3-1.4-6.5c1.4-2.2,4.3-2.8,6.5-1.4c9.3,5.9,11.2,12.4,11.2,16.8C129.7,93.1,107.5,104.5,78,104.5z"/>
			</g>
		</g>
	</g>
</g>
</svg>
