<svg width="256" height="256" viewBox="0 0 256 256" fill="none" xmlns="http://www.w3.org/2000/svg">
<g clip-path="url(#clip0_244_2180)">
<path fill-rule="evenodd" clip-rule="evenodd" d="M227.808 112.834H197.343C195.499 109.069 193.348 105.458 191.043 102.116C192.08 100.195 192.618 98.0434 192.618 95.7768C192.618 88.5544 186.971 82.6765 180.017 82.6765C177.75 82.6765 175.676 83.2528 173.755 84.3669C160.386 74.3016 144.635 69 128.192 69C99.072 69 72.2952 86.3646 59.1181 112.988H28.0386V122.362H64.9959V122.093L65.188 121.67C75.9448 95.3926 100.686 78.4506 128.154 78.4506C142.56 78.4506 156.314 83.0223 167.992 91.743C167.57 93.0492 167.339 94.4322 167.339 95.8536C167.339 103.038 172.987 108.877 179.902 108.877C181.17 108.877 182.553 108.647 183.82 108.224C186.855 112.604 189.352 117.175 191.235 121.747L191.389 122.169H191.465V122.477H227.847V113.18L227.808 112.834Z" fill="white"/>
<path d="M173.448 95.6615C173.448 91.8967 176.367 88.8617 179.979 88.8617C183.59 88.8617 186.471 91.8967 186.471 95.6615C186.471 99.4264 183.551 102.461 179.979 102.461C176.367 102.461 173.448 99.4264 173.448 95.6615Z" fill="#9E1E7F"/>
<path d="M227.846 172.342H212.364V186.749H227.846V172.342Z" fill="white"/>
<path d="M43.4821 172.342H28V186.749H43.4821V172.342Z" fill="white"/>
<path d="M32.5716 160.817H28V133.925H51.8955V137.997H32.5716V145.373H51.204V149.446H32.5716V160.817Z" fill="white"/>
<path d="M81.8611 160.817H76.5595L65.9948 139.764L54.969 160.817H49.7827L63.6513 133.925H68.1077L81.8611 160.817Z" fill="white"/>
<path d="M96.3444 161.47C86.3559 161.47 80.1323 156.015 80.1323 147.217C80.1323 142.569 81.7843 139.073 85.1266 136.537C86.1638 135.692 89.314 133.157 96.2291 133.157C98.0732 133.157 102.722 133.387 106.333 135.654C109.176 137.459 110.52 139.688 111.212 140.879L111.558 141.455L106.602 142.569L106.41 142.262C105.833 141.224 105.257 140.226 103.759 139.227C102.376 138.305 99.7251 137.344 96.3828 137.344C93.6936 137.344 85.0113 138.036 85.0113 147.064C85.0113 149.83 85.8949 152.25 87.5853 154.133C88.9683 155.554 91.6959 157.244 96.6133 157.244H96.8438C100.071 157.244 102.837 156.476 104.566 155.131C106.064 154.017 106.832 152.596 107.024 152.173L107.178 151.828L112.057 152.865L111.75 153.441C110.789 155.131 109.714 157.052 107.024 158.743C103.298 161.086 98.7263 161.47 96.3444 161.47Z" fill="white"/>
<path d="M125.388 160.817H120.739V137.959H110.213V133.925H135.952V137.959H125.349V160.817H125.388Z" fill="white"/>
<path d="M151.473 161.509C146.978 161.509 143.328 160.51 140.562 158.55C138.103 156.822 135.107 153.518 135.107 147.678C135.107 137.728 143.175 133.272 151.204 133.272C160.923 133.31 167.493 139.111 167.493 147.717C167.493 157.283 159.463 161.509 151.473 161.509ZM151.281 137.421C151.127 137.421 150.973 137.421 150.82 137.421C145.48 137.575 139.755 140.302 139.755 147.486C139.755 148.946 140.024 151.674 141.907 153.787C143.943 156.169 147.17 157.36 151.473 157.36C161.73 157.36 162.844 150.368 162.844 147.371C162.844 141.34 158.311 137.421 151.281 137.421Z" fill="white"/>
<path d="M200.532 160.817H194.462L185.702 150.444H173.908V160.817H169.298V133.925H187.354C189.698 133.963 192.579 134.002 194.923 136.153C195.845 136.96 197.381 138.804 197.381 142.069C197.381 147.832 193.117 149.254 190.85 149.715L200.532 160.817ZM173.908 146.449H186.202C188.008 146.449 190.505 146.449 191.849 144.643C192.387 143.99 192.656 143.145 192.656 142.185C192.656 141.263 192.426 140.379 191.964 139.688C190.966 138.074 189.391 138.036 187.739 137.997H187.623H173.908V146.449Z" fill="white"/>
<path d="M214.323 160.817H209.752V150.406L196.344 133.925H202.26L211.365 145.412C211.711 145.873 211.903 146.142 212.057 146.411C212.211 146.18 212.364 145.95 212.672 145.604L222.007 133.925H228L214.323 150.483V160.817Z" fill="white"/>
<path d="M47.4395 172.381H51.6269C53.7015 172.381 54.7003 172.688 55.5071 173.226C56.6596 173.956 57.3895 175.147 57.3895 176.683C57.3895 178.22 56.6596 179.411 55.5071 180.141C54.7003 180.679 53.7015 180.986 51.6269 180.986H48.9377V186.787H47.4395V172.381V172.381ZM48.9377 179.642H51.1275C52.741 179.642 53.2789 179.642 54.124 179.296C55.315 178.758 55.8912 177.759 55.8912 176.683C55.8912 175.608 55.315 174.609 54.124 174.071C53.2789 173.687 52.7026 173.687 51.1275 173.687H48.9377V179.642Z" fill="white"/>
<path d="M63.1523 172.381H64.8427L71.2968 186.749H69.6448L67.4551 181.908H60.4631L58.2734 186.749H56.6982L63.1523 172.381ZM61.0394 180.564H66.8788L63.9975 173.956L61.0394 180.564Z" fill="white"/>
<path d="M72.9482 172.381H76.7515C78.7877 172.381 79.7865 172.611 80.478 172.919C82.1684 173.687 83.1672 175.262 83.1672 177.029C83.1672 179.104 81.5921 181.217 78.6724 181.37L82.9367 186.749H81.0543L75.9448 180.256C77.8656 180.256 78.5187 180.256 79.2102 180.064C80.8622 179.603 81.6689 178.297 81.6689 176.991C81.6689 175.877 80.9774 174.724 80.017 174.263C79.1334 173.802 78.3267 173.725 77.0973 173.725H74.4849V186.787H72.9482V172.381Z" fill="white"/>
<path d="M100.686 186.979C98.8032 186.979 98.1117 186.403 97.3049 185.75C95.3841 186.979 93.2327 186.979 92.7717 186.979C88.2769 186.979 84.7041 183.637 84.7041 179.603C84.7041 175.838 87.7391 172.112 92.8485 172.112C97.4586 172.112 100.955 175.377 100.955 179.642C100.955 181.562 100.148 183.406 98.4575 184.866C99.3795 185.596 99.9941 185.635 100.686 185.635V186.979V186.979ZM89.6599 180.833C93.3864 180.833 95.4993 182.484 97.3434 183.983C98.8416 182.6 99.4179 181.063 99.4179 179.642C99.4179 176.069 96.3445 173.456 92.8485 173.456C89.5063 173.456 86.2024 175.877 86.2024 179.718C86.2024 180.448 86.3176 180.909 86.4713 181.332C87.0475 181.14 88.0464 180.833 89.6599 180.833ZM92.8485 185.673C93.2711 185.673 94.7694 185.673 96.1908 184.751C95.8835 184.521 94.4621 183.483 94.1163 183.291C92.157 182.139 89.7752 182.139 89.4294 182.139C88.2001 182.139 87.6238 182.331 87.086 182.523C87.5086 183.291 89.2757 185.673 92.8485 185.673Z" fill="white"/>
<path d="M104.642 172.381V181.294C104.642 182.331 104.796 183.291 105.142 183.906C106.064 185.519 107.524 185.673 108.254 185.673C108.984 185.673 110.443 185.519 111.366 183.906C111.711 183.33 111.865 182.369 111.865 181.294V172.381H113.363V181.294C113.363 182.484 113.171 183.522 112.787 184.29C111.75 186.441 109.637 186.941 108.215 186.941C106.832 186.941 104.681 186.403 103.644 184.29C103.298 183.522 103.067 182.484 103.067 181.294V172.381H104.642Z" fill="white"/>
<path d="M116.36 172.381H124.62V173.687H117.897V178.835H124.427V180.141H117.897V185.404H124.62V186.71H116.36V172.381Z" fill="white"/>
<path d="M132.994 172.381H136.759C141.523 172.381 141.677 175.608 141.677 176.184C141.677 177.874 140.563 178.643 140.025 179.065C141.523 179.642 142.522 180.948 142.522 182.6C142.522 183.983 141.83 185.25 140.793 185.904C139.602 186.557 138.642 186.71 137.105 186.71H132.956V172.381H132.994ZM134.493 178.566H136.414C137.605 178.566 138.258 178.489 138.988 178.143C139.679 177.798 140.178 176.991 140.178 176.107C140.178 175.454 139.91 174.993 139.564 174.532C138.988 173.917 138.066 173.649 136.49 173.649H134.454V178.566H134.493ZM134.493 185.404H136.644C137.912 185.404 138.68 185.366 139.487 185.02C140.447 184.674 141.062 183.675 141.062 182.561C141.062 181.447 140.294 180.487 139.295 180.141C138.565 179.872 137.95 179.795 136.375 179.795H134.493V185.404Z" fill="white"/>
<path d="M144.635 172.381H148.438C150.436 172.381 151.473 172.611 152.165 172.919C153.855 173.687 154.854 175.262 154.854 177.029C154.854 179.104 153.279 181.217 150.397 181.37L154.623 186.749H152.741L147.631 180.256C149.552 180.256 150.205 180.256 150.858 180.064C152.51 179.603 153.355 178.297 153.355 176.991C153.355 175.877 152.702 174.724 151.704 174.263C150.82 173.802 150.013 173.725 148.784 173.725H146.171V186.787H144.673V172.381H144.635Z" fill="white"/>
<path d="M164.382 172.112C168.646 172.112 172.372 175.3 172.372 179.526C172.372 183.752 168.607 186.941 164.382 186.941C160.117 186.941 156.429 183.637 156.429 179.603C156.429 175.108 160.348 172.112 164.382 172.112ZM164.382 185.673C167.878 185.673 170.874 182.984 170.874 179.565C170.874 176.184 167.954 173.418 164.382 173.418C160.962 173.418 157.927 176.069 157.927 179.603C157.927 182.907 160.847 185.673 164.382 185.673Z" fill="white"/>
<path d="M173.448 172.381H174.984L178.672 184.866H178.711L182.284 172.381H183.667L187.278 184.866H187.316L191.004 172.381H192.541L188.238 186.749H186.318L183.014 174.955H182.975L179.671 186.749H177.75L173.448 172.381Z" fill="white"/>
<path d="M194.309 172.381H196.345L204.758 184.29H204.796V172.381H206.295V186.749H204.796L195.845 174.11H195.807V186.749H194.309V172.381Z" fill="white"/>
</g>
<defs>
<clipPath id="clip0_244_2180">
<rect width="256" height="256" fill="white"/>
</clipPath>
</defs>
</svg>
