<svg width="256" height="256" viewBox="0 0 256 256" fill="none" xmlns="http://www.w3.org/2000/svg">
<g clip-path="url(#clip0_230_736)">
<path d="M26.9618 197.383V214.042C26.9618 216.015 26.6635 217.667 26.1128 218.952C25.5391 220.237 24.6901 221.293 23.5657 222.05C22.4414 222.83 21.0187 223.335 19.3207 223.61C17.6456 223.886 15.6952 224 13.4924 224C11.2895 224 9.33909 223.863 7.64108 223.61C5.96601 223.335 4.54334 222.83 3.39603 222.05C2.24873 221.27 1.39972 220.237 0.849009 218.952C0.2983 217.644 0 216.015 0 214.019V197.36L5.69065 197.337V214.294C5.69065 216.405 6.37904 217.874 7.73286 218.654C9.08669 219.457 11.083 219.847 13.6759 219.847C16.2918 219.847 18.2652 219.457 19.619 218.654C20.9728 217.851 21.6612 216.405 21.6612 214.294V197.36L26.9618 197.383Z" fill="#898584"/>
<path d="M53.7401 223.839C53.6024 223.633 51.8355 221.568 51.5602 221.292L36.2321 205.115V208.649V223.816H30.9086V197.382H36.4157C36.7829 197.795 38.7103 199.746 39.1463 200.205L53.5795 215.189V197.382H58.88V223.839H53.7401Z" fill="#898584"/>
<path d="M151.697 223.839C151.559 223.633 149.793 221.568 149.517 221.292L134.189 205.115V208.649V223.816H128.866V197.382H134.35C134.74 197.795 136.644 199.746 137.103 200.205L151.536 215.189V197.382H156.86V223.839H151.697Z" fill="#898584"/>
<path d="M96.5344 203.486C96.4655 203.417 96.2361 203.395 96.0525 203.303C95.433 202.959 94.4463 202.775 93.5514 202.477C92.6565 202.178 91.7386 201.926 90.7519 201.719C89.7652 201.513 88.8474 201.398 87.9984 201.398C86.5987 201.398 85.2448 201.605 83.9599 201.995C82.6749 202.408 81.5505 202.982 80.6097 203.762C79.646 204.519 78.8888 205.483 78.3151 206.584C77.7644 207.708 77.4661 208.97 77.4661 210.439C77.4661 211.862 77.7414 213.147 78.3151 214.271C78.8888 215.372 79.646 216.336 80.6097 217.116C81.5735 217.874 82.6978 218.47 83.9599 218.86C85.2448 219.273 86.5987 219.48 87.9984 219.48C89.0769 219.48 90.2012 219.365 91.3715 219.09C92.5417 218.837 93.6202 218.539 94.561 218.149C95.5477 217.759 96.3508 217.323 96.9933 216.841C97.0392 216.841 97.0621 216.795 97.0851 216.772L99.4026 220.742C98.6454 221.155 97.7046 221.614 96.5344 222.119C95.3871 222.623 94.0791 223.059 92.5876 223.427C91.1191 223.794 89.5817 223.977 87.9754 223.977C85.8644 223.977 83.8451 223.725 81.9177 223.174C79.9672 222.646 78.2692 221.82 76.7777 220.696C75.2862 219.572 74.116 218.195 73.244 216.497C72.372 214.822 71.9361 212.848 71.9361 210.623C71.9361 208.42 72.372 206.469 73.244 204.771C74.116 203.073 75.2862 201.674 76.7777 200.526C78.2692 199.379 79.9902 198.53 81.9177 197.956C83.8451 197.383 85.8644 197.107 87.9754 197.107C89.6964 197.107 91.2338 197.245 92.6106 197.52C93.9873 197.796 95.2264 198.071 96.2361 198.369C97.2686 198.645 98.0029 198.966 98.5995 199.241C98.6684 199.287 98.8978 199.402 98.9667 199.425L96.5344 203.486Z" fill="#898584"/>
<path d="M119.275 212.252H108.077V219.227H125.126V223.817H102.432H102.386V197.36V197.383C102.386 197.383 125.103 197.383 125.126 197.383V201.697H108.054L108.1 207.938H119.298L119.275 212.252Z" fill="#898584"/>
<path d="M170.031 223.84V201.949H160.623V197.36H184.785V201.949H175.722V223.84H170.031Z" fill="#898584"/>
<path d="M235.634 223.862C235.543 223.725 233.638 221.086 233.5 220.902L227.97 213.078H220.788V224H215.098V197.405L215.143 197.382H230.793C232.399 197.382 233.868 197.52 235.153 197.818C236.46 198.117 237.562 198.553 238.526 199.172C239.443 199.792 240.178 200.618 240.683 201.605C241.187 202.591 241.44 203.807 241.44 205.253C241.44 207.456 240.774 209.154 239.466 210.324C238.158 211.494 236.415 212.297 234.212 212.688L242.059 223.885H235.634V223.862ZM229.485 209.108C230.701 209.108 231.711 209.016 232.514 208.833C233.317 208.649 233.959 208.397 234.418 208.075C234.9 207.731 235.221 207.341 235.428 206.882C235.611 206.423 235.726 205.918 235.726 205.391C235.726 204.863 235.611 204.381 235.428 203.899C235.221 203.463 234.9 203.05 234.418 202.729C233.959 202.385 233.317 202.132 232.514 201.926C231.711 201.742 230.701 201.65 229.485 201.65H220.765V209.085H229.485V209.108Z" fill="#898584"/>
<path d="M68.5632 197.382H63.0102V223.816H68.5632V197.382Z" fill="#898584"/>
<path d="M252.455 205.896C252.432 205.873 252.042 205.322 252.019 205.299L250.894 203.693H249.426V205.942H248.256V200.503H251.445C251.766 200.503 252.065 200.526 252.34 200.595C252.615 200.641 252.845 200.756 253.028 200.871C253.235 201.008 253.373 201.169 253.464 201.375C253.556 201.582 253.625 201.834 253.625 202.133C253.625 202.592 253.487 202.913 253.235 203.165C252.96 203.395 252.592 203.578 252.156 203.647L253.763 205.942H252.455V205.896ZM251.193 202.867C251.445 202.867 251.652 202.867 251.812 202.821C251.996 202.775 252.111 202.729 252.202 202.66C252.294 202.569 252.363 202.5 252.409 202.408C252.455 202.316 252.455 202.224 252.455 202.11C252.455 202.018 252.455 201.903 252.409 201.811C252.363 201.72 252.294 201.628 252.202 201.559C252.111 201.49 251.973 201.444 251.812 201.398C251.652 201.352 251.445 201.352 251.193 201.352H249.426V202.867H251.193V202.867Z" fill="#898584"/>
<path d="M250.756 197.589C247.681 197.589 245.157 200.09 245.157 203.165C245.157 206.24 247.658 208.764 250.756 208.764C253.854 208.764 256.332 206.263 256.332 203.165C256.332 200.09 253.854 197.589 250.756 197.589ZM250.756 208.053C248.071 208.053 245.892 205.873 245.892 203.188C245.892 200.503 248.071 198.323 250.756 198.323C253.441 198.323 255.621 200.503 255.621 203.188C255.621 205.85 253.441 208.053 250.756 208.053Z" fill="#898584"/>
<path d="M205.483 212.252H194.262V219.227H211.311V223.817H188.641H188.595V197.36V197.383H211.311V201.697H194.262V207.938H205.46L205.483 212.252Z" fill="#898584"/>
<path fill-rule="evenodd" clip-rule="evenodd" d="M86.4151 94.125H104.726V126.273C104.726 135.222 112.092 142.358 121.018 142.358C129.715 142.358 137.103 135.222 137.103 126.273V42.519L86.4151 94.125Z" fill="white"/>
<path fill-rule="evenodd" clip-rule="evenodd" d="M172.395 98.806V126.938C172.395 155.3 149.403 178.315 121.018 178.315C92.6569 178.315 69.6649 155.322 69.6649 126.938V98.806H100.023V126.273C100.023 138.044 109.247 147.245 121.018 147.245C132.813 147.245 142.037 138.044 142.037 126.273V98.806H172.395Z" fill="white" stroke="#16A2DA" stroke-width="6.89438"/>
<path fill-rule="evenodd" clip-rule="evenodd" d="M141.831 94.102V31L79.83 94.102H64.9609V126.938C64.9609 157.869 90.1099 183.018 121.018 183.018C151.95 183.018 177.099 157.846 177.099 126.938V94.102H141.831Z" fill="white"/>
<path fill-rule="evenodd" clip-rule="evenodd" d="M86.4151 94.125H104.726V126.273C104.726 135.222 112.092 142.358 121.018 142.358C129.715 142.358 137.103 135.222 137.103 126.273V42.519L86.4151 94.125Z" fill="#D4102D"/>
<path fill-rule="evenodd" clip-rule="evenodd" d="M172.395 98.806V126.938C172.395 155.3 149.403 178.315 121.019 178.315C92.6571 178.315 69.6651 155.322 69.6651 126.938V98.806H100.023V126.273C100.023 138.044 109.247 147.245 121.019 147.245C132.813 147.245 142.037 138.044 142.037 126.273V98.806H172.395Z" fill="#017D39"/>
</g>
<defs>
<clipPath id="clip0_230_736">
<rect width="256" height="256" fill="white"/>
</clipPath>
</defs>
</svg>
