<svg width="256" height="256" viewBox="0 0 256 256" fill="none" xmlns="http://www.w3.org/2000/svg">
<g clip-path="url(#clip0_230_736)">
<path d="M32.5595 188.809V204.601C32.5595 206.472 32.2767 208.038 31.7546 209.256C31.2108 210.475 30.406 211.475 29.3401 212.193C28.2742 212.933 26.9255 213.411 25.3158 213.672C23.7279 213.933 21.8789 214.042 19.7906 214.042C17.7024 214.042 15.8534 213.912 14.2437 213.672C12.6557 213.411 11.3071 212.933 10.2194 212.193C9.13178 211.453 8.32693 210.475 7.80486 209.256C7.28279 208.017 7.00001 206.472 7.00001 204.58V188.787L12.3947 188.765V204.841C12.3947 206.842 13.0473 208.234 14.3307 208.974C15.6141 209.735 17.5066 210.105 19.9646 210.105C22.4445 210.105 24.3152 209.735 25.5986 208.974C26.882 208.212 27.5346 206.842 27.5346 204.841V188.787L32.5595 188.809Z" fill="white"/>
<path d="M57.9449 213.89C57.8144 213.694 56.1395 211.736 55.8784 211.475L41.3476 196.139V199.489V213.868H36.3009V188.809H41.5216C41.8697 189.2 43.6969 191.049 44.1102 191.484L57.7927 205.689V188.809H62.8176V213.89H57.9449Z" fill="white"/>
<path d="M150.807 213.89C150.677 213.694 149.002 211.736 148.741 211.475L134.21 196.139V199.489V213.868H129.163V188.809H134.362C134.732 189.2 136.538 191.049 136.973 191.484L150.655 205.689V188.809H155.702V213.89H150.807Z" fill="white"/>
<path d="M98.5138 194.595C98.4486 194.53 98.231 194.508 98.057 194.421C97.4697 194.095 96.5343 193.921 95.686 193.638C94.8376 193.355 93.9675 193.116 93.0321 192.92C92.0968 192.724 91.2267 192.616 90.4218 192.616C89.0949 192.616 87.8115 192.811 86.5933 193.181C85.3752 193.573 84.3093 194.117 83.4174 194.856C82.5038 195.574 81.786 196.488 81.2421 197.532C80.7201 198.598 80.4373 199.794 80.4373 201.186C80.4373 202.535 80.6983 203.753 81.2421 204.819C81.786 205.863 82.5038 206.777 83.4174 207.516C84.331 208.234 85.3969 208.8 86.5933 209.169C87.8115 209.561 89.0949 209.757 90.4218 209.757C91.4442 209.757 92.5101 209.648 93.6195 209.387C94.7289 209.148 95.7512 208.865 96.6431 208.495C97.5785 208.125 98.3398 207.712 98.9489 207.255C98.9924 207.255 99.0141 207.212 99.0359 207.19L101.233 210.953C100.515 211.345 99.6232 211.78 98.5138 212.258C97.4262 212.737 96.1863 213.15 94.7724 213.498C93.3802 213.846 91.9227 214.02 90.4001 214.02C88.3988 214.02 86.4846 213.781 84.6573 213.259C82.8083 212.759 81.1986 211.976 79.7847 210.91C78.3708 209.844 77.2614 208.539 76.4348 206.929C75.6082 205.341 75.1949 203.47 75.1949 201.36C75.1949 199.272 75.6082 197.423 76.4348 195.813C77.2614 194.204 78.3708 192.877 79.7847 191.789C81.1986 190.701 82.8301 189.897 84.6573 189.353C86.4846 188.809 88.3988 188.548 90.4001 188.548C92.0315 188.548 93.489 188.678 94.7941 188.939C96.0993 189.2 97.2739 189.461 98.231 189.744C99.2099 190.005 99.906 190.31 100.472 190.571C100.537 190.614 100.754 190.723 100.82 190.745L98.5138 194.595Z" fill="white"/>
<path d="M120.071 202.905H109.455V209.517H125.618V213.868H104.104H104.061V188.787V188.809C104.061 188.809 125.596 188.809 125.618 188.809V192.898H109.434L109.477 198.815H120.093L120.071 202.905Z" fill="white"/>
<path d="M168.188 213.89V193.138H159.269V188.787H182.175V193.138H173.583V213.89H168.188Z" fill="white"/>
<path d="M230.379 213.911C230.292 213.781 228.486 211.279 228.356 211.105L223.114 203.688H216.305V214.042H210.91V188.83L210.954 188.809H225.789C227.312 188.809 228.704 188.939 229.922 189.222C231.162 189.505 232.206 189.918 233.12 190.505C233.99 191.093 234.686 191.876 235.165 192.811C235.643 193.747 235.882 194.899 235.882 196.27C235.882 198.358 235.252 199.968 234.012 201.077C232.772 202.187 231.119 202.948 229.03 203.318L236.47 213.933H230.379V213.911ZM224.549 199.924C225.702 199.924 226.659 199.837 227.421 199.663C228.182 199.489 228.791 199.25 229.226 198.946C229.683 198.619 229.987 198.249 230.183 197.814C230.357 197.379 230.466 196.901 230.466 196.4C230.466 195.9 230.357 195.443 230.183 194.987C229.987 194.573 229.683 194.182 229.226 193.877C228.791 193.551 228.182 193.312 227.421 193.116C226.659 192.942 225.702 192.855 224.549 192.855H216.283V199.903H224.549V199.924Z" fill="white"/>
<path d="M71.9972 188.809H66.7331V213.868H71.9972V188.809Z" fill="white"/>
<path d="M246.324 196.879C246.302 196.857 245.932 196.335 245.911 196.314L244.845 194.791H243.452V196.923H242.343V191.767H245.367C245.671 191.767 245.954 191.789 246.215 191.854C246.476 191.898 246.694 192.007 246.868 192.115C247.063 192.246 247.194 192.398 247.281 192.594C247.368 192.79 247.433 193.029 247.433 193.312C247.433 193.747 247.303 194.051 247.063 194.291C246.802 194.508 246.454 194.682 246.041 194.747L247.564 196.923H246.324V196.879ZM245.127 194.008C245.367 194.008 245.562 194.008 245.715 193.964C245.889 193.921 245.997 193.877 246.085 193.812C246.172 193.725 246.237 193.66 246.28 193.573C246.324 193.486 246.324 193.399 246.324 193.29C246.324 193.203 246.324 193.094 246.28 193.007C246.237 192.92 246.172 192.833 246.085 192.768C245.997 192.703 245.867 192.659 245.715 192.616C245.562 192.572 245.367 192.572 245.127 192.572H243.452V194.008H245.127V194.008Z" fill="white"/>
<path d="M244.714 189.005C241.799 189.005 239.406 191.376 239.406 194.29C239.406 197.205 241.777 199.598 244.714 199.598C247.651 199.598 250 197.227 250 194.29C250 191.376 247.651 189.005 244.714 189.005ZM244.714 198.924C242.169 198.924 240.102 196.857 240.102 194.312C240.102 191.767 242.169 189.701 244.714 189.701C247.259 189.701 249.326 191.767 249.326 194.312C249.326 196.836 247.259 198.924 244.714 198.924Z" fill="white"/>
<path d="M201.796 202.905H191.159V209.517H207.321V213.868H185.829H185.786V188.787V188.809H207.321V192.898H191.159V198.815H201.774L201.796 202.905Z" fill="white"/>
<path fill-rule="evenodd" clip-rule="evenodd" d="M170.428 95.3595V122.028C170.428 148.915 148.632 170.733 121.724 170.733C94.8376 170.733 73.0413 148.937 73.0413 122.028V95.3595H101.82V121.398C101.82 132.557 110.565 141.28 121.724 141.28C132.905 141.28 141.65 132.557 141.65 121.398V95.3595H170.428Z" fill="white"/>
<path fill-rule="evenodd" clip-rule="evenodd" d="M88.9206 90.9219H106.279V121.398C106.279 129.881 113.262 136.646 121.724 136.646C129.968 136.646 136.972 129.881 136.972 121.398V42L88.9206 90.9219Z" fill="white"/>
</g>
<defs>
<clipPath id="clip0_230_736">
<rect width="256" height="256" fill="white"/>
</clipPath>
</defs>
</svg>
