<?xml version="1.0" encoding="utf-8"?>
<!-- Generator: Adobe Illustrator 21.1.0, SVG Export Plug-In . SVG Version: 6.00 Build 0)  -->
<svg version="1.1" id="Capa_1" xmlns="http://www.w3.org/2000/svg" xmlns:xlink="http://www.w3.org/1999/xlink" x="0px" y="0px"
	 viewBox="0 0 130 28" style="enable-background:new 0 0 130 28;" xml:space="preserve">
<style type="text/css">
	.st0{fill:#FFFFFF;}
</style>
<path class="st0" d="M117.1,5.5c-1.9,0-7.8,0.7-7.8,8.5c0,8.3,6.4,8.7,7.7,8.7c0.8,0,3.7-0.2,5.6-2.3c1.4-1.6,2.1-3.7,2.1-6.4
	C124.7,6,119,5.5,117.1,5.5L117.1,5.5z M119.5,19.4c-0.5,0.3-1.1,0.9-2.2,0.9h-0.2c-1.1,0-1.8-0.5-2.2-0.9c-1.1-1-1.6-3-1.6-5.7
	c0-5.2,2.4-6.1,3.8-6.1h0.2c1.4,0,3.8,0.9,3.8,6.1C121.1,16.4,120.6,18.3,119.5,19.4z M24.9,25.3c-1.4-0.5-3.5-2.3-4.6-3.8
	c-1.4-1.9-5.1-7.1-5.1-7.1c-0.6-0.7-1.1-1.6-1.8-2.4c-1.6-2.4-3.3-5-5.3-6.6v17.4h2.2v-9l1.9,2.6c1,1.4,2.1,3,2.9,4
	c0.6,0.7,2.1,2.6,2.6,3c2.1,2.1,5.3,3.3,8.5,3.3c1.4,0,2.7-0.2,4-0.7v-0.2c-0.5,0.2-1.1,0.2-1.6,0.2C27.4,26.2,26.2,25.8,24.9,25.3
	L24.9,25.3z M11.2,6.7c1.4,1.9,5.3,7.1,5.3,7.1c0.5,0.7,1.1,1.6,1.6,2.4c1.6,2.4,3.3,5,5.3,6.6V5.5h-2.2v9l-1.9-2.6
	c-1-1.6-1.9-3-2.9-4C15.8,7,14,5.3,13.6,4.8c-1.9-2.1-5.3-3.3-8.5-3.3c-1.3,0-2.6,0.2-3.8,0.7v0.2c0.5-0.2,1.1-0.2,1.6-0.2
	c1.3,0,2.4,0.3,3.7,0.7C8,3.4,10.1,5.1,11.2,6.7L11.2,6.7z M95.5,14.3c-1.8-1.7-3.8-2.1-5.3-3.1c-1.1-0.9-1-2.1-0.5-2.8
	c1.3-1.7,4-1,4.6-0.9c0.8,0.2,1.1,0.3,1.9,0.9V6.5c-3.2-1-8.1-1.9-10,1.6c-0.8,1.4-1,3.8,1.1,5.4c2.1,1.7,5.7,2.6,6.1,4.2
	c0.3,0.9,0,1.6-0.5,2.1c-1.9,1.9-4.9,0.7-6.9-0.2v2.1c2.1,1,4.8,1.2,7,0.7c1.6-0.3,3.3-1.9,3.7-3.8C97.1,16.6,96.7,15.4,95.5,14.3
	L95.5,14.3z M107,14.3c-1.8-1.7-3.8-2.1-5.3-3.1c-1.1-0.9-1-2.1-0.5-2.8c1.3-1.6,3.8-0.9,4.5-0.7c0.8,0.2,1.1,0.3,1.9,0.9V6.5
	c-3.2-1-8.1-1.9-10,1.6c-0.6,1.4-0.8,3.8,1.3,5.4c2.1,1.7,5.7,2.6,6.1,4.2c0.3,0.9,0,1.6-0.5,2.1c-1.9,1.9-4.9,0.7-6.9-0.2v2.1
	c2.1,1,4.6,1.2,7,0.7c1.6-0.3,3.3-1.9,3.7-3.8C108.6,16.6,108.1,15.4,107,14.3L107,14.3z M74.8,22.3h10v-2.1h-6.5v-5.4h5.3V13h-5.3
	v-5h6.5V6h-10V22.3z M46.1,14.3c-1.8-1.7-3.8-2.1-5.3-3.1c-1.1-0.9-1-2.1-0.5-2.8c1.3-1.6,3.8-0.9,4.5-0.7c0.8,0.2,1.1,0.3,1.9,0.9
	V6.5c-3.2-1-8.1-1.9-10,1.6c-0.6,1.4-1,3.8,1.3,5.4c2.1,1.7,5.7,2.6,6.1,4.2c0.3,0.9,0,1.6-0.5,2.1c-1.9,1.9-4.9,0.7-6.9-0.2v2.1
	c2.1,1,4.8,1.2,7,0.7c1.6-0.3,3.3-1.9,3.7-3.8C47.5,16.6,47.2,15.4,46.1,14.3L46.1,14.3z M25.4,22.3h10v-2.1h-6.5v-5.4h5.3V13h-5.3
	v-5h6.5V6h-10V22.3z M55.5,5.8H49v16.7h3.3v-6.1c0,0,5.3,0.3,6.9-1.9c1.1-1.4,1.3-3.8,0.8-5.6C59.2,6.7,57.4,5.8,55.5,5.8L55.5,5.8z
	 M56.1,13.3c-1,1-2.6,1-3.8,0.9V7.9c0,0,2.9-0.7,4,1C56.9,9.8,56.9,12.1,56.1,13.3z M71.5,14.3c1.1-1.4,1.3-3.7,0.8-5.6
	c-0.6-1.9-2.4-3-4.3-3h-6.5v16.5h3.3v-6.1h1.6l3.5,6.1h3.8l-3.8-6.8C70.3,15.2,71.1,14.9,71.5,14.3L71.5,14.3z M68.7,13.3
	c-1,1-2.6,0.9-3.8,0.9V8.1c0,0,2.7-0.7,4,1C69.4,10,69.5,12.1,68.7,13.3z M126.8,18.7c-1.1,0-1.9,0.9-1.9,2.1s1,2.1,1.9,2.1
	c1,0,1.9-0.9,1.9-2.1S127.8,18.7,126.8,18.7z M126.8,22.5c-1,0-1.8-0.9-1.8-1.9c0-1,0.8-1.9,1.8-1.9c1,0,1.8,0.9,1.8,1.9
	C128.4,21.8,127.6,22.5,126.8,22.5z M127.3,20.8c0,0,0.3-0.2,0.3-0.5c0-0.3-0.3-0.7-0.6-0.7h-1v2.3h0.3V21h0.6
	c0.3,0,0.5,0.2,0.5,0.5v0.3h0.3c-0.2-0.2-0.2-0.3-0.2-0.7C127.6,20.8,127.4,20.8,127.3,20.8L127.3,20.8z M126.8,20.6h-0.6v-0.7h0.6
	c0.2,0,0.3,0,0.3,0.3C127.3,20.4,127.1,20.6,126.8,20.6z"/>
</svg>
