<?xml version="1.0" encoding="utf-8"?>
<!-- Generator: Adobe Illustrator 25.2.1, SVG Export Plug-In . SVG Version: 6.00 Build 0)  -->
<svg version="1.1" id="Layer_1" xmlns="http://www.w3.org/2000/svg" xmlns:xlink="http://www.w3.org/1999/xlink" x="0px" y="0px"
	 viewBox="0 0 237 30" style="enable-background:new 0 0 237 30;" xml:space="preserve">
<style type="text/css">
	.st0{fill:#FFFFFF;}
</style>
<g id="Layer_2_1_">
	<g id="Layer_1-2">
		<path class="st0" d="M7.470507,11.475188c-0.684834-0.440672-1.484792-0.668731-2.299049-0.655431
			c-0.706513-0.015326-1.403811,0.162487-2.01671,0.514261c-0.573875,0.335601-1.031305,0.83878-1.310861,1.441948V11.67686
			c-0.006554-0.202166-0.085246-0.395316-0.221838-0.544512c-0.160278-0.151153-0.374816-0.231155-0.594929-0.221838
			c-0.226124-0.009147-0.446863,0.070463-0.615097,0.221838c-0.152161,0.159643-0.232325,0.374634-0.221838,0.59493v12.211178
			c-0.010668,0.211361,0.070151,0.417095,0.221838,0.564678c0.165844,0.155317,0.388297,0.23554,0.615097,0.221838
			c0.219529,0.0182,0.436265-0.05895,0.594929-0.211754c0.146363-0.15447,0.222917-0.362251,0.211755-0.574762v-4.739269
			c0.279556,0.603167,0.736986,1.106346,1.310861,1.441948c0.612898,0.351774,1.310196,0.529589,2.01671,0.514261
			c0.815235,0.018322,1.617986-0.202528,2.309133-0.635263c0.669226-0.433834,1.200901-1.049465,1.532701-1.774704
			c0.384112-0.848158,0.573602-1.771509,0.554595-2.702393c0.015811-0.933847-0.173508-1.859778-0.554595-2.712475
			C8.680987,12.577813,8.148909,11.933706,7.470507,11.475188z M7.077249,18.775677
			c-0.541527,0.669659-1.367964,1.043617-2.228465,1.008356c-0.86176,0.041855-1.691051-0.333393-2.228464-1.008356
			c-0.572947-0.817957-0.850336-1.806608-0.786517-2.803226c-0.071815-1.003727,0.206098-2.001364,0.786517-2.823395
			c0.53949-0.67229,1.367339-1.046884,2.228464-1.008354c0.862083-0.043542,1.692111,0.33203,2.228465,1.008354
			c0.575035,0.813561,0.855972,1.798643,0.7966,2.793144C7.952925,16.95129,7.670575,17.955622,7.077249,18.775677z"/>
		<path class="st0" d="M18.612829,11.45502c-0.754642-0.431062-1.611614-0.65053-2.480553-0.635263
			c-0.866186-0.019037-1.720908,0.200744-2.470469,0.635263c-0.716345,0.41884-1.289292,1.044515-1.643619,1.794872
			c-0.405298,0.845667-0.605659,1.774926-0.584846,2.712474c-0.022032,0.940895,0.178358,1.873716,0.584846,2.722559
			c0.357442,0.74826,0.929643,1.373108,1.643619,1.794872c0.749561,0.434521,1.604283,0.654301,2.470469,0.635263
			c0.868938,0.015266,1.72591-0.204203,2.480553-0.635263c0.716942-0.421169,1.29254-1.045904,1.653702-1.794872
			c0.398411-0.851244,0.5951-1.782913,0.574762-2.722558c0.020973-0.93646-0.175787-1.865003-0.574762-2.712474
			C19.908476,12.498829,19.332119,11.873265,18.612829,11.45502z M18.340574,18.785761
			c-0.541618,0.675243-1.373936,1.050161-2.238548,1.008354c-0.867156,0.040123-1.701801-0.334148-2.248632-1.008354
			c-0.57442-0.821064-0.851848-1.813385-0.786517-2.81331c-0.062698-1.008829,0.229844-2.007766,0.826851-2.823395
			c0.541618-0.675244,1.373934-1.05016,2.238549-1.008354c0.853189-0.027246,1.670097,0.345775,2.208298,1.008354
			c0.571465,0.814852,0.848822,1.799824,0.786516,2.793144C19.201115,16.95244,18.923212,17.957155,18.340574,18.785761z"/>
		<path class="st0" d="M37.398483,10.900425c-0.308041,0.002198-0.580147,0.201197-0.675598,0.494094l-2.803223,7.461827
			l-2.863729-7.421494c-0.057648-0.16774-0.171682-0.310281-0.322674-0.403341
			c-0.138092-0.099092-0.303957-0.15202-0.473925-0.151253c-0.163517,0.000715-0.322523,0.053715-0.45376,0.151253
			c-0.151829,0.097386-0.271189,0.23781-0.342842,0.403341l-2.863728,7.44166l-2.78306-7.50216
			c-0.097698-0.300026-0.380301-0.50071-0.695765-0.494094c-0.219681,0.00359-0.43078,0.085881-0.594931,0.231921
			c-0.172026,0.128011-0.273052,0.330085-0.272257,0.544512c0.002806,0.097013,0.023304,0.192697,0.060501,0.282339
			l3.367907,8.520598c0.079094,0.172762,0.209324,0.317078,0.373093,0.413425
			c0.150688,0.097721,0.324749,0.153421,0.504177,0.161337c0.186333-0.004284,0.367828-0.060127,0.524345-0.161337
			c0.16304-0.091488,0.288157-0.238052,0.352924-0.413425l2.783058-7.139152l2.803226,7.139152
			c0.224777,0.478939,0.795231,0.684977,1.27417,0.460205c0.202408-0.094988,0.365215-0.257795,0.460205-0.460205l3.367905-8.540766
			c0.038521-0.096277,0.059017-0.198817,0.060501-0.302506c0.003185-0.196781-0.086475-0.383577-0.242004-0.504177
			C37.794323,10.976042,37.600071,10.900496,37.398483,10.900425z"/>
		<path class="st0" d="M48.308884,16.08337c0.124146-0.168345,0.181614-0.376661,0.161335-0.584846
			c0.066822-1.240922-0.336418-2.461454-1.129356-3.418324c-0.779255-0.836934-1.882084-1.296442-3.025063-1.260444
			c-0.855309-0.012332-1.697029,0.214688-2.430138,0.655431c-0.71101,0.437394-1.284187,1.066506-1.653702,1.815039
			c-0.403282,0.839193-0.603622,1.761435-0.584846,2.692307c-0.081444,1.383111,0.394264,2.741254,1.320946,3.771247
			c0.959064,0.927153,2.257053,1.419371,3.589745,1.36128c0.538712-0.000725,1.074787-0.075365,1.593204-0.221838
			c0.540447-0.141523,1.05938-0.355204,1.542782-0.635263c0.473927-0.282339,0.715931-0.594929,0.715931-0.937769
			c0.005615-0.171066-0.055904-0.337538-0.171421-0.463842c-0.093021-0.116203-0.234341-0.183138-0.383175-0.181505
			c-0.256001,0.053463-0.499157,0.156204-0.715931,0.302505c-0.391182,0.222939-0.799122,0.4151-1.220108,0.574762
			c-0.436657,0.155457-0.89785,0.230612-1.361279,0.221838c-2.083935,0-3.186401-1.166334-3.307404-3.498991h6.534142
			C47.979713,16.29701,48.173904,16.226051,48.308884,16.08337z M41.250397,15.216184
			c0.034882-0.850396,0.362606-1.662596,0.927685-2.299048c0.558033-0.550008,1.325977-0.832932,2.107464-0.776433
			c0.759312-0.047887,1.499889,0.248337,2.016708,0.806684c0.516685,0.656349,0.784561,1.474296,0.756268,2.309133
			L41.250397,15.216184z"/>
		<path class="st0" d="M55.790874,10.860091h-0.282337c-0.632652,0.046102-1.24649,0.235764-1.794872,0.554595
			c-0.533611,0.318681-0.956104,0.793988-1.210026,1.361279v-1.119273c0.022438-0.417076-0.297474-0.773369-0.714539-0.795805
			c-0.020611-0.001108-0.041264-0.00137-0.06189-0.000795c-0.215942-0.00237-0.424812,0.076856-0.58485,0.221838
			c-0.165047,0.152504-0.253731,0.37051-0.242004,0.59493v8.5811c-0.015732,0.223038,0.069382,0.441389,0.231918,0.594931
			c0.344395,0.287844,0.845467,0.287844,1.189861,0c0.15696-0.160732,0.237698-0.380917,0.22184-0.605013v-4.940939
			c-0.019001-0.727468,0.212379-1.439406,0.65543-2.01671c0.503029-0.601604,1.233612-0.966892,2.016712-1.008355l0.615097-0.050418
			c0.229893-0.007009,0.450481-0.092396,0.625175-0.242004c0.125984-0.140766,0.191216-0.325608,0.181507-0.514261
			C56.658062,11.051679,56.365635,10.819757,55.790874,10.860091z"/>
		<path class="st0" d="M66.005508,16.08337c0.120041-0.170311,0.177086-0.377075,0.161339-0.584846
			c0.064011-1.242243-0.34288-2.462936-1.139435-3.418324c-0.77771-0.839173-1.881596-1.299124-3.025066-1.260444
			c-0.855309-0.012332-1.697029,0.214688-2.430138,0.655431c-0.71101,0.437394-1.284187,1.066506-1.653702,1.815039
			c-0.403282,0.839193-0.603622,1.761435-0.584846,2.692307c-0.078712,1.384532,0.4007,2.742856,1.331028,3.771247
			c0.967506,0.939726,2.283237,1.433125,3.630077,1.36128c0.535343-0.001513,1.067966-0.076151,1.583115-0.221838
			c0.541134-0.139486,1.060329-0.353277,1.542789-0.635263c0.473923-0.282339,0.715927-0.594929,0.715927-0.937769
			c0.004387-0.169083-0.052963-0.333977-0.161339-0.463842c-0.097969-0.115448-0.241844-0.181847-0.393257-0.181505
			c-0.25312,0.052696-0.493126,0.15555-0.705849,0.302505c-0.392166,0.221033-0.799957,0.413134-1.220108,0.574762
			c-0.437149,0.153563-0.897987,0.228664-1.361275,0.221838c-2.083939,0-3.189762-1.166334-3.31749-3.498991h6.54422
			C65.702156,16.279453,65.876877,16.2103,66.005508,16.08337z M58.947025,15.216184
			c0.034882-0.850396,0.362606-1.662596,0.927685-2.299048c0.555645-0.547275,1.319324-0.829977,2.097389-0.776433
			c0.759312-0.047887,1.499889,0.248337,2.016708,0.806684c0.500481,0.648322,0.760635,1.450146,0.736099,2.268799
			C64.724907,15.216184,58.947025,15.216184,58.947025,15.216184z"/>
		<path class="st0" d="M76.532738,6.534248c-0.218849-0.013189-0.433632,0.063254-0.594933,0.211754
			c-0.154869,0.153805-0.235756,0.367021-0.221832,0.584846v5.445116c-0.273323-0.607271-0.732315-1.112155-1.310867-1.441948
			c-0.612701-0.352259-1.31015-0.530103-2.016708-0.514261c-0.811752-0.01576-1.610558,0.204968-2.299049,0.635263
			c-0.677078,0.43201-1.213287,1.052329-1.542786,1.784788c-0.384758,0.840807-0.574364,1.757765-0.554596,2.682224
			c-0.021683,0.937628,0.167862,1.868128,0.554596,2.722559c0.331444,0.739254,0.8666,1.368822,1.542786,1.815037
			c0.68483,0.440672,1.484802,0.668734,2.299049,0.655432c0.706558,0.015842,1.404007-0.162003,2.016708-0.514261
			c0.572258-0.319286,1.030548-0.809286,1.310867-1.401613v1.099108c-0.012604,0.217623,0.068069,0.430325,0.221832,0.584845
			c0.156601,0.157948,0.372749,0.242207,0.594933,0.231922c0.228264,0.011021,0.45092-0.072935,0.615097-0.231922
			c0.14959-0.157183,0.229561-0.367998,0.22184-0.584845V7.330848c0.018539-0.422834-0.309204-0.780648-0.732056-0.799192
			C76.602661,6.530124,76.567604,6.530991,76.532738,6.534248z M74.939529,18.765593
			c-0.537407,0.674965-1.366699,1.050213-2.228462,1.008356c-0.867165,0.040121-1.701797-0.33415-2.248634-1.008356
			c-0.581551-0.822292-0.866043-1.817982-0.806686-2.823393c-0.057137-0.980111,0.228012-1.949624,0.806686-2.742725
			c0.549828-0.670294,1.382401-1.043648,2.248634-1.008355c0.86113-0.038529,1.688972,0.336064,2.228462,1.008355
			c0.563522,0.814397,0.836967,1.794559,0.776436,2.783059C75.773376,16.970701,75.500206,17.949865,74.939529,18.765593z"/>
		<path class="st0" d="M92.716835,11.45502c-0.688499-0.430295-1.487305-0.651024-2.299049-0.635263
			c-0.706558-0.015841-1.404007,0.162003-2.016708,0.514261c-0.576385,0.332495-1.034645,0.836572-1.310867,1.441948V7.330849
			c0.024666-0.211815-0.041252-0.424205-0.181503-0.584846c-0.160667-0.149529-0.375916-0.226143-0.594925-0.211754
			c-0.421417-0.039387-0.794952,0.270289-0.834343,0.691701c-0.003265,0.034869-0.004128,0.069919-0.002594,0.104899v12.927109
			c-0.007721,0.216846,0.07225,0.427664,0.22184,0.584846c0.164169,0.158987,0.386826,0.242943,0.615097,0.231922
			c0.4282,0.022888,0.793877-0.305683,0.816765-0.733892c0.001472-0.027607,0.001472-0.055267,0-0.082876v-1.058771
			c0.276222,0.605377,0.734482,1.109453,1.310867,1.441948c0.612701,0.352259,1.31015,0.530102,2.016708,0.514261
			c0.814247,0.0133,1.614227-0.21476,2.299049-0.65543c0.676193-0.446218,1.211319-1.075785,1.542778-1.815039
			c0.386742-0.854429,0.576286-1.784929,0.554596-2.722558c0.019775-0.92446-0.169823-1.841417-0.554596-2.682224
			C93.966278,12.527375,93.414909,11.891719,92.716835,11.45502z M92.333656,18.745426
			c-1.126778,1.23353-3.040192,1.320066-4.273712,0.193293c-0.067314-0.061491-0.131813-0.125986-0.193306-0.193293
			c-0.565018-0.821285-0.838394-1.808283-0.776428-2.803226c-0.048187-0.997767,0.243286-1.982396,0.826843-2.793143
			c1.126778-1.233531,3.040192-1.320066,4.273712-0.193292c0.067314,0.061489,0.131813,0.125984,0.193298,0.193292
			c0.567764,0.797569,0.845329,1.765489,0.786522,2.742726C93.223282,16.910381,92.928146,17.916639,92.333656,18.745426z"/>
		<path class="st0" d="M104.998596,10.880259c-0.318039,0.000181-0.602943,0.196791-0.715927,0.494094l-3.388077,7.582829
			l-3.398155-7.623163c-0.066063-0.140484-0.166664-0.261909-0.292427-0.352924
			c-0.120293-0.077703-0.260162-0.119672-0.403343-0.121002c-0.217033,0.007956-0.425674,0.08576-0.594925,0.221838
			c-0.167984,0.126901-0.268372,0.323934-0.272255,0.534428c-0.004547,0.106694,0.023605,0.212238,0.080673,0.302506
			l4.033417,8.702102l-1.421783,3.075483c-0.150551,0.273525-0.087273,0.615286,0.151253,0.816767
			c0.148079,0.12817,0.338646,0.196487,0.534431,0.191587c0.143913,0.00367,0.285225-0.038731,0.403343-0.121004
			c0.131424-0.083149,0.236374-0.202095,0.302505-0.34284l5.707291-12.322098
			c0.061638-0.096156,0.093231-0.208488,0.090744-0.322673c-0.002197-0.200663-0.094826-0.389608-0.25209-0.514261
			C105.40593,10.9481,105.205116,10.876386,104.998596,10.880259z"/>
		<path class="st0" d="M126.950478,14.389333c-0.139221-0.070222-0.19516-0.240008-0.124931-0.379232
			c0.027199-0.053936,0.070984-0.09773,0.124931-0.124945c0.929192-0.578977,1.717964-1.357408,2.309135-2.278882
			c0.726288-1.140198,1.098251-2.470117,1.068848-3.821666c0.019897-1.372512-0.3508-2.722387-1.068848-3.89225
			c-0.78714-1.247265-1.923134-2.235997-3.267067-2.843561c-3.436111-1.398397-7.2827-1.398397-10.718811,0
			c-1.342247,0.59504-2.481323,1.569394-3.277153,2.803226c-0.725121,1.167736-1.102867,2.517761-1.089027,3.89225
			c-0.081528,2.505218,1.251442,4.843753,3.448578,6.050129c0.142006,0.076918,0.194778,0.254389,0.117867,0.396395
			c-0.027031,0.049894-0.067978,0.090843-0.117867,0.117867c-1.170036,0.561694-2.166481,1.429233-2.883896,2.510803
			c-0.853111,1.304247-1.28598,2.838621-1.24028,4.396429c-0.038513,1.667124,0.44059,3.305216,1.371361,4.68885
			c0.934471,1.331078,2.218674,2.377983,3.710747,3.025064c1.674965,0.730783,3.486771,1.095203,5.314026,1.068855
			c1.836937,0.0254,3.658409-0.338888,5.344284-1.068855c1.499466-0.643927,2.790962-1.691084,3.730919-3.025064
			c0.924194-1.386215,1.39946-3.023241,1.361267-4.68885c0.039536-1.525772-0.386002-3.027466-1.220108-4.305676
			C129.108887,15.83836,128.113098,14.970932,126.950478,14.389333z M117.492111,5.576311
			c0.868629-0.746939,1.991997-1.129821,3.135986-1.068856c1.16021-0.067842,2.301781,0.315101,3.186409,1.068856
			c0.814934,0.787838,1.242615,1.893913,1.169693,3.025064c0.037132,1.090193-0.413902,2.140142-1.230194,2.863729
			c-0.867157,0.74455-1.983818,1.133583-3.1259,1.089024c-1.12999,0.048462-2.23629-0.333513-3.09565-1.068856
			c-0.807983-0.71942-1.251846-1.762513-1.210022-2.84356C116.244354,7.497883,116.671921,6.377378,117.492111,5.576311z
			 M124.308586,24.240961c-1.012337,0.890478-2.334404,1.34687-3.680496,1.270527
			c-1.348007,0.068256-2.670242-0.386946-3.690582-1.270527c-0.905487-0.819298-1.403564-1.99625-1.361275-3.216652
			c-0.07019-1.254223,0.447998-2.469542,1.401611-3.287239c1.045616-0.795855,2.337563-1.199135,3.650246-1.139439
			c1.313499-0.064867,2.606209,0.346935,3.64016,1.159607c0.940338,0.81723,1.450233,2.023144,1.381454,3.267071
			C125.69165,22.240526,125.20208,23.414755,124.308586,24.240961z"/>
		<path class="st0" d="M160.639618,9.629897c-1.234665-0.679268-2.624374-1.026697-4.033417-1.008354
			c-1.250092-0.020288-2.489365,0.234452-3.630096,0.746182c-1.028275,0.438523-1.927307,1.132755-2.611633,2.016709V3.902441
			c0.016846-1.002275-0.781982-1.82844-1.784271-1.845289c-0.02034-0.000343-0.04068-0.000343-0.061005,0h-3.267075v26.973495
			h3.267075c1.002426,0.000019,1.815063-0.812593,1.815079-1.81501c0-0.003366-0.000015-0.006744-0.000031-0.010115v-9.286947
			c-0.090179-1.339176,0.347809-2.660393,1.220108-3.680495c0.870834-0.884146,2.07811-1.353848,3.31749-1.290694
			c1.224304-0.06165,2.415466,0.408938,3.267075,1.290694c0.857529,1.027352,1.28717,2.34512,1.199936,3.680495v9.34745
			c-0.000015,0.996849,0.808075,1.804966,1.804947,1.804985c0.003357,0,0.006729-0.00001,0.010101-0.000031h3.267075V17.232893
			c0.042618-1.614528-0.303207-3.215664-1.008347-4.668683C162.802673,11.3307,161.836716,10.308541,160.639618,9.629897z"/>
		<path class="st0" d="M140.865768,8.924049h-0.373077c-1.121902-0.027367-2.017059-0.944889-2.016708-2.067128V3.952859
			c0,0-5.485458,7.461826-6.755981,9.48862c-0.218597,0.336317-0.167847,0.780447,0.121002,1.058773
			c0.335312,0.194936,0.646652,0.42845,0.927689,0.695765c0.279892,0.34273,0.482773,0.741645,0.594925,1.169691v6.42322
			c0,4.154421,2.141052,6.234993,6.423203,6.241718h0.262177c1.615005,0,2.924225-1.309229,2.924225-2.924229v-1.36128h-2.359558
			c-0.585022,0.055994-1.170181-0.105553-1.643616-0.45376c-0.366226-0.398329-0.545853-0.933577-0.494095-1.472198v-7.653415
			c0-1.113799,0.902908-2.01671,2.016708-2.01671h0.373077c1.1138,0,2.016708-0.90291,2.016708-2.016709v-0.050418
			c0.077972-1.111066-0.759521-2.074973-1.870575-2.152939C140.963242,8.925582,140.91452,8.923928,140.865768,8.924049z"/>
		<path class="st0" d="M223.591217,3.902442v23.303082c0,1.002417,0.812622,1.815039,1.815048,1.815039l0,0h3.267075V2.057153
			h-3.267075c-1.00798,0.005506-1.820633,0.827093-1.815125,1.835065C223.591156,3.895626,223.591187,3.899034,223.591217,3.902442z
			"/>
		<path class="st0" d="M233.543671,2.057153c-1.004044,0.005546-1.815048,0.821063-1.815033,1.825122v23.323248
			c0,1.002417,0.812622,1.815039,1.815033,1.815039l0,0h3.267075V2.057151
			C236.810745,2.057153,233.543671,2.057153,233.543671,2.057153z"/>
		<path class="st0" d="M215.423538,10.123992v1.371363c-0.721237-0.950083-1.64418-1.728392-2.702377-2.278882
			c-1.218079-0.62633-2.573364-0.938295-3.942673-0.907519c-1.641068-0.020077-3.254944,0.42007-4.6586,1.270527
			c-1.39801,0.865027-2.5289,2.100626-3.267075,3.569576c-0.831711,1.678216-1.246765,3.532138-1.210022,5.404784
			c-0.039459,1.898771,0.375412,3.779484,1.210022,5.485451c0.740265,1.509506,1.8853,2.783705,3.307404,3.680494
			c1.387085,0.866268,2.993057,1.317617,4.628342,1.300779c1.379959,0.028868,2.745392-0.286495,3.972916-0.917603
			c1.07457-0.55748,2.000931-1.362854,2.702393-2.349466v1.512531c0.005539,0.998484,0.816544,1.804976,1.815033,1.804955h3.297333
			V8.26862H217.2789c-0.996445-0.028244-1.827118,0.756639-1.855362,1.753097
			C215.422562,10.055797,215.422562,10.08991,215.423538,10.123992z M213.689163,21.82091
			c-0.452667,0.840464-1.129913,1.538658-1.956207,2.01671c-0.807663,0.461674-1.72168,0.70495-2.651978,0.705849
			c-0.917084-0.000898-1.816528-0.251907-2.601562-0.726015c-0.828979-0.505871-1.505096-1.227287-1.956207-2.087294
			c-0.512924-0.97879-0.769623-2.071524-0.746185-3.176317c-0.027344-1.092342,0.229813-2.173016,0.746185-3.135984
			c0.449493-0.839445,1.123215-1.53761,1.946121-2.016709c0.790985-0.465285,1.694-0.705849,2.611633-0.695765
			c0.931778-0.000293,1.846939,0.246765,2.651978,0.715932c0.827286,0.47678,1.504837,1.175288,1.956207,2.016709
			c0.50592,0.980636,0.755676,2.07327,0.726013,3.176318C214.451324,19.727695,214.201355,20.831713,213.689163,21.82091z"/>
		<path class="st0" d="M182.914185,10.68867l4.46701,16.960529c0.211136,0.813047,0.944778,1.38088,1.78479,1.381447h4.628342
			l7.855072-27.98185h-4.214905c-0.858536,0.001634-1.602524,0.595151-1.794876,1.431864l-4.75943,20.671276l-4.517426-18.150389
			c-0.207489-0.822616-0.946503-1.399708-1.794876-1.401613h-3.317474c-0.847122-0.000716-1.584656,0.578483-1.784805,1.401613
			l-4.527512,18.150389l-4.749359-20.671276c-0.193192-0.840393-0.942642-1.434929-1.804947-1.431864h-4.204834l7.814743,27.971766
			h4.6586c0.840012-0.000566,1.573639-0.568399,1.78479-1.381447l4.477097-16.960529"/>
	</g>
</g>
</svg>
