<?xml version="1.0" encoding="utf-8"?>
<!-- Generator: Adobe Illustrator 25.3.1, SVG Export Plug-In . SVG Version: 6.00 Build 0)  -->
<svg version="1.1" id="Capa_1" xmlns="http://www.w3.org/2000/svg" xmlns:xlink="http://www.w3.org/1999/xlink" x="0px" y="0px"
	 viewBox="0 0 451 565" style="enable-background:new 0 0 451 565;" xml:space="preserve">
<style type="text/css">
	.st0{opacity:0.35;}
	.st1{clip-path:url(#SVGID_2_);}
	.st2{fill:none;stroke:#FFFFFF;stroke-width:0.25;stroke-miterlimit:10;}
</style>
<g class="st0">
	<defs>
		<rect id="SVGID_1_" class="st0" width="451" height="565"/>
	</defs>
	<clipPath id="SVGID_2_">
		<use xlink:href="#SVGID_1_"  style="overflow:visible;"/>
	</clipPath>
	<g class="st1">
		<line class="st2" x1="9.5" y1="2.8" x2="-2" y2="13.3"/>
		<line class="st2" x1="46.2" y1="15.7" x2="29.2" y2="35.9"/>
		<line class="st2" x1="57.3" y1="2.8" x2="46.2" y2="15.7"/>
		<line class="st2" x1="29.2" y1="35.9" x2="4.7" y2="64.7"/>
		<line class="st2" x1="-2" y1="72.7" x2="4.7" y2="64.7"/>
		<line class="st2" x1="-2" y1="179.4" x2="12" y2="156.2"/>
		<line class="st2" x1="105.1" y1="2.8" x2="97.2" y2="15.7"/>
		<line class="st2" x1="67.6" y1="64.7" x2="85" y2="35.9"/>
		<line class="st2" x1="97.2" y1="15.7" x2="85" y2="35.9"/>
		<line class="st2" x1="43.6" y1="104" x2="67.6" y2="64.7"/>
		<line class="st2" x1="12" y1="156.2" x2="43.6" y2="104"/>
		<line class="st2" x1="317.8" y1="567" x2="307.7" y2="485.1"/>
		<line class="st2" x1="248.5" y1="2.8" x2="250.2" y2="15.7"/>
		<line class="st2" x1="261" y1="104" x2="256.2" y2="64.7"/>
		<line class="st2" x1="307.7" y1="485.1" x2="290.1" y2="342.3"/>
		<line class="st2" x1="256.2" y1="64.7" x2="252.6" y2="35.9"/>
		<line class="st2" x1="250.2" y1="15.7" x2="252.6" y2="35.9"/>
		<line class="st2" x1="261" y1="104" x2="267.3" y2="156.2"/>
		<line class="st2" x1="276.8" y1="232.3" x2="267.3" y2="156.2"/>
		<line class="st2" x1="290.1" y1="342.3" x2="276.8" y2="232.3"/>
		<line class="st2" x1="437.6" y1="156.2" x2="455.5" y2="185.7"/>
		<line class="st2" x1="437.6" y1="156.2" x2="406" y2="104"/>
		<line class="st2" x1="352.2" y1="15.7" x2="364.3" y2="35.9"/>
		<line class="st2" x1="406" y1="104" x2="381.9" y2="64.7"/>
		<line class="st2" x1="364.3" y1="35.9" x2="381.9" y2="64.7"/>
		<line class="st2" x1="344.1" y1="2.8" x2="352.2" y2="15.7"/>
		<line class="st2" x1="392" y1="2.8" x2="403.1" y2="15.7"/>
		<line class="st2" x1="444.7" y1="64.7" x2="455.5" y2="77.5"/>
		<line class="st2" x1="420.2" y1="35.9" x2="444.7" y2="64.7"/>
		<line class="st2" x1="403.1" y1="15.7" x2="420.2" y2="35.9"/>
		<line class="st2" x1="-2" y1="429" x2="29.5" y2="342.3"/>
		<line class="st2" x1="97.1" y1="156.2" x2="116.2" y2="104"/>
		<line class="st2" x1="69.5" y1="232.3" x2="29.5" y2="342.3"/>
		<line class="st2" x1="148.2" y1="15.7" x2="140.9" y2="35.9"/>
		<line class="st2" x1="116.2" y1="104" x2="130.6" y2="64.7"/>
		<line class="st2" x1="153" y1="2.8" x2="148.2" y2="15.7"/>
		<line class="st2" x1="130.6" y1="64.7" x2="140.9" y2="35.9"/>
		<line class="st2" x1="69.5" y1="232.3" x2="97.1" y2="156.2"/>
		<line class="st2" x1="193.3" y1="64.7" x2="196.7" y2="35.9"/>
		<line class="st2" x1="182.3" y1="156.2" x2="173.1" y2="232.3"/>
		<line class="st2" x1="160" y1="342.3" x2="173.1" y2="232.3"/>
		<line class="st2" x1="199.2" y1="15.7" x2="196.7" y2="35.9"/>
		<line class="st2" x1="132.9" y1="567" x2="142.6" y2="485.1"/>
		<line class="st2" x1="182.3" y1="156.2" x2="188.5" y2="104"/>
		<line class="st2" x1="188.5" y1="104" x2="193.3" y2="64.7"/>
		<line class="st2" x1="200.8" y1="2.8" x2="199.2" y2="15.7"/>
		<line class="st2" x1="142.6" y1="485.1" x2="160" y2="342.3"/>
		<line class="st2" x1="380.3" y1="232.3" x2="352.5" y2="156.2"/>
		<line class="st2" x1="420.6" y1="342.3" x2="380.3" y2="232.3"/>
		<line class="st2" x1="301.2" y1="15.7" x2="308.5" y2="35.9"/>
		<line class="st2" x1="420.6" y1="342.3" x2="455.5" y2="438.1"/>
		<line class="st2" x1="319" y1="64.7" x2="308.5" y2="35.9"/>
		<line class="st2" x1="296.5" y1="2.8" x2="301.2" y2="15.7"/>
		<line class="st2" x1="352.5" y1="156.2" x2="333.4" y2="104"/>
		<line class="st2" x1="319" y1="64.7" x2="333.4" y2="104"/>
		<line class="st2" x1="439.8" y1="2.8" x2="454" y2="15.7"/>
		<line class="st2" x1="455.5" y1="17.1" x2="454" y2="15.7"/>
		<line class="st2" x1="142.6" y1="485.1" x2="-2" y2="485.1"/>
		<line class="st2" x1="142.6" y1="485.1" x2="307.7" y2="485.1"/>
		<line class="st2" x1="307.7" y1="485.1" x2="455.5" y2="485.1"/>
		<line class="st2" x1="-2" y1="342.3" x2="29.5" y2="342.3"/>
		<line class="st2" x1="420.6" y1="342.3" x2="455.5" y2="342.3"/>
		<line class="st2" x1="290.1" y1="342.3" x2="420.6" y2="342.3"/>
		<line class="st2" x1="160" y1="342.3" x2="290.1" y2="342.3"/>
		<line class="st2" x1="29.5" y1="342.3" x2="160" y2="342.3"/>
		<line class="st2" x1="69.5" y1="232.3" x2="173.1" y2="232.3"/>
		<line class="st2" x1="380.3" y1="232.3" x2="455.5" y2="232.3"/>
		<line class="st2" x1="173.1" y1="232.3" x2="276.8" y2="232.3"/>
		<line class="st2" x1="-2" y1="232.3" x2="69.5" y2="232.3"/>
		<line class="st2" x1="276.8" y1="232.3" x2="380.3" y2="232.3"/>
		<line class="st2" x1="437.6" y1="156.2" x2="455.5" y2="156.2"/>
		<line class="st2" x1="12" y1="156.2" x2="-2" y2="156.2"/>
		<line class="st2" x1="182.3" y1="156.2" x2="267.3" y2="156.2"/>
		<line class="st2" x1="12" y1="156.2" x2="97.1" y2="156.2"/>
		<line class="st2" x1="352.5" y1="156.2" x2="437.6" y2="156.2"/>
		<line class="st2" x1="267.3" y1="156.2" x2="352.5" y2="156.2"/>
		<line class="st2" x1="97.1" y1="156.2" x2="182.3" y2="156.2"/>
		<line class="st2" x1="116.2" y1="104" x2="188.5" y2="104"/>
		<line class="st2" x1="188.5" y1="104" x2="261" y2="104"/>
		<line class="st2" x1="43.6" y1="104" x2="116.2" y2="104"/>
		<line class="st2" x1="-2" y1="104" x2="43.6" y2="104"/>
		<line class="st2" x1="406" y1="104" x2="455.5" y2="104"/>
		<line class="st2" x1="261" y1="104" x2="333.4" y2="104"/>
		<line class="st2" x1="333.4" y1="104" x2="406" y2="104"/>
		<line class="st2" x1="381.9" y1="64.7" x2="444.7" y2="64.7"/>
		<line class="st2" x1="319" y1="64.7" x2="381.9" y2="64.7"/>
		<line class="st2" x1="455.5" y1="64.7" x2="444.7" y2="64.7"/>
		<line class="st2" x1="-2" y1="64.7" x2="4.7" y2="64.7"/>
		<line class="st2" x1="193.3" y1="64.7" x2="256.2" y2="64.7"/>
		<line class="st2" x1="67.6" y1="64.7" x2="130.6" y2="64.7"/>
		<line class="st2" x1="130.6" y1="64.7" x2="193.3" y2="64.7"/>
		<line class="st2" x1="256.2" y1="64.7" x2="319" y2="64.7"/>
		<line class="st2" x1="4.7" y1="64.7" x2="67.6" y2="64.7"/>
		<line class="st2" x1="252.6" y1="35.9" x2="196.7" y2="35.9"/>
		<line class="st2" x1="140.9" y1="35.9" x2="85" y2="35.9"/>
		<line class="st2" x1="85" y1="35.9" x2="29.2" y2="35.9"/>
		<line class="st2" x1="196.7" y1="35.9" x2="140.9" y2="35.9"/>
		<line class="st2" x1="-2" y1="35.9" x2="29.2" y2="35.9"/>
		<line class="st2" x1="308.5" y1="35.9" x2="252.6" y2="35.9"/>
		<line class="st2" x1="364.3" y1="35.9" x2="308.5" y2="35.9"/>
		<line class="st2" x1="420.2" y1="35.9" x2="364.3" y2="35.9"/>
		<line class="st2" x1="455.5" y1="35.9" x2="420.2" y2="35.9"/>
		<line class="st2" x1="352.2" y1="15.7" x2="301.2" y2="15.7"/>
		<line class="st2" x1="455.5" y1="15.7" x2="454" y2="15.7"/>
		<line class="st2" x1="403.1" y1="15.7" x2="352.2" y2="15.7"/>
		<line class="st2" x1="454" y1="15.7" x2="403.1" y2="15.7"/>
		<line class="st2" x1="97.2" y1="15.7" x2="46.2" y2="15.7"/>
		<line class="st2" x1="301.2" y1="15.7" x2="250.2" y2="15.7"/>
		<line class="st2" x1="148.2" y1="15.7" x2="97.2" y2="15.7"/>
		<line class="st2" x1="46.2" y1="15.7" x2="-2" y2="15.7"/>
		<line class="st2" x1="250.2" y1="15.7" x2="199.2" y2="15.7"/>
		<line class="st2" x1="199.2" y1="15.7" x2="148.2" y2="15.7"/>
		<line class="st2" x1="57.3" y1="2.8" x2="9.5" y2="2.8"/>
		<line class="st2" x1="200.8" y1="2.8" x2="153" y2="2.8"/>
		<line class="st2" x1="9.5" y1="2.8" x2="-2" y2="2.8"/>
		<line class="st2" x1="153" y1="2.8" x2="105.1" y2="2.8"/>
		<line class="st2" x1="105.1" y1="2.8" x2="57.3" y2="2.8"/>
		<line class="st2" x1="439.8" y1="2.8" x2="392" y2="2.8"/>
		<line class="st2" x1="392" y1="2.8" x2="344.1" y2="2.8"/>
		<line class="st2" x1="455.5" y1="2.8" x2="439.8" y2="2.8"/>
		<line class="st2" x1="296.5" y1="2.8" x2="248.5" y2="2.8"/>
		<line class="st2" x1="248.5" y1="2.8" x2="200.8" y2="2.8"/>
		<line class="st2" x1="344.1" y1="2.8" x2="296.5" y2="2.8"/>
	</g>
</g>
</svg>
