<?xml version="1.0" encoding="utf-8"?>
<!-- Generator: Adobe Illustrator 25.2.1, SVG Export Plug-In . SVG Version: 6.00 Build 0)  -->
<svg version="1.1" id="Layer_1" xmlns="http://www.w3.org/2000/svg" xmlns:xlink="http://www.w3.org/1999/xlink" x="0px" y="0px"
	 viewBox="0 0 310.37 213.89" style="enable-background:new 0 0 310.37 213.89;" xml:space="preserve">
<style type="text/css">
	.st0{fill:#E01F26;}
	.st1{fill:#010101;}
	.st2{fill:#FDEB07;}
	.st3{fill:none;}
	.st4{fill:#FFFFFF;}
</style>
<g>
	<path class="st0" d="M159.77,85.23c0-5.17-0.56-10.21-1.63-15.07c0.09-0.08,0.17-0.15,0.24-0.23
		c-6.27-28.2-29.68-50.86-60.23-54.98c-13.24-1.79-26.12,0.14-37.58,4.97v0.05C34.88,30.69,16.85,55.87,16.85,85.23
		c0,37.41,29.29,68.04,66.4,70.62c0.43,0.03,0.86,0.06,1.29,0.08c0.06,0,0.13,0.01,0.2,0.01c23.78,1.27,45.87-9.26,59.9-26.81
		c-0.13,0.06-0.27,0.12-0.4,0.19C153.95,117.22,159.77,101.9,159.77,85.23z"/>
	<path class="st0" d="M293.31,103.11c0-39.15-32.03-70.88-71.55-70.88s-71.55,31.74-71.55,70.88c0,22.93,10.99,43.31,28.03,56.26
		c0.02,0.03,0.04,0.06,0.06,0.09c9.53,7.23,21.03,12.18,33.78,13.9c9.46,1.28,18.74,0.65,27.46-1.57v-0.01
		C270.45,163.95,293.31,136.18,293.31,103.11z"/>
	<path class="st1" d="M170.41,45.52c-0.16-1.35-0.24-2.71-0.35-4.1c-0.79,0.05-1.48,0.09-2.25,0.14c-0.64-2.27-1.32-4.49-1.87-6.73
		c-0.42-1.71,0.34-3.36,0.54-5.04c0.08-0.71,0.04-1.19-0.78-1.51c-0.48-0.18-1.03-0.73-1.14-1.2c-0.49-2.13-1.99-3.37-3.73-4.42
		c-0.19-0.11-0.5-0.03-0.75-0.04c0.01,0.28-0.06,0.61,0.06,0.83c0.16,0.28,0.45,0.5,0.72,0.7c0.61,0.47,0.89,1.04,0.76,1.63
		c-0.98,0.44-1.85,0.8-2.69,1.22c-0.17,0.09-0.36,0.44-0.3,0.57c0.08,0.17,0.38,0.29,0.6,0.34c0.17,0.03,0.37-0.1,0.56-0.15
		c0.65-0.18,1.31-0.35,2.06-0.55c0.03,0.48,0.05,0.75,0.06,0.98c-0.45,0.22-0.84,0.38-1.2,0.6c-0.18,0.11-0.29,0.34-0.43,0.51
		c0.23,0.11,0.46,0.28,0.7,0.3c0.26,0.02,0.53-0.11,0.8-0.17c0.26,0.99-0.42,1.34-1.1,1.48c-0.23,0.05-0.66-0.44-0.86-0.76
		c-0.54-0.87-1.7-1.18-2.64-0.61c-0.19,0.11-0.28,0.37-0.42,0.56c0.17,0.11,0.33,0.27,0.53,0.33c0.9,0.27,1.37,0.88,1.61,1.76
		c0.36,1.3,0.59,2.71,2.2,3.19c0.23,0.07,0.44,0.37,0.55,0.61c0.3,0.69,0.62,1.39,0.8,2.11c0.5,1.96,0.51,3.96,0.52,5.97
		c0.01,2.31,0.22,4.62,0.25,6.94c0.03,2.26-0.03,4.52-0.1,6.78c-0.01,0.38-0.22,0.76-0.37,1.12c-0.39,0.94-0.99,1.84-1.18,2.82
		c-0.34,1.77-0.78,3.45-1.84,4.95c-0.48,0.68-1.04,1.5-1.03,2.25c0.01,0.47-0.11,0.76-0.31,0.99c0.01,0.06,0.03,0.13,0.04,0.19
		c3.42-6.43,7.79-12.24,12.91-17.26c-0.02-0.17-0.04-0.34-0.06-0.51C170.99,50.06,170.67,47.79,170.41,45.52z"/>
	<path class="st1" d="M150.85,93.58c1.16-8.44,3.78-16.34,7.57-23.47c-0.01-0.06-0.03-0.13-0.04-0.19
		c-0.12,0.14-0.26,0.26-0.42,0.39c-0.57,0.47-1.2,0.64-1.97,0.8c-1.07,0.22-1.98-0.09-2.96-0.1c-1.4-0.03-2.71,0.2-3.49,1.56
		c-0.64,1.1-1.49,2.12-1.45,3.5c0.02,0.65,0,1.3,0,1.95c-1.95,0-2.52-0.32-2.58-1.21c0.33-0.35,0.76-0.58,0.79-0.86
		c0.15-1.12,0.27-2.26,0.22-3.39c-0.02-0.48-0.37-1.08-0.76-1.39c-1.34-1.06-3.14-1.44-4.26-2.84c-0.06-0.08-0.19-0.14-0.3-0.15
		c-0.99-0.07-1.51-0.74-2.03-1.47c-0.57-0.81-1.17-0.83-1.85-0.13c-0.13,0.14-0.35,0.29-0.53,0.29c-2.42-0.08-4.18,1.12-5.46,2.97
		c-1.86,2.69-2.86,5.62-1.95,8.94c0.92,3.32,3.93,5.97,7.54,5.86c0.38-0.01,0.76,0.17,1.21,0.28c-0.26,0.37-0.41,0.59-0.59,0.84
		c0.24,0.21,0.45,0.39,0.71,0.61c-0.14,0.09-0.25,0.19-0.27,0.17c-0.87-0.75-2-0.78-3.04-1.02c-0.48-0.11-1-0.1-1.5-0.07
		c-0.28,0.02-0.54,0.25-0.83,0.3c-1.33,0.23-2.66,0.38-4.02,0.03c-0.46-0.12-1.07-0.11-1.49,0.08c-1.67,0.76-3.23,1.7-4.06,3.53
		c-0.24-0.02-0.52-0.05-0.79-0.08c-2.06-0.26-4.13-0.53-6.19-0.76c-1.12-0.13-1.52-0.59-1.54-1.73c-0.01-0.55-0.17-1.09-0.24-1.64
		c-0.15-1.14-0.59-2.37-0.33-3.41c0.26-1.01,0.26-1.94,0.25-2.93c0-1.92-0.03-3.86,0.19-5.77c0.16-1.4,0.41-2.84,1.89-3.73
		c0.63-0.37,1.25-1.08,1.15-2.01c-0.08-0.74,0.16-1.31,0.82-1.7c0.49-0.3,0.33-0.59-0.07-0.81c-0.74-0.41-1.89,0-2.15,0.81
		c-0.17,0.53-0.38,0.55-0.86,0.35c-1.36-0.56-1.85-1.84-2.7-2.88c0.22-0.16,0.34-0.33,0.48-0.35c0.61-0.09,1.23-0.09,1.83-0.22
		c0.27-0.06,0.49-0.36,0.73-0.54c-0.22-0.13-0.43-0.35-0.66-0.38c-0.65-0.09-1.32-0.09-2.05-0.13c0.59-0.69,1.26-1.11,2.13-1.27
		c0.29-0.05,0.51-0.46,0.76-0.7c-0.28-0.11-0.6-0.35-0.84-0.29c-0.99,0.2-1.97,0.5-3.07,0.79c0.24-0.32,0.47-0.64,0.71-0.95
		c0.17-0.22,0.38-0.42,0.49-0.66c0.06-0.14,0-0.41-0.11-0.53c-0.11-0.11-0.37-0.16-0.52-0.1c-1.37,0.48-2.93,3.17-2.54,4.37
		c0.2,0.61,0.42,1.29-0.25,1.83c-0.11,0.09-0.13,0.37-0.1,0.55c0.16,0.91,0.16,1.91,0.56,2.7c0.96,1.85,0.25,3.6-0.05,5.39
		c-0.04,0.22-0.4,0.51-0.65,0.55c-1.07,0.19-2.16,0.31-3.29,0.46c0.1,2.77,0.2,5.51,0.28,8.24c0.04,1.56,0.33,3.19-0.02,4.67
		c-0.41,1.73-0.35,3.43-0.46,5.15c-0.05,0.86,0.28,1.54,1.07,1.94c3.86,1.92,7.72,3.84,11.98,4.75c1.18,0.25,2.36,0.52,3.56,0.79
		c-0.32,2.85-0.64,5.66-0.96,8.53c-0.34-0.14-0.25,1.09-0.18,1.76c0.26,2.31,0.77,4.55,2.27,6.4c1.67,2.04,3.44,4,5.16,5.99
		c1.56,1.8,3.11,3.61,4.68,5.4c0.98,1.12,1.94,2.25,2.99,3.3c0.8,0.81,1.78,1.1,2.95,0.68c1.24-0.45,2.67-0.57,3.72-1.27
		c0.5-0.33,1.02-0.61,1.55-0.85c2.71-3.39,5.13-7.04,7.19-10.93C150.09,110.32,149.69,102.02,150.85,93.58z"/>
	<path class="st2" d="M158.42,70.11c1.73,7.87,2.12,16.17,0.96,24.62c-1.16,8.44-3.78,16.34-7.57,23.47
		c3.62,16.51,13.12,31.14,26.49,41.27c-0.09-0.14-0.19-0.28-0.26-0.43c-0.11-0.23-0.27-0.53-0.21-0.75c1.4-4.9,2.06-9.9,2.09-14.98
		c0.01-2.4-0.06-4.81,0.05-7.21c0.12-2.59-0.36-5.12-0.6-7.67c-0.18-1.85-0.52-3.69-0.81-5.53c-0.15-0.96-0.18-2-0.6-2.84
		c-0.48-0.97-0.81-1.97-0.67-2.95c0.11-0.82,0.86-1.55,0.21-2.45c0.48-0.57,0-0.92-0.31-1.29c-0.37-0.45-0.77-0.88-1.26-1.45
		c1.78-1.14,3.5-2.23,5.25-3.35c-0.17-0.27-0.27-0.46-0.4-0.64c-2.78-3.84-5.61-7.65-8.3-11.55c-0.7-1.02-1.33-2.07-2.18-2.98
		c-2.5-2.66-4.49-5.64-5.95-8.98c-0.99-2.26-0.83-4.44,0.36-6.57c0.35-0.63,0.73-1.26,1.04-1.92c1.06-2.31,2.14-4.61,3.13-6.95
		c0.56-1.33,0.96-2.73,1.46-4.09c0.2-0.55,0.48-1.07,0.74-1.6c0.47-0.97,0.88-1.94,0.39-3.04c-0.09-0.21-0.05-0.5-0.01-0.75
		c0.39-2.24,0.12-4.45-0.15-6.67C166.22,57.87,161.84,63.68,158.42,70.11z"/>
	<path class="st1" d="M206.74,196.25c-1.53-0.27-2.78,0.03-4.24-0.74c-1.83-0.96-3.53-2.44-5.08-3.88
		c-0.95-0.89-1.87-1.92-2.57-3.02c-0.7-1.1-1.11-2.34-1.71-3.49c-0.09-0.17-0.07-0.39-0.08-0.57c-0.02-0.79-0.24-1.25-0.77-1.58
		l-5.44-8.61c-0.82-0.67-1.96-1.29-2.28-2.17c-0.65-1.79-1.74-3.3-2.59-4.95c-0.84-1.64-1.64-3.31-2.43-4.98
		c-0.38-0.8-0.68-1.63-1.04-2.44c-0.05-0.12-0.13-0.23-0.2-0.34c-13.37-10.14-22.87-24.76-26.49-41.27
		c-2.06,3.88-4.48,7.54-7.19,10.93c1.39-0.63,2.88-1.04,4.38-1.61c0.48,0.96,1,1.85,1.36,2.79c0.19,0.48-0.02,1.12,0.16,1.6
		c0.54,1.43,1.2,2.82,1.8,4.23c0.96,2.23,2.33,4.15,3.89,6.04c2.71,3.28,5.19,6.76,7.73,10.18c0.33,0.44,0.4,1.05,0.62,1.57
		c0.15,0.35,0.28,0.83,0.56,0.98c0.97,0.5,0.88,1.32,0.81,2.13c-0.06,0.75-0.29,1.49-0.35,2.25c-0.06,0.79,0.05,1.61-0.05,2.39
		c-0.06,0.48-0.36,0.94-0.61,1.38c-0.57,1.03-1.09,2.11-1.8,3.05c-1.01,1.32-2.61,4.24-3.71,5.49c-2.15,2.45-3.7,3.93-5.31,6.29
		l-2.27,1.37c-0.47,0.58-1.23,1.43-1.76,1.85c-0.14,0.11-0.27,0.19-0.39,0.26c-0.17,0.04-0.34,0.02-0.57-0.02
		c-0.23-0.04-0.65,0.11-0.73,0.29c-0.05,0.09-0.08,0.19-0.12,0.29c-0.78,0.38-1.5,0.82-2.24,1.36c-0.09,0.06-0.2,0.36-0.11,0.48
		c0.8,1.12,1.4,2.25,1.99,3.48c0.29,0.6,0.61,1.13,1.36,1.13c-0.14,1.52-0.06,3.43,0.95,4.56c1.24,1.38,2.53,2.03,4.11,2.67
		c0.98,0.39,1.94,0,2.91,0.32c0.4-0.85,0.46-1.69-0.1-2.41c-0.64-0.82-1.48-0.95-1.57-2.09c-0.11-1.42,0.49-2.68,0.93-4.11
		c0.27-0.87,0.46-2.01,0.89-2.93c0.44-0.92,1.19-1.77,1.86-2.58c0.1-0.12,0.29-0.18,0.44-0.24c0.82-0.29,1.13-0.71,1.17-1.49
		c0.66-0.54,1.3-1.07,1.86-1.59c1.73-1.6,3.57-3.09,5.25-4.74c1.71-1.68,3.63-2.73,5.31-4.54c0.16,0.24,0.4,0.54,0.58,0.87
		c0.99,1.84,2.23,3.49,3.84,4.86c0.33,0.28,0.61,0.66,0.79,1.05c0.67,1.45,1.24,2.94,2.59,3.95c0.38,0.28,0.73,0.61,1.03,0.97
		c0.58,0.71,1.13,1.46,0.79,2.45h1.85c0.47,0.73,0.68,1.42,0.61,2.42c0.33,0.09,0.67,0.2,1.01,0.3c-0.6,0.23-1.19,0.45-1.76,0.72
		c0.49,1.18,1.27,2.34,1.99,3.34c0.47,0.66,0.9,1.11,1.14,1.81c0.28,0.82,0.07,1.31,0.18,2.24c0.15,1.28,0.18,2.91,0.25,4.29
		c0.01,0.14,0.22,0.31,0.36,0.31c1.34,0.01,2.28,0.13,3.61,0.55c0.65,0.21,1.45,0.56,2.05-0.08c1.68,0.86,3.42,0.95,5.24,1.3
		c2.23,0.42,4.13,0.05,6.25-0.69c1.3-0.46,2.55-0.97,3.85-1.42C208.86,197.28,208.09,196.49,206.74,196.25z"/>
	<rect x="41.73" y="94.39" class="st3" width="231.03" height="34.28"/>
	<g>
		<path class="st4" d="M48.84,114.01l-3.38,8.22h-1.64L54.4,96.42l10.53,25.81h-1.64l-3.38-8.22H48.84z M54.4,100.46l-4.95,12.06
			h9.87L54.4,100.46z"/>
		<path class="st4" d="M71.15,122.23V97.25h5.05c1.91,0,3.71,0.13,5.22,1.46c1.54,1.32,2.11,3.18,2.11,5.17
			c0,2.29-0.9,3.98-2.91,5.1c3.11,0.63,5.22,3.11,5.22,6.3c0,2.02-0.77,3.84-2.34,5.17c-1.77,1.49-3.65,1.79-5.89,1.79L71.15,122.23
			L71.15,122.23z M72.76,108.58h2.78c1.7,0,3.08,0.1,4.51-0.93c1.44-1.03,1.87-2.29,1.87-4.01c0-1.62-0.64-3.21-2.07-4.11
			c-1.27-0.8-2.84-0.8-4.31-0.8h-2.78V108.58z M72.76,120.74h3.85c1.77,0,3.61,0.07,5.15-0.96c1.54-1.03,2.47-2.58,2.47-4.44
			c0-1.82-0.9-3.65-2.61-4.47c-1.54-0.76-3.65-0.8-5.32-0.8h-3.55V120.74z"/>
		<path class="st4" d="M95,98.74v9.08h10.17v1.49H95v11.43h10.43v1.49H93.39V97.25h12.04v1.49L95,98.74L95,98.74z"/>
		<path class="st4" d="M115.3,120.74h6.42v1.49h-8.03V97.25h1.6V120.74z"/>
		<path class="st4" d="M143.29,122.23h-1.6V97.25h4.45c1.97,0,3.88,0.13,5.45,1.46c1.54,1.29,2.27,3.18,2.27,5.14
			c0,1.79-0.7,3.78-2.11,4.94c-1.54,1.32-3.65,1.59-5.62,1.59h-2.84V122.23z M146.2,108.88c1.64,0,3.11-0.2,4.41-1.36
			c1.1-0.99,1.64-2.29,1.64-3.75c0-1.56-0.64-3.11-1.91-4.04c-1.27-0.96-2.88-0.99-4.41-0.99h-2.64v10.14L146.2,108.88L146.2,108.88
			z"/>
		<path class="st4" d="M162.42,122.23h-1.6V97.25h1.6V122.23z"/>
		<path class="st4" d="M193.96,123.06l-21.17-22.3v21.47h-1.6V96.92l21.17,22.13v-21.8h1.6V123.06z"/>
		<path class="st4" d="M208.35,122.23h-1.6V98.74h-6.52v-1.49h14.65v1.49h-6.52L208.35,122.23L208.35,122.23z"/>
		<path class="st4" d="M245.77,109.74c0,7.02-5.99,12.82-13.08,12.82c-7.09,0-13.08-5.8-13.08-12.82c0-7.02,5.95-12.82,13.08-12.82
			C239.79,96.92,245.77,102.72,245.77,109.74z M221.22,109.74c0,6.16,5.18,11.33,11.47,11.33c6.26,0,11.47-5.2,11.47-11.33
			c0-6.16-5.22-11.33-11.47-11.33C226.41,98.41,221.22,103.58,221.22,109.74z"/>
		<path class="st4" d="M264.7,101.36c-1.14-1.79-2.74-2.95-5.12-2.95c-2.71,0-4.75,2.15-4.75,4.77s2.51,3.71,4.55,4.67l4.82,2.48
			c1.91,1.19,2.88,2.72,2.88,4.97c0,4.14-3.81,7.26-7.89,7.26c-3.51,0-6.25-2.15-7.42-5.37l1.4-0.63c1.07,2.65,3.04,4.51,6.09,4.51
			c3.31,0,6.22-2.58,6.22-5.9c0-2.82-2.91-4.01-5.08-5.07l-4.55-2.39c-1.67-1.03-2.61-2.48-2.61-4.47c0-3.71,2.68-6.33,6.46-6.33
			c2.54,0,4.95,1.36,6.15,3.51L264.7,101.36z"/>
	</g>
</g>
</svg>
