<?xml version="1.0" encoding="utf-8"?>
<!-- Generator: Adobe Illustrator 25.2.1, SVG Export Plug-In . SVG Version: 6.00 Build 0)  -->
<svg version="1.1" id="Layer_1" xmlns="http://www.w3.org/2000/svg" xmlns:xlink="http://www.w3.org/1999/xlink" x="0px" y="0px"
	 viewBox="0 0 95.16 21.5" style="enable-background:new 0 0 95.16 21.5;" xml:space="preserve">
<style type="text/css">
	.st0{fill-rule:evenodd;clip-rule:evenodd;fill:#FFFFFF;}
	.st1{fill-rule:evenodd;clip-rule:evenodd;fill:#E1251B;}
	.st2{fill:#FFFFFF;}
</style>
<g>
	<path class="st0" d="M53.71,15.77c-0.69-2.96-1.37-5.91-2.06-8.86c-0.01,0-0.02,0-0.03,0c0,2.95,0,5.9,0,8.86
		c-0.92,0-1.82,0-2.73,0c0-3.94,0-7.88,0-11.82c1.46,0,2.91,0,4.38,0c0.56,2.38,1.12,4.77,1.68,7.15c0.01,0,0.02,0,0.03,0
		c0.55-2.38,1.11-4.76,1.67-7.15c1.46,0,2.91,0,4.36,0c0,3.94,0,7.88,0,11.82c-0.9,0-1.8,0-2.71,0c0-2.97,0-5.92,0-8.88
		c-0.01,0-0.02,0-0.03,0c-0.69,2.96-1.38,5.92-2.07,8.88C55.36,15.77,54.55,15.77,53.71,15.77z"/>
	<path class="st0" d="M83.58,15.8c0-3.96,0-7.9,0-11.84c0.12-0.04,8.75-0.04,8.92-0.01c0,0.83,0,1.67,0,2.5
		c-0.01,0.01-0.01,0.01-0.01,0.01c-0.01,0-0.01,0.01-0.01,0.01c-0.01,0-0.02,0-0.03,0c-0.01,0-0.02,0-0.03,0c-0.01,0-0.02,0-0.03,0
		c-1.79,0-3.59,0-5.38,0c-0.01,0-0.02,0-0.03,0l-0.01,0l-0.01,0c-0.03,0.11-0.04,1.57-0.01,1.87c0.24,0.01,0.48,0,0.72,0.01
		c0.25,0,0.5,0,0.75,0c0.25,0,0.49,0,0.73,0c0.25,0,0.49,0,0.73,0c0.24,0,0.49,0,0.73,0c0.25,0,0.5,0,0.74,0c0.25,0,0.49,0,0.73,0
		c0.04,0.12,0.06,2.13,0.02,2.42c-1.72,0-3.43,0-5.15,0c-0.03,0.12-0.04,2.13-0.01,2.34c1.91,0,3.82,0,5.74,0c0,0.9,0,1.79,0,2.68
		C89.64,15.8,86.62,15.8,83.58,15.8z"/>
	<path class="st0" d="M77.48,12.42c0.39-1.41,0.79-2.83,1.19-4.24c0.39-1.41,0.79-2.82,1.18-4.23c1.12,0,2.24,0,3.39,0
		c-1.34,3.96-2.67,7.91-4,11.86c-1.21,0-2.41,0-3.62,0c-1.36-3.95-2.71-7.9-4.07-11.86c1.17,0,2.32,0,3.49,0
		c0.81,2.83,1.61,5.66,2.41,8.48C77.46,12.43,77.47,12.43,77.48,12.42z"/>
	<path class="st0" d="M73.03,9.79c-0.01,3.27-2.68,5.92-5.93,5.9c-3.28-0.01-5.91-2.66-5.9-5.93c0-3.27,2.67-5.91,5.94-5.9
		C70.39,3.88,73.04,6.54,73.03,9.79z M70.71,9.8c0.02-1.94-1.57-3.59-3.58-3.59c-1.98,0-3.59,1.6-3.59,3.58
		c0,1.98,1.6,3.59,3.59,3.59C69.11,13.38,70.71,11.78,70.71,9.8z"/>
	<path class="st1" d="M48.87,17.73c0-0.44,0-0.86,0-1.29c4.05,0,8.1,0,12.15,0c0,0.43,0,0.86,0,1.29
		C56.97,17.73,52.92,17.73,48.87,17.73z"/>
	<path class="st2" d="M71.3,17.25c0-0.29,0-0.58,0-0.88c0.09,0,0.15,0,0.23,0c0,0.45,0,0.9,0,1.35c-0.12,0.04-0.2,0.01-0.28-0.1
		c-0.17-0.23-0.35-0.45-0.52-0.68c-0.03-0.04-0.07-0.09-0.13-0.16c-0.03,0.33,0,0.63-0.02,0.94c-0.07,0-0.13,0-0.2,0
		c-0.03-0.1-0.04-1.09-0.01-1.35c0.13-0.04,0.23-0.01,0.31,0.11c0.16,0.23,0.34,0.45,0.51,0.67c0.03,0.03,0.06,0.07,0.09,0.1
		C71.28,17.26,71.29,17.26,71.3,17.25z"/>
	<path class="st2" d="M66.46,17.77c-0.41,0-0.71-0.3-0.71-0.7c0-0.41,0.31-0.72,0.72-0.71c0.41,0,0.71,0.3,0.71,0.71
		C67.17,17.46,66.86,17.77,66.46,17.77z M65.99,17.07c0,0.27,0.2,0.49,0.46,0.49c0.26,0,0.46-0.21,0.46-0.49
		c0-0.28-0.2-0.5-0.47-0.5C66.18,16.58,65.99,16.79,65.99,17.07z"/>
	<path class="st2" d="M80.12,17.52c0,0.08,0,0.14,0,0.2c-0.11,0.03-0.84,0.04-1.01,0c0-0.44,0-0.88,0-1.34c0.33,0,0.66,0,1,0
		c0,0.03,0.01,0.06,0.01,0.09s0,0.06,0,0.11c-0.25,0-0.5,0-0.76,0c0,0.13,0,0.24,0,0.36c0.22,0,0.44,0,0.67,0c0,0.08,0,0.14,0,0.22
		c-0.22,0-0.44,0-0.67,0c0,0.12,0,0.23,0,0.35C79.6,17.52,79.85,17.52,80.12,17.52z"/>
	<path class="st2" d="M91.63,17.54c0.06-0.06,0.1-0.12,0.12-0.14c0.14,0.05,0.26,0.1,0.39,0.14c0.05,0.01,0.11,0,0.17-0.01
		c0.07-0.02,0.12-0.06,0.13-0.14c0-0.08-0.03-0.13-0.1-0.16c-0.07-0.03-0.13-0.05-0.21-0.07c-0.07-0.03-0.15-0.04-0.22-0.07
		c-0.15-0.06-0.23-0.17-0.23-0.33c0-0.16,0.08-0.28,0.22-0.35c0.22-0.11,0.53-0.05,0.73,0.13c-0.03,0.05-0.07,0.1-0.11,0.17
		c-0.05-0.03-0.1-0.05-0.14-0.08c-0.1-0.05-0.2-0.07-0.32-0.04c-0.07,0.01-0.12,0.05-0.13,0.13c-0.01,0.08,0.03,0.13,0.09,0.16
		c0.05,0.02,0.11,0.04,0.16,0.05c0.09,0.03,0.18,0.05,0.26,0.09c0.17,0.07,0.24,0.18,0.23,0.35c0,0.17-0.08,0.29-0.24,0.35
		C92.15,17.82,91.89,17.74,91.63,17.54z"/>
	<path class="st2" d="M62.53,17.38c0.04,0.05,0.08,0.09,0.13,0.13c-0.2,0.3-0.68,0.34-0.97,0.11c-0.31-0.25-0.35-0.74-0.08-1.04
		c0.27-0.3,0.76-0.31,1.04-0.01c-0.02,0.03-0.05,0.06-0.07,0.09c-0.02,0.03-0.03,0.05-0.04,0.07c-0.36-0.2-0.59-0.2-0.75,0.01
		c-0.15,0.19-0.14,0.5,0.02,0.67C61.99,17.61,62.21,17.6,62.53,17.38z"/>
	<path class="st2" d="M75.8,17.39c0.06,0.05,0.1,0.09,0.15,0.12c-0.17,0.27-0.68,0.37-1,0.1c-0.3-0.26-0.33-0.74-0.06-1.04
		c0.26-0.28,0.74-0.29,1.04,0c-0.04,0.05-0.09,0.1-0.14,0.17c-0.15-0.13-0.32-0.2-0.51-0.15c-0.1,0.03-0.18,0.09-0.24,0.17
		c-0.14,0.2-0.12,0.5,0.04,0.66C75.27,17.6,75.48,17.6,75.8,17.39z"/>
	<path class="st2" d="M88.59,16.38c0,0.07,0,0.13,0,0.2c-0.14,0-0.28,0-0.43,0c0,0.39,0,0.76,0,1.14c-0.08,0-0.15,0-0.25,0
		c0-0.18,0-0.37,0-0.56c0-0.19,0-0.37,0-0.57c-0.14,0-0.28,0-0.42,0c0-0.08,0-0.14,0-0.21C87.85,16.38,88.21,16.38,88.59,16.38z"/>
	<path class="st2" d="M84.1,17.24c0.03-0.02,0.04-0.02,0.06-0.03c0.2-0.11,0.28-0.27,0.25-0.47c-0.03-0.2-0.16-0.33-0.38-0.35
		c-0.24-0.02-0.48,0-0.72,0c0,0.46,0,0.9,0,1.35c0.08,0,0.15,0,0.23,0c0-0.15,0-0.3,0-0.45c0.06,0,0.11,0,0.15-0.01
		c0.11-0.02,0.17,0.03,0.23,0.12c0.06,0.1,0.13,0.18,0.2,0.28c0.03,0.06,0.07,0.08,0.15,0.07c0.05-0.01,0.11,0,0.19,0
		C84.32,17.56,84.21,17.4,84.1,17.24z M83.54,17.05c0-0.14,0-0.26,0-0.39c0-0.02,0.01-0.04,0.01-0.07c0.13,0,0.26-0.01,0.38,0
		c0.15,0.01,0.23,0.1,0.23,0.23c0,0.12-0.08,0.22-0.22,0.23C83.81,17.06,83.68,17.05,83.54,17.05z"/>
	<path class="st1" d="M67.12,12.04c-1.24,0-2.25-1-2.25-2.25c0-1.25,1-2.26,2.25-2.26c1.24,0,2.26,1,2.26,2.25
		C69.37,11.12,68.29,12.06,67.12,12.04z"/>
</g>
<g>
	<polygon class="st2" points="2.58,13.4 7.29,5.37 2.87,5.37 3.17,3.97 9.41,3.97 9.2,4.93 4.41,13.4 	"/>
	<path class="st2" d="M10.02,10.12c0-0.96,0.12-1.87,0.36-2.72c0.24-0.85,0.58-1.58,1.02-2.2c0.32-0.44,0.71-0.78,1.17-1.01
		c0.46-0.23,0.97-0.35,1.52-0.35c0.93,0,1.66,0.29,2.16,0.86c0.5,0.58,0.76,1.4,0.76,2.46c0,0.94-0.11,1.83-0.34,2.66
		c-0.23,0.84-0.56,1.57-0.98,2.18c-0.32,0.47-0.72,0.83-1.21,1.08c-0.49,0.26-1.02,0.39-1.6,0.39c-0.92,0-1.63-0.29-2.12-0.87
		C10.27,12.03,10.02,11.2,10.02,10.12 M14.04,5.21c-0.31,0-0.58,0.1-0.83,0.29c-0.24,0.19-0.46,0.47-0.63,0.84
		c-0.27,0.57-0.49,1.2-0.64,1.89c-0.16,0.69-0.24,1.35-0.24,1.96c0,0.65,0.1,1.13,0.31,1.44c0.21,0.31,0.53,0.47,0.96,0.47
		c0.31,0,0.59-0.1,0.85-0.29c0.26-0.2,0.47-0.48,0.64-0.85c0.27-0.58,0.48-1.22,0.64-1.92c0.15-0.7,0.23-1.35,0.23-1.98
		c0-0.63-0.1-1.1-0.31-1.4C14.8,5.36,14.47,5.21,14.04,5.21"/>
	<polygon class="st2" points="16.86,13.33 18.97,3.94 21.21,3.94 21.67,10.66 25.23,3.94 27.66,3.94 25.54,13.33 23.99,13.33 
		25.69,5.85 21.67,13.33 20.53,13.33 20.01,6.28 18.42,13.33 	"/>
	<polygon class="st2" points="27.77,13.33 29.89,3.94 31.71,3.94 29.61,13.33 	"/>
	<polygon class="st2" points="31.89,13.33 34.01,3.94 35.82,3.94 34.03,11.82 37.99,11.82 37.65,13.33 	"/>
	<path class="st2" d="M2.25,17.75v-3.13h0.91c0.37,0,0.65,0.07,0.83,0.21c0.18,0.14,0.27,0.35,0.27,0.65c0,0.28-0.09,0.49-0.26,0.65
		c-0.17,0.15-0.42,0.23-0.73,0.23H2.58v1.4H2.25z M2.58,16.05h0.53c0.29,0,0.49-0.04,0.6-0.14c0.12-0.09,0.18-0.24,0.18-0.45
		c0-0.2-0.06-0.34-0.18-0.43c-0.12-0.09-0.33-0.13-0.62-0.13H2.58V16.05z"/>
	<path class="st2" d="M5.29,17.75v-3.13h0.88c0.44,0,0.76,0.06,0.95,0.2c0.2,0.13,0.3,0.34,0.3,0.63c0,0.2-0.05,0.37-0.16,0.51
		c-0.11,0.13-0.27,0.23-0.49,0.29l0.74,1.5H7.12l-0.69-1.42H5.63v1.42H5.29z M6.17,14.91H5.63v1.13h0.52c0.32,0,0.56-0.04,0.7-0.13
		c0.14-0.09,0.22-0.23,0.22-0.43c0-0.21-0.06-0.36-0.19-0.44C6.75,14.95,6.51,14.91,6.17,14.91"/>
	<path class="st2" d="M8.33,16.18c0-0.49,0.11-0.89,0.34-1.18c0.22-0.29,0.52-0.44,0.9-0.44c0.38,0,0.68,0.15,0.9,0.44
		c0.22,0.29,0.34,0.68,0.34,1.18c0,0.49-0.11,0.89-0.34,1.18c-0.23,0.29-0.53,0.44-0.9,0.44c-0.38,0-0.68-0.15-0.9-0.44
		C8.44,17.07,8.33,16.67,8.33,16.18 M8.68,16.18c0,0.41,0.08,0.74,0.24,0.97c0.16,0.23,0.37,0.35,0.65,0.35
		c0.28,0,0.5-0.11,0.65-0.35c0.16-0.23,0.24-0.55,0.24-0.97c0-0.42-0.08-0.74-0.24-0.97c-0.16-0.23-0.37-0.35-0.65-0.35
		c-0.28,0-0.5,0.12-0.65,0.35C8.76,15.44,8.68,15.76,8.68,16.18"/>
	<path class="st2" d="M11.86,17.75v-3.13h0.75c0.24,0,0.43,0.02,0.58,0.06c0.15,0.04,0.29,0.1,0.4,0.19C13.77,15,13.9,15.17,14,15.4
		c0.09,0.23,0.14,0.49,0.14,0.78c0,0.52-0.13,0.91-0.4,1.17c-0.27,0.26-0.67,0.39-1.2,0.39H11.86z M12.53,14.91H12.2v2.53h0.28
		c0.23,0,0.42-0.02,0.56-0.05c0.14-0.03,0.25-0.09,0.35-0.17c0.13-0.1,0.23-0.24,0.3-0.42c0.07-0.18,0.11-0.38,0.11-0.62
		c0-0.25-0.04-0.46-0.1-0.64c-0.07-0.18-0.17-0.32-0.31-0.43c-0.1-0.07-0.2-0.12-0.33-0.15C12.94,14.92,12.76,14.91,12.53,14.91"/>
	<path class="st2" d="M15.22,14.62h0.34v2.02c0,0.14,0.01,0.25,0.02,0.32c0.01,0.07,0.03,0.14,0.06,0.19
		c0.06,0.11,0.15,0.2,0.27,0.26c0.12,0.06,0.27,0.09,0.43,0.09c0.17,0,0.31-0.03,0.44-0.09c0.12-0.06,0.21-0.15,0.27-0.26
		c0.03-0.06,0.05-0.13,0.06-0.2c0.01-0.07,0.02-0.2,0.02-0.37v-1.96h0.34v2.07c0,0.36-0.1,0.64-0.29,0.83
		c-0.19,0.19-0.47,0.28-0.84,0.28c-0.37,0-0.65-0.09-0.84-0.28c-0.19-0.19-0.28-0.46-0.28-0.83V14.62z"/>
	<path class="st2" d="M20.83,16.81c-0.08,0.33-0.21,0.58-0.39,0.74c-0.18,0.17-0.42,0.25-0.71,0.25c-0.38,0-0.68-0.14-0.89-0.42
		c-0.21-0.28-0.31-0.68-0.31-1.2c0-0.5,0.1-0.9,0.32-1.19c0.21-0.29,0.5-0.43,0.86-0.43c0.29,0,0.53,0.08,0.71,0.24
		c0.18,0.16,0.3,0.39,0.37,0.7l-0.32,0.08c-0.05-0.23-0.14-0.41-0.26-0.54c-0.13-0.12-0.28-0.19-0.46-0.19
		c-0.28,0-0.49,0.11-0.64,0.35c-0.15,0.23-0.22,0.56-0.22,0.99c0,0.42,0.08,0.74,0.23,0.97c0.15,0.23,0.36,0.34,0.64,0.34
		c0.2,0,0.37-0.07,0.51-0.2c0.14-0.13,0.22-0.32,0.27-0.56L20.83,16.81z"/>
	<path class="st2" d="M23.88,16.81c-0.08,0.33-0.21,0.58-0.39,0.74c-0.18,0.17-0.42,0.25-0.72,0.25c-0.38,0-0.68-0.14-0.89-0.42
		c-0.21-0.28-0.31-0.68-0.31-1.2c0-0.5,0.1-0.9,0.32-1.19c0.21-0.29,0.5-0.43,0.86-0.43c0.29,0,0.53,0.08,0.71,0.24
		c0.18,0.16,0.3,0.39,0.37,0.7l-0.31,0.08c-0.05-0.23-0.14-0.41-0.26-0.54c-0.13-0.12-0.28-0.19-0.47-0.19
		c-0.27,0-0.49,0.11-0.64,0.35c-0.15,0.23-0.22,0.56-0.22,0.99c0,0.42,0.08,0.74,0.23,0.97c0.15,0.23,0.37,0.34,0.64,0.34
		c0.21,0,0.37-0.07,0.51-0.2c0.13-0.13,0.22-0.32,0.27-0.56L23.88,16.81z"/>
	<rect x="24.86" y="14.62" class="st2" width="0.35" height="3.13"/>
	<path class="st2" d="M26.29,16.18c0-0.49,0.11-0.89,0.34-1.18c0.23-0.29,0.53-0.44,0.9-0.44c0.38,0,0.68,0.15,0.9,0.44
		c0.23,0.29,0.34,0.68,0.34,1.18c0,0.49-0.11,0.89-0.34,1.18c-0.22,0.29-0.53,0.44-0.9,0.44c-0.37,0-0.67-0.15-0.9-0.44
		C26.4,17.07,26.29,16.67,26.29,16.18 M26.64,16.18c0,0.41,0.08,0.74,0.24,0.97c0.16,0.23,0.38,0.35,0.65,0.35
		c0.28,0,0.5-0.11,0.65-0.35c0.16-0.23,0.24-0.55,0.24-0.97c0-0.42-0.08-0.74-0.24-0.97c-0.16-0.23-0.37-0.35-0.65-0.35
		c-0.28,0-0.49,0.12-0.65,0.35C26.72,15.44,26.64,15.76,26.64,16.18"/>
	<polygon class="st2" points="29.82,17.75 29.82,14.62 30.31,14.62 31.75,17.06 31.75,14.62 32.08,14.62 32.08,17.75 31.81,17.75 
		30.14,14.98 30.14,17.75 	"/>
	<polygon class="st2" points="33.35,17.75 33.35,14.62 35.2,14.62 35.2,14.91 33.7,14.91 33.7,15.96 34.76,15.96 34.76,16.25 
		33.7,16.25 33.7,17.45 35.27,17.45 35.27,17.75 	"/>
	<path class="st2" d="M35.98,16.96l0.33-0.11c0.06,0.2,0.15,0.36,0.29,0.47c0.14,0.11,0.3,0.17,0.47,0.17c0.2,0,0.36-0.05,0.48-0.15
		c0.12-0.1,0.18-0.23,0.18-0.4c0-0.1-0.02-0.18-0.05-0.25c-0.03-0.07-0.09-0.13-0.16-0.18c-0.1-0.07-0.28-0.15-0.53-0.24
		c-0.09-0.03-0.16-0.06-0.2-0.07c-0.26-0.1-0.45-0.22-0.56-0.34c-0.11-0.12-0.16-0.28-0.16-0.47c0-0.25,0.08-0.45,0.25-0.61
		c0.17-0.15,0.39-0.23,0.67-0.23c0.24,0,0.45,0.07,0.62,0.2c0.17,0.13,0.29,0.32,0.36,0.57l-0.31,0.09
		C37.6,15.24,37.52,15.1,37.4,15c-0.12-0.1-0.27-0.14-0.45-0.14c-0.17,0-0.3,0.05-0.4,0.14c-0.1,0.09-0.15,0.22-0.15,0.37
		c0,0.07,0.02,0.14,0.05,0.2c0.03,0.06,0.09,0.12,0.16,0.18c0.07,0.05,0.23,0.13,0.48,0.22c0.08,0.03,0.14,0.05,0.19,0.07
		c0.3,0.11,0.5,0.24,0.62,0.37c0.12,0.13,0.17,0.31,0.17,0.53c0,0.26-0.09,0.47-0.27,0.63c-0.18,0.16-0.41,0.24-0.71,0.24
		c-0.28,0-0.51-0.07-0.7-0.21C36.2,17.45,36.07,17.24,35.98,16.96"/>
</g>
</svg>
