<svg width="233" height="57" viewBox="0 0 233 57" fill="none" xmlns="http://www.w3.org/2000/svg">
<path d="M212.217 28.0563L217.689 36.0892C218.157 36.7636 218.763 37.3345 219.467 37.7653C219.93 38.0601 220.454 38.2508 221 38.324V39.3356H211.803V38.324C212.275 38.2724 212.739 38.1607 213.182 37.9918C213.75 37.7653 213.857 37.1009 213.412 36.4818L209.749 31.1215L205.672 36.6479C204.874 37.5539 205.672 38.1579 206.576 38.324V39.3356H199.847V38.324C200.411 38.2431 200.95 38.0417 201.426 37.7339C201.903 37.4261 202.306 37.0194 202.606 36.5422L208.323 28.9924L203.173 21.6239C202.818 21.0521 202.317 20.5823 201.72 20.2616C201.123 19.9409 200.45 19.7806 199.77 19.7968V18.8003H209.136V19.7968C208.216 19.9176 206.622 20.2498 207.312 21.4729L210.5 26.1688L214.148 21.4729C214.945 20.582 214.378 19.9629 213.121 19.7968V18.8003H219.866V19.7968C219.008 19.9373 218.213 20.3263 217.582 20.9142L212.217 28.0563ZM181.744 28.7207C181.744 32.9636 183.108 37.6596 187.446 37.6596C191.784 37.6596 193.041 32.9636 192.918 28.5999C192.796 24.2361 192.014 20.0988 187.446 20.0988C182.878 20.0988 181.744 24.6287 181.744 28.7056V28.7207ZM197.486 29.0528C197.379 34.534 193.608 39.7886 187.553 39.7886C181.499 39.7886 177.406 34.9719 177.283 28.9472C177.176 23.3603 181.161 18 187.446 18C193.731 18 197.609 23.466 197.486 29.0528V29.0528ZM170.891 39.2299H170.094L156.743 24.0247V36.5422C156.751 36.8292 156.841 37.108 157.004 37.346C157.167 37.584 157.396 37.7713 157.663 37.8861C158.141 38.1258 158.661 38.2744 159.196 38.324V39.3356H152.022V38.324C152.423 38.284 152.812 38.1714 153.172 37.9918C153.516 37.9031 153.823 37.7092 154.049 37.438C154.275 37.1667 154.408 36.832 154.428 36.4818V21.6843C154.169 21.1364 153.77 20.6637 153.27 20.312C152.771 19.9602 152.188 19.7412 151.577 19.676V18.6644H157.05L168.807 32.2539V21.4578C168.807 20.3404 167.274 19.676 166.415 19.676V18.6644H173.482V19.676C171.949 19.7817 170.845 20.1139 170.845 21.3521V39.2299H170.891ZM143.852 36.5422C143.852 37.2066 144.189 37.5539 144.879 37.8861C145.314 38.0861 145.772 38.2332 146.243 38.324V39.3356H137.567V38.324C138.086 38.2073 138.598 38.061 139.1 37.8861C139.682 37.5539 140.127 37.3274 140.127 36.5422V21.3068C140.127 20.1894 138.594 19.7968 137.506 19.6307V18.6191H146.182V19.6307C144.925 19.8572 143.791 20.0686 143.791 21.4125V36.512L143.852 36.5422ZM122.055 20.6726C121.825 20.6726 121.028 20.7934 119.771 20.8991V29.7323H123.419C126.04 29.5058 127.19 28.2224 127.19 25.0364C127.297 21.1256 124.906 20.6726 122.055 20.6726ZM133.352 39.2299H128.094L123.496 31.5141H119.832V36.5422C119.832 37.3274 120.399 38.0522 122.453 38.2183L122.576 39.2299H113.701V38.2183C114.229 38.2103 114.751 38.0973 115.234 37.8861C115.548 37.7784 115.818 37.5728 116.004 37.3004C116.189 37.0279 116.279 36.7035 116.261 36.3761V21.6843C116.261 20.3404 114.728 19.7817 113.409 19.676V18.6644H123.572C127.113 18.6644 131.451 21.0199 131.451 24.9307C131.51 26.2687 131.116 27.5881 130.331 28.6815C129.546 29.7748 128.414 30.58 127.113 30.9705L130.639 36.5573C130.934 37.0123 131.339 37.3882 131.818 37.6516C132.297 37.9151 132.834 38.0579 133.382 38.0673L133.275 39.1846L133.352 39.2299ZM93.4058 28.8566C93.2832 33.1146 94.7701 37.7955 99.0007 37.7955C103.231 37.7955 104.58 33.1146 104.473 28.7358C104.366 24.5985 103.676 20.2498 99.0007 20.2498C94.3255 20.2498 93.5131 24.5834 93.4058 28.8566ZM109.102 29.1736C108.995 34.6397 105.224 39.8943 99.1693 39.8943C93.1146 39.8943 89.0219 35.0927 88.8993 29.0528C88.792 23.466 92.7927 18.1057 99.062 18.1057C105.331 18.1057 109.225 23.466 109.102 29.1736V29.1736ZM79.365 20.7934V36.4063C79.3921 36.7708 79.5404 37.1163 79.7871 37.3893C80.0337 37.6622 80.3648 37.8475 80.7292 37.9163C81.2246 38.0876 81.7393 38.1991 82.262 38.2485V39.2601H73.3102V38.2485C73.8309 38.1871 74.3443 38.0758 74.8431 37.9163C75.1803 37.8307 75.4779 37.6345 75.6869 37.36C75.8959 37.0856 76.0037 36.7492 75.9927 36.4063L75.8701 20.8689H72.973C71.2562 20.8689 70.8117 21.5484 70.4591 22.3789C70.232 23.0037 70.1179 23.663 70.1219 24.3267H68.865V18.8909H86.3241V24.3267H85.0672C84.9839 23.609 84.8299 22.901 84.6073 22.2128C84.4481 21.8708 84.1902 21.5825 83.8659 21.3838C83.5415 21.1851 83.165 21.0848 82.7832 21.0954H79.365V20.7934ZM65.0942 18.6644L65.2168 24.2512H64.0672C63.8302 23.3084 63.4477 22.407 62.9328 21.5786C62.5052 21.079 61.9565 20.6939 61.3375 20.459C60.7185 20.2241 60.0493 20.1469 59.392 20.2347C53.9197 20.2347 53.4599 25.5951 53.4599 28.9472C53.4599 32.2992 54.1343 37.8861 59.8518 37.7653C61.0459 37.6769 62.2081 37.3438 63.2639 36.7873C64.3197 36.2309 65.2459 35.4634 65.9832 34.534L66.2131 34.3075L67.3474 35.1984L67.2401 35.3191C66.4118 36.7209 65.2302 37.8883 63.8097 38.7083C62.3891 39.5283 60.7777 39.9733 59.1314 40C52.4022 40 48.9686 34.081 48.9686 29.2793C48.9686 25.2629 51.4825 18.4379 57.9971 18.4379C60.0776 18.3956 62.1299 18.918 63.9292 19.9478L64.1591 19.0419H65.0635L65.0942 18.6644ZM42.6073 36.5422C42.6073 37.2066 42.9599 37.5539 43.6343 37.8861C44.0746 38.0862 44.5378 38.2332 45.0139 38.324V39.3356H36.338V38.324C36.7978 38.2183 37.5949 37.9918 37.8708 37.8861C38.438 37.5539 38.8978 37.3274 38.8978 36.5422V21.3068C38.8978 20.1894 37.365 19.7968 36.2766 19.6307V18.6191H44.9526V19.6307C43.6956 19.8572 42.546 20.0686 42.546 21.4125V36.512L42.6073 36.5422ZM22.7569 34.2018L27.5547 21.3068C27.892 20.4159 27.5547 19.7968 25.838 19.6307V18.5134H33.027V19.6307C32.4027 19.5796 31.7794 19.7404 31.2607 20.0866C30.7421 20.4327 30.3592 20.9432 30.1759 21.5333L23.0942 40H21.5613L13.5139 21.4578C13.3151 20.9626 12.9682 20.5386 12.5193 20.242C12.0704 19.9454 11.5405 19.7901 11 19.7968V18.6795H19.446V19.7968C17.9131 19.9176 17.7292 20.6877 17.9131 21.1407L22.8182 34.2169L22.7569 34.2018Z" fill="black"/>
</svg>
