<svg width="126" height="165" viewBox="0 0 126 165" fill="none" xmlns="http://www.w3.org/2000/svg">
<g clip-path="url(#clip0)">
<path d="M8.94736 74.2348C8.87943 56.856 6.13345 39.5926 0.807007 23.0578L0.877187 22.8463C5.01754 20.8021 13.4386 16.4316 21.9298 11.8496C31.1228 6.84471 41.2281 2.19226 46.3509 1.13488C53.0175 -0.204463 59.2632 1.8398 62.9825 7.54963C66.7017 1.7693 72.9474 -0.204463 79.614 1.13488C84.7368 2.19226 94.8421 6.84471 104.105 11.8496C112.596 16.4316 121.018 20.8021 125.158 22.7758L125.228 22.9873C119.896 39.545 117.15 56.8325 117.088 74.2348C117.088 91.3643 120.316 107.718 125.088 123.227L124.947 123.438C96.6667 133.941 79.4035 147.194 63.1228 164.253H62.8421C46.5614 147.194 29.5088 134.082 0.947361 123.509L0.807007 123.297C5.64911 107.718 8.94736 91.3643 8.94736 74.2348" fill="white"/>
<path d="M8.94736 74.2348C8.87943 56.856 6.13345 39.5926 0.807007 23.0578L0.877187 22.8463C5.01754 20.8021 13.4386 16.4316 21.9298 11.8496C31.1228 6.84471 41.2281 2.19226 46.3509 1.13488C53.0175 -0.204463 59.2632 1.8398 62.9825 7.54963C66.7017 1.7693 72.9474 -0.204463 79.614 1.13488C84.7368 2.19226 94.8421 6.84471 104.105 11.8496C112.596 16.4316 121.018 20.8021 125.158 22.7758L125.228 22.9873C119.896 39.545 117.15 56.8325 117.088 74.2348C117.088 91.3643 120.316 107.718 125.088 123.227L124.947 123.438C96.6667 133.941 79.4035 147.194 63.1228 164.253H62.8421C46.5614 147.194 29.5088 134.082 0.947361 123.509L0.807007 123.297C5.64911 107.718 8.94736 91.3643 8.94736 74.2348Z" stroke="#900027" stroke-width="2.1" stroke-miterlimit="3.86"/>
<path d="M95.8947 20.2382C88.7368 16.6431 81.3684 13.2595 77.4386 12.4841C69.9298 10.9333 64.1754 16.9956 63.2631 20.6611L63.0526 21.4365L62.8421 20.6611C61.9298 16.9956 56.3158 11.0038 48.807 12.4841C44.807 13.2595 37.4386 16.7136 30.3508 20.2382C23.2631 23.7628 16.5965 27.3578 13.5789 28.8382C17.7374 42.5975 19.8652 56.8948 19.8947 71.2742H30V63.5906H52.8772V40.6103H72.8491V63.5906H95.7263V71.246H106.323C106.357 56.867 108.485 42.5704 112.639 28.81C109.621 27.4001 102.814 23.7346 95.8666 20.21" fill="#900027"/>
<path d="M62.9824 149.238C76.7368 136.197 93.7895 123.579 112.456 117.094C110.281 109.134 108.663 101.031 107.614 92.8447C106.632 84.7381 106.351 77.266 106.281 76.0676H95.7544V83.7512H72.8491V106.732H52.8491V83.7512H29.9719V76.0676H19.8245C19.4321 89.9442 17.3583 103.721 13.6491 117.094C32.1754 123.579 49.2281 136.197 62.9824 149.238" fill="#900027"/>
</g>
<defs>
<clipPath id="clip0">
<rect width="126" height="165" fill="white"/>
</clipPath>
</defs>
</svg>
