<svg width="424" height="204" viewBox="0 0 424 204" fill="none" xmlns="http://www.w3.org/2000/svg">
<path d="M392.563 165.406L402.804 180.667C403.68 181.948 404.813 183.033 406.131 183.851C406.998 184.412 407.977 184.774 409 184.913V186.835H391.788V184.913C392.673 184.815 393.54 184.603 394.37 184.282C395.431 183.851 395.632 182.589 394.8 181.413L387.944 171.23L380.314 181.729C378.822 183.45 380.314 184.597 382.006 184.913V186.835H369.413V184.913C370.469 184.759 371.478 184.377 372.37 183.792C373.261 183.207 374.015 182.434 374.577 181.528L385.277 167.185L375.638 153.186C374.974 152.1 374.036 151.207 372.919 150.598C371.801 149.989 370.542 149.684 369.27 149.715V147.822H386.797V149.715C385.076 149.944 382.092 150.576 383.383 152.899L389.35 161.82L396.177 152.899C397.669 151.207 396.608 150.03 394.255 149.715V147.822H406.877V149.715C405.273 149.982 403.785 150.721 402.603 151.838L392.563 165.406ZM335.535 166.668C335.535 174.729 338.088 183.651 346.206 183.651C354.324 183.651 356.677 174.729 356.447 166.439C356.218 158.149 354.755 150.289 346.206 150.289C337.658 150.289 335.535 158.894 335.535 166.64V166.668ZM364.995 167.3C364.795 177.713 357.738 187.695 346.407 187.695C335.076 187.695 327.417 178.544 327.187 167.099C326.986 156.485 334.445 146.301 346.206 146.301C357.967 146.301 365.225 156.686 364.995 167.3V167.3ZM315.225 186.634H313.733L288.748 157.747V181.528C288.762 182.073 288.932 182.603 289.237 183.055C289.542 183.507 289.969 183.863 290.469 184.081C291.364 184.536 292.337 184.819 293.338 184.913V186.835H279.912V184.913C280.662 184.837 281.392 184.623 282.064 184.282C282.709 184.113 283.284 183.745 283.706 183.23C284.129 182.714 284.377 182.078 284.416 181.413V153.301C283.93 152.26 283.183 151.362 282.249 150.694C281.314 150.025 280.223 149.609 279.081 149.485V147.563H289.321L311.324 173.381V152.87C311.324 150.748 308.455 149.485 306.849 149.485V147.563H320.073V149.485C317.204 149.686 315.139 150.317 315.139 152.67V186.634H315.225ZM264.623 181.528C264.623 182.79 265.254 183.45 266.545 184.081C267.359 184.461 268.216 184.74 269.098 184.913V186.835H252.861V184.913C253.833 184.691 254.791 184.413 255.73 184.081C256.82 183.45 257.652 183.02 257.652 181.528V152.584C257.652 150.461 254.783 149.715 252.747 149.399V147.477H268.983V149.399C266.631 149.83 264.508 150.231 264.508 152.784V181.47L264.623 181.528ZM223.831 151.379C223.401 151.379 221.909 151.608 219.557 151.809V168.59H226.384C231.289 168.16 233.441 165.722 233.441 159.669C233.642 152.239 229.167 151.379 223.831 151.379ZM244.973 186.634H235.133L226.528 171.975H219.672V181.528C219.672 183.02 220.733 184.396 224.577 184.712L224.806 186.634H208.197V184.712C209.186 184.697 210.162 184.482 211.066 184.081C211.654 183.876 212.16 183.486 212.507 182.968C212.853 182.451 213.022 181.834 212.988 181.212V153.301C212.988 150.748 210.119 149.686 207.652 149.485V147.563H226.671C233.297 147.563 241.416 152.038 241.416 159.468C241.526 162.01 240.789 164.517 239.319 166.594C237.85 168.671 235.731 170.201 233.297 170.943L239.895 181.557C240.448 182.421 241.207 183.135 242.102 183.636C242.998 184.136 244.004 184.407 245.03 184.425L244.829 186.548L244.973 186.634ZM170.217 166.927C169.987 175.016 172.77 183.909 180.687 183.909C188.604 183.909 191.129 175.016 190.928 166.697C190.727 158.837 189.436 150.575 180.687 150.575C171.938 150.575 170.417 158.808 170.217 166.927ZM199.591 167.529C199.39 177.913 192.334 187.896 181.003 187.896C169.672 187.896 162.012 178.774 161.783 167.3C161.582 156.686 169.069 146.502 180.802 146.502C192.534 146.502 199.821 156.686 199.591 167.529V167.529ZM143.94 151.608V181.27C143.991 181.962 144.269 182.618 144.73 183.137C145.192 183.656 145.811 184.008 146.493 184.138C147.42 184.464 148.384 184.676 149.362 184.769V186.691H132.609V184.769C133.584 184.653 134.544 184.441 135.478 184.138C136.109 183.976 136.666 183.603 137.057 183.082C137.448 182.56 137.65 181.921 137.629 181.27L137.4 151.752H131.978C128.765 151.752 127.933 153.043 127.274 154.62C126.848 155.807 126.635 157.06 126.642 158.321H124.29V147.994H156.964V158.321H154.611C154.456 156.957 154.167 155.612 153.751 154.305C153.453 153.655 152.97 153.107 152.363 152.73C151.756 152.352 151.052 152.162 150.337 152.182H143.94V151.608ZM117.233 147.563L117.463 158.177H115.311C114.868 156.386 114.152 154.674 113.189 153.1C112.388 152.151 111.361 151.419 110.203 150.973C109.045 150.527 107.792 150.38 106.562 150.547C96.3212 150.547 95.4606 160.73 95.4606 167.099C95.4606 173.467 96.7228 184.081 107.423 183.851C109.657 183.683 111.832 183.051 113.808 181.994C115.784 180.936 117.517 179.478 118.897 177.713L119.327 177.282L121.45 178.975L121.249 179.204C119.699 181.867 117.488 184.085 114.829 185.643C112.171 187.201 109.155 188.046 106.074 188.097C93.4812 188.097 87.0556 176.852 87.0556 167.73C87.0556 160.099 91.7601 147.133 103.952 147.133C107.845 147.053 111.686 148.045 115.053 150.002L115.484 148.281H117.176L117.233 147.563ZM75.1508 181.528C75.1508 182.79 75.8106 183.45 77.0728 184.081C77.8967 184.461 78.7636 184.74 79.6545 184.913V186.835H63.4182V184.913C64.2788 184.712 65.7704 184.282 66.2868 184.081C67.3482 183.45 68.2088 183.02 68.2088 181.528V152.584C68.2088 150.461 65.3401 149.715 63.3034 149.399V147.477H79.5398V149.399C77.1875 149.83 75.0361 150.231 75.0361 152.784V181.47L75.1508 181.528ZM38.0023 177.081L46.981 152.584C47.6121 150.891 46.981 149.715 43.7682 149.399V147.277H57.222V149.399C56.0536 149.302 54.8872 149.608 53.9165 150.265C52.9459 150.923 52.2295 151.893 51.8864 153.014L38.6334 188.097H35.7647L20.7045 152.87C20.3325 151.93 19.6834 151.124 18.8433 150.561C18.0031 149.997 17.0116 149.702 16 149.715V147.592H31.8061V149.715C28.9374 149.944 28.5932 151.407 28.9374 152.268L38.117 177.11L38.0023 177.081Z" fill="black"/>
<path d="M180.142 60.2716C180.16 49.7311 178.504 39.2546 175.237 29.2332V28.9464C177.79 27.6268 182.925 25.045 188.06 22.2338C192.74 19.5553 197.693 17.382 202.833 15.7507C204.708 15.2581 206.691 15.3701 208.499 16.0706C210.307 16.7711 211.848 18.0245 212.902 19.6521C213.951 18.0268 215.486 16.7746 217.289 16.074C219.092 15.3734 221.071 15.2602 222.942 15.7507C228.098 17.3394 233.055 19.5147 237.715 22.2338C242.85 25.1024 247.985 27.6268 250.567 28.9464V29.2332C247.299 39.2848 245.633 49.7882 245.633 60.3577C245.732 70.4875 247.397 80.541 250.567 90.1626V90.3634C236.199 95.426 223.322 103.994 213.103 115.292H212.902C202.621 104.079 189.762 95.5426 175.438 90.4207V90.2199C178.422 80.5608 180.006 70.5238 180.142 60.415" fill="white"/>
<path d="M175.868 89.847C190.013 94.8546 202.724 103.234 212.902 114.259C223.095 103.251 235.801 94.8752 249.936 89.847C246.9 80.2778 245.305 70.3103 245.202 60.2716C245.271 49.7827 246.934 39.3652 250.136 29.3767C247.784 28.0571 242.85 25.7049 237.715 22.8936C233.045 20.1953 228.09 18.0211 222.942 16.4105C221.188 15.8957 219.314 15.9768 217.611 16.6412C215.908 17.3056 214.474 18.5158 213.533 20.0824L212.902 20.6274L212.472 19.7668C211.478 18.2568 210.035 17.0978 208.346 16.4542C206.657 15.8106 204.809 15.715 203.062 16.1811C197.978 17.791 193.09 19.9656 188.49 22.6641C183.154 25.5327 178.45 28.0571 176.098 29.1472C179.116 39.2503 180.7 49.7276 180.802 60.2716C180.609 70.3181 178.947 80.2822 175.868 89.847V89.847ZM213.332 115.292H212.472C202.21 104.19 189.416 95.7361 175.18 90.6503H174.95L174.749 90.0192V89.7897C177.775 80.2371 179.38 70.2913 179.511 60.2716C179.461 49.7812 177.797 39.361 174.577 29.3767V29.2332L174.807 28.5735H175.007C177.36 27.5121 182.294 24.9016 187.859 21.8896C192.553 19.0759 197.584 16.8685 202.833 15.3205C204.697 14.852 206.657 14.9302 208.478 15.5458C210.299 16.1613 211.905 17.2881 213.103 18.7915C214.289 17.2737 215.893 16.1363 217.718 15.5195C219.543 14.9027 221.509 14.8335 223.372 15.3205C228.573 16.9868 233.598 19.1581 238.375 21.8035C243.94 24.6722 248.846 27.5408 251.198 28.4874H251.427L251.628 29.1472V29.3767C248.45 39.3702 246.797 49.7854 246.723 60.2716C246.79 70.327 248.445 80.3086 251.628 89.847V90.0765L251.427 90.7076H251.226C236.734 95.597 223.704 104.051 213.332 115.292V115.292ZM232.81 27.426C229.274 25.4593 225.544 23.8635 221.68 22.6641C219.892 22.3571 218.052 22.6852 216.481 23.5915C214.909 24.4979 213.704 25.9254 213.074 27.6268L212.873 28.0571L212.644 27.6268C211.991 25.9417 210.781 24.5306 209.216 23.6278C207.65 22.725 205.823 22.385 204.038 22.6641C200.201 23.8639 196.5 25.4598 192.994 27.426C188.719 29.5775 184.646 31.7289 182.724 32.6182C185.323 40.9756 186.62 49.6836 186.568 58.4357H192.563V53.7886H206.476V39.7324H218.668V53.7886H232.581V58.321H239.006C238.954 49.5688 240.251 40.8609 242.85 32.5035C241.158 31.6142 237.113 29.4627 232.81 27.3113V27.426ZM212.902 105.854C221.385 97.311 231.596 90.6798 242.85 86.4047C241.542 81.5843 240.583 76.6758 239.982 71.7174C239.322 66.7547 239.121 61.9928 239.121 61.5625H232.581V66.0949H218.668V80.1224H206.476V66.0949H192.563V61.5625H186.568C186.375 69.9612 185.152 78.3043 182.925 86.4047C194.192 90.6722 204.413 97.3041 212.902 105.854V105.854Z" fill="#B10034"/>
</svg>
