<svg width="256" height="256" viewBox="0 0 256 256" fill="none" xmlns="http://www.w3.org/2000/svg">
<g clip-path="url(#clip0_245_2557)">
<path d="M227.927 172.417H212.442V186.848H227.927V172.417Z" fill="#666666"/>
<path d="M43.4853 172.417H28V186.848H43.4853V172.417Z" fill="#666666"/>
<path d="M33.2345 163.729H28V132.104H46.4297C50.8644 132.104 53.5543 132.868 55.699 134.794C57.6256 136.575 58.7525 139.193 58.7525 141.992C58.7525 144.027 58.1708 146.026 57.1167 147.553C54.3904 151.515 49.6648 151.515 46.8295 151.515H33.2345V163.729ZM33.1981 146.826H46.2843C47.8473 146.826 49.8466 146.826 51.2279 145.845C52.4638 145.009 53.2272 143.482 53.2272 141.773C53.2272 140.356 52.8273 139.265 51.9913 138.393C50.4282 136.757 47.8837 136.757 45.8117 136.757H33.1981V146.826Z" fill="#666666"/>
<path d="M80.2355 164.565C75.1465 164.565 71.0025 163.402 67.8764 161.076C65.0774 159.04 61.7332 155.187 61.7332 148.317C61.7332 136.612 70.8935 131.377 79.9447 131.377C90.9952 131.414 98.4107 138.248 98.4107 148.353C98.4107 159.549 89.2504 164.565 80.2355 164.565ZM80.0174 136.067C79.8357 136.067 79.6539 136.067 79.4722 136.067C73.3653 136.248 66.8586 139.484 66.8586 148.026C66.8586 149.734 67.1857 153.006 69.3304 155.514C71.6568 158.349 75.3282 159.767 80.2355 159.767C92.2675 159.767 93.2126 150.68 93.2126 147.881C93.2126 140.719 88.0145 136.067 80.0174 136.067Z" fill="#666666"/>
<path d="M137.851 163.729H131.09L121.166 151.515H107.716V163.765H102.555V132.141H123.02C125.674 132.177 128.945 132.25 131.599 134.758C132.616 135.703 134.361 137.848 134.361 141.664C134.361 148.535 129.418 150.134 126.873 150.679L137.851 163.729ZM107.644 146.899H121.675C123.747 146.899 126.582 146.899 128.145 144.754C128.763 143.955 129.054 142.973 129.054 141.773C129.054 140.647 128.763 139.592 128.254 138.793C127.091 136.83 125.201 136.793 123.42 136.757H123.311H107.68V146.899H107.644Z" fill="#666666"/>
<path d="M155.408 163.729H150.246V136.757H138.251V132.104H167.44V136.757H155.408V163.729Z" fill="#666666"/>
<path d="M199.647 163.729H193.758L181.29 138.974L169.149 163.729H163.405L179.072 132.104H184.089L199.647 163.729Z" fill="#666666"/>
<path d="M227.891 163.729H203.245V132.104H208.407V159.004H227.891V163.729Z" fill="#666666"/>
<path fill-rule="evenodd" clip-rule="evenodd" d="M197.538 112.875C195.685 109.095 193.576 105.496 191.213 102.152C192.268 100.225 192.777 98.0803 192.777 95.7903C192.777 88.5565 187.106 82.6678 180.127 82.6678C177.873 82.6678 175.801 83.2494 173.874 84.3762C160.534 74.3435 144.794 69 128.327 69C99.2106 69 72.4203 86.3755 59.1887 113.057H28.1091V122.435H65.0775V122.144L65.2593 121.744C76.019 95.4631 100.774 78.4875 128.291 78.4875C142.686 78.4875 156.462 83.0676 168.167 91.7917C167.731 93.1367 167.513 94.518 167.513 95.8993C167.513 103.06 173.147 108.913 180.054 108.913C181.326 108.913 182.707 108.695 183.98 108.258C186.997 112.657 189.505 117.201 191.359 121.781L191.541 122.181H191.613V122.508H228V112.875H197.538V112.875ZM180.127 102.733C176.382 102.733 173.329 99.5707 173.329 95.6812C173.329 91.7917 176.382 88.6292 180.127 88.6292C183.871 88.6292 186.924 91.7917 186.924 95.6812C186.924 99.5707 183.871 102.733 180.127 102.733Z" fill="#666666"/>
<path d="M49.6284 172.381H51.4096V185.43H58.8251V186.739H49.6284V172.381Z" fill="#666666"/>
<path d="M73.2563 172.126C78.309 172.126 82.7801 175.325 82.7801 179.542C82.7801 183.758 78.2726 186.957 73.2563 186.957C68.1672 186.957 63.7688 183.649 63.7688 179.614C63.7688 175.107 68.458 172.126 73.2563 172.126ZM73.2563 185.685C77.4002 185.685 80.9625 182.995 80.9625 179.578C80.9625 176.234 77.5093 173.435 73.2563 173.435C69.2214 173.435 65.55 176.088 65.55 179.651C65.55 182.922 69.076 185.685 73.2563 185.685Z" fill="#666666"/>
<path d="M90.0139 182.704C90.1229 184.522 91.5406 185.685 93.758 185.685C95.6482 185.685 97.3567 184.522 97.3567 182.85C97.3567 180.632 94.5577 180.087 93.3581 179.796C91.7224 179.396 88.7053 178.851 88.7053 176.016C88.7053 173.798 90.9226 172.163 93.758 172.163C96.7024 172.163 98.738 173.98 98.738 176.052H96.9568C96.9568 174.598 95.4665 173.435 93.7943 173.435C91.7224 173.435 90.5592 174.707 90.5592 175.943C90.5592 177.688 92.4857 178.088 94.8485 178.633C99.2105 179.578 99.2469 182.304 99.2469 182.777V182.813C99.2469 185.031 97.0295 187.03 93.8307 187.03C91.5043 187.03 88.3781 185.939 88.3054 182.777H90.0139V182.704Z" fill="#666666"/>
<path d="M121.711 172.381H123.711L131.417 186.739H129.454L126.873 181.904H118.513L115.895 186.739H114.042L121.711 172.381ZM119.203 180.596H126.146L122.693 174.016L119.203 180.596Z" fill="#666666"/>
<path d="M137.378 172.381H139.814L149.847 184.304H149.883V172.381H151.664V186.739H149.883L139.232 174.089H139.196V186.739H137.378V172.381Z" fill="#666666"/>
<path d="M159.189 172.381H164.423C166.641 172.381 168.822 172.817 170.276 173.58C173.438 175.143 174.347 177.906 174.347 179.614C174.347 180.959 173.693 183.831 170.276 185.576C168.822 186.339 166.641 186.775 164.423 186.775H159.189V172.381ZM161.006 185.43H163.587C165.223 185.43 167.695 185.43 169.73 184.267C170.821 183.54 172.529 182.05 172.529 179.542C172.529 177.651 171.33 175.87 169.476 174.78C167.876 173.944 166.204 173.689 163.551 173.689H160.97V185.43H161.006Z" fill="#666666"/>
<path d="M181.035 172.381H190.85V173.689H182.816V178.851H190.595V180.123H182.816V185.43H190.85V186.739H181.035V172.381Z" fill="#666666"/>
<path d="M198.556 182.704C198.665 184.522 200.083 185.685 202.3 185.685C204.19 185.685 205.899 184.522 205.899 182.85C205.899 180.632 203.1 180.087 201.9 179.796C200.265 179.396 197.247 178.851 197.247 176.016C197.247 173.798 199.465 172.163 202.3 172.163C205.245 172.163 207.28 173.98 207.28 176.052H205.499C205.499 174.598 204.009 173.435 202.337 173.435C200.265 173.435 199.101 174.707 199.101 175.943C199.101 177.688 201.028 178.088 203.354 178.633C207.716 179.578 207.753 182.304 207.753 182.777V182.813C207.753 185.031 205.535 187.03 202.337 187.03C200.01 187.03 196.884 185.939 196.811 182.777H198.556V182.704Z" fill="#666666"/>
</g>
<defs>
<clipPath id="clip0_245_2557">
<rect width="256" height="256" fill="white"/>
</clipPath>
</defs>
</svg>
