<svg width="256" height="256" viewBox="0 0 256 256" fill="none" xmlns="http://www.w3.org/2000/svg">
<g clip-path="url(#clip0_244_1817)">
<path d="M227.892 172.381H212.425V186.842H227.892V172.381Z" fill="white"/>
<path d="M43.4676 172.381H28V186.842H43.4676V172.381Z" fill="white"/>
<path d="M33.2158 163.748H28V132.13H46.4173C50.8417 132.13 53.5396 132.921 55.6978 134.827C57.6403 136.59 58.7194 139.216 58.7194 142.022C58.7194 144.036 58.1439 146.086 57.1007 147.597C54.3669 151.554 49.6547 151.554 46.813 151.554H33.2158V163.748ZM33.1799 146.806H46.2374C47.8201 146.806 49.7986 146.806 51.2014 145.799C52.4604 144.971 53.1799 143.46 53.1799 141.734C53.1799 140.331 52.7842 139.216 51.9568 138.353C50.4101 136.734 47.8201 136.734 45.7698 136.734H33.1799V146.806Z" fill="white"/>
<path d="M80.2303 164.54C75.1583 164.54 70.9857 163.353 67.8562 161.05C65.0504 159.036 61.7051 155.151 61.7051 148.281C61.7051 136.59 70.8418 131.338 79.9065 131.338C90.9497 131.374 98.3598 138.209 98.3598 148.317C98.3957 159.54 89.259 164.54 80.2303 164.54ZM80.0144 136.086C79.8346 136.086 79.6547 136.086 79.4749 136.086C73.3598 136.266 66.849 139.504 66.849 148.065C66.849 149.791 67.1727 153.029 69.295 155.547C71.6331 158.353 75.2662 159.791 80.1943 159.791C92.2446 159.791 93.1799 150.691 93.1799 147.921C93.2159 140.727 88.036 136.086 80.0144 136.086Z" fill="white"/>
<path d="M137.856 163.748H131.13L121.165 151.518H107.712V163.748H102.568V132.13H123.036C125.698 132.165 128.935 132.237 131.597 134.719C132.64 135.655 134.367 137.813 134.367 141.626C134.367 148.496 129.403 150.115 126.885 150.655L137.856 163.748ZM107.64 146.914H121.669C123.755 146.914 126.597 146.914 128.144 144.791C128.755 144 129.043 142.993 129.043 141.842C129.043 140.727 128.755 139.648 128.252 138.856C127.065 136.914 125.23 136.878 123.396 136.842H123.288H107.64V146.914V146.914Z" fill="white"/>
<path d="M155.374 163.748H150.23V136.734H138.252V132.094H167.424V136.734H155.41V163.748H155.374Z" fill="white"/>
<path d="M199.619 163.748H193.755L181.309 138.964L169.151 163.748H163.396L179.079 132.13H184.115L199.619 163.748Z" fill="white"/>
<path d="M227.856 163.748H203.216V132.13H208.36V159.036H227.82V163.748H227.856Z" fill="white"/>
<path fill-rule="evenodd" clip-rule="evenodd" d="M227.892 112.849H197.496C195.662 109.072 193.54 105.475 191.201 102.129C192.245 100.187 192.784 98.0647 192.784 95.7986C192.784 88.5683 187.101 82.705 180.158 82.705C177.928 82.705 175.806 83.2806 173.935 84.3957C160.554 74.3237 144.799 69 128.324 69C99.1871 69 72.4245 86.3741 59.187 113.029H28.1079V122.381H65.0863V122.094L65.2662 121.662C76.0216 95.3669 100.77 78.3885 128.288 78.3885C142.712 78.3885 156.453 82.9928 168.144 91.6978C167.712 93.0288 167.496 94.3957 167.496 95.8345C167.496 103.029 173.144 108.856 180.05 108.856C181.309 108.856 182.676 108.64 183.971 108.209C186.993 112.597 189.475 117.165 191.381 121.734L191.561 122.165H191.633V122.489H228V113.173V112.885H227.892V112.849ZM180.122 102.705C176.381 102.705 173.324 99.5396 173.324 95.6906C173.324 91.8058 176.381 88.6403 180.122 88.6403C183.863 88.6403 186.921 91.8058 186.921 95.6906C186.921 99.5396 183.863 102.705 180.122 102.705Z" fill="white"/>
<path d="M48.0359 172.381H52.7481C54.4388 172.417 56.0934 172.417 57.5683 173.173C59.115 173.964 59.9064 175.259 59.9064 176.698C59.9064 178.029 59.2229 179.216 57.856 180.007C56.4891 180.835 54.8704 180.943 53.2157 180.943H49.8344V186.734H48.0359V172.381V172.381ZM52.928 179.648C54.187 179.648 55.446 179.612 56.5251 179.072C57.5323 178.568 58.1078 177.633 58.1078 176.698C58.1078 175.439 57.2805 174.468 55.8776 174.036C54.6906 173.64 53.3596 173.712 52.1366 173.712H49.8344V179.684H52.928V179.648Z" fill="white"/>
<path d="M69.9064 172.381H71.8848L79.5827 186.734H77.6402L75.0503 181.914H66.705L64.1151 186.734H62.1726L69.9064 172.381ZM74.3669 180.619L70.9136 174.036L67.4244 180.619H74.3669Z" fill="white"/>
<path d="M85.338 173.676H81.2373V172.381H91.2373V173.676H87.1726V186.734H85.374V173.676H85.338Z" fill="white"/>
<path d="M100.59 172.381H102.568L110.266 186.734H108.324L105.734 181.914H97.3883L94.7984 186.734H92.856L100.59 172.381ZM105.014 180.619L101.561 174.036L98.0718 180.619H105.014Z" fill="white"/>
<path d="M133.827 180.115C133.503 184.036 129.187 186.986 124.331 186.986C119.151 186.986 114.726 183.676 114.726 179.504C114.726 177.597 115.805 175.691 117.496 174.36C119.367 172.885 121.777 172.166 124.331 172.166C126.201 172.166 128.036 172.561 129.582 173.389C130.734 174 132.244 175.115 132.712 176.23H130.662C129.403 174.54 126.813 173.568 124.295 173.568C122.388 173.568 120.446 174.108 118.971 175.187C117.496 176.266 116.489 177.921 116.489 179.54C116.489 183.029 120.086 185.619 124.367 185.619C127.568 185.619 130.734 183.928 131.633 181.41H121.597V180.115H133.827V180.115Z" fill="white"/>
<path d="M158 179.504C158 183.676 153.719 186.986 148.503 186.986C143.467 186.986 139.043 183.748 139.043 179.648C139.043 175.475 143.324 172.166 148.503 172.166C153.575 172.166 158 175.403 158 179.504ZM156.201 179.504C156.201 176.194 152.64 173.532 148.539 173.532C144.259 173.532 140.842 176.23 140.842 179.612C140.842 182.921 144.475 185.583 148.539 185.583C152.748 185.583 156.201 182.885 156.201 179.504Z" fill="white"/>
<path d="M164.043 172.381H166.453L176.489 184.288V172.381H178.288V186.734H176.489L165.806 174.108V186.734H164.007V172.381H164.043Z" fill="white"/>
<path d="M185.158 172.381H186.957V186.734H185.158V172.381Z" fill="white"/>
<path d="M199.942 172.381H201.921L209.619 186.734H207.676L205.086 181.914H196.741L194.151 186.734H192.208L199.942 172.381ZM204.367 180.619L200.914 174.036L197.424 180.619H204.367Z" fill="white"/>
</g>
<defs>
<clipPath id="clip0_244_1817">
<rect width="256" height="256" fill="white"/>
</clipPath>
</defs>
</svg>
