<?xml version="1.0" encoding="utf-8"?>
<!-- Generator: Adobe Illustrator 21.1.0, SVG Export Plug-In . SVG Version: 6.00 Build 0)  -->
<svg version="1.1" id="Capa_1" xmlns="http://www.w3.org/2000/svg" xmlns:xlink="http://www.w3.org/1999/xlink" x="0px" y="0px"
	 viewBox="0 0 333.1 71.2" style="enable-background:new 0 0 333.1 71.2;" xml:space="preserve">
<style type="text/css">
	.st0{fill:#FFFFFF;}
</style>
<g>
	<g>
		<path class="st0" d="M173.5,58.3c0-4.6,3.5-8.3,8.3-8.3c3,0,5.5,1.5,6.9,3.8l-1.1,0.6c-1.1-2-3.3-3.3-5.8-3.3
			c-4.2,0-7.1,3.2-7.1,7.1s2.9,7.1,7.1,7.1c2.5,0,4.8-1.4,5.8-3.4l1.1,0.6c-1.3,2.4-3.9,3.9-6.9,3.9
			C176.9,66.6,173.5,62.9,173.5,58.3z"/>
	</g>
	<g>
		<path class="st0" d="M189.9,60.6c0-3.4,2.7-6,6-6c3.3,0,6,2.6,6,6c0,3.4-2.7,6-6,6C192.6,66.6,189.9,64,189.9,60.6z M200.8,60.6
			c0-2.7-2.1-4.9-4.8-4.9c-2.7,0-4.9,2.2-4.9,4.9c0,2.7,2.1,4.9,4.9,4.9C198.7,65.5,200.8,63.3,200.8,60.6z"/>
	</g>
	<g>
		<path class="st0" d="M213.9,59.2v7.1h-1.2v-7.1c0-2.1-1.2-3.5-3.4-3.5c-2.2,0-4,1.5-4,4.6v6h-1.1V54.9h1.1v2.2
			c0.9-1.7,2.3-2.4,4.1-2.4C212.1,54.6,213.9,56.4,213.9,59.2z"/>
	</g>
	<g>
		<path class="st0" d="M232.9,60.7c0,0.2,0,0.4,0,0.6h-10.4c0.3,2.6,2.2,4.3,4.9,4.3c1.9,0,3.3-0.9,4-2.1l1,0.6
			c-0.9,1.6-2.7,2.6-5,2.6c-3.5,0-6-2.5-6-6c0-3.4,2.4-6,5.9-6C230.7,54.6,232.9,57.5,232.9,60.7z M222.5,60.1h9.2
			c-0.3-2.8-2.2-4.4-4.5-4.4C224.6,55.7,222.7,57.5,222.5,60.1z"/>
	</g>
	<g>
		<path class="st0" d="M235,49.6h1.1v16.7H235V49.6z"/>
	</g>
	<g>
		<path class="st0" d="M252.9,50.3h3.7v16h-3.7V60h-5v6.4h-3.7v-16h3.7v6.1h5V50.3z"/>
		<path class="st0" d="M267,54.9h3.4v11.5H267v-1.1c-0.8,0.9-1.9,1.4-3.4,1.4c-1.5,0-2.8-0.6-3.9-1.8c-1.1-1.2-1.6-2.6-1.6-4.3
			c0-1.7,0.5-3.1,1.6-4.3c1.1-1.2,2.4-1.8,3.9-1.8c1.5,0,2.6,0.5,3.4,1.4V54.9z M262.3,62.6c0.5,0.5,1.2,0.8,2,0.8
			c0.8,0,1.5-0.3,2-0.8c0.5-0.5,0.8-1.2,0.8-2c0-0.9-0.3-1.5-0.8-2c-0.5-0.5-1.2-0.8-2-0.8c-0.8,0-1.5,0.3-2,0.8
			c-0.5,0.5-0.8,1.2-0.8,2C261.5,61.5,261.8,62.1,262.3,62.6z M268.4,50.3l-2.7,3.2h-3.3l1.8-3.2H268.4z"/>
		<path class="st0" d="M279.3,54.6c1.5,0,2.8,0.6,3.9,1.8c1.1,1.2,1.6,2.6,1.6,4.3c0,1.7-0.5,3.1-1.6,4.3c-1.1,1.2-2.4,1.8-3.9,1.8
			c-1.5,0-2.6-0.5-3.4-1.4v1.1h-3.4v-16h3.4V56C276.7,55,277.8,54.6,279.3,54.6z M276.6,62.6c0.5,0.5,1.2,0.8,2,0.8
			c0.8,0,1.4-0.3,2-0.8c0.5-0.5,0.8-1.2,0.8-2c0-0.9-0.3-1.5-0.8-2c-0.5-0.5-1.2-0.8-2-0.8c-0.8,0-1.4,0.3-2,0.8
			c-0.5,0.5-0.8,1.2-0.8,2C275.9,61.5,276.1,62.1,276.6,62.6z"/>
		<path class="st0" d="M289.3,53.3c-0.4,0.4-0.9,0.6-1.5,0.6c-0.6,0-1.1-0.2-1.5-0.6c-0.4-0.4-0.6-0.9-0.6-1.5
			c0-0.6,0.2-1.1,0.6-1.5c0.4-0.4,0.9-0.6,1.5-0.6c0.6,0,1.1,0.2,1.5,0.6c0.4,0.4,0.6,0.9,0.6,1.5C290,52.4,289.7,52.9,289.3,53.3z
			 M286.2,66.3V54.9h3.4v11.5H286.2z"/>
	</g>
	<g>
		<path class="st0" d="M298.2,58.2h-2.4v4.1c0,0.5,0.2,0.7,0.5,0.9c0.4,0.1,1,0.2,1.8,0.1v3.1c-2.2,0.2-3.7,0-4.5-0.6
			c-0.8-0.6-1.3-1.8-1.3-3.5v-4.1h-1.8v-3.3h1.8v-2.2l3.4-1v3.2h2.4V58.2z"/>
	</g>
	<g>
		<path class="st0" d="M307.7,54.9h3.4v11.5h-3.4v-1.1c-0.8,0.9-1.9,1.4-3.4,1.4c-1.5,0-2.8-0.6-3.9-1.8c-1.1-1.2-1.6-2.6-1.6-4.3
			c0-1.7,0.5-3.1,1.6-4.3c1.1-1.2,2.4-1.8,3.9-1.8c1.5,0,2.6,0.5,3.4,1.4V54.9z M303,62.6c0.5,0.5,1.2,0.8,2,0.8
			c0.8,0,1.5-0.3,2-0.8c0.5-0.5,0.8-1.2,0.8-2c0-0.9-0.3-1.5-0.8-2c-0.5-0.5-1.2-0.8-2-0.8c-0.8,0-1.5,0.3-2,0.8
			c-0.5,0.5-0.8,1.2-0.8,2C302.3,61.5,302.5,62.1,303,62.6z"/>
		<path class="st0" d="M319.9,58.2h-2.4v4.1c0,0.5,0.2,0.7,0.5,0.9c0.4,0.1,1,0.2,1.8,0.1v3.1c-2.2,0.2-3.7,0-4.5-0.6
			c-0.8-0.6-1.3-1.8-1.3-3.5v-4.1h-1.8v-3.3h1.8v-2.2l3.4-1v3.2h2.4V58.2z"/>
	</g>
	<g>
		<path class="st0" d="M324.9,66c-0.4,0.4-0.9,0.6-1.5,0.6c-0.6,0-1.1-0.2-1.5-0.6c-0.4-0.4-0.6-0.9-0.6-1.5c0-0.6,0.2-1.1,0.6-1.5
			c0.4-0.4,0.9-0.6,1.5-0.6c0.6,0,1.1,0.2,1.5,0.6c0.4,0.4,0.6,0.9,0.6,1.5C325.6,65.1,325.4,65.6,324.9,66z"/>
	</g>
	<g>
		<g>
			<path class="st0" d="M27.4,20.3c-0.8-5.2-3.4-8.2-7.4-8.2c-5.5,0-7.8,4.8-7.9,11.9c-0.1,9.9,4.3,13.1,9.7,13.1
				c2.9,0,6.1-1.4,8.2-4.4c0.4-0.6,1.1-0.2,0.7,0.5c-1.8,4.6-5.8,7.3-11.5,7.3c-7.9,0-13.8-4.2-13.8-14.4c0-9.4,6.2-16.1,15.6-16.1
				c2.2,0,4.8,0.5,6.1,0.9c2,0.7,2.4,1.8,2,4.4l-0.8,5C28.3,20.8,27.5,20.8,27.4,20.3"/>
		</g>
		<g>
			<path class="st0" d="M50,10.1c8.7,0,15.3,5.6,15.3,15.1c0,7.8-5.7,15.4-14.9,15.4c-9.4,0-15.4-6-15.4-14.8
				C35,16.7,40.9,10.1,50,10.1 M50,11.7c-6.1,0-8.2,5.5-8,14.1c0.1,5.6,1.3,13,8.5,13c6.8,0,7.8-8.3,7.6-14.1
				C58,18.7,56.2,11.7,50,11.7"/>
		</g>
		<g>
			<path class="st0" d="M88.5,10.1c5.8,0,9.5,2.8,9.5,9.9c0,4.9-0.1,11.6,0.1,15.1c0.1,3.1,1.4,3.5,3.7,3.9c0.5,0,0.6,0.9,0,0.9
				c-2.5,0-4.9-0.2-6.7-0.2c-1.3,0-4.6,0.1-6,0.2c-0.5,0-0.4-0.8,0-0.9c1.7-0.2,2.2-1.4,2.3-3.8c0.1-3.6,0.1-9.6,0-13.9
				c-0.1-4.7-1.4-7.5-5.9-7.5c-3.4,0-5.8,1.8-6.8,3.2c-0.2,6.2-0.2,13,0.1,17.7c0.2,3.5,1,3.7,3.7,4.2c0.5,0,0.6,0.9,0,0.9
				c-2.3,0-5.5-0.2-7-0.2c-1.1,0-5,0.2-6.1,0.2c-0.5,0-0.4-0.8,0-0.9c1.5-0.4,2.4-0.6,2.7-4.2c0.3-3.5,0.2-14.2,0.1-16.4
				c-0.2-3.9-1-5.3-3.1-5.3h-0.8c-0.5,0-0.6-0.8-0.1-0.9c4.5-0.9,7.5-1.8,9.4-1.8c1.1,0,1.3,0.6,1.3,2.2v2.5
				C80.1,13,83.6,10.1,88.5,10.1"/>
		</g>
		<g>
			<path class="st0" d="M118.1,10.1c6.4,0,10.6,5.4,10.7,10.8c0,1.4-0.2,1.9-1.9,1.9c-1.9,0-5.8-0.1-9.1-0.1c-3.2,0-5.1,0-6.7,0.1
				c-0.1,0.8-0.1,1.5-0.1,3c0.1,8,4.4,11.3,10.2,11.3c2.5,0,5.4-0.8,7.7-3.2c0.4-0.4,0.8,0.1,0.6,0.5c-1.8,3.7-5.5,6.1-11.1,6.1
				c-7.6,0-14.2-4-14.4-14.4C104,17,109.5,10.1,118.1,10.1 M111.2,21C113.1,21,115,21,117,21c2,0,4,0,5.8-0.1c0.1-3-0.5-9.2-5.1-9.2
				C113.3,11.8,111.7,16.5,111.2,21"/>
		</g>
		<g>
			<path class="st0" d="M153.2,20.3c-0.8-5.2-3.4-8.2-7.4-8.2c-5.5,0-7.8,4.8-7.9,11.9c-0.1,9.9,4.3,13.1,9.7,13.1
				c2.9,0,6.1-1.4,8.2-4.4c0.4-0.6,1.1-0.2,0.7,0.5c-1.8,4.6-5.8,7.3-11.5,7.3c-7.9,0-13.8-4.2-13.8-14.4c0-9.4,6.2-16.1,15.6-16.1
				c2.2,0,4.8,0.5,6.1,0.9c2,0.7,2.4,1.8,2,4.4l-0.8,5C154,20.8,153.3,20.8,153.2,20.3"/>
		</g>
		<g>
			<path class="st0" d="M167.1,31.7c0.4,3.6,1.9,5.6,5.3,5.6c2.3,0,4.2-1.3,5.1-3.2c0.4-0.7,1.3-0.3,1.1,0.4
				c-1.1,3.6-3.7,5.9-8.7,5.9c-5.3,0-8.7-2.5-9.2-7.7c-0.4-4.8-0.1-11.4-0.1-19.1c-1,0-3,0-4.2,0.4c-0.4,0.1-0.6-0.6-0.2-0.8
				c1.3-0.8,3.5-2.3,5.8-3.9c2-1.5,3.8-3.5,5-4.5c0.4-0.4,0.8,0.1,0.6,0.6c-0.1,0.5-0.4,1.2-0.4,2.5c-0.1,1-0.1,2.7-0.1,3.4
				c1.2,0,3.8-0.1,7.5-0.1c1.2,0,1.9-0.1,2.7-0.4c-0.1,1-0.8,2.7-1.3,2.9c-1.9,0-4.9-0.1-8.9-0.1C166.7,21.3,166.7,27.5,167.1,31.7"
				/>
		</g>
		<g>
			<path class="st0" d="M192.9,10.1c6.4,0,10.6,5.4,10.7,10.8c0,1.4-0.2,1.9-1.9,1.9c-1.9,0-5.8-0.1-9.1-0.1c-3.2,0-5.1,0-6.7,0.1
				c-0.1,0.8-0.1,1.5-0.1,3c0.1,8,4.4,11.3,10.2,11.3c2.5,0,5.4-0.8,7.7-3.2c0.4-0.4,0.8,0.1,0.6,0.5c-1.8,3.7-5.5,6.1-11.1,6.1
				c-7.6,0-14.2-4-14.4-14.4C178.8,17,184.3,10.1,192.9,10.1 M186.1,21c1.9,0.1,3.7,0.1,5.8,0.1c2,0,4,0,5.8-0.1
				c0.1-3-0.5-9.2-5.1-9.2C188.1,11.8,186.6,16.5,186.1,21"/>
		</g>
		<g>
			<path class="st0" d="M206.6,13.1h-0.8c-0.5,0-0.6-0.8-0.1-0.9c4.5-0.9,7.5-1.8,9.4-1.8c1.1,0,1.3,0.6,1.3,2.2v2.5
				c1.5-2.1,4.6-5.1,9.2-5.1c4.3,0,7.5,1.5,8.9,5.2c2-2.7,5.6-5.2,9.9-5.2c5.6,0,9.7,2.6,9.7,9.9c0,4.9-0.1,11.7,0.1,15.1
				c0.1,3.1,1.4,3.5,3.7,3.9c0.5,0,0.6,0.9,0,0.9c-2.5,0-4.9-0.2-6.7-0.2c-1.3,0-4.6,0.1-6,0.2c-0.5,0-0.4-0.8,0-0.9
				c1.7-0.2,2.2-1.4,2.3-3.8c0.1-3.6,0.2-9.9,0-14.2c-0.2-4.4-1.5-7.1-6.1-7.1c-2.3,0-4.5,1-6.5,3c0.2,1,0.4,2.7,0.4,4.2
				c0,4.9-0.1,10.6,0.1,14c0.2,3.1,1.4,3.5,3.7,3.9c0.5,0,0.6,0.9,0,0.9c-2.5,0-4.9-0.2-6.7-0.2c-1.3,0-4.6,0.1-6,0.2
				c-0.5,0-0.4-0.8,0-0.9c1.7-0.2,2.2-1.4,2.3-3.8c0.2-3.6,0.2-10.1,0-14.4c-0.2-4.4-1.8-6.9-5.8-6.9c-3,0-5.2,1.8-6.3,3.1
				c-0.2,6.2-0.2,13.2,0.1,17.9c0.2,3.5,1,3.7,3.7,4.2c0.5,0,0.6,0.9,0,0.9c-2.3,0-5.5-0.2-7-0.2c-1.1,0-5,0.2-6.1,0.2
				c-0.5,0-0.4-0.8,0-0.9c1.5-0.4,2.4-0.6,2.7-4.2c0.3-3.5,0.2-14.2,0.1-16.4C209.5,14.5,208.7,13.1,206.6,13.1"/>
		</g>
		<g>
			<path class="st0" d="M275,10.1c8.7,0,15.3,5.6,15.3,15.1c0,7.8-5.7,15.4-14.9,15.4c-9.4,0-15.4-6-15.4-14.8
				C260,16.7,265.9,10.1,275,10.1 M275,11.7c-6.1,0-8.2,5.5-8,14.1c0.1,5.6,1.3,13,8.5,13c6.8,0,7.8-8.3,7.6-14.1
				C283,18.7,281.2,11.7,275,11.7"/>
		</g>
		<g>
			<path class="st0" d="M293.7,35.7c0-1.5,0.3-3.5,0.7-5.7c0.1-0.6,0.8-0.6,0.8,0c0.6,5.6,3.8,8.9,8.8,8.8c4.2-0.1,6.1-2.3,6.1-4.9
				c0-2.7-2-4.1-6.9-6.1c-6.3-2.5-8.9-5.4-9-9.5c0-4.9,3.6-8.1,10.5-8.2c2.7,0,5.4,0.4,6.9,0.9c2,0.8,2.2,1.7,2.1,3.2
				c-0.1,1.3-0.4,4.1-0.7,5.1c-0.1,0.4-0.7,0.4-0.8,0c-0.8-4.9-4-7.6-7.6-7.5c-3.2,0.1-4.9,1.7-4.9,4.2s1.5,3.8,6.6,6
				c6.5,2.7,9.1,5.1,9.2,9.6c0,5-4.3,8.9-11.9,9c-2.9,0-5.1-0.4-6.8-0.8C294.8,39.1,293.7,38.2,293.7,35.7"/>
		</g>
		<g>
			<path class="st0" d="M322.9,31.5c2.7,0,4.7,2,4.7,4.7c0,2.7-2,4.6-4.7,4.6c-2.7,0-4.6-2-4.6-4.6
				C318.3,33.5,320.2,31.5,322.9,31.5"/>
		</g>
		<g>
			<path class="st0" d="M9.4,30.4c0.3,0.6,0.7,1.2,1,1.8c0.4,0.6,0.8,1.1,1.2,1.6c0.9,1,1.9,1.9,3,2.6c1.1,0.7,2.3,1.2,3.6,1.4
				c0.7,0.1,1.3,0.3,2,0.3c0.6,0.1,1.3,0.1,1.9,0c0.6-0.1,1.2-0.2,1.8-0.4l0.4-0.2l0.4-0.2c0.3-0.1,0.6-0.3,0.9-0.4
				c1.1-0.6,2-1.5,2.9-2.5c0.9-1,1.6-2,2.4-3.2c0.7-1.1,1.4-2.3,1.9-3.5c0.5-1.2,0.9-2.4,1.3-3.8c0.4-1.3,0.8-2.7,1.4-4
				c0.6-1.3,1.2-2.6,2.1-3.8c0.8-1.2,1.8-2.4,3.1-3.2c0.6-0.4,1.3-0.8,1.9-1.1c0.3-0.1,0.7-0.3,1-0.4l1-0.4c1.4-0.5,2.8-0.8,4.3-0.9
				c2.9,0,5.7,1.2,7.7,3.1c-2.3-1.6-5-2.4-7.6-2c-1.3,0.2-2.6,0.5-3.7,1.1l-0.5,0.2c-0.2,0.1-0.3,0.2-0.5,0.2
				c-0.3,0.1-0.6,0.3-0.9,0.4c-0.6,0.3-1.1,0.6-1.6,1c-1.9,1.6-3.2,4-4.2,6.4c-0.5,1.2-0.9,2.5-1.2,3.8c-0.3,1.3-0.8,2.8-1.4,4.1
				c-0.6,1.3-1.3,2.6-2.1,3.8c-0.8,1.2-1.6,2.4-2.6,3.4c-1,1.1-2.2,2-3.5,2.7c-0.3,0.2-0.7,0.3-1,0.5l-0.5,0.2
				c-0.2,0.1-0.4,0.1-0.5,0.2c-0.7,0.2-1.5,0.3-2.2,0.4c-0.8,0-1.5,0-2.2-0.1c-0.7-0.1-1.5-0.3-2.1-0.5c-1.4-0.4-2.8-1.1-3.9-1.9
				c-1.1-0.9-2.1-2-2.9-3.1C10.5,33,9.8,31.7,9.4,30.4"/>
		</g>
	</g>
</g>
</svg>
