<?xml version="1.0" encoding="utf-8"?>
<!-- Generator: Adobe Illustrator 21.0.0, SVG Export Plug-In . SVG Version: 6.00 Build 0)  -->
<svg version="1.1" id="Capa_1" xmlns="http://www.w3.org/2000/svg" xmlns:xlink="http://www.w3.org/1999/xlink" x="0px" y="0px"
	 viewBox="0 0 500 500" style="enable-background:new 0 0 500 500;" xml:space="preserve">
<style type="text/css">
	.st0{fill:#E3E3E3;}
	.st1{fill:#FFFFFF;}
	.st2{fill:none;stroke:#CCCCCC;stroke-miterlimit:10;}
	.st3{fill:#CCCCCC;}
	.st4{fill:none;stroke:#FF9900;stroke-miterlimit:10;}
	.st5{fill:#FF9900;}
	.st6{fill:#292929;}
	.st7{fill:#F7F7F7;}
	.st8{opacity:0.2;}
	.st9{fill:none;stroke:#FFFFFF;stroke-width:1.0495;stroke-miterlimit:10;}
	.st10{fill-rule:evenodd;clip-rule:evenodd;fill:#F7F7F7;}
	.st11{fill:url(#SVGID_4_);}
	.st12{fill:url(#SVGID_5_);}
	.st13{fill-rule:evenodd;clip-rule:evenodd;fill:#FFFFFF;}
	.st14{fill:url(#SVGID_9_);}
	.st15{fill:url(#SVGID_10_);}
	.st16{clip-path:url(#SVGID_12_);}
	.st17{clip-path:url(#SVGID_14_);}
	.st18{fill:none;stroke:#FFFFFF;stroke-width:0.5728;stroke-miterlimit:10;}
	.st19{clip-path:url(#SVGID_14_);fill:#E3E3E3;}
	.st20{clip-path:url(#SVGID_19_);}
	.st21{fill:none;stroke:#FFFFFF;stroke-width:0.5762;stroke-miterlimit:10;}
	.st22{clip-path:url(#SVGID_24_);}
	.st23{clip-path:url(#SVGID_28_);}
</style>
<g>
	<g>
		<g>
			<path class="st5" d="M405.7,488.4h-41.4c-8,0-14.4-6.5-14.4-14.4s6.5-14.4,14.4-14.4h41.4c29.7,0,53.9-24.2,53.9-53.9v-43.8
				c0-8,6.5-14.4,14.4-14.4c8,0,14.4,6.5,14.4,14.4v43.8C488.4,451.3,451.3,488.4,405.7,488.4z"/>
			<path class="st5" d="M474,152.6c-8,0-14.4-6.5-14.4-14.4V94.3c0-29.7-24.2-53.9-53.9-53.9h-43.5c-8,0-14.4-6.5-14.4-14.4
				s6.5-14.4,14.4-14.4h43.5c45.6,0,82.7,37.1,82.7,82.7v43.8C488.4,146.1,482,152.6,474,152.6z"/>
			<path class="st5" d="M138.1,488.4H94.3c-45.6,0-82.7-37.1-82.7-82.7v-43.8c0-8,6.5-14.4,14.4-14.4s14.4,6.5,14.4,14.4v43.8
				c0,29.7,24.2,53.9,53.9,53.9h43.8c8,0,14.4,6.5,14.4,14.4S146.1,488.4,138.1,488.4z"/>
			<path class="st5" d="M26,152.6c-8,0-14.4-6.5-14.4-14.4V94.3c0-45.6,37.1-82.7,82.7-82.7h43.8c8,0,14.4,6.5,14.4,14.4
				s-6.5,14.4-14.4,14.4H94.3c-29.7,0-53.9,24.2-53.9,53.9v43.8C40.4,146.1,34,152.6,26,152.6z"/>
		</g>
		<g>
			<path class="st5" d="M250,409.2c-46.6,0-81.7-68.4-81.7-159.2S203.4,90.8,250,90.8c46.6,0,81.7,68.4,81.7,159.2
				c0,8-6.5,14.4-14.4,14.4s-14.4-6.5-14.4-14.4c0-74.6-27.9-130.4-52.8-130.4c-24.9,0-52.8,55.7-52.8,130.4s27.9,130.4,52.8,130.4
				c10,0,18.6-8.8,24.1-16.2c4.7-6.4,13.8-7.7,20.2-3c6.4,4.7,7.8,13.8,3,20.2C280.2,404.4,262.2,409.2,250,409.2z"/>
			<g>
				<path class="st5" d="M133.2,304c-2.6,0-5.3-0.7-7.7-2.2c-28.6-18.2-34.6-38.2-34.6-51.8c0-13.6,6-33.6,34.6-51.8
					c6.7-4.3,15.6-2.3,19.9,4.4c4.3,6.7,2.3,15.6-4.4,19.9c-7.9,5-21.3,15.3-21.3,27.4c0,12.1,13.3,22.4,21.2,27.4
					c6.7,4.3,8.7,13.2,4.4,19.9C142.6,301.7,137.9,304,133.2,304z"/>
				<path class="st5" d="M250,331.7c-8,0-14.4-6.5-14.4-14.4c0-8,6.5-14.4,14.4-14.4c74.6,0,130.4-27.9,130.4-52.8
					c0-12.1-13.3-22.4-21.3-27.4c-6.7-4.3-8.7-13.2-4.4-19.9c4.3-6.7,13.2-8.7,19.9-4.4c28.6,18.2,34.6,38.2,34.6,51.8
					C409.2,296.6,340.8,331.7,250,331.7z"/>
			</g>
		</g>
	</g>
</g>
</svg>
