<?xml version="1.0" encoding="utf-8"?>
<!-- Generator: Adobe Illustrator 21.1.0, SVG Export Plug-In . SVG Version: 6.00 Build 0)  -->
<svg version="1.1" id="Capa_1" xmlns="http://www.w3.org/2000/svg" xmlns:xlink="http://www.w3.org/1999/xlink" x="0px" y="0px"
	 viewBox="0 0 156 156" style="enable-background:new 0 0 156 156;" xml:space="preserve">
<style type="text/css">
	.st0{fill:#F7941E;}
</style>
<g>
	<g>
		<path class="st0" d="M128.5,155.3h-13.4c-2.6,0-4.7-2.1-4.7-4.7c0-2.6,2.1-4.7,4.7-4.7h13.4c9.6,0,17.5-7.8,17.5-17.5v-14.2
			c0-2.6,2.1-4.7,4.7-4.7c2.6,0,4.7,2.1,4.7,4.7v14.2C155.3,143.3,143.3,155.3,128.5,155.3z"/>
		<path class="st0" d="M150.7,46.4c-2.6,0-4.7-2.1-4.7-4.7V27.5c0-9.6-7.8-17.5-17.5-17.5h-14.1c-2.6,0-4.7-2.1-4.7-4.7
			s2.1-4.7,4.7-4.7h14.1c14.8,0,26.8,12,26.8,26.8v14.2C155.3,44.3,153.2,46.4,150.7,46.4z"/>
		<path class="st0" d="M41.7,155.3H27.5c-14.8,0-26.8-12-26.8-26.8v-14.2c0-2.6,2.1-4.7,4.7-4.7s4.7,2.1,4.7,4.7v14.2
			c0,9.6,7.8,17.5,17.5,17.5h14.2c2.6,0,4.7,2.1,4.7,4.7C46.4,153.2,44.3,155.3,41.7,155.3z"/>
		<path class="st0" d="M5.3,46.4c-2.6,0-4.7-2.1-4.7-4.7V27.5c0-14.8,12-26.8,26.8-26.8h14.2c2.6,0,4.7,2.1,4.7,4.7s-2,4.6-4.6,4.6
			H27.5C17.9,10,10,17.9,10,27.5v14.2C10,44.3,7.9,46.4,5.3,46.4z"/>
	</g>
	<path class="st0" d="M124.1,53.7c0-0.1,0-0.2,0-0.3c-0.2-1.2-0.8-2.2-1.7-3l0,0c-0.2-0.1-0.3-0.3-0.5-0.4L80.3,26
		c-1.4-0.8-3.2-0.8-4.7,0L34.1,50c-0.2,0.1-0.3,0.3-0.5,0.4l0,0c-0.9,0.7-1.5,1.8-1.7,3c0,0.1,0,0.2,0,0.3s0,0.2,0,0.3v48
		c0,1.7,0.9,3.2,2.3,4.1l41.5,24c0.7,0.4,1.5,0.6,2.3,0.6s1.6-0.2,2.3-0.6l41.5-24c1.4-0.8,2.3-2.4,2.3-4.1V54
		C124.2,53.9,124.2,53.8,124.1,53.7z M78,35.5L110.1,54L78,71.9L45.9,54L78,35.5z M41.2,62.1l32.2,18v37.8L41.2,99.3V62.1z
		 M82.7,117.8V80.1l32.2-18v37.2L82.7,117.8z"/>
</g>
</svg>
