<?xml version="1.0" encoding="utf-8"?>
<!-- Generator: Adobe Illustrator 21.1.0, SVG Export Plug-In . SVG Version: 6.00 Build 0)  -->
<svg version="1.1" id="Capa_1" xmlns="http://www.w3.org/2000/svg" xmlns:xlink="http://www.w3.org/1999/xlink" x="0px" y="0px"
	 viewBox="0 0 66 49.7" style="enable-background:new 0 0 66 49.7;" xml:space="preserve">
<style type="text/css">
	.st0{fill-rule:evenodd;clip-rule:evenodd;fill:#3C2415;}
	.st1{fill:#3C2415;}
</style>
<g>
	<path class="st0" d="M63.3,21.5C61,10,45.7,2.2,29,4.1C12.3,6,0.5,16.8,2.7,28.2C5,39.7,20.3,47.5,37,45.6
		C53.7,43.7,65.5,32.9,63.3,21.5 M61.8,26.7c-1.6,8.9-11.6,16.4-25,17.9C20.9,46.4,6.3,39,4.2,28.1c-2.1-10.9,9.1-21.2,25-23
		c10.4-1.2,20.2,1.6,26.4,6.7c-2.7-1.1-5.4-1.2-8.5-1.3C32.6,10,13.9,18.9,6.4,31.1l0.5,0c7.3-8.4,27.5-18,45.8-14.2
		C53.6,17.1,63,18.5,61.8,26.7"/>
	<path class="st1" d="M30.5,30.6c-0.3,0-0.6,0-0.7,0c-0.1,0-1.3-0.5-2.2-3.6c0.9-0.2,2.6-0.9,2.9-2.7c0.4-2-1.6-2.9-3.7-2.9l-5.1,0
		l-0.1,0.8l0.8,0.3l-1.6,8.9l2.7,0l0.8-4.2c0.2,0,0.8,0.3,1.1,1l0.6,1.9c0.5,1.3,1.2,1.4,2.6,1.4c0.6,0,1.6-0.1,1.9-0.1L30.5,30.6z
		 M25,22.5l0.9,0c1.5,0,2.2,0.6,2,1.7c-0.1,0.8-0.7,2-2.7,2l-0.9,0L25,22.5z"/>
	<path class="st1" d="M59.9,30.8c-0.3,0-0.6,0-0.7,0c-0.1,0-1.3-0.5-2.2-3.6c0.9-0.2,2.6-0.9,2.9-2.7c0.4-2-1.6-2.9-3.7-2.9l-5.1,0
		L51,22.4l0.8,0.3l-1.7,8.9l2.7,0l0.8-4.2c0.2,0,0.8,0.3,1.1,1l0.6,1.9c0.6,1.3,1.2,1.4,2.6,1.4c0.6,0,1.6-0.1,1.9-0.1L59.9,30.8z
		 M54.4,22.7l0.9,0c1.5,0,2.2,0.6,2,1.7c-0.1,0.8-0.7,2-2.7,2l-0.9,0L54.4,22.7z"/>
	<path class="st1" d="M40.3,23.7l0.2-1.2c-1-0.8-2.2-1.1-3.3-1.1c-3.6,0-6.1,2.6-6.5,5c-0.4,1.9,0.2,5,5,5.2
		c1.5,0.1,2.7-0.3,3.3-0.5l0.2-1.3c-0.6,0.2-1.5,0.5-2.9,0.5c-2,0-3.3-1.6-2.8-4c0.3-1.4,1.1-3.9,3.8-3.8
		C38.5,22.5,39.5,23,40.3,23.7"/>
	<path class="st1" d="M45.8,21.5c-3,0-5.6,2.1-6.1,5.1c-0.5,3,1,5.2,4.5,5.2c4.6,0,6-3.8,6.3-5.1C50.9,24.2,49.9,21.5,45.8,21.5
		 M45.8,22.8c2.3,0.1,2.5,2.2,2.2,3.9c-0.2,1-1.2,3.9-3.7,3.8c-2-0.1-2.5-2.1-2.1-3.9C42.4,25.1,43.6,22.7,45.8,22.8"/>
	<path class="st0" d="M13.6,17.6L5.4,31.1l1.5,0l6.2-10.2l2.5,8.5c0.6,2.1,1.9,2,2.9,2c0.3,0,1.1,0,1.5,0l0.1-0.8
		c-1.1,0-1.5-1.2-1.5-1.2C18.7,30,15,17.6,15,17.6L13.6,17.6z"/>
</g>
</svg>
