<?xml version="1.0" encoding="utf-8"?>
<!-- Generator: Adobe Illustrator 21.1.0, SVG Export Plug-In . SVG Version: 6.00 Build 0)  -->
<svg version="1.1" id="Capa_1" xmlns="http://www.w3.org/2000/svg" xmlns:xlink="http://www.w3.org/1999/xlink" x="0px" y="0px"
	 viewBox="0 0 133.1 19.6" style="enable-background:new 0 0 133.1 19.6;" xml:space="preserve">
<style type="text/css">
	.st0{fill:#FFFFFF;}
</style>
<g>
	<g>
		<rect x="20.2" y="4.5" class="st0" width="1.5" height="12.8"/>
		<polygon class="st0" points="25.2,4.5 32,14.8 32,4.5 33.5,4.5 33.5,17.3 31.8,17.3 25.2,7.4 25.2,17.3 23.7,17.3 23.7,4.5 		"/>
		<polygon class="st0" points="39.1,5.9 39.1,17.3 37.6,17.3 37.6,5.9 34.7,5.9 34.7,4.5 41.9,4.5 41.9,5.9 		"/>
		<polygon class="st0" points="49.7,4.5 49.7,5.9 44.6,5.9 44.6,10.2 49.7,10.2 49.7,11.6 44.6,11.6 44.6,15.9 49.7,15.9 49.7,17.3 
			43.1,17.3 43.1,4.5 		"/>
		<path class="st0" d="M54.5,13.1h-1.4v4.2h-1.5V4.5H55c1,0.1,1.8,0.6,2.5,1.3c0.8,0.8,1.2,1.8,1.2,3c0,1.2-0.4,2.2-1.2,3
			c-0.5,0.6-1,0.9-1.4,1l2.7,4.4H57L54.5,13.1z M53.1,5.9v5.8h1.5c0.7,0,1.3-0.3,1.8-0.8c0.5-0.6,0.8-1.2,0.8-2.1
			c0-0.8-0.3-1.5-0.8-2.1c-0.5-0.6-1.1-0.8-1.8-0.8H53.1z"/>
		<path class="st0" d="M69.6,14.5l1.1,1c-1.4,1.3-2.8,2-4.5,2c-1.7,0-3.2-0.6-4.4-1.9c-1.2-1.3-1.8-2.8-1.8-4.6
			c0-1.8,0.6-3.3,1.8-4.6c1.2-1.3,2.7-1.9,4.4-1.9c1.6,0,3.1,0.7,4.5,2l-1.1,1c-1.1-1-2.2-1.6-3.4-1.6c-1.3,0-2.4,0.5-3.3,1.5
			c-0.9,1-1.4,2.2-1.4,3.6c0,1.4,0.5,2.7,1.4,3.7c0.9,1,2,1.5,3.3,1.5C67.3,16.1,68.5,15.5,69.6,14.5"/>
		<polygon class="st0" points="78.6,4.5 78.6,5.9 73.6,5.9 73.6,10.2 78.6,10.2 78.6,11.6 73.6,11.6 73.6,15.9 78.6,15.9 78.6,17.3 
			72.1,17.3 72.1,4.5 		"/>
		<path class="st0" d="M83.4,13.1H82v4.2h-1.5V4.5h3.4c1,0.1,1.8,0.6,2.5,1.3c0.8,0.8,1.2,1.8,1.2,3c0,1.2-0.4,2.2-1.2,3
			c-0.5,0.6-1,0.9-1.4,1l2.7,4.4h-1.7L83.4,13.1z M82,5.9v5.8h1.5c0.7,0,1.3-0.3,1.8-0.8c0.5-0.6,0.8-1.2,0.8-2.1
			c0-0.8-0.3-1.5-0.8-2.1c-0.5-0.6-1.1-0.8-1.8-0.8H82z"/>
		<path class="st0" d="M94,4.5l4.4,12.8h-1.6L94.9,12h-3.3l-1.8,5.3h-1.6l4.4-12.8H94z M94.5,10.6l-1.2-3.4l-1.2,3.4H94.5z"/>
		<polygon class="st0" points="110.1,4.5 110.1,17.3 108.5,17.3 108.5,6.9 104.6,12.4 100.6,6.9 100.6,17.3 99.1,17.3 99.1,4.5 
			100.7,4.5 104.6,9.9 108.4,4.5 		"/>
		<rect x="111.9" y="4.5" class="st0" width="1.5" height="12.8"/>
		<path class="st0" d="M124.7,14.5l1.1,1c-1.4,1.3-2.8,2-4.5,2c-1.7,0-3.2-0.6-4.4-1.9c-1.2-1.3-1.8-2.8-1.8-4.6
			c0-1.8,0.6-3.3,1.8-4.6c1.2-1.3,2.7-1.9,4.4-1.9c1.6,0,3.1,0.7,4.5,2l-1.1,1c-1.1-1-2.2-1.6-3.4-1.6c-1.3,0-2.4,0.5-3.3,1.5
			c-0.9,1-1.4,2.2-1.4,3.6c0,1.4,0.5,2.7,1.4,3.7c0.9,1,2,1.5,3.3,1.5C122.4,16.1,123.6,15.5,124.7,14.5"/>
		<polygon class="st0" points="14.8,11.9 9.6,17.5 14.8,17.5 		"/>
		<polygon class="st0" points="2.5,4.4 2.5,10 7.8,4.4 		"/>
		<polygon class="st0" points="2.5,17.5 7.7,17.5 2.5,11.9 		"/>
		<polygon class="st0" points="14.8,4.4 9.5,4.4 14.8,10 		"/>
		<polygon class="st0" points="5.5,8.5 3.2,10.9 5.5,13.4 7.8,10.9 		"/>
		<polygon class="st0" points="11,7.6 8.7,5.1 6.4,7.6 8.7,10 		"/>
		<polygon class="st0" points="6.4,14.3 8.7,16.7 11,14.3 8.7,11.8 		"/>
		<polygon class="st0" points="9.5,10.9 11.8,13.4 14.1,10.9 11.8,8.5 		"/>
		<path class="st0" d="M127.6,3.9c0-0.8,0.6-1.5,1.4-1.5c0.7,0,1.4,0.7,1.4,1.5s-0.6,1.5-1.4,1.5C128.2,5.3,127.6,4.7,127.6,3.9
			 M129,5.6c0.9,0,1.6-0.8,1.6-1.7c0-0.9-0.7-1.7-1.6-1.7c-0.9,0-1.6,0.8-1.6,1.7C127.4,4.8,128.1,5.6,129,5.6 M128.4,4.7h0.3V4h0.4
			l0.3,0.7h0.3l-0.3-0.8c0.1-0.1,0.3-0.1,0.3-0.4c0-0.5-0.4-0.6-0.7-0.6h-0.6V4.7z M128.7,3.2h0.3c0.2,0,0.3,0.1,0.3,0.2
			c0,0.2-0.1,0.2-0.3,0.2h-0.4V3.2z"/>
	</g>
</g>
</svg>
